<?xml version="1.0" encoding="UTF-8" standalone="no"?>
<!DOCTYPE svg PUBLIC "-//W3C//DTD SVG 1.1//EN" "http://www.w3.org/Graphics/SVG/1.1/DTD/svg11.dtd">
<svg xmlns="http://www.w3.org/2000/svg" version="1.1" viewBox="0.00 0.00 612.00 1080.00">
<g stroke-width="2.00" fill="none" stroke-linecap="butt">
<path stroke="#098be6" vector-effect="non-scaling-stroke" d="
  M 202.31 470.40
  L 201.23 470.40
  Q 200.61 470.39 200.79 470.99
  Q 201.65 473.74 201.74 476.39
  Q 201.79 477.77 202.40 479.13
  Q 204.02 482.74 206.66 485.99
  Q 207.41 486.91 208.32 487.44
  Q 209.26 487.99 210.18 488.57
  A 2.03 1.90 -89.8 0 1 210.86 489.30
  Q 211.59 490.66 212.98 491.53
  Q 216.07 493.47 218.89 494.97
  Q 221.74 496.49 223.56 498.32
  Q 224.61 499.38 225.74 500.22
  Q 227.03 501.18 228.01 502.33
  Q 229.41 503.98 231.39 504.74
  Q 235.49 506.33 240.75 505.77
  Q 245.01 505.32 248.14 504.01
  Q 249.96 503.24 251.63 502.97
  Q 253.53 502.66 255.39 501.35
  A 1.36 1.34 31.7 0 1 256.39 501.12
  Q 257.34 501.29 258.18 500.88
  Q 259.26 500.36 260.41 500.21
  Q 264.27 499.71 267.39 501.48
  Q 268.93 502.36 270.67 502.74
  Q 272.32 503.11 273.98 503.67
  Q 279.51 505.56 285.35 506.50
  Q 286.67 506.71 287.94 506.67
  Q 289.24 506.64 290.52 506.36
  Q 291.23 506.21 291.84 506.58
  Q 292.26 506.84 292.75 506.85
  Q 300.20 507.10 307.93 506.23
  Q 310.74 505.91 313.59 505.73
  Q 316.46 505.55 319.26 505.31
  Q 325.54 504.78 332.26 506.05
  Q 335.16 506.60 338.22 506.74
  Q 341.46 506.89 344.39 507.08
  Q 349.06 507.38 353.58 507.16
  Q 359.28 506.89 364.79 506.85
  A 1.67 1.60 27.1 0 0 365.63 506.60
  C 366.45 506.09 367.66 506.51 368.61 506.30
  Q 371.29 505.70 373.76 505.62
  Q 381.57 505.39 390.19 504.66
  Q 391.83 504.53 393.20 503.86
  Q 394.50 503.24 395.87 503.13
  Q 396.32 503.10 396.72 502.90
  L 406.31 498.22
  A 1.75 1.70 2.2 0 0 407.02 497.58
  C 408.50 495.19 411.06 495.02 413.19 496.60
  Q 415.70 498.46 418.14 499.95
  Q 418.32 500.06 418.50 499.94
  Q 418.62 499.86 418.73 499.95
  Q 421.16 501.86 424.90 502.15
  Q 429.37 502.50 433.11 501.95
  Q 433.63 501.87 433.93 501.45
  Q 434.22 501.06 434.66 500.94
  Q 435.27 500.76 435.76 500.30
  Q 438.46 497.81 439.36 494.17
  Q 440.81 488.37 441.04 483.15
  Q 441.18 479.93 441.83 476.69
  Q 442.52 473.20 442.37 470.17
  Q 441.36 450.78 441.89 446.50
  Q 443.25 435.55 442.58 424.58
  Q 442.45 422.40 441.75 420.00
  C 440.97 417.35 440.56 415.18 438.92 412.59
  Q 438.08 411.26 436.64 410.33
  Q 433.99 408.63 431.32 406.96
  Q 429.92 406.08 428.01 405.39
  Q 426.28 404.76 424.60 403.99"
/>
<path stroke="#85ccff" vector-effect="non-scaling-stroke" d="
  M 424.60 403.99
  L 424.60 390.60
  Q 424.60 390.00 424.00 390.00
  L 406.24 390.02
  Q 405.65 390.02 405.65 390.61
  L 405.66 410.21"
/>
<path stroke="#087fd2" vector-effect="non-scaling-stroke" d="
  M 405.66 410.21
  L 405.45 413.71
  Q 405.43 413.95 405.29 413.75
  L 404.98 413.30
  Q 404.69 412.89 404.21 412.78
  Q 403.80 412.70 403.60 412.29
  A 0.89 0.86 -89.1 0 0 403.30 411.97
  Q 401.47 410.88 399.47 409.54
  Q 397.91 408.49 395.77 407.64
  Q 392.93 406.52 390.48 404.97
  A 1.31 1.30 -71.2 0 0 388.48 405.96
  L 388.25 408.72"
/>
<path stroke="#85ccff" vector-effect="non-scaling-stroke" d="
  M 388.25 408.72
  L 388.26 390.81
  Q 388.26 390.00 387.46 390.00
  L 369.67 390.05
  A 0.54 0.54 0.0 0 0 369.13 390.59
  L 369.18 401.61"
/>
<path stroke="#087fd2" vector-effect="non-scaling-stroke" d="
  M 369.18 401.61
  Q 366.20 399.59 363.26 400.03"
/>
<path stroke="#85ccff" vector-effect="non-scaling-stroke" d="
  M 363.26 400.03
  L 363.25 391.56
  Q 363.25 391.02 362.71 391.02
  L 314.52 391.05
  A 0.39 0.38 0.0 0 0 314.13 391.43
  L 314.15 411.46"
/>
<path stroke="#087fd2" vector-effect="non-scaling-stroke" d="
  M 314.15 411.46
  Q 311.58 408.33 308.32 408.98"
/>
<path stroke="#85ccff" vector-effect="non-scaling-stroke" d="
  M 308.32 408.98
  L 308.30 391.41
  A 0.37 0.37 0.0 0 0 307.93 391.04
  L 259.74 391.03
  A 0.53 0.52 -90.0 0 0 259.22 391.56
  L 259.23 408.03"
/>
<path stroke="#0878c7" vector-effect="non-scaling-stroke" d="
  M 259.23 408.03
  Q 256.84 406.39 253.65 406.92"
/>
<path stroke="#85ccff" vector-effect="non-scaling-stroke" d="
  M 253.65 406.92
  Q 246.24 398.84 238.14 391.09
  Q 236.94 389.95 235.25 389.95
  Q 224.65 389.98 214.58 390.03
  A 2.28 2.27 -67.6 0 0 212.96 390.71
  L 198.40 405.51
  Q 197.73 406.19 197.73 407.15
  L 197.68 465.08
  Q 197.68 465.57 198.02 465.93
  L 202.31 470.40"
/>
<path stroke="#83abc7" vector-effect="non-scaling-stroke" d="
  M 253.65 406.92
  L 253.35 420.62
  A 0.39 0.38 -89.2 0 1 252.97 421.00
  L 234.79 421.00
  A 0.45 0.44 -89.4 0 1 234.35 420.54
  L 234.47 414.74
  Q 234.48 414.12 234.03 413.68
  L 229.38 409.17
  Q 228.93 408.74 228.31 408.75
  L 222.79 408.84
  A 1.85 1.84 22.1 0 0 221.51 409.38
  L 217.36 413.47
  Q 216.75 414.07 216.75 414.92
  L 216.75 457.12
  Q 216.75 457.85 217.25 458.37
  L 221.35 462.59
  A 1.71 1.68 -19.0 0 0 222.40 463.09
  C 224.85 463.30 228.52 463.86 230.49 461.90
  Q 232.37 460.02 233.95 458.27
  Q 234.37 457.81 234.37 457.18
  L 234.41 445.71
  Q 234.41 445.01 233.71 445.01
  L 224.07 444.99
  A 0.67 0.66 -90.0 0 1 223.41 444.32
  L 223.40 427.35
  A 0.34 0.34 0.0 0 1 223.74 427.01
  L 253.00 427.00
  A 0.43 0.43 0.0 0 1 253.43 427.43
  L 253.29 465.46
  A 0.85 0.85 0.0 0 1 253.03 466.07
  Q 246.04 473.07 238.34 480.99
  Q 237.34 482.02 236.00 482.01
  Q 227.96 481.99 219.98 481.99"
/>
<path stroke="#83b2d2" vector-effect="non-scaling-stroke" d="
  M 219.98 481.99
  Q 217.69 482.23 215.59 481.95
  Q 213.65 481.69 211.95 480.06
  Q 208.79 477.01 205.45 473.60"
/>
<path stroke="#84bee6" vector-effect="non-scaling-stroke" d="
  M 205.45 473.60
  L 202.31 470.40"
/>
<path stroke="#065e9a" vector-effect="non-scaling-stroke" d="
  M 388.10 468.79
  L 388.32 480.30
  Q 388.33 480.81 388.84 480.87
  Q 389.04 480.90 389.21 480.76
  Q 389.53 480.46 389.36 480.87
  Q 389.31 480.98 389.43 481.10
  Q 389.58 481.25 389.72 481.08
  Q 391.34 479.14 392.54 477.18
  Q 393.37 475.82 394.76 474.89
  Q 395.96 474.09 396.31 472.70
  Q 396.42 472.24 396.87 472.08
  Q 397.47 471.86 397.66 471.24
  Q 398.12 469.79 399.34 468.99
  Q 399.75 468.72 399.99 468.29
  Q 401.02 466.46 404.09 465.64
  Q 405.74 465.20 405.69 463.04"
/>
<path stroke="#065e9a" vector-effect="non-scaling-stroke" d="
  M 424.62 482.01
  Q 422.40 482.64 421.85 482.49
  A 0.95 0.91 -85.8 0 0 420.72 483.51
  Q 420.78 484.18 421.44 484.18
  A 1.07 1.07 0.0 0 1 422.37 484.69
  Q 423.63 486.73 424.77 488.74
  Q 426.11 491.09 428.48 490.43
  Q 431.79 489.51 433.71 487.00
  A 2.12 2.10 56.2 0 0 434.06 485.18
  Q 433.44 482.96 432.73 480.57
  C 431.67 477.00 432.18 472.86 432.12 469.14
  Q 432.07 466.10 431.82 462.39
  Q 431.49 457.60 431.86 450.50
  Q 432.20 443.98 431.70 429.07
  Q 431.66 427.90 431.21 426.77
  Q 430.58 425.18 430.40 424.50
  Q 429.86 422.40 428.43 420.73
  A 2.20 2.12 -74.0 0 1 427.98 419.88
  Q 427.13 416.78 424.75 415.46"
/>
<path stroke="#0771b9" vector-effect="non-scaling-stroke" d="
  M 424.69 410.97
  L 424.82 408.77
  Q 424.85 408.29 425.33 408.25
  Q 426.53 408.15 427.36 408.91
  Q 428.58 410.02 428.81 410.20
  Q 433.84 414.06 435.08 416.38
  Q 436.68 419.36 437.28 421.91
  Q 437.93 424.68 438.31 427.86
  Q 438.68 430.97 438.50 434.19
  Q 438.21 439.35 437.75 444.50
  Q 437.26 449.90 437.82 459.25
  C 437.89 460.28 437.52 461.16 437.60 462.22
  Q 438.62 474.79 437.79 487.06
  Q 437.64 489.28 436.58 491.59
  Q 435.56 493.80 434.32 495.80
  Q 433.38 497.34 431.50 497.66
  Q 425.44 498.69 420.64 496.24
  Q 418.56 495.19 416.89 493.85
  Q 415.37 492.63 413.61 491.63
  Q 411.88 490.65 410.30 489.55
  Q 408.82 488.53 407.01 489.09
  Q 405.39 489.58 404.68 490.89
  Q 402.94 494.09 398.92 495.20
  A 1.39 1.35 9.5 0 0 398.21 495.69
  C 397.88 496.13 397.67 496.38 397.12 496.64
  Q 394.68 497.76 393.19 498.15
  Q 388.17 499.45 382.34 500.06
  C 380.86 500.21 379.25 499.89 377.89 500.38
  Q 376.45 500.89 374.91 501.01
  Q 366.23 501.68 357.63 503.02
  C 356.33 503.22 355.37 503.02 354.09 502.94
  Q 353.11 502.88 351.44 503.06
  Q 349.25 503.31 347.08 503.00
  C 345.85 502.83 344.52 503.25 343.25 503.19
  Q 339.46 503.03 335.94 502.85
  Q 335.67 502.83 335.55 502.59
  Q 335.48 502.44 335.32 502.40
  Q 332.77 501.86 330.02 501.36
  C 328.29 501.04 326.71 501.23 324.99 500.91
  Q 323.27 500.60 321.50 500.65
  Q 319.61 500.70 317.96 501.03
  Q 316.51 501.31 314.94 501.35
  Q 313.54 501.38 312.01 501.65
  Q 305.22 502.84 298.55 503.50
  Q 297.08 503.65 295.54 503.50
  C 292.99 503.26 290.62 503.49 288.06 503.01
  Q 285.78 502.58 283.30 502.27
  Q 281.78 502.08 280.56 501.55
  Q 279.39 501.04 278.03 500.36
  Q 277.57 500.13 277.07 500.09
  Q 276.58 500.06 276.21 499.80
  Q 275.18 499.08 275.18 499.08
  Q 273.27 498.14 271.42 497.12
  C 270.36 496.54 269.60 496.75 268.56 496.16
  Q 267.54 495.57 266.33 495.48
  Q 264.05 495.32 261.57 495.56
  C 259.92 495.72 258.76 496.67 257.14 496.60
  A 1.80 1.76 31.0 0 0 256.26 496.81
  Q 253.51 498.32 250.74 498.68
  Q 250.21 498.75 249.85 499.14
  C 248.75 500.37 247.40 500.01 245.98 500.52
  Q 241.30 502.22 236.32 502.14
  Q 234.70 502.11 233.33 501.70
  Q 231.74 501.23 230.17 500.79
  A 2.25 2.19 -13.7 0 1 229.22 500.23
  Q 228.66 499.67 227.93 499.38
  Q 225.32 498.37 223.54 496.26
  Q 222.84 495.43 221.90 495.00
  Q 220.89 494.53 219.81 494.14
  Q 218.21 493.57 217.03 492.58
  Q 214.97 490.85 213.55 488.84
  Q 212.78 487.74 211.66 486.99
  Q 210.28 486.08 208.92 485.26
  Q 208.48 484.99 208.26 484.53
  Q 207.81 483.55 206.97 482.77
  Q 206.55 482.38 206.48 481.82
  L 205.45 473.60"
/>
<path stroke="#065e9a" vector-effect="non-scaling-stroke" d="
  M 219.98 481.99
  Q 219.53 482.29 219.98 482.62
  Q 220.45 482.98 219.90 483.19
  Q 219.43 483.37 219.40 483.92
  Q 219.36 484.49 218.82 484.65
  Q 217.30 485.11 216.20 486.44
  A 0.97 0.96 -32.4 0 0 216.01 487.27
  Q 216.47 489.13 217.63 491.14
  Q 217.92 491.65 218.51 491.63
  Q 219.34 491.60 219.89 492.24
  Q 220.22 492.63 220.74 492.65
  Q 224.38 492.76 228.03 492.99
  Q 229.32 493.07 233.00 492.99
  Q 235.27 492.94 237.97 493.23
  Q 238.73 493.30 239.24 492.69
  Q 239.65 492.21 240.26 492.06
  Q 241.46 491.77 242.92 491.62
  Q 246.51 491.23 251.72 488.61
  C 253.09 487.92 254.65 487.96 256.11 487.44
  Q 256.77 487.20 257.49 487.10
  Q 258.18 487.00 258.58 486.42
  Q 258.90 485.97 259.44 485.84
  L 262.99 485.03
  Q 263.38 484.95 263.75 485.06
  L 265.93 485.74
  Q 266.40 485.88 266.87 485.74
  Q 268.67 485.17 269.87 486.39
  C 270.94 487.47 273.16 487.74 274.59 487.83
  C 276.18 487.94 277.33 488.54 278.80 488.87
  Q 279.52 489.03 280.09 488.57
  Q 281.62 487.32 282.78 488.62
  Q 283.35 489.25 283.63 488.45
  Q 283.89 487.69 284.57 488.08
  Q 284.74 488.18 284.92 488.09
  Q 285.09 488.01 285.06 487.82
  Q 284.98 487.29 285.51 487.37
  Q 286.54 487.53 287.33 486.82
  Q 287.67 486.51 287.65 486.06
  Q 287.63 485.24 287.98 484.47
  Q 288.97 484.11 288.39 481.99"
/>
<path stroke="#065e9a" vector-effect="non-scaling-stroke" d="
  M 296.44 463.96
  Q 297.04 463.51 297.87 463.62
  Q 298.47 463.70 297.86 463.69
  Q 297.47 463.68 297.22 463.42
  Q 297.14 463.34 297.15 463.23
  Q 297.20 461.27 298.33 459.86
  Q 299.30 458.64 299.89 457.11
  Q 300.64 455.19 300.49 453.31
  Q 300.36 451.71 300.42 450.08
  Q 300.47 448.55 299.92 447.31
  Q 299.27 445.84 298.31 445.03"
/>
<path stroke="#065e9a" vector-effect="non-scaling-stroke" d="
  M 357.20 463.97
  Q 357.25 463.65 357.63 463.60
  Q 358.47 463.50 357.79 463.40
  Q 357.25 463.32 356.70 463.41
  A 0.49 0.49 0.0 0 1 356.17 462.72
  Q 357.20 460.41 358.06 458.03
  Q 358.66 456.38 358.34 453.51
  Q 358.09 451.27 357.90 449.03
  Q 357.85 448.53 357.55 448.14
  Q 356.18 446.36 356.97 445.01"
/>
<path stroke="#83b2d2" vector-effect="non-scaling-stroke" d="
  M 388.25 408.72
  L 388.18 426.63
  Q 388.18 427.01 388.57 427.01
  L 399.30 427.02
  A 2.54 2.51 -67.0 0 0 401.07 426.29
  L 404.89 422.49
  A 2.68 2.66 67.7 0 0 405.67 420.60
  L 405.66 410.21"
/>
<path stroke="#84bee6" vector-effect="non-scaling-stroke" d="
  M 424.60 403.99
  L 424.69 410.97"
/>
<path stroke="#83b2d2" vector-effect="non-scaling-stroke" d="
  M 424.69 410.97
  L 424.75 415.46"
/>
<path stroke="#83abc7" vector-effect="non-scaling-stroke" d="
  M 424.75 415.46
  Q 424.64 421.39 424.83 426.49
  Q 424.92 429.17 423.13 430.98
  Q 420.94 433.18 418.34 435.46
  Q 417.78 435.94 418.32 436.45
  L 423.78 441.65
  A 2.54 2.53 -68.5 0 1 424.58 443.50
  L 424.62 482.01"
/>
<path stroke="#83b2d2" vector-effect="non-scaling-stroke" d="
  M 424.62 482.01
  L 406.61 482.02
  Q 405.41 482.02 405.43 480.82
  L 405.69 463.04"
/>
<path stroke="#83abc7" vector-effect="non-scaling-stroke" d="
  M 405.69 463.04
  L 405.69 451.35
  A 2.40 2.35 -67.9 0 0 405.00 449.67
  L 400.94 445.58
  A 2.02 2.00 67.3 0 0 399.52 444.99
  L 388.78 444.99
  Q 388.25 444.99 388.24 445.53
  L 388.10 468.79"
/>
<path stroke="#83b2d2" vector-effect="non-scaling-stroke" d="
  M 388.10 468.79
  L 388.30 480.61
  A 1.24 1.24 0.0 0 1 387.11 481.87
  Q 378.49 482.23 369.87 481.98
  A 0.80 0.79 1.1 0 1 369.09 481.18
  L 369.18 401.61"
/>
<path stroke="#83b2d2" vector-effect="non-scaling-stroke" d="
  M 308.32 408.98
  L 278.92 409.01
  Q 278.36 409.01 278.35 409.57
  L 278.30 426.27
  Q 278.29 427.00 279.02 427.00
  L 301.70 427.01
  Q 302.32 427.01 302.32 427.63
  L 302.34 444.31
  Q 302.34 444.93 301.72 444.95
  L 298.31 445.03"
/>
<path stroke="#83abc7" vector-effect="non-scaling-stroke" d="
  M 298.31 445.03
  L 278.80 445.05
  Q 278.32 445.05 278.32 445.53
  L 278.35 463.50
  A 0.47 0.47 0.0 0 0 278.82 463.97
  L 296.44 463.96"
/>
<path stroke="#83b2d2" vector-effect="non-scaling-stroke" d="
  M 296.44 463.96
  L 307.75 464.01
  A 0.68 0.68 0.0 0 1 308.43 464.69
  L 308.44 480.98
  A 1.00 1.00 0.0 0 1 307.44 481.98
  L 288.39 481.99"
/>
<path stroke="#83abc7" vector-effect="non-scaling-stroke" d="
  M 288.39 481.99
  L 259.97 482.03
  A 0.74 0.74 0.0 0 1 259.23 481.29
  L 259.23 408.03"
/>
<path stroke="#83b2d2" vector-effect="non-scaling-stroke" d="
  M 363.26 400.03
  L 363.17 408.40
  Q 363.17 409.00 362.56 409.00
  L 333.48 409.00
  A 0.27 0.27 0.0 0 0 333.21 409.27
  L 333.22 426.74
  Q 333.22 427.01 333.49 427.01
  L 356.56 427.00
  Q 357.18 427.00 357.17 427.62
  L 356.97 445.01"
/>
<path stroke="#83abc7" vector-effect="non-scaling-stroke" d="
  M 356.97 445.01
  L 333.49 445.01
  Q 333.21 445.01 333.21 445.29
  L 333.16 463.53
  A 0.44 0.44 0.0 0 0 333.60 463.97
  L 357.20 463.97"
/>
<path stroke="#83b2d2" vector-effect="non-scaling-stroke" d="
  M 357.20 463.97
  L 362.61 464.05
  A 0.71 0.70 0.4 0 1 363.31 464.75
  L 363.38 481.29
  A 0.67 0.66 -0.4 0 1 362.71 481.96
  L 314.75 482.03
  A 0.75 0.75 0.0 0 1 314.00 481.28
  L 314.15 411.46"
/>
<path stroke="#098be6" vector-effect="non-scaling-stroke" d="
  M 172.89 590.29
  Q 172.59 590.11 172.58 590.74
  Q 172.57 593.63 173.62 596.20
  Q 173.66 596.31 176.00 601.12
  Q 177.30 603.80 179.10 606.47
  C 179.96 607.74 181.51 607.97 181.91 609.51
  A 0.04 0.04 0.0 0 0 181.99 609.52
  Q 182.10 609.32 182.32 609.35
  Q 182.52 609.38 182.71 609.53
  Q 184.51 610.95 186.47 612.17
  Q 187.32 612.70 188.26 615.80
  Q 188.40 616.27 188.74 616.62
  Q 189.14 617.04 189.57 617.44
  Q 190.17 618.00 190.87 619.02
  Q 192.06 620.77 194.26 620.70
  Q 194.68 620.69 195.06 620.87
  Q 196.17 621.40 197.35 621.67
  Q 198.54 621.95 199.56 622.73
  Q 200.40 623.36 201.16 624.03
  Q 201.50 624.33 201.93 624.47
  L 203.72 625.04
  Q 204.08 625.16 204.41 625.36
  Q 205.08 625.78 205.95 625.64
  Q 206.46 625.55 206.90 625.81
  Q 210.28 627.83 214.44 627.34
  Q 214.95 627.28 215.41 627.48
  Q 217.14 628.22 219.19 627.79
  Q 220.33 627.56 221.44 627.75
  Q 222.52 627.93 223.50 627.68
  Q 224.00 627.54 224.46 627.79
  Q 226.27 628.73 228.67 628.34
  A 1.33 1.33 0.0 0 1 229.67 628.58
  Q 230.14 628.93 230.78 628.93
  Q 231.48 628.94 232.22 629.04
  Q 233.90 629.26 235.30 629.91
  Q 236.82 630.60 238.29 630.61
  Q 242.00 630.64 245.61 630.88
  C 246.83 630.96 247.94 630.50 249.17 630.45
  Q 254.59 630.25 260.04 629.06
  Q 260.49 628.96 260.91 629.13
  Q 261.22 629.26 261.51 629.12
  Q 263.30 628.27 265.21 627.73
  Q 266.93 627.25 268.10 626.36
  Q 269.62 625.19 271.30 624.65
  Q 272.85 624.16 274.24 623.26
  Q 275.72 622.30 277.53 622.03
  Q 279.72 621.70 281.89 620.98
  Q 284.76 620.03 287.78 621.89
  Q 288.23 622.17 288.75 622.20
  Q 289.21 622.24 289.59 622.50
  Q 289.68 622.57 289.76 622.49
  Q 289.89 622.37 289.86 622.25
  Q 289.74 621.81 290.13 622.05
  Q 294.30 624.59 298.47 626.69
  Q 299.25 627.08 300.14 627.33
  Q 301.02 627.57 301.90 627.81
  Q 303.13 628.15 304.55 628.25
  Q 305.59 628.31 306.63 628.66
  Q 312.74 630.68 319.05 629.50
  Q 320.97 629.14 322.71 628.39
  Q 324.60 627.57 326.51 626.88
  Q 326.66 626.82 326.62 626.97
  Q 326.61 627.02 326.63 627.07
  Q 326.74 627.24 326.94 627.20
  Q 329.28 626.70 331.44 625.74
  Q 333.51 624.82 335.76 624.87
  Q 338.53 624.94 341.07 625.54
  Q 343.02 626.00 345.04 626.47
  Q 347.10 626.94 348.79 626.79
  Q 351.26 626.57 353.92 626.81
  Q 355.78 626.99 357.44 626.64
  Q 357.56 626.61 357.66 626.69
  Q 357.72 626.74 357.79 626.76
  Q 358.01 626.85 358.26 626.79
  Q 361.55 626.03 363.70 624.86
  Q 367.56 622.75 368.95 618.39
  Q 369.15 617.77 369.53 617.30
  Q 370.06 616.63 370.10 615.78
  Q 370.11 615.37 370.52 615.37
  L 372.69 615.37
  Q 373.22 615.37 373.51 615.81
  Q 374.06 616.61 375.12 616.40
  Q 375.68 616.29 376.24 616.45
  Q 379.28 617.31 382.42 616.93
  Q 382.91 616.87 383.32 617.13
  Q 385.02 618.22 386.20 619.71
  Q 386.50 620.08 386.92 620.27
  Q 388.67 621.05 390.18 622.28
  Q 390.57 622.60 391.08 622.66
  Q 394.67 623.09 398.75 624.75
  A 0.32 0.31 3.1 0 0 399.17 624.38
  Q 399.07 624.00 398.68 624.09
  Q 398.62 624.10 398.62 624.16
  Q 398.61 624.26 398.63 624.11
  Q 398.63 624.07 398.67 624.07
  Q 403.28 624.12 407.51 625.89
  Q 407.83 625.84 407.95 626.17
  Q 408.10 626.59 408.53 626.70
  Q 415.07 628.43 417.94 628.58
  Q 421.30 628.75 424.52 629.12
  C 428.03 629.52 431.04 629.17 434.44 628.95
  C 435.67 628.88 436.37 628.36 437.47 627.99
  Q 438.48 627.66 439.66 627.55
  Q 443.10 627.23 446.29 625.93
  Q 446.70 625.76 446.94 625.38
  Q 447.20 624.98 447.69 625.09
  Q 448.13 625.19 448.55 625.03
  L 452.10 623.64
  Q 452.58 623.46 452.90 623.07
  Q 454.50 621.15 456.61 619.79
  Q 457.05 619.50 457.30 619.04
  C 457.83 618.05 458.52 617.65 458.96 616.58
  Q 459.69 614.79 460.83 613.14
  Q 461.93 611.55 462.52 609.63
  Q 464.32 603.77 465.47 597.87
  Q 465.94 595.44 465.82 593.09
  Q 465.71 590.76 465.77 588.50
  Q 466.13 574.76 465.19 559.73
  Q 465.09 558.17 464.80 556.64
  Q 464.49 555.00 464.28 553.38
  Q 463.97 550.99 462.99 548.75
  Q 461.86 546.14 460.70 543.58
  C 460.36 542.82 459.57 542.28 458.93 541.78
  Q 458.60 541.52 458.41 541.15
  Q 456.78 537.93 454.49 536.00
  Q 452.72 534.50 451.32 532.77
  Q 450.93 532.29 450.40 532.61
  Q 450.22 532.71 450.09 532.55
  Q 449.55 531.86 449.42 532.74
  Q 449.34 533.33 449.30 533.96"
/>
<path stroke="#85ccff" vector-effect="non-scaling-stroke" d="
  M 449.30 533.96
  Q 449.72 530.90 447.98 529.27
  Q 440.93 522.68 434.15 515.92
  A 3.08 3.07 -22.2 0 0 432.00 515.02
  L 394.25 515.00
  A 0.65 0.64 -0.4 0 0 393.60 515.65
  L 393.66 541.19"
/>
<path stroke="#0878c7" vector-effect="non-scaling-stroke" d="
  M 393.66 541.19
  Q 391.14 538.56 387.75 539.72"
/>
<path stroke="#85ccff" vector-effect="non-scaling-stroke" d="
  M 387.75 539.72
  L 387.61 530.99
  Q 387.60 530.46 387.22 530.09
  L 373.17 516.33
  Q 371.84 515.03 369.99 515.03
  L 332.77 515.03
  Q 332.22 515.03 332.22 515.58
  L 332.23 531.81"
/>
<path stroke="#087fd2" vector-effect="non-scaling-stroke" d="
  M 332.23 531.81
  Q 330.42 531.77 329.47 531.17
  Q 329.06 530.90 328.58 530.83
  L 326.50 530.50"
/>
<path stroke="#85ccff" vector-effect="non-scaling-stroke" d="
  M 326.50 530.50
  L 311.06 514.77
  A 2.51 2.51 0.0 0 0 309.26 514.01
  L 288.72 514.01
  A 4.79 4.77 21.7 0 0 285.26 515.49
  Q 279.00 522.02 272.39 528.31
  C 270.47 530.14 270.36 532.22 270.64 534.72"
/>
<path stroke="#0878c7" vector-effect="non-scaling-stroke" d="
  M 270.64 534.72
  Q 270.27 532.85 268.73 532.60
  Q 267.30 532.36 266.44 532.43
  A 1.69 1.68 87.9 0 0 264.90 534.09
  L 264.81 539.96"
/>
<path stroke="#85ccff" vector-effect="non-scaling-stroke" d="
  M 264.81 539.96
  L 264.86 514.77
  A 0.80 0.79 0.4 0 0 264.06 513.97
  L 246.53 514.07
  A 0.84 0.84 0.0 0 0 245.69 514.91
  L 245.68 544.47"
/>
<path stroke="#087fd2" vector-effect="non-scaling-stroke" d="
  M 245.68 544.47
  L 244.65 540.29
  Q 244.55 539.89 244.14 539.86
  Q 243.96 539.85 243.78 539.90
  Q 243.24 540.04 242.99 539.54
  Q 242.38 538.31 241.16 537.43
  Q 235.59 533.42 230.70 530.87
  Q 230.23 530.62 229.80 530.93
  L 228.31 532.00"
/>
<path stroke="#85ccff" vector-effect="non-scaling-stroke" d="
  M 228.31 532.00
  L 228.31 514.61
  A 0.59 0.59 0.0 0 0 227.72 514.02
  L 210.06 513.99
  A 0.84 0.84 0.0 0 0 209.22 514.83
  L 209.32 561.54"
/>
<path stroke="#087fd2" vector-effect="non-scaling-stroke" d="
  M 209.32 561.54
  L 209.21 543.28
  A 1.33 1.33 0.0 0 0 208.87 542.39
  Q 208.11 541.50 208.02 540.46
  Q 207.98 540.02 207.55 539.95
  Q 206.46 539.78 205.51 539.31
  Q 204.82 538.98 204.26 538.17
  Q 202.96 536.33 201.54 534.37
  Q 201.32 534.07 200.72 533.90
  Q 200.24 533.77 199.91 533.39
  Q 196.51 529.37 191.81 529.65"
/>
<path stroke="#85ccff" vector-effect="non-scaling-stroke" d="
  M 191.81 529.65
  L 191.81 514.61
  A 0.62 0.61 90.0 0 0 191.20 513.99
  L 173.25 514.08
  Q 172.68 514.08 172.68 514.65
  L 172.89 590.29"
/>
<path stroke="#83b2d2" vector-effect="non-scaling-stroke" d="
  M 191.81 529.65
  Q 191.66 555.18 191.77 579.86
  Q 191.78 582.60 192.89 583.87
  Q 194.42 585.60 195.98 587.02
  C 197.63 588.52 200.21 587.96 202.29 588.01
  C 204.76 588.08 207.07 584.79 208.68 583.17
  A 1.99 1.98 -22.9 0 0 209.25 581.78
  L 209.32 561.54"
/>
<path stroke="#83b2d2" vector-effect="non-scaling-stroke" d="
  M 228.31 532.00
  L 228.36 581.17
  A 3.15 3.12 24.0 0 0 229.18 583.28
  C 230.84 585.09 232.74 587.67 235.41 587.70
  C 237.69 587.72 240.28 588.13 242.05 586.36
  C 243.63 584.78 245.61 583.47 245.63 581.00
  Q 245.75 562.73 245.68 544.47"
/>
<path stroke="#83abc7" vector-effect="non-scaling-stroke" d="
  M 264.81 539.96
  L 264.77 589.70
  Q 264.77 590.25 264.37 590.63
  L 249.35 605.34
  A 2.27 2.27 0.0 0 1 247.77 605.98
  L 226.90 605.96
  A 4.01 4.01 0.0 0 1 224.09 604.81
  L 219.20 599.97
  A 0.56 0.55 -44.6 0 0 218.41 599.97
  L 213.20 605.19
  A 2.80 2.80 0.0 0 1 211.22 606.01
  L 195.75 605.99"
/>
<path stroke="#83b2d2" vector-effect="non-scaling-stroke" d="
  M 195.75 605.99
  Q 192.65 606.47 190.09 605.77
  Q 188.08 605.21 185.54 602.78
  Q 183.03 600.39 180.60 597.98"
/>
<path stroke="#84bee6" vector-effect="non-scaling-stroke" d="
  M 180.60 597.98
  L 172.89 590.29"
/>
<path stroke="#065e9a" vector-effect="non-scaling-stroke" d="
  M 368.81 586.01
  L 368.44 586.74
  Q 368.30 587.02 368.08 587.25
  Q 367.79 587.57 367.63 587.37
  Q 367.26 586.91 366.86 587.34
  L 363.74 590.60
  Q 363.38 590.98 363.26 591.49
  Q 363.03 592.46 362.23 593.07
  A 1.29 1.29 0.0 0 0 361.83 593.55
  L 357.33 602.67
  Q 357.11 603.12 357.06 603.62
  Q 356.99 604.41 356.43 605.00
  Q 356.08 605.37 356.00 605.87
  C 355.54 608.51 353.47 612.40 350.12 611.90
  Q 348.46 611.65 346.71 612.15
  Q 344.81 612.70 343.05 613.64
  Q 341.92 614.24 340.38 614.40
  Q 339.02 614.53 337.78 614.76
  Q 335.17 615.23 332.74 614.47
  Q 332.22 614.31 331.71 614.48
  Q 330.01 615.05 328.12 615.26
  C 327.06 615.39 326.32 616.03 325.34 616.40
  C 324.43 616.74 323.28 617.73 321.96 617.31
  Q 321.46 617.15 320.94 617.19
  Q 313.09 617.70 304.46 618.48
  Q 302.51 618.65 300.57 617.95
  Q 298.58 617.23 296.25 617.05
  Q 294.28 616.90 292.40 616.45
  Q 292.02 616.36 291.85 616.01
  Q 291.62 615.56 291.10 615.47
  Q 290.53 615.37 290.42 614.80
  Q 290.22 613.82 289.06 613.71
  Q 288.54 613.67 289.01 613.91
  Q 289.26 614.04 289.28 614.31
  Q 289.32 614.89 289.89 614.90
  Q 290.44 614.92 290.38 615.54
  A 0.76 0.76 0.0 0 0 290.87 616.34
  L 294.08 617.58
  A 0.03 0.03 0.0 0 1 294.07 617.64
  Q 292.05 617.67 290.59 616.32
  A 1.79 1.74 70.5 0 0 289.74 615.90
  Q 289.49 615.85 289.24 615.78
  Q 288.68 615.63 288.23 615.26
  Q 284.49 612.14 280.75 610.26
  Q 276.77 608.27 273.47 610.81
  Q 273.37 610.89 273.23 610.89
  Q 273.08 610.88 272.94 610.86
  A 1.33 1.30 32.7 0 0 272.02 611.05
  Q 265.25 615.31 257.14 618.78
  Q 254.96 619.71 253.08 619.92
  Q 251.31 620.11 249.32 620.70
  Q 247.35 621.29 245.38 621.63
  Q 243.45 621.97 241.48 621.89
  Q 235.11 621.64 229.44 622.54
  Q 227.03 622.92 224.61 622.15
  Q 222.65 621.53 220.58 621.77
  Q 217.89 622.07 215.50 622.63
  Q 208.68 624.22 202.30 620.03"
/>
<path stroke="#065e9a" vector-effect="non-scaling-stroke" d="
  M 201.26 619.78
  Q 201.26 619.63 201.26 619.52
  A 0.32 0.31 6.3 0 0 201.02 619.23
  C 199.46 618.80 196.59 618.29 195.38 617.15
  Q 194.50 616.31 193.45 615.43
  Q 193.00 615.06 192.41 615.14
  Q 191.69 615.25 191.15 614.73
  Q 190.57 614.17 190.40 613.42
  Q 189.98 611.67 188.77 610.10
  Q 187.49 608.45 189.16 607.39
  Q 189.61 607.11 189.08 607.16
  Q 188.69 607.21 188.53 606.70
  A 0.44 0.43 81.2 0 1 188.93 606.14
  L 195.75 605.99"
/>
<path stroke="#0771b9" vector-effect="non-scaling-stroke" d="
  M 180.60 597.98
  Q 179.49 598.38 179.07 600.35
  A 1.89 1.88 -61.6 0 0 179.58 602.07
  Q 180.69 603.18 181.11 604.75
  A 1.57 1.54 -81.8 0 0 181.77 605.65
  Q 182.54 606.14 182.64 607.08
  Q 182.71 607.76 183.25 608.17
  Q 185.06 609.56 186.99 610.21
  Q 187.52 610.39 187.83 610.86
  Q 189.08 612.74 189.61 614.74
  A 3.04 3.03 -89.1 0 0 191.65 616.85
  L 201.26 619.78"
/>
<path stroke="#076aae" vector-effect="non-scaling-stroke" d="
  M 201.26 619.78
  Q 202.13 619.80 202.30 620.03"
/>
<path stroke="#0771b9" vector-effect="non-scaling-stroke" d="
  M 202.30 620.03
  Q 203.15 621.19 204.21 621.70
  Q 206.02 622.58 206.13 622.66
  Q 208.06 623.93 210.30 624.93
  C 213.16 626.22 215.62 625.24 218.55 625.58
  Q 220.41 625.79 222.46 625.19
  Q 228.86 623.29 233.72 623.87
  Q 245.06 625.23 256.57 623.02
  Q 257.03 622.93 257.28 622.55
  Q 257.53 622.18 257.98 622.17
  Q 259.87 622.10 261.30 621.32
  Q 263.28 620.24 265.30 619.26
  Q 265.75 619.03 266.03 618.61
  Q 266.39 618.05 267.04 617.94
  Q 267.53 617.85 267.94 617.57
  Q 271.31 615.23 275.11 613.89
  Q 276.84 613.28 278.95 613.42
  Q 280.98 613.56 282.91 613.63
  C 285.71 613.73 287.00 615.81 289.44 616.71
  Q 293.84 618.34 297.46 621.08
  Q 299.29 622.46 301.39 622.88
  Q 309.59 624.52 316.61 622.65
  Q 317.71 622.36 318.79 621.91
  Q 319.91 621.44 321.15 621.26
  Q 322.44 621.07 323.21 620.01
  Q 323.49 619.61 323.97 619.54
  Q 327.75 618.97 331.40 617.93
  Q 336.40 616.52 342.66 617.41
  Q 344.28 617.64 345.67 618.29
  Q 346.89 618.86 348.38 618.63
  Q 348.78 618.57 349.10 618.79
  Q 351.19 620.20 353.65 620.58
  A 1.49 1.42 34.4 0 0 354.53 620.44
  C 355.60 619.90 356.72 620.26 357.93 619.88
  Q 361.22 618.84 364.01 616.74
  Q 365.92 615.30 367.85 613.80
  Q 368.25 613.49 368.76 613.47
  Q 372.63 613.29 375.17 614.41
  Q 376.11 614.82 377.07 614.88
  Q 379.16 615.02 380.97 613.88
  A 1.98 1.98 0.0 0 1 383.36 614.10
  L 386.53 617.03
  Q 386.97 617.42 387.56 617.39
  Q 388.29 617.36 388.90 617.64
  Q 389.74 618.03 390.66 618.14
  Q 393.02 618.42 395.23 618.35
  Q 396.99 618.29 398.68 619.25
  Q 401.05 620.59 403.07 621.88
  C 404.38 622.73 406.55 622.87 408.10 622.77
  Q 410.03 622.64 411.97 622.93
  Q 422.58 624.47 432.79 624.61
  Q 436.44 624.66 439.44 623.52
  Q 442.25 622.46 445.32 621.49
  Q 446.94 620.97 448.22 620.07
  Q 449.37 619.25 450.66 618.54
  Q 452.17 617.70 453.11 616.33
  Q 454.63 614.12 456.00 611.34
  C 456.49 610.34 456.28 609.22 457.02 608.31
  Q 457.75 607.41 458.07 606.36
  Q 460.63 597.88 460.75 592.94
  Q 461.05 580.96 460.65 562.77
  C 460.61 561.35 460.00 560.20 460.09 558.69
  Q 460.17 557.23 459.82 555.94
  C 459.45 554.53 459.57 552.91 458.83 551.62
  Q 457.34 549.04 456.01 546.24
  Q 454.24 542.52 451.03 539.90
  A 0.98 0.97 -69.5 0 0 449.44 540.63
  L 449.33 544.21"
/>
<path stroke="#065e9a" vector-effect="non-scaling-stroke" d="
  M 332.23 543.84
  Q 330.60 539.01 326.37 539.94"
/>
<path stroke="#83abc7" vector-effect="non-scaling-stroke" d="
  M 387.75 539.72
  L 387.79 552.56
  A 2.01 2.00 -22.3 0 1 387.19 553.99
  L 381.36 559.63
  A 0.54 0.54 0.0 0 0 381.36 560.41
  L 386.95 565.80
  A 2.64 2.61 -68.3 0 1 387.75 567.69
  L 387.79 605.03"
/>
<path stroke="#83b2d2" vector-effect="non-scaling-stroke" d="
  M 387.79 605.03
  Q 387.98 605.85 386.99 605.89
  Q 378.26 606.24 369.72 605.84
  A 1.09 1.08 1.7 0 1 368.68 604.75
  L 368.81 586.01"
/>
<path stroke="#83abc7" vector-effect="non-scaling-stroke" d="
  M 368.81 586.01
  L 368.75 574.86
  Q 368.75 574.32 368.36 573.94
  L 363.92 569.58
  Q 363.30 568.97 362.43 568.97
  L 351.91 569.01
  Q 351.32 569.01 351.32 569.59
  L 351.31 605.60
  A 0.41 0.40 -0.0 0 1 350.90 606.00
  L 332.82 606.03
  Q 332.26 606.03 332.26 605.47
  L 332.23 543.84"
/>
<path stroke="#83b2d2" vector-effect="non-scaling-stroke" d="
  M 332.23 543.84
  L 332.23 531.81"
/>
<path stroke="#83b2d2" vector-effect="non-scaling-stroke" d="
  M 326.50 530.50
  L 326.37 539.94"
/>
<path stroke="#83abc7" vector-effect="non-scaling-stroke" d="
  M 326.37 539.94
  L 326.58 588.63
  A 2.63 2.62 -22.8 0 1 325.81 590.51
  L 311.48 605.05
  A 3.19 3.16 22.2 0 1 309.22 605.99
  L 288.79 605.99
  A 4.54 4.51 67.5 0 1 285.58 604.65
  Q 278.48 597.50 272.09 591.15
  Q 270.72 589.79 270.74 587.50
  Q 270.82 572.13 270.64 534.72"
/>
<path stroke="#84bee6" vector-effect="non-scaling-stroke" d="
  M 449.30 533.96
  L 449.33 544.21"
/>
<path stroke="#83b2d2" vector-effect="non-scaling-stroke" d="
  M 449.33 544.21
  L 449.32 588.97
  A 3.01 2.99 -22.6 0 1 448.44 591.09
  L 433.59 605.76"
/>
<path stroke="#83abc7" vector-effect="non-scaling-stroke" d="
  M 433.59 605.76
  L 394.36 606.01
  A 0.70 0.70 0.0 0 1 393.66 605.31
  L 393.66 541.19"
/>
<path stroke="#065e9a" vector-effect="non-scaling-stroke" d="
  M 433.59 605.76
  Q 436.25 604.33 437.40 602.83
  Q 437.71 602.43 438.16 602.23
  Q 439.33 601.69 440.20 600.76
  Q 440.51 600.43 440.96 600.41
  Q 442.13 600.33 443.42 599.66
  Q 443.91 599.40 444.18 598.92
  Q 444.74 597.91 445.93 598.28
  Q 446.39 598.42 446.26 598.88
  Q 445.72 600.77 445.95 602.76
  Q 446.01 603.23 446.38 603.53
  Q 446.98 604.02 446.47 604.60
  Q 446.14 604.97 445.92 605.40
  Q 444.60 607.89 443.07 609.85
  A 1.60 1.55 -77.4 0 1 442.20 610.42
  Q 440.99 610.73 440.18 611.72
  Q 438.31 613.99 435.52 615.79
  Q 434.96 616.15 434.31 616.04
  Q 433.73 615.93 433.19 616.12
  Q 431.95 616.57 430.63 616.47
  Q 422.80 615.85 417.11 615.75
  Q 414.30 615.70 410.49 616.53
  Q 408.76 616.91 407.06 616.88
  Q 405.49 616.85 403.91 616.90
  Q 403.22 616.92 402.69 616.46
  Q 402.10 615.94 401.30 616.11
  Q 399.99 616.38 398.90 615.57
  Q 398.26 615.10 397.40 614.95
  Q 395.75 614.67 394.15 614.86
  Q 393.74 614.91 393.33 614.85
  Q 392.78 614.77 392.45 615.22
  A 0.86 0.84 -77.9 0 1 391.95 615.55
  Q 389.01 616.24 387.69 613.90
  Q 387.47 613.49 387.05 613.28
  Q 385.53 612.52 386.00 610.81
  A 1.83 1.80 89.5 0 1 387.21 609.56
  Q 389.18 608.95 390.21 607.28
  Q 390.53 606.77 389.97 606.55
  Q 389.60 606.40 389.52 606.01
  Q 389.44 605.62 389.04 605.57
  Q 388.73 605.53 388.53 605.75
  Q 388.10 606.21 387.93 605.59
  L 387.79 605.03"
/>
<path stroke="#83b2d2" vector-effect="non-scaling-stroke" d="
  M 298.16 587.35
  Q 299.55 587.27 300.91 587.13
  C 303.43 586.89 305.10 584.64 306.59 582.84
  C 307.37 581.90 307.37 580.65 307.38 579.50
  Q 307.45 565.49 307.37 551.45"
/>
<path stroke="#83abc7" vector-effect="non-scaling-stroke" d="
  M 307.37 551.45
  L 307.35 538.72
  A 1.52 1.51 -65.1 0 0 307.00 537.75
  C 305.68 536.18 303.00 532.79 300.73 532.80
  C 298.16 532.80 295.45 532.20 293.45 534.18
  C 291.80 535.81 289.72 537.35 289.73 539.84
  Q 289.77 560.10 289.72 579.74
  Q 289.72 581.47 290.86 583.05
  Q 293.79 587.11 298.16 587.35"
/>
<path stroke="#065e9a" vector-effect="non-scaling-stroke" d="
  M 307.37 551.45
  L 307.13 555.47
  Q 307.09 556.11 306.53 555.80
  Q 306.33 555.69 306.23 555.46
  A 0.67 0.66 -40.6 0 0 305.05 555.37
  Q 299.33 564.74 298.49 574.27
  C 298.29 576.47 298.80 578.66 298.61 580.90
  Q 298.50 582.29 298.79 584.08
  Q 299.16 586.30 298.16 587.35"
/>
<path stroke="#83abc7" vector-effect="non-scaling-stroke" d="
  M 351.33 533.37
  L 351.33 550.61
  A 0.42 0.42 0.0 0 0 351.75 551.03
  L 360.23 551.03
  A 8.68 8.66 -0.0 0 0 368.91 542.37
  L 368.91 541.61
  A 8.68 8.66 0.0 0 0 360.23 532.95
  L 351.75 532.95
  A 0.42 0.42 0.0 0 0 351.33 533.37"
/>
<path stroke="#83b2d2" vector-effect="non-scaling-stroke" d="
  M 420.80 587.94
  L 424.46 587.90
  Q 424.97 587.89 425.35 587.54
  C 426.87 586.10 430.18 583.48 430.19 581.25
  Q 430.30 566.90 430.23 552.53"
/>
<path stroke="#83abc7" vector-effect="non-scaling-stroke" d="
  M 430.23 552.53
  L 430.34 538.95
  Q 430.34 538.39 429.95 538.00
  L 425.50 533.59
  Q 424.90 533.00 424.06 533.00
  L 413.24 533.00
  A 0.51 0.51 0.0 0 0 412.73 533.51
  L 412.76 587.32
  Q 412.76 587.92 413.36 587.92
  L 420.80 587.94"
/>
<path stroke="#065e9a" vector-effect="non-scaling-stroke" d="
  M 430.23 552.53
  Q 430.28 554.27 429.78 554.61
  Q 429.37 554.88 429.39 554.40
  Q 429.44 553.04 429.25 552.03
  Q 429.11 551.33 428.68 551.90
  Q 428.40 552.26 427.97 552.26
  Q 427.54 552.25 427.29 552.61
  Q 426.28 554.07 425.48 555.55
  Q 425.34 555.81 425.06 555.92
  Q 424.68 556.08 424.50 556.45
  Q 422.74 560.09 421.41 563.09
  Q 420.25 565.73 419.65 571.01
  Q 419.60 571.44 419.40 571.83
  Q 419.16 572.26 419.14 572.75
  Q 418.75 580.58 420.80 587.94"
/>
</g>
<path fill="#0a99ff" d="
  M 0.00 0.00
  L 612.00 0.00
  L 612.00 1080.00
  L 0.00 1080.00
  L 0.00 0.00
  Z
  M 202.31 470.40
  L 201.23 470.40
  Q 200.61 470.39 200.79 470.99
  Q 201.65 473.74 201.74 476.39
  Q 201.79 477.77 202.40 479.13
  Q 204.02 482.74 206.66 485.99
  Q 207.41 486.91 208.32 487.44
  Q 209.26 487.99 210.18 488.57
  A 2.03 1.90 -89.8 0 1 210.86 489.30
  Q 211.59 490.66 212.98 491.53
  Q 216.07 493.47 218.89 494.97
  Q 221.74 496.49 223.56 498.32
  Q 224.61 499.38 225.74 500.22
  Q 227.03 501.18 228.01 502.33
  Q 229.41 503.98 231.39 504.74
  Q 235.49 506.33 240.75 505.77
  Q 245.01 505.32 248.14 504.01
  Q 249.96 503.24 251.63 502.97
  Q 253.53 502.66 255.39 501.35
  A 1.36 1.34 31.7 0 1 256.39 501.12
  Q 257.34 501.29 258.18 500.88
  Q 259.26 500.36 260.41 500.21
  Q 264.27 499.71 267.39 501.48
  Q 268.93 502.36 270.67 502.74
  Q 272.32 503.11 273.98 503.67
  Q 279.51 505.56 285.35 506.50
  Q 286.67 506.71 287.94 506.67
  Q 289.24 506.64 290.52 506.36
  Q 291.23 506.21 291.84 506.58
  Q 292.26 506.84 292.75 506.85
  Q 300.20 507.10 307.93 506.23
  Q 310.74 505.91 313.59 505.73
  Q 316.46 505.55 319.26 505.31
  Q 325.54 504.78 332.26 506.05
  Q 335.16 506.60 338.22 506.74
  Q 341.46 506.89 344.39 507.08
  Q 349.06 507.38 353.58 507.16
  Q 359.28 506.89 364.79 506.85
  A 1.67 1.60 27.1 0 0 365.63 506.60
  C 366.45 506.09 367.66 506.51 368.61 506.30
  Q 371.29 505.70 373.76 505.62
  Q 381.57 505.39 390.19 504.66
  Q 391.83 504.53 393.20 503.86
  Q 394.50 503.24 395.87 503.13
  Q 396.32 503.10 396.72 502.90
  L 406.31 498.22
  A 1.75 1.70 2.2 0 0 407.02 497.58
  C 408.50 495.19 411.06 495.02 413.19 496.60
  Q 415.70 498.46 418.14 499.95
  Q 418.32 500.06 418.50 499.94
  Q 418.62 499.86 418.73 499.95
  Q 421.16 501.86 424.90 502.15
  Q 429.37 502.50 433.11 501.95
  Q 433.63 501.87 433.93 501.45
  Q 434.22 501.06 434.66 500.94
  Q 435.27 500.76 435.76 500.30
  Q 438.46 497.81 439.36 494.17
  Q 440.81 488.37 441.04 483.15
  Q 441.18 479.93 441.83 476.69
  Q 442.52 473.20 442.37 470.17
  Q 441.36 450.78 441.89 446.50
  Q 443.25 435.55 442.58 424.58
  Q 442.45 422.40 441.75 420.00
  C 440.97 417.35 440.56 415.18 438.92 412.59
  Q 438.08 411.26 436.64 410.33
  Q 433.99 408.63 431.32 406.96
  Q 429.92 406.08 428.01 405.39
  Q 426.28 404.76 424.60 403.99
  L 424.60 390.60
  Q 424.60 390.00 424.00 390.00
  L 406.24 390.02
  Q 405.65 390.02 405.65 390.61
  L 405.66 410.21
  L 405.45 413.71
  Q 405.43 413.95 405.29 413.75
  L 404.98 413.30
  Q 404.69 412.89 404.21 412.78
  Q 403.80 412.70 403.60 412.29
  A 0.89 0.86 -89.1 0 0 403.30 411.97
  Q 401.47 410.88 399.47 409.54
  Q 397.91 408.49 395.77 407.64
  Q 392.93 406.52 390.48 404.97
  A 1.31 1.30 -71.2 0 0 388.48 405.96
  L 388.25 408.72
  L 388.26 390.81
  Q 388.26 390.00 387.46 390.00
  L 369.67 390.05
  A 0.54 0.54 0.0 0 0 369.13 390.59
  L 369.18 401.61
  Q 366.20 399.59 363.26 400.03
  L 363.25 391.56
  Q 363.25 391.02 362.71 391.02
  L 314.52 391.05
  A 0.39 0.38 0.0 0 0 314.13 391.43
  L 314.15 411.46
  Q 311.58 408.33 308.32 408.98
  L 308.30 391.41
  A 0.37 0.37 0.0 0 0 307.93 391.04
  L 259.74 391.03
  A 0.53 0.52 -90.0 0 0 259.22 391.56
  L 259.23 408.03
  Q 256.84 406.39 253.65 406.92
  Q 246.24 398.84 238.14 391.09
  Q 236.94 389.95 235.25 389.95
  Q 224.65 389.98 214.58 390.03
  A 2.28 2.27 -67.6 0 0 212.96 390.71
  L 198.40 405.51
  Q 197.73 406.19 197.73 407.15
  L 197.68 465.08
  Q 197.68 465.57 198.02 465.93
  L 202.31 470.40
  Z
  M 172.89 590.29
  Q 172.59 590.11 172.58 590.74
  Q 172.57 593.63 173.62 596.20
  Q 173.66 596.31 176.00 601.12
  Q 177.30 603.80 179.10 606.47
  C 179.96 607.74 181.51 607.97 181.91 609.51
  A 0.04 0.04 0.0 0 0 181.99 609.52
  Q 182.10 609.32 182.32 609.35
  Q 182.52 609.38 182.71 609.53
  Q 184.51 610.95 186.47 612.17
  Q 187.32 612.70 188.26 615.80
  Q 188.40 616.27 188.74 616.62
  Q 189.14 617.04 189.57 617.44
  Q 190.17 618.00 190.87 619.02
  Q 192.06 620.77 194.26 620.70
  Q 194.68 620.69 195.06 620.87
  Q 196.17 621.40 197.35 621.67
  Q 198.54 621.95 199.56 622.73
  Q 200.40 623.36 201.16 624.03
  Q 201.50 624.33 201.93 624.47
  L 203.72 625.04
  Q 204.08 625.16 204.41 625.36
  Q 205.08 625.78 205.95 625.64
  Q 206.46 625.55 206.90 625.81
  Q 210.28 627.83 214.44 627.34
  Q 214.95 627.28 215.41 627.48
  Q 217.14 628.22 219.19 627.79
  Q 220.33 627.56 221.44 627.75
  Q 222.52 627.93 223.50 627.68
  Q 224.00 627.54 224.46 627.79
  Q 226.27 628.73 228.67 628.34
  A 1.33 1.33 0.0 0 1 229.67 628.58
  Q 230.14 628.93 230.78 628.93
  Q 231.48 628.94 232.22 629.04
  Q 233.90 629.26 235.30 629.91
  Q 236.82 630.60 238.29 630.61
  Q 242.00 630.64 245.61 630.88
  C 246.83 630.96 247.94 630.50 249.17 630.45
  Q 254.59 630.25 260.04 629.06
  Q 260.49 628.96 260.91 629.13
  Q 261.22 629.26 261.51 629.12
  Q 263.30 628.27 265.21 627.73
  Q 266.93 627.25 268.10 626.36
  Q 269.62 625.19 271.30 624.65
  Q 272.85 624.16 274.24 623.26
  Q 275.72 622.30 277.53 622.03
  Q 279.72 621.70 281.89 620.98
  Q 284.76 620.03 287.78 621.89
  Q 288.23 622.17 288.75 622.20
  Q 289.21 622.24 289.59 622.50
  Q 289.68 622.57 289.76 622.49
  Q 289.89 622.37 289.86 622.25
  Q 289.74 621.81 290.13 622.05
  Q 294.30 624.59 298.47 626.69
  Q 299.25 627.08 300.14 627.33
  Q 301.02 627.57 301.90 627.81
  Q 303.13 628.15 304.55 628.25
  Q 305.59 628.31 306.63 628.66
  Q 312.74 630.68 319.05 629.50
  Q 320.97 629.14 322.71 628.39
  Q 324.60 627.57 326.51 626.88
  Q 326.66 626.82 326.62 626.97
  Q 326.61 627.02 326.63 627.07
  Q 326.74 627.24 326.94 627.20
  Q 329.28 626.70 331.44 625.74
  Q 333.51 624.82 335.76 624.87
  Q 338.53 624.94 341.07 625.54
  Q 343.02 626.00 345.04 626.47
  Q 347.10 626.94 348.79 626.79
  Q 351.26 626.57 353.92 626.81
  Q 355.78 626.99 357.44 626.64
  Q 357.56 626.61 357.66 626.69
  Q 357.72 626.74 357.79 626.76
  Q 358.01 626.85 358.26 626.79
  Q 361.55 626.03 363.70 624.86
  Q 367.56 622.75 368.95 618.39
  Q 369.15 617.77 369.53 617.30
  Q 370.06 616.63 370.10 615.78
  Q 370.11 615.37 370.52 615.37
  L 372.69 615.37
  Q 373.22 615.37 373.51 615.81
  Q 374.06 616.61 375.12 616.40
  Q 375.68 616.29 376.24 616.45
  Q 379.28 617.31 382.42 616.93
  Q 382.91 616.87 383.32 617.13
  Q 385.02 618.22 386.20 619.71
  Q 386.50 620.08 386.92 620.27
  Q 388.67 621.05 390.18 622.28
  Q 390.57 622.60 391.08 622.66
  Q 394.67 623.09 398.75 624.75
  A 0.32 0.31 3.1 0 0 399.17 624.38
  Q 399.07 624.00 398.68 624.09
  Q 398.62 624.10 398.62 624.16
  Q 398.61 624.26 398.63 624.11
  Q 398.63 624.07 398.67 624.07
  Q 403.28 624.12 407.51 625.89
  Q 407.83 625.84 407.95 626.17
  Q 408.10 626.59 408.53 626.70
  Q 415.07 628.43 417.94 628.58
  Q 421.30 628.75 424.52 629.12
  C 428.03 629.52 431.04 629.17 434.44 628.95
  C 435.67 628.88 436.37 628.36 437.47 627.99
  Q 438.48 627.66 439.66 627.55
  Q 443.10 627.23 446.29 625.93
  Q 446.70 625.76 446.94 625.38
  Q 447.20 624.98 447.69 625.09
  Q 448.13 625.19 448.55 625.03
  L 452.10 623.64
  Q 452.58 623.46 452.90 623.07
  Q 454.50 621.15 456.61 619.79
  Q 457.05 619.50 457.30 619.04
  C 457.83 618.05 458.52 617.65 458.96 616.58
  Q 459.69 614.79 460.83 613.14
  Q 461.93 611.55 462.52 609.63
  Q 464.32 603.77 465.47 597.87
  Q 465.94 595.44 465.82 593.09
  Q 465.71 590.76 465.77 588.50
  Q 466.13 574.76 465.19 559.73
  Q 465.09 558.17 464.80 556.64
  Q 464.49 555.00 464.28 553.38
  Q 463.97 550.99 462.99 548.75
  Q 461.86 546.14 460.70 543.58
  C 460.36 542.82 459.57 542.28 458.93 541.78
  Q 458.60 541.52 458.41 541.15
  Q 456.78 537.93 454.49 536.00
  Q 452.72 534.50 451.32 532.77
  Q 450.93 532.29 450.40 532.61
  Q 450.22 532.71 450.09 532.55
  Q 449.55 531.86 449.42 532.74
  Q 449.34 533.33 449.30 533.96
  Q 449.72 530.90 447.98 529.27
  Q 440.93 522.68 434.15 515.92
  A 3.08 3.07 -22.2 0 0 432.00 515.02
  L 394.25 515.00
  A 0.65 0.64 -0.4 0 0 393.60 515.65
  L 393.66 541.19
  Q 391.14 538.56 387.75 539.72
  L 387.61 530.99
  Q 387.60 530.46 387.22 530.09
  L 373.17 516.33
  Q 371.84 515.03 369.99 515.03
  L 332.77 515.03
  Q 332.22 515.03 332.22 515.58
  L 332.23 531.81
  Q 330.42 531.77 329.47 531.17
  Q 329.06 530.90 328.58 530.83
  L 326.50 530.50
  L 311.06 514.77
  A 2.51 2.51 0.0 0 0 309.26 514.01
  L 288.72 514.01
  A 4.79 4.77 21.7 0 0 285.26 515.49
  Q 279.00 522.02 272.39 528.31
  C 270.47 530.14 270.36 532.22 270.64 534.72
  Q 270.27 532.85 268.73 532.60
  Q 267.30 532.36 266.44 532.43
  A 1.69 1.68 87.9 0 0 264.90 534.09
  L 264.81 539.96
  L 264.86 514.77
  A 0.80 0.79 0.4 0 0 264.06 513.97
  L 246.53 514.07
  A 0.84 0.84 0.0 0 0 245.69 514.91
  L 245.68 544.47
  L 244.65 540.29
  Q 244.55 539.89 244.14 539.86
  Q 243.96 539.85 243.78 539.90
  Q 243.24 540.04 242.99 539.54
  Q 242.38 538.31 241.16 537.43
  Q 235.59 533.42 230.70 530.87
  Q 230.23 530.62 229.80 530.93
  L 228.31 532.00
  L 228.31 514.61
  A 0.59 0.59 0.0 0 0 227.72 514.02
  L 210.06 513.99
  A 0.84 0.84 0.0 0 0 209.22 514.83
  L 209.32 561.54
  L 209.21 543.28
  A 1.33 1.33 0.0 0 0 208.87 542.39
  Q 208.11 541.50 208.02 540.46
  Q 207.98 540.02 207.55 539.95
  Q 206.46 539.78 205.51 539.31
  Q 204.82 538.98 204.26 538.17
  Q 202.96 536.33 201.54 534.37
  Q 201.32 534.07 200.72 533.90
  Q 200.24 533.77 199.91 533.39
  Q 196.51 529.37 191.81 529.65
  L 191.81 514.61
  A 0.62 0.61 90.0 0 0 191.20 513.99
  L 173.25 514.08
  Q 172.68 514.08 172.68 514.65
  L 172.89 590.29
  Z"
/>
<path fill="#ffffff" d="
  M 253.65 406.92
  L 253.35 420.62
  A 0.39 0.38 -89.2 0 1 252.97 421.00
  L 234.79 421.00
  A 0.45 0.44 -89.4 0 1 234.35 420.54
  L 234.47 414.74
  Q 234.48 414.12 234.03 413.68
  L 229.38 409.17
  Q 228.93 408.74 228.31 408.75
  L 222.79 408.84
  A 1.85 1.84 22.1 0 0 221.51 409.38
  L 217.36 413.47
  Q 216.75 414.07 216.75 414.92
  L 216.75 457.12
  Q 216.75 457.85 217.25 458.37
  L 221.35 462.59
  A 1.71 1.68 -19.0 0 0 222.40 463.09
  C 224.85 463.30 228.52 463.86 230.49 461.90
  Q 232.37 460.02 233.95 458.27
  Q 234.37 457.81 234.37 457.18
  L 234.41 445.71
  Q 234.41 445.01 233.71 445.01
  L 224.07 444.99
  A 0.67 0.66 -90.0 0 1 223.41 444.32
  L 223.40 427.35
  A 0.34 0.34 0.0 0 1 223.74 427.01
  L 253.00 427.00
  A 0.43 0.43 0.0 0 1 253.43 427.43
  L 253.29 465.46
  A 0.85 0.85 0.0 0 1 253.03 466.07
  Q 246.04 473.07 238.34 480.99
  Q 237.34 482.02 236.00 482.01
  Q 227.96 481.99 219.98 481.99
  Q 217.69 482.23 215.59 481.95
  Q 213.65 481.69 211.95 480.06
  Q 208.79 477.01 205.45 473.60
  L 202.31 470.40
  L 198.02 465.93
  Q 197.68 465.57 197.68 465.08
  L 197.73 407.15
  Q 197.73 406.19 198.40 405.51
  L 212.96 390.71
  A 2.28 2.27 -67.6 0 1 214.58 390.03
  Q 224.65 389.98 235.25 389.95
  Q 236.94 389.95 238.14 391.09
  Q 246.24 398.84 253.65 406.92
  Z"
/>
<path fill="#ffffff" d="
  M 388.25 408.72
  L 388.18 426.63
  Q 388.18 427.01 388.57 427.01
  L 399.30 427.02
  A 2.54 2.51 -67.0 0 0 401.07 426.29
  L 404.89 422.49
  A 2.68 2.66 67.7 0 0 405.67 420.60
  L 405.66 410.21
  L 405.65 390.61
  Q 405.65 390.02 406.24 390.02
  L 424.00 390.00
  Q 424.60 390.00 424.60 390.60
  L 424.60 403.99
  L 424.69 410.97
  L 424.75 415.46
  Q 424.64 421.39 424.83 426.49
  Q 424.92 429.17 423.13 430.98
  Q 420.94 433.18 418.34 435.46
  Q 417.78 435.94 418.32 436.45
  L 423.78 441.65
  A 2.54 2.53 -68.5 0 1 424.58 443.50
  L 424.62 482.01
  L 406.61 482.02
  Q 405.41 482.02 405.43 480.82
  L 405.69 463.04
  L 405.69 451.35
  A 2.40 2.35 -67.9 0 0 405.00 449.67
  L 400.94 445.58
  A 2.02 2.00 67.3 0 0 399.52 444.99
  L 388.78 444.99
  Q 388.25 444.99 388.24 445.53
  L 388.10 468.79
  L 388.30 480.61
  A 1.24 1.24 0.0 0 1 387.11 481.87
  Q 378.49 482.23 369.87 481.98
  A 0.80 0.79 1.1 0 1 369.09 481.18
  L 369.18 401.61
  L 369.13 390.59
  A 0.54 0.54 0.0 0 1 369.67 390.05
  L 387.46 390.00
  Q 388.26 390.00 388.26 390.81
  L 388.25 408.72
  Z"
/>
<path fill="#ffffff" d="
  M 308.32 408.98
  L 278.92 409.01
  Q 278.36 409.01 278.35 409.57
  L 278.30 426.27
  Q 278.29 427.00 279.02 427.00
  L 301.70 427.01
  Q 302.32 427.01 302.32 427.63
  L 302.34 444.31
  Q 302.34 444.93 301.72 444.95
  L 298.31 445.03
  L 278.80 445.05
  Q 278.32 445.05 278.32 445.53
  L 278.35 463.50
  A 0.47 0.47 0.0 0 0 278.82 463.97
  L 296.44 463.96
  L 307.75 464.01
  A 0.68 0.68 0.0 0 1 308.43 464.69
  L 308.44 480.98
  A 1.00 1.00 0.0 0 1 307.44 481.98
  L 288.39 481.99
  L 259.97 482.03
  A 0.74 0.74 0.0 0 1 259.23 481.29
  L 259.23 408.03
  L 259.22 391.56
  A 0.53 0.52 90.0 0 1 259.74 391.03
  L 307.93 391.04
  A 0.37 0.37 0.0 0 1 308.30 391.41
  L 308.32 408.98
  Z"
/>
<path fill="#ffffff" d="
  M 363.26 400.03
  L 363.17 408.40
  Q 363.17 409.00 362.56 409.00
  L 333.48 409.00
  A 0.27 0.27 0.0 0 0 333.21 409.27
  L 333.22 426.74
  Q 333.22 427.01 333.49 427.01
  L 356.56 427.00
  Q 357.18 427.00 357.17 427.62
  L 356.97 445.01
  L 333.49 445.01
  Q 333.21 445.01 333.21 445.29
  L 333.16 463.53
  A 0.44 0.44 0.0 0 0 333.60 463.97
  L 357.20 463.97
  L 362.61 464.05
  A 0.71 0.70 0.4 0 1 363.31 464.75
  L 363.38 481.29
  A 0.67 0.66 -0.4 0 1 362.71 481.96
  L 314.75 482.03
  A 0.75 0.75 0.0 0 1 314.00 481.28
  L 314.15 411.46
  L 314.13 391.43
  A 0.39 0.38 0.0 0 1 314.52 391.05
  L 362.71 391.02
  Q 363.25 391.02 363.25 391.56
  L 363.26 400.03
  Z"
/>
<path fill="#0665a5" d="
  M 369.18 401.61
  L 369.09 481.18
  A 0.80 0.79 1.1 0 0 369.87 481.98
  Q 378.49 482.23 387.11 481.87
  A 1.24 1.24 0.0 0 0 388.30 480.61
  L 388.10 468.79
  L 388.32 480.30
  Q 388.33 480.81 388.84 480.87
  Q 389.04 480.90 389.21 480.76
  Q 389.53 480.46 389.36 480.87
  Q 389.31 480.98 389.43 481.10
  Q 389.58 481.25 389.72 481.08
  Q 391.34 479.14 392.54 477.18
  Q 393.37 475.82 394.76 474.89
  Q 395.96 474.09 396.31 472.70
  Q 396.42 472.24 396.87 472.08
  Q 397.47 471.86 397.66 471.24
  Q 398.12 469.79 399.34 468.99
  Q 399.75 468.72 399.99 468.29
  Q 401.02 466.46 404.09 465.64
  Q 405.74 465.20 405.69 463.04
  L 405.43 480.82
  Q 405.41 482.02 406.61 482.02
  L 424.62 482.01
  Q 422.40 482.64 421.85 482.49
  A 0.95 0.91 -85.8 0 0 420.72 483.51
  Q 420.78 484.18 421.44 484.18
  A 1.07 1.07 0.0 0 1 422.37 484.69
  Q 423.63 486.73 424.77 488.74
  Q 426.11 491.09 428.48 490.43
  Q 431.79 489.51 433.71 487.00
  A 2.12 2.10 56.2 0 0 434.06 485.18
  Q 433.44 482.96 432.73 480.57
  C 431.67 477.00 432.18 472.86 432.12 469.14
  Q 432.07 466.10 431.82 462.39
  Q 431.49 457.60 431.86 450.50
  Q 432.20 443.98 431.70 429.07
  Q 431.66 427.90 431.21 426.77
  Q 430.58 425.18 430.40 424.50
  Q 429.86 422.40 428.43 420.73
  A 2.20 2.12 -74.0 0 1 427.98 419.88
  Q 427.13 416.78 424.75 415.46
  L 424.69 410.97
  L 424.82 408.77
  Q 424.85 408.29 425.33 408.25
  Q 426.53 408.15 427.36 408.91
  Q 428.58 410.02 428.81 410.20
  Q 433.84 414.06 435.08 416.38
  Q 436.68 419.36 437.28 421.91
  Q 437.93 424.68 438.31 427.86
  Q 438.68 430.97 438.50 434.19
  Q 438.21 439.35 437.75 444.50
  Q 437.26 449.90 437.82 459.25
  C 437.89 460.28 437.52 461.16 437.60 462.22
  Q 438.62 474.79 437.79 487.06
  Q 437.64 489.28 436.58 491.59
  Q 435.56 493.80 434.32 495.80
  Q 433.38 497.34 431.50 497.66
  Q 425.44 498.69 420.64 496.24
  Q 418.56 495.19 416.89 493.85
  Q 415.37 492.63 413.61 491.63
  Q 411.88 490.65 410.30 489.55
  Q 408.82 488.53 407.01 489.09
  Q 405.39 489.58 404.68 490.89
  Q 402.94 494.09 398.92 495.20
  A 1.39 1.35 9.5 0 0 398.21 495.69
  C 397.88 496.13 397.67 496.38 397.12 496.64
  Q 394.68 497.76 393.19 498.15
  Q 388.17 499.45 382.34 500.06
  C 380.86 500.21 379.25 499.89 377.89 500.38
  Q 376.45 500.89 374.91 501.01
  Q 366.23 501.68 357.63 503.02
  C 356.33 503.22 355.37 503.02 354.09 502.94
  Q 353.11 502.88 351.44 503.06
  Q 349.25 503.31 347.08 503.00
  C 345.85 502.83 344.52 503.25 343.25 503.19
  Q 339.46 503.03 335.94 502.85
  Q 335.67 502.83 335.55 502.59
  Q 335.48 502.44 335.32 502.40
  Q 332.77 501.86 330.02 501.36
  C 328.29 501.04 326.71 501.23 324.99 500.91
  Q 323.27 500.60 321.50 500.65
  Q 319.61 500.70 317.96 501.03
  Q 316.51 501.31 314.94 501.35
  Q 313.54 501.38 312.01 501.65
  Q 305.22 502.84 298.55 503.50
  Q 297.08 503.65 295.54 503.50
  C 292.99 503.26 290.62 503.49 288.06 503.01
  Q 285.78 502.58 283.30 502.27
  Q 281.78 502.08 280.56 501.55
  Q 279.39 501.04 278.03 500.36
  Q 277.57 500.13 277.07 500.09
  Q 276.58 500.06 276.21 499.80
  Q 275.18 499.08 275.18 499.08
  Q 273.27 498.14 271.42 497.12
  C 270.36 496.54 269.60 496.75 268.56 496.16
  Q 267.54 495.57 266.33 495.48
  Q 264.05 495.32 261.57 495.56
  C 259.92 495.72 258.76 496.67 257.14 496.60
  A 1.80 1.76 31.0 0 0 256.26 496.81
  Q 253.51 498.32 250.74 498.68
  Q 250.21 498.75 249.85 499.14
  C 248.75 500.37 247.40 500.01 245.98 500.52
  Q 241.30 502.22 236.32 502.14
  Q 234.70 502.11 233.33 501.70
  Q 231.74 501.23 230.17 500.79
  A 2.25 2.19 -13.7 0 1 229.22 500.23
  Q 228.66 499.67 227.93 499.38
  Q 225.32 498.37 223.54 496.26
  Q 222.84 495.43 221.90 495.00
  Q 220.89 494.53 219.81 494.14
  Q 218.21 493.57 217.03 492.58
  Q 214.97 490.85 213.55 488.84
  Q 212.78 487.74 211.66 486.99
  Q 210.28 486.08 208.92 485.26
  Q 208.48 484.99 208.26 484.53
  Q 207.81 483.55 206.97 482.77
  Q 206.55 482.38 206.48 481.82
  L 205.45 473.60
  Q 208.79 477.01 211.95 480.06
  Q 213.65 481.69 215.59 481.95
  Q 217.69 482.23 219.98 481.99
  Q 219.53 482.29 219.98 482.62
  Q 220.45 482.98 219.90 483.19
  Q 219.43 483.37 219.40 483.92
  Q 219.36 484.49 218.82 484.65
  Q 217.30 485.11 216.20 486.44
  A 0.97 0.96 -32.4 0 0 216.01 487.27
  Q 216.47 489.13 217.63 491.14
  Q 217.92 491.65 218.51 491.63
  Q 219.34 491.60 219.89 492.24
  Q 220.22 492.63 220.74 492.65
  Q 224.38 492.76 228.03 492.99
  Q 229.32 493.07 233.00 492.99
  Q 235.27 492.94 237.97 493.23
  Q 238.73 493.30 239.24 492.69
  Q 239.65 492.21 240.26 492.06
  Q 241.46 491.77 242.92 491.62
  Q 246.51 491.23 251.72 488.61
  C 253.09 487.92 254.65 487.96 256.11 487.44
  Q 256.77 487.20 257.49 487.10
  Q 258.18 487.00 258.58 486.42
  Q 258.90 485.97 259.44 485.84
  L 262.99 485.03
  Q 263.38 484.95 263.75 485.06
  L 265.93 485.74
  Q 266.40 485.88 266.87 485.74
  Q 268.67 485.17 269.87 486.39
  C 270.94 487.47 273.16 487.74 274.59 487.83
  C 276.18 487.94 277.33 488.54 278.80 488.87
  Q 279.52 489.03 280.09 488.57
  Q 281.62 487.32 282.78 488.62
  Q 283.35 489.25 283.63 488.45
  Q 283.89 487.69 284.57 488.08
  Q 284.74 488.18 284.92 488.09
  Q 285.09 488.01 285.06 487.82
  Q 284.98 487.29 285.51 487.37
  Q 286.54 487.53 287.33 486.82
  Q 287.67 486.51 287.65 486.06
  Q 287.63 485.24 287.98 484.47
  Q 288.97 484.11 288.39 481.99
  L 307.44 481.98
  A 1.00 1.00 0.0 0 0 308.44 480.98
  L 308.43 464.69
  A 0.68 0.68 0.0 0 0 307.75 464.01
  L 296.44 463.96
  Q 297.04 463.51 297.87 463.62
  Q 298.47 463.70 297.86 463.69
  Q 297.47 463.68 297.22 463.42
  Q 297.14 463.34 297.15 463.23
  Q 297.20 461.27 298.33 459.86
  Q 299.30 458.64 299.89 457.11
  Q 300.64 455.19 300.49 453.31
  Q 300.36 451.71 300.42 450.08
  Q 300.47 448.55 299.92 447.31
  Q 299.27 445.84 298.31 445.03
  L 301.72 444.95
  Q 302.34 444.93 302.34 444.31
  L 302.32 427.63
  Q 302.32 427.01 301.70 427.01
  L 279.02 427.00
  Q 278.29 427.00 278.30 426.27
  L 278.35 409.57
  Q 278.36 409.01 278.92 409.01
  L 308.32 408.98
  Q 311.58 408.33 314.15 411.46
  L 314.00 481.28
  A 0.75 0.75 0.0 0 0 314.75 482.03
  L 362.71 481.96
  A 0.67 0.66 -0.4 0 0 363.38 481.29
  L 363.31 464.75
  A 0.71 0.70 0.4 0 0 362.61 464.05
  L 357.20 463.97
  Q 357.25 463.65 357.63 463.60
  Q 358.47 463.50 357.79 463.40
  Q 357.25 463.32 356.70 463.41
  A 0.49 0.49 0.0 0 1 356.17 462.72
  Q 357.20 460.41 358.06 458.03
  Q 358.66 456.38 358.34 453.51
  Q 358.09 451.27 357.90 449.03
  Q 357.85 448.53 357.55 448.14
  Q 356.18 446.36 356.97 445.01
  L 357.17 427.62
  Q 357.18 427.00 356.56 427.00
  L 333.49 427.01
  Q 333.22 427.01 333.22 426.74
  L 333.21 409.27
  A 0.27 0.27 0.0 0 1 333.48 409.00
  L 362.56 409.00
  Q 363.17 409.00 363.17 408.40
  L 363.26 400.03
  Q 366.20 399.59 369.18 401.61
  Z"
/>
<path fill="#087ccd" d="
  M 424.60 403.99
  Q 426.28 404.76 428.01 405.39
  Q 429.92 406.08 431.32 406.96
  Q 433.99 408.63 436.64 410.33
  Q 438.08 411.26 438.92 412.59
  C 440.56 415.18 440.97 417.35 441.75 420.00
  Q 442.45 422.40 442.58 424.58
  Q 443.25 435.55 441.89 446.50
  Q 441.36 450.78 442.37 470.17
  Q 442.52 473.20 441.83 476.69
  Q 441.18 479.93 441.04 483.15
  Q 440.81 488.37 439.36 494.17
  Q 438.46 497.81 435.76 500.30
  Q 435.27 500.76 434.66 500.94
  Q 434.22 501.06 433.93 501.45
  Q 433.63 501.87 433.11 501.95
  Q 429.37 502.50 424.90 502.15
  Q 421.16 501.86 418.73 499.95
  Q 418.62 499.86 418.50 499.94
  Q 418.32 500.06 418.14 499.95
  Q 415.70 498.46 413.19 496.60
  C 411.06 495.02 408.50 495.19 407.02 497.58
  A 1.75 1.70 2.2 0 1 406.31 498.22
  L 396.72 502.90
  Q 396.32 503.10 395.87 503.13
  Q 394.50 503.24 393.20 503.86
  Q 391.83 504.53 390.19 504.66
  Q 381.57 505.39 373.76 505.62
  Q 371.29 505.70 368.61 506.30
  C 367.66 506.51 366.45 506.09 365.63 506.60
  A 1.67 1.60 27.1 0 1 364.79 506.85
  Q 359.28 506.89 353.58 507.16
  Q 349.06 507.38 344.39 507.08
  Q 341.46 506.89 338.22 506.74
  Q 335.16 506.60 332.26 506.05
  Q 325.54 504.78 319.26 505.31
  Q 316.46 505.55 313.59 505.73
  Q 310.74 505.91 307.93 506.23
  Q 300.20 507.10 292.75 506.85
  Q 292.26 506.84 291.84 506.58
  Q 291.23 506.21 290.52 506.36
  Q 289.24 506.64 287.94 506.67
  Q 286.67 506.71 285.35 506.50
  Q 279.51 505.56 273.98 503.67
  Q 272.32 503.11 270.67 502.74
  Q 268.93 502.36 267.39 501.48
  Q 264.27 499.71 260.41 500.21
  Q 259.26 500.36 258.18 500.88
  Q 257.34 501.29 256.39 501.12
  A 1.36 1.34 31.7 0 0 255.39 501.35
  Q 253.53 502.66 251.63 502.97
  Q 249.96 503.24 248.14 504.01
  Q 245.01 505.32 240.75 505.77
  Q 235.49 506.33 231.39 504.74
  Q 229.41 503.98 228.01 502.33
  Q 227.03 501.18 225.74 500.22
  Q 224.61 499.38 223.56 498.32
  Q 221.74 496.49 218.89 494.97
  Q 216.07 493.47 212.98 491.53
  Q 211.59 490.66 210.86 489.30
  A 2.03 1.90 -89.8 0 0 210.18 488.57
  Q 209.26 487.99 208.32 487.44
  Q 207.41 486.91 206.66 485.99
  Q 204.02 482.74 202.40 479.13
  Q 201.79 477.77 201.74 476.39
  Q 201.65 473.74 200.79 470.99
  Q 200.61 470.39 201.23 470.40
  L 202.31 470.40
  L 205.45 473.60
  L 206.48 481.82
  Q 206.55 482.38 206.97 482.77
  Q 207.81 483.55 208.26 484.53
  Q 208.48 484.99 208.92 485.26
  Q 210.28 486.08 211.66 486.99
  Q 212.78 487.74 213.55 488.84
  Q 214.97 490.85 217.03 492.58
  Q 218.21 493.57 219.81 494.14
  Q 220.89 494.53 221.90 495.00
  Q 222.84 495.43 223.54 496.26
  Q 225.32 498.37 227.93 499.38
  Q 228.66 499.67 229.22 500.23
  A 2.25 2.19 -13.7 0 0 230.17 500.79
  Q 231.74 501.23 233.33 501.70
  Q 234.70 502.11 236.32 502.14
  Q 241.30 502.22 245.98 500.52
  C 247.40 500.01 248.75 500.37 249.85 499.14
  Q 250.21 498.75 250.74 498.68
  Q 253.51 498.32 256.26 496.81
  A 1.80 1.76 31.0 0 1 257.14 496.60
  C 258.76 496.67 259.92 495.72 261.57 495.56
  Q 264.05 495.32 266.33 495.48
  Q 267.54 495.57 268.56 496.16
  C 269.60 496.75 270.36 496.54 271.42 497.12
  Q 273.27 498.14 275.18 499.08
  Q 275.18 499.08 276.21 499.80
  Q 276.58 500.06 277.07 500.09
  Q 277.57 500.13 278.03 500.36
  Q 279.39 501.04 280.56 501.55
  Q 281.78 502.08 283.30 502.27
  Q 285.78 502.58 288.06 503.01
  C 290.62 503.49 292.99 503.26 295.54 503.50
  Q 297.08 503.65 298.55 503.50
  Q 305.22 502.84 312.01 501.65
  Q 313.54 501.38 314.94 501.35
  Q 316.51 501.31 317.96 501.03
  Q 319.61 500.70 321.50 500.65
  Q 323.27 500.60 324.99 500.91
  C 326.71 501.23 328.29 501.04 330.02 501.36
  Q 332.77 501.86 335.32 502.40
  Q 335.48 502.44 335.55 502.59
  Q 335.67 502.83 335.94 502.85
  Q 339.46 503.03 343.25 503.19
  C 344.52 503.25 345.85 502.83 347.08 503.00
  Q 349.25 503.31 351.44 503.06
  Q 353.11 502.88 354.09 502.94
  C 355.37 503.02 356.33 503.22 357.63 503.02
  Q 366.23 501.68 374.91 501.01
  Q 376.45 500.89 377.89 500.38
  C 379.25 499.89 380.86 500.21 382.34 500.06
  Q 388.17 499.45 393.19 498.15
  Q 394.68 497.76 397.12 496.64
  C 397.67 496.38 397.88 496.13 398.21 495.69
  A 1.39 1.35 9.5 0 1 398.92 495.20
  Q 402.94 494.09 404.68 490.89
  Q 405.39 489.58 407.01 489.09
  Q 408.82 488.53 410.30 489.55
  Q 411.88 490.65 413.61 491.63
  Q 415.37 492.63 416.89 493.85
  Q 418.56 495.19 420.64 496.24
  Q 425.44 498.69 431.50 497.66
  Q 433.38 497.34 434.32 495.80
  Q 435.56 493.80 436.58 491.59
  Q 437.64 489.28 437.79 487.06
  Q 438.62 474.79 437.60 462.22
  C 437.52 461.16 437.89 460.28 437.82 459.25
  Q 437.26 449.90 437.75 444.50
  Q 438.21 439.35 438.50 434.19
  Q 438.68 430.97 438.31 427.86
  Q 437.93 424.68 437.28 421.91
  Q 436.68 419.36 435.08 416.38
  Q 433.84 414.06 428.81 410.20
  Q 428.58 410.02 427.36 408.91
  Q 426.53 408.15 425.33 408.25
  Q 424.85 408.29 424.82 408.77
  L 424.69 410.97
  L 424.60 403.99
  Z"
/>
<path fill="#0665a5" d="
  M 405.66 410.21
  L 405.67 420.60
  A 2.68 2.66 67.7 0 1 404.89 422.49
  L 401.07 426.29
  A 2.54 2.51 -67.0 0 1 399.30 427.02
  L 388.57 427.01
  Q 388.18 427.01 388.18 426.63
  L 388.25 408.72
  L 388.48 405.96
  A 1.31 1.30 -71.2 0 1 390.48 404.97
  Q 392.93 406.52 395.77 407.64
  Q 397.91 408.49 399.47 409.54
  Q 401.47 410.88 403.30 411.97
  A 0.89 0.86 -89.1 0 1 403.60 412.29
  Q 403.80 412.70 404.21 412.78
  Q 404.69 412.89 404.98 413.30
  L 405.29 413.75
  Q 405.43 413.95 405.45 413.71
  L 405.66 410.21
  Z"
/>
<path fill="#06578f" d="
  M 259.23 408.03
  L 259.23 481.29
  A 0.74 0.74 0.0 0 0 259.97 482.03
  L 288.39 481.99
  Q 288.97 484.11 287.98 484.47
  Q 287.63 485.24 287.65 486.06
  Q 287.67 486.51 287.33 486.82
  Q 286.54 487.53 285.51 487.37
  Q 284.98 487.29 285.06 487.82
  Q 285.09 488.01 284.92 488.09
  Q 284.74 488.18 284.57 488.08
  Q 283.89 487.69 283.63 488.45
  Q 283.35 489.25 282.78 488.62
  Q 281.62 487.32 280.09 488.57
  Q 279.52 489.03 278.80 488.87
  C 277.33 488.54 276.18 487.94 274.59 487.83
  C 273.16 487.74 270.94 487.47 269.87 486.39
  Q 268.67 485.17 266.87 485.74
  Q 266.40 485.88 265.93 485.74
  L 263.75 485.06
  Q 263.38 484.95 262.99 485.03
  L 259.44 485.84
  Q 258.90 485.97 258.58 486.42
  Q 258.18 487.00 257.49 487.10
  Q 256.77 487.20 256.11 487.44
  C 254.65 487.96 253.09 487.92 251.72 488.61
  Q 246.51 491.23 242.92 491.62
  Q 241.46 491.77 240.26 492.06
  Q 239.65 492.21 239.24 492.69
  Q 238.73 493.30 237.97 493.23
  Q 235.27 492.94 233.00 492.99
  Q 229.32 493.07 228.03 492.99
  Q 224.38 492.76 220.74 492.65
  Q 220.22 492.63 219.89 492.24
  Q 219.34 491.60 218.51 491.63
  Q 217.92 491.65 217.63 491.14
  Q 216.47 489.13 216.01 487.27
  A 0.97 0.96 -32.4 0 1 216.20 486.44
  Q 217.30 485.11 218.82 484.65
  Q 219.36 484.49 219.40 483.92
  Q 219.43 483.37 219.90 483.19
  Q 220.45 482.98 219.98 482.62
  Q 219.53 482.29 219.98 481.99
  Q 227.96 481.99 236.00 482.01
  Q 237.34 482.02 238.34 480.99
  Q 246.04 473.07 253.03 466.07
  A 0.85 0.85 0.0 0 0 253.29 465.46
  L 253.43 427.43
  A 0.43 0.43 0.0 0 0 253.00 427.00
  L 223.74 427.01
  A 0.34 0.34 0.0 0 0 223.40 427.35
  L 223.41 444.32
  A 0.67 0.66 -90.0 0 0 224.07 444.99
  L 233.71 445.01
  Q 234.41 445.01 234.41 445.71
  L 234.37 457.18
  Q 234.37 457.81 233.95 458.27
  Q 232.37 460.02 230.49 461.90
  C 228.52 463.86 224.85 463.30 222.40 463.09
  A 1.71 1.68 -19.0 0 1 221.35 462.59
  L 217.25 458.37
  Q 216.75 457.85 216.75 457.12
  L 216.75 414.92
  Q 216.75 414.07 217.36 413.47
  L 221.51 409.38
  A 1.85 1.84 22.1 0 1 222.79 408.84
  L 228.31 408.75
  Q 228.93 408.74 229.38 409.17
  L 234.03 413.68
  Q 234.48 414.12 234.47 414.74
  L 234.35 420.54
  A 0.45 0.44 -89.4 0 0 234.79 421.00
  L 252.97 421.00
  A 0.39 0.38 -89.2 0 0 253.35 420.62
  L 253.65 406.92
  Q 256.84 406.39 259.23 408.03
  Z"
/>
<path fill="#06578f" d="
  M 424.62 482.01
  L 424.58 443.50
  A 2.54 2.53 -68.5 0 0 423.78 441.65
  L 418.32 436.45
  Q 417.78 435.94 418.34 435.46
  Q 420.94 433.18 423.13 430.98
  Q 424.92 429.17 424.83 426.49
  Q 424.64 421.39 424.75 415.46
  Q 427.13 416.78 427.98 419.88
  A 2.20 2.12 -74.0 0 0 428.43 420.73
  Q 429.86 422.40 430.40 424.50
  Q 430.58 425.18 431.21 426.77
  Q 431.66 427.90 431.70 429.07
  Q 432.20 443.98 431.86 450.50
  Q 431.49 457.60 431.82 462.39
  Q 432.07 466.10 432.12 469.14
  C 432.18 472.86 431.67 477.00 432.73 480.57
  Q 433.44 482.96 434.06 485.18
  A 2.12 2.10 56.2 0 1 433.71 487.00
  Q 431.79 489.51 428.48 490.43
  Q 426.11 491.09 424.77 488.74
  Q 423.63 486.73 422.37 484.69
  A 1.07 1.07 0.0 0 0 421.44 484.18
  Q 420.78 484.18 420.72 483.51
  A 0.95 0.91 -85.8 0 1 421.85 482.49
  Q 422.40 482.64 424.62 482.01
  Z"
/>
<path fill="#06578f" d="
  M 298.31 445.03
  Q 299.27 445.84 299.92 447.31
  Q 300.47 448.55 300.42 450.08
  Q 300.36 451.71 300.49 453.31
  Q 300.64 455.19 299.89 457.11
  Q 299.30 458.64 298.33 459.86
  Q 297.20 461.27 297.15 463.23
  Q 297.14 463.34 297.22 463.42
  Q 297.47 463.68 297.86 463.69
  Q 298.47 463.70 297.87 463.62
  Q 297.04 463.51 296.44 463.96
  L 278.82 463.97
  A 0.47 0.47 0.0 0 1 278.35 463.50
  L 278.32 445.53
  Q 278.32 445.05 278.80 445.05
  L 298.31 445.03
  Z"
/>
<path fill="#06578f" d="
  M 356.97 445.01
  Q 356.18 446.36 357.55 448.14
  Q 357.85 448.53 357.90 449.03
  Q 358.09 451.27 358.34 453.51
  Q 358.66 456.38 358.06 458.03
  Q 357.20 460.41 356.17 462.72
  A 0.49 0.49 0.0 0 0 356.70 463.41
  Q 357.25 463.32 357.79 463.40
  Q 358.47 463.50 357.63 463.60
  Q 357.25 463.65 357.20 463.97
  L 333.60 463.97
  A 0.44 0.44 0.0 0 1 333.16 463.53
  L 333.21 445.29
  Q 333.21 445.01 333.49 445.01
  L 356.97 445.01
  Z"
/>
<path fill="#06578f" d="
  M 405.69 463.04
  Q 405.74 465.20 404.09 465.64
  Q 401.02 466.46 399.99 468.29
  Q 399.75 468.72 399.34 468.99
  Q 398.12 469.79 397.66 471.24
  Q 397.47 471.86 396.87 472.08
  Q 396.42 472.24 396.31 472.70
  Q 395.96 474.09 394.76 474.89
  Q 393.37 475.82 392.54 477.18
  Q 391.34 479.14 389.72 481.08
  Q 389.58 481.25 389.43 481.10
  Q 389.31 480.98 389.36 480.87
  Q 389.53 480.46 389.21 480.76
  Q 389.04 480.90 388.84 480.87
  Q 388.33 480.81 388.32 480.30
  L 388.10 468.79
  L 388.24 445.53
  Q 388.25 444.99 388.78 444.99
  L 399.52 444.99
  A 2.02 2.00 67.3 0 1 400.94 445.58
  L 405.00 449.67
  A 2.40 2.35 -67.9 0 1 405.69 451.35
  L 405.69 463.04
  Z"
/>
<path fill="#ffffff" d="
  M 191.81 529.65
  Q 191.66 555.18 191.77 579.86
  Q 191.78 582.60 192.89 583.87
  Q 194.42 585.60 195.98 587.02
  C 197.63 588.52 200.21 587.96 202.29 588.01
  C 204.76 588.08 207.07 584.79 208.68 583.17
  A 1.99 1.98 -22.9 0 0 209.25 581.78
  L 209.32 561.54
  L 209.22 514.83
  A 0.84 0.84 0.0 0 1 210.06 513.99
  L 227.72 514.02
  A 0.59 0.59 0.0 0 1 228.31 514.61
  L 228.31 532.00
  L 228.36 581.17
  A 3.15 3.12 24.0 0 0 229.18 583.28
  C 230.84 585.09 232.74 587.67 235.41 587.70
  C 237.69 587.72 240.28 588.13 242.05 586.36
  C 243.63 584.78 245.61 583.47 245.63 581.00
  Q 245.75 562.73 245.68 544.47
  L 245.69 514.91
  A 0.84 0.84 0.0 0 1 246.53 514.07
  L 264.06 513.97
  A 0.80 0.79 0.4 0 1 264.86 514.77
  L 264.81 539.96
  L 264.77 589.70
  Q 264.77 590.25 264.37 590.63
  L 249.35 605.34
  A 2.27 2.27 0.0 0 1 247.77 605.98
  L 226.90 605.96
  A 4.01 4.01 0.0 0 1 224.09 604.81
  L 219.20 599.97
  A 0.56 0.55 -44.6 0 0 218.41 599.97
  L 213.20 605.19
  A 2.80 2.80 0.0 0 1 211.22 606.01
  L 195.75 605.99
  Q 192.65 606.47 190.09 605.77
  Q 188.08 605.21 185.54 602.78
  Q 183.03 600.39 180.60 597.98
  L 172.89 590.29
  L 172.68 514.65
  Q 172.68 514.08 173.25 514.08
  L 191.20 513.99
  A 0.62 0.61 90.0 0 1 191.81 514.61
  L 191.81 529.65
  Z"
/>
<path fill="#ffffff" d="
  M 326.50 530.50
  L 326.37 539.94
  L 326.58 588.63
  A 2.63 2.62 -22.8 0 1 325.81 590.51
  L 311.48 605.05
  A 3.19 3.16 22.2 0 1 309.22 605.99
  L 288.79 605.99
  A 4.54 4.51 67.5 0 1 285.58 604.65
  Q 278.48 597.50 272.09 591.15
  Q 270.72 589.79 270.74 587.50
  Q 270.82 572.13 270.64 534.72
  C 270.36 532.22 270.47 530.14 272.39 528.31
  Q 279.00 522.02 285.26 515.49
  A 4.79 4.77 21.7 0 1 288.72 514.01
  L 309.26 514.01
  A 2.51 2.51 0.0 0 1 311.06 514.77
  L 326.50 530.50
  Z
  M 298.16 587.35
  Q 299.55 587.27 300.91 587.13
  C 303.43 586.89 305.10 584.64 306.59 582.84
  C 307.37 581.90 307.37 580.65 307.38 579.50
  Q 307.45 565.49 307.37 551.45
  L 307.35 538.72
  A 1.52 1.51 -65.1 0 0 307.00 537.75
  C 305.68 536.18 303.00 532.79 300.73 532.80
  C 298.16 532.80 295.45 532.20 293.45 534.18
  C 291.80 535.81 289.72 537.35 289.73 539.84
  Q 289.77 560.10 289.72 579.74
  Q 289.72 581.47 290.86 583.05
  Q 293.79 587.11 298.16 587.35
  Z"
/>
<path fill="#ffffff" d="
  M 387.75 539.72
  L 387.79 552.56
  A 2.01 2.00 -22.3 0 1 387.19 553.99
  L 381.36 559.63
  A 0.54 0.54 0.0 0 0 381.36 560.41
  L 386.95 565.80
  A 2.64 2.61 -68.3 0 1 387.75 567.69
  L 387.79 605.03
  Q 387.98 605.85 386.99 605.89
  Q 378.26 606.24 369.72 605.84
  A 1.09 1.08 1.7 0 1 368.68 604.75
  L 368.81 586.01
  L 368.75 574.86
  Q 368.75 574.32 368.36 573.94
  L 363.92 569.58
  Q 363.30 568.97 362.43 568.97
  L 351.91 569.01
  Q 351.32 569.01 351.32 569.59
  L 351.31 605.60
  A 0.41 0.40 -0.0 0 1 350.90 606.00
  L 332.82 606.03
  Q 332.26 606.03 332.26 605.47
  L 332.23 543.84
  L 332.23 531.81
  L 332.22 515.58
  Q 332.22 515.03 332.77 515.03
  L 369.99 515.03
  Q 371.84 515.03 373.17 516.33
  L 387.22 530.09
  Q 387.60 530.46 387.61 530.99
  L 387.75 539.72
  Z
  M 351.33 533.37
  L 351.33 550.61
  A 0.42 0.42 0.0 0 0 351.75 551.03
  L 360.23 551.03
  A 8.68 8.66 -0.0 0 0 368.91 542.37
  L 368.91 541.61
  A 8.68 8.66 0.0 0 0 360.23 532.95
  L 351.75 532.95
  A 0.42 0.42 0.0 0 0 351.33 533.37
  Z"
/>
<path fill="#ffffff" d="
  M 449.30 533.96
  L 449.33 544.21
  L 449.32 588.97
  A 3.01 2.99 -22.6 0 1 448.44 591.09
  L 433.59 605.76
  L 394.36 606.01
  A 0.70 0.70 0.0 0 1 393.66 605.31
  L 393.66 541.19
  L 393.60 515.65
  A 0.65 0.64 -0.4 0 1 394.25 515.00
  L 432.00 515.02
  A 3.08 3.07 -22.2 0 1 434.15 515.92
  Q 440.93 522.68 447.98 529.27
  Q 449.72 530.90 449.30 533.96
  Z
  M 420.80 587.94
  L 424.46 587.90
  Q 424.97 587.89 425.35 587.54
  C 426.87 586.10 430.18 583.48 430.19 581.25
  Q 430.30 566.90 430.23 552.53
  L 430.34 538.95
  Q 430.34 538.39 429.95 538.00
  L 425.50 533.59
  Q 424.90 533.00 424.06 533.00
  L 413.24 533.00
  A 0.51 0.51 0.0 0 0 412.73 533.51
  L 412.76 587.32
  Q 412.76 587.92 413.36 587.92
  L 420.80 587.94
  Z"
/>
<path fill="#0665a5" d="
  M 209.32 561.54
  L 209.25 581.78
  A 1.99 1.98 -22.9 0 1 208.68 583.17
  C 207.07 584.79 204.76 588.08 202.29 588.01
  C 200.21 587.96 197.63 588.52 195.98 587.02
  Q 194.42 585.60 192.89 583.87
  Q 191.78 582.60 191.77 579.86
  Q 191.66 555.18 191.81 529.65
  Q 196.51 529.37 199.91 533.39
  Q 200.24 533.77 200.72 533.90
  Q 201.32 534.07 201.54 534.37
  Q 202.96 536.33 204.26 538.17
  Q 204.82 538.98 205.51 539.31
  Q 206.46 539.78 207.55 539.95
  Q 207.98 540.02 208.02 540.46
  Q 208.11 541.50 208.87 542.39
  A 1.33 1.33 0.0 0 1 209.21 543.28
  L 209.32 561.54
  Z"
/>
<path fill="#0665a5" d="
  M 332.23 531.81
  L 332.23 543.84
  Q 330.60 539.01 326.37 539.94
  L 326.50 530.50
  L 328.58 530.83
  Q 329.06 530.90 329.47 531.17
  Q 330.42 531.77 332.23 531.81
  Z"
/>
<path fill="#0665a5" d="
  M 245.68 544.47
  Q 245.75 562.73 245.63 581.00
  C 245.61 583.47 243.63 584.78 242.05 586.36
  C 240.28 588.13 237.69 587.72 235.41 587.70
  C 232.74 587.67 230.84 585.09 229.18 583.28
  A 3.15 3.12 24.0 0 1 228.36 581.17
  L 228.31 532.00
  L 229.80 530.93
  Q 230.23 530.62 230.70 530.87
  Q 235.59 533.42 241.16 537.43
  Q 242.38 538.31 242.99 539.54
  Q 243.24 540.04 243.78 539.90
  Q 243.96 539.85 244.14 539.86
  Q 244.55 539.89 244.65 540.29
  L 245.68 544.47
  Z"
/>
<path fill="#087ccd" d="
  M 172.89 590.29
  L 180.60 597.98
  Q 179.49 598.38 179.07 600.35
  A 1.89 1.88 -61.6 0 0 179.58 602.07
  Q 180.69 603.18 181.11 604.75
  A 1.57 1.54 -81.8 0 0 181.77 605.65
  Q 182.54 606.14 182.64 607.08
  Q 182.71 607.76 183.25 608.17
  Q 185.06 609.56 186.99 610.21
  Q 187.52 610.39 187.83 610.86
  Q 189.08 612.74 189.61 614.74
  A 3.04 3.03 -89.1 0 0 191.65 616.85
  L 201.26 619.78
  Q 202.13 619.80 202.30 620.03
  Q 203.15 621.19 204.21 621.70
  Q 206.02 622.58 206.13 622.66
  Q 208.06 623.93 210.30 624.93
  C 213.16 626.22 215.62 625.24 218.55 625.58
  Q 220.41 625.79 222.46 625.19
  Q 228.86 623.29 233.72 623.87
  Q 245.06 625.23 256.57 623.02
  Q 257.03 622.93 257.28 622.55
  Q 257.53 622.18 257.98 622.17
  Q 259.87 622.10 261.30 621.32
  Q 263.28 620.24 265.30 619.26
  Q 265.75 619.03 266.03 618.61
  Q 266.39 618.05 267.04 617.94
  Q 267.53 617.85 267.94 617.57
  Q 271.31 615.23 275.11 613.89
  Q 276.84 613.28 278.95 613.42
  Q 280.98 613.56 282.91 613.63
  C 285.71 613.73 287.00 615.81 289.44 616.71
  Q 293.84 618.34 297.46 621.08
  Q 299.29 622.46 301.39 622.88
  Q 309.59 624.52 316.61 622.65
  Q 317.71 622.36 318.79 621.91
  Q 319.91 621.44 321.15 621.26
  Q 322.44 621.07 323.21 620.01
  Q 323.49 619.61 323.97 619.54
  Q 327.75 618.97 331.40 617.93
  Q 336.40 616.52 342.66 617.41
  Q 344.28 617.64 345.67 618.29
  Q 346.89 618.86 348.38 618.63
  Q 348.78 618.57 349.10 618.79
  Q 351.19 620.20 353.65 620.58
  A 1.49 1.42 34.4 0 0 354.53 620.44
  C 355.60 619.90 356.72 620.26 357.93 619.88
  Q 361.22 618.84 364.01 616.74
  Q 365.92 615.30 367.85 613.80
  Q 368.25 613.49 368.76 613.47
  Q 372.63 613.29 375.17 614.41
  Q 376.11 614.82 377.07 614.88
  Q 379.16 615.02 380.97 613.88
  A 1.98 1.98 0.0 0 1 383.36 614.10
  L 386.53 617.03
  Q 386.97 617.42 387.56 617.39
  Q 388.29 617.36 388.90 617.64
  Q 389.74 618.03 390.66 618.14
  Q 393.02 618.42 395.23 618.35
  Q 396.99 618.29 398.68 619.25
  Q 401.05 620.59 403.07 621.88
  C 404.38 622.73 406.55 622.87 408.10 622.77
  Q 410.03 622.64 411.97 622.93
  Q 422.58 624.47 432.79 624.61
  Q 436.44 624.66 439.44 623.52
  Q 442.25 622.46 445.32 621.49
  Q 446.94 620.97 448.22 620.07
  Q 449.37 619.25 450.66 618.54
  Q 452.17 617.70 453.11 616.33
  Q 454.63 614.12 456.00 611.34
  C 456.49 610.34 456.28 609.22 457.02 608.31
  Q 457.75 607.41 458.07 606.36
  Q 460.63 597.88 460.75 592.94
  Q 461.05 580.96 460.65 562.77
  C 460.61 561.35 460.00 560.20 460.09 558.69
  Q 460.17 557.23 459.82 555.94
  C 459.45 554.53 459.57 552.91 458.83 551.62
  Q 457.34 549.04 456.01 546.24
  Q 454.24 542.52 451.03 539.90
  A 0.98 0.97 -69.5 0 0 449.44 540.63
  L 449.33 544.21
  L 449.30 533.96
  Q 449.34 533.33 449.42 532.74
  Q 449.55 531.86 450.09 532.55
  Q 450.22 532.71 450.40 532.61
  Q 450.93 532.29 451.32 532.77
  Q 452.72 534.50 454.49 536.00
  Q 456.78 537.93 458.41 541.15
  Q 458.60 541.52 458.93 541.78
  C 459.57 542.28 460.36 542.82 460.70 543.58
  Q 461.86 546.14 462.99 548.75
  Q 463.97 550.99 464.28 553.38
  Q 464.49 555.00 464.80 556.64
  Q 465.09 558.17 465.19 559.73
  Q 466.13 574.76 465.77 588.50
  Q 465.71 590.76 465.82 593.09
  Q 465.94 595.44 465.47 597.87
  Q 464.32 603.77 462.52 609.63
  Q 461.93 611.55 460.83 613.14
  Q 459.69 614.79 458.96 616.58
  C 458.52 617.65 457.83 618.05 457.30 619.04
  Q 457.05 619.50 456.61 619.79
  Q 454.50 621.15 452.90 623.07
  Q 452.58 623.46 452.10 623.64
  L 448.55 625.03
  Q 448.13 625.19 447.69 625.09
  Q 447.20 624.98 446.94 625.38
  Q 446.70 625.76 446.29 625.93
  Q 443.10 627.23 439.66 627.55
  Q 438.48 627.66 437.47 627.99
  C 436.37 628.36 435.67 628.88 434.44 628.95
  C 431.04 629.17 428.03 629.52 424.52 629.12
  Q 421.30 628.75 417.94 628.58
  Q 415.07 628.43 408.53 626.70
  Q 408.10 626.59 407.95 626.17
  Q 407.83 625.84 407.51 625.89
  Q 403.28 624.12 398.67 624.07
  Q 398.63 624.07 398.63 624.11
  Q 398.61 624.26 398.62 624.16
  Q 398.62 624.10 398.68 624.09
  Q 399.07 624.00 399.17 624.38
  A 0.32 0.31 3.1 0 1 398.75 624.75
  Q 394.67 623.09 391.08 622.66
  Q 390.57 622.60 390.18 622.28
  Q 388.67 621.05 386.92 620.27
  Q 386.50 620.08 386.20 619.71
  Q 385.02 618.22 383.32 617.13
  Q 382.91 616.87 382.42 616.93
  Q 379.28 617.31 376.24 616.45
  Q 375.68 616.29 375.12 616.40
  Q 374.06 616.61 373.51 615.81
  Q 373.22 615.37 372.69 615.37
  L 370.52 615.37
  Q 370.11 615.37 370.10 615.78
  Q 370.06 616.63 369.53 617.30
  Q 369.15 617.77 368.95 618.39
  Q 367.56 622.75 363.70 624.86
  Q 361.55 626.03 358.26 626.79
  Q 358.01 626.85 357.79 626.76
  Q 357.72 626.74 357.66 626.69
  Q 357.56 626.61 357.44 626.64
  Q 355.78 626.99 353.92 626.81
  Q 351.26 626.57 348.79 626.79
  Q 347.10 626.94 345.04 626.47
  Q 343.02 626.00 341.07 625.54
  Q 338.53 624.94 335.76 624.87
  Q 333.51 624.82 331.44 625.74
  Q 329.28 626.70 326.94 627.20
  Q 326.74 627.24 326.63 627.07
  Q 326.61 627.02 326.62 626.97
  Q 326.66 626.82 326.51 626.88
  Q 324.60 627.57 322.71 628.39
  Q 320.97 629.14 319.05 629.50
  Q 312.74 630.68 306.63 628.66
  Q 305.59 628.31 304.55 628.25
  Q 303.13 628.15 301.90 627.81
  Q 301.02 627.57 300.14 627.33
  Q 299.25 627.08 298.47 626.69
  Q 294.30 624.59 290.13 622.05
  Q 289.74 621.81 289.86 622.25
  Q 289.89 622.37 289.76 622.49
  Q 289.68 622.57 289.59 622.50
  Q 289.21 622.24 288.75 622.20
  Q 288.23 622.17 287.78 621.89
  Q 284.76 620.03 281.89 620.98
  Q 279.72 621.70 277.53 622.03
  Q 275.72 622.30 274.24 623.26
  Q 272.85 624.16 271.30 624.65
  Q 269.62 625.19 268.10 626.36
  Q 266.93 627.25 265.21 627.73
  Q 263.30 628.27 261.51 629.12
  Q 261.22 629.26 260.91 629.13
  Q 260.49 628.96 260.04 629.06
  Q 254.59 630.25 249.17 630.45
  C 247.94 630.50 246.83 630.96 245.61 630.88
  Q 242.00 630.64 238.29 630.61
  Q 236.82 630.60 235.30 629.91
  Q 233.90 629.26 232.22 629.04
  Q 231.48 628.94 230.78 628.93
  Q 230.14 628.93 229.67 628.58
  A 1.33 1.33 0.0 0 0 228.67 628.34
  Q 226.27 628.73 224.46 627.79
  Q 224.00 627.54 223.50 627.68
  Q 222.52 627.93 221.44 627.75
  Q 220.33 627.56 219.19 627.79
  Q 217.14 628.22 215.41 627.48
  Q 214.95 627.28 214.44 627.34
  Q 210.28 627.83 206.90 625.81
  Q 206.46 625.55 205.95 625.64
  Q 205.08 625.78 204.41 625.36
  Q 204.08 625.16 203.72 625.04
  L 201.93 624.47
  Q 201.50 624.33 201.16 624.03
  Q 200.40 623.36 199.56 622.73
  Q 198.54 621.95 197.35 621.67
  Q 196.17 621.40 195.06 620.87
  Q 194.68 620.69 194.26 620.70
  Q 192.06 620.77 190.87 619.02
  Q 190.17 618.00 189.57 617.44
  Q 189.14 617.04 188.74 616.62
  Q 188.40 616.27 188.26 615.80
  Q 187.32 612.70 186.47 612.17
  Q 184.51 610.95 182.71 609.53
  Q 182.52 609.38 182.32 609.35
  Q 182.10 609.32 181.99 609.52
  A 0.04 0.04 0.0 0 1 181.91 609.51
  C 181.51 607.97 179.96 607.74 179.10 606.47
  Q 177.30 603.80 176.00 601.12
  Q 173.66 596.31 173.62 596.20
  Q 172.57 593.63 172.58 590.74
  Q 172.59 590.11 172.89 590.29
  Z"
/>
<path fill="#06578f" d="
  M 270.64 534.72
  Q 270.82 572.13 270.74 587.50
  Q 270.72 589.79 272.09 591.15
  Q 278.48 597.50 285.58 604.65
  A 4.54 4.51 67.5 0 0 288.79 605.99
  L 309.22 605.99
  A 3.19 3.16 22.2 0 0 311.48 605.05
  L 325.81 590.51
  A 2.63 2.62 -22.8 0 0 326.58 588.63
  L 326.37 539.94
  Q 330.60 539.01 332.23 543.84
  L 332.26 605.47
  Q 332.26 606.03 332.82 606.03
  L 350.90 606.00
  A 0.41 0.40 0.0 0 0 351.31 605.60
  L 351.32 569.59
  Q 351.32 569.01 351.91 569.01
  L 362.43 568.97
  Q 363.30 568.97 363.92 569.58
  L 368.36 573.94
  Q 368.75 574.32 368.75 574.86
  L 368.81 586.01
  L 368.44 586.74
  Q 368.30 587.02 368.08 587.25
  Q 367.79 587.57 367.63 587.37
  Q 367.26 586.91 366.86 587.34
  L 363.74 590.60
  Q 363.38 590.98 363.26 591.49
  Q 363.03 592.46 362.23 593.07
  A 1.29 1.29 0.0 0 0 361.83 593.55
  L 357.33 602.67
  Q 357.11 603.12 357.06 603.62
  Q 356.99 604.41 356.43 605.00
  Q 356.08 605.37 356.00 605.87
  C 355.54 608.51 353.47 612.40 350.12 611.90
  Q 348.46 611.65 346.71 612.15
  Q 344.81 612.70 343.05 613.64
  Q 341.92 614.24 340.38 614.40
  Q 339.02 614.53 337.78 614.76
  Q 335.17 615.23 332.74 614.47
  Q 332.22 614.31 331.71 614.48
  Q 330.01 615.05 328.12 615.26
  C 327.06 615.39 326.32 616.03 325.34 616.40
  C 324.43 616.74 323.28 617.73 321.96 617.31
  Q 321.46 617.15 320.94 617.19
  Q 313.09 617.70 304.46 618.48
  Q 302.51 618.65 300.57 617.95
  Q 298.58 617.23 296.25 617.05
  Q 294.28 616.90 292.40 616.45
  Q 292.02 616.36 291.85 616.01
  Q 291.62 615.56 291.10 615.47
  Q 290.53 615.37 290.42 614.80
  Q 290.22 613.82 289.06 613.71
  Q 288.54 613.67 289.01 613.91
  Q 289.26 614.04 289.28 614.31
  Q 289.32 614.89 289.89 614.90
  Q 290.44 614.92 290.38 615.54
  A 0.76 0.76 0.0 0 0 290.87 616.34
  L 294.08 617.58
  A 0.03 0.03 0.0 0 1 294.07 617.64
  Q 292.05 617.67 290.59 616.32
  A 1.79 1.74 70.5 0 0 289.74 615.90
  Q 289.49 615.85 289.24 615.78
  Q 288.68 615.63 288.23 615.26
  Q 284.49 612.14 280.75 610.26
  Q 276.77 608.27 273.47 610.81
  Q 273.37 610.89 273.23 610.89
  Q 273.08 610.88 272.94 610.86
  A 1.33 1.30 32.7 0 0 272.02 611.05
  Q 265.25 615.31 257.14 618.78
  Q 254.96 619.71 253.08 619.92
  Q 251.31 620.11 249.32 620.70
  Q 247.35 621.29 245.38 621.63
  Q 243.45 621.97 241.48 621.89
  Q 235.11 621.64 229.44 622.54
  Q 227.03 622.92 224.61 622.15
  Q 222.65 621.53 220.58 621.77
  Q 217.89 622.07 215.50 622.63
  Q 208.68 624.22 202.30 620.03
  Q 202.13 619.80 201.26 619.78
  Q 201.26 619.63 201.26 619.52
  A 0.32 0.31 6.3 0 0 201.02 619.23
  C 199.46 618.80 196.59 618.29 195.38 617.15
  Q 194.50 616.31 193.45 615.43
  Q 193.00 615.06 192.41 615.14
  Q 191.69 615.25 191.15 614.73
  Q 190.57 614.17 190.40 613.42
  Q 189.98 611.67 188.77 610.10
  Q 187.49 608.45 189.16 607.39
  Q 189.61 607.11 189.08 607.16
  Q 188.69 607.21 188.53 606.70
  A 0.44 0.43 81.2 0 1 188.93 606.14
  L 195.75 605.99
  L 211.22 606.01
  A 2.80 2.80 0.0 0 0 213.20 605.19
  L 218.41 599.97
  A 0.56 0.55 -44.6 0 1 219.20 599.97
  L 224.09 604.81
  A 4.01 4.01 0.0 0 0 226.90 605.96
  L 247.77 605.98
  A 2.27 2.27 0.0 0 0 249.35 605.34
  L 264.37 590.63
  Q 264.77 590.25 264.77 589.70
  L 264.81 539.96
  L 264.90 534.09
  A 1.69 1.68 87.9 0 1 266.44 532.43
  Q 267.30 532.36 268.73 532.60
  Q 270.27 532.85 270.64 534.72
  Z"
/>
<path fill="#06578f" d="
  M 307.37 551.45
  L 307.13 555.47
  Q 307.09 556.11 306.53 555.80
  Q 306.33 555.69 306.23 555.46
  A 0.67 0.66 -40.6 0 0 305.05 555.37
  Q 299.33 564.74 298.49 574.27
  C 298.29 576.47 298.80 578.66 298.61 580.90
  Q 298.50 582.29 298.79 584.08
  Q 299.16 586.30 298.16 587.35
  Q 293.79 587.11 290.86 583.05
  Q 289.72 581.47 289.72 579.74
  Q 289.77 560.10 289.73 539.84
  C 289.72 537.35 291.80 535.81 293.45 534.18
  C 295.45 532.20 298.16 532.80 300.73 532.80
  C 303.00 532.79 305.68 536.18 307.00 537.75
  A 1.52 1.51 -65.1 0 1 307.35 538.72
  L 307.37 551.45
  Z"
/>
<path fill="#06578f" d="
  M 351.33 533.37
  A 0.42 0.42 0.0 0 1 351.75 532.95
  L 360.23 532.95
  A 8.68 8.66 0.0 0 1 368.91 541.61
  L 368.91 542.37
  A 8.68 8.66 0.0 0 1 360.23 551.03
  L 351.75 551.03
  A 0.42 0.42 0.0 0 1 351.33 550.61
  L 351.33 533.37
  Z"
/>
<path fill="#06578f" d="
  M 430.23 552.53
  Q 430.28 554.27 429.78 554.61
  Q 429.37 554.88 429.39 554.40
  Q 429.44 553.04 429.25 552.03
  Q 429.11 551.33 428.68 551.90
  Q 428.40 552.26 427.97 552.26
  Q 427.54 552.25 427.29 552.61
  Q 426.28 554.07 425.48 555.55
  Q 425.34 555.81 425.06 555.92
  Q 424.68 556.08 424.50 556.45
  Q 422.74 560.09 421.41 563.09
  Q 420.25 565.73 419.65 571.01
  Q 419.60 571.44 419.40 571.83
  Q 419.16 572.26 419.14 572.75
  Q 418.75 580.58 420.80 587.94
  L 413.36 587.92
  Q 412.76 587.92 412.76 587.32
  L 412.73 533.51
  A 0.51 0.51 0.0 0 1 413.24 533.00
  L 424.06 533.00
  Q 424.90 533.00 425.50 533.59
  L 429.95 538.00
  Q 430.34 538.39 430.34 538.95
  L 430.23 552.53
  Z"
/>
<path fill="#06578f" d="
  M 393.66 541.19
  L 393.66 605.31
  A 0.70 0.70 0.0 0 0 394.36 606.01
  L 433.59 605.76
  Q 436.25 604.33 437.40 602.83
  Q 437.71 602.43 438.16 602.23
  Q 439.33 601.69 440.20 600.76
  Q 440.51 600.43 440.96 600.41
  Q 442.13 600.33 443.42 599.66
  Q 443.91 599.40 444.18 598.92
  Q 444.74 597.91 445.93 598.28
  Q 446.39 598.42 446.26 598.88
  Q 445.72 600.77 445.95 602.76
  Q 446.01 603.23 446.38 603.53
  Q 446.98 604.02 446.47 604.60
  Q 446.14 604.97 445.92 605.40
  Q 444.60 607.89 443.07 609.85
  A 1.60 1.55 -77.4 0 1 442.20 610.42
  Q 440.99 610.73 440.18 611.72
  Q 438.31 613.99 435.52 615.79
  Q 434.96 616.15 434.31 616.04
  Q 433.73 615.93 433.19 616.12
  Q 431.95 616.57 430.63 616.47
  Q 422.80 615.85 417.11 615.75
  Q 414.30 615.70 410.49 616.53
  Q 408.76 616.91 407.06 616.88
  Q 405.49 616.85 403.91 616.90
  Q 403.22 616.92 402.69 616.46
  Q 402.10 615.94 401.30 616.11
  Q 399.99 616.38 398.90 615.57
  Q 398.26 615.10 397.40 614.95
  Q 395.75 614.67 394.15 614.86
  Q 393.74 614.91 393.33 614.85
  Q 392.78 614.77 392.45 615.22
  A 0.86 0.84 -77.9 0 1 391.95 615.55
  Q 389.01 616.24 387.69 613.90
  Q 387.47 613.49 387.05 613.28
  Q 385.53 612.52 386.00 610.81
  A 1.83 1.80 89.5 0 1 387.21 609.56
  Q 389.18 608.95 390.21 607.28
  Q 390.53 606.77 389.97 606.55
  Q 389.60 606.40 389.52 606.01
  Q 389.44 605.62 389.04 605.57
  Q 388.73 605.53 388.53 605.75
  Q 388.10 606.21 387.93 605.59
  L 387.79 605.03
  L 387.75 567.69
  A 2.64 2.61 -68.3 0 0 386.95 565.80
  L 381.36 560.41
  A 0.54 0.54 0.0 0 1 381.36 559.63
  L 387.19 553.99
  A 2.01 2.00 -22.3 0 0 387.79 552.56
  L 387.75 539.72
  Q 391.14 538.56 393.66 541.19
  Z"
/>
<path fill="#0665a5" d="
  M 202.30 620.03
  Q 208.68 624.22 215.50 622.63
  Q 217.89 622.07 220.58 621.77
  Q 222.65 621.53 224.61 622.15
  Q 227.03 622.92 229.44 622.54
  Q 235.11 621.64 241.48 621.89
  Q 243.45 621.97 245.38 621.63
  Q 247.35 621.29 249.32 620.70
  Q 251.31 620.11 253.08 619.92
  Q 254.96 619.71 257.14 618.78
  Q 265.25 615.31 272.02 611.05
  A 1.33 1.30 32.7 0 1 272.94 610.86
  Q 273.08 610.88 273.23 610.89
  Q 273.37 610.89 273.47 610.81
  Q 276.77 608.27 280.75 610.26
  Q 284.49 612.14 288.23 615.26
  Q 288.68 615.63 289.24 615.78
  Q 289.49 615.85 289.74 615.90
  A 1.79 1.74 70.5 0 1 290.59 616.32
  Q 292.05 617.67 294.07 617.64
  A 0.03 0.03 0.0 0 0 294.08 617.58
  L 290.87 616.34
  A 0.76 0.76 0.0 0 1 290.38 615.54
  Q 290.44 614.92 289.89 614.90
  Q 289.32 614.89 289.28 614.31
  Q 289.26 614.04 289.01 613.91
  Q 288.54 613.67 289.06 613.71
  Q 290.22 613.82 290.42 614.80
  Q 290.53 615.37 291.10 615.47
  Q 291.62 615.56 291.85 616.01
  Q 292.02 616.36 292.40 616.45
  Q 294.28 616.90 296.25 617.05
  Q 298.58 617.23 300.57 617.95
  Q 302.51 618.65 304.46 618.48
  Q 313.09 617.70 320.94 617.19
  Q 321.46 617.15 321.96 617.31
  C 323.28 617.73 324.43 616.74 325.34 616.40
  C 326.32 616.03 327.06 615.39 328.12 615.26
  Q 330.01 615.05 331.71 614.48
  Q 332.22 614.31 332.74 614.47
  Q 335.17 615.23 337.78 614.76
  Q 339.02 614.53 340.38 614.40
  Q 341.92 614.24 343.05 613.64
  Q 344.81 612.70 346.71 612.15
  Q 348.46 611.65 350.12 611.90
  C 353.47 612.40 355.54 608.51 356.00 605.87
  Q 356.08 605.37 356.43 605.00
  Q 356.99 604.41 357.06 603.62
  Q 357.11 603.12 357.33 602.67
  L 361.83 593.55
  A 1.29 1.29 0.0 0 1 362.23 593.07
  Q 363.03 592.46 363.26 591.49
  Q 363.38 590.98 363.74 590.60
  L 366.86 587.34
  Q 367.26 586.91 367.63 587.37
  Q 367.79 587.57 368.08 587.25
  Q 368.30 587.02 368.44 586.74
  L 368.81 586.01
  L 368.68 604.75
  A 1.09 1.08 1.7 0 0 369.72 605.84
  Q 378.26 606.24 386.99 605.89
  Q 387.98 605.85 387.79 605.03
  L 387.93 605.59
  Q 388.10 606.21 388.53 605.75
  Q 388.73 605.53 389.04 605.57
  Q 389.44 605.62 389.52 606.01
  Q 389.60 606.40 389.97 606.55
  Q 390.53 606.77 390.21 607.28
  Q 389.18 608.95 387.21 609.56
  A 1.83 1.80 89.5 0 0 386.00 610.81
  Q 385.53 612.52 387.05 613.28
  Q 387.47 613.49 387.69 613.90
  Q 389.01 616.24 391.95 615.55
  A 0.86 0.84 -77.9 0 0 392.45 615.22
  Q 392.78 614.77 393.33 614.85
  Q 393.74 614.91 394.15 614.86
  Q 395.75 614.67 397.40 614.95
  Q 398.26 615.10 398.90 615.57
  Q 399.99 616.38 401.30 616.11
  Q 402.10 615.94 402.69 616.46
  Q 403.22 616.92 403.91 616.90
  Q 405.49 616.85 407.06 616.88
  Q 408.76 616.91 410.49 616.53
  Q 414.30 615.70 417.11 615.75
  Q 422.80 615.85 430.63 616.47
  Q 431.95 616.57 433.19 616.12
  Q 433.73 615.93 434.31 616.04
  Q 434.96 616.15 435.52 615.79
  Q 438.31 613.99 440.18 611.72
  Q 440.99 610.73 442.20 610.42
  A 1.60 1.55 -77.4 0 0 443.07 609.85
  Q 444.60 607.89 445.92 605.40
  Q 446.14 604.97 446.47 604.60
  Q 446.98 604.02 446.38 603.53
  Q 446.01 603.23 445.95 602.76
  Q 445.72 600.77 446.26 598.88
  Q 446.39 598.42 445.93 598.28
  Q 444.74 597.91 444.18 598.92
  Q 443.91 599.40 443.42 599.66
  Q 442.13 600.33 440.96 600.41
  Q 440.51 600.43 440.20 600.76
  Q 439.33 601.69 438.16 602.23
  Q 437.71 602.43 437.40 602.83
  Q 436.25 604.33 433.59 605.76
  L 448.44 591.09
  A 3.01 2.99 -22.6 0 0 449.32 588.97
  L 449.33 544.21
  L 449.44 540.63
  A 0.98 0.97 -69.5 0 1 451.03 539.90
  Q 454.24 542.52 456.01 546.24
  Q 457.34 549.04 458.83 551.62
  C 459.57 552.91 459.45 554.53 459.82 555.94
  Q 460.17 557.23 460.09 558.69
  C 460.00 560.20 460.61 561.35 460.65 562.77
  Q 461.05 580.96 460.75 592.94
  Q 460.63 597.88 458.07 606.36
  Q 457.75 607.41 457.02 608.31
  C 456.28 609.22 456.49 610.34 456.00 611.34
  Q 454.63 614.12 453.11 616.33
  Q 452.17 617.70 450.66 618.54
  Q 449.37 619.25 448.22 620.07
  Q 446.94 620.97 445.32 621.49
  Q 442.25 622.46 439.44 623.52
  Q 436.44 624.66 432.79 624.61
  Q 422.58 624.47 411.97 622.93
  Q 410.03 622.64 408.10 622.77
  C 406.55 622.87 404.38 622.73 403.07 621.88
  Q 401.05 620.59 398.68 619.25
  Q 396.99 618.29 395.23 618.35
  Q 393.02 618.42 390.66 618.14
  Q 389.74 618.03 388.90 617.64
  Q 388.29 617.36 387.56 617.39
  Q 386.97 617.42 386.53 617.03
  L 383.36 614.10
  A 1.98 1.98 0.0 0 0 380.97 613.88
  Q 379.16 615.02 377.07 614.88
  Q 376.11 614.82 375.17 614.41
  Q 372.63 613.29 368.76 613.47
  Q 368.25 613.49 367.85 613.80
  Q 365.92 615.30 364.01 616.74
  Q 361.22 618.84 357.93 619.88
  C 356.72 620.26 355.60 619.90 354.53 620.44
  A 1.49 1.42 34.4 0 1 353.65 620.58
  Q 351.19 620.20 349.10 618.79
  Q 348.78 618.57 348.38 618.63
  Q 346.89 618.86 345.67 618.29
  Q 344.28 617.64 342.66 617.41
  Q 336.40 616.52 331.40 617.93
  Q 327.75 618.97 323.97 619.54
  Q 323.49 619.61 323.21 620.01
  Q 322.44 621.07 321.15 621.26
  Q 319.91 621.44 318.79 621.91
  Q 317.71 622.36 316.61 622.65
  Q 309.59 624.52 301.39 622.88
  Q 299.29 622.46 297.46 621.08
  Q 293.84 618.34 289.44 616.71
  C 287.00 615.81 285.71 613.73 282.91 613.63
  Q 280.98 613.56 278.95 613.42
  Q 276.84 613.28 275.11 613.89
  Q 271.31 615.23 267.94 617.57
  Q 267.53 617.85 267.04 617.94
  Q 266.39 618.05 266.03 618.61
  Q 265.75 619.03 265.30 619.26
  Q 263.28 620.24 261.30 621.32
  Q 259.87 622.10 257.98 622.17
  Q 257.53 622.18 257.28 622.55
  Q 257.03 622.93 256.57 623.02
  Q 245.06 625.23 233.72 623.87
  Q 228.86 623.29 222.46 625.19
  Q 220.41 625.79 218.55 625.58
  C 215.62 625.24 213.16 626.22 210.30 624.93
  Q 208.06 623.93 206.13 622.66
  Q 206.02 622.58 204.21 621.70
  Q 203.15 621.19 202.30 620.03
  Z"
/>
<path fill="#0665a5" d="
  M 307.37 551.45
  Q 307.45 565.49 307.38 579.50
  C 307.37 580.65 307.37 581.90 306.59 582.84
  C 305.10 584.64 303.43 586.89 300.91 587.13
  Q 299.55 587.27 298.16 587.35
  Q 299.16 586.30 298.79 584.08
  Q 298.50 582.29 298.61 580.90
  C 298.80 578.66 298.29 576.47 298.49 574.27
  Q 299.33 564.74 305.05 555.37
  A 0.67 0.66 -40.6 0 1 306.23 555.46
  Q 306.33 555.69 306.53 555.80
  Q 307.09 556.11 307.13 555.47
  L 307.37 551.45
  Z"
/>
<path fill="#0665a5" d="
  M 430.23 552.53
  Q 430.30 566.90 430.19 581.25
  C 430.18 583.48 426.87 586.10 425.35 587.54
  Q 424.97 587.89 424.46 587.90
  L 420.80 587.94
  Q 418.75 580.58 419.14 572.75
  Q 419.16 572.26 419.40 571.83
  Q 419.60 571.44 419.65 571.01
  Q 420.25 565.73 421.41 563.09
  Q 422.74 560.09 424.50 556.45
  Q 424.68 556.08 425.06 555.92
  Q 425.34 555.81 425.48 555.55
  Q 426.28 554.07 427.29 552.61
  Q 427.54 552.25 427.97 552.26
  Q 428.40 552.26 428.68 551.90
  Q 429.11 551.33 429.25 552.03
  Q 429.44 553.04 429.39 554.40
  Q 429.37 554.88 429.78 554.61
  Q 430.28 554.27 430.23 552.53
  Z"
/>
<path fill="#0665a5" d="
  M 180.60 597.98
  Q 183.03 600.39 185.54 602.78
  Q 188.08 605.21 190.09 605.77
  Q 192.65 606.47 195.75 605.99
  L 188.93 606.14
  A 0.44 0.43 81.2 0 0 188.53 606.70
  Q 188.69 607.21 189.08 607.16
  Q 189.61 607.11 189.16 607.39
  Q 187.49 608.45 188.77 610.10
  Q 189.98 611.67 190.40 613.42
  Q 190.57 614.17 191.15 614.73
  Q 191.69 615.25 192.41 615.14
  Q 193.00 615.06 193.45 615.43
  Q 194.50 616.31 195.38 617.15
  C 196.59 618.29 199.46 618.80 201.02 619.23
  A 0.32 0.31 6.3 0 1 201.26 619.52
  Q 201.26 619.63 201.26 619.78
  L 191.65 616.85
  A 3.04 3.03 -89.1 0 1 189.61 614.74
  Q 189.08 612.74 187.83 610.86
  Q 187.52 610.39 186.99 610.21
  Q 185.06 609.56 183.25 608.17
  Q 182.71 607.76 182.64 607.08
  Q 182.54 606.14 181.77 605.65
  A 1.57 1.54 -81.8 0 1 181.11 604.75
  Q 180.69 603.18 179.58 602.07
  A 1.89 1.88 -61.6 0 1 179.07 600.35
  Q 179.49 598.38 180.60 597.98
  Z"
/>
</svg>
