<?xml version="1.0" encoding="UTF-8" standalone="no"?>
<!DOCTYPE svg PUBLIC "-//W3C//DTD SVG 1.1//EN" "http://www.w3.org/Graphics/SVG/1.1/DTD/svg11.dtd">
<svg xmlns="http://www.w3.org/2000/svg" version="1.1" viewBox="0.00 0.00 612.00 1080.00">
<g stroke-width="2.00" fill="none" stroke-linecap="butt">
<path stroke="#b22255" vector-effect="non-scaling-stroke" d="
  M 240.17 466.26
  Q 239.42 465.92 239.31 466.02
  A 1.97 1.70 56.1 0 0 239.02 468.41
  Q 240.80 471.47 241.23 474.49
  Q 241.59 477.04 242.45 479.40
  Q 243.35 481.86 244.44 484.38
  Q 244.51 484.53 244.67 484.50
  Q 244.72 484.49 244.76 484.47
  Q 244.86 484.43 244.91 484.54
  C 247.41 490.01 250.78 494.50 254.32 499.15
  C 254.95 499.97 256.01 500.57 256.90 501.07
  Q 257.30 501.30 257.37 501.75
  Q 257.45 502.30 258.07 502.29
  Q 262.51 506.28 268.08 508.79
  Q 269.86 509.59 271.75 509.65
  Q 273.71 509.72 275.75 510.34
  Q 276.94 510.70 282.41 510.02
  Q 282.46 510.02 282.49 509.97
  Q 282.55 509.87 282.53 509.73
  Q 282.52 509.67 282.58 509.67
  Q 284.40 509.60 286.13 509.20
  Q 291.89 507.83 297.23 505.87
  Q 297.96 505.60 298.73 505.50
  C 300.08 505.32 301.30 504.80 302.69 504.85
  Q 304.75 504.92 306.99 504.91
  Q 309.08 504.91 311.21 505.41
  Q 316.02 506.55 320.76 507.16
  Q 321.22 507.22 321.64 507.05
  Q 322.44 506.73 323.26 506.77
  Q 327.51 506.99 331.60 504.47
  Q 335.30 502.19 337.61 499.60
  Q 339.38 497.61 341.26 495.53
  Q 342.10 494.60 342.93 493.65
  Q 344.95 491.33 347.73 493.22
  Q 351.06 495.50 353.89 499.34
  Q 355.93 502.10 358.49 503.54
  Q 362.65 505.88 366.46 506.02
  Q 368.83 506.10 373.12 504.47
  Q 374.07 504.10 374.86 503.59
  Q 375.40 503.24 376.07 503.31
  Q 376.44 503.34 376.71 503.08
  Q 378.79 501.09 380.45 498.81
  Q 382.62 495.84 383.75 491.13
  Q 384.92 486.33 385.24 481.96
  Q 386.16 469.51 385.82 452.02
  Q 385.80 450.79 386.05 449.55
  Q 386.33 448.22 386.46 446.90
  A 14.25 13.61 58.5 0 1 387.12 443.85
  Q 388.33 440.24 390.49 437.14
  Q 391.28 436.02 391.81 434.94
  Q 392.52 433.49 393.54 432.23
  Q 395.52 429.81 396.83 424.94
  A 0.07 0.07 0.0 0 1 396.97 424.95
  Q 396.99 425.08 396.99 425.22
  Q 397.00 426.05 397.24 425.25
  Q 397.97 422.87 398.18 420.01
  Q 398.50 415.68 396.95 412.67
  C 396.23 411.28 394.81 410.50 393.84 409.03
  Q 392.67 407.26 390.28 407.28
  C 389.19 407.29 388.17 407.20 387.15 406.70
  A 0.54 0.54 0.0 0 0 386.45 406.90
  Q 386.19 407.34 385.86 406.94
  Q 385.32 406.26 384.82 406.95
  Q 384.71 407.10 384.45 407.10
  Q 384.01 407.08 383.90 406.66
  Q 383.85 406.50 383.87 406.35
  Q 383.96 405.60 383.29 405.94
  Q 381.77 406.70 381.83 406.14"
/>
<path stroke="#e192ae" vector-effect="non-scaling-stroke" d="
  M 381.83 406.14
  L 381.63 391.93
  A 0.93 0.93 0.0 0 0 380.70 391.02
  L 326.74 391.01
  A 0.53 0.53 0.0 0 0 326.21 391.54
  L 326.38 409.04"
/>
<path stroke="#991e49" vector-effect="non-scaling-stroke" d="
  M 326.38 409.04
  Q 324.45 410.10 321.69 410.03
  Q 321.18 410.01 320.84 410.39
  Q 320.50 410.76 320.33 411.23"
/>
<path stroke="#e192ae" vector-effect="non-scaling-stroke" d="
  M 320.33 411.23
  L 320.35 390.41
  A 0.40 0.40 0.0 0 0 319.95 390.01
  L 301.56 390.02
  A 0.39 0.39 0.0 0 0 301.17 390.41
  L 301.21 407.16"
/>
<path stroke="#991e49" vector-effect="non-scaling-stroke" d="
  M 301.21 407.16
  Q 297.38 406.38 295.49 408.81"
/>
<path stroke="#e192ae" vector-effect="non-scaling-stroke" d="
  M 295.49 408.81
  L 295.24 406.59
  Q 295.19 406.07 294.82 405.70
  L 280.03 390.78
  A 2.63 2.63 0.0 0 0 278.17 390.01
  L 256.56 390.02
  A 2.15 2.12 -67.5 0 0 255.04 390.66
  L 240.30 405.60
  A 2.21 2.17 -23.3 0 0 239.68 407.12
  L 240.17 466.26"
/>
<path stroke="#b88b9a" vector-effect="non-scaling-stroke" d="
  M 295.49 408.81
  L 295.38 420.40
  Q 295.37 421.00 294.78 421.00
  L 277.02 421.00
  A 0.60 0.60 0.0 0 1 276.42 420.39
  L 276.45 414.70
  Q 276.46 414.07 276.00 413.63
  L 271.43 409.19
  Q 270.98 408.76 270.36 408.77
  L 264.68 408.83
  A 1.66 1.66 0.0 0 0 263.56 409.29
  L 259.27 413.50
  Q 258.74 414.03 258.74 414.77
  L 258.75 457.20
  A 1.65 1.61 -67.7 0 0 259.21 458.34
  L 263.32 462.58
  Q 263.75 463.02 264.36 463.08
  C 266.99 463.34 270.65 463.91 272.77 461.66
  Q 274.32 460.01 275.94 458.30
  A 1.58 1.55 67.2 0 0 276.37 457.22
  L 276.39 445.70
  Q 276.39 445.00 275.70 445.00
  L 265.95 444.99
  A 0.54 0.54 0.0 0 1 265.41 444.45
  L 265.41 427.67
  Q 265.41 427.00 266.08 427.00
  L 294.75 427.00
  Q 295.38 427.00 295.38 427.63
  L 295.30 465.25
  A 1.30 1.28 -22.9 0 1 294.92 466.16
  L 280.14 481.13
  Q 279.29 481.99 278.08 481.99
  Q 268.26 482.01 257.37 482.00
  C 254.94 482.00 253.06 479.20 251.08 477.23"
/>
<path stroke="#d18fa6" vector-effect="non-scaling-stroke" d="
  M 251.08 477.23
  L 240.17 466.26"
/>
<path stroke="#891b41" vector-effect="non-scaling-stroke" d="
  M 251.08 477.23
  L 250.25 477.47
  Q 249.78 477.61 250.03 478.03
  Q 252.12 481.57 253.89 484.73
  Q 254.44 485.71 255.19 486.28
  Q 256.01 486.90 256.96 487.37
  A 1.40 1.39 2.0 0 1 257.62 488.07
  Q 258.77 490.88 261.24 492.35
  Q 262.19 492.92 262.95 493.69
  Q 263.67 494.42 264.51 495.01
  Q 274.78 502.18 287.32 498.86
  Q 289.16 498.37 291.01 497.60
  Q 292.62 496.94 294.48 495.82
  Q 296.75 494.45 299.40 493.68
  Q 299.63 493.61 299.70 493.38
  Q 299.74 493.23 299.90 493.18
  Q 302.76 492.30 305.54 492.14
  Q 308.04 491.99 311.22 492.80
  Q 317.39 494.39 323.50 495.34
  Q 324.64 495.52 325.40 494.70
  Q 325.70 494.39 326.07 494.16
  Q 329.03 492.34 330.15 488.60
  Q 331.96 482.57 332.14 477.38
  Q 332.15 476.91 332.40 476.49
  Q 332.63 476.10 332.63 475.65
  Q 332.65 465.27 332.62 454.74
  Q 332.61 450.79 333.01 446.77
  Q 333.41 442.79 333.61 438.76
  Q 333.62 438.36 334.05 438.28
  A 0.68 0.68 0.0 0 0 334.59 437.73
  Q 335.26 434.12 338.71 430.95
  Q 340.32 429.46 342.05 428.92
  Q 342.52 428.78 342.86 429.12
  L 343.39 429.65
  Q 343.92 430.17 344.11 429.46
  L 344.39 428.45"
/>
<path stroke="#891b41" vector-effect="non-scaling-stroke" d="
  M 351.29 482.04
  Q 351.31 482.34 350.91 482.39
  Q 350.34 482.45 350.73 482.87
  Q 350.97 483.12 351.34 483.11
  A 0.55 0.54 65.0 0 1 351.74 483.26
  Q 352.15 483.65 351.94 483.83
  Q 351.57 484.14 351.85 484.54
  Q 354.24 487.97 355.58 491.67
  Q 356.02 492.91 356.97 493.77
  Q 358.19 494.88 359.10 496.32
  Q 360.02 497.78 361.57 498.55
  Q 366.17 500.85 370.00 498.95
  Q 373.03 497.46 374.95 493.50
  Q 376.95 489.36 377.70 485.73
  Q 378.44 482.11 378.51 478.07
  Q 378.77 464.45 379.05 451.04
  Q 379.10 448.83 379.51 446.50
  Q 379.91 444.23 380.43 442.09
  Q 381.25 438.70 383.60 435.30
  Q 383.81 434.99 384.14 434.79
  Q 384.56 434.54 384.53 434.03
  A 0.77 0.74 62.0 0 1 384.67 433.53
  Q 386.73 430.66 388.65 427.77
  Q 389.16 427.00 389.55 426.10
  Q 389.91 425.26 390.30 424.44
  Q 391.09 422.76 392.14 417.92
  C 392.49 416.30 392.14 414.87 391.93 413.28
  Q 391.81 412.39 391.32 411.60
  Q 390.77 410.72 389.75 410.37
  Q 388.74 410.02 387.73 409.68
  Q 386.74 409.36 385.60 409.38
  Q 383.60 409.43 381.83 408.84"
/>
<path stroke="#d18fa6" vector-effect="non-scaling-stroke" d="
  M 381.83 406.14
  L 381.83 408.84"
/>
<path stroke="#b88b9a" vector-effect="non-scaling-stroke" d="
  M 381.83 408.84
  L 363.97 409.07
  Q 363.50 409.07 363.50 409.55
  L 363.50 481.46
  Q 363.50 482.00 362.97 482.00
  L 351.29 482.04"
/>
<path stroke="#d18fa6" vector-effect="non-scaling-stroke" d="
  M 351.29 482.04
  L 344.74 481.97
  A 0.36 0.35 90.0 0 1 344.39 481.61
  L 344.39 428.45"
/>
<path stroke="#b88b9a" vector-effect="non-scaling-stroke" d="
  M 344.39 428.45
  L 344.21 409.57
  Q 344.21 409.07 343.70 409.07
  L 326.38 409.04"
/>
<path stroke="#b88b9a" vector-effect="non-scaling-stroke" d="
  M 320.33 411.23
  L 320.35 481.14
  A 0.86 0.85 -0.0 0 1 319.49 481.99
  L 301.77 482.00
  A 0.53 0.53 0.0 0 1 301.24 481.47
  L 301.21 407.16"
/>
<path stroke="#991e49" vector-effect="non-scaling-stroke" d="
  M 148.65 569.11
  Q 147.98 570.72 149.06 573.26
  Q 149.11 573.39 149.01 573.49
  L 148.73 573.78
  Q 148.21 574.30 148.92 574.44
  L 151.48 574.97"
/>
<path stroke="#e192ae" vector-effect="non-scaling-stroke" d="
  M 151.48 574.97
  L 133.25 575.03
  Q 132.75 575.04 132.72 575.53
  Q 132.18 584.03 133.42 590.86"
/>
<path stroke="#b22255" vector-effect="non-scaling-stroke" d="
  M 133.42 590.86
  Q 134.21 590.90 133.35 591.51
  Q 132.88 591.84 133.19 592.33
  L 136.42 597.31
  A 1.28 1.25 -57.4 0 1 136.61 598.21
  Q 136.51 598.82 136.74 599.37
  Q 137.42 601.00 137.50 602.77
  Q 137.56 604.14 138.14 605.45
  Q 141.07 611.95 145.57 616.91
  Q 146.56 618.00 147.77 619.08
  Q 149.57 620.69 150.30 622.91
  A 2.80 2.78 5.0 0 0 151.66 624.52
  Q 153.84 625.66 155.47 627.41
  Q 156.37 628.37 157.50 629.18
  Q 158.80 630.12 159.91 630.36
  Q 162.48 630.93 164.99 631.61
  Q 167.80 632.38 170.12 632.43
  Q 180.25 632.67 189.00 630.13
  Q 192.80 629.03 196.44 628.19
  Q 198.41 627.74 200.10 627.93
  Q 202.02 628.14 203.82 628.64
  Q 207.66 629.71 211.59 631.13
  Q 213.81 631.94 216.15 632.31
  Q 223.06 633.42 228.33 633.49
  Q 235.22 633.59 252.62 631.66
  Q 258.13 631.04 262.02 630.99
  Q 266.71 630.93 270.75 630.54
  Q 276.77 629.96 283.69 627.00
  Q 285.61 626.18 287.62 626.13
  Q 290.36 626.06 292.52 626.66
  Q 294.18 627.12 295.76 627.40
  Q 297.23 627.65 298.53 628.30
  Q 301.17 629.62 303.91 630.19
  Q 304.14 630.24 304.24 630.45
  Q 304.31 630.58 304.45 630.61
  Q 309.27 631.48 313.75 631.61
  Q 323.78 631.88 333.34 630.85
  Q 335.65 630.60 338.56 629.63
  Q 340.71 628.91 342.53 627.86
  Q 344.53 626.71 346.77 626.07
  Q 347.22 625.95 347.55 625.61
  Q 348.17 624.96 349.06 624.96
  Q 351.78 624.98 354.25 625.58
  Q 356.66 626.15 359.09 627.51
  Q 362.37 629.34 365.84 630.14
  Q 370.35 631.17 375.33 630.25
  A 28.03 19.88 -5.6 0 0 379.16 629.36
  Q 382.78 628.35 386.28 628.12
  Q 387.42 628.05 388.58 628.36
  C 390.50 628.88 392.48 629.10 394.37 629.66
  Q 401.03 631.63 407.50 632.34
  Q 415.50 633.22 421.65 631.78
  Q 426.43 630.67 431.95 629.31
  C 436.65 628.16 441.28 627.98 445.94 628.99
  Q 450.56 629.99 454.77 630.51
  Q 457.41 630.84 460.36 629.94
  Q 463.40 629.01 465.86 627.87
  Q 466.45 627.60 466.87 627.12
  Q 467.34 626.59 467.83 626.37
  Q 470.26 625.30 472.79 624.24
  Q 473.34 624.00 473.93 624.14
  Q 475.30 624.47 476.48 624.00
  Q 476.97 623.80 477.49 623.93
  Q 480.33 624.65 482.51 625.95
  Q 482.65 626.03 482.80 626.03
  Q 483.09 626.03 483.06 625.86
  Q 482.93 625.21 483.48 625.57
  Q 485.23 626.73 486.78 628.26
  Q 489.00 630.45 490.92 628.14
  A 0.86 0.85 28.2 0 1 491.82 627.87
  Q 492.31 628.00 492.68 627.66
  Q 493.00 627.36 493.43 627.21
  Q 494.08 626.97 494.80 626.89
  A 1.40 1.39 -71.0 0 0 495.68 626.46
  Q 496.40 625.71 497.49 625.67
  Q 498.01 625.65 498.43 625.35
  Q 499.94 624.27 500.92 623.04
  Q 502.64 620.90 503.97 618.02
  Q 504.65 616.56 504.84 614.98
  Q 505.02 613.46 505.21 611.86
  Q 505.48 609.57 506.13 607.24
  Q 506.67 605.30 506.98 603.42
  Q 507.29 601.57 507.80 599.61
  Q 508.63 596.36 508.63 592.86
  Q 508.61 577.84 508.62 562.46
  Q 508.63 551.20 506.37 541.10
  Q 505.90 539.00 503.50 535.12
  Q 502.51 533.52 501.74 531.89
  Q 500.91 530.13 499.15 528.83
  Q 496.01 526.50 492.91 525.50
  Q 492.44 525.35 492.08 525.01
  Q 491.61 524.57 491.03 524.40
  Q 490.61 524.28 490.40 524.66
  Q 490.25 524.94 489.99 524.72
  Q 489.55 524.35 489.42 524.91
  L 489.30 525.47"
/>
<path stroke="#e192ae" vector-effect="non-scaling-stroke" d="
  M 489.30 525.47
  L 489.24 514.56
  Q 489.23 514.01 488.69 514.01
  L 470.59 514.02
  A 0.44 0.44 0.0 0 0 470.15 514.46
  L 470.21 526.46"
/>
<path stroke="#b22255" vector-effect="non-scaling-stroke" d="
  M 470.21 526.46
  Q 469.95 526.90 469.90 527.37
  Q 469.80 528.30 469.37 527.46
  Q 469.08 526.88 468.44 526.73
  Q 466.96 526.39 465.47 525.56
  Q 463.81 524.64 462.21 524.19
  Q 459.36 523.40 456.63 522.34
  Q 455.96 522.08 455.27 522.25
  L 453.25 522.76
  Q 452.81 522.87 452.77 523.33
  L 452.63 525.04"
/>
<path stroke="#e192ae" vector-effect="non-scaling-stroke" d="
  M 452.63 525.04
  L 452.64 514.41
  A 0.41 0.41 0.0 0 0 452.23 514.00
  L 433.78 514.01
  A 0.31 0.31 0.0 0 0 433.47 514.32
  L 433.46 535.96"
/>
<path stroke="#991e49" vector-effect="non-scaling-stroke" d="
  M 433.46 535.96
  C 432.29 533.08 429.73 534.02 427.65 535.46"
/>
<path stroke="#e192ae" vector-effect="non-scaling-stroke" d="
  M 427.65 535.46
  L 427.46 530.36
  Q 427.44 529.84 427.07 529.46
  L 412.71 515.04
  Q 411.72 514.05 410.32 514.04
  Q 400.85 513.97 389.73 514.04
  Q 388.12 514.04 387.04 515.04
  Q 379.05 522.43 371.93 531.03"
/>
<path stroke="#991e49" vector-effect="non-scaling-stroke" d="
  M 371.93 531.03
  Q 371.10 533.35 367.42 531.33
  Q 366.96 531.08 366.86 531.59
  L 366.27 534.50"
/>
<path stroke="#e192ae" vector-effect="non-scaling-stroke" d="
  M 366.27 534.50
  C 366.45 532.65 366.36 530.81 364.95 529.46
  Q 358.21 522.98 350.89 515.75
  A 2.83 2.81 -22.7 0 0 348.92 514.95
  L 311.57 515.08
  A 1.11 1.11 0.0 0 0 310.46 516.18
  L 310.36 533.02"
/>
<path stroke="#991e49" vector-effect="non-scaling-stroke" d="
  M 310.36 533.02
  Q 306.64 530.14 304.75 534.56"
/>
<path stroke="#e192ae" vector-effect="non-scaling-stroke" d="
  M 304.75 534.56
  C 304.69 532.81 305.10 530.58 303.78 529.27
  Q 296.27 521.87 289.84 515.16
  A 3.66 3.65 67.9 0 0 287.21 514.04
  L 266.54 514.02
  Q 265.10 514.01 264.09 515.04
  L 250.00 529.29"
/>
<path stroke="#991e49" vector-effect="non-scaling-stroke" d="
  M 250.00 529.29
  Q 247.33 527.06 244.05 526.23
  Q 243.58 526.11 243.60 526.60
  Q 243.62 527.29 243.36 527.80"
/>
<path stroke="#e192ae" vector-effect="non-scaling-stroke" d="
  M 243.36 527.80
  L 243.37 515.64
  Q 243.37 514.99 242.72 514.99
  L 194.76 515.02
  A 0.50 0.50 0.0 0 0 194.26 515.52
  L 194.22 541.71"
/>
<path stroke="#991e49" vector-effect="non-scaling-stroke" d="
  M 194.22 541.71
  L 193.50 531.37
  Q 193.47 530.86 193.12 531.23
  Q 192.37 532.03 191.49 531.92
  Q 189.17 531.62 188.33 533.32"
/>
<path stroke="#e192ae" vector-effect="non-scaling-stroke" d="
  M 188.33 533.32
  C 188.48 531.73 188.44 530.25 187.27 529.08
  Q 180.02 521.84 173.37 515.02
  A 3.31 3.29 -21.9 0 0 171.00 514.02
  L 149.74 514.01
  A 2.22 2.21 22.2 0 0 148.16 514.67
  L 133.35 529.52
  A 2.32 2.32 0.0 0 0 132.67 531.16
  L 132.69 552.01
  A 2.59 2.56 -67.8 0 0 133.44 553.83
  L 148.65 569.11"
/>
<path stroke="#b88b9a" vector-effect="non-scaling-stroke" d="
  M 188.33 533.32
  L 188.31 544.17
  Q 188.31 544.95 187.54 544.95
  L 170.23 544.96
  Q 169.50 544.96 169.49 544.23
  L 169.40 538.51
  A 1.19 1.18 22.2 0 0 169.04 537.66
  L 164.57 533.20
  Q 164.13 532.76 163.51 532.77
  L 157.42 532.81
  A 1.44 1.42 -67.3 0 0 156.41 533.23
  L 152.27 537.40
  Q 151.74 537.94 151.74 538.68
  L 151.74 544.75
  Q 151.74 545.27 152.10 545.65
  L 156.45 550.19
  A 1.65 1.62 -21.3 0 0 157.64 550.70
  L 171.19 550.72
  A 2.75 2.70 66.9 0 1 173.10 551.51
  L 187.94 566.38
  A 1.99 1.94 23.3 0 1 188.52 567.79
  L 188.36 588.96
  A 2.12 2.11 -22.3 0 1 187.74 590.43
  L 173.01 605.29
  Q 172.33 605.98 171.35 605.98
  Q 160.62 606.02 149.74 605.98
  Q 148.52 605.98 146.77 604.01"
/>
<path stroke="#d18fa6" vector-effect="non-scaling-stroke" d="
  M 146.77 604.01
  L 133.42 590.86"
/>
<path stroke="#b88b9a" vector-effect="non-scaling-stroke" d="
  M 151.48 574.97
  L 151.80 581.55
  Q 151.83 582.17 152.27 582.61
  L 156.32 586.70
  A 1.74 1.70 66.9 0 0 157.57 587.22
  L 163.44 587.18
  A 1.73 1.71 22.2 0 0 164.62 586.69
  Q 166.11 585.22 167.82 583.65
  C 170.00 581.62 169.51 579.03 169.49 576.41
  C 169.46 573.84 166.44 571.51 164.70 570.04
  A 3.41 3.35 65.0 0 0 162.54 569.23
  L 148.65 569.11"
/>
<path stroke="#891b41" vector-effect="non-scaling-stroke" d="
  M 146.77 604.01
  Q 145.58 604.19 146.08 605.76
  Q 146.64 607.51 146.82 609.35
  Q 146.86 609.85 147.15 610.26
  Q 147.63 610.96 147.80 611.82
  Q 147.90 612.35 148.28 612.72
  Q 149.20 613.61 149.84 614.77
  C 150.74 616.38 152.00 617.72 153.25 619.08
  Q 154.19 620.11 155.44 620.82
  Q 162.18 624.64 166.49 625.34
  Q 174.25 626.61 184.43 624.03
  Q 186.38 623.54 188.02 622.60
  C 190.10 621.41 192.31 621.19 194.45 620.22
  Q 196.16 619.44 198.25 619.20
  Q 198.76 619.14 199.23 619.33
  Q 199.72 619.52 200.16 619.29
  A 0.92 0.90 -47.2 0 1 200.95 619.25
  C 202.16 619.77 203.29 619.89 204.48 620.51
  Q 214.72 625.87 223.25 626.50
  Q 232.80 627.19 246.49 625.67
  Q 247.51 625.56 248.50 625.32
  Q 257.27 623.17 265.89 623.36
  Q 267.62 623.40 269.59 622.97
  C 272.93 622.23 276.08 621.63 278.99 619.78
  Q 282.00 617.85 284.55 616.35
  Q 285.64 615.71 286.24 614.57
  Q 286.49 614.10 287.03 614.12
  L 292.66 614.41
  Q 293.18 614.44 293.48 614.87
  Q 294.84 616.81 297.02 616.97
  Q 297.49 617.01 297.82 617.34
  Q 299.22 618.79 300.61 620.25
  Q 301.23 620.89 302.11 621.18
  Q 303.17 621.52 304.19 622.00
  Q 305.48 622.61 306.89 622.80
  C 308.54 623.03 310.06 623.58 311.74 623.67
  Q 322.20 624.21 329.44 623.73
  Q 334.95 623.37 339.89 620.14
  Q 340.48 619.76 341.15 619.90
  A 0.72 0.71 -63.0 0 0 341.84 619.67
  C 342.80 618.57 344.43 617.13 345.92 616.78
  Q 346.90 616.55 347.33 615.62
  Q 347.51 615.23 347.93 615.13
  Q 349.44 614.77 350.05 615.83
  Q 350.25 616.18 350.66 616.22
  Q 352.25 616.40 353.88 617.03
  Q 354.28 617.18 354.11 616.79
  Q 354.05 616.64 354.29 616.53
  Q 354.60 616.38 354.84 616.62
  Q 355.60 617.39 356.63 617.13
  A 1.48 1.47 56.2 0 1 357.89 617.38
  Q 363.62 621.71 369.76 621.82
  Q 374.51 621.90 380.49 620.30
  C 381.47 620.04 382.57 620.37 383.35 619.89
  Q 383.79 619.62 384.30 619.72
  C 386.08 620.06 387.85 619.74 389.60 620.38
  Q 396.68 622.98 403.21 624.82
  Q 407.68 626.07 415.60 625.92
  Q 417.82 625.88 419.76 625.23
  Q 421.83 624.52 423.91 623.93
  Q 425.58 623.45 427.25 622.75
  Q 428.71 622.13 430.19 621.81
  Q 433.20 621.15 436.42 619.09
  Q 437.01 618.71 437.72 618.75
  C 439.32 618.83 440.62 618.25 442.18 619.00
  C 443.80 619.77 445.38 620.12 447.14 620.42
  Q 448.21 620.60 449.32 620.96
  Q 453.87 622.42 456.26 621.81
  Q 457.74 621.43 459.50 621.21
  Q 460.51 621.08 459.63 621.59
  Q 459.28 621.78 458.91 621.88
  Q 458.85 621.90 458.85 621.83
  Q 458.85 621.75 458.86 621.85
  Q 458.87 621.91 458.93 621.90
  Q 464.44 620.52 467.52 617.37
  Q 470.58 614.24 475.01 614.77
  Q 477.82 615.11 480.34 615.69
  Q 483.45 616.40 485.25 619.42
  Q 485.43 619.72 485.36 620.06
  A 0.91 0.90 -61.8 0 0 485.59 620.84
  Q 487.98 623.31 491.33 623.34
  Q 495.18 623.38 499.08 622.66
  Q 499.60 622.57 499.93 622.16
  Q 503.72 617.48 503.52 612.18
  Q 503.44 610.03 503.94 608.03
  Q 504.49 605.80 504.98 603.19
  Q 505.67 599.49 505.74 595.40
  Q 506.10 574.33 505.77 562.75
  Q 505.56 555.67 504.65 547.48
  Q 503.92 540.84 500.63 535.64
  Q 496.84 529.66 489.28 526.94"
/>
<path stroke="#891b41" vector-effect="non-scaling-stroke" d="
  M 426.69 591.44
  Q 427.55 592.20 429.64 591.28
  Q 431.36 590.53 433.49 591.92"
/>
<path stroke="#d18fa6" vector-effect="non-scaling-stroke" d="
  M 452.63 525.04
  L 452.63 540.04"
/>
<path stroke="#b88b9a" vector-effect="non-scaling-stroke" d="
  M 452.63 540.04
  L 452.77 552.43
  Q 452.77 552.95 453.30 552.95
  L 466.76 552.93"
/>
<path stroke="#d18fa6" vector-effect="non-scaling-stroke" d="
  M 466.76 552.93
  L 469.67 552.99
  Q 470.19 553.00 470.19 552.48
  L 470.21 526.46"
/>
<path stroke="#d18fa6" vector-effect="non-scaling-stroke" d="
  M 489.30 525.47
  Q 489.14 526.60 489.28 526.94"
/>
<path stroke="#b88b9a" vector-effect="non-scaling-stroke" d="
  M 489.28 526.94
  L 489.23 604.67
  A 1.25 1.25 0.0 0 1 487.98 605.92
  L 471.05 605.89
  A 0.84 0.84 0.0 0 1 470.21 605.05
  L 470.29 571.51
  Q 470.29 570.98 469.76 570.98
  L 453.17 570.99
  Q 452.58 570.99 452.58 571.58
  L 452.56 604.98
  A 1.04 1.04 0.0 0 1 451.52 606.01
  L 434.07 605.99
  Q 433.48 605.99 433.48 605.40
  L 433.49 591.92"
/>
<path stroke="#d18fa6" vector-effect="non-scaling-stroke" d="
  M 433.49 591.92
  L 433.48 566.71"
/>
<path stroke="#b88b9a" vector-effect="non-scaling-stroke" d="
  M 433.48 566.71
  L 433.46 535.96"
/>
<path stroke="#b88b9a" vector-effect="non-scaling-stroke" d="
  M 243.36 527.80
  L 243.28 532.49
  Q 243.28 533.01 242.76 533.01
  L 213.92 533.00
  Q 213.35 533.00 213.35 533.58
  L 213.30 550.53
  A 0.48 0.47 -0.0 0 0 213.78 551.00
  L 236.80 551.00
  Q 237.35 551.00 237.35 551.55
  L 237.33 568.46
  Q 237.33 569.00 236.79 569.00
  L 213.78 569.00
  Q 213.31 569.00 213.31 569.47
  L 213.32 587.78
  A 0.22 0.21 -90.0 0 0 213.53 588.00
  L 243.02 588.00
  A 0.51 0.51 0.0 0 1 243.53 588.52
  L 243.42 605.41
  A 0.59 0.58 -90.0 0 1 242.84 606.00
  L 194.80 606.00
  Q 194.30 606.00 194.30 605.49
  L 194.22 541.71"
/>
<path stroke="#b88b9a" vector-effect="non-scaling-stroke" d="
  M 427.65 535.46
  L 427.63 544.56
  A 0.43 0.42 90.0 0 1 427.21 544.99
  L 409.25 544.94
  A 0.68 0.67 -87.3 0 1 408.58 544.20
  Q 408.89 541.22 408.59 538.38
  A 1.82 1.78 -70.9 0 0 408.09 537.32
  Q 406.66 535.83 405.07 534.21
  C 402.98 532.08 399.36 532.69 396.78 532.92
  Q 396.08 532.98 395.56 533.46
  C 393.69 535.18 391.11 537.01 391.01 539.66
  Q 390.74 546.76 391.00 553.87
  Q 391.06 555.47 391.00 556.92
  C 390.69 565.28 391.11 573.74 391.19 581.75
  Q 391.20 582.33 391.60 582.73
  L 395.77 586.94
  Q 396.16 587.34 396.73 587.34
  L 402.93 587.35
  Q 403.52 587.35 403.94 586.96
  Q 406.12 584.92 408.21 582.66
  Q 408.42 582.43 408.49 582.13
  Q 408.56 581.83 408.57 581.52"
/>
<path stroke="#d18fa6" vector-effect="non-scaling-stroke" d="
  M 408.57 581.52
  L 408.63 575.95
  A 0.89 0.88 -89.7 0 1 409.51 575.07
  L 426.60 575.04
  A 1.11 1.11 0.0 0 1 427.72 576.10
  Q 428.16 584.53 426.69 591.44"
/>
<path stroke="#b88b9a" vector-effect="non-scaling-stroke" d="
  M 426.69 591.44
  Q 418.96 598.28 412.69 604.94
  Q 411.66 606.03 410.15 606.02
  Q 399.68 605.97 389.63 606.00
  A 4.08 4.06 -22.4 0 1 386.75 604.81
  L 372.88 590.91
  A 2.36 2.34 22.7 0 1 372.19 589.25
  L 371.93 531.03"
/>
<path stroke="#b88b9a" vector-effect="non-scaling-stroke" d="
  M 366.27 534.50
  L 366.24 552.18
  A 2.61 2.61 0.0 0 1 365.44 554.06
  L 359.62 559.67
  A 0.52 0.52 0.0 0 0 359.62 560.43
  L 365.45 565.96
  A 2.03 2.02 -68.5 0 1 366.09 567.44
  L 366.16 605.29
  A 0.70 0.70 0.0 0 1 365.46 605.99
  L 347.88 606.03
  A 0.65 0.65 0.0 0 1 347.23 605.38
  L 347.28 575.13
  Q 347.28 574.47 346.81 574.01
  L 342.38 569.61
  Q 341.77 569.00 340.90 569.00
  L 330.19 568.99
  Q 329.61 568.99 329.61 569.56
  L 329.58 605.47
  A 0.55 0.54 -89.5 0 1 329.03 606.02
  L 311.25 606.00
  A 0.81 0.81 0.0 0 1 310.44 605.19
  L 310.36 533.02"
/>
<path stroke="#b88b9a" vector-effect="non-scaling-stroke" d="
  M 304.75 534.56
  L 304.67 605.36
  A 0.65 0.64 0.0 0 1 304.02 606.00
  L 286.42 606.00
  Q 285.60 606.00 285.60 605.17
  L 285.71 569.48
  A 0.48 0.48 0.0 0 0 285.23 569.00
  L 268.85 569.00
  A 0.66 0.65 0.0 0 0 268.19 569.65
  L 268.25 604.75
  A 1.25 1.25 0.0 0 1 267.00 606.00
  L 249.99 605.99
  Q 249.35 605.99 249.28 605.35
  Q 248.98 602.74 249.01 599.75
  Q 249.32 563.58 249.11 532.25
  Q 249.10 530.11 250.00 529.29"
/>
<path stroke="#891b41" vector-effect="non-scaling-stroke" d="
  M 433.48 566.71
  Q 433.23 566.75 433.04 566.94
  Q 432.73 567.23 432.86 566.82
  Q 432.89 566.73 432.85 566.63
  Q 432.79 566.42 432.58 566.49
  Q 432.54 566.51 432.49 566.53
  Q 432.35 566.60 432.20 566.48
  Q 430.15 564.78 427.64 564.69
  Q 427.18 564.68 426.93 564.29
  Q 426.57 563.75 425.94 563.62
  Q 423.26 563.05 420.33 562.52
  Q 417.27 561.97 414.72 562.79
  Q 409.54 564.47 407.38 570.27
  Q 405.34 575.78 407.30 580.73
  A 0.73 0.72 -10.5 0 0 407.98 581.19
  Q 408.67 581.20 408.57 581.52"
/>
<path stroke="#891b41" vector-effect="non-scaling-stroke" d="
  M 466.76 552.93
  Q 467.42 550.36 463.66 548.02
  Q 463.22 547.75 462.99 547.29
  Q 462.45 546.19 461.36 545.64
  Q 460.96 545.44 460.66 545.11
  L 454.78 538.73
  Q 454.23 538.13 453.60 538.65
  Q 453.40 538.82 453.26 538.60
  Q 452.81 537.88 452.74 538.73
  Q 452.69 539.40 452.63 540.04"
/>
<path stroke="#b88b9a" vector-effect="non-scaling-stroke" d="
  M 268.66 551.00
  L 285.14 551.00
  A 0.58 0.58 0.0 0 0 285.72 550.42
  L 285.72 541.17
  A 8.45 8.36 90.0 0 0 277.36 532.72
  L 276.44 532.72
  A 8.45 8.36 -90.0 0 0 268.08 541.17
  L 268.08 550.42
  A 0.58 0.58 0.0 0 0 268.66 551.00"
/>
<path stroke="#b88b9a" vector-effect="non-scaling-stroke" d="
  M 329.61 533.37
  L 329.57 550.61
  A 0.42 0.42 0.0 0 0 329.99 551.04
  L 338.49 551.05
  A 8.80 8.56 0.1 0 0 347.31 542.51
  L 347.31 541.55
  A 8.80 8.56 0.1 0 0 338.53 532.97
  L 330.03 532.96
  A 0.42 0.42 0.0 0 0 329.61 533.37"
/>
</g>
<path fill="#c2255c" d="
  M 0.00 0.00
  L 612.00 0.00
  L 612.00 1080.00
  L 0.00 1080.00
  L 0.00 0.00
  Z
  M 240.17 466.26
  Q 239.42 465.92 239.31 466.02
  A 1.97 1.70 56.1 0 0 239.02 468.41
  Q 240.80 471.47 241.23 474.49
  Q 241.59 477.04 242.45 479.40
  Q 243.35 481.86 244.44 484.38
  Q 244.51 484.53 244.67 484.50
  Q 244.72 484.49 244.76 484.47
  Q 244.86 484.43 244.91 484.54
  C 247.41 490.01 250.78 494.50 254.32 499.15
  C 254.95 499.97 256.01 500.57 256.90 501.07
  Q 257.30 501.30 257.37 501.75
  Q 257.45 502.30 258.07 502.29
  Q 262.51 506.28 268.08 508.79
  Q 269.86 509.59 271.75 509.65
  Q 273.71 509.72 275.75 510.34
  Q 276.94 510.70 282.41 510.02
  Q 282.46 510.02 282.49 509.97
  Q 282.55 509.87 282.53 509.73
  Q 282.52 509.67 282.58 509.67
  Q 284.40 509.60 286.13 509.20
  Q 291.89 507.83 297.23 505.87
  Q 297.96 505.60 298.73 505.50
  C 300.08 505.32 301.30 504.80 302.69 504.85
  Q 304.75 504.92 306.99 504.91
  Q 309.08 504.91 311.21 505.41
  Q 316.02 506.55 320.76 507.16
  Q 321.22 507.22 321.64 507.05
  Q 322.44 506.73 323.26 506.77
  Q 327.51 506.99 331.60 504.47
  Q 335.30 502.19 337.61 499.60
  Q 339.38 497.61 341.26 495.53
  Q 342.10 494.60 342.93 493.65
  Q 344.95 491.33 347.73 493.22
  Q 351.06 495.50 353.89 499.34
  Q 355.93 502.10 358.49 503.54
  Q 362.65 505.88 366.46 506.02
  Q 368.83 506.10 373.12 504.47
  Q 374.07 504.10 374.86 503.59
  Q 375.40 503.24 376.07 503.31
  Q 376.44 503.34 376.71 503.08
  Q 378.79 501.09 380.45 498.81
  Q 382.62 495.84 383.75 491.13
  Q 384.92 486.33 385.24 481.96
  Q 386.16 469.51 385.82 452.02
  Q 385.80 450.79 386.05 449.55
  Q 386.33 448.22 386.46 446.90
  A 14.25 13.61 58.5 0 1 387.12 443.85
  Q 388.33 440.24 390.49 437.14
  Q 391.28 436.02 391.81 434.94
  Q 392.52 433.49 393.54 432.23
  Q 395.52 429.81 396.83 424.94
  A 0.07 0.07 0.0 0 1 396.97 424.95
  Q 396.99 425.08 396.99 425.22
  Q 397.00 426.05 397.24 425.25
  Q 397.97 422.87 398.18 420.01
  Q 398.50 415.68 396.95 412.67
  C 396.23 411.28 394.81 410.50 393.84 409.03
  Q 392.67 407.26 390.28 407.28
  C 389.19 407.29 388.17 407.20 387.15 406.70
  A 0.54 0.54 0.0 0 0 386.45 406.90
  Q 386.19 407.34 385.86 406.94
  Q 385.32 406.26 384.82 406.95
  Q 384.71 407.10 384.45 407.10
  Q 384.01 407.08 383.90 406.66
  Q 383.85 406.50 383.87 406.35
  Q 383.96 405.60 383.29 405.94
  Q 381.77 406.70 381.83 406.14
  L 381.63 391.93
  A 0.93 0.93 0.0 0 0 380.70 391.02
  L 326.74 391.01
  A 0.53 0.53 0.0 0 0 326.21 391.54
  L 326.38 409.04
  Q 324.45 410.10 321.69 410.03
  Q 321.18 410.01 320.84 410.39
  Q 320.50 410.76 320.33 411.23
  L 320.35 390.41
  A 0.40 0.40 0.0 0 0 319.95 390.01
  L 301.56 390.02
  A 0.39 0.39 0.0 0 0 301.17 390.41
  L 301.21 407.16
  Q 297.38 406.38 295.49 408.81
  L 295.24 406.59
  Q 295.19 406.07 294.82 405.70
  L 280.03 390.78
  A 2.63 2.63 0.0 0 0 278.17 390.01
  L 256.56 390.02
  A 2.15 2.12 -67.5 0 0 255.04 390.66
  L 240.30 405.60
  A 2.21 2.17 -23.3 0 0 239.68 407.12
  L 240.17 466.26
  Z
  M 148.65 569.11
  Q 147.98 570.72 149.06 573.26
  Q 149.11 573.39 149.01 573.49
  L 148.73 573.78
  Q 148.21 574.30 148.92 574.44
  L 151.48 574.97
  L 133.25 575.03
  Q 132.75 575.04 132.72 575.53
  Q 132.18 584.03 133.42 590.86
  Q 134.21 590.90 133.35 591.51
  Q 132.88 591.84 133.19 592.33
  L 136.42 597.31
  A 1.28 1.25 -57.4 0 1 136.61 598.21
  Q 136.51 598.82 136.74 599.37
  Q 137.42 601.00 137.50 602.77
  Q 137.56 604.14 138.14 605.45
  Q 141.07 611.95 145.57 616.91
  Q 146.56 618.00 147.77 619.08
  Q 149.57 620.69 150.30 622.91
  A 2.80 2.78 5.0 0 0 151.66 624.52
  Q 153.84 625.66 155.47 627.41
  Q 156.37 628.37 157.50 629.18
  Q 158.80 630.12 159.91 630.36
  Q 162.48 630.93 164.99 631.61
  Q 167.80 632.38 170.12 632.43
  Q 180.25 632.67 189.00 630.13
  Q 192.80 629.03 196.44 628.19
  Q 198.41 627.74 200.10 627.93
  Q 202.02 628.14 203.82 628.64
  Q 207.66 629.71 211.59 631.13
  Q 213.81 631.94 216.15 632.31
  Q 223.06 633.42 228.33 633.49
  Q 235.22 633.59 252.62 631.66
  Q 258.13 631.04 262.02 630.99
  Q 266.71 630.93 270.75 630.54
  Q 276.77 629.96 283.69 627.00
  Q 285.61 626.18 287.62 626.13
  Q 290.36 626.06 292.52 626.66
  Q 294.18 627.12 295.76 627.40
  Q 297.23 627.65 298.53 628.30
  Q 301.17 629.62 303.91 630.19
  Q 304.14 630.24 304.24 630.45
  Q 304.31 630.58 304.45 630.61
  Q 309.27 631.48 313.75 631.61
  Q 323.78 631.88 333.34 630.85
  Q 335.65 630.60 338.56 629.63
  Q 340.71 628.91 342.53 627.86
  Q 344.53 626.71 346.77 626.07
  Q 347.22 625.95 347.55 625.61
  Q 348.17 624.96 349.06 624.96
  Q 351.78 624.98 354.25 625.58
  Q 356.66 626.15 359.09 627.51
  Q 362.37 629.34 365.84 630.14
  Q 370.35 631.17 375.33 630.25
  A 28.03 19.88 -5.6 0 0 379.16 629.36
  Q 382.78 628.35 386.28 628.12
  Q 387.42 628.05 388.58 628.36
  C 390.50 628.88 392.48 629.10 394.37 629.66
  Q 401.03 631.63 407.50 632.34
  Q 415.50 633.22 421.65 631.78
  Q 426.43 630.67 431.95 629.31
  C 436.65 628.16 441.28 627.98 445.94 628.99
  Q 450.56 629.99 454.77 630.51
  Q 457.41 630.84 460.36 629.94
  Q 463.40 629.01 465.86 627.87
  Q 466.45 627.60 466.87 627.12
  Q 467.34 626.59 467.83 626.37
  Q 470.26 625.30 472.79 624.24
  Q 473.34 624.00 473.93 624.14
  Q 475.30 624.47 476.48 624.00
  Q 476.97 623.80 477.49 623.93
  Q 480.33 624.65 482.51 625.95
  Q 482.65 626.03 482.80 626.03
  Q 483.09 626.03 483.06 625.86
  Q 482.93 625.21 483.48 625.57
  Q 485.23 626.73 486.78 628.26
  Q 489.00 630.45 490.92 628.14
  A 0.86 0.85 28.2 0 1 491.82 627.87
  Q 492.31 628.00 492.68 627.66
  Q 493.00 627.36 493.43 627.21
  Q 494.08 626.97 494.80 626.89
  A 1.40 1.39 -71.0 0 0 495.68 626.46
  Q 496.40 625.71 497.49 625.67
  Q 498.01 625.65 498.43 625.35
  Q 499.94 624.27 500.92 623.04
  Q 502.64 620.90 503.97 618.02
  Q 504.65 616.56 504.84 614.98
  Q 505.02 613.46 505.21 611.86
  Q 505.48 609.57 506.13 607.24
  Q 506.67 605.30 506.98 603.42
  Q 507.29 601.57 507.80 599.61
  Q 508.63 596.36 508.63 592.86
  Q 508.61 577.84 508.62 562.46
  Q 508.63 551.20 506.37 541.10
  Q 505.90 539.00 503.50 535.12
  Q 502.51 533.52 501.74 531.89
  Q 500.91 530.13 499.15 528.83
  Q 496.01 526.50 492.91 525.50
  Q 492.44 525.35 492.08 525.01
  Q 491.61 524.57 491.03 524.40
  Q 490.61 524.28 490.40 524.66
  Q 490.25 524.94 489.99 524.72
  Q 489.55 524.35 489.42 524.91
  L 489.30 525.47
  L 489.24 514.56
  Q 489.23 514.01 488.69 514.01
  L 470.59 514.02
  A 0.44 0.44 0.0 0 0 470.15 514.46
  L 470.21 526.46
  Q 469.95 526.90 469.90 527.37
  Q 469.80 528.30 469.37 527.46
  Q 469.08 526.88 468.44 526.73
  Q 466.96 526.39 465.47 525.56
  Q 463.81 524.64 462.21 524.19
  Q 459.36 523.40 456.63 522.34
  Q 455.96 522.08 455.27 522.25
  L 453.25 522.76
  Q 452.81 522.87 452.77 523.33
  L 452.63 525.04
  L 452.64 514.41
  A 0.41 0.41 0.0 0 0 452.23 514.00
  L 433.78 514.01
  A 0.31 0.31 0.0 0 0 433.47 514.32
  L 433.46 535.96
  C 432.29 533.08 429.73 534.02 427.65 535.46
  L 427.46 530.36
  Q 427.44 529.84 427.07 529.46
  L 412.71 515.04
  Q 411.72 514.05 410.32 514.04
  Q 400.85 513.97 389.73 514.04
  Q 388.12 514.04 387.04 515.04
  Q 379.05 522.43 371.93 531.03
  Q 371.10 533.35 367.42 531.33
  Q 366.96 531.08 366.86 531.59
  L 366.27 534.50
  C 366.45 532.65 366.36 530.81 364.95 529.46
  Q 358.21 522.98 350.89 515.75
  A 2.83 2.81 -22.7 0 0 348.92 514.95
  L 311.57 515.08
  A 1.11 1.11 0.0 0 0 310.46 516.18
  L 310.36 533.02
  Q 306.64 530.14 304.75 534.56
  C 304.69 532.81 305.10 530.58 303.78 529.27
  Q 296.27 521.87 289.84 515.16
  A 3.66 3.65 67.9 0 0 287.21 514.04
  L 266.54 514.02
  Q 265.10 514.01 264.09 515.04
  L 250.00 529.29
  Q 247.33 527.06 244.05 526.23
  Q 243.58 526.11 243.60 526.60
  Q 243.62 527.29 243.36 527.80
  L 243.37 515.64
  Q 243.37 514.99 242.72 514.99
  L 194.76 515.02
  A 0.50 0.50 0.0 0 0 194.26 515.52
  L 194.22 541.71
  L 193.50 531.37
  Q 193.47 530.86 193.12 531.23
  Q 192.37 532.03 191.49 531.92
  Q 189.17 531.62 188.33 533.32
  C 188.48 531.73 188.44 530.25 187.27 529.08
  Q 180.02 521.84 173.37 515.02
  A 3.31 3.29 -21.9 0 0 171.00 514.02
  L 149.74 514.01
  A 2.22 2.21 22.2 0 0 148.16 514.67
  L 133.35 529.52
  A 2.32 2.32 0.0 0 0 132.67 531.16
  L 132.69 552.01
  A 2.59 2.56 -67.8 0 0 133.44 553.83
  L 148.65 569.11
  Z"
/>
<path fill="#ffffff" d="
  M 295.49 408.81
  L 295.38 420.40
  Q 295.37 421.00 294.78 421.00
  L 277.02 421.00
  A 0.60 0.60 0.0 0 1 276.42 420.39
  L 276.45 414.70
  Q 276.46 414.07 276.00 413.63
  L 271.43 409.19
  Q 270.98 408.76 270.36 408.77
  L 264.68 408.83
  A 1.66 1.66 0.0 0 0 263.56 409.29
  L 259.27 413.50
  Q 258.74 414.03 258.74 414.77
  L 258.75 457.20
  A 1.65 1.61 -67.7 0 0 259.21 458.34
  L 263.32 462.58
  Q 263.75 463.02 264.36 463.08
  C 266.99 463.34 270.65 463.91 272.77 461.66
  Q 274.32 460.01 275.94 458.30
  A 1.58 1.55 67.2 0 0 276.37 457.22
  L 276.39 445.70
  Q 276.39 445.00 275.70 445.00
  L 265.95 444.99
  A 0.54 0.54 0.0 0 1 265.41 444.45
  L 265.41 427.67
  Q 265.41 427.00 266.08 427.00
  L 294.75 427.00
  Q 295.38 427.00 295.38 427.63
  L 295.30 465.25
  A 1.30 1.28 -22.9 0 1 294.92 466.16
  L 280.14 481.13
  Q 279.29 481.99 278.08 481.99
  Q 268.26 482.01 257.37 482.00
  C 254.94 482.00 253.06 479.20 251.08 477.23
  L 240.17 466.26
  L 239.68 407.12
  A 2.21 2.17 -23.3 0 1 240.30 405.60
  L 255.04 390.66
  A 2.15 2.12 -67.5 0 1 256.56 390.02
  L 278.17 390.01
  A 2.63 2.63 0.0 0 1 280.03 390.78
  L 294.82 405.70
  Q 295.19 406.07 295.24 406.59
  L 295.49 408.81
  Z"
/>
<path fill="#ffffff" d="
  M 320.33 411.23
  L 320.35 481.14
  A 0.86 0.85 -0.0 0 1 319.49 481.99
  L 301.77 482.00
  A 0.53 0.53 0.0 0 1 301.24 481.47
  L 301.21 407.16
  L 301.17 390.41
  A 0.39 0.39 0.0 0 1 301.56 390.02
  L 319.95 390.01
  A 0.40 0.40 0.0 0 1 320.35 390.41
  L 320.33 411.23
  Z"
/>
<path fill="#ffffff" d="
  M 381.83 406.14
  L 381.83 408.84
  L 363.97 409.07
  Q 363.50 409.07 363.50 409.55
  L 363.50 481.46
  Q 363.50 482.00 362.97 482.00
  L 351.29 482.04
  L 344.74 481.97
  A 0.36 0.35 90.0 0 1 344.39 481.61
  L 344.39 428.45
  L 344.21 409.57
  Q 344.21 409.07 343.70 409.07
  L 326.38 409.04
  L 326.21 391.54
  A 0.53 0.53 0.0 0 1 326.74 391.01
  L 380.70 391.02
  A 0.93 0.93 0.0 0 1 381.63 391.93
  L 381.83 406.14
  Z"
/>
<path fill="#a21f4d" d="
  M 240.17 466.26
  L 251.08 477.23
  L 250.25 477.47
  Q 249.78 477.61 250.03 478.03
  Q 252.12 481.57 253.89 484.73
  Q 254.44 485.71 255.19 486.28
  Q 256.01 486.90 256.96 487.37
  A 1.40 1.39 2.0 0 1 257.62 488.07
  Q 258.77 490.88 261.24 492.35
  Q 262.19 492.92 262.95 493.69
  Q 263.67 494.42 264.51 495.01
  Q 274.78 502.18 287.32 498.86
  Q 289.16 498.37 291.01 497.60
  Q 292.62 496.94 294.48 495.82
  Q 296.75 494.45 299.40 493.68
  Q 299.63 493.61 299.70 493.38
  Q 299.74 493.23 299.90 493.18
  Q 302.76 492.30 305.54 492.14
  Q 308.04 491.99 311.22 492.80
  Q 317.39 494.39 323.50 495.34
  Q 324.64 495.52 325.40 494.70
  Q 325.70 494.39 326.07 494.16
  Q 329.03 492.34 330.15 488.60
  Q 331.96 482.57 332.14 477.38
  Q 332.15 476.91 332.40 476.49
  Q 332.63 476.10 332.63 475.65
  Q 332.65 465.27 332.62 454.74
  Q 332.61 450.79 333.01 446.77
  Q 333.41 442.79 333.61 438.76
  Q 333.62 438.36 334.05 438.28
  A 0.68 0.68 0.0 0 0 334.59 437.73
  Q 335.26 434.12 338.71 430.95
  Q 340.32 429.46 342.05 428.92
  Q 342.52 428.78 342.86 429.12
  L 343.39 429.65
  Q 343.92 430.17 344.11 429.46
  L 344.39 428.45
  L 344.39 481.61
  A 0.36 0.35 90.0 0 0 344.74 481.97
  L 351.29 482.04
  Q 351.31 482.34 350.91 482.39
  Q 350.34 482.45 350.73 482.87
  Q 350.97 483.12 351.34 483.11
  A 0.55 0.54 65.0 0 1 351.74 483.26
  Q 352.15 483.65 351.94 483.83
  Q 351.57 484.14 351.85 484.54
  Q 354.24 487.97 355.58 491.67
  Q 356.02 492.91 356.97 493.77
  Q 358.19 494.88 359.10 496.32
  Q 360.02 497.78 361.57 498.55
  Q 366.17 500.85 370.00 498.95
  Q 373.03 497.46 374.95 493.50
  Q 376.95 489.36 377.70 485.73
  Q 378.44 482.11 378.51 478.07
  Q 378.77 464.45 379.05 451.04
  Q 379.10 448.83 379.51 446.50
  Q 379.91 444.23 380.43 442.09
  Q 381.25 438.70 383.60 435.30
  Q 383.81 434.99 384.14 434.79
  Q 384.56 434.54 384.53 434.03
  A 0.77 0.74 62.0 0 1 384.67 433.53
  Q 386.73 430.66 388.65 427.77
  Q 389.16 427.00 389.55 426.10
  Q 389.91 425.26 390.30 424.44
  Q 391.09 422.76 392.14 417.92
  C 392.49 416.30 392.14 414.87 391.93 413.28
  Q 391.81 412.39 391.32 411.60
  Q 390.77 410.72 389.75 410.37
  Q 388.74 410.02 387.73 409.68
  Q 386.74 409.36 385.60 409.38
  Q 383.60 409.43 381.83 408.84
  L 381.83 406.14
  Q 381.77 406.70 383.29 405.94
  Q 383.96 405.60 383.87 406.35
  Q 383.85 406.50 383.90 406.66
  Q 384.01 407.08 384.45 407.10
  Q 384.71 407.10 384.82 406.95
  Q 385.32 406.26 385.86 406.94
  Q 386.19 407.34 386.45 406.90
  A 0.54 0.54 0.0 0 1 387.15 406.70
  C 388.17 407.20 389.19 407.29 390.28 407.28
  Q 392.67 407.26 393.84 409.03
  C 394.81 410.50 396.23 411.28 396.95 412.67
  Q 398.50 415.68 398.18 420.01
  Q 397.97 422.87 397.24 425.25
  Q 397.00 426.05 396.99 425.22
  Q 396.99 425.08 396.97 424.95
  A 0.07 0.07 0.0 0 0 396.83 424.94
  Q 395.52 429.81 393.54 432.23
  Q 392.52 433.49 391.81 434.94
  Q 391.28 436.02 390.49 437.14
  Q 388.33 440.24 387.12 443.85
  A 14.25 13.61 58.5 0 0 386.46 446.90
  Q 386.33 448.22 386.05 449.55
  Q 385.80 450.79 385.82 452.02
  Q 386.16 469.51 385.24 481.96
  Q 384.92 486.33 383.75 491.13
  Q 382.62 495.84 380.45 498.81
  Q 378.79 501.09 376.71 503.08
  Q 376.44 503.34 376.07 503.31
  Q 375.40 503.24 374.86 503.59
  Q 374.07 504.10 373.12 504.47
  Q 368.83 506.10 366.46 506.02
  Q 362.65 505.88 358.49 503.54
  Q 355.93 502.10 353.89 499.34
  Q 351.06 495.50 347.73 493.22
  Q 344.95 491.33 342.93 493.65
  Q 342.10 494.60 341.26 495.53
  Q 339.38 497.61 337.61 499.60
  Q 335.30 502.19 331.60 504.47
  Q 327.51 506.99 323.26 506.77
  Q 322.44 506.73 321.64 507.05
  Q 321.22 507.22 320.76 507.16
  Q 316.02 506.55 311.21 505.41
  Q 309.08 504.91 306.99 504.91
  Q 304.75 504.92 302.69 504.85
  C 301.30 504.80 300.08 505.32 298.73 505.50
  Q 297.96 505.60 297.23 505.87
  Q 291.89 507.83 286.13 509.20
  Q 284.40 509.60 282.58 509.67
  Q 282.52 509.67 282.53 509.73
  Q 282.55 509.87 282.49 509.97
  Q 282.46 510.02 282.41 510.02
  Q 276.94 510.70 275.75 510.34
  Q 273.71 509.72 271.75 509.65
  Q 269.86 509.59 268.08 508.79
  Q 262.51 506.28 258.07 502.29
  Q 257.45 502.30 257.37 501.75
  Q 257.30 501.30 256.90 501.07
  C 256.01 500.57 254.95 499.97 254.32 499.15
  C 250.78 494.50 247.41 490.01 244.91 484.54
  Q 244.86 484.43 244.76 484.47
  Q 244.72 484.49 244.67 484.50
  Q 244.51 484.53 244.44 484.38
  Q 243.35 481.86 242.45 479.40
  Q 241.59 477.04 241.23 474.49
  Q 240.80 471.47 239.02 468.41
  A 1.97 1.70 56.1 0 1 239.31 466.02
  Q 239.42 465.92 240.17 466.26
  Z"
/>
<path fill="#701635" d="
  M 301.21 407.16
  L 301.24 481.47
  A 0.53 0.53 0.0 0 0 301.77 482.00
  L 319.49 481.99
  A 0.86 0.85 0.0 0 0 320.35 481.14
  L 320.33 411.23
  Q 320.50 410.76 320.84 410.39
  Q 321.18 410.01 321.69 410.03
  Q 324.45 410.10 326.38 409.04
  L 343.70 409.07
  Q 344.21 409.07 344.21 409.57
  L 344.39 428.45
  L 344.11 429.46
  Q 343.92 430.17 343.39 429.65
  L 342.86 429.12
  Q 342.52 428.78 342.05 428.92
  Q 340.32 429.46 338.71 430.95
  Q 335.26 434.12 334.59 437.73
  A 0.68 0.68 0.0 0 1 334.05 438.28
  Q 333.62 438.36 333.61 438.76
  Q 333.41 442.79 333.01 446.77
  Q 332.61 450.79 332.62 454.74
  Q 332.65 465.27 332.63 475.65
  Q 332.63 476.10 332.40 476.49
  Q 332.15 476.91 332.14 477.38
  Q 331.96 482.57 330.15 488.60
  Q 329.03 492.34 326.07 494.16
  Q 325.70 494.39 325.40 494.70
  Q 324.64 495.52 323.50 495.34
  Q 317.39 494.39 311.22 492.80
  Q 308.04 491.99 305.54 492.14
  Q 302.76 492.30 299.90 493.18
  Q 299.74 493.23 299.70 493.38
  Q 299.63 493.61 299.40 493.68
  Q 296.75 494.45 294.48 495.82
  Q 292.62 496.94 291.01 497.60
  Q 289.16 498.37 287.32 498.86
  Q 274.78 502.18 264.51 495.01
  Q 263.67 494.42 262.95 493.69
  Q 262.19 492.92 261.24 492.35
  Q 258.77 490.88 257.62 488.07
  A 1.40 1.39 2.0 0 0 256.96 487.37
  Q 256.01 486.90 255.19 486.28
  Q 254.44 485.71 253.89 484.73
  Q 252.12 481.57 250.03 478.03
  Q 249.78 477.61 250.25 477.47
  L 251.08 477.23
  C 253.06 479.20 254.94 482.00 257.37 482.00
  Q 268.26 482.01 278.08 481.99
  Q 279.29 481.99 280.14 481.13
  L 294.92 466.16
  A 1.30 1.28 -22.9 0 0 295.30 465.25
  L 295.38 427.63
  Q 295.38 427.00 294.75 427.00
  L 266.08 427.00
  Q 265.41 427.00 265.41 427.67
  L 265.41 444.45
  A 0.54 0.54 0.0 0 0 265.95 444.99
  L 275.70 445.00
  Q 276.39 445.00 276.39 445.70
  L 276.37 457.22
  A 1.58 1.55 67.2 0 1 275.94 458.30
  Q 274.32 460.01 272.77 461.66
  C 270.65 463.91 266.99 463.34 264.36 463.08
  Q 263.75 463.02 263.32 462.58
  L 259.21 458.34
  A 1.65 1.61 -67.7 0 1 258.75 457.20
  L 258.74 414.77
  Q 258.74 414.03 259.27 413.50
  L 263.56 409.29
  A 1.66 1.66 0.0 0 1 264.68 408.83
  L 270.36 408.77
  Q 270.98 408.76 271.43 409.19
  L 276.00 413.63
  Q 276.46 414.07 276.45 414.70
  L 276.42 420.39
  A 0.60 0.60 0.0 0 0 277.02 421.00
  L 294.78 421.00
  Q 295.37 421.00 295.38 420.40
  L 295.49 408.81
  Q 297.38 406.38 301.21 407.16
  Z"
/>
<path fill="#701635" d="
  M 381.83 408.84
  Q 383.60 409.43 385.60 409.38
  Q 386.74 409.36 387.73 409.68
  Q 388.74 410.02 389.75 410.37
  Q 390.77 410.72 391.32 411.60
  Q 391.81 412.39 391.93 413.28
  C 392.14 414.87 392.49 416.30 392.14 417.92
  Q 391.09 422.76 390.30 424.44
  Q 389.91 425.26 389.55 426.10
  Q 389.16 427.00 388.65 427.77
  Q 386.73 430.66 384.67 433.53
  A 0.77 0.74 62.0 0 0 384.53 434.03
  Q 384.56 434.54 384.14 434.79
  Q 383.81 434.99 383.60 435.30
  Q 381.25 438.70 380.43 442.09
  Q 379.91 444.23 379.51 446.50
  Q 379.10 448.83 379.05 451.04
  Q 378.77 464.45 378.51 478.07
  Q 378.44 482.11 377.70 485.73
  Q 376.95 489.36 374.95 493.50
  Q 373.03 497.46 370.00 498.95
  Q 366.17 500.85 361.57 498.55
  Q 360.02 497.78 359.10 496.32
  Q 358.19 494.88 356.97 493.77
  Q 356.02 492.91 355.58 491.67
  Q 354.24 487.97 351.85 484.54
  Q 351.57 484.14 351.94 483.83
  Q 352.15 483.65 351.74 483.26
  A 0.55 0.54 65.0 0 0 351.34 483.11
  Q 350.97 483.12 350.73 482.87
  Q 350.34 482.45 350.91 482.39
  Q 351.31 482.34 351.29 482.04
  L 362.97 482.00
  Q 363.50 482.00 363.50 481.46
  L 363.50 409.55
  Q 363.50 409.07 363.97 409.07
  L 381.83 408.84
  Z"
/>
<path fill="#ffffff" d="
  M 188.33 533.32
  L 188.31 544.17
  Q 188.31 544.95 187.54 544.95
  L 170.23 544.96
  Q 169.50 544.96 169.49 544.23
  L 169.40 538.51
  A 1.19 1.18 22.2 0 0 169.04 537.66
  L 164.57 533.20
  Q 164.13 532.76 163.51 532.77
  L 157.42 532.81
  A 1.44 1.42 -67.3 0 0 156.41 533.23
  L 152.27 537.40
  Q 151.74 537.94 151.74 538.68
  L 151.74 544.75
  Q 151.74 545.27 152.10 545.65
  L 156.45 550.19
  A 1.65 1.62 -21.3 0 0 157.64 550.70
  L 171.19 550.72
  A 2.75 2.70 66.9 0 1 173.10 551.51
  L 187.94 566.38
  A 1.99 1.94 23.3 0 1 188.52 567.79
  L 188.36 588.96
  A 2.12 2.11 -22.3 0 1 187.74 590.43
  L 173.01 605.29
  Q 172.33 605.98 171.35 605.98
  Q 160.62 606.02 149.74 605.98
  Q 148.52 605.98 146.77 604.01
  L 133.42 590.86
  Q 132.18 584.03 132.72 575.53
  Q 132.75 575.04 133.25 575.03
  L 151.48 574.97
  L 151.80 581.55
  Q 151.83 582.17 152.27 582.61
  L 156.32 586.70
  A 1.74 1.70 66.9 0 0 157.57 587.22
  L 163.44 587.18
  A 1.73 1.71 22.2 0 0 164.62 586.69
  Q 166.11 585.22 167.82 583.65
  C 170.00 581.62 169.51 579.03 169.49 576.41
  C 169.46 573.84 166.44 571.51 164.70 570.04
  A 3.41 3.35 65.0 0 0 162.54 569.23
  L 148.65 569.11
  L 133.44 553.83
  A 2.59 2.56 -67.8 0 1 132.69 552.01
  L 132.67 531.16
  A 2.32 2.32 0.0 0 1 133.35 529.52
  L 148.16 514.67
  A 2.22 2.21 22.2 0 1 149.74 514.01
  L 171.00 514.02
  A 3.31 3.29 -21.9 0 1 173.37 515.02
  Q 180.02 521.84 187.27 529.08
  C 188.44 530.25 188.48 531.73 188.33 533.32
  Z"
/>
<path fill="#ffffff" d="
  M 304.75 534.56
  L 304.67 605.36
  A 0.65 0.64 0.0 0 1 304.02 606.00
  L 286.42 606.00
  Q 285.60 606.00 285.60 605.17
  L 285.71 569.48
  A 0.48 0.48 0.0 0 0 285.23 569.00
  L 268.85 569.00
  A 0.66 0.65 0.0 0 0 268.19 569.65
  L 268.25 604.75
  A 1.25 1.25 0.0 0 1 267.00 606.00
  L 249.99 605.99
  Q 249.35 605.99 249.28 605.35
  Q 248.98 602.74 249.01 599.75
  Q 249.32 563.58 249.11 532.25
  Q 249.10 530.11 250.00 529.29
  L 264.09 515.04
  Q 265.10 514.01 266.54 514.02
  L 287.21 514.04
  A 3.66 3.65 67.9 0 1 289.84 515.16
  Q 296.27 521.87 303.78 529.27
  C 305.10 530.58 304.69 532.81 304.75 534.56
  Z
  M 268.66 551.00
  L 285.14 551.00
  A 0.58 0.58 0.0 0 0 285.72 550.42
  L 285.72 541.17
  A 8.45 8.36 90.0 0 0 277.36 532.72
  L 276.44 532.72
  A 8.45 8.36 -90.0 0 0 268.08 541.17
  L 268.08 550.42
  A 0.58 0.58 0.0 0 0 268.66 551.00
  Z"
/>
<path fill="#ffffff" d="
  M 427.65 535.46
  L 427.63 544.56
  A 0.43 0.42 90.0 0 1 427.21 544.99
  L 409.25 544.94
  A 0.68 0.67 -87.3 0 1 408.58 544.20
  Q 408.89 541.22 408.59 538.38
  A 1.82 1.78 -70.9 0 0 408.09 537.32
  Q 406.66 535.83 405.07 534.21
  C 402.98 532.08 399.36 532.69 396.78 532.92
  Q 396.08 532.98 395.56 533.46
  C 393.69 535.18 391.11 537.01 391.01 539.66
  Q 390.74 546.76 391.00 553.87
  Q 391.06 555.47 391.00 556.92
  C 390.69 565.28 391.11 573.74 391.19 581.75
  Q 391.20 582.33 391.60 582.73
  L 395.77 586.94
  Q 396.16 587.34 396.73 587.34
  L 402.93 587.35
  Q 403.52 587.35 403.94 586.96
  Q 406.12 584.92 408.21 582.66
  Q 408.42 582.43 408.49 582.13
  Q 408.56 581.83 408.57 581.52
  L 408.63 575.95
  A 0.89 0.88 -89.7 0 1 409.51 575.07
  L 426.60 575.04
  A 1.11 1.11 0.0 0 1 427.72 576.10
  Q 428.16 584.53 426.69 591.44
  Q 418.96 598.28 412.69 604.94
  Q 411.66 606.03 410.15 606.02
  Q 399.68 605.97 389.63 606.00
  A 4.08 4.06 -22.4 0 1 386.75 604.81
  L 372.88 590.91
  A 2.36 2.34 22.7 0 1 372.19 589.25
  L 371.93 531.03
  Q 379.05 522.43 387.04 515.04
  Q 388.12 514.04 389.73 514.04
  Q 400.85 513.97 410.32 514.04
  Q 411.72 514.05 412.71 515.04
  L 427.07 529.46
  Q 427.44 529.84 427.46 530.36
  L 427.65 535.46
  Z"
/>
<path fill="#ffffff" d="
  M 452.63 525.04
  L 452.63 540.04
  L 452.77 552.43
  Q 452.77 552.95 453.30 552.95
  L 466.76 552.93
  L 469.67 552.99
  Q 470.19 553.00 470.19 552.48
  L 470.21 526.46
  L 470.15 514.46
  A 0.44 0.44 0.0 0 1 470.59 514.02
  L 488.69 514.01
  Q 489.23 514.01 489.24 514.56
  L 489.30 525.47
  Q 489.14 526.60 489.28 526.94
  L 489.23 604.67
  A 1.25 1.25 0.0 0 1 487.98 605.92
  L 471.05 605.89
  A 0.84 0.84 0.0 0 1 470.21 605.05
  L 470.29 571.51
  Q 470.29 570.98 469.76 570.98
  L 453.17 570.99
  Q 452.58 570.99 452.58 571.58
  L 452.56 604.98
  A 1.04 1.04 0.0 0 1 451.52 606.01
  L 434.07 605.99
  Q 433.48 605.99 433.48 605.40
  L 433.49 591.92
  L 433.48 566.71
  L 433.46 535.96
  L 433.47 514.32
  A 0.31 0.31 0.0 0 1 433.78 514.01
  L 452.23 514.00
  A 0.41 0.41 0.0 0 1 452.64 514.41
  L 452.63 525.04
  Z"
/>
<path fill="#ffffff" d="
  M 243.36 527.80
  L 243.28 532.49
  Q 243.28 533.01 242.76 533.01
  L 213.92 533.00
  Q 213.35 533.00 213.35 533.58
  L 213.30 550.53
  A 0.48 0.47 -0.0 0 0 213.78 551.00
  L 236.80 551.00
  Q 237.35 551.00 237.35 551.55
  L 237.33 568.46
  Q 237.33 569.00 236.79 569.00
  L 213.78 569.00
  Q 213.31 569.00 213.31 569.47
  L 213.32 587.78
  A 0.22 0.21 -90.0 0 0 213.53 588.00
  L 243.02 588.00
  A 0.51 0.51 0.0 0 1 243.53 588.52
  L 243.42 605.41
  A 0.59 0.58 -90.0 0 1 242.84 606.00
  L 194.80 606.00
  Q 194.30 606.00 194.30 605.49
  L 194.22 541.71
  L 194.26 515.52
  A 0.50 0.50 0.0 0 1 194.76 515.02
  L 242.72 514.99
  Q 243.37 514.99 243.37 515.64
  L 243.36 527.80
  Z"
/>
<path fill="#ffffff" d="
  M 366.27 534.50
  L 366.24 552.18
  A 2.61 2.61 0.0 0 1 365.44 554.06
  L 359.62 559.67
  A 0.52 0.52 0.0 0 0 359.62 560.43
  L 365.45 565.96
  A 2.03 2.02 -68.5 0 1 366.09 567.44
  L 366.16 605.29
  A 0.70 0.70 0.0 0 1 365.46 605.99
  L 347.88 606.03
  A 0.65 0.65 0.0 0 1 347.23 605.38
  L 347.28 575.13
  Q 347.28 574.47 346.81 574.01
  L 342.38 569.61
  Q 341.77 569.00 340.90 569.00
  L 330.19 568.99
  Q 329.61 568.99 329.61 569.56
  L 329.58 605.47
  A 0.55 0.54 -89.5 0 1 329.03 606.02
  L 311.25 606.00
  A 0.81 0.81 0.0 0 1 310.44 605.19
  L 310.36 533.02
  L 310.46 516.18
  A 1.11 1.11 0.0 0 1 311.57 515.08
  L 348.92 514.95
  A 2.83 2.81 -22.7 0 1 350.89 515.75
  Q 358.21 522.98 364.95 529.46
  C 366.36 530.81 366.45 532.65 366.27 534.50
  Z
  M 329.61 533.37
  L 329.57 550.61
  A 0.42 0.42 0.0 0 0 329.99 551.04
  L 338.49 551.05
  A 8.80 8.56 0.1 0 0 347.31 542.51
  L 347.31 541.55
  A 8.80 8.56 0.1 0 0 338.53 532.97
  L 330.03 532.96
  A 0.42 0.42 0.0 0 0 329.61 533.37
  Z"
/>
<path fill="#a21f4d" d="
  M 470.21 526.46
  L 470.19 552.48
  Q 470.19 553.00 469.67 552.99
  L 466.76 552.93
  Q 467.42 550.36 463.66 548.02
  Q 463.22 547.75 462.99 547.29
  Q 462.45 546.19 461.36 545.64
  Q 460.96 545.44 460.66 545.11
  L 454.78 538.73
  Q 454.23 538.13 453.60 538.65
  Q 453.40 538.82 453.26 538.60
  Q 452.81 537.88 452.74 538.73
  Q 452.69 539.40 452.63 540.04
  L 452.63 525.04
  L 452.77 523.33
  Q 452.81 522.87 453.25 522.76
  L 455.27 522.25
  Q 455.96 522.08 456.63 522.34
  Q 459.36 523.40 462.21 524.19
  Q 463.81 524.64 465.47 525.56
  Q 466.96 526.39 468.44 526.73
  Q 469.08 526.88 469.37 527.46
  Q 469.80 528.30 469.90 527.37
  Q 469.95 526.90 470.21 526.46
  Z"
/>
<path fill="#a21f4d" d="
  M 133.42 590.86
  L 146.77 604.01
  Q 145.58 604.19 146.08 605.76
  Q 146.64 607.51 146.82 609.35
  Q 146.86 609.85 147.15 610.26
  Q 147.63 610.96 147.80 611.82
  Q 147.90 612.35 148.28 612.72
  Q 149.20 613.61 149.84 614.77
  C 150.74 616.38 152.00 617.72 153.25 619.08
  Q 154.19 620.11 155.44 620.82
  Q 162.18 624.64 166.49 625.34
  Q 174.25 626.61 184.43 624.03
  Q 186.38 623.54 188.02 622.60
  C 190.10 621.41 192.31 621.19 194.45 620.22
  Q 196.16 619.44 198.25 619.20
  Q 198.76 619.14 199.23 619.33
  Q 199.72 619.52 200.16 619.29
  A 0.92 0.90 -47.2 0 1 200.95 619.25
  C 202.16 619.77 203.29 619.89 204.48 620.51
  Q 214.72 625.87 223.25 626.50
  Q 232.80 627.19 246.49 625.67
  Q 247.51 625.56 248.50 625.32
  Q 257.27 623.17 265.89 623.36
  Q 267.62 623.40 269.59 622.97
  C 272.93 622.23 276.08 621.63 278.99 619.78
  Q 282.00 617.85 284.55 616.35
  Q 285.64 615.71 286.24 614.57
  Q 286.49 614.10 287.03 614.12
  L 292.66 614.41
  Q 293.18 614.44 293.48 614.87
  Q 294.84 616.81 297.02 616.97
  Q 297.49 617.01 297.82 617.34
  Q 299.22 618.79 300.61 620.25
  Q 301.23 620.89 302.11 621.18
  Q 303.17 621.52 304.19 622.00
  Q 305.48 622.61 306.89 622.80
  C 308.54 623.03 310.06 623.58 311.74 623.67
  Q 322.20 624.21 329.44 623.73
  Q 334.95 623.37 339.89 620.14
  Q 340.48 619.76 341.15 619.90
  A 0.72 0.71 -63.0 0 0 341.84 619.67
  C 342.80 618.57 344.43 617.13 345.92 616.78
  Q 346.90 616.55 347.33 615.62
  Q 347.51 615.23 347.93 615.13
  Q 349.44 614.77 350.05 615.83
  Q 350.25 616.18 350.66 616.22
  Q 352.25 616.40 353.88 617.03
  Q 354.28 617.18 354.11 616.79
  Q 354.05 616.64 354.29 616.53
  Q 354.60 616.38 354.84 616.62
  Q 355.60 617.39 356.63 617.13
  A 1.48 1.47 56.2 0 1 357.89 617.38
  Q 363.62 621.71 369.76 621.82
  Q 374.51 621.90 380.49 620.30
  C 381.47 620.04 382.57 620.37 383.35 619.89
  Q 383.79 619.62 384.30 619.72
  C 386.08 620.06 387.85 619.74 389.60 620.38
  Q 396.68 622.98 403.21 624.82
  Q 407.68 626.07 415.60 625.92
  Q 417.82 625.88 419.76 625.23
  Q 421.83 624.52 423.91 623.93
  Q 425.58 623.45 427.25 622.75
  Q 428.71 622.13 430.19 621.81
  Q 433.20 621.15 436.42 619.09
  Q 437.01 618.71 437.72 618.75
  C 439.32 618.83 440.62 618.25 442.18 619.00
  C 443.80 619.77 445.38 620.12 447.14 620.42
  Q 448.21 620.60 449.32 620.96
  Q 453.87 622.42 456.26 621.81
  Q 457.74 621.43 459.50 621.21
  Q 460.51 621.08 459.63 621.59
  Q 459.28 621.78 458.91 621.88
  Q 458.85 621.90 458.85 621.83
  Q 458.85 621.75 458.86 621.85
  Q 458.87 621.91 458.93 621.90
  Q 464.44 620.52 467.52 617.37
  Q 470.58 614.24 475.01 614.77
  Q 477.82 615.11 480.34 615.69
  Q 483.45 616.40 485.25 619.42
  Q 485.43 619.72 485.36 620.06
  A 0.91 0.90 -61.8 0 0 485.59 620.84
  Q 487.98 623.31 491.33 623.34
  Q 495.18 623.38 499.08 622.66
  Q 499.60 622.57 499.93 622.16
  Q 503.72 617.48 503.52 612.18
  Q 503.44 610.03 503.94 608.03
  Q 504.49 605.80 504.98 603.19
  Q 505.67 599.49 505.74 595.40
  Q 506.10 574.33 505.77 562.75
  Q 505.56 555.67 504.65 547.48
  Q 503.92 540.84 500.63 535.64
  Q 496.84 529.66 489.28 526.94
  Q 489.14 526.60 489.30 525.47
  L 489.42 524.91
  Q 489.55 524.35 489.99 524.72
  Q 490.25 524.94 490.40 524.66
  Q 490.61 524.28 491.03 524.40
  Q 491.61 524.57 492.08 525.01
  Q 492.44 525.35 492.91 525.50
  Q 496.01 526.50 499.15 528.83
  Q 500.91 530.13 501.74 531.89
  Q 502.51 533.52 503.50 535.12
  Q 505.90 539.00 506.37 541.10
  Q 508.63 551.20 508.62 562.46
  Q 508.61 577.84 508.63 592.86
  Q 508.63 596.36 507.80 599.61
  Q 507.29 601.57 506.98 603.42
  Q 506.67 605.30 506.13 607.24
  Q 505.48 609.57 505.21 611.86
  Q 505.02 613.46 504.84 614.98
  Q 504.65 616.56 503.97 618.02
  Q 502.64 620.90 500.92 623.04
  Q 499.94 624.27 498.43 625.35
  Q 498.01 625.65 497.49 625.67
  Q 496.40 625.71 495.68 626.46
  A 1.40 1.39 -71.0 0 1 494.80 626.89
  Q 494.08 626.97 493.43 627.21
  Q 493.00 627.36 492.68 627.66
  Q 492.31 628.00 491.82 627.87
  A 0.86 0.85 28.2 0 0 490.92 628.14
  Q 489.00 630.45 486.78 628.26
  Q 485.23 626.73 483.48 625.57
  Q 482.93 625.21 483.06 625.86
  Q 483.09 626.03 482.80 626.03
  Q 482.65 626.03 482.51 625.95
  Q 480.33 624.65 477.49 623.93
  Q 476.97 623.80 476.48 624.00
  Q 475.30 624.47 473.93 624.14
  Q 473.34 624.00 472.79 624.24
  Q 470.26 625.30 467.83 626.37
  Q 467.34 626.59 466.87 627.12
  Q 466.45 627.60 465.86 627.87
  Q 463.40 629.01 460.36 629.94
  Q 457.41 630.84 454.77 630.51
  Q 450.56 629.99 445.94 628.99
  C 441.28 627.98 436.65 628.16 431.95 629.31
  Q 426.43 630.67 421.65 631.78
  Q 415.50 633.22 407.50 632.34
  Q 401.03 631.63 394.37 629.66
  C 392.48 629.10 390.50 628.88 388.58 628.36
  Q 387.42 628.05 386.28 628.12
  Q 382.78 628.35 379.16 629.36
  A 28.03 19.88 -5.6 0 1 375.33 630.25
  Q 370.35 631.17 365.84 630.14
  Q 362.37 629.34 359.09 627.51
  Q 356.66 626.15 354.25 625.58
  Q 351.78 624.98 349.06 624.96
  Q 348.17 624.96 347.55 625.61
  Q 347.22 625.95 346.77 626.07
  Q 344.53 626.71 342.53 627.86
  Q 340.71 628.91 338.56 629.63
  Q 335.65 630.60 333.34 630.85
  Q 323.78 631.88 313.75 631.61
  Q 309.27 631.48 304.45 630.61
  Q 304.31 630.58 304.24 630.45
  Q 304.14 630.24 303.91 630.19
  Q 301.17 629.62 298.53 628.30
  Q 297.23 627.65 295.76 627.40
  Q 294.18 627.12 292.52 626.66
  Q 290.36 626.06 287.62 626.13
  Q 285.61 626.18 283.69 627.00
  Q 276.77 629.96 270.75 630.54
  Q 266.71 630.93 262.02 630.99
  Q 258.13 631.04 252.62 631.66
  Q 235.22 633.59 228.33 633.49
  Q 223.06 633.42 216.15 632.31
  Q 213.81 631.94 211.59 631.13
  Q 207.66 629.71 203.82 628.64
  Q 202.02 628.14 200.10 627.93
  Q 198.41 627.74 196.44 628.19
  Q 192.80 629.03 189.00 630.13
  Q 180.25 632.67 170.12 632.43
  Q 167.80 632.38 164.99 631.61
  Q 162.48 630.93 159.91 630.36
  Q 158.80 630.12 157.50 629.18
  Q 156.37 628.37 155.47 627.41
  Q 153.84 625.66 151.66 624.52
  A 2.80 2.78 5.0 0 1 150.30 622.91
  Q 149.57 620.69 147.77 619.08
  Q 146.56 618.00 145.57 616.91
  Q 141.07 611.95 138.14 605.45
  Q 137.56 604.14 137.50 602.77
  Q 137.42 601.00 136.74 599.37
  Q 136.51 598.82 136.61 598.21
  A 1.28 1.25 -57.4 0 0 136.42 597.31
  L 133.19 592.33
  Q 132.88 591.84 133.35 591.51
  Q 134.21 590.90 133.42 590.86
  Z"
/>
<path fill="#701635" d="
  M 250.00 529.29
  Q 249.10 530.11 249.11 532.25
  Q 249.32 563.58 249.01 599.75
  Q 248.98 602.74 249.28 605.35
  Q 249.35 605.99 249.99 605.99
  L 267.00 606.00
  A 1.25 1.25 0.0 0 0 268.25 604.75
  L 268.19 569.65
  A 0.66 0.65 -0.0 0 1 268.85 569.00
  L 285.23 569.00
  A 0.48 0.48 0.0 0 1 285.71 569.48
  L 285.60 605.17
  Q 285.60 606.00 286.42 606.00
  L 304.02 606.00
  A 0.65 0.64 -0.0 0 0 304.67 605.36
  L 304.75 534.56
  Q 306.64 530.14 310.36 533.02
  L 310.44 605.19
  A 0.81 0.81 0.0 0 0 311.25 606.00
  L 329.03 606.02
  A 0.55 0.54 -89.5 0 0 329.58 605.47
  L 329.61 569.56
  Q 329.61 568.99 330.19 568.99
  L 340.90 569.00
  Q 341.77 569.00 342.38 569.61
  L 346.81 574.01
  Q 347.28 574.47 347.28 575.13
  L 347.23 605.38
  A 0.65 0.65 0.0 0 0 347.88 606.03
  L 365.46 605.99
  A 0.70 0.70 0.0 0 0 366.16 605.29
  L 366.09 567.44
  A 2.03 2.02 -68.5 0 0 365.45 565.96
  L 359.62 560.43
  A 0.52 0.52 0.0 0 1 359.62 559.67
  L 365.44 554.06
  A 2.61 2.61 0.0 0 0 366.24 552.18
  L 366.27 534.50
  L 366.86 531.59
  Q 366.96 531.08 367.42 531.33
  Q 371.10 533.35 371.93 531.03
  L 372.19 589.25
  A 2.36 2.34 22.7 0 0 372.88 590.91
  L 386.75 604.81
  A 4.08 4.06 -22.4 0 0 389.63 606.00
  Q 399.68 605.97 410.15 606.02
  Q 411.66 606.03 412.69 604.94
  Q 418.96 598.28 426.69 591.44
  Q 427.55 592.20 429.64 591.28
  Q 431.36 590.53 433.49 591.92
  L 433.48 605.40
  Q 433.48 605.99 434.07 605.99
  L 451.52 606.01
  A 1.04 1.04 0.0 0 0 452.56 604.98
  L 452.58 571.58
  Q 452.58 570.99 453.17 570.99
  L 469.76 570.98
  Q 470.29 570.98 470.29 571.51
  L 470.21 605.05
  A 0.84 0.84 0.0 0 0 471.05 605.89
  L 487.98 605.92
  A 1.25 1.25 0.0 0 0 489.23 604.67
  L 489.28 526.94
  Q 496.84 529.66 500.63 535.64
  Q 503.92 540.84 504.65 547.48
  Q 505.56 555.67 505.77 562.75
  Q 506.10 574.33 505.74 595.40
  Q 505.67 599.49 504.98 603.19
  Q 504.49 605.80 503.94 608.03
  Q 503.44 610.03 503.52 612.18
  Q 503.72 617.48 499.93 622.16
  Q 499.60 622.57 499.08 622.66
  Q 495.18 623.38 491.33 623.34
  Q 487.98 623.31 485.59 620.84
  A 0.91 0.90 -61.8 0 1 485.36 620.06
  Q 485.43 619.72 485.25 619.42
  Q 483.45 616.40 480.34 615.69
  Q 477.82 615.11 475.01 614.77
  Q 470.58 614.24 467.52 617.37
  Q 464.44 620.52 458.93 621.90
  Q 458.87 621.91 458.86 621.85
  Q 458.85 621.75 458.85 621.83
  Q 458.85 621.90 458.91 621.88
  Q 459.28 621.78 459.63 621.59
  Q 460.51 621.08 459.50 621.21
  Q 457.74 621.43 456.26 621.81
  Q 453.87 622.42 449.32 620.96
  Q 448.21 620.60 447.14 620.42
  C 445.38 620.12 443.80 619.77 442.18 619.00
  C 440.62 618.25 439.32 618.83 437.72 618.75
  Q 437.01 618.71 436.42 619.09
  Q 433.20 621.15 430.19 621.81
  Q 428.71 622.13 427.25 622.75
  Q 425.58 623.45 423.91 623.93
  Q 421.83 624.52 419.76 625.23
  Q 417.82 625.88 415.60 625.92
  Q 407.68 626.07 403.21 624.82
  Q 396.68 622.98 389.60 620.38
  C 387.85 619.74 386.08 620.06 384.30 619.72
  Q 383.79 619.62 383.35 619.89
  C 382.57 620.37 381.47 620.04 380.49 620.30
  Q 374.51 621.90 369.76 621.82
  Q 363.62 621.71 357.89 617.38
  A 1.48 1.47 56.2 0 0 356.63 617.13
  Q 355.60 617.39 354.84 616.62
  Q 354.60 616.38 354.29 616.53
  Q 354.05 616.64 354.11 616.79
  Q 354.28 617.18 353.88 617.03
  Q 352.25 616.40 350.66 616.22
  Q 350.25 616.18 350.05 615.83
  Q 349.44 614.77 347.93 615.13
  Q 347.51 615.23 347.33 615.62
  Q 346.90 616.55 345.92 616.78
  C 344.43 617.13 342.80 618.57 341.84 619.67
  A 0.72 0.71 -63.0 0 1 341.15 619.90
  Q 340.48 619.76 339.89 620.14
  Q 334.95 623.37 329.44 623.73
  Q 322.20 624.21 311.74 623.67
  C 310.06 623.58 308.54 623.03 306.89 622.80
  Q 305.48 622.61 304.19 622.00
  Q 303.17 621.52 302.11 621.18
  Q 301.23 620.89 300.61 620.25
  Q 299.22 618.79 297.82 617.34
  Q 297.49 617.01 297.02 616.97
  Q 294.84 616.81 293.48 614.87
  Q 293.18 614.44 292.66 614.41
  L 287.03 614.12
  Q 286.49 614.10 286.24 614.57
  Q 285.64 615.71 284.55 616.35
  Q 282.00 617.85 278.99 619.78
  C 276.08 621.63 272.93 622.23 269.59 622.97
  Q 267.62 623.40 265.89 623.36
  Q 257.27 623.17 248.50 625.32
  Q 247.51 625.56 246.49 625.67
  Q 232.80 627.19 223.25 626.50
  Q 214.72 625.87 204.48 620.51
  C 203.29 619.89 202.16 619.77 200.95 619.25
  A 0.92 0.90 -47.2 0 0 200.16 619.29
  Q 199.72 619.52 199.23 619.33
  Q 198.76 619.14 198.25 619.20
  Q 196.16 619.44 194.45 620.22
  C 192.31 621.19 190.10 621.41 188.02 622.60
  Q 186.38 623.54 184.43 624.03
  Q 174.25 626.61 166.49 625.34
  Q 162.18 624.64 155.44 620.82
  Q 154.19 620.11 153.25 619.08
  C 152.00 617.72 150.74 616.38 149.84 614.77
  Q 149.20 613.61 148.28 612.72
  Q 147.90 612.35 147.80 611.82
  Q 147.63 610.96 147.15 610.26
  Q 146.86 609.85 146.82 609.35
  Q 146.64 607.51 146.08 605.76
  Q 145.58 604.19 146.77 604.01
  Q 148.52 605.98 149.74 605.98
  Q 160.62 606.02 171.35 605.98
  Q 172.33 605.98 173.01 605.29
  L 187.74 590.43
  A 2.12 2.11 -22.3 0 0 188.36 588.96
  L 188.52 567.79
  A 1.99 1.94 23.3 0 0 187.94 566.38
  L 173.10 551.51
  A 2.75 2.70 66.9 0 0 171.19 550.72
  L 157.64 550.70
  A 1.65 1.62 -21.3 0 1 156.45 550.19
  L 152.10 545.65
  Q 151.74 545.27 151.74 544.75
  L 151.74 538.68
  Q 151.74 537.94 152.27 537.40
  L 156.41 533.23
  A 1.44 1.42 -67.3 0 1 157.42 532.81
  L 163.51 532.77
  Q 164.13 532.76 164.57 533.20
  L 169.04 537.66
  A 1.19 1.18 22.2 0 1 169.40 538.51
  L 169.49 544.23
  Q 169.50 544.96 170.23 544.96
  L 187.54 544.95
  Q 188.31 544.95 188.31 544.17
  L 188.33 533.32
  Q 189.17 531.62 191.49 531.92
  Q 192.37 532.03 193.12 531.23
  Q 193.47 530.86 193.50 531.37
  L 194.22 541.71
  L 194.30 605.49
  Q 194.30 606.00 194.80 606.00
  L 242.84 606.00
  A 0.59 0.58 90.0 0 0 243.42 605.41
  L 243.53 588.52
  A 0.51 0.51 0.0 0 0 243.02 588.00
  L 213.53 588.00
  A 0.22 0.21 90.0 0 1 213.32 587.78
  L 213.31 569.47
  Q 213.31 569.00 213.78 569.00
  L 236.79 569.00
  Q 237.33 569.00 237.33 568.46
  L 237.35 551.55
  Q 237.35 551.00 236.80 551.00
  L 213.78 551.00
  A 0.48 0.47 0.0 0 1 213.30 550.53
  L 213.35 533.58
  Q 213.35 533.00 213.92 533.00
  L 242.76 533.01
  Q 243.28 533.01 243.28 532.49
  L 243.36 527.80
  Q 243.62 527.29 243.60 526.60
  Q 243.58 526.11 244.05 526.23
  Q 247.33 527.06 250.00 529.29
  Z"
/>
<path fill="#701635" d="
  M 268.66 551.00
  A 0.58 0.58 0.0 0 1 268.08 550.42
  L 268.08 541.17
  A 8.45 8.36 90.0 0 1 276.44 532.72
  L 277.36 532.72
  A 8.45 8.36 90.0 0 1 285.72 541.17
  L 285.72 550.42
  A 0.58 0.58 0.0 0 1 285.14 551.00
  L 268.66 551.00
  Z"
/>
<path fill="#701635" d="
  M 427.65 535.46
  C 429.73 534.02 432.29 533.08 433.46 535.96
  L 433.48 566.71
  Q 433.23 566.75 433.04 566.94
  Q 432.73 567.23 432.86 566.82
  Q 432.89 566.73 432.85 566.63
  Q 432.79 566.42 432.58 566.49
  Q 432.54 566.51 432.49 566.53
  Q 432.35 566.60 432.20 566.48
  Q 430.15 564.78 427.64 564.69
  Q 427.18 564.68 426.93 564.29
  Q 426.57 563.75 425.94 563.62
  Q 423.26 563.05 420.33 562.52
  Q 417.27 561.97 414.72 562.79
  Q 409.54 564.47 407.38 570.27
  Q 405.34 575.78 407.30 580.73
  A 0.73 0.72 -10.5 0 0 407.98 581.19
  Q 408.67 581.20 408.57 581.52
  Q 408.56 581.83 408.49 582.13
  Q 408.42 582.43 408.21 582.66
  Q 406.12 584.92 403.94 586.96
  Q 403.52 587.35 402.93 587.35
  L 396.73 587.34
  Q 396.16 587.34 395.77 586.94
  L 391.60 582.73
  Q 391.20 582.33 391.19 581.75
  C 391.11 573.74 390.69 565.28 391.00 556.92
  Q 391.06 555.47 391.00 553.87
  Q 390.74 546.76 391.01 539.66
  C 391.11 537.01 393.69 535.18 395.56 533.46
  Q 396.08 532.98 396.78 532.92
  C 399.36 532.69 402.98 532.08 405.07 534.21
  Q 406.66 535.83 408.09 537.32
  A 1.82 1.78 -70.9 0 1 408.59 538.38
  Q 408.89 541.22 408.58 544.20
  A 0.68 0.67 -87.3 0 0 409.25 544.94
  L 427.21 544.99
  A 0.43 0.42 90.0 0 0 427.63 544.56
  L 427.65 535.46
  Z"
/>
<path fill="#701635" d="
  M 329.61 533.37
  A 0.42 0.42 0.0 0 1 330.03 532.96
  L 338.53 532.97
  A 8.80 8.56 0.1 0 1 347.31 541.55
  L 347.31 542.51
  A 8.80 8.56 0.1 0 1 338.49 551.05
  L 329.99 551.04
  A 0.42 0.42 0.0 0 1 329.57 550.61
  L 329.61 533.37
  Z"
/>
<path fill="#701635" d="
  M 466.76 552.93
  L 453.30 552.95
  Q 452.77 552.95 452.77 552.43
  L 452.63 540.04
  Q 452.69 539.40 452.74 538.73
  Q 452.81 537.88 453.26 538.60
  Q 453.40 538.82 453.60 538.65
  Q 454.23 538.13 454.78 538.73
  L 460.66 545.11
  Q 460.96 545.44 461.36 545.64
  Q 462.45 546.19 462.99 547.29
  Q 463.22 547.75 463.66 548.02
  Q 467.42 550.36 466.76 552.93
  Z"
/>
<path fill="#a21f4d" d="
  M 433.48 566.71
  L 433.49 591.92
  Q 431.36 590.53 429.64 591.28
  Q 427.55 592.20 426.69 591.44
  Q 428.16 584.53 427.72 576.10
  A 1.11 1.11 0.0 0 0 426.60 575.04
  L 409.51 575.07
  A 0.89 0.88 -89.7 0 0 408.63 575.95
  L 408.57 581.52
  Q 408.67 581.20 407.98 581.19
  A 0.73 0.72 -10.5 0 1 407.30 580.73
  Q 405.34 575.78 407.38 570.27
  Q 409.54 564.47 414.72 562.79
  Q 417.27 561.97 420.33 562.52
  Q 423.26 563.05 425.94 563.62
  Q 426.57 563.75 426.93 564.29
  Q 427.18 564.68 427.64 564.69
  Q 430.15 564.78 432.20 566.48
  Q 432.35 566.60 432.49 566.53
  Q 432.54 566.51 432.58 566.49
  Q 432.79 566.42 432.85 566.63
  Q 432.89 566.73 432.86 566.82
  Q 432.73 567.23 433.04 566.94
  Q 433.23 566.75 433.48 566.71
  Z"
/>
<path fill="#701635" d="
  M 148.65 569.11
  L 162.54 569.23
  A 3.41 3.35 65.0 0 1 164.70 570.04
  C 166.44 571.51 169.46 573.84 169.49 576.41
  C 169.51 579.03 170.00 581.62 167.82 583.65
  Q 166.11 585.22 164.62 586.69
  A 1.73 1.71 22.2 0 1 163.44 587.18
  L 157.57 587.22
  A 1.74 1.70 66.9 0 1 156.32 586.70
  L 152.27 582.61
  Q 151.83 582.17 151.80 581.55
  L 151.48 574.97
  L 148.92 574.44
  Q 148.21 574.30 148.73 573.78
  L 149.01 573.49
  Q 149.11 573.39 149.06 573.26
  Q 147.98 570.72 148.65 569.11
  Z"
/>
</svg>
