<?xml version="1.0" encoding="UTF-8" standalone="no"?>
<!DOCTYPE svg PUBLIC "-//W3C//DTD SVG 1.1//EN" "http://www.w3.org/Graphics/SVG/1.1/DTD/svg11.dtd">
<svg xmlns="http://www.w3.org/2000/svg" version="1.1" viewBox="0.00 0.00 612.00 1080.00">
<g stroke-width="2.00" fill="none" stroke-linecap="butt">
<path stroke="#89898a" vector-effect="non-scaling-stroke" d="
  M 146.29 436.27
  L 146.34 393.35
  A 0.35 0.35 0.0 0 0 145.99 393.00
  L 124.01 393.00
  A 0.33 0.33 0.0 0 0 123.68 393.33
  L 123.69 501.47
  A 0.53 0.53 0.0 0 0 124.22 502.00
  L 145.78 502.00
  A 0.53 0.53 0.0 0 0 146.31 501.47
  L 146.30 459.60
  Q 146.30 459.00 146.90 459.00
  L 160.39 459.00
  Q 161.03 459.00 161.49 459.45
  L 166.81 464.68
  Q 167.41 465.27 167.41 466.12
  L 167.41 501.39
  Q 167.41 502.00 168.02 502.00
  L 189.24 502.00
  Q 189.73 502.00 189.73 501.51
  L 189.79 456.41
  A 1.23 1.21 -68.6 0 0 189.41 455.52
  L 181.96 448.21
  A 0.38 0.38 0.0 0 1 181.96 447.67
  L 189.32 440.62
  A 1.50 1.47 -22.6 0 0 189.77 439.56
  L 189.74 393.49
  Q 189.74 393.00 189.24 393.00
  L 168.01 393.00
  Q 167.37 393.00 167.37 393.64
  Q 167.44 412.01 167.38 429.17
  Q 167.37 430.71 166.25 431.83
  Q 163.92 434.17 161.73 436.30
  A 2.48 2.46 -67.0 0 1 160.01 437.00
  L 147.02 437.01
  Q 146.29 437.01 146.29 436.27"
/>
<path stroke="#89898a" vector-effect="non-scaling-stroke" d="
  M 219.71 437.00
  A 0.42 0.42 0.0 0 1 219.29 436.58
  L 219.28 415.42
  A 0.42 0.42 0.0 0 1 219.70 415.00
  L 254.41 415.00
  A 0.42 0.42 0.0 0 0 254.83 414.58
  L 254.84 393.42
  A 0.42 0.42 0.0 0 0 254.42 393.00
  L 197.14 393.00
  A 0.42 0.42 0.0 0 0 196.72 393.42
  L 196.71 501.58
  A 0.42 0.42 0.0 0 0 197.13 502.00
  L 254.39 502.00
  A 0.42 0.42 0.0 0 0 254.81 501.58
  L 254.83 480.42
  A 0.42 0.42 0.0 0 0 254.41 480.00
  L 219.71 480.00
  A 0.42 0.42 0.0 0 1 219.29 479.58
  L 219.31 459.42
  A 0.42 0.42 0.0 0 1 219.73 459.00
  L 247.33 459.00
  A 0.42 0.42 0.0 0 0 247.75 458.58
  L 247.75 437.42
  A 0.42 0.42 0.0 0 0 247.33 437.00
  L 219.71 437.00"
/>
<path stroke="#89898a" vector-effect="non-scaling-stroke" d="
  M 307.21 444.78
  A 0.24 0.24 0.0 0 1 306.75 444.87
  L 284.52 393.51
  Q 284.30 393.00 283.74 393.00
  L 262.08 393.00
  A 0.42 0.41 90.0 0 0 261.67 393.42
  L 261.65 501.58
  A 0.43 0.42 -0.0 0 0 262.08 502.00
  L 283.85 501.99
  Q 284.44 501.99 284.44 501.40
  L 284.19 450.33
  Q 284.19 448.94 284.74 450.21
  L 306.91 501.62
  Q 307.07 502.00 307.48 502.00
  L 328.97 502.00
  Q 329.57 502.00 329.57 501.40
  L 329.62 393.30
  A 0.31 0.30 0.0 0 0 329.31 393.00
  L 307.72 393.00
  Q 307.20 393.00 307.20 393.53
  L 307.21 444.78"
/>
<path stroke="#89898a" vector-effect="non-scaling-stroke" d="
  M 336.50 414.61
  A 0.39 0.39 0.0 0 0 336.89 415.00
  L 375.54 415.00
  A 0.39 0.39 0.0 0 1 375.88 415.59
  L 336.56 479.90
  A 0.39 0.39 0.0 0 0 336.50 480.10
  L 336.50 501.61
  A 0.39 0.39 0.0 0 0 336.89 502.00
  L 402.11 502.00
  A 0.39 0.39 0.0 0 0 402.50 501.61
  L 402.50 480.39
  A 0.39 0.39 0.0 0 0 402.11 480.00
  L 363.66 480.00
  A 0.39 0.39 0.0 0 1 363.33 479.41
  L 402.45 415.11
  A 0.39 0.39 0.0 0 0 402.51 414.91
  L 402.50 393.39
  A 0.39 0.39 0.0 0 0 402.11 393.00
  L 336.88 393.00
  A 0.39 0.39 0.0 0 0 336.49 393.39
  L 336.50 414.61"
/>
<path stroke="#89898a" vector-effect="non-scaling-stroke" d="
  M 432.14 393.29
  A 0.29 0.29 0.0 0 0 431.85 393.00
  L 409.79 393.00
  A 0.29 0.29 0.0 0 0 409.50 393.29
  L 409.50 501.71
  A 0.29 0.29 0.0 0 0 409.79 502.00
  L 431.85 502.00
  A 0.29 0.29 0.0 0 0 432.14 501.71
  L 432.14 393.29"
/>
<path stroke="#89898a" vector-effect="non-scaling-stroke" d="
  M 461.93 480.00
  A 0.34 0.34 0.0 0 1 461.59 479.66
  L 461.59 459.34
  A 0.34 0.34 0.0 0 1 461.93 459.00
  L 489.86 459.00
  A 0.34 0.34 0.0 0 0 490.20 458.66
  L 490.20 437.35
  A 0.34 0.34 0.0 0 0 489.86 437.01
  L 461.92 437.00
  A 0.34 0.34 0.0 0 1 461.58 436.66
  L 461.61 415.34
  A 0.34 0.34 0.0 0 1 461.95 415.00
  L 496.99 415.00
  A 0.34 0.34 0.0 0 0 497.33 414.66
  L 497.32 393.34
  A 0.34 0.34 0.0 0 0 496.98 393.00
  L 439.54 393.00
  A 0.34 0.34 0.0 0 0 439.20 393.34
  L 439.22 501.66
  A 0.34 0.34 0.0 0 0 439.56 502.00
  L 496.99 502.00
  A 0.34 0.34 0.0 0 0 497.33 501.66
  L 497.36 480.34
  A 0.34 0.34 0.0 0 0 497.02 480.00
  L 461.93 480.00"
/>
<path stroke="#89898a" vector-effect="non-scaling-stroke" d="
  M 227.67 584.00
  A 0.41 0.41 0.0 0 1 227.26 583.59
  L 227.32 539.41
  A 0.41 0.41 0.0 0 0 226.91 539.00
  L 205.11 539.00
  A 0.41 0.41 0.0 0 0 204.70 539.41
  L 204.70 647.59
  A 0.41 0.41 0.0 0 0 205.11 648.00
  L 226.94 648.00
  A 0.41 0.41 0.0 0 0 227.35 647.59
  L 227.27 606.41
  A 0.41 0.41 0.0 0 1 227.68 606.00
  L 248.00 606.00
  A 0.41 0.41 0.0 0 1 248.41 606.41
  L 248.40 647.59
  A 0.41 0.41 0.0 0 0 248.81 648.00
  L 270.39 648.00
  A 0.41 0.41 0.0 0 0 270.80 647.59
  L 270.80 539.41
  A 0.41 0.41 0.0 0 0 270.39 539.00
  L 248.81 539.00
  A 0.41 0.41 0.0 0 0 248.40 539.41
  L 248.41 583.59
  A 0.41 0.41 0.0 0 1 248.00 584.00
  L 227.67 584.00"
/>
<path stroke="#89898a" vector-effect="non-scaling-stroke" d="
  M 321.41 619.39
  A 0.39 0.39 0.0 0 1 321.30 619.66
  L 315.12 625.88
  A 0.39 0.39 0.0 0 1 314.85 626.00
  L 306.76 625.99
  A 0.39 0.39 0.0 0 1 306.49 625.88
  L 300.35 619.70
  A 0.39 0.39 0.0 0 1 300.24 619.43
  L 300.30 539.39
  A 0.39 0.39 0.0 0 0 299.91 539.00
  L 278.07 539.00
  A 0.39 0.39 0.0 0 0 277.68 539.39
  L 277.72 628.68
  A 0.39 0.39 0.0 0 0 277.83 628.95
  L 296.78 647.89
  A 0.39 0.39 0.0 0 0 297.05 648.00
  L 324.66 648.00
  A 0.39 0.39 0.0 0 0 324.93 647.89
  L 343.68 629.16
  A 0.39 0.39 0.0 0 0 343.79 628.89
  L 343.80 539.39
  A 0.39 0.39 0.0 0 0 343.41 539.00
  L 321.77 539.00
  A 0.39 0.39 0.0 0 0 321.38 539.39
  L 321.41 619.39"
/>
<path stroke="#89898a" vector-effect="non-scaling-stroke" d="
  M 408.93 594.30
  A 0.42 0.42 0.0 0 1 408.93 593.70
  L 416.68 586.05
  A 0.42 0.42 0.0 0 0 416.80 585.75
  L 416.81 558.17
  A 0.42 0.42 0.0 0 0 416.69 557.88
  L 397.93 539.12
  A 0.42 0.42 0.0 0 0 397.64 539.00
  L 351.09 539.00
  A 0.42 0.42 0.0 0 0 350.67 539.42
  L 350.72 647.55
  A 0.42 0.42 0.0 0 0 351.14 647.97
  L 397.65 648.01
  A 0.42 0.42 0.0 0 0 397.94 647.89
  L 416.70 629.11
  A 0.42 0.42 0.0 0 0 416.82 628.82
  L 416.78 602.23
  A 0.42 0.42 0.0 0 0 416.66 601.93
  L 408.93 594.30"
/>
<path stroke="#89898a" vector-effect="non-scaling-stroke" d="
  M 388.05 561.15
  A 0.50 0.50 0.0 0 0 387.69 561.00
  L 373.82 561.00
  A 0.50 0.50 0.0 0 0 373.32 561.50
  L 373.29 582.50
  A 0.50 0.50 0.0 0 0 373.79 583.00
  L 387.72 583.00
  A 0.50 0.50 0.0 0 0 388.08 582.85
  L 394.26 576.59
  A 0.50 0.50 0.0 0 0 394.40 576.24
  L 394.43 567.80
  A 0.50 0.50 0.0 0 0 394.28 567.44
  L 388.05 561.15"
/>
<path stroke="#89898a" vector-effect="non-scaling-stroke" d="
  M 388.05 605.12
  A 0.43 0.43 0.0 0 0 387.76 605.00
  L 373.73 605.00
  A 0.43 0.43 0.0 0 0 373.30 605.43
  L 373.30 625.56
  A 0.43 0.43 0.0 0 0 373.73 625.99
  L 387.75 626.00
  A 0.43 0.43 0.0 0 0 388.05 625.88
  L 394.26 619.85
  A 0.43 0.43 0.0 0 0 394.39 619.54
  L 394.45 611.42
  A 0.43 0.43 0.0 0 0 394.32 611.10
  L 388.05 605.12"
/>
</g>
<path fill="#121214" d="
  M 0.00 0.00
  L 612.00 0.00
  L 612.00 1080.00
  L 0.00 1080.00
  L 0.00 0.00
  Z
  M 146.29 436.27
  L 146.34 393.35
  A 0.35 0.35 0.0 0 0 145.99 393.00
  L 124.01 393.00
  A 0.33 0.33 0.0 0 0 123.68 393.33
  L 123.69 501.47
  A 0.53 0.53 0.0 0 0 124.22 502.00
  L 145.78 502.00
  A 0.53 0.53 0.0 0 0 146.31 501.47
  L 146.30 459.60
  Q 146.30 459.00 146.90 459.00
  L 160.39 459.00
  Q 161.03 459.00 161.49 459.45
  L 166.81 464.68
  Q 167.41 465.27 167.41 466.12
  L 167.41 501.39
  Q 167.41 502.00 168.02 502.00
  L 189.24 502.00
  Q 189.73 502.00 189.73 501.51
  L 189.79 456.41
  A 1.23 1.21 -68.6 0 0 189.41 455.52
  L 181.96 448.21
  A 0.38 0.38 0.0 0 1 181.96 447.67
  L 189.32 440.62
  A 1.50 1.47 -22.6 0 0 189.77 439.56
  L 189.74 393.49
  Q 189.74 393.00 189.24 393.00
  L 168.01 393.00
  Q 167.37 393.00 167.37 393.64
  Q 167.44 412.01 167.38 429.17
  Q 167.37 430.71 166.25 431.83
  Q 163.92 434.17 161.73 436.30
  A 2.48 2.46 -67.0 0 1 160.01 437.00
  L 147.02 437.01
  Q 146.29 437.01 146.29 436.27
  Z
  M 219.71 437.00
  A 0.42 0.42 0.0 0 1 219.29 436.58
  L 219.28 415.42
  A 0.42 0.42 0.0 0 1 219.70 415.00
  L 254.41 415.00
  A 0.42 0.42 0.0 0 0 254.83 414.58
  L 254.84 393.42
  A 0.42 0.42 0.0 0 0 254.42 393.00
  L 197.14 393.00
  A 0.42 0.42 0.0 0 0 196.72 393.42
  L 196.71 501.58
  A 0.42 0.42 0.0 0 0 197.13 502.00
  L 254.39 502.00
  A 0.42 0.42 0.0 0 0 254.81 501.58
  L 254.83 480.42
  A 0.42 0.42 0.0 0 0 254.41 480.00
  L 219.71 480.00
  A 0.42 0.42 0.0 0 1 219.29 479.58
  L 219.31 459.42
  A 0.42 0.42 0.0 0 1 219.73 459.00
  L 247.33 459.00
  A 0.42 0.42 0.0 0 0 247.75 458.58
  L 247.75 437.42
  A 0.42 0.42 0.0 0 0 247.33 437.00
  L 219.71 437.00
  Z
  M 307.21 444.78
  A 0.24 0.24 0.0 0 1 306.75 444.87
  L 284.52 393.51
  Q 284.30 393.00 283.74 393.00
  L 262.08 393.00
  A 0.42 0.41 90.0 0 0 261.67 393.42
  L 261.65 501.58
  A 0.43 0.42 -0.0 0 0 262.08 502.00
  L 283.85 501.99
  Q 284.44 501.99 284.44 501.40
  L 284.19 450.33
  Q 284.19 448.94 284.74 450.21
  L 306.91 501.62
  Q 307.07 502.00 307.48 502.00
  L 328.97 502.00
  Q 329.57 502.00 329.57 501.40
  L 329.62 393.30
  A 0.31 0.30 0.0 0 0 329.31 393.00
  L 307.72 393.00
  Q 307.20 393.00 307.20 393.53
  L 307.21 444.78
  Z
  M 336.50 414.61
  A 0.39 0.39 0.0 0 0 336.89 415.00
  L 375.54 415.00
  A 0.39 0.39 0.0 0 1 375.88 415.59
  L 336.56 479.90
  A 0.39 0.39 0.0 0 0 336.50 480.10
  L 336.50 501.61
  A 0.39 0.39 0.0 0 0 336.89 502.00
  L 402.11 502.00
  A 0.39 0.39 0.0 0 0 402.50 501.61
  L 402.50 480.39
  A 0.39 0.39 0.0 0 0 402.11 480.00
  L 363.66 480.00
  A 0.39 0.39 0.0 0 1 363.33 479.41
  L 402.45 415.11
  A 0.39 0.39 0.0 0 0 402.51 414.91
  L 402.50 393.39
  A 0.39 0.39 0.0 0 0 402.11 393.00
  L 336.88 393.00
  A 0.39 0.39 0.0 0 0 336.49 393.39
  L 336.50 414.61
  Z
  M 432.14 393.29
  A 0.29 0.29 0.0 0 0 431.85 393.00
  L 409.79 393.00
  A 0.29 0.29 0.0 0 0 409.50 393.29
  L 409.50 501.71
  A 0.29 0.29 0.0 0 0 409.79 502.00
  L 431.85 502.00
  A 0.29 0.29 0.0 0 0 432.14 501.71
  L 432.14 393.29
  Z
  M 461.93 480.00
  A 0.34 0.34 0.0 0 1 461.59 479.66
  L 461.59 459.34
  A 0.34 0.34 0.0 0 1 461.93 459.00
  L 489.86 459.00
  A 0.34 0.34 0.0 0 0 490.20 458.66
  L 490.20 437.35
  A 0.34 0.34 0.0 0 0 489.86 437.01
  L 461.92 437.00
  A 0.34 0.34 0.0 0 1 461.58 436.66
  L 461.61 415.34
  A 0.34 0.34 0.0 0 1 461.95 415.00
  L 496.99 415.00
  A 0.34 0.34 0.0 0 0 497.33 414.66
  L 497.32 393.34
  A 0.34 0.34 0.0 0 0 496.98 393.00
  L 439.54 393.00
  A 0.34 0.34 0.0 0 0 439.20 393.34
  L 439.22 501.66
  A 0.34 0.34 0.0 0 0 439.56 502.00
  L 496.99 502.00
  A 0.34 0.34 0.0 0 0 497.33 501.66
  L 497.36 480.34
  A 0.34 0.34 0.0 0 0 497.02 480.00
  L 461.93 480.00
  Z
  M 227.67 584.00
  A 0.41 0.41 0.0 0 1 227.26 583.59
  L 227.32 539.41
  A 0.41 0.41 0.0 0 0 226.91 539.00
  L 205.11 539.00
  A 0.41 0.41 0.0 0 0 204.70 539.41
  L 204.70 647.59
  A 0.41 0.41 0.0 0 0 205.11 648.00
  L 226.94 648.00
  A 0.41 0.41 0.0 0 0 227.35 647.59
  L 227.27 606.41
  A 0.41 0.41 0.0 0 1 227.68 606.00
  L 248.00 606.00
  A 0.41 0.41 0.0 0 1 248.41 606.41
  L 248.40 647.59
  A 0.41 0.41 0.0 0 0 248.81 648.00
  L 270.39 648.00
  A 0.41 0.41 0.0 0 0 270.80 647.59
  L 270.80 539.41
  A 0.41 0.41 0.0 0 0 270.39 539.00
  L 248.81 539.00
  A 0.41 0.41 0.0 0 0 248.40 539.41
  L 248.41 583.59
  A 0.41 0.41 0.0 0 1 248.00 584.00
  L 227.67 584.00
  Z
  M 321.41 619.39
  A 0.39 0.39 0.0 0 1 321.30 619.66
  L 315.12 625.88
  A 0.39 0.39 0.0 0 1 314.85 626.00
  L 306.76 625.99
  A 0.39 0.39 0.0 0 1 306.49 625.88
  L 300.35 619.70
  A 0.39 0.39 0.0 0 1 300.24 619.43
  L 300.30 539.39
  A 0.39 0.39 0.0 0 0 299.91 539.00
  L 278.07 539.00
  A 0.39 0.39 0.0 0 0 277.68 539.39
  L 277.72 628.68
  A 0.39 0.39 0.0 0 0 277.83 628.95
  L 296.78 647.89
  A 0.39 0.39 0.0 0 0 297.05 648.00
  L 324.66 648.00
  A 0.39 0.39 0.0 0 0 324.93 647.89
  L 343.68 629.16
  A 0.39 0.39 0.0 0 0 343.79 628.89
  L 343.80 539.39
  A 0.39 0.39 0.0 0 0 343.41 539.00
  L 321.77 539.00
  A 0.39 0.39 0.0 0 0 321.38 539.39
  L 321.41 619.39
  Z
  M 408.93 594.30
  A 0.42 0.42 0.0 0 1 408.93 593.70
  L 416.68 586.05
  A 0.42 0.42 0.0 0 0 416.80 585.75
  L 416.81 558.17
  A 0.42 0.42 0.0 0 0 416.69 557.88
  L 397.93 539.12
  A 0.42 0.42 0.0 0 0 397.64 539.00
  L 351.09 539.00
  A 0.42 0.42 0.0 0 0 350.67 539.42
  L 350.72 647.55
  A 0.42 0.42 0.0 0 0 351.14 647.97
  L 397.65 648.01
  A 0.42 0.42 0.0 0 0 397.94 647.89
  L 416.70 629.11
  A 0.42 0.42 0.0 0 0 416.82 628.82
  L 416.78 602.23
  A 0.42 0.42 0.0 0 0 416.66 601.93
  L 408.93 594.30
  Z"
/>
<path fill="#ffffff" d="
  M 147.02 437.01
  L 160.01 437.00
  A 2.48 2.46 -67.0 0 0 161.73 436.30
  Q 163.92 434.17 166.25 431.83
  Q 167.37 430.71 167.38 429.17
  Q 167.44 412.01 167.37 393.64
  Q 167.37 393.00 168.01 393.00
  L 189.24 393.00
  Q 189.74 393.00 189.74 393.49
  L 189.77 439.56
  A 1.50 1.47 -22.6 0 1 189.32 440.62
  L 181.96 447.67
  A 0.38 0.38 0.0 0 0 181.96 448.21
  L 189.41 455.52
  A 1.23 1.21 -68.6 0 1 189.79 456.41
  L 189.73 501.51
  Q 189.73 502.00 189.24 502.00
  L 168.02 502.00
  Q 167.41 502.00 167.41 501.39
  L 167.41 466.12
  Q 167.41 465.27 166.81 464.68
  L 161.49 459.45
  Q 161.03 459.00 160.39 459.00
  L 146.90 459.00
  Q 146.30 459.00 146.30 459.60
  L 146.31 501.47
  A 0.53 0.53 0.0 0 1 145.78 502.00
  L 124.22 502.00
  A 0.53 0.53 0.0 0 1 123.69 501.47
  L 123.68 393.33
  A 0.33 0.33 0.0 0 1 124.01 393.00
  L 145.99 393.00
  A 0.35 0.35 0.0 0 1 146.34 393.35
  L 146.29 436.27
  Q 146.29 437.01 147.02 437.01
  Z"
/>
<path fill="#ffffff" d="
  M 219.71 437.00
  L 247.33 437.00
  A 0.42 0.42 0.0 0 1 247.75 437.42
  L 247.75 458.58
  A 0.42 0.42 0.0 0 1 247.33 459.00
  L 219.73 459.00
  A 0.42 0.42 0.0 0 0 219.31 459.42
  L 219.29 479.58
  A 0.42 0.42 0.0 0 0 219.71 480.00
  L 254.41 480.00
  A 0.42 0.42 0.0 0 1 254.83 480.42
  L 254.81 501.58
  A 0.42 0.42 0.0 0 1 254.39 502.00
  L 197.13 502.00
  A 0.42 0.42 0.0 0 1 196.71 501.58
  L 196.72 393.42
  A 0.42 0.42 0.0 0 1 197.14 393.00
  L 254.42 393.00
  A 0.42 0.42 0.0 0 1 254.84 393.42
  L 254.83 414.58
  A 0.42 0.42 0.0 0 1 254.41 415.00
  L 219.70 415.00
  A 0.42 0.42 0.0 0 0 219.28 415.42
  L 219.29 436.58
  A 0.42 0.42 0.0 0 0 219.71 437.00
  Z"
/>
<path fill="#ffffff" d="
  M 307.21 444.78
  L 307.20 393.53
  Q 307.20 393.00 307.72 393.00
  L 329.31 393.00
  A 0.31 0.30 0.0 0 1 329.62 393.30
  L 329.57 501.40
  Q 329.57 502.00 328.97 502.00
  L 307.48 502.00
  Q 307.07 502.00 306.91 501.62
  L 284.74 450.21
  Q 284.19 448.94 284.19 450.33
  L 284.44 501.40
  Q 284.44 501.99 283.85 501.99
  L 262.08 502.00
  A 0.43 0.42 -0.0 0 1 261.65 501.58
  L 261.67 393.42
  A 0.42 0.41 -90.0 0 1 262.08 393.00
  L 283.74 393.00
  Q 284.30 393.00 284.52 393.51
  L 306.75 444.87
  A 0.24 0.24 0.0 0 0 307.21 444.78
  Z"
/>
<path fill="#ffffff" d="
  M 336.50 414.61
  L 336.49 393.39
  A 0.39 0.39 0.0 0 1 336.88 393.00
  L 402.11 393.00
  A 0.39 0.39 0.0 0 1 402.50 393.39
  L 402.51 414.91
  A 0.39 0.39 0.0 0 1 402.45 415.11
  L 363.33 479.41
  A 0.39 0.39 0.0 0 0 363.66 480.00
  L 402.11 480.00
  A 0.39 0.39 0.0 0 1 402.50 480.39
  L 402.50 501.61
  A 0.39 0.39 0.0 0 1 402.11 502.00
  L 336.89 502.00
  A 0.39 0.39 0.0 0 1 336.50 501.61
  L 336.50 480.10
  A 0.39 0.39 0.0 0 1 336.56 479.90
  L 375.88 415.59
  A 0.39 0.39 0.0 0 0 375.54 415.00
  L 336.89 415.00
  A 0.39 0.39 0.0 0 1 336.50 414.61
  Z"
/>
<rect fill="#ffffff" x="409.50" y="393.00" width="22.64" height="109.00" rx="0.29"/>
<path fill="#ffffff" d="
  M 461.93 480.00
  L 497.02 480.00
  A 0.34 0.34 0.0 0 1 497.36 480.34
  L 497.33 501.66
  A 0.34 0.34 0.0 0 1 496.99 502.00
  L 439.56 502.00
  A 0.34 0.34 0.0 0 1 439.22 501.66
  L 439.20 393.34
  A 0.34 0.34 0.0 0 1 439.54 393.00
  L 496.98 393.00
  A 0.34 0.34 0.0 0 1 497.32 393.34
  L 497.33 414.66
  A 0.34 0.34 0.0 0 1 496.99 415.00
  L 461.95 415.00
  A 0.34 0.34 0.0 0 0 461.61 415.34
  L 461.58 436.66
  A 0.34 0.34 0.0 0 0 461.92 437.00
  L 489.86 437.01
  A 0.34 0.34 0.0 0 1 490.20 437.35
  L 490.20 458.66
  A 0.34 0.34 0.0 0 1 489.86 459.00
  L 461.93 459.00
  A 0.34 0.34 0.0 0 0 461.59 459.34
  L 461.59 479.66
  A 0.34 0.34 0.0 0 0 461.93 480.00
  Z"
/>
<path fill="#ffffff" d="
  M 227.67 584.00
  L 248.00 584.00
  A 0.41 0.41 0.0 0 0 248.41 583.59
  L 248.40 539.41
  A 0.41 0.41 0.0 0 1 248.81 539.00
  L 270.39 539.00
  A 0.41 0.41 0.0 0 1 270.80 539.41
  L 270.80 647.59
  A 0.41 0.41 0.0 0 1 270.39 648.00
  L 248.81 648.00
  A 0.41 0.41 0.0 0 1 248.40 647.59
  L 248.41 606.41
  A 0.41 0.41 0.0 0 0 248.00 606.00
  L 227.68 606.00
  A 0.41 0.41 0.0 0 0 227.27 606.41
  L 227.35 647.59
  A 0.41 0.41 0.0 0 1 226.94 648.00
  L 205.11 648.00
  A 0.41 0.41 0.0 0 1 204.70 647.59
  L 204.70 539.41
  A 0.41 0.41 0.0 0 1 205.11 539.00
  L 226.91 539.00
  A 0.41 0.41 0.0 0 1 227.32 539.41
  L 227.26 583.59
  A 0.41 0.41 0.0 0 0 227.67 584.00
  Z"
/>
<path fill="#ffffff" d="
  M 321.41 619.39
  L 321.38 539.39
  A 0.39 0.39 0.0 0 1 321.77 539.00
  L 343.41 539.00
  A 0.39 0.39 0.0 0 1 343.80 539.39
  L 343.79 628.89
  A 0.39 0.39 0.0 0 1 343.68 629.16
  L 324.93 647.89
  A 0.39 0.39 0.0 0 1 324.66 648.00
  L 297.05 648.00
  A 0.39 0.39 0.0 0 1 296.78 647.89
  L 277.83 628.95
  A 0.39 0.39 0.0 0 1 277.72 628.68
  L 277.68 539.39
  A 0.39 0.39 0.0 0 1 278.07 539.00
  L 299.91 539.00
  A 0.39 0.39 0.0 0 1 300.30 539.39
  L 300.24 619.43
  A 0.39 0.39 0.0 0 0 300.35 619.70
  L 306.49 625.88
  A 0.39 0.39 0.0 0 0 306.76 625.99
  L 314.85 626.00
  A 0.39 0.39 0.0 0 0 315.12 625.88
  L 321.30 619.66
  A 0.39 0.39 0.0 0 0 321.41 619.39
  Z"
/>
<path fill="#ffffff" d="
  M 408.93 594.30
  L 416.66 601.93
  A 0.42 0.42 0.0 0 1 416.78 602.23
  L 416.82 628.82
  A 0.42 0.42 0.0 0 1 416.70 629.11
  L 397.94 647.89
  A 0.42 0.42 0.0 0 1 397.65 648.01
  L 351.14 647.97
  A 0.42 0.42 0.0 0 1 350.72 647.55
  L 350.67 539.42
  A 0.42 0.42 0.0 0 1 351.09 539.00
  L 397.64 539.00
  A 0.42 0.42 0.0 0 1 397.93 539.12
  L 416.69 557.88
  A 0.42 0.42 0.0 0 1 416.81 558.17
  L 416.80 585.75
  A 0.42 0.42 0.0 0 1 416.68 586.05
  L 408.93 593.70
  A 0.42 0.42 0.0 0 0 408.93 594.30
  Z
  M 388.05 561.15
  A 0.50 0.50 0.0 0 0 387.69 561.00
  L 373.82 561.00
  A 0.50 0.50 0.0 0 0 373.32 561.50
  L 373.29 582.50
  A 0.50 0.50 0.0 0 0 373.79 583.00
  L 387.72 583.00
  A 0.50 0.50 0.0 0 0 388.08 582.85
  L 394.26 576.59
  A 0.50 0.50 0.0 0 0 394.40 576.24
  L 394.43 567.80
  A 0.50 0.50 0.0 0 0 394.28 567.44
  L 388.05 561.15
  Z
  M 388.05 605.12
  A 0.43 0.43 0.0 0 0 387.76 605.00
  L 373.73 605.00
  A 0.43 0.43 0.0 0 0 373.30 605.43
  L 373.30 625.56
  A 0.43 0.43 0.0 0 0 373.73 625.99
  L 387.75 626.00
  A 0.43 0.43 0.0 0 0 388.05 625.88
  L 394.26 619.85
  A 0.43 0.43 0.0 0 0 394.39 619.54
  L 394.45 611.42
  A 0.43 0.43 0.0 0 0 394.32 611.10
  L 388.05 605.12
  Z"
/>
<path fill="#121214" d="
  M 388.05 561.15
  L 394.28 567.44
  A 0.50 0.50 0.0 0 1 394.43 567.80
  L 394.40 576.24
  A 0.50 0.50 0.0 0 1 394.26 576.59
  L 388.08 582.85
  A 0.50 0.50 0.0 0 1 387.72 583.00
  L 373.79 583.00
  A 0.50 0.50 0.0 0 1 373.29 582.50
  L 373.32 561.50
  A 0.50 0.50 0.0 0 1 373.82 561.00
  L 387.69 561.00
  A 0.50 0.50 0.0 0 1 388.05 561.15
  Z"
/>
<path fill="#121214" d="
  M 388.05 605.12
  L 394.32 611.10
  A 0.43 0.43 0.0 0 1 394.45 611.42
  L 394.39 619.54
  A 0.43 0.43 0.0 0 1 394.26 619.85
  L 388.05 625.88
  A 0.43 0.43 0.0 0 1 387.75 626.00
  L 373.73 625.99
  A 0.43 0.43 0.0 0 1 373.30 625.56
  L 373.30 605.43
  A 0.43 0.43 0.0 0 1 373.73 605.00
  L 387.76 605.00
  A 0.43 0.43 0.0 0 1 388.05 605.12
  Z"
/>
</svg>
