<?xml version="1.0" encoding="UTF-8" standalone="no"?>
<!DOCTYPE svg PUBLIC "-//W3C//DTD SVG 1.1//EN" "http://www.w3.org/Graphics/SVG/1.1/DTD/svg11.dtd">
<svg xmlns="http://www.w3.org/2000/svg" version="1.1" viewBox="0.00 0.00 612.00 1080.00">
<g stroke-width="2.00" fill="none" stroke-linecap="butt">
<path stroke="#0024eb" vector-effect="non-scaling-stroke" d="
  M 153.70 480.55
  L 152.28 481.95
  Q 151.93 482.30 151.91 482.80
  Q 151.79 485.36 153.57 486.72
  Q 156.38 488.86 159.07 491.39
  Q 159.12 491.43 159.11 491.50
  Q 159.09 491.66 158.98 491.74
  Q 158.71 491.94 159.03 492.03
  Q 159.26 492.10 159.43 492.23
  Q 159.75 492.49 159.89 492.87
  Q 160.66 494.98 162.04 496.91
  Q 162.74 497.87 162.94 498.99
  C 163.27 500.84 163.42 502.32 164.35 504.07
  Q 165.69 506.57 166.81 509.11
  Q 166.92 509.38 166.85 509.66
  L 166.75 510.07
  Q 166.63 510.55 166.77 511.02
  Q 167.35 512.90 167.20 514.85
  A 2.20 2.12 -54.3 0 0 167.34 515.81
  Q 167.98 517.44 167.38 519.08
  Q 167.21 519.52 166.78 519.72
  Q 166.08 520.04 166.39 521.54"
/>
<path stroke="#8093ff" vector-effect="non-scaling-stroke" d="
  M 166.39 521.54
  L 157.67 536.04
  Q 157.42 536.46 157.16 536.04
  L 144.18 514.68
  A 1.47 1.46 74.0 0 0 142.94 513.99
  L 125.23 514.02
  Q 124.63 514.02 124.63 514.62
  L 124.67 531.22"
/>
<path stroke="#011fcd" vector-effect="non-scaling-stroke" d="
  M 124.67 531.22
  Q 124.34 530.26 124.40 529.07
  Q 124.41 528.82 124.19 528.70
  Q 123.99 528.59 123.91 528.81
  A 0.25 0.24 -62.3 0 1 123.54 528.93
  Q 122.37 528.08 120.61 528.35
  Q 119.29 528.56 118.76 527.02"
/>
<path stroke="#8093ff" vector-effect="non-scaling-stroke" d="
  M 118.76 527.02
  L 118.64 515.59
  Q 118.63 515.00 118.04 515.00
  L 70.28 515.00
  Q 69.76 515.00 69.76 515.52
  L 69.75 605.87"
/>
<path stroke="#0024eb" vector-effect="non-scaling-stroke" d="
  M 69.75 605.87
  Q 69.60 607.34 70.13 608.60
  Q 70.28 608.98 70.68 609.03
  L 75.97 609.72
  Q 76.43 609.78 76.78 610.08
  L 80.43 613.29
  Q 80.80 613.63 80.95 614.11
  Q 81.30 615.30 81.42 616.47
  Q 81.58 617.93 82.79 619.54
  Q 84.06 621.22 85.27 622.94
  Q 85.60 623.40 86.10 623.66
  L 100.50 630.96
  A 1.93 1.89 52.5 0 0 101.71 631.13
  Q 102.57 630.96 103.33 631.46
  C 104.50 632.25 106.07 632.25 107.33 631.64
  Q 107.77 631.43 108.25 631.53
  Q 110.49 632.01 112.53 631.74
  Q 113.60 631.61 114.52 631.87
  C 116.13 632.34 117.57 632.73 119.26 632.57
  Q 120.72 632.43 122.14 632.60
  C 124.20 632.85 126.51 631.82 128.56 631.47
  Q 128.71 631.45 128.78 631.58
  Q 128.88 631.77 129.10 631.76
  Q 136.87 631.34 145.20 631.16
  Q 147.29 631.12 149.01 630.45
  Q 150.71 629.78 152.69 629.68
  C 154.21 629.61 155.37 628.76 156.96 628.65
  A 0.99 0.98 15.6 0 0 157.70 628.24
  Q 158.21 627.52 159.02 627.45
  C 160.49 627.32 161.78 626.51 162.99 625.71
  Q 164.04 625.02 164.55 624.03
  Q 166.03 621.12 169.58 619.31
  Q 170.33 618.93 170.75 618.21
  Q 170.99 617.80 171.47 617.80
  L 175.25 617.81
  Q 175.76 617.81 176.11 618.18
  Q 177.12 619.22 178.30 620.19
  Q 179.39 621.10 180.79 621.40
  Q 182.51 621.77 183.96 623.01
  Q 184.99 623.88 186.48 624.30
  Q 189.73 625.20 193.10 625.50
  Q 193.16 625.51 193.21 625.55
  Q 193.36 625.65 193.35 625.80
  Q 193.30 626.44 193.74 625.97
  Q 194.11 625.58 194.59 625.47
  Q 198.15 624.66 201.36 625.45
  Q 202.78 625.80 204.30 625.90
  Q 205.91 626.02 207.43 626.51
  Q 210.59 627.53 214.28 627.83
  A 1.75 1.71 33.0 0 0 215.22 627.64
  Q 216.66 626.92 218.27 626.90
  Q 218.56 626.90 218.78 626.70
  L 219.11 626.38
  Q 219.54 625.97 220.14 625.89
  L 225.68 625.20
  Q 225.90 625.17 226.08 625.04
  Q 227.33 624.16 228.66 623.49
  Q 232.45 621.57 233.49 617.79
  Q 233.65 617.20 234.14 616.84
  Q 234.88 616.29 234.84 615.37
  Q 234.81 614.87 235.17 614.53
  Q 236.15 613.61 236.50 612.33
  Q 237.27 609.47 238.08 606.60
  Q 239.93 600.07 245.99 597.78
  C 248.99 596.65 251.23 597.40 252.72 600.12
  Q 253.53 601.59 253.87 603.02
  Q 253.99 603.49 254.40 603.76
  A 0.97 0.93 10.7 0 1 254.78 604.29
  C 255.27 606.03 255.67 609.13 258.20 608.88
  Q 258.71 608.83 258.20 608.76
  Q 258.03 608.74 257.88 608.78
  A 0.58 0.58 0.0 0 1 257.23 608.46
  Q 256.39 606.71 256.59 605.48
  Q 257.28 601.46 257.16 599.04"
/>
<path stroke="#8093ff" vector-effect="non-scaling-stroke" d="
  M 257.16 599.04
  L 257.27 605.24
  A 0.76 0.76 0.0 0 0 258.02 605.98
  L 269.52 606.04"
/>
<path stroke="#011fcd" vector-effect="non-scaling-stroke" d="
  M 269.52 606.04
  Q 271.55 607.69 274.12 607.66
  Q 274.71 607.65 274.66 608.24
  L 274.21 614.26
  A 0.77 0.75 -25.6 0 1 274.08 614.61
  L 271.95 617.70
  Q 271.67 618.10 271.78 618.58
  L 272.62 622.25
  A 2.50 2.49 -3.1 0 0 274.78 624.18
  Q 276.16 624.34 277.66 623.81"
/>
<path stroke="#0024eb" vector-effect="non-scaling-stroke" d="
  M 277.66 623.81
  Q 279.52 623.43 281.14 622.66
  Q 281.92 622.29 282.44 621.72
  C 283.88 620.13 286.86 621.87 288.14 622.93
  Q 289.40 623.97 291.38 624.36
  Q 294.45 624.96 297.87 625.32
  Q 298.37 625.37 298.79 625.65
  Q 303.09 628.56 305.00 628.64
  Q 309.83 628.87 311.50 629.36
  Q 315.18 630.45 319.00 630.88
  Q 328.41 631.95 337.04 631.83
  Q 337.34 631.83 337.43 632.11
  Q 337.49 632.31 337.70 632.31
  Q 344.82 632.66 351.70 631.92
  C 356.77 631.38 362.17 632.22 367.12 631.26
  Q 369.28 630.84 371.39 630.69
  Q 373.94 630.50 376.01 629.57
  Q 378.23 628.56 380.38 627.56
  Q 382.52 626.56 385.77 625.76
  Q 386.18 625.66 386.59 625.76
  Q 387.99 626.11 389.38 626.42
  Q 391.00 626.77 392.37 628.12
  Q 392.72 628.47 393.20 628.59
  L 407.26 631.99
  Q 407.69 632.09 408.12 632.09
  C 412.06 632.14 415.71 632.67 419.67 632.05
  Q 420.23 631.97 420.82 631.97
  Q 421.36 631.97 421.83 631.74
  Q 422.20 631.56 422.60 631.50
  L 429.72 630.36
  A 0.41 0.39 -86.4 0 0 430.04 630.07
  Q 430.10 629.87 430.29 629.85
  Q 432.77 629.66 435.27 629.13
  Q 437.59 628.63 440.27 628.68
  Q 445.80 628.77 451.31 629.27
  C 452.30 629.35 453.05 628.85 453.99 629.26
  Q 454.50 629.48 455.04 629.43
  Q 456.49 629.28 457.93 629.43
  Q 459.22 629.55 460.66 629.45
  Q 464.79 629.15 468.73 628.75
  Q 469.23 628.70 469.63 628.39
  Q 470.21 627.95 470.98 628.10
  Q 471.39 628.18 471.66 628.49
  Q 472.08 628.97 472.39 629.53
  Q 472.75 630.19 473.06 629.51
  Q 473.36 628.87 474.10 628.81
  Q 475.78 628.69 477.29 629.09
  Q 478.63 629.45 480.12 629.30
  Q 481.22 629.19 482.23 629.05
  Q 483.23 628.91 484.19 628.67
  Q 486.57 628.06 489.04 628.96
  Q 489.50 629.13 489.99 629.08
  Q 490.60 629.01 491.09 629.36
  Q 491.47 629.62 491.93 629.62
  Q 498.55 629.57 505.18 628.42
  Q 508.76 627.80 512.52 628.03
  Q 516.77 628.29 520.02 629.13
  Q 527.24 631.00 532.30 630.85
  Q 537.88 630.68 546.05 628.27
  Q 547.61 627.81 548.84 627.05
  Q 550.26 626.19 551.71 625.63
  Q 553.97 624.78 555.87 623.50
  Q 559.01 621.40 562.44 619.98
  Q 563.97 619.35 564.33 617.68
  Q 564.45 617.16 564.78 616.75
  Q 566.40 614.82 567.46 612.62
  Q 569.43 608.55 570.38 604.21
  Q 570.48 603.75 570.94 603.63
  Q 571.19 603.57 571.24 603.23
  Q 572.05 596.95 571.84 590.60
  Q 571.78 588.89 571.38 587.47
  Q 570.96 586.00 570.33 584.48
  Q 569.44 582.29 568.95 579.57
  Q 567.98 574.22 567.93 570.19
  Q 567.90 566.89 568.67 562.89
  Q 569.01 561.13 569.06 559.47
  Q 569.12 557.56 569.50 555.80
  Q 570.02 553.43 569.84 551.10
  Q 569.48 546.32 566.98 542.29
  Q 566.34 541.25 566.15 540.20
  Q 565.96 539.17 565.25 538.32
  Q 564.36 537.25 563.93 536.01
  Q 563.50 534.75 563.01 533.50
  Q 562.93 533.30 562.78 533.16
  Q 562.57 532.97 562.33 532.80
  Q 561.93 532.51 561.73 532.07
  Q 560.68 529.72 559.41 527.47
  Q 558.72 526.24 557.42 525.91
  Q 556.93 525.79 556.57 525.42
  Q 555.65 524.45 554.61 523.93
  Q 553.83 523.54 553.16 523.06
  Q 552.34 522.47 551.27 522.62
  Q 550.78 522.69 550.38 522.39
  Q 548.20 520.76 545.60 520.82
  A 3.53 3.12 -15.4 0 1 542.70 519.40
  Q 541.92 518.21 539.83 517.87"
/>
<path stroke="#8093ff" vector-effect="non-scaling-stroke" d="
  M 539.83 517.87
  L 536.53 514.65
  A 2.30 2.29 67.0 0 0 534.93 514.00
  L 513.59 514.00
  A 3.25 3.23 -67.4 0 0 511.30 514.95
  L 504.56 521.74"
/>
<path stroke="#0024eb" vector-effect="non-scaling-stroke" d="
  M 504.56 521.74
  Q 503.78 521.63 503.18 522.47
  Q 502.97 522.75 502.64 522.86
  Q 502.48 522.92 502.30 522.87
  Q 501.80 522.75 501.38 523.05
  Q 497.60 525.77 492.60 522.89
  Q 490.51 521.69 488.21 521.57
  Q 487.55 521.53 487.10 521.03
  L 482.59 516.00
  Q 482.18 515.55 482.10 514.95
  Q 481.92 513.49 482.26 512.30
  Q 482.98 509.76 484.48 507.30
  Q 486.01 504.78 485.80 501.97
  Q 485.52 498.19 485.70 494.70
  Q 485.75 493.74 485.33 493.08
  A 1.06 1.05 -54.4 0 1 485.20 492.26
  L 485.95 489.25
  Q 486.06 488.84 485.94 488.43
  Q 485.74 487.67 485.95 486.90
  Q 486.34 485.48 485.92 484.05
  Q 485.76 483.53 485.95 483.03
  Q 486.14 482.49 486.04 481.93
  Q 485.03 476.39 484.49 471.45
  Q 484.08 467.63 484.25 463.18
  Q 484.50 457.12 483.95 451.55
  Q 483.62 448.22 484.04 444.12
  Q 484.43 440.25 484.87 436.52
  Q 485.60 430.41 487.17 424.36
  Q 488.02 421.10 487.10 414.54
  Q 486.95 413.43 486.50 412.39
  Q 486.02 411.26 485.72 410.09
  Q 485.25 408.27 483.94 407.13
  Q 482.81 406.14 481.88 404.85
  Q 479.59 401.66 476.95 398.77
  Q 475.90 397.61 474.59 396.86
  Q 473.18 396.04 472.20 394.62
  A 1.48 1.47 65.1 0 0 470.62 394.04
  Q 469.91 394.23 469.50 393.63
  Q 469.23 393.23 469.12 392.76
  Q 469.01 392.25 468.33 392.04"
/>
<path stroke="#8093ff" vector-effect="non-scaling-stroke" d="
  M 468.33 392.04
  L 468.28 391.49
  Q 468.24 391.00 467.75 391.00
  L 420.00 391.00
  A 0.78 0.78 0.0 0 0 419.22 391.78
  L 419.24 401.94"
/>
<path stroke="#011fcd" vector-effect="non-scaling-stroke" d="
  M 419.24 401.94
  Q 416.89 402.87 414.76 402.57
  Q 413.33 402.36 413.62 399.78"
/>
<path stroke="#8093ff" vector-effect="non-scaling-stroke" d="
  M 413.62 399.78
  L 413.58 390.59
  Q 413.58 389.99 412.98 389.99
  L 395.05 390.02
  Q 394.53 390.02 394.53 390.54
  L 394.51 408.72"
/>
<path stroke="#011fcd" vector-effect="non-scaling-stroke" d="
  M 394.51 408.72
  L 394.26 408.33
  Q 393.97 407.87 393.62 408.29
  Q 393.13 408.87 392.25 408.62
  Q 390.05 408.00 388.82 408.58"
/>
<path stroke="#8093ff" vector-effect="non-scaling-stroke" d="
  M 388.82 408.58
  L 388.48 391.49
  Q 388.47 391.00 387.97 391.00
  L 333.53 391.00
  A 0.33 0.32 -90.0 0 0 333.21 391.33
  L 333.16 408.73"
/>
<path stroke="#011fcd" vector-effect="non-scaling-stroke" d="
  M 333.16 408.73
  C 332.29 408.47 331.96 408.79 331.20 408.90
  Q 330.79 408.96 330.58 408.56
  A 0.79 0.77 -10.4 0 0 329.99 408.16
  Q 328.67 408.01 327.21 410.10"
/>
<path stroke="#8093ff" vector-effect="non-scaling-stroke" d="
  M 327.21 410.10
  L 327.17 390.62
  Q 327.17 390.00 326.55 390.00
  L 308.78 390.00
  Q 308.25 390.00 308.25 390.53
  L 308.26 415.50"
/>
<path stroke="#011fcd" vector-effect="non-scaling-stroke" d="
  M 308.26 415.50
  Q 303.08 416.73 299.71 414.57"
/>
<path stroke="#8093ff" vector-effect="non-scaling-stroke" d="
  M 299.71 414.57
  L 289.37 390.56
  Q 289.13 390.00 288.51 390.00
  L 270.78 390.00
  Q 270.25 390.00 270.25 390.53
  L 270.17 411.48"
/>
<path stroke="#011fcd" vector-effect="non-scaling-stroke" d="
  M 270.17 411.48
  Q 269.12 411.78 268.10 411.50
  A 1.30 1.26 77.8 0 1 267.41 411.04
  L 265.89 409.06
  Q 265.62 408.71 265.19 408.83
  Q 264.85 408.93 264.40 408.61"
/>
<path stroke="#8093ff" vector-effect="non-scaling-stroke" d="
  M 264.40 408.61
  L 264.39 391.41
  A 0.41 0.41 0.0 0 0 263.98 391.00
  L 215.98 391.00
  A 0.76 0.76 0.0 0 0 215.22 391.77
  L 215.26 409.54"
/>
<path stroke="#011fcd" vector-effect="non-scaling-stroke" d="
  M 215.26 409.54
  Q 211.45 407.94 210.15 409.88
  Q 209.96 410.17 209.63 410.10
  L 209.31 410.03"
/>
<path stroke="#8093ff" vector-effect="non-scaling-stroke" d="
  M 209.31 410.03
  L 209.28 390.54
  Q 209.28 390.00 208.73 390.00
  L 190.98 390.00
  Q 190.38 390.00 190.38 390.60
  L 190.40 412.95"
/>
<path stroke="#011fcd" vector-effect="non-scaling-stroke" d="
  M 190.40 412.95
  Q 183.13 410.49 176.93 406.28
  Q 176.52 406.00 176.02 405.99
  Q 173.39 405.95 172.77 404.96"
/>
<path stroke="#8093ff" vector-effect="non-scaling-stroke" d="
  M 172.77 404.96
  L 172.72 390.52
  Q 172.71 390.00 172.19 390.00
  L 154.30 390.00
  Q 153.67 390.00 153.67 390.63
  L 153.70 480.55"
/>
<path stroke="#808ccd" vector-effect="non-scaling-stroke" d="
  M 172.77 404.96
  L 172.82 426.36
  Q 172.82 427.00 173.46 427.00
  L 184.48 427.00
  A 1.38 1.36 22.3 0 0 185.45 426.60
  L 189.81 422.22
  Q 190.26 421.77 190.27 421.14
  L 190.40 412.95"
/>
<path stroke="#808ccd" vector-effect="non-scaling-stroke" d="
  M 209.31 410.03
  L 209.27 428.40
  A 2.77 2.75 -21.8 0 1 208.40 430.41
  L 202.94 435.57
  A 0.60 0.60 0.0 0 0 202.94 436.44
  L 208.52 441.62
  A 2.36 2.34 21.7 0 1 209.27 443.34
  L 209.32 481.60
  Q 209.32 482.01 208.91 482.01
  L 190.78 482.00
  A 0.48 0.48 0.0 0 1 190.30 481.52
  Q 190.41 466.64 190.45 452.91
  C 190.46 451.67 190.44 450.39 189.52 449.44
  Q 187.44 447.30 185.42 445.46
  A 1.74 1.74 0.0 0 0 184.24 445.00
  L 173.25 444.99
  Q 172.75 444.99 172.75 445.50
  L 172.74 481.44
  Q 172.74 482.01 172.17 482.01
  L 161.79 482.02"
/>
<path stroke="#8090eb" vector-effect="non-scaling-stroke" d="
  M 161.79 482.02
  Q 156.01 482.05 154.25 481.92
  Q 153.29 481.84 153.70 480.55"
/>
<path stroke="#8090eb" vector-effect="non-scaling-stroke" d="
  M 504.56 521.74
  Q 501.32 525.03 498.08 528.08
  C 495.59 530.43 496.28 533.16 496.22 536.04"
/>
<path stroke="#011db9" vector-effect="non-scaling-stroke" d="
  M 496.22 536.04
  L 490.33 534.81"
/>
<path stroke="#8090eb" vector-effect="non-scaling-stroke" d="
  M 490.33 534.81
  L 490.17 530.54
  Q 490.14 530.01 489.77 529.62
  L 474.87 514.58
  A 1.98 1.98 0.0 0 0 473.47 514.00
  L 451.77 514.00
  A 2.22 2.22 0.0 0 0 450.20 514.65
  Q 443.00 521.84 435.62 529.29
  C 434.59 530.32 434.52 531.65 434.59 533.01"
/>
<path stroke="#011db9" vector-effect="non-scaling-stroke" d="
  M 434.59 533.01
  L 434.30 533.18
  Q 433.91 533.41 433.86 532.96
  Q 433.70 531.27 432.25 530.78
  Q 431.57 530.55 429.27 530.32"
/>
<path stroke="#8090eb" vector-effect="non-scaling-stroke" d="
  M 429.27 530.32
  L 413.55 514.51
  A 1.67 1.67 0.0 0 0 412.36 514.01
  Q 401.73 514.00 390.89 513.99
  Q 389.73 513.99 388.96 514.71
  Q 380.24 522.92 373.10 531.46"
/>
<path stroke="#011db9" vector-effect="non-scaling-stroke" d="
  M 373.10 531.46
  L 367.58 530.32"
/>
<path stroke="#8090eb" vector-effect="non-scaling-stroke" d="
  M 367.58 530.32
  L 367.61 515.39
  Q 367.61 515.00 367.23 515.00
  L 319.04 515.00
  Q 318.55 515.00 318.55 515.49
  L 318.51 532.68"
/>
<path stroke="#011db9" vector-effect="non-scaling-stroke" d="
  M 318.51 532.68
  Q 317.45 530.50 312.64 530.82"
/>
<path stroke="#8090eb" vector-effect="non-scaling-stroke" d="
  M 312.64 530.82
  L 297.57 515.84
  A 2.93 2.90 -22.3 0 0 295.51 514.99
  L 257.77 515.02
  Q 257.26 515.02 257.26 515.53
  L 257.21 543.22"
/>
<path stroke="#011db9" vector-effect="non-scaling-stroke" d="
  M 257.21 543.22
  Q 257.22 541.40 256.03 541.32
  Q 255.65 541.30 255.35 541.06
  Q 254.16 540.13 251.28 540.20"
/>
<path stroke="#8090eb" vector-effect="non-scaling-stroke" d="
  M 251.28 540.20
  L 251.25 531.09
  Q 251.25 530.56 250.87 530.19
  L 235.98 515.71
  A 2.51 2.51 0.0 0 0 234.23 515.00
  L 196.07 515.00
  A 0.42 0.42 0.0 0 0 195.65 515.42
  L 195.65 525.80"
/>
<path stroke="#011db9" vector-effect="non-scaling-stroke" d="
  M 195.65 525.80
  Q 195.48 526.58 194.57 526.80
  Q 194.09 526.92 193.87 527.36
  Q 193.67 527.75 193.72 528.12
  Q 193.75 528.41 193.46 528.38
  Q 193.25 528.35 193.20 528.16
  Q 193.01 527.33 192.44 527.79
  L 191.98 528.15
  Q 191.62 528.43 191.29 528.12
  Q 190.76 527.62 189.90 527.96"
/>
<path stroke="#8090eb" vector-effect="non-scaling-stroke" d="
  M 189.90 527.96
  L 189.89 514.42
  A 0.43 0.42 -0.0 0 0 189.46 514.00
  L 171.50 514.01
  Q 170.85 514.01 170.51 514.57
  L 166.39 521.54"
/>
<path stroke="#011db9" vector-effect="non-scaling-stroke" d="
  M 161.79 482.02
  L 162.20 484.58
  Q 162.28 485.08 162.77 485.18
  Q 164.29 485.51 165.59 486.10
  Q 166.83 486.67 167.74 488.38
  Q 169.18 491.09 170.85 493.48
  Q 170.90 493.55 171.32 494.29
  Q 171.86 495.25 172.96 495.38
  Q 175.99 495.73 179.04 495.92
  Q 179.54 495.95 179.97 495.70
  Q 181.54 494.78 182.66 493.51
  Q 183.37 492.70 184.32 492.49
  Q 184.81 492.39 185.12 492.01
  Q 187.47 489.24 190.78 487.48
  Q 191.24 487.25 191.71 487.44
  Q 192.85 487.92 194.00 487.42
  Q 194.34 487.27 194.63 487.51
  Q 195.66 488.33 197.08 488.34
  Q 197.51 488.35 197.75 488.70
  Q 198.40 489.66 199.35 490.46
  Q 199.76 490.80 200.24 490.93
  Q 200.98 491.13 201.72 491.29
  Q 202.25 491.41 202.54 491.86
  Q 203.57 493.50 205.13 494.23
  Q 205.79 494.54 206.20 494.98
  C 207.03 495.86 207.77 496.72 208.96 497.02
  Q 210.58 497.42 212.15 498.05
  Q 213.75 498.69 215.40 498.94
  Q 219.52 499.58 223.46 500.02
  Q 224.49 500.13 225.48 500.45
  Q 226.66 500.83 227.90 500.61
  Q 228.28 500.54 228.63 500.73
  C 229.79 501.39 231.15 501.07 232.46 501.24
  Q 242.71 502.59 254.13 501.99
  Q 254.96 501.94 255.80 502.14
  Q 256.80 502.38 257.68 501.78
  Q 257.94 501.60 258.23 501.72
  Q 258.96 501.99 259.76 501.88
  Q 263.02 501.44 266.18 501.17
  Q 266.81 501.11 267.74 500.71
  Q 268.51 500.39 269.35 500.31
  Q 269.85 500.26 270.30 500.04
  Q 271.43 499.49 272.53 499.81
  Q 272.97 499.94 273.40 499.82
  Q 275.10 499.37 276.94 499.81
  A 0.60 0.58 46.2 0 0 277.18 499.82
  L 297.42 496.78
  Q 297.88 496.71 298.31 496.51
  Q 300.90 495.26 303.81 494.59
  Q 307.22 493.81 309.89 494.38
  Q 313.10 495.07 315.61 495.84
  Q 318.18 496.62 321.29 497.77
  Q 323.18 498.47 325.58 498.69
  Q 327.74 498.89 329.85 499.31
  Q 332.05 499.75 334.51 499.98
  A 64.25 6.22 4.6 0 1 343.35 500.87
  Q 354.81 502.09 366.26 503.10
  Q 367.62 503.22 368.78 502.91
  Q 369.78 502.65 370.76 502.64
  Q 376.29 502.59 381.77 501.97
  Q 382.83 501.85 383.84 502.07
  A 2.51 2.44 -42.4 0 0 384.75 502.10
  Q 387.00 501.75 389.29 501.51
  Q 391.58 501.27 393.88 500.52
  Q 397.79 499.25 402.36 499.75
  Q 403.34 499.86 404.33 499.63
  Q 405.92 499.28 407.59 499.69
  Q 409.18 500.09 410.82 500.15
  Q 418.52 500.44 426.07 500.61
  Q 429.25 500.68 432.31 500.97
  Q 435.19 501.24 438.49 501.45
  Q 438.97 501.48 439.38 501.76
  Q 439.69 501.98 440.07 501.92
  Q 440.48 501.85 440.92 501.88
  Q 444.73 502.17 448.70 502.43
  Q 452.43 502.67 456.35 502.35
  Q 462.31 501.86 467.18 501.16
  Q 469.61 500.80 471.65 498.69
  Q 472.00 498.32 472.51 498.22
  Q 475.62 497.63 478.04 495.89
  Q 479.12 495.13 478.72 493.85
  A 1.32 1.25 -48.9 0 1 478.69 493.13
  Q 479.12 491.43 477.95 489.89
  Q 477.84 489.75 477.96 489.62
  Q 478.05 489.50 478.11 489.36
  Q 478.23 489.03 478.04 488.73
  Q 476.65 486.52 474.69 484.82
  Q 474.32 484.49 474.13 484.03
  Q 473.52 482.52 472.15 481.78
  A 0.46 0.34 71.6 0 1 472.02 481.69
  L 469.51 479.07
  Q 469.08 478.62 469.02 478.00
  Q 468.73 474.99 468.93 471.60
  Q 468.94 471.44 468.78 471.43
  L 468.77 471.43
  Q 468.61 471.43 468.61 471.59
  Q 468.66 472.79 468.43 473.98"
/>
<path stroke="#011db9" vector-effect="non-scaling-stroke" d="
  M 468.37 464.04
  L 468.71 466.93
  Q 468.80 467.77 469.09 466.98
  Q 469.50 465.81 468.77 465.22
  Q 468.42 464.94 468.76 464.66
  Q 469.23 464.26 469.19 463.61
  Q 469.17 463.30 468.86 463.36
  Q 468.72 463.39 468.60 463.30
  Q 468.29 463.06 468.36 462.67
  Q 468.49 461.95 469.22 461.83
  A 0.50 0.48 -8.6 0 0 469.63 461.29
  Q 469.55 460.72 469.84 460.21
  Q 471.58 457.18 469.64 453.64
  Q 469.38 453.16 469.39 452.61
  Q 469.47 449.70 469.28 447.06
  Q 469.14 444.99 468.38 442.93
  Q 467.54 440.64 467.35 438.93
  Q 467.17 437.31 467.06 435.20
  Q 467.02 434.30 467.42 433.46
  Q 467.85 432.59 468.06 431.63
  Q 468.09 431.47 468.19 431.33
  Q 468.36 431.09 468.64 430.99
  Q 469.13 430.81 469.37 430.35
  Q 470.65 427.84 472.99 426.34
  Q 474.67 425.26 475.43 423.63
  Q 476.11 422.14 476.77 420.52
  Q 477.40 418.94 477.41 417.45
  C 477.43 415.12 478.53 411.44 475.41 410.33
  Q 473.37 409.61 470.85 407.90
  Q 469.92 407.27 468.32 408.13"
/>
<path stroke="#808ccd" vector-effect="non-scaling-stroke" d="
  M 299.71 414.57
  L 307.89 433.54
  Q 308.28 434.43 308.28 433.46
  L 308.26 415.50"
/>
<path stroke="#808ccd" vector-effect="non-scaling-stroke" d="
  M 327.21 410.10
  L 327.28 481.43
  A 0.56 0.56 0.0 0 1 326.72 481.99
  L 308.77 482.00
  A 0.94 0.92 -11.4 0 1 307.91 481.44
  L 289.37 438.41
  Q 289.11 437.78 289.11 438.47
  L 289.20 481.26
  A 0.72 0.72 0.0 0 1 288.48 481.98
  L 270.56 482.01
  A 0.44 0.44 0.0 0 1 270.12 481.57
  L 270.17 411.48"
/>
<path stroke="#8090eb" vector-effect="non-scaling-stroke" d="
  M 468.33 392.04
  L 468.32 408.13"
/>
<path stroke="#808ccd" vector-effect="non-scaling-stroke" d="
  M 468.32 408.13
  Q 468.44 408.96 467.50 408.96
  Q 452.92 408.94 438.81 409.06
  Q 438.33 409.06 438.33 409.54
  L 438.28 426.51
  A 0.49 0.48 90.0 0 0 438.76 427.00
  L 461.97 427.01
  A 0.34 0.34 0.0 0 1 462.31 427.35
  L 462.33 444.46
  Q 462.33 445.00 461.79 445.00
  L 438.93 445.00
  Q 438.35 445.00 438.35 445.57
  L 438.33 463.55
  A 0.43 0.43 0.0 0 0 438.76 463.99
  L 468.37 464.04"
/>
<path stroke="#8090eb" vector-effect="non-scaling-stroke" d="
  M 468.37 464.04
  L 468.43 473.98"
/>
<path stroke="#808ccd" vector-effect="non-scaling-stroke" d="
  M 468.43 473.98
  L 468.37 481.39
  A 0.63 0.63 0.0 0 1 467.74 482.01
  L 419.96 481.99
  Q 419.23 481.99 419.23 481.26
  L 419.24 401.94"
/>
<path stroke="#808ccd" vector-effect="non-scaling-stroke" d="
  M 388.82 408.58
  L 355.69 463.41
  A 0.39 0.39 0.0 0 0 356.02 464.00
  L 387.95 463.98
  Q 388.67 463.98 388.67 464.70
  L 388.69 481.52
  A 0.47 0.46 -90.0 0 1 388.23 481.99
  L 333.79 482.00
  Q 333.15 482.00 333.15 481.36
  Q 333.24 473.52 333.14 465.77
  Q 333.12 463.86 334.13 462.19
  Q 349.90 436.25 366.28 409.35
  A 0.23 0.22 -74.6 0 0 366.09 409.01
  Q 349.73 408.99 333.34 408.99
  Q 333.30 408.99 333.28 408.96
  Q 333.22 408.85 333.16 408.73"
/>
<path stroke="#808ccd" vector-effect="non-scaling-stroke" d="
  M 413.62 399.78
  L 413.62 481.36
  Q 413.62 482.01 412.97 482.01
  L 395.05 482.00
  Q 394.50 482.00 394.50 481.45
  L 394.51 408.72"
/>
<path stroke="#808ccd" vector-effect="non-scaling-stroke" d="
  M 264.40 408.61
  Q 264.38 409.00 264.00 409.00
  Q 248.96 409.00 234.68 409.00
  Q 234.34 409.00 234.34 409.34
  L 234.28 426.51
  A 0.49 0.48 90.0 0 0 234.76 427.00
  L 257.72 427.00
  Q 258.31 427.00 258.31 427.59
  L 258.34 444.39
  A 0.60 0.60 0.0 0 1 257.74 444.99
  L 235.04 444.98
  Q 234.30 444.98 234.30 445.71
  L 234.31 463.28
  A 0.72 0.72 0.0 0 0 235.03 464.00
  L 263.80 464.01
  Q 264.35 464.01 264.35 464.55
  L 264.43 481.27
  A 0.70 0.70 0.0 0 1 263.73 481.98
  L 215.76 482.00
  A 0.52 0.52 0.0 0 1 215.24 481.48
  L 215.26 409.54"
/>
<path stroke="#011db9" vector-effect="non-scaling-stroke" d="
  M 257.19 582.63
  Q 255.65 583.15 254.26 583.86
  Q 252.70 584.65 251.29 584.99
  Q 248.76 585.60 246.05 586.21
  Q 245.29 586.39 244.67 586.86
  C 243.61 587.69 242.35 587.65 241.17 588.26
  Q 235.72 591.09 232.70 595.05
  Q 231.86 596.15 231.48 597.63
  Q 231.13 598.96 230.25 600.08
  Q 229.34 601.26 228.86 602.78
  Q 228.55 603.78 227.80 604.45
  Q 227.07 605.11 226.58 606.05
  Q 225.24 608.62 224.50 611.76
  Q 224.24 612.87 223.11 613.49
  Q 221.50 614.37 220.62 616.01
  Q 219.90 617.35 218.44 617.72
  Q 216.41 618.23 214.58 618.18
  Q 213.68 618.16 212.77 618.45
  Q 212.02 618.68 211.37 618.36
  Q 210.83 618.09 210.26 618.29
  Q 206.63 619.57 204.02 621.82
  A 1.40 1.38 -60.8 0 1 202.95 622.13
  Q 200.25 621.77 197.68 622.36
  Q 197.60 622.38 197.52 622.35
  Q 197.34 622.29 197.29 622.14
  Q 197.10 621.61 196.59 621.85
  Q 194.45 622.86 191.70 622.23
  A 2.69 2.69 0.0 0 1 189.60 619.66
  C 189.55 617.76 190.00 615.64 189.09 613.89
  Q 188.13 612.06 186.01 611.39
  Q 183.31 610.53 180.47 610.38
  Q 179.94 610.36 179.53 610.02
  Q 179.02 609.61 178.38 609.48
  Q 177.99 609.41 177.76 609.08
  Q 177.36 608.50 177.56 607.89
  A 0.44 0.43 12.3 0 0 177.19 607.32
  Q 173.71 606.99 172.92 606.02"
/>
<path stroke="#808ccd" vector-effect="non-scaling-stroke" d="
  M 189.90 527.96
  L 189.86 605.17
  A 0.84 0.84 0.0 0 1 189.02 606.01
  L 172.92 606.02"
/>
<path stroke="#8090eb" vector-effect="non-scaling-stroke" d="
  M 172.92 606.02
  Q 172.06 606.13 171.36 605.87
  Q 170.87 605.69 170.87 605.16
  L 170.77 587.01"
/>
<path stroke="#808ccd" vector-effect="non-scaling-stroke" d="
  M 170.77 587.01
  L 170.83 551.31
  Q 170.83 550.77 170.55 551.23
  L 160.97 567.24
  A 1.13 1.13 0.0 0 1 160.00 567.79
  L 154.97 567.79
  A 1.55 1.54 74.4 0 1 153.65 567.04
  L 144.23 551.30
  Q 143.75 550.50 143.75 551.44
  L 143.74 605.38
  A 0.62 0.62 0.0 0 1 143.12 606.00
  L 125.59 605.99
  A 0.99 0.98 0.0 0 1 124.60 605.01
  L 124.67 531.22"
/>
<path stroke="#8090eb" vector-effect="non-scaling-stroke" d="
  M 539.83 517.87
  Q 545.66 523.81 551.30 529.47
  Q 551.48 529.65 551.76 530.54"
/>
<path stroke="#808ccd" vector-effect="non-scaling-stroke" d="
  M 551.76 530.54
  L 551.74 544.41
  Q 551.74 544.95 551.20 544.95
  L 533.52 544.97
  A 0.69 0.69 0.0 0 1 532.82 544.27
  L 532.89 538.64
  Q 532.90 537.99 532.44 537.52
  L 528.17 533.26
  A 1.68 1.67 -22.8 0 0 526.96 532.77
  L 521.08 532.79
  Q 520.28 532.79 519.72 533.36
  L 515.76 537.36
  Q 515.31 537.82 515.32 538.45
  L 515.34 544.70
  Q 515.34 545.34 515.79 545.81
  L 519.89 550.06
  Q 520.43 550.62 521.21 550.62
  L 534.71 550.64
  Q 535.68 550.64 536.37 551.33
  L 551.32 566.28
  Q 551.75 566.72 551.75 567.33
  L 551.75 589.20
  A 1.99 1.95 67.6 0 1 551.19 590.58
  L 536.80 605.04
  A 3.25 3.23 -67.4 0 1 534.51 605.99
  L 513.74 606.00
  A 3.53 3.51 -22.4 0 1 511.25 604.97
  L 496.78 590.45
  A 1.82 1.81 22.9 0 1 496.26 589.18
  L 496.26 575.75
  Q 496.26 575.01 497.00 575.01
  L 514.76 575.00
  Q 515.37 575.00 515.37 575.61
  C 515.36 577.59 514.75 581.51 516.16 583.00
  Q 518.00 584.92 519.82 586.71
  A 1.67 1.63 -22.0 0 0 520.99 587.19
  L 527.04 587.21
  Q 527.68 587.21 528.13 586.76
  Q 529.64 585.22 531.34 583.66
  C 533.45 581.74 532.93 579.01 532.94 576.47
  C 532.94 573.80 529.54 571.25 527.72 569.72
  Q 527.27 569.33 526.68 569.34
  L 513.57 569.35
  A 2.80 2.80 0.0 0 1 511.59 568.53
  L 496.91 553.80
  A 2.22 2.22 0.0 0 1 496.26 552.23
  L 496.22 536.04"
/>
<path stroke="#808ccd" vector-effect="non-scaling-stroke" d="
  M 251.28 540.20
  L 251.25 552.89
  Q 251.25 553.42 250.88 553.78
  L 236.39 567.92
  A 3.77 3.75 -66.9 0 1 233.73 569.00
  L 215.25 568.99
  Q 214.75 568.99 214.75 569.50
  L 214.74 605.25
  A 0.75 0.74 90.0 0 1 214.00 606.00
  L 196.31 605.97
  A 0.63 0.62 -90.0 0 1 195.69 605.34
  L 195.65 525.80"
/>
<path stroke="#808ccd" vector-effect="non-scaling-stroke" d="
  M 312.64 530.82
  L 312.45 552.23
  A 3.36 3.34 -22.0 0 1 311.43 554.61
  L 306.29 559.56
  A 0.64 0.64 0.0 0 0 306.29 560.49
  L 311.42 565.42
  A 3.66 3.65 22.1 0 1 312.54 568.05
  L 312.60 605.57
  A 0.43 0.43 0.0 0 1 312.17 606.00
  L 294.36 606.03
  A 0.67 0.67 0.0 0 1 293.69 605.36
  L 293.71 575.36
  A 1.96 1.93 23.1 0 0 293.15 574.00
  L 288.81 569.60
  Q 288.21 569.00 287.35 569.00
  L 276.73 569.00
  Q 276.20 569.00 276.20 569.52
  L 276.19 605.00
  A 0.91 0.90 -1.0 0 1 275.31 605.90
  L 269.52 606.04"
/>
<path stroke="#8090eb" vector-effect="non-scaling-stroke" d="
  M 257.16 599.04
  L 257.19 582.63"
/>
<path stroke="#808ccd" vector-effect="non-scaling-stroke" d="
  M 257.19 582.63
  L 257.21 543.22"
/>
<path stroke="#808ccd" vector-effect="non-scaling-stroke" d="
  M 367.58 530.32
  L 367.55 532.48
  Q 367.54 533.00 367.02 533.00
  L 338.06 533.00
  Q 337.63 533.00 337.63 533.44
  L 337.60 550.30
  A 0.70 0.70 0.0 0 0 338.30 551.00
  L 361.29 551.00
  Q 361.64 551.00 361.64 551.35
  L 361.62 568.44
  Q 361.62 569.00 361.06 569.00
  L 338.06 569.00
  A 0.44 0.44 0.0 0 0 337.62 569.44
  L 337.62 587.44
  Q 337.62 588.00 338.19 588.00
  L 366.94 588.00
  Q 367.62 588.00 367.62 588.68
  L 367.61 605.33
  Q 367.61 606.01 366.93 606.01
  L 319.06 606.00
  Q 318.55 606.00 318.55 605.49
  L 318.51 532.68"
/>
<path stroke="#808ccd" vector-effect="non-scaling-stroke" d="
  M 429.27 530.32
  L 429.14 544.35
  Q 429.14 544.95 428.54 544.95
  L 410.85 544.96
  A 0.60 0.60 0.0 0 1 410.25 544.35
  L 410.28 538.74
  Q 410.28 538.10 409.84 537.65
  L 405.47 533.26
  Q 404.97 532.75 404.26 532.76
  L 398.27 532.82
  A 1.63 1.62 -67.6 0 0 397.11 533.31
  L 393.07 537.38
  A 1.68 1.68 0.0 0 0 392.59 538.53
  L 392.57 544.58
  A 1.79 1.77 23.7 0 0 393.07 545.84
  L 396.96 549.89
  A 2.51 2.51 0.0 0 0 398.76 550.65
  L 412.38 550.64
  Q 413.02 550.64 413.47 551.10
  L 428.62 566.32
  A 2.12 2.12 0.0 0 1 429.23 567.81
  L 429.22 589.02
  Q 429.22 589.83 428.64 590.41
  L 413.79 605.34
  Q 413.13 605.99 412.21 605.99
  L 390.78 606.01
  A 2.73 2.70 67.5 0 1 388.85 605.20
  L 373.99 590.27
  Q 373.49 589.78 373.49 589.08
  L 373.50 575.25
  A 0.25 0.25 0.0 0 1 373.75 575.00
  L 391.92 574.99
  A 0.68 0.68 0.0 0 1 392.60 575.67
  L 392.55 581.16
  Q 392.54 581.79 392.94 582.28
  C 394.51 584.19 396.68 587.20 399.40 587.26
  Q 402.03 587.32 404.50 587.09
  Q 405.27 587.02 405.80 586.47
  L 409.84 582.32
  A 1.50 1.47 67.6 0 0 410.26 581.28
  L 410.28 575.60
  Q 410.28 574.69 409.63 574.04
  L 405.55 569.95
  A 2.12 2.11 -22.5 0 0 404.02 569.32
  L 391.24 569.38
  A 3.62 3.62 0.0 0 1 388.68 568.32
  L 373.99 553.58
  Q 373.49 553.08 373.48 552.37
  L 373.10 531.46"
/>
<path stroke="#808ccd" vector-effect="non-scaling-stroke" d="
  M 490.33 534.81
  L 490.31 605.41
  A 0.59 0.58 -90.0 0 1 489.73 606.00
  L 471.82 606.03
  A 0.47 0.46 -0.0 0 1 471.35 605.57
  L 471.43 569.59
  Q 471.43 569.00 470.84 569.00
  L 454.25 569.00
  A 0.50 0.50 0.0 0 0 453.75 569.50
  L 453.74 605.38
  A 0.62 0.62 0.0 0 1 453.12 606.00
  L 435.04 606.00
  A 0.34 0.34 0.0 0 1 434.70 605.66
  L 434.66 533.80
  Q 434.66 533.56 434.56 533.35
  Q 434.42 533.07 434.59 533.01"
/>
<path stroke="#011db9" vector-effect="non-scaling-stroke" d="
  M 170.77 587.01
  L 170.22 592.53
  A 0.03 0.02 44.0 0 1 170.17 592.53
  L 169.60 590.15
  Q 169.47 589.60 168.93 589.77
  L 164.90 591.08
  Q 164.48 591.22 164.24 591.59
  Q 162.60 594.06 162.09 596.57
  Q 161.88 597.62 161.30 598.46
  Q 160.92 599.02 160.62 599.61
  Q 160.04 600.78 159.80 602.35
  Q 158.98 607.85 156.39 613.08
  Q 155.63 614.61 154.49 615.82
  Q 154.03 616.31 154.02 616.97
  Q 154.01 617.67 153.44 617.99
  Q 152.89 618.29 152.61 618.85
  Q 150.61 622.78 146.34 623.13
  Q 143.75 623.33 141.19 623.55
  Q 138.54 623.78 136.08 623.49
  Q 132.76 623.10 129.32 623.76
  Q 129.01 623.82 128.69 623.87
  Q 124.67 624.55 120.86 625.35
  Q 116.32 626.31 111.49 626.08
  Q 111.10 626.06 110.83 625.79
  Q 110.56 625.53 110.19 625.55
  Q 105.63 625.86 101.24 625.67
  Q 101.07 625.66 100.99 625.51
  Q 100.93 625.39 100.82 625.31
  Q 100.45 625.07 100.02 625.11
  Q 94.14 625.65 87.41 622.79
  Q 86.36 622.35 85.66 621.29
  Q 84.51 619.54 83.36 617.90
  Q 82.69 616.94 82.46 615.50
  Q 82.29 614.40 81.88 613.26
  Q 81.59 612.46 80.95 611.98
  Q 80.25 611.46 79.49 611.18
  A 0.91 0.91 0.0 0 1 78.90 610.48
  Q 78.68 609.21 79.07 608.05
  Q 79.32 607.32 80.08 607.35
  Q 80.27 607.36 80.39 607.19
  Q 80.63 606.84 80.27 606.61
  Q 79.82 606.33 79.77 606.00"
/>
<path stroke="#011db9" vector-effect="non-scaling-stroke" d="
  M 277.66 623.81
  L 280.21 621.54
  Q 280.47 621.30 280.64 620.99
  L 282.44 617.78
  Q 282.66 617.38 283.10 617.32
  Q 287.22 616.70 291.52 617.19
  Q 291.97 617.24 292.35 617.49
  Q 293.48 618.22 294.77 617.70
  Q 296.03 617.20 296.65 618.15
  Q 296.94 618.59 297.42 618.79
  L 299.74 619.73
  Q 300.32 619.96 300.13 620.55
  Q 299.94 621.12 300.50 621.36
  Q 302.14 622.09 303.51 621.96
  Q 304.58 621.85 305.76 621.85
  A 0.35 0.35 0.0 0 1 306.09 622.32
  Q 306.03 622.50 306.12 622.65
  Q 306.37 623.08 306.84 622.96
  Q 312.18 621.66 316.81 623.27
  Q 320.02 624.38 323.12 623.88
  Q 323.58 623.80 323.81 624.21
  Q 324.13 624.76 324.81 624.68
  Q 325.46 624.61 326.11 624.72
  Q 335.93 626.33 344.74 627.11
  Q 345.75 627.20 348.25 627.01
  Q 349.95 626.89 351.76 626.94
  Q 359.80 627.18 367.50 625.63
  Q 369.04 625.32 370.49 624.52
  Q 371.42 624.01 372.59 623.82
  Q 373.69 623.65 374.70 622.92
  Q 376.03 621.95 378.24 621.38
  Q 381.75 620.47 385.20 619.65
  Q 387.16 619.19 388.86 619.43
  Q 390.93 619.72 392.64 620.55
  Q 397.34 622.82 402.99 624.01
  Q 403.48 624.12 403.88 624.43
  Q 404.37 624.82 405.00 624.64
  Q 405.55 624.49 406.07 624.74
  Q 408.63 626.00 410.95 626.02
  Q 414.94 626.04 419.38 625.60
  Q 421.22 625.42 423.01 624.79
  Q 424.72 624.18 426.38 623.78
  Q 427.31 623.56 428.19 623.68
  Q 429.17 623.82 429.78 623.14
  Q 430.18 622.69 430.78 622.64
  C 432.95 622.47 434.99 621.63 437.19 621.50
  Q 444.00 621.10 450.76 621.39
  Q 454.16 621.54 457.85 621.24
  Q 462.15 620.88 465.48 619.61
  Q 469.86 617.93 473.74 617.24
  Q 476.95 616.68 480.14 618.13
  Q 480.48 618.29 480.63 618.63
  Q 480.96 619.41 481.81 619.34
  Q 482.34 619.29 482.78 619.61
  Q 483.50 620.15 484.19 619.57
  A 1.13 1.11 -55.5 0 1 485.23 619.37
  Q 488.04 620.23 490.73 620.90
  Q 493.37 621.56 496.05 621.44
  C 499.68 621.28 503.21 621.70 506.86 620.85
  Q 509.60 620.21 512.78 621.06
  Q 521.38 623.37 530.64 625.45
  C 533.47 626.09 536.32 625.85 539.17 625.93
  Q 541.06 625.99 542.87 625.23
  Q 544.93 624.37 547.05 623.85
  Q 549.57 623.24 552.13 621.89
  Q 552.54 621.68 553.00 621.65
  Q 553.49 621.61 553.83 621.25
  L 556.96 617.96
  Q 557.24 617.67 557.63 617.55
  Q 560.85 616.57 561.61 613.95
  Q 562.84 609.69 564.59 604.21
  Q 565.10 602.65 565.23 601.02
  Q 565.39 599.00 565.57 596.99
  Q 565.76 594.68 565.21 591.78
  Q 564.37 587.35 563.14 583.13
  Q 562.73 583.12 562.61 582.50
  Q 562.41 581.47 561.57 578.66
  Q 560.98 576.66 560.84 574.70
  Q 560.24 566.35 561.76 557.82
  Q 562.06 556.10 561.99 554.30
  Q 561.93 552.68 562.11 550.93
  C 562.23 549.68 561.66 548.44 561.48 547.23
  Q 561.24 545.58 560.83 544.60
  Q 559.08 540.46 557.37 536.75
  Q 556.93 535.80 556.09 535.11
  Q 555.72 534.80 555.59 534.33
  Q 555.22 533.03 554.22 532.15
  A 1.48 1.43 -75.1 0 1 553.76 531.32
  Q 553.66 530.74 553.46 530.16
  Q 553.13 529.19 552.56 530.05
  Q 552.30 530.47 551.76 530.54"
/>
<path stroke="#808ccd" vector-effect="non-scaling-stroke" d="
  M 118.76 527.02
  L 118.71 532.52
  Q 118.71 533.00 118.23 533.00
  L 89.25 533.00
  Q 88.75 533.00 88.75 533.50
  L 88.75 550.25
  Q 88.75 551.00 89.50 551.00
  L 111.99 551.00
  A 0.75 0.75 0.0 0 1 112.74 551.75
  L 112.75 568.50
  Q 112.75 569.00 112.25 569.00
  L 89.25 569.00
  Q 88.74 569.00 88.74 569.50
  L 88.75 587.50
  Q 88.75 588.00 89.25 588.00
  L 118.26 588.00
  Q 118.77 588.00 118.77 588.51
  L 118.78 605.22
  A 0.79 0.79 0.0 0 1 117.99 606.01
  L 79.77 606.00"
/>
<path stroke="#8090eb" vector-effect="non-scaling-stroke" d="
  M 79.77 606.00
  L 69.75 605.87"
/>
<path stroke="#808ccd" vector-effect="non-scaling-stroke" d="
  M 454.29 551.01
  L 470.87 550.99
  A 0.58 0.58 0.0 0 0 471.44 550.40
  L 471.43 541.33
  A 8.63 8.48 89.9 0 0 462.93 532.72
  L 462.15 532.72
  A 8.63 8.48 89.9 0 0 453.69 541.37
  L 453.70 550.44
  A 0.58 0.58 0.0 0 0 454.29 551.01"
/>
<path stroke="#808ccd" vector-effect="non-scaling-stroke" d="
  M 214.73 533.44
  L 214.75 550.58
  A 0.46 0.46 0.0 0 0 215.22 551.03
  L 223.88 551.02
  A 8.87 8.64 89.9 0 0 232.50 542.13
  L 232.50 541.81
  A 8.87 8.64 89.9 0 0 223.84 532.96
  L 215.18 532.97
  A 0.46 0.46 0.0 0 0 214.73 533.44"
/>
<path stroke="#808ccd" vector-effect="non-scaling-stroke" d="
  M 276.17 533.41
  L 276.15 550.55
  A 0.46 0.46 0.0 0 0 276.60 551.02
  L 285.04 551.03
  A 8.72 8.72 0.0 0 0 293.78 542.33
  L 293.78 541.71
  A 8.72 8.72 0.0 0 0 285.08 532.97
  L 276.64 532.96
  A 0.46 0.46 0.0 0 0 276.17 533.41"
/>
</g>
<path fill="#0026ff" d="
  M 0.00 0.00
  L 612.00 0.00
  L 612.00 1080.00
  L 0.00 1080.00
  L 0.00 0.00
  Z
  M 153.70 480.55
  L 152.28 481.95
  Q 151.93 482.30 151.91 482.80
  Q 151.79 485.36 153.57 486.72
  Q 156.38 488.86 159.07 491.39
  Q 159.12 491.43 159.11 491.50
  Q 159.09 491.66 158.98 491.74
  Q 158.71 491.94 159.03 492.03
  Q 159.26 492.10 159.43 492.23
  Q 159.75 492.49 159.89 492.87
  Q 160.66 494.98 162.04 496.91
  Q 162.74 497.87 162.94 498.99
  C 163.27 500.84 163.42 502.32 164.35 504.07
  Q 165.69 506.57 166.81 509.11
  Q 166.92 509.38 166.85 509.66
  L 166.75 510.07
  Q 166.63 510.55 166.77 511.02
  Q 167.35 512.90 167.20 514.85
  A 2.20 2.12 -54.3 0 0 167.34 515.81
  Q 167.98 517.44 167.38 519.08
  Q 167.21 519.52 166.78 519.72
  Q 166.08 520.04 166.39 521.54
  L 157.67 536.04
  Q 157.42 536.46 157.16 536.04
  L 144.18 514.68
  A 1.47 1.46 74.0 0 0 142.94 513.99
  L 125.23 514.02
  Q 124.63 514.02 124.63 514.62
  L 124.67 531.22
  Q 124.34 530.26 124.40 529.07
  Q 124.41 528.82 124.19 528.70
  Q 123.99 528.59 123.91 528.81
  A 0.25 0.24 -62.3 0 1 123.54 528.93
  Q 122.37 528.08 120.61 528.35
  Q 119.29 528.56 118.76 527.02
  L 118.64 515.59
  Q 118.63 515.00 118.04 515.00
  L 70.28 515.00
  Q 69.76 515.00 69.76 515.52
  L 69.75 605.87
  Q 69.60 607.34 70.13 608.60
  Q 70.28 608.98 70.68 609.03
  L 75.97 609.72
  Q 76.43 609.78 76.78 610.08
  L 80.43 613.29
  Q 80.80 613.63 80.95 614.11
  Q 81.30 615.30 81.42 616.47
  Q 81.58 617.93 82.79 619.54
  Q 84.06 621.22 85.27 622.94
  Q 85.60 623.40 86.10 623.66
  L 100.50 630.96
  A 1.93 1.89 52.5 0 0 101.71 631.13
  Q 102.57 630.96 103.33 631.46
  C 104.50 632.25 106.07 632.25 107.33 631.64
  Q 107.77 631.43 108.25 631.53
  Q 110.49 632.01 112.53 631.74
  Q 113.60 631.61 114.52 631.87
  C 116.13 632.34 117.57 632.73 119.26 632.57
  Q 120.72 632.43 122.14 632.60
  C 124.20 632.85 126.51 631.82 128.56 631.47
  Q 128.71 631.45 128.78 631.58
  Q 128.88 631.77 129.10 631.76
  Q 136.87 631.34 145.20 631.16
  Q 147.29 631.12 149.01 630.45
  Q 150.71 629.78 152.69 629.68
  C 154.21 629.61 155.37 628.76 156.96 628.65
  A 0.99 0.98 15.6 0 0 157.70 628.24
  Q 158.21 627.52 159.02 627.45
  C 160.49 627.32 161.78 626.51 162.99 625.71
  Q 164.04 625.02 164.55 624.03
  Q 166.03 621.12 169.58 619.31
  Q 170.33 618.93 170.75 618.21
  Q 170.99 617.80 171.47 617.80
  L 175.25 617.81
  Q 175.76 617.81 176.11 618.18
  Q 177.12 619.22 178.30 620.19
  Q 179.39 621.10 180.79 621.40
  Q 182.51 621.77 183.96 623.01
  Q 184.99 623.88 186.48 624.30
  Q 189.73 625.20 193.10 625.50
  Q 193.16 625.51 193.21 625.55
  Q 193.36 625.65 193.35 625.80
  Q 193.30 626.44 193.74 625.97
  Q 194.11 625.58 194.59 625.47
  Q 198.15 624.66 201.36 625.45
  Q 202.78 625.80 204.30 625.90
  Q 205.91 626.02 207.43 626.51
  Q 210.59 627.53 214.28 627.83
  A 1.75 1.71 33.0 0 0 215.22 627.64
  Q 216.66 626.92 218.27 626.90
  Q 218.56 626.90 218.78 626.70
  L 219.11 626.38
  Q 219.54 625.97 220.14 625.89
  L 225.68 625.20
  Q 225.90 625.17 226.08 625.04
  Q 227.33 624.16 228.66 623.49
  Q 232.45 621.57 233.49 617.79
  Q 233.65 617.20 234.14 616.84
  Q 234.88 616.29 234.84 615.37
  Q 234.81 614.87 235.17 614.53
  Q 236.15 613.61 236.50 612.33
  Q 237.27 609.47 238.08 606.60
  Q 239.93 600.07 245.99 597.78
  C 248.99 596.65 251.23 597.40 252.72 600.12
  Q 253.53 601.59 253.87 603.02
  Q 253.99 603.49 254.40 603.76
  A 0.97 0.93 10.7 0 1 254.78 604.29
  C 255.27 606.03 255.67 609.13 258.20 608.88
  Q 258.71 608.83 258.20 608.76
  Q 258.03 608.74 257.88 608.78
  A 0.58 0.58 0.0 0 1 257.23 608.46
  Q 256.39 606.71 256.59 605.48
  Q 257.28 601.46 257.16 599.04
  L 257.27 605.24
  A 0.76 0.76 0.0 0 0 258.02 605.98
  L 269.52 606.04
  Q 271.55 607.69 274.12 607.66
  Q 274.71 607.65 274.66 608.24
  L 274.21 614.26
  A 0.77 0.75 -25.6 0 1 274.08 614.61
  L 271.95 617.70
  Q 271.67 618.10 271.78 618.58
  L 272.62 622.25
  A 2.50 2.49 -3.1 0 0 274.78 624.18
  Q 276.16 624.34 277.66 623.81
  Q 279.52 623.43 281.14 622.66
  Q 281.92 622.29 282.44 621.72
  C 283.88 620.13 286.86 621.87 288.14 622.93
  Q 289.40 623.97 291.38 624.36
  Q 294.45 624.96 297.87 625.32
  Q 298.37 625.37 298.79 625.65
  Q 303.09 628.56 305.00 628.64
  Q 309.83 628.87 311.50 629.36
  Q 315.18 630.45 319.00 630.88
  Q 328.41 631.95 337.04 631.83
  Q 337.34 631.83 337.43 632.11
  Q 337.49 632.31 337.70 632.31
  Q 344.82 632.66 351.70 631.92
  C 356.77 631.38 362.17 632.22 367.12 631.26
  Q 369.28 630.84 371.39 630.69
  Q 373.94 630.50 376.01 629.57
  Q 378.23 628.56 380.38 627.56
  Q 382.52 626.56 385.77 625.76
  Q 386.18 625.66 386.59 625.76
  Q 387.99 626.11 389.38 626.42
  Q 391.00 626.77 392.37 628.12
  Q 392.72 628.47 393.20 628.59
  L 407.26 631.99
  Q 407.69 632.09 408.12 632.09
  C 412.06 632.14 415.71 632.67 419.67 632.05
  Q 420.23 631.97 420.82 631.97
  Q 421.36 631.97 421.83 631.74
  Q 422.20 631.56 422.60 631.50
  L 429.72 630.36
  A 0.41 0.39 -86.4 0 0 430.04 630.07
  Q 430.10 629.87 430.29 629.85
  Q 432.77 629.66 435.27 629.13
  Q 437.59 628.63 440.27 628.68
  Q 445.80 628.77 451.31 629.27
  C 452.30 629.35 453.05 628.85 453.99 629.26
  Q 454.50 629.48 455.04 629.43
  Q 456.49 629.28 457.93 629.43
  Q 459.22 629.55 460.66 629.45
  Q 464.79 629.15 468.73 628.75
  Q 469.23 628.70 469.63 628.39
  Q 470.21 627.95 470.98 628.10
  Q 471.39 628.18 471.66 628.49
  Q 472.08 628.97 472.39 629.53
  Q 472.75 630.19 473.06 629.51
  Q 473.36 628.87 474.10 628.81
  Q 475.78 628.69 477.29 629.09
  Q 478.63 629.45 480.12 629.30
  Q 481.22 629.19 482.23 629.05
  Q 483.23 628.91 484.19 628.67
  Q 486.57 628.06 489.04 628.96
  Q 489.50 629.13 489.99 629.08
  Q 490.60 629.01 491.09 629.36
  Q 491.47 629.62 491.93 629.62
  Q 498.55 629.57 505.18 628.42
  Q 508.76 627.80 512.52 628.03
  Q 516.77 628.29 520.02 629.13
  Q 527.24 631.00 532.30 630.85
  Q 537.88 630.68 546.05 628.27
  Q 547.61 627.81 548.84 627.05
  Q 550.26 626.19 551.71 625.63
  Q 553.97 624.78 555.87 623.50
  Q 559.01 621.40 562.44 619.98
  Q 563.97 619.35 564.33 617.68
  Q 564.45 617.16 564.78 616.75
  Q 566.40 614.82 567.46 612.62
  Q 569.43 608.55 570.38 604.21
  Q 570.48 603.75 570.94 603.63
  Q 571.19 603.57 571.24 603.23
  Q 572.05 596.95 571.84 590.60
  Q 571.78 588.89 571.38 587.47
  Q 570.96 586.00 570.33 584.48
  Q 569.44 582.29 568.95 579.57
  Q 567.98 574.22 567.93 570.19
  Q 567.90 566.89 568.67 562.89
  Q 569.01 561.13 569.06 559.47
  Q 569.12 557.56 569.50 555.80
  Q 570.02 553.43 569.84 551.10
  Q 569.48 546.32 566.98 542.29
  Q 566.34 541.25 566.15 540.20
  Q 565.96 539.17 565.25 538.32
  Q 564.36 537.25 563.93 536.01
  Q 563.50 534.75 563.01 533.50
  Q 562.93 533.30 562.78 533.16
  Q 562.57 532.97 562.33 532.80
  Q 561.93 532.51 561.73 532.07
  Q 560.68 529.72 559.41 527.47
  Q 558.72 526.24 557.42 525.91
  Q 556.93 525.79 556.57 525.42
  Q 555.65 524.45 554.61 523.93
  Q 553.83 523.54 553.16 523.06
  Q 552.34 522.47 551.27 522.62
  Q 550.78 522.69 550.38 522.39
  Q 548.20 520.76 545.60 520.82
  A 3.53 3.12 -15.4 0 1 542.70 519.40
  Q 541.92 518.21 539.83 517.87
  L 536.53 514.65
  A 2.30 2.29 67.0 0 0 534.93 514.00
  L 513.59 514.00
  A 3.25 3.23 -67.4 0 0 511.30 514.95
  L 504.56 521.74
  Q 503.78 521.63 503.18 522.47
  Q 502.97 522.75 502.64 522.86
  Q 502.48 522.92 502.30 522.87
  Q 501.80 522.75 501.38 523.05
  Q 497.60 525.77 492.60 522.89
  Q 490.51 521.69 488.21 521.57
  Q 487.55 521.53 487.10 521.03
  L 482.59 516.00
  Q 482.18 515.55 482.10 514.95
  Q 481.92 513.49 482.26 512.30
  Q 482.98 509.76 484.48 507.30
  Q 486.01 504.78 485.80 501.97
  Q 485.52 498.19 485.70 494.70
  Q 485.75 493.74 485.33 493.08
  A 1.06 1.05 -54.4 0 1 485.20 492.26
  L 485.95 489.25
  Q 486.06 488.84 485.94 488.43
  Q 485.74 487.67 485.95 486.90
  Q 486.34 485.48 485.92 484.05
  Q 485.76 483.53 485.95 483.03
  Q 486.14 482.49 486.04 481.93
  Q 485.03 476.39 484.49 471.45
  Q 484.08 467.63 484.25 463.18
  Q 484.50 457.12 483.95 451.55
  Q 483.62 448.22 484.04 444.12
  Q 484.43 440.25 484.87 436.52
  Q 485.60 430.41 487.17 424.36
  Q 488.02 421.10 487.10 414.54
  Q 486.95 413.43 486.50 412.39
  Q 486.02 411.26 485.72 410.09
  Q 485.25 408.27 483.94 407.13
  Q 482.81 406.14 481.88 404.85
  Q 479.59 401.66 476.95 398.77
  Q 475.90 397.61 474.59 396.86
  Q 473.18 396.04 472.20 394.62
  A 1.48 1.47 65.1 0 0 470.62 394.04
  Q 469.91 394.23 469.50 393.63
  Q 469.23 393.23 469.12 392.76
  Q 469.01 392.25 468.33 392.04
  L 468.28 391.49
  Q 468.24 391.00 467.75 391.00
  L 420.00 391.00
  A 0.78 0.78 0.0 0 0 419.22 391.78
  L 419.24 401.94
  Q 416.89 402.87 414.76 402.57
  Q 413.33 402.36 413.62 399.78
  L 413.58 390.59
  Q 413.58 389.99 412.98 389.99
  L 395.05 390.02
  Q 394.53 390.02 394.53 390.54
  L 394.51 408.72
  L 394.26 408.33
  Q 393.97 407.87 393.62 408.29
  Q 393.13 408.87 392.25 408.62
  Q 390.05 408.00 388.82 408.58
  L 388.48 391.49
  Q 388.47 391.00 387.97 391.00
  L 333.53 391.00
  A 0.33 0.32 -90.0 0 0 333.21 391.33
  L 333.16 408.73
  C 332.29 408.47 331.96 408.79 331.20 408.90
  Q 330.79 408.96 330.58 408.56
  A 0.79 0.77 -10.4 0 0 329.99 408.16
  Q 328.67 408.01 327.21 410.10
  L 327.17 390.62
  Q 327.17 390.00 326.55 390.00
  L 308.78 390.00
  Q 308.25 390.00 308.25 390.53
  L 308.26 415.50
  Q 303.08 416.73 299.71 414.57
  L 289.37 390.56
  Q 289.13 390.00 288.51 390.00
  L 270.78 390.00
  Q 270.25 390.00 270.25 390.53
  L 270.17 411.48
  Q 269.12 411.78 268.10 411.50
  A 1.30 1.26 77.8 0 1 267.41 411.04
  L 265.89 409.06
  Q 265.62 408.71 265.19 408.83
  Q 264.85 408.93 264.40 408.61
  L 264.39 391.41
  A 0.41 0.41 0.0 0 0 263.98 391.00
  L 215.98 391.00
  A 0.76 0.76 0.0 0 0 215.22 391.77
  L 215.26 409.54
  Q 211.45 407.94 210.15 409.88
  Q 209.96 410.17 209.63 410.10
  L 209.31 410.03
  L 209.28 390.54
  Q 209.28 390.00 208.73 390.00
  L 190.98 390.00
  Q 190.38 390.00 190.38 390.60
  L 190.40 412.95
  Q 183.13 410.49 176.93 406.28
  Q 176.52 406.00 176.02 405.99
  Q 173.39 405.95 172.77 404.96
  L 172.72 390.52
  Q 172.71 390.00 172.19 390.00
  L 154.30 390.00
  Q 153.67 390.00 153.67 390.63
  L 153.70 480.55
  Z"
/>
<path fill="#ffffff" d="
  M 172.77 404.96
  L 172.82 426.36
  Q 172.82 427.00 173.46 427.00
  L 184.48 427.00
  A 1.38 1.36 22.3 0 0 185.45 426.60
  L 189.81 422.22
  Q 190.26 421.77 190.27 421.14
  L 190.40 412.95
  L 190.38 390.60
  Q 190.38 390.00 190.98 390.00
  L 208.73 390.00
  Q 209.28 390.00 209.28 390.54
  L 209.31 410.03
  L 209.27 428.40
  A 2.77 2.75 -21.8 0 1 208.40 430.41
  L 202.94 435.57
  A 0.60 0.60 0.0 0 0 202.94 436.44
  L 208.52 441.62
  A 2.36 2.34 21.7 0 1 209.27 443.34
  L 209.32 481.60
  Q 209.32 482.01 208.91 482.01
  L 190.78 482.00
  A 0.48 0.48 0.0 0 1 190.30 481.52
  Q 190.41 466.64 190.45 452.91
  C 190.46 451.67 190.44 450.39 189.52 449.44
  Q 187.44 447.30 185.42 445.46
  A 1.74 1.74 0.0 0 0 184.24 445.00
  L 173.25 444.99
  Q 172.75 444.99 172.75 445.50
  L 172.74 481.44
  Q 172.74 482.01 172.17 482.01
  L 161.79 482.02
  Q 156.01 482.05 154.25 481.92
  Q 153.29 481.84 153.70 480.55
  L 153.67 390.63
  Q 153.67 390.00 154.30 390.00
  L 172.19 390.00
  Q 172.71 390.00 172.72 390.52
  L 172.77 404.96
  Z"
/>
<path fill="#ffffff" d="
  M 299.71 414.57
  L 307.89 433.54
  Q 308.28 434.43 308.28 433.46
  L 308.26 415.50
  L 308.25 390.53
  Q 308.25 390.00 308.78 390.00
  L 326.55 390.00
  Q 327.17 390.00 327.17 390.62
  L 327.21 410.10
  L 327.28 481.43
  A 0.56 0.56 0.0 0 1 326.72 481.99
  L 308.77 482.00
  A 0.94 0.92 -11.4 0 1 307.91 481.44
  L 289.37 438.41
  Q 289.11 437.78 289.11 438.47
  L 289.20 481.26
  A 0.72 0.72 0.0 0 1 288.48 481.98
  L 270.56 482.01
  A 0.44 0.44 0.0 0 1 270.12 481.57
  L 270.17 411.48
  L 270.25 390.53
  Q 270.25 390.00 270.78 390.00
  L 288.51 390.00
  Q 289.13 390.00 289.37 390.56
  L 299.71 414.57
  Z"
/>
<path fill="#ffffff" d="
  M 413.62 399.78
  L 413.62 481.36
  Q 413.62 482.01 412.97 482.01
  L 395.05 482.00
  Q 394.50 482.00 394.50 481.45
  L 394.51 408.72
  L 394.53 390.54
  Q 394.53 390.02 395.05 390.02
  L 412.98 389.99
  Q 413.58 389.99 413.58 390.59
  L 413.62 399.78
  Z"
/>
<path fill="#ffffff" d="
  M 264.40 408.61
  Q 264.38 409.00 264.00 409.00
  Q 248.96 409.00 234.68 409.00
  Q 234.34 409.00 234.34 409.34
  L 234.28 426.51
  A 0.49 0.48 90.0 0 0 234.76 427.00
  L 257.72 427.00
  Q 258.31 427.00 258.31 427.59
  L 258.34 444.39
  A 0.60 0.60 0.0 0 1 257.74 444.99
  L 235.04 444.98
  Q 234.30 444.98 234.30 445.71
  L 234.31 463.28
  A 0.72 0.72 0.0 0 0 235.03 464.00
  L 263.80 464.01
  Q 264.35 464.01 264.35 464.55
  L 264.43 481.27
  A 0.70 0.70 0.0 0 1 263.73 481.98
  L 215.76 482.00
  A 0.52 0.52 0.0 0 1 215.24 481.48
  L 215.26 409.54
  L 215.22 391.77
  A 0.76 0.76 0.0 0 1 215.98 391.00
  L 263.98 391.00
  A 0.41 0.41 0.0 0 1 264.39 391.41
  L 264.40 408.61
  Z"
/>
<path fill="#ffffff" d="
  M 388.82 408.58
  L 355.69 463.41
  A 0.39 0.39 0.0 0 0 356.02 464.00
  L 387.95 463.98
  Q 388.67 463.98 388.67 464.70
  L 388.69 481.52
  A 0.47 0.46 -90.0 0 1 388.23 481.99
  L 333.79 482.00
  Q 333.15 482.00 333.15 481.36
  Q 333.24 473.52 333.14 465.77
  Q 333.12 463.86 334.13 462.19
  Q 349.90 436.25 366.28 409.35
  A 0.23 0.22 -74.6 0 0 366.09 409.01
  Q 349.73 408.99 333.34 408.99
  Q 333.30 408.99 333.28 408.96
  Q 333.22 408.85 333.16 408.73
  L 333.21 391.33
  A 0.33 0.32 90.0 0 1 333.53 391.00
  L 387.97 391.00
  Q 388.47 391.00 388.48 391.49
  L 388.82 408.58
  Z"
/>
<path fill="#ffffff" d="
  M 468.33 392.04
  L 468.32 408.13
  Q 468.44 408.96 467.50 408.96
  Q 452.92 408.94 438.81 409.06
  Q 438.33 409.06 438.33 409.54
  L 438.28 426.51
  A 0.49 0.48 90.0 0 0 438.76 427.00
  L 461.97 427.01
  A 0.34 0.34 0.0 0 1 462.31 427.35
  L 462.33 444.46
  Q 462.33 445.00 461.79 445.00
  L 438.93 445.00
  Q 438.35 445.00 438.35 445.57
  L 438.33 463.55
  A 0.43 0.43 0.0 0 0 438.76 463.99
  L 468.37 464.04
  L 468.43 473.98
  L 468.37 481.39
  A 0.63 0.63 0.0 0 1 467.74 482.01
  L 419.96 481.99
  Q 419.23 481.99 419.23 481.26
  L 419.24 401.94
  L 419.22 391.78
  A 0.78 0.78 0.0 0 1 420.00 391.00
  L 467.75 391.00
  Q 468.24 391.00 468.28 391.49
  L 468.33 392.04
  Z"
/>
<path fill="#0021d7" d="
  M 468.33 392.04
  Q 469.01 392.25 469.12 392.76
  Q 469.23 393.23 469.50 393.63
  Q 469.91 394.23 470.62 394.04
  A 1.48 1.47 65.1 0 1 472.20 394.62
  Q 473.18 396.04 474.59 396.86
  Q 475.90 397.61 476.95 398.77
  Q 479.59 401.66 481.88 404.85
  Q 482.81 406.14 483.94 407.13
  Q 485.25 408.27 485.72 410.09
  Q 486.02 411.26 486.50 412.39
  Q 486.95 413.43 487.10 414.54
  Q 488.02 421.10 487.17 424.36
  Q 485.60 430.41 484.87 436.52
  Q 484.43 440.25 484.04 444.12
  Q 483.62 448.22 483.95 451.55
  Q 484.50 457.12 484.25 463.18
  Q 484.08 467.63 484.49 471.45
  Q 485.03 476.39 486.04 481.93
  Q 486.14 482.49 485.95 483.03
  Q 485.76 483.53 485.92 484.05
  Q 486.34 485.48 485.95 486.90
  Q 485.74 487.67 485.94 488.43
  Q 486.06 488.84 485.95 489.25
  L 485.20 492.26
  A 1.06 1.05 -54.4 0 0 485.33 493.08
  Q 485.75 493.74 485.70 494.70
  Q 485.52 498.19 485.80 501.97
  Q 486.01 504.78 484.48 507.30
  Q 482.98 509.76 482.26 512.30
  Q 481.92 513.49 482.10 514.95
  Q 482.18 515.55 482.59 516.00
  L 487.10 521.03
  Q 487.55 521.53 488.21 521.57
  Q 490.51 521.69 492.60 522.89
  Q 497.60 525.77 501.38 523.05
  Q 501.80 522.75 502.30 522.87
  Q 502.48 522.92 502.64 522.86
  Q 502.97 522.75 503.18 522.47
  Q 503.78 521.63 504.56 521.74
  Q 501.32 525.03 498.08 528.08
  C 495.59 530.43 496.28 533.16 496.22 536.04
  L 490.33 534.81
  L 490.17 530.54
  Q 490.14 530.01 489.77 529.62
  L 474.87 514.58
  A 1.98 1.98 0.0 0 0 473.47 514.00
  L 451.77 514.00
  A 2.22 2.22 0.0 0 0 450.20 514.65
  Q 443.00 521.84 435.62 529.29
  C 434.59 530.32 434.52 531.65 434.59 533.01
  L 434.30 533.18
  Q 433.91 533.41 433.86 532.96
  Q 433.70 531.27 432.25 530.78
  Q 431.57 530.55 429.27 530.32
  L 413.55 514.51
  A 1.67 1.67 0.0 0 0 412.36 514.01
  Q 401.73 514.00 390.89 513.99
  Q 389.73 513.99 388.96 514.71
  Q 380.24 522.92 373.10 531.46
  L 367.58 530.32
  L 367.61 515.39
  Q 367.61 515.00 367.23 515.00
  L 319.04 515.00
  Q 318.55 515.00 318.55 515.49
  L 318.51 532.68
  Q 317.45 530.50 312.64 530.82
  L 297.57 515.84
  A 2.93 2.90 -22.3 0 0 295.51 514.99
  L 257.77 515.02
  Q 257.26 515.02 257.26 515.53
  L 257.21 543.22
  Q 257.22 541.40 256.03 541.32
  Q 255.65 541.30 255.35 541.06
  Q 254.16 540.13 251.28 540.20
  L 251.25 531.09
  Q 251.25 530.56 250.87 530.19
  L 235.98 515.71
  A 2.51 2.51 0.0 0 0 234.23 515.00
  L 196.07 515.00
  A 0.42 0.42 0.0 0 0 195.65 515.42
  L 195.65 525.80
  Q 195.48 526.58 194.57 526.80
  Q 194.09 526.92 193.87 527.36
  Q 193.67 527.75 193.72 528.12
  Q 193.75 528.41 193.46 528.38
  Q 193.25 528.35 193.20 528.16
  Q 193.01 527.33 192.44 527.79
  L 191.98 528.15
  Q 191.62 528.43 191.29 528.12
  Q 190.76 527.62 189.90 527.96
  L 189.89 514.42
  A 0.43 0.42 -0.0 0 0 189.46 514.00
  L 171.50 514.01
  Q 170.85 514.01 170.51 514.57
  L 166.39 521.54
  Q 166.08 520.04 166.78 519.72
  Q 167.21 519.52 167.38 519.08
  Q 167.98 517.44 167.34 515.81
  A 2.20 2.12 -54.3 0 1 167.20 514.85
  Q 167.35 512.90 166.77 511.02
  Q 166.63 510.55 166.75 510.07
  L 166.85 509.66
  Q 166.92 509.38 166.81 509.11
  Q 165.69 506.57 164.35 504.07
  C 163.42 502.32 163.27 500.84 162.94 498.99
  Q 162.74 497.87 162.04 496.91
  Q 160.66 494.98 159.89 492.87
  Q 159.75 492.49 159.43 492.23
  Q 159.26 492.10 159.03 492.03
  Q 158.71 491.94 158.98 491.74
  Q 159.09 491.66 159.11 491.50
  Q 159.12 491.43 159.07 491.39
  Q 156.38 488.86 153.57 486.72
  Q 151.79 485.36 151.91 482.80
  Q 151.93 482.30 152.28 481.95
  L 153.70 480.55
  Q 153.29 481.84 154.25 481.92
  Q 156.01 482.05 161.79 482.02
  L 162.20 484.58
  Q 162.28 485.08 162.77 485.18
  Q 164.29 485.51 165.59 486.10
  Q 166.83 486.67 167.74 488.38
  Q 169.18 491.09 170.85 493.48
  Q 170.90 493.55 171.32 494.29
  Q 171.86 495.25 172.96 495.38
  Q 175.99 495.73 179.04 495.92
  Q 179.54 495.95 179.97 495.70
  Q 181.54 494.78 182.66 493.51
  Q 183.37 492.70 184.32 492.49
  Q 184.81 492.39 185.12 492.01
  Q 187.47 489.24 190.78 487.48
  Q 191.24 487.25 191.71 487.44
  Q 192.85 487.92 194.00 487.42
  Q 194.34 487.27 194.63 487.51
  Q 195.66 488.33 197.08 488.34
  Q 197.51 488.35 197.75 488.70
  Q 198.40 489.66 199.35 490.46
  Q 199.76 490.80 200.24 490.93
  Q 200.98 491.13 201.72 491.29
  Q 202.25 491.41 202.54 491.86
  Q 203.57 493.50 205.13 494.23
  Q 205.79 494.54 206.20 494.98
  C 207.03 495.86 207.77 496.72 208.96 497.02
  Q 210.58 497.42 212.15 498.05
  Q 213.75 498.69 215.40 498.94
  Q 219.52 499.58 223.46 500.02
  Q 224.49 500.13 225.48 500.45
  Q 226.66 500.83 227.90 500.61
  Q 228.28 500.54 228.63 500.73
  C 229.79 501.39 231.15 501.07 232.46 501.24
  Q 242.71 502.59 254.13 501.99
  Q 254.96 501.94 255.80 502.14
  Q 256.80 502.38 257.68 501.78
  Q 257.94 501.60 258.23 501.72
  Q 258.96 501.99 259.76 501.88
  Q 263.02 501.44 266.18 501.17
  Q 266.81 501.11 267.74 500.71
  Q 268.51 500.39 269.35 500.31
  Q 269.85 500.26 270.30 500.04
  Q 271.43 499.49 272.53 499.81
  Q 272.97 499.94 273.40 499.82
  Q 275.10 499.37 276.94 499.81
  A 0.60 0.58 46.2 0 0 277.18 499.82
  L 297.42 496.78
  Q 297.88 496.71 298.31 496.51
  Q 300.90 495.26 303.81 494.59
  Q 307.22 493.81 309.89 494.38
  Q 313.10 495.07 315.61 495.84
  Q 318.18 496.62 321.29 497.77
  Q 323.18 498.47 325.58 498.69
  Q 327.74 498.89 329.85 499.31
  Q 332.05 499.75 334.51 499.98
  A 64.25 6.22 4.6 0 1 343.35 500.87
  Q 354.81 502.09 366.26 503.10
  Q 367.62 503.22 368.78 502.91
  Q 369.78 502.65 370.76 502.64
  Q 376.29 502.59 381.77 501.97
  Q 382.83 501.85 383.84 502.07
  A 2.51 2.44 -42.4 0 0 384.75 502.10
  Q 387.00 501.75 389.29 501.51
  Q 391.58 501.27 393.88 500.52
  Q 397.79 499.25 402.36 499.75
  Q 403.34 499.86 404.33 499.63
  Q 405.92 499.28 407.59 499.69
  Q 409.18 500.09 410.82 500.15
  Q 418.52 500.44 426.07 500.61
  Q 429.25 500.68 432.31 500.97
  Q 435.19 501.24 438.49 501.45
  Q 438.97 501.48 439.38 501.76
  Q 439.69 501.98 440.07 501.92
  Q 440.48 501.85 440.92 501.88
  Q 444.73 502.17 448.70 502.43
  Q 452.43 502.67 456.35 502.35
  Q 462.31 501.86 467.18 501.16
  Q 469.61 500.80 471.65 498.69
  Q 472.00 498.32 472.51 498.22
  Q 475.62 497.63 478.04 495.89
  Q 479.12 495.13 478.72 493.85
  A 1.32 1.25 -48.9 0 1 478.69 493.13
  Q 479.12 491.43 477.95 489.89
  Q 477.84 489.75 477.96 489.62
  Q 478.05 489.50 478.11 489.36
  Q 478.23 489.03 478.04 488.73
  Q 476.65 486.52 474.69 484.82
  Q 474.32 484.49 474.13 484.03
  Q 473.52 482.52 472.15 481.78
  A 0.46 0.34 71.6 0 1 472.02 481.69
  L 469.51 479.07
  Q 469.08 478.62 469.02 478.00
  Q 468.73 474.99 468.93 471.60
  Q 468.94 471.44 468.78 471.43
  L 468.77 471.43
  Q 468.61 471.43 468.61 471.59
  Q 468.66 472.79 468.43 473.98
  L 468.37 464.04
  L 468.71 466.93
  Q 468.80 467.77 469.09 466.98
  Q 469.50 465.81 468.77 465.22
  Q 468.42 464.94 468.76 464.66
  Q 469.23 464.26 469.19 463.61
  Q 469.17 463.30 468.86 463.36
  Q 468.72 463.39 468.60 463.30
  Q 468.29 463.06 468.36 462.67
  Q 468.49 461.95 469.22 461.83
  A 0.50 0.48 -8.6 0 0 469.63 461.29
  Q 469.55 460.72 469.84 460.21
  Q 471.58 457.18 469.64 453.64
  Q 469.38 453.16 469.39 452.61
  Q 469.47 449.70 469.28 447.06
  Q 469.14 444.99 468.38 442.93
  Q 467.54 440.64 467.35 438.93
  Q 467.17 437.31 467.06 435.20
  Q 467.02 434.30 467.42 433.46
  Q 467.85 432.59 468.06 431.63
  Q 468.09 431.47 468.19 431.33
  Q 468.36 431.09 468.64 430.99
  Q 469.13 430.81 469.37 430.35
  Q 470.65 427.84 472.99 426.34
  Q 474.67 425.26 475.43 423.63
  Q 476.11 422.14 476.77 420.52
  Q 477.40 418.94 477.41 417.45
  C 477.43 415.12 478.53 411.44 475.41 410.33
  Q 473.37 409.61 470.85 407.90
  Q 469.92 407.27 468.32 408.13
  L 468.33 392.04
  Z"
/>
<path fill="#01189a" d="
  M 413.62 399.78
  Q 413.33 402.36 414.76 402.57
  Q 416.89 402.87 419.24 401.94
  L 419.23 481.26
  Q 419.23 481.99 419.96 481.99
  L 467.74 482.01
  A 0.63 0.63 0.0 0 0 468.37 481.39
  L 468.43 473.98
  Q 468.66 472.79 468.61 471.59
  Q 468.61 471.43 468.77 471.43
  L 468.78 471.43
  Q 468.94 471.44 468.93 471.60
  Q 468.73 474.99 469.02 478.00
  Q 469.08 478.62 469.51 479.07
  L 472.02 481.69
  A 0.46 0.34 71.6 0 0 472.15 481.78
  Q 473.52 482.52 474.13 484.03
  Q 474.32 484.49 474.69 484.82
  Q 476.65 486.52 478.04 488.73
  Q 478.23 489.03 478.11 489.36
  Q 478.05 489.50 477.96 489.62
  Q 477.84 489.75 477.95 489.89
  Q 479.12 491.43 478.69 493.13
  A 1.32 1.25 -48.9 0 0 478.72 493.85
  Q 479.12 495.13 478.04 495.89
  Q 475.62 497.63 472.51 498.22
  Q 472.00 498.32 471.65 498.69
  Q 469.61 500.80 467.18 501.16
  Q 462.31 501.86 456.35 502.35
  Q 452.43 502.67 448.70 502.43
  Q 444.73 502.17 440.92 501.88
  Q 440.48 501.85 440.07 501.92
  Q 439.69 501.98 439.38 501.76
  Q 438.97 501.48 438.49 501.45
  Q 435.19 501.24 432.31 500.97
  Q 429.25 500.68 426.07 500.61
  Q 418.52 500.44 410.82 500.15
  Q 409.18 500.09 407.59 499.69
  Q 405.92 499.28 404.33 499.63
  Q 403.34 499.86 402.36 499.75
  Q 397.79 499.25 393.88 500.52
  Q 391.58 501.27 389.29 501.51
  Q 387.00 501.75 384.75 502.10
  A 2.51 2.44 -42.4 0 1 383.84 502.07
  Q 382.83 501.85 381.77 501.97
  Q 376.29 502.59 370.76 502.64
  Q 369.78 502.65 368.78 502.91
  Q 367.62 503.22 366.26 503.10
  Q 354.81 502.09 343.35 500.87
  A 64.25 6.22 4.6 0 0 334.51 499.98
  Q 332.05 499.75 329.85 499.31
  Q 327.74 498.89 325.58 498.69
  Q 323.18 498.47 321.29 497.77
  Q 318.18 496.62 315.61 495.84
  Q 313.10 495.07 309.89 494.38
  Q 307.22 493.81 303.81 494.59
  Q 300.90 495.26 298.31 496.51
  Q 297.88 496.71 297.42 496.78
  L 277.18 499.82
  A 0.60 0.58 46.2 0 1 276.94 499.81
  Q 275.10 499.37 273.40 499.82
  Q 272.97 499.94 272.53 499.81
  Q 271.43 499.49 270.30 500.04
  Q 269.85 500.26 269.35 500.31
  Q 268.51 500.39 267.74 500.71
  Q 266.81 501.11 266.18 501.17
  Q 263.02 501.44 259.76 501.88
  Q 258.96 501.99 258.23 501.72
  Q 257.94 501.60 257.68 501.78
  Q 256.80 502.38 255.80 502.14
  Q 254.96 501.94 254.13 501.99
  Q 242.71 502.59 232.46 501.24
  C 231.15 501.07 229.79 501.39 228.63 500.73
  Q 228.28 500.54 227.90 500.61
  Q 226.66 500.83 225.48 500.45
  Q 224.49 500.13 223.46 500.02
  Q 219.52 499.58 215.40 498.94
  Q 213.75 498.69 212.15 498.05
  Q 210.58 497.42 208.96 497.02
  C 207.77 496.72 207.03 495.86 206.20 494.98
  Q 205.79 494.54 205.13 494.23
  Q 203.57 493.50 202.54 491.86
  Q 202.25 491.41 201.72 491.29
  Q 200.98 491.13 200.24 490.93
  Q 199.76 490.80 199.35 490.46
  Q 198.40 489.66 197.75 488.70
  Q 197.51 488.35 197.08 488.34
  Q 195.66 488.33 194.63 487.51
  Q 194.34 487.27 194.00 487.42
  Q 192.85 487.92 191.71 487.44
  Q 191.24 487.25 190.78 487.48
  Q 187.47 489.24 185.12 492.01
  Q 184.81 492.39 184.32 492.49
  Q 183.37 492.70 182.66 493.51
  Q 181.54 494.78 179.97 495.70
  Q 179.54 495.95 179.04 495.92
  Q 175.99 495.73 172.96 495.38
  Q 171.86 495.25 171.32 494.29
  Q 170.90 493.55 170.85 493.48
  Q 169.18 491.09 167.74 488.38
  Q 166.83 486.67 165.59 486.10
  Q 164.29 485.51 162.77 485.18
  Q 162.28 485.08 162.20 484.58
  L 161.79 482.02
  L 172.17 482.01
  Q 172.74 482.01 172.74 481.44
  L 172.75 445.50
  Q 172.75 444.99 173.25 444.99
  L 184.24 445.00
  A 1.74 1.74 0.0 0 1 185.42 445.46
  Q 187.44 447.30 189.52 449.44
  C 190.44 450.39 190.46 451.67 190.45 452.91
  Q 190.41 466.64 190.30 481.52
  A 0.48 0.48 0.0 0 0 190.78 482.00
  L 208.91 482.01
  Q 209.32 482.01 209.32 481.60
  L 209.27 443.34
  A 2.36 2.34 21.7 0 0 208.52 441.62
  L 202.94 436.44
  A 0.60 0.60 0.0 0 1 202.94 435.57
  L 208.40 430.41
  A 2.77 2.75 -21.8 0 0 209.27 428.40
  L 209.31 410.03
  L 209.63 410.10
  Q 209.96 410.17 210.15 409.88
  Q 211.45 407.94 215.26 409.54
  L 215.24 481.48
  A 0.52 0.52 0.0 0 0 215.76 482.00
  L 263.73 481.98
  A 0.70 0.70 0.0 0 0 264.43 481.27
  L 264.35 464.55
  Q 264.35 464.01 263.80 464.01
  L 235.03 464.00
  A 0.72 0.72 0.0 0 1 234.31 463.28
  L 234.30 445.71
  Q 234.30 444.98 235.04 444.98
  L 257.74 444.99
  A 0.60 0.60 0.0 0 0 258.34 444.39
  L 258.31 427.59
  Q 258.31 427.00 257.72 427.00
  L 234.76 427.00
  A 0.49 0.48 -90.0 0 1 234.28 426.51
  L 234.34 409.34
  Q 234.34 409.00 234.68 409.00
  Q 248.96 409.00 264.00 409.00
  Q 264.38 409.00 264.40 408.61
  Q 264.85 408.93 265.19 408.83
  Q 265.62 408.71 265.89 409.06
  L 267.41 411.04
  A 1.30 1.26 77.8 0 0 268.10 411.50
  Q 269.12 411.78 270.17 411.48
  L 270.12 481.57
  A 0.44 0.44 0.0 0 0 270.56 482.01
  L 288.48 481.98
  A 0.72 0.72 0.0 0 0 289.20 481.26
  L 289.11 438.47
  Q 289.11 437.78 289.37 438.41
  L 307.91 481.44
  A 0.94 0.92 -11.4 0 0 308.77 482.00
  L 326.72 481.99
  A 0.56 0.56 0.0 0 0 327.28 481.43
  L 327.21 410.10
  Q 328.67 408.01 329.99 408.16
  A 0.79 0.77 -10.4 0 1 330.58 408.56
  Q 330.79 408.96 331.20 408.90
  C 331.96 408.79 332.29 408.47 333.16 408.73
  Q 333.22 408.85 333.28 408.96
  Q 333.30 408.99 333.34 408.99
  Q 349.73 408.99 366.09 409.01
  A 0.23 0.22 -74.6 0 1 366.28 409.35
  Q 349.90 436.25 334.13 462.19
  Q 333.12 463.86 333.14 465.77
  Q 333.24 473.52 333.15 481.36
  Q 333.15 482.00 333.79 482.00
  L 388.23 481.99
  A 0.47 0.46 -90.0 0 0 388.69 481.52
  L 388.67 464.70
  Q 388.67 463.98 387.95 463.98
  L 356.02 464.00
  A 0.39 0.39 0.0 0 1 355.69 463.41
  L 388.82 408.58
  Q 390.05 408.00 392.25 408.62
  Q 393.13 408.87 393.62 408.29
  Q 393.97 407.87 394.26 408.33
  L 394.51 408.72
  L 394.50 481.45
  Q 394.50 482.00 395.05 482.00
  L 412.97 482.01
  Q 413.62 482.01 413.62 481.36
  L 413.62 399.78
  Z"
/>
<path fill="#01189a" d="
  M 172.77 404.96
  Q 173.39 405.95 176.02 405.99
  Q 176.52 406.00 176.93 406.28
  Q 183.13 410.49 190.40 412.95
  L 190.27 421.14
  Q 190.26 421.77 189.81 422.22
  L 185.45 426.60
  A 1.38 1.36 22.3 0 1 184.48 427.00
  L 173.46 427.00
  Q 172.82 427.00 172.82 426.36
  L 172.77 404.96
  Z"
/>
<path fill="#01189a" d="
  M 468.37 464.04
  L 438.76 463.99
  A 0.43 0.43 0.0 0 1 438.33 463.55
  L 438.35 445.57
  Q 438.35 445.00 438.93 445.00
  L 461.79 445.00
  Q 462.33 445.00 462.33 444.46
  L 462.31 427.35
  A 0.34 0.34 0.0 0 0 461.97 427.01
  L 438.76 427.00
  A 0.49 0.48 90.0 0 1 438.28 426.51
  L 438.33 409.54
  Q 438.33 409.06 438.81 409.06
  Q 452.92 408.94 467.50 408.96
  Q 468.44 408.96 468.32 408.13
  Q 469.92 407.27 470.85 407.90
  Q 473.37 409.61 475.41 410.33
  C 478.53 411.44 477.43 415.12 477.41 417.45
  Q 477.40 418.94 476.77 420.52
  Q 476.11 422.14 475.43 423.63
  Q 474.67 425.26 472.99 426.34
  Q 470.65 427.84 469.37 430.35
  Q 469.13 430.81 468.64 430.99
  Q 468.36 431.09 468.19 431.33
  Q 468.09 431.47 468.06 431.63
  Q 467.85 432.59 467.42 433.46
  Q 467.02 434.30 467.06 435.20
  Q 467.17 437.31 467.35 438.93
  Q 467.54 440.64 468.38 442.93
  Q 469.14 444.99 469.28 447.06
  Q 469.47 449.70 469.39 452.61
  Q 469.38 453.16 469.64 453.64
  Q 471.58 457.18 469.84 460.21
  Q 469.55 460.72 469.63 461.29
  A 0.50 0.48 -8.6 0 1 469.22 461.83
  Q 468.49 461.95 468.36 462.67
  Q 468.29 463.06 468.60 463.30
  Q 468.72 463.39 468.86 463.36
  Q 469.17 463.30 469.19 463.61
  Q 469.23 464.26 468.76 464.66
  Q 468.42 464.94 468.77 465.22
  Q 469.50 465.81 469.09 466.98
  Q 468.80 467.77 468.71 466.93
  L 468.37 464.04
  Z"
/>
<path fill="#01189a" d="
  M 299.71 414.57
  Q 303.08 416.73 308.26 415.50
  L 308.28 433.46
  Q 308.28 434.43 307.89 433.54
  L 299.71 414.57
  Z"
/>
<path fill="#ffffff" d="
  M 166.39 521.54
  L 170.51 514.57
  Q 170.85 514.01 171.50 514.01
  L 189.46 514.00
  A 0.43 0.42 -0.0 0 1 189.89 514.42
  L 189.90 527.96
  L 189.86 605.17
  A 0.84 0.84 0.0 0 1 189.02 606.01
  L 172.92 606.02
  Q 172.06 606.13 171.36 605.87
  Q 170.87 605.69 170.87 605.16
  L 170.77 587.01
  L 170.83 551.31
  Q 170.83 550.77 170.55 551.23
  L 160.97 567.24
  A 1.13 1.13 0.0 0 1 160.00 567.79
  L 154.97 567.79
  A 1.55 1.54 74.4 0 1 153.65 567.04
  L 144.23 551.30
  Q 143.75 550.50 143.75 551.44
  L 143.74 605.38
  A 0.62 0.62 0.0 0 1 143.12 606.00
  L 125.59 605.99
  A 0.99 0.98 0.0 0 1 124.60 605.01
  L 124.67 531.22
  L 124.63 514.62
  Q 124.63 514.02 125.23 514.02
  L 142.94 513.99
  A 1.47 1.46 74.0 0 1 144.18 514.68
  L 157.16 536.04
  Q 157.42 536.46 157.67 536.04
  L 166.39 521.54
  Z"
/>
<path fill="#ffffff" d="
  M 429.27 530.32
  L 429.14 544.35
  Q 429.14 544.95 428.54 544.95
  L 410.85 544.96
  A 0.60 0.60 0.0 0 1 410.25 544.35
  L 410.28 538.74
  Q 410.28 538.10 409.84 537.65
  L 405.47 533.26
  Q 404.97 532.75 404.26 532.76
  L 398.27 532.82
  A 1.63 1.62 -67.6 0 0 397.11 533.31
  L 393.07 537.38
  A 1.68 1.68 0.0 0 0 392.59 538.53
  L 392.57 544.58
  A 1.79 1.77 23.7 0 0 393.07 545.84
  L 396.96 549.89
  A 2.51 2.51 0.0 0 0 398.76 550.65
  L 412.38 550.64
  Q 413.02 550.64 413.47 551.10
  L 428.62 566.32
  A 2.12 2.12 0.0 0 1 429.23 567.81
  L 429.22 589.02
  Q 429.22 589.83 428.64 590.41
  L 413.79 605.34
  Q 413.13 605.99 412.21 605.99
  L 390.78 606.01
  A 2.73 2.70 67.5 0 1 388.85 605.20
  L 373.99 590.27
  Q 373.49 589.78 373.49 589.08
  L 373.50 575.25
  A 0.25 0.25 0.0 0 1 373.75 575.00
  L 391.92 574.99
  A 0.68 0.68 0.0 0 1 392.60 575.67
  L 392.55 581.16
  Q 392.54 581.79 392.94 582.28
  C 394.51 584.19 396.68 587.20 399.40 587.26
  Q 402.03 587.32 404.50 587.09
  Q 405.27 587.02 405.80 586.47
  L 409.84 582.32
  A 1.50 1.47 67.6 0 0 410.26 581.28
  L 410.28 575.60
  Q 410.28 574.69 409.63 574.04
  L 405.55 569.95
  A 2.12 2.11 -22.5 0 0 404.02 569.32
  L 391.24 569.38
  A 3.62 3.62 0.0 0 1 388.68 568.32
  L 373.99 553.58
  Q 373.49 553.08 373.48 552.37
  L 373.10 531.46
  Q 380.24 522.92 388.96 514.71
  Q 389.73 513.99 390.89 513.99
  Q 401.73 514.00 412.36 514.01
  A 1.67 1.67 0.0 0 1 413.55 514.51
  L 429.27 530.32
  Z"
/>
<path fill="#ffffff" d="
  M 490.33 534.81
  L 490.31 605.41
  A 0.59 0.58 -90.0 0 1 489.73 606.00
  L 471.82 606.03
  A 0.47 0.46 -0.0 0 1 471.35 605.57
  L 471.43 569.59
  Q 471.43 569.00 470.84 569.00
  L 454.25 569.00
  A 0.50 0.50 0.0 0 0 453.75 569.50
  L 453.74 605.38
  A 0.62 0.62 0.0 0 1 453.12 606.00
  L 435.04 606.00
  A 0.34 0.34 0.0 0 1 434.70 605.66
  L 434.66 533.80
  Q 434.66 533.56 434.56 533.35
  Q 434.42 533.07 434.59 533.01
  C 434.52 531.65 434.59 530.32 435.62 529.29
  Q 443.00 521.84 450.20 514.65
  A 2.22 2.22 0.0 0 1 451.77 514.00
  L 473.47 514.00
  A 1.98 1.98 0.0 0 1 474.87 514.58
  L 489.77 529.62
  Q 490.14 530.01 490.17 530.54
  L 490.33 534.81
  Z
  M 454.29 551.01
  L 470.87 550.99
  A 0.58 0.58 0.0 0 0 471.44 550.40
  L 471.43 541.33
  A 8.63 8.48 89.9 0 0 462.93 532.72
  L 462.15 532.72
  A 8.63 8.48 89.9 0 0 453.69 541.37
  L 453.70 550.44
  A 0.58 0.58 0.0 0 0 454.29 551.01
  Z"
/>
<path fill="#ffffff" d="
  M 539.83 517.87
  Q 545.66 523.81 551.30 529.47
  Q 551.48 529.65 551.76 530.54
  L 551.74 544.41
  Q 551.74 544.95 551.20 544.95
  L 533.52 544.97
  A 0.69 0.69 0.0 0 1 532.82 544.27
  L 532.89 538.64
  Q 532.90 537.99 532.44 537.52
  L 528.17 533.26
  A 1.68 1.67 -22.8 0 0 526.96 532.77
  L 521.08 532.79
  Q 520.28 532.79 519.72 533.36
  L 515.76 537.36
  Q 515.31 537.82 515.32 538.45
  L 515.34 544.70
  Q 515.34 545.34 515.79 545.81
  L 519.89 550.06
  Q 520.43 550.62 521.21 550.62
  L 534.71 550.64
  Q 535.68 550.64 536.37 551.33
  L 551.32 566.28
  Q 551.75 566.72 551.75 567.33
  L 551.75 589.20
  A 1.99 1.95 67.6 0 1 551.19 590.58
  L 536.80 605.04
  A 3.25 3.23 -67.4 0 1 534.51 605.99
  L 513.74 606.00
  A 3.53 3.51 -22.4 0 1 511.25 604.97
  L 496.78 590.45
  A 1.82 1.81 22.9 0 1 496.26 589.18
  L 496.26 575.75
  Q 496.26 575.01 497.00 575.01
  L 514.76 575.00
  Q 515.37 575.00 515.37 575.61
  C 515.36 577.59 514.75 581.51 516.16 583.00
  Q 518.00 584.92 519.82 586.71
  A 1.67 1.63 -22.0 0 0 520.99 587.19
  L 527.04 587.21
  Q 527.68 587.21 528.13 586.76
  Q 529.64 585.22 531.34 583.66
  C 533.45 581.74 532.93 579.01 532.94 576.47
  C 532.94 573.80 529.54 571.25 527.72 569.72
  Q 527.27 569.33 526.68 569.34
  L 513.57 569.35
  A 2.80 2.80 0.0 0 1 511.59 568.53
  L 496.91 553.80
  A 2.22 2.22 0.0 0 1 496.26 552.23
  L 496.22 536.04
  C 496.28 533.16 495.59 530.43 498.08 528.08
  Q 501.32 525.03 504.56 521.74
  L 511.30 514.95
  A 3.25 3.23 -67.4 0 1 513.59 514.00
  L 534.93 514.00
  A 2.30 2.29 67.0 0 1 536.53 514.65
  L 539.83 517.87
  Z"
/>
<path fill="#ffffff" d="
  M 118.76 527.02
  L 118.71 532.52
  Q 118.71 533.00 118.23 533.00
  L 89.25 533.00
  Q 88.75 533.00 88.75 533.50
  L 88.75 550.25
  Q 88.75 551.00 89.50 551.00
  L 111.99 551.00
  A 0.75 0.75 0.0 0 1 112.74 551.75
  L 112.75 568.50
  Q 112.75 569.00 112.25 569.00
  L 89.25 569.00
  Q 88.74 569.00 88.74 569.50
  L 88.75 587.50
  Q 88.75 588.00 89.25 588.00
  L 118.26 588.00
  Q 118.77 588.00 118.77 588.51
  L 118.78 605.22
  A 0.79 0.79 0.0 0 1 117.99 606.01
  L 79.77 606.00
  L 69.75 605.87
  L 69.76 515.52
  Q 69.76 515.00 70.28 515.00
  L 118.04 515.00
  Q 118.63 515.00 118.64 515.59
  L 118.76 527.02
  Z"
/>
<path fill="#ffffff" d="
  M 251.28 540.20
  L 251.25 552.89
  Q 251.25 553.42 250.88 553.78
  L 236.39 567.92
  A 3.77 3.75 -66.9 0 1 233.73 569.00
  L 215.25 568.99
  Q 214.75 568.99 214.75 569.50
  L 214.74 605.25
  A 0.75 0.74 90.0 0 1 214.00 606.00
  L 196.31 605.97
  A 0.63 0.62 -90.0 0 1 195.69 605.34
  L 195.65 525.80
  L 195.65 515.42
  A 0.42 0.42 0.0 0 1 196.07 515.00
  L 234.23 515.00
  A 2.51 2.51 0.0 0 1 235.98 515.71
  L 250.87 530.19
  Q 251.25 530.56 251.25 531.09
  L 251.28 540.20
  Z
  M 214.73 533.44
  L 214.75 550.58
  A 0.46 0.46 0.0 0 0 215.22 551.03
  L 223.88 551.02
  A 8.87 8.64 89.9 0 0 232.50 542.13
  L 232.50 541.81
  A 8.87 8.64 89.9 0 0 223.84 532.96
  L 215.18 532.97
  A 0.46 0.46 0.0 0 0 214.73 533.44
  Z"
/>
<path fill="#ffffff" d="
  M 312.64 530.82
  L 312.45 552.23
  A 3.36 3.34 -22.0 0 1 311.43 554.61
  L 306.29 559.56
  A 0.64 0.64 0.0 0 0 306.29 560.49
  L 311.42 565.42
  A 3.66 3.65 22.1 0 1 312.54 568.05
  L 312.60 605.57
  A 0.43 0.43 0.0 0 1 312.17 606.00
  L 294.36 606.03
  A 0.67 0.67 0.0 0 1 293.69 605.36
  L 293.71 575.36
  A 1.96 1.93 23.1 0 0 293.15 574.00
  L 288.81 569.60
  Q 288.21 569.00 287.35 569.00
  L 276.73 569.00
  Q 276.20 569.00 276.20 569.52
  L 276.19 605.00
  A 0.91 0.90 -1.0 0 1 275.31 605.90
  L 269.52 606.04
  L 258.02 605.98
  A 0.76 0.76 0.0 0 1 257.27 605.24
  L 257.16 599.04
  L 257.19 582.63
  L 257.21 543.22
  L 257.26 515.53
  Q 257.26 515.02 257.77 515.02
  L 295.51 514.99
  A 2.93 2.90 -22.3 0 1 297.57 515.84
  L 312.64 530.82
  Z
  M 276.17 533.41
  L 276.15 550.55
  A 0.46 0.46 0.0 0 0 276.60 551.02
  L 285.04 551.03
  A 8.72 8.72 0.0 0 0 293.78 542.33
  L 293.78 541.71
  A 8.72 8.72 0.0 0 0 285.08 532.97
  L 276.64 532.96
  A 0.46 0.46 0.0 0 0 276.17 533.41
  Z"
/>
<path fill="#ffffff" d="
  M 367.58 530.32
  L 367.55 532.48
  Q 367.54 533.00 367.02 533.00
  L 338.06 533.00
  Q 337.63 533.00 337.63 533.44
  L 337.60 550.30
  A 0.70 0.70 0.0 0 0 338.30 551.00
  L 361.29 551.00
  Q 361.64 551.00 361.64 551.35
  L 361.62 568.44
  Q 361.62 569.00 361.06 569.00
  L 338.06 569.00
  A 0.44 0.44 0.0 0 0 337.62 569.44
  L 337.62 587.44
  Q 337.62 588.00 338.19 588.00
  L 366.94 588.00
  Q 367.62 588.00 367.62 588.68
  L 367.61 605.33
  Q 367.61 606.01 366.93 606.01
  L 319.06 606.00
  Q 318.55 606.00 318.55 605.49
  L 318.51 532.68
  L 318.55 515.49
  Q 318.55 515.00 319.04 515.00
  L 367.23 515.00
  Q 367.61 515.00 367.61 515.39
  L 367.58 530.32
  Z"
/>
<path fill="#0021d7" d="
  M 277.66 623.81
  L 280.21 621.54
  Q 280.47 621.30 280.64 620.99
  L 282.44 617.78
  Q 282.66 617.38 283.10 617.32
  Q 287.22 616.70 291.52 617.19
  Q 291.97 617.24 292.35 617.49
  Q 293.48 618.22 294.77 617.70
  Q 296.03 617.20 296.65 618.15
  Q 296.94 618.59 297.42 618.79
  L 299.74 619.73
  Q 300.32 619.96 300.13 620.55
  Q 299.94 621.12 300.50 621.36
  Q 302.14 622.09 303.51 621.96
  Q 304.58 621.85 305.76 621.85
  A 0.35 0.35 0.0 0 1 306.09 622.32
  Q 306.03 622.50 306.12 622.65
  Q 306.37 623.08 306.84 622.96
  Q 312.18 621.66 316.81 623.27
  Q 320.02 624.38 323.12 623.88
  Q 323.58 623.80 323.81 624.21
  Q 324.13 624.76 324.81 624.68
  Q 325.46 624.61 326.11 624.72
  Q 335.93 626.33 344.74 627.11
  Q 345.75 627.20 348.25 627.01
  Q 349.95 626.89 351.76 626.94
  Q 359.80 627.18 367.50 625.63
  Q 369.04 625.32 370.49 624.52
  Q 371.42 624.01 372.59 623.82
  Q 373.69 623.65 374.70 622.92
  Q 376.03 621.95 378.24 621.38
  Q 381.75 620.47 385.20 619.65
  Q 387.16 619.19 388.86 619.43
  Q 390.93 619.72 392.64 620.55
  Q 397.34 622.82 402.99 624.01
  Q 403.48 624.12 403.88 624.43
  Q 404.37 624.82 405.00 624.64
  Q 405.55 624.49 406.07 624.74
  Q 408.63 626.00 410.95 626.02
  Q 414.94 626.04 419.38 625.60
  Q 421.22 625.42 423.01 624.79
  Q 424.72 624.18 426.38 623.78
  Q 427.31 623.56 428.19 623.68
  Q 429.17 623.82 429.78 623.14
  Q 430.18 622.69 430.78 622.64
  C 432.95 622.47 434.99 621.63 437.19 621.50
  Q 444.00 621.10 450.76 621.39
  Q 454.16 621.54 457.85 621.24
  Q 462.15 620.88 465.48 619.61
  Q 469.86 617.93 473.74 617.24
  Q 476.95 616.68 480.14 618.13
  Q 480.48 618.29 480.63 618.63
  Q 480.96 619.41 481.81 619.34
  Q 482.34 619.29 482.78 619.61
  Q 483.50 620.15 484.19 619.57
  A 1.13 1.11 -55.5 0 1 485.23 619.37
  Q 488.04 620.23 490.73 620.90
  Q 493.37 621.56 496.05 621.44
  C 499.68 621.28 503.21 621.70 506.86 620.85
  Q 509.60 620.21 512.78 621.06
  Q 521.38 623.37 530.64 625.45
  C 533.47 626.09 536.32 625.85 539.17 625.93
  Q 541.06 625.99 542.87 625.23
  Q 544.93 624.37 547.05 623.85
  Q 549.57 623.24 552.13 621.89
  Q 552.54 621.68 553.00 621.65
  Q 553.49 621.61 553.83 621.25
  L 556.96 617.96
  Q 557.24 617.67 557.63 617.55
  Q 560.85 616.57 561.61 613.95
  Q 562.84 609.69 564.59 604.21
  Q 565.10 602.65 565.23 601.02
  Q 565.39 599.00 565.57 596.99
  Q 565.76 594.68 565.21 591.78
  Q 564.37 587.35 563.14 583.13
  Q 562.73 583.12 562.61 582.50
  Q 562.41 581.47 561.57 578.66
  Q 560.98 576.66 560.84 574.70
  Q 560.24 566.35 561.76 557.82
  Q 562.06 556.10 561.99 554.30
  Q 561.93 552.68 562.11 550.93
  C 562.23 549.68 561.66 548.44 561.48 547.23
  Q 561.24 545.58 560.83 544.60
  Q 559.08 540.46 557.37 536.75
  Q 556.93 535.80 556.09 535.11
  Q 555.72 534.80 555.59 534.33
  Q 555.22 533.03 554.22 532.15
  A 1.48 1.43 -75.1 0 1 553.76 531.32
  Q 553.66 530.74 553.46 530.16
  Q 553.13 529.19 552.56 530.05
  Q 552.30 530.47 551.76 530.54
  Q 551.48 529.65 551.30 529.47
  Q 545.66 523.81 539.83 517.87
  Q 541.92 518.21 542.70 519.40
  A 3.53 3.12 -15.4 0 0 545.60 520.82
  Q 548.20 520.76 550.38 522.39
  Q 550.78 522.69 551.27 522.62
  Q 552.34 522.47 553.16 523.06
  Q 553.83 523.54 554.61 523.93
  Q 555.65 524.45 556.57 525.42
  Q 556.93 525.79 557.42 525.91
  Q 558.72 526.24 559.41 527.47
  Q 560.68 529.72 561.73 532.07
  Q 561.93 532.51 562.33 532.80
  Q 562.57 532.97 562.78 533.16
  Q 562.93 533.30 563.01 533.50
  Q 563.50 534.75 563.93 536.01
  Q 564.36 537.25 565.25 538.32
  Q 565.96 539.17 566.15 540.20
  Q 566.34 541.25 566.98 542.29
  Q 569.48 546.32 569.84 551.10
  Q 570.02 553.43 569.50 555.80
  Q 569.12 557.56 569.06 559.47
  Q 569.01 561.13 568.67 562.89
  Q 567.90 566.89 567.93 570.19
  Q 567.98 574.22 568.95 579.57
  Q 569.44 582.29 570.33 584.48
  Q 570.96 586.00 571.38 587.47
  Q 571.78 588.89 571.84 590.60
  Q 572.05 596.95 571.24 603.23
  Q 571.19 603.57 570.94 603.63
  Q 570.48 603.75 570.38 604.21
  Q 569.43 608.55 567.46 612.62
  Q 566.40 614.82 564.78 616.75
  Q 564.45 617.16 564.33 617.68
  Q 563.97 619.35 562.44 619.98
  Q 559.01 621.40 555.87 623.50
  Q 553.97 624.78 551.71 625.63
  Q 550.26 626.19 548.84 627.05
  Q 547.61 627.81 546.05 628.27
  Q 537.88 630.68 532.30 630.85
  Q 527.24 631.00 520.02 629.13
  Q 516.77 628.29 512.52 628.03
  Q 508.76 627.80 505.18 628.42
  Q 498.55 629.57 491.93 629.62
  Q 491.47 629.62 491.09 629.36
  Q 490.60 629.01 489.99 629.08
  Q 489.50 629.13 489.04 628.96
  Q 486.57 628.06 484.19 628.67
  Q 483.23 628.91 482.23 629.05
  Q 481.22 629.19 480.12 629.30
  Q 478.63 629.45 477.29 629.09
  Q 475.78 628.69 474.10 628.81
  Q 473.36 628.87 473.06 629.51
  Q 472.75 630.19 472.39 629.53
  Q 472.08 628.97 471.66 628.49
  Q 471.39 628.18 470.98 628.10
  Q 470.21 627.95 469.63 628.39
  Q 469.23 628.70 468.73 628.75
  Q 464.79 629.15 460.66 629.45
  Q 459.22 629.55 457.93 629.43
  Q 456.49 629.28 455.04 629.43
  Q 454.50 629.48 453.99 629.26
  C 453.05 628.85 452.30 629.35 451.31 629.27
  Q 445.80 628.77 440.27 628.68
  Q 437.59 628.63 435.27 629.13
  Q 432.77 629.66 430.29 629.85
  Q 430.10 629.87 430.04 630.07
  A 0.41 0.39 -86.4 0 1 429.72 630.36
  L 422.60 631.50
  Q 422.20 631.56 421.83 631.74
  Q 421.36 631.97 420.82 631.97
  Q 420.23 631.97 419.67 632.05
  C 415.71 632.67 412.06 632.14 408.12 632.09
  Q 407.69 632.09 407.26 631.99
  L 393.20 628.59
  Q 392.72 628.47 392.37 628.12
  Q 391.00 626.77 389.38 626.42
  Q 387.99 626.11 386.59 625.76
  Q 386.18 625.66 385.77 625.76
  Q 382.52 626.56 380.38 627.56
  Q 378.23 628.56 376.01 629.57
  Q 373.94 630.50 371.39 630.69
  Q 369.28 630.84 367.12 631.26
  C 362.17 632.22 356.77 631.38 351.70 631.92
  Q 344.82 632.66 337.70 632.31
  Q 337.49 632.31 337.43 632.11
  Q 337.34 631.83 337.04 631.83
  Q 328.41 631.95 319.00 630.88
  Q 315.18 630.45 311.50 629.36
  Q 309.83 628.87 305.00 628.64
  Q 303.09 628.56 298.79 625.65
  Q 298.37 625.37 297.87 625.32
  Q 294.45 624.96 291.38 624.36
  Q 289.40 623.97 288.14 622.93
  C 286.86 621.87 283.88 620.13 282.44 621.72
  Q 281.92 622.29 281.14 622.66
  Q 279.52 623.43 277.66 623.81
  Z"
/>
<path fill="#01189a" d="
  M 195.65 525.80
  L 195.69 605.34
  A 0.63 0.62 -90.0 0 0 196.31 605.97
  L 214.00 606.00
  A 0.75 0.74 90.0 0 0 214.74 605.25
  L 214.75 569.50
  Q 214.75 568.99 215.25 568.99
  L 233.73 569.00
  A 3.77 3.75 -66.9 0 0 236.39 567.92
  L 250.88 553.78
  Q 251.25 553.42 251.25 552.89
  L 251.28 540.20
  Q 254.16 540.13 255.35 541.06
  Q 255.65 541.30 256.03 541.32
  Q 257.22 541.40 257.21 543.22
  L 257.19 582.63
  Q 255.65 583.15 254.26 583.86
  Q 252.70 584.65 251.29 584.99
  Q 248.76 585.60 246.05 586.21
  Q 245.29 586.39 244.67 586.86
  C 243.61 587.69 242.35 587.65 241.17 588.26
  Q 235.72 591.09 232.70 595.05
  Q 231.86 596.15 231.48 597.63
  Q 231.13 598.96 230.25 600.08
  Q 229.34 601.26 228.86 602.78
  Q 228.55 603.78 227.80 604.45
  Q 227.07 605.11 226.58 606.05
  Q 225.24 608.62 224.50 611.76
  Q 224.24 612.87 223.11 613.49
  Q 221.50 614.37 220.62 616.01
  Q 219.90 617.35 218.44 617.72
  Q 216.41 618.23 214.58 618.18
  Q 213.68 618.16 212.77 618.45
  Q 212.02 618.68 211.37 618.36
  Q 210.83 618.09 210.26 618.29
  Q 206.63 619.57 204.02 621.82
  A 1.40 1.38 -60.8 0 1 202.95 622.13
  Q 200.25 621.77 197.68 622.36
  Q 197.60 622.38 197.52 622.35
  Q 197.34 622.29 197.29 622.14
  Q 197.10 621.61 196.59 621.85
  Q 194.45 622.86 191.70 622.23
  A 2.69 2.69 0.0 0 1 189.60 619.66
  C 189.55 617.76 190.00 615.64 189.09 613.89
  Q 188.13 612.06 186.01 611.39
  Q 183.31 610.53 180.47 610.38
  Q 179.94 610.36 179.53 610.02
  Q 179.02 609.61 178.38 609.48
  Q 177.99 609.41 177.76 609.08
  Q 177.36 608.50 177.56 607.89
  A 0.44 0.43 12.3 0 0 177.19 607.32
  Q 173.71 606.99 172.92 606.02
  L 189.02 606.01
  A 0.84 0.84 0.0 0 0 189.86 605.17
  L 189.90 527.96
  Q 190.76 527.62 191.29 528.12
  Q 191.62 528.43 191.98 528.15
  L 192.44 527.79
  Q 193.01 527.33 193.20 528.16
  Q 193.25 528.35 193.46 528.38
  Q 193.75 528.41 193.72 528.12
  Q 193.67 527.75 193.87 527.36
  Q 194.09 526.92 194.57 526.80
  Q 195.48 526.58 195.65 525.80
  Z"
/>
<path fill="#01189a" d="
  M 118.76 527.02
  Q 119.29 528.56 120.61 528.35
  Q 122.37 528.08 123.54 528.93
  A 0.25 0.24 -62.3 0 0 123.91 528.81
  Q 123.99 528.59 124.19 528.70
  Q 124.41 528.82 124.40 529.07
  Q 124.34 530.26 124.67 531.22
  L 124.60 605.01
  A 0.99 0.98 0.0 0 0 125.59 605.99
  L 143.12 606.00
  A 0.62 0.62 0.0 0 0 143.74 605.38
  L 143.75 551.44
  Q 143.75 550.50 144.23 551.30
  L 153.65 567.04
  A 1.55 1.54 74.4 0 0 154.97 567.79
  L 160.00 567.79
  A 1.13 1.13 0.0 0 0 160.97 567.24
  L 170.55 551.23
  Q 170.83 550.77 170.83 551.31
  L 170.77 587.01
  L 170.22 592.53
  A 0.03 0.02 44.0 0 1 170.17 592.53
  L 169.60 590.15
  Q 169.47 589.60 168.93 589.77
  L 164.90 591.08
  Q 164.48 591.22 164.24 591.59
  Q 162.60 594.06 162.09 596.57
  Q 161.88 597.62 161.30 598.46
  Q 160.92 599.02 160.62 599.61
  Q 160.04 600.78 159.80 602.35
  Q 158.98 607.85 156.39 613.08
  Q 155.63 614.61 154.49 615.82
  Q 154.03 616.31 154.02 616.97
  Q 154.01 617.67 153.44 617.99
  Q 152.89 618.29 152.61 618.85
  Q 150.61 622.78 146.34 623.13
  Q 143.75 623.33 141.19 623.55
  Q 138.54 623.78 136.08 623.49
  Q 132.76 623.10 129.32 623.76
  Q 129.01 623.82 128.69 623.87
  Q 124.67 624.55 120.86 625.35
  Q 116.32 626.31 111.49 626.08
  Q 111.10 626.06 110.83 625.79
  Q 110.56 625.53 110.19 625.55
  Q 105.63 625.86 101.24 625.67
  Q 101.07 625.66 100.99 625.51
  Q 100.93 625.39 100.82 625.31
  Q 100.45 625.07 100.02 625.11
  Q 94.14 625.65 87.41 622.79
  Q 86.36 622.35 85.66 621.29
  Q 84.51 619.54 83.36 617.90
  Q 82.69 616.94 82.46 615.50
  Q 82.29 614.40 81.88 613.26
  Q 81.59 612.46 80.95 611.98
  Q 80.25 611.46 79.49 611.18
  A 0.91 0.91 0.0 0 1 78.90 610.48
  Q 78.68 609.21 79.07 608.05
  Q 79.32 607.32 80.08 607.35
  Q 80.27 607.36 80.39 607.19
  Q 80.63 606.84 80.27 606.61
  Q 79.82 606.33 79.77 606.00
  L 117.99 606.01
  A 0.79 0.79 0.0 0 0 118.78 605.22
  L 118.77 588.51
  Q 118.77 588.00 118.26 588.00
  L 89.25 588.00
  Q 88.75 588.00 88.75 587.50
  L 88.74 569.50
  Q 88.74 569.00 89.25 569.00
  L 112.25 569.00
  Q 112.75 569.00 112.75 568.50
  L 112.74 551.75
  A 0.75 0.75 0.0 0 0 111.99 551.00
  L 89.50 551.00
  Q 88.75 551.00 88.75 550.25
  L 88.75 533.50
  Q 88.75 533.00 89.25 533.00
  L 118.23 533.00
  Q 118.71 533.00 118.71 532.52
  L 118.76 527.02
  Z"
/>
<path fill="#01189a" d="
  M 277.66 623.81
  Q 276.16 624.34 274.78 624.18
  A 2.50 2.49 -3.1 0 1 272.62 622.25
  L 271.78 618.58
  Q 271.67 618.10 271.95 617.70
  L 274.08 614.61
  A 0.77 0.75 -25.6 0 0 274.21 614.26
  L 274.66 608.24
  Q 274.71 607.65 274.12 607.66
  Q 271.55 607.69 269.52 606.04
  L 275.31 605.90
  A 0.91 0.90 -1.0 0 0 276.19 605.00
  L 276.20 569.52
  Q 276.20 569.00 276.73 569.00
  L 287.35 569.00
  Q 288.21 569.00 288.81 569.60
  L 293.15 574.00
  A 1.96 1.93 23.1 0 1 293.71 575.36
  L 293.69 605.36
  A 0.67 0.67 0.0 0 0 294.36 606.03
  L 312.17 606.00
  A 0.43 0.43 0.0 0 0 312.60 605.57
  L 312.54 568.05
  A 3.66 3.65 22.1 0 0 311.42 565.42
  L 306.29 560.49
  A 0.64 0.64 0.0 0 1 306.29 559.56
  L 311.43 554.61
  A 3.36 3.34 -22.0 0 0 312.45 552.23
  L 312.64 530.82
  Q 317.45 530.50 318.51 532.68
  L 318.55 605.49
  Q 318.55 606.00 319.06 606.00
  L 366.93 606.01
  Q 367.61 606.01 367.61 605.33
  L 367.62 588.68
  Q 367.62 588.00 366.94 588.00
  L 338.19 588.00
  Q 337.62 588.00 337.62 587.44
  L 337.62 569.44
  A 0.44 0.44 0.0 0 1 338.06 569.00
  L 361.06 569.00
  Q 361.62 569.00 361.62 568.44
  L 361.64 551.35
  Q 361.64 551.00 361.29 551.00
  L 338.30 551.00
  A 0.70 0.70 0.0 0 1 337.60 550.30
  L 337.63 533.44
  Q 337.63 533.00 338.06 533.00
  L 367.02 533.00
  Q 367.54 533.00 367.55 532.48
  L 367.58 530.32
  L 373.10 531.46
  L 373.48 552.37
  Q 373.49 553.08 373.99 553.58
  L 388.68 568.32
  A 3.62 3.62 0.0 0 0 391.24 569.38
  L 404.02 569.32
  A 2.12 2.11 -22.5 0 1 405.55 569.95
  L 409.63 574.04
  Q 410.28 574.69 410.28 575.60
  L 410.26 581.28
  A 1.50 1.47 67.6 0 1 409.84 582.32
  L 405.80 586.47
  Q 405.27 587.02 404.50 587.09
  Q 402.03 587.32 399.40 587.26
  C 396.68 587.20 394.51 584.19 392.94 582.28
  Q 392.54 581.79 392.55 581.16
  L 392.60 575.67
  A 0.68 0.68 0.0 0 0 391.92 574.99
  L 373.75 575.00
  A 0.25 0.25 0.0 0 0 373.50 575.25
  L 373.49 589.08
  Q 373.49 589.78 373.99 590.27
  L 388.85 605.20
  A 2.73 2.70 67.5 0 0 390.78 606.01
  L 412.21 605.99
  Q 413.13 605.99 413.79 605.34
  L 428.64 590.41
  Q 429.22 589.83 429.22 589.02
  L 429.23 567.81
  A 2.12 2.12 0.0 0 0 428.62 566.32
  L 413.47 551.10
  Q 413.02 550.64 412.38 550.64
  L 398.76 550.65
  A 2.51 2.51 0.0 0 1 396.96 549.89
  L 393.07 545.84
  A 1.79 1.77 23.7 0 1 392.57 544.58
  L 392.59 538.53
  A 1.68 1.68 0.0 0 1 393.07 537.38
  L 397.11 533.31
  A 1.63 1.62 -67.6 0 1 398.27 532.82
  L 404.26 532.76
  Q 404.97 532.75 405.47 533.26
  L 409.84 537.65
  Q 410.28 538.10 410.28 538.74
  L 410.25 544.35
  A 0.60 0.60 0.0 0 0 410.85 544.96
  L 428.54 544.95
  Q 429.14 544.95 429.14 544.35
  L 429.27 530.32
  Q 431.57 530.55 432.25 530.78
  Q 433.70 531.27 433.86 532.96
  Q 433.91 533.41 434.30 533.18
  L 434.59 533.01
  Q 434.42 533.07 434.56 533.35
  Q 434.66 533.56 434.66 533.80
  L 434.70 605.66
  A 0.34 0.34 0.0 0 0 435.04 606.00
  L 453.12 606.00
  A 0.62 0.62 0.0 0 0 453.74 605.38
  L 453.75 569.50
  A 0.50 0.50 0.0 0 1 454.25 569.00
  L 470.84 569.00
  Q 471.43 569.00 471.43 569.59
  L 471.35 605.57
  A 0.47 0.46 -0.0 0 0 471.82 606.03
  L 489.73 606.00
  A 0.59 0.58 90.0 0 0 490.31 605.41
  L 490.33 534.81
  L 496.22 536.04
  L 496.26 552.23
  A 2.22 2.22 0.0 0 0 496.91 553.80
  L 511.59 568.53
  A 2.80 2.80 0.0 0 0 513.57 569.35
  L 526.68 569.34
  Q 527.27 569.33 527.72 569.72
  C 529.54 571.25 532.94 573.80 532.94 576.47
  C 532.93 579.01 533.45 581.74 531.34 583.66
  Q 529.64 585.22 528.13 586.76
  Q 527.68 587.21 527.04 587.21
  L 520.99 587.19
  A 1.67 1.63 -22.0 0 1 519.82 586.71
  Q 518.00 584.92 516.16 583.00
  C 514.75 581.51 515.36 577.59 515.37 575.61
  Q 515.37 575.00 514.76 575.00
  L 497.00 575.01
  Q 496.26 575.01 496.26 575.75
  L 496.26 589.18
  A 1.82 1.81 22.9 0 0 496.78 590.45
  L 511.25 604.97
  A 3.53 3.51 -22.4 0 0 513.74 606.00
  L 534.51 605.99
  A 3.25 3.23 -67.4 0 0 536.80 605.04
  L 551.19 590.58
  A 1.99 1.95 67.6 0 0 551.75 589.20
  L 551.75 567.33
  Q 551.75 566.72 551.32 566.28
  L 536.37 551.33
  Q 535.68 550.64 534.71 550.64
  L 521.21 550.62
  Q 520.43 550.62 519.89 550.06
  L 515.79 545.81
  Q 515.34 545.34 515.34 544.70
  L 515.32 538.45
  Q 515.31 537.82 515.76 537.36
  L 519.72 533.36
  Q 520.28 532.79 521.08 532.79
  L 526.96 532.77
  A 1.68 1.67 -22.8 0 1 528.17 533.26
  L 532.44 537.52
  Q 532.90 537.99 532.89 538.64
  L 532.82 544.27
  A 0.69 0.69 0.0 0 0 533.52 544.97
  L 551.20 544.95
  Q 551.74 544.95 551.74 544.41
  L 551.76 530.54
  Q 552.30 530.47 552.56 530.05
  Q 553.13 529.19 553.46 530.16
  Q 553.66 530.74 553.76 531.32
  A 1.48 1.43 -75.1 0 0 554.22 532.15
  Q 555.22 533.03 555.59 534.33
  Q 555.72 534.80 556.09 535.11
  Q 556.93 535.80 557.37 536.75
  Q 559.08 540.46 560.83 544.60
  Q 561.24 545.58 561.48 547.23
  C 561.66 548.44 562.23 549.68 562.11 550.93
  Q 561.93 552.68 561.99 554.30
  Q 562.06 556.10 561.76 557.82
  Q 560.24 566.35 560.84 574.70
  Q 560.98 576.66 561.57 578.66
  Q 562.41 581.47 562.61 582.50
  Q 562.73 583.12 563.14 583.13
  Q 564.37 587.35 565.21 591.78
  Q 565.76 594.68 565.57 596.99
  Q 565.39 599.00 565.23 601.02
  Q 565.10 602.65 564.59 604.21
  Q 562.84 609.69 561.61 613.95
  Q 560.85 616.57 557.63 617.55
  Q 557.24 617.67 556.96 617.96
  L 553.83 621.25
  Q 553.49 621.61 553.00 621.65
  Q 552.54 621.68 552.13 621.89
  Q 549.57 623.24 547.05 623.85
  Q 544.93 624.37 542.87 625.23
  Q 541.06 625.99 539.17 625.93
  C 536.32 625.85 533.47 626.09 530.64 625.45
  Q 521.38 623.37 512.78 621.06
  Q 509.60 620.21 506.86 620.85
  C 503.21 621.70 499.68 621.28 496.05 621.44
  Q 493.37 621.56 490.73 620.90
  Q 488.04 620.23 485.23 619.37
  A 1.13 1.11 -55.5 0 0 484.19 619.57
  Q 483.50 620.15 482.78 619.61
  Q 482.34 619.29 481.81 619.34
  Q 480.96 619.41 480.63 618.63
  Q 480.48 618.29 480.14 618.13
  Q 476.95 616.68 473.74 617.24
  Q 469.86 617.93 465.48 619.61
  Q 462.15 620.88 457.85 621.24
  Q 454.16 621.54 450.76 621.39
  Q 444.00 621.10 437.19 621.50
  C 434.99 621.63 432.95 622.47 430.78 622.64
  Q 430.18 622.69 429.78 623.14
  Q 429.17 623.82 428.19 623.68
  Q 427.31 623.56 426.38 623.78
  Q 424.72 624.18 423.01 624.79
  Q 421.22 625.42 419.38 625.60
  Q 414.94 626.04 410.95 626.02
  Q 408.63 626.00 406.07 624.74
  Q 405.55 624.49 405.00 624.64
  Q 404.37 624.82 403.88 624.43
  Q 403.48 624.12 402.99 624.01
  Q 397.34 622.82 392.64 620.55
  Q 390.93 619.72 388.86 619.43
  Q 387.16 619.19 385.20 619.65
  Q 381.75 620.47 378.24 621.38
  Q 376.03 621.95 374.70 622.92
  Q 373.69 623.65 372.59 623.82
  Q 371.42 624.01 370.49 624.52
  Q 369.04 625.32 367.50 625.63
  Q 359.80 627.18 351.76 626.94
  Q 349.95 626.89 348.25 627.01
  Q 345.75 627.20 344.74 627.11
  Q 335.93 626.33 326.11 624.72
  Q 325.46 624.61 324.81 624.68
  Q 324.13 624.76 323.81 624.21
  Q 323.58 623.80 323.12 623.88
  Q 320.02 624.38 316.81 623.27
  Q 312.18 621.66 306.84 622.96
  Q 306.37 623.08 306.12 622.65
  Q 306.03 622.50 306.09 622.32
  A 0.35 0.35 0.0 0 0 305.76 621.85
  Q 304.58 621.85 303.51 621.96
  Q 302.14 622.09 300.50 621.36
  Q 299.94 621.12 300.13 620.55
  Q 300.32 619.96 299.74 619.73
  L 297.42 618.79
  Q 296.94 618.59 296.65 618.15
  Q 296.03 617.20 294.77 617.70
  Q 293.48 618.22 292.35 617.49
  Q 291.97 617.24 291.52 617.19
  Q 287.22 616.70 283.10 617.32
  Q 282.66 617.38 282.44 617.78
  L 280.64 620.99
  Q 280.47 621.30 280.21 621.54
  L 277.66 623.81
  Z"
/>
<path fill="#01189a" d="
  M 454.29 551.01
  A 0.58 0.58 0.0 0 1 453.70 550.44
  L 453.69 541.37
  A 8.63 8.48 89.9 0 1 462.15 532.72
  L 462.93 532.72
  A 8.63 8.48 89.9 0 1 471.43 541.33
  L 471.44 550.40
  A 0.58 0.58 0.0 0 1 470.87 550.99
  L 454.29 551.01
  Z"
/>
<path fill="#01189a" d="
  M 214.73 533.44
  A 0.46 0.46 0.0 0 1 215.18 532.97
  L 223.84 532.96
  A 8.87 8.64 89.9 0 1 232.50 541.81
  L 232.50 542.13
  A 8.87 8.64 89.9 0 1 223.88 551.02
  L 215.22 551.03
  A 0.46 0.46 0.0 0 1 214.75 550.58
  L 214.73 533.44
  Z"
/>
<path fill="#01189a" d="
  M 276.17 533.41
  A 0.46 0.46 0.0 0 1 276.64 532.96
  L 285.08 532.97
  A 8.72 8.72 0.0 0 1 293.78 541.71
  L 293.78 542.33
  A 8.72 8.72 0.0 0 1 285.04 551.03
  L 276.60 551.02
  A 0.46 0.46 0.0 0 1 276.15 550.55
  L 276.17 533.41
  Z"
/>
<path fill="#0021d7" d="
  M 257.19 582.63
  L 257.16 599.04
  Q 257.28 601.46 256.59 605.48
  Q 256.39 606.71 257.23 608.46
  A 0.58 0.58 0.0 0 0 257.88 608.78
  Q 258.03 608.74 258.20 608.76
  Q 258.71 608.83 258.20 608.88
  C 255.67 609.13 255.27 606.03 254.78 604.29
  A 0.97 0.93 10.7 0 0 254.40 603.76
  Q 253.99 603.49 253.87 603.02
  Q 253.53 601.59 252.72 600.12
  C 251.23 597.40 248.99 596.65 245.99 597.78
  Q 239.93 600.07 238.08 606.60
  Q 237.27 609.47 236.50 612.33
  Q 236.15 613.61 235.17 614.53
  Q 234.81 614.87 234.84 615.37
  Q 234.88 616.29 234.14 616.84
  Q 233.65 617.20 233.49 617.79
  Q 232.45 621.57 228.66 623.49
  Q 227.33 624.16 226.08 625.04
  Q 225.90 625.17 225.68 625.20
  L 220.14 625.89
  Q 219.54 625.97 219.11 626.38
  L 218.78 626.70
  Q 218.56 626.90 218.27 626.90
  Q 216.66 626.92 215.22 627.64
  A 1.75 1.71 33.0 0 1 214.28 627.83
  Q 210.59 627.53 207.43 626.51
  Q 205.91 626.02 204.30 625.90
  Q 202.78 625.80 201.36 625.45
  Q 198.15 624.66 194.59 625.47
  Q 194.11 625.58 193.74 625.97
  Q 193.30 626.44 193.35 625.80
  Q 193.36 625.65 193.21 625.55
  Q 193.16 625.51 193.10 625.50
  Q 189.73 625.20 186.48 624.30
  Q 184.99 623.88 183.96 623.01
  Q 182.51 621.77 180.79 621.40
  Q 179.39 621.10 178.30 620.19
  Q 177.12 619.22 176.11 618.18
  Q 175.76 617.81 175.25 617.81
  L 171.47 617.80
  Q 170.99 617.80 170.75 618.21
  Q 170.33 618.93 169.58 619.31
  Q 166.03 621.12 164.55 624.03
  Q 164.04 625.02 162.99 625.71
  C 161.78 626.51 160.49 627.32 159.02 627.45
  Q 158.21 627.52 157.70 628.24
  A 0.99 0.98 15.6 0 1 156.96 628.65
  C 155.37 628.76 154.21 629.61 152.69 629.68
  Q 150.71 629.78 149.01 630.45
  Q 147.29 631.12 145.20 631.16
  Q 136.87 631.34 129.10 631.76
  Q 128.88 631.77 128.78 631.58
  Q 128.71 631.45 128.56 631.47
  C 126.51 631.82 124.20 632.85 122.14 632.60
  Q 120.72 632.43 119.26 632.57
  C 117.57 632.73 116.13 632.34 114.52 631.87
  Q 113.60 631.61 112.53 631.74
  Q 110.49 632.01 108.25 631.53
  Q 107.77 631.43 107.33 631.64
  C 106.07 632.25 104.50 632.25 103.33 631.46
  Q 102.57 630.96 101.71 631.13
  A 1.93 1.89 52.5 0 1 100.50 630.96
  L 86.10 623.66
  Q 85.60 623.40 85.27 622.94
  Q 84.06 621.22 82.79 619.54
  Q 81.58 617.93 81.42 616.47
  Q 81.30 615.30 80.95 614.11
  Q 80.80 613.63 80.43 613.29
  L 76.78 610.08
  Q 76.43 609.78 75.97 609.72
  L 70.68 609.03
  Q 70.28 608.98 70.13 608.60
  Q 69.60 607.34 69.75 605.87
  L 79.77 606.00
  Q 79.82 606.33 80.27 606.61
  Q 80.63 606.84 80.39 607.19
  Q 80.27 607.36 80.08 607.35
  Q 79.32 607.32 79.07 608.05
  Q 78.68 609.21 78.90 610.48
  A 0.91 0.91 0.0 0 0 79.49 611.18
  Q 80.25 611.46 80.95 611.98
  Q 81.59 612.46 81.88 613.26
  Q 82.29 614.40 82.46 615.50
  Q 82.69 616.94 83.36 617.90
  Q 84.51 619.54 85.66 621.29
  Q 86.36 622.35 87.41 622.79
  Q 94.14 625.65 100.02 625.11
  Q 100.45 625.07 100.82 625.31
  Q 100.93 625.39 100.99 625.51
  Q 101.07 625.66 101.24 625.67
  Q 105.63 625.86 110.19 625.55
  Q 110.56 625.53 110.83 625.79
  Q 111.10 626.06 111.49 626.08
  Q 116.32 626.31 120.86 625.35
  Q 124.67 624.55 128.69 623.87
  Q 129.01 623.82 129.32 623.76
  Q 132.76 623.10 136.08 623.49
  Q 138.54 623.78 141.19 623.55
  Q 143.75 623.33 146.34 623.13
  Q 150.61 622.78 152.61 618.85
  Q 152.89 618.29 153.44 617.99
  Q 154.01 617.67 154.02 616.97
  Q 154.03 616.31 154.49 615.82
  Q 155.63 614.61 156.39 613.08
  Q 158.98 607.85 159.80 602.35
  Q 160.04 600.78 160.62 599.61
  Q 160.92 599.02 161.30 598.46
  Q 161.88 597.62 162.09 596.57
  Q 162.60 594.06 164.24 591.59
  Q 164.48 591.22 164.90 591.08
  L 168.93 589.77
  Q 169.47 589.60 169.60 590.15
  L 170.17 592.53
  A 0.03 0.02 44.0 0 0 170.22 592.53
  L 170.77 587.01
  L 170.87 605.16
  Q 170.87 605.69 171.36 605.87
  Q 172.06 606.13 172.92 606.02
  Q 173.71 606.99 177.19 607.32
  A 0.44 0.43 12.3 0 1 177.56 607.89
  Q 177.36 608.50 177.76 609.08
  Q 177.99 609.41 178.38 609.48
  Q 179.02 609.61 179.53 610.02
  Q 179.94 610.36 180.47 610.38
  Q 183.31 610.53 186.01 611.39
  Q 188.13 612.06 189.09 613.89
  C 190.00 615.64 189.55 617.76 189.60 619.66
  A 2.69 2.69 0.0 0 0 191.70 622.23
  Q 194.45 622.86 196.59 621.85
  Q 197.10 621.61 197.29 622.14
  Q 197.34 622.29 197.52 622.35
  Q 197.60 622.38 197.68 622.36
  Q 200.25 621.77 202.95 622.13
  A 1.40 1.38 -60.8 0 0 204.02 621.82
  Q 206.63 619.57 210.26 618.29
  Q 210.83 618.09 211.37 618.36
  Q 212.02 618.68 212.77 618.45
  Q 213.68 618.16 214.58 618.18
  Q 216.41 618.23 218.44 617.72
  Q 219.90 617.35 220.62 616.01
  Q 221.50 614.37 223.11 613.49
  Q 224.24 612.87 224.50 611.76
  Q 225.24 608.62 226.58 606.05
  Q 227.07 605.11 227.80 604.45
  Q 228.55 603.78 228.86 602.78
  Q 229.34 601.26 230.25 600.08
  Q 231.13 598.96 231.48 597.63
  Q 231.86 596.15 232.70 595.05
  Q 235.72 591.09 241.17 588.26
  C 242.35 587.65 243.61 587.69 244.67 586.86
  Q 245.29 586.39 246.05 586.21
  Q 248.76 585.60 251.29 584.99
  Q 252.70 584.65 254.26 583.86
  Q 255.65 583.15 257.19 582.63
  Z"
/>
</svg>
