<?xml version="1.0" encoding="UTF-8" standalone="no"?>
<!DOCTYPE svg PUBLIC "-//W3C//DTD SVG 1.1//EN" "http://www.w3.org/Graphics/SVG/1.1/DTD/svg11.dtd">
<svg xmlns="http://www.w3.org/2000/svg" version="1.1" viewBox="0.00 0.00 612.00 1080.00">
<g stroke-width="2.00" fill="none" stroke-linecap="butt">
<path stroke="#ed3477" vector-effect="non-scaling-stroke" d="
  M 242.43 502.27
  Q 242.02 503.42 242.64 504.47
  Q 242.87 504.88 242.88 505.35
  Q 242.88 506.52 243.18 507.76
  Q 243.24 507.99 243.44 508.09
  Q 243.49 508.12 243.54 508.10
  Q 244.07 507.95 244.19 508.53
  Q 244.57 510.22 244.98 511.87
  Q 245.28 513.03 246.07 514.05
  Q 247.13 515.39 247.56 516.94
  Q 247.64 517.25 247.86 517.49
  C 248.35 518.01 248.86 518.53 249.10 519.22
  Q 250.86 524.36 254.35 529.03
  Q 254.97 529.86 255.59 530.70
  Q 257.22 532.93 259.65 532.53
  Q 266.07 531.49 272.11 530.39
  Q 275.07 529.85 278.75 528.87
  Q 283.63 527.56 287.50 528.37
  Q 289.41 528.78 296.38 531.37
  Q 297.88 531.93 303.30 532.94
  Q 303.36 532.95 303.38 533.01
  Q 303.42 533.12 303.47 533.24
  Q 303.49 533.28 303.53 533.27
  Q 304.87 533.11 306.06 532.97
  C 307.92 532.76 309.45 533.59 311.26 532.62
  Q 311.71 532.38 312.22 532.36
  L 315.31 532.25
  Q 315.88 532.23 316.26 531.81
  Q 316.53 531.52 316.93 531.62
  Q 317.44 531.75 317.91 531.51
  Q 322.54 529.14 327.14 529.43
  Q 327.68 529.46 328.20 529.34
  Q 329.99 528.92 331.94 528.90
  Q 333.64 528.88 335.50 529.45
  C 337.96 530.19 340.43 530.60 342.82 531.61
  Q 346.99 533.38 351.15 534.07
  A 0.51 0.51 0.0 0 0 351.35 534.07
  L 353.61 533.63
  Q 354.02 533.55 354.29 533.87
  Q 354.62 534.26 355.08 534.01
  Q 355.67 533.71 356.29 533.91
  Q 358.65 534.66 360.63 534.14
  Q 362.27 533.72 364.05 533.57
  Q 365.99 533.41 367.84 533.28
  Q 369.59 533.15 371.33 532.72
  Q 375.23 531.76 379.22 530.99
  A 11.97 11.72 -63.7 0 0 382.50 529.84
  Q 384.18 528.95 385.75 528.12
  Q 386.48 527.74 386.66 526.46
  Q 386.73 525.92 387.15 525.57
  Q 390.74 522.55 394.22 519.00
  Q 395.44 517.75 396.43 516.20
  Q 397.46 514.59 398.49 512.98
  Q 399.11 512.01 399.54 510.99
  Q 399.97 509.95 400.57 508.98
  Q 401.48 507.52 402.14 505.91
  Q 403.68 502.15 403.87 500.75
  Q 404.27 497.74 404.68 494.59
  Q 405.08 491.48 405.17 488.48
  Q 405.35 482.79 405.40 476.87
  Q 405.40 476.42 405.71 476.08
  Q 406.02 475.74 405.95 475.27
  Q 405.68 473.19 405.75 470.97
  Q 406.31 452.69 404.74 433.55
  Q 404.59 431.70 404.20 429.90
  Q 403.80 427.97 403.55 425.92
  Q 403.26 423.60 402.44 421.58
  Q 401.59 419.51 400.65 417.44
  Q 399.56 415.05 397.52 413.26
  Q 397.21 412.99 397.09 412.61
  Q 396.84 411.87 396.11 411.43
  Q 395.22 410.90 394.50 410.12
  Q 392.04 407.47 388.72 405.49
  C 387.81 404.94 387.41 403.99 386.52 403.61
  Q 384.39 402.69 382.16 401.32
  Q 381.73 401.05 381.34 401.39
  Q 380.79 401.87 380.82 402.71"
/>
<path stroke="#fe9bbf" vector-effect="non-scaling-stroke" d="
  M 380.82 402.71
  L 380.72 393.68
  A 0.67 0.67 0.0 0 0 380.05 393.02
  L 358.95 393.01
  Q 358.32 393.01 358.32 393.63
  L 358.21 404.20"
/>
<path stroke="#ed3477" vector-effect="non-scaling-stroke" d="
  M 358.21 404.20
  Q 358.06 405.02 357.75 405.20
  Q 357.46 405.38 357.38 405.05
  Q 357.36 404.98 357.39 404.92
  Q 357.61 404.34 356.99 404.41
  Q 355.86 404.53 354.12 403.81
  Q 352.09 402.96 346.92 401.38
  Q 345.26 400.87 343.56 400.65
  Q 341.76 400.42 340.16 399.42
  Q 339.40 398.94 338.67 399.24
  Q 338.00 399.52 337.28 400.29"
/>
<path stroke="#fe9bbf" vector-effect="non-scaling-stroke" d="
  M 337.28 400.29
  L 337.28 393.73
  A 0.69 0.68 90.0 0 0 336.60 393.04
  L 315.25 393.00
  A 0.80 0.80 0.0 0 0 314.45 393.80
  L 314.47 400.56"
/>
<path stroke="#d42f6a" vector-effect="non-scaling-stroke" d="
  M 314.47 400.56
  Q 311.88 400.45 309.49 399.92
  Q 309.13 399.84 308.88 400.05
  Q 308.72 400.18 308.55 400.07
  Q 308.51 400.04 308.50 399.99
  Q 308.49 399.58 308.12 399.79
  Q 307.86 399.94 307.57 400.04"
/>
<path stroke="#fe9bbf" vector-effect="non-scaling-stroke" d="
  M 307.57 400.04
  L 307.54 393.81
  A 0.81 0.81 0.0 0 0 306.73 393.00
  L 285.55 392.99
  A 0.47 0.47 0.0 0 0 285.08 393.47
  L 285.20 413.92"
/>
<path stroke="#ed3477" vector-effect="non-scaling-stroke" d="
  M 285.20 413.92
  L 268.56 407.40"
/>
<path stroke="#fe9bbf" vector-effect="non-scaling-stroke" d="
  M 268.56 407.40
  L 262.62 393.59
  A 0.95 0.95 0.0 0 0 261.75 393.02
  L 240.45 393.01
  A 0.79 0.78 -90.0 0 0 239.67 393.80
  L 239.76 501.53
  Q 239.76 502.01 240.21 502.12
  Q 241.34 502.41 242.43 502.27"
/>
<path stroke="#ef98b8" vector-effect="non-scaling-stroke" d="
  M 268.56 407.40
  L 273.65 419.19"
/>
<path stroke="#d693ab" vector-effect="non-scaling-stroke" d="
  M 273.65 419.19
  L 284.39 444.24
  Q 285.24 446.21 285.23 444.06
  L 285.16 424.46"
/>
<path stroke="#ef98b8" vector-effect="non-scaling-stroke" d="
  M 285.16 424.46
  L 285.20 413.92"
/>
<path stroke="#d693ab" vector-effect="non-scaling-stroke" d="
  M 307.57 400.04
  L 307.61 425.47"
/>
<path stroke="#cb90a5" vector-effect="non-scaling-stroke" d="
  M 307.61 425.47
  L 307.55 501.48
  A 0.51 0.51 0.0 0 1 307.04 501.99
  L 285.81 501.98
  A 1.15 1.14 78.2 0 1 284.76 501.29
  L 262.53 449.75
  Q 262.28 449.18 262.28 449.80
  L 262.35 501.26
  Q 262.35 501.85 261.76 501.92
  L 260.22 502.09"
/>
<path stroke="#d693ab" vector-effect="non-scaling-stroke" d="
  M 260.22 502.09
  L 250.20 502.28"
/>
<path stroke="#ef98b8" vector-effect="non-scaling-stroke" d="
  M 250.20 502.28
  L 242.43 502.27"
/>
<path stroke="#a22451" vector-effect="non-scaling-stroke" d="
  M 260.22 502.09
  L 259.10 502.32
  Q 258.37 502.46 258.95 502.94
  C 259.81 503.65 259.67 504.71 260.45 505.64
  C 261.45 506.84 262.35 508.13 264.01 508.44
  Q 266.41 508.88 268.14 507.26
  Q 268.70 506.74 269.35 506.36
  L 273.45 503.96
  A 0.60 0.58 30.0 0 1 273.73 503.89
  L 274.34 503.89
  A 1.53 1.45 28.2 0 0 275.11 503.68
  Q 279.49 501.06 284.37 502.44
  Q 284.52 502.48 284.60 502.36
  Q 284.70 502.19 284.63 502.02
  A 0.05 0.05 0.0 0 1 284.70 501.96
  Q 286.32 502.90 287.10 504.53
  Q 287.31 504.97 287.80 505.01
  Q 293.08 505.48 296.89 508.95
  Q 298.11 510.06 299.36 510.76
  Q 300.72 511.53 302.06 512.30
  Q 304.00 513.42 306.24 513.67
  Q 310.71 514.17 314.82 511.99
  Q 315.47 511.64 315.83 511.01
  Q 316.40 510.05 317.46 509.86
  A 2.00 1.98 14.5 0 0 318.63 509.18
  Q 319.43 508.25 320.55 508.05
  Q 321.55 507.87 322.50 507.34
  Q 325.72 505.54 329.02 505.82
  Q 332.57 506.13 336.10 508.13
  Q 336.51 508.37 336.99 508.39
  Q 337.31 508.41 337.60 508.55
  Q 341.49 510.42 344.52 512.57
  Q 345.72 513.43 347.16 513.93
  Q 348.71 514.48 350.16 515.23
  Q 352.05 516.22 354.29 516.66
  Q 363.91 518.55 372.22 515.24
  Q 373.30 514.82 374.19 514.15
  Q 375.20 513.39 376.32 513.14
  Q 376.78 513.03 377.10 512.67
  Q 378.31 511.32 379.75 510.24
  Q 381.10 509.23 382.34 507.70
  Q 385.88 503.34 386.94 500.33
  Q 389.45 493.20 389.10 481.38
  C 389.07 480.29 389.50 479.34 389.21 478.30
  Q 388.90 477.22 388.90 476.14
  Q 388.91 461.63 388.64 447.68
  C 388.62 446.30 388.93 444.90 388.66 443.57
  Q 388.39 442.21 388.35 440.75
  Q 388.24 437.18 387.40 434.23
  Q 387.26 433.72 387.48 433.23
  Q 387.72 432.72 387.45 432.24
  L 382.55 423.51
  Q 382.24 422.95 381.81 423.43
  L 380.79 424.60"
/>
<path stroke="#a22451" vector-effect="non-scaling-stroke" d="
  M 314.50 424.97
  L 314.03 424.08
  Q 313.71 423.49 313.20 423.92
  C 312.46 424.55 311.49 424.69 310.56 424.50
  Q 307.36 423.84 307.61 425.47"
/>
<path stroke="#c52c63" vector-effect="non-scaling-stroke" d="
  M 250.20 502.28
  Q 250.00 504.07 251.02 505.38
  Q 251.32 505.78 251.43 506.27
  Q 252.05 509.14 252.63 511.97
  Q 253.39 515.68 255.97 518.00
  Q 258.02 519.84 261.27 520.58
  Q 268.56 522.24 274.82 517.71
  Q 279.07 514.64 284.11 514.53
  Q 286.92 514.46 289.06 515.65
  Q 294.69 518.78 301.08 521.22
  Q 308.07 523.89 315.10 521.78
  Q 317.59 521.04 319.80 519.84
  Q 323.37 517.91 327.35 517.07
  Q 331.54 516.19 334.44 517.49
  Q 340.04 519.97 345.49 522.01
  Q 353.02 524.83 362.16 524.99
  Q 365.76 525.05 369.21 524.09
  Q 372.76 523.11 376.09 522.21
  Q 377.12 521.93 377.97 521.22
  Q 378.80 520.53 379.82 520.07
  Q 381.28 519.43 382.44 518.33
  Q 384.71 516.18 386.94 513.99
  C 387.65 513.29 387.92 512.47 388.77 511.90
  Q 389.49 511.42 389.99 510.64
  Q 393.44 505.37 394.84 500.22
  Q 396.16 495.41 396.70 489.21
  Q 397.23 483.17 397.17 477.47
  Q 397.01 461.83 397.35 446.92
  Q 397.49 440.23 396.74 432.31
  Q 396.52 429.98 395.49 428.15
  Q 393.17 424.03 391.66 419.25
  Q 391.51 418.78 391.15 418.45
  C 390.05 417.44 389.99 416.01 388.77 415.02
  Q 387.15 413.70 385.47 413.25
  Q 381.27 412.13 380.83 414.41"
/>
<path stroke="#c52c63" vector-effect="non-scaling-stroke" d="
  M 285.16 424.46
  Q 285.20 423.78 284.85 423.34
  Q 284.52 422.92 284.02 423.08
  Q 283.76 423.16 283.49 423.16
  Q 282.99 423.15 282.51 422.96
  Q 280.10 422.02 278.01 420.96
  Q 275.98 419.93 273.65 419.19"
/>
<path stroke="#ef98b8" vector-effect="non-scaling-stroke" d="
  M 337.28 400.29
  L 337.24 411.49"
/>
<path stroke="#d693ab" vector-effect="non-scaling-stroke" d="
  M 337.24 411.49
  L 337.27 421.57"
/>
<path stroke="#cb90a5" vector-effect="non-scaling-stroke" d="
  M 337.27 421.57
  L 337.09 472.93
  A 1.79 1.77 -67.7 0 0 337.61 474.19
  L 343.00 479.58
  A 1.34 1.33 66.9 0 0 343.93 479.96
  L 347.61 479.94"
/>
<path stroke="#d693ab" vector-effect="non-scaling-stroke" d="
  M 347.61 479.94
  Q 349.22 480.24 350.93 479.94
  Q 352.55 479.66 353.69 478.39
  Q 355.57 476.30 357.45 474.52
  A 2.67 2.66 -21.7 0 0 358.29 472.58
  L 358.25 425.53"
/>
<path stroke="#ef98b8" vector-effect="non-scaling-stroke" d="
  M 358.25 425.53
  L 358.21 404.20"
/>
<path stroke="#ef98b8" vector-effect="non-scaling-stroke" d="
  M 380.82 402.71
  L 380.83 414.41"
/>
<path stroke="#d693ab" vector-effect="non-scaling-stroke" d="
  M 380.83 414.41
  L 380.79 424.60"
/>
<path stroke="#cb90a5" vector-effect="non-scaling-stroke" d="
  M 380.79 424.60
  Q 380.76 450.82 380.74 477.18
  C 380.74 480.12 381.22 482.55 378.90 484.79
  Q 370.27 493.14 362.65 501.01
  Q 361.78 501.92 360.52 501.93
  Q 348.00 502.02 335.51 501.97
  Q 333.69 501.96 332.38 500.65
  Q 323.33 491.58 315.13 483.32
  A 2.15 2.14 -67.8 0 1 314.49 481.79
  L 314.50 424.97"
/>
<path stroke="#d693ab" vector-effect="non-scaling-stroke" d="
  M 314.50 424.97
  L 314.47 400.56"
/>
<path stroke="#c52c63" vector-effect="non-scaling-stroke" d="
  M 358.25 425.53
  L 358.01 427.39
  Q 357.92 428.11 357.54 427.49
  Q 357.23 426.99 357.42 426.40
  Q 357.56 425.96 357.17 425.71
  Q 355.52 424.65 354.56 422.60
  Q 353.84 421.03 352.48 419.76
  Q 349.34 416.84 346.07 414.57
  Q 345.71 414.32 343.98 413.64
  Q 343.04 413.26 341.96 412.41
  Q 340.26 411.07 337.24 411.49"
/>
<path stroke="#a22451" vector-effect="non-scaling-stroke" d="
  M 347.61 479.94
  Q 348.39 478.89 347.41 475.50
  Q 346.23 471.39 346.78 466.52
  C 346.96 464.96 346.36 463.46 346.36 461.88
  Q 346.40 452.02 346.46 442.58
  Q 346.51 436.53 344.28 429.12
  Q 344.14 428.64 343.75 428.34
  Q 342.73 427.53 342.10 426.12
  Q 340.47 422.52 337.27 421.57"
/>
<path stroke="#d42f6a" vector-effect="non-scaling-stroke" d="
  M 196.72 552.86
  Q 192.84 551.24 189.77 552.61"
/>
<path stroke="#fe9bbf" vector-effect="non-scaling-stroke" d="
  M 189.77 552.61
  L 189.71 539.98
  Q 189.70 539.00 188.72 539.00
  L 168.06 539.03
  A 0.65 0.65 0.0 0 0 167.41 539.68
  L 167.44 561.72"
/>
<path stroke="#d42f6a" vector-effect="non-scaling-stroke" d="
  M 167.44 561.72
  Q 164.11 560.00 160.70 558.56
  Q 160.21 558.36 158.44 557.23
  Q 157.46 556.60 156.00 556.11
  Q 150.50 554.27 146.45 553.94"
/>
<path stroke="#fe9bbf" vector-effect="non-scaling-stroke" d="
  M 146.45 553.94
  L 146.34 539.42
  A 0.41 0.41 0.0 0 0 145.93 539.01
  L 124.54 539.00
  Q 123.71 539.00 123.71 539.83
  L 123.71 647.16
  A 1.11 1.10 1.4 0 0 124.77 648.26
  L 128.81 648.47"
/>
<path stroke="#d42f6a" vector-effect="non-scaling-stroke" d="
  M 128.81 648.47
  Q 127.85 648.63 128.19 649.61
  A 1.51 1.50 83.7 0 0 129.43 650.61
  L 135.77 651.40"
/>
<path stroke="#ed3477" vector-effect="non-scaling-stroke" d="
  M 135.77 651.40
  Q 136.61 652.58 138.40 652.31
  A 2.82 2.82 0.0 0 1 141.31 653.77
  Q 141.44 654.00 141.09 654.77
  Q 140.90 655.19 140.45 655.24
  L 137.79 655.54
  Q 137.25 655.60 137.04 656.11
  Q 136.09 658.41 137.71 660.92
  Q 139.76 664.11 141.99 665.68
  Q 142.89 666.31 143.96 666.34
  C 145.75 666.38 147.27 666.88 149.03 666.26
  Q 150.44 665.76 151.87 665.57
  Q 152.65 665.46 153.22 665.99
  A 1.65 1.55 -11.9 0 0 153.75 666.31
  Q 157.44 667.58 161.97 667.03
  Q 163.77 666.81 165.40 665.83
  Q 167.34 664.66 169.88 665.23
  Q 170.40 665.35 170.66 665.90
  A 1.47 1.47 0.0 0 0 171.31 666.58
  Q 172.14 667.00 173.08 667.10
  Q 173.59 667.15 173.69 667.65
  Q 173.80 668.18 174.36 668.14
  Q 176.22 669.44 178.00 670.90
  C 178.86 671.61 179.88 671.74 180.58 672.47
  Q 181.38 673.30 182.68 673.76
  Q 188.03 675.64 191.99 676.40
  Q 192.72 676.53 193.15 676.84
  Q 193.65 677.19 194.26 677.22
  L 214.99 678.04
  Q 215.32 678.05 215.40 678.37
  Q 215.47 678.63 215.74 678.63
  Q 218.94 678.72 222.44 679.16
  Q 226.41 679.65 229.09 679.51
  Q 235.79 679.17 242.45 679.12
  C 243.92 679.11 245.15 678.59 246.58 678.59
  Q 258.94 678.58 271.26 677.18
  Q 273.11 676.97 276.38 677.38
  Q 281.97 678.09 288.00 677.31
  Q 291.80 676.82 295.78 675.54
  Q 299.71 674.27 303.68 673.05
  C 305.47 672.49 307.36 672.43 309.25 672.34
  Q 309.75 672.32 310.19 672.56
  C 311.39 673.21 312.73 672.99 314.02 673.44
  Q 317.77 674.72 321.41 676.15
  Q 321.77 676.29 322.13 676.15
  Q 322.32 676.07 322.51 676.13
  Q 330.82 678.48 337.80 678.29
  Q 349.89 677.96 356.96 678.86
  Q 360.28 679.29 364.06 679.58
  Q 367.88 679.88 371.34 679.58
  C 375.18 679.24 379.03 678.78 382.87 678.86
  Q 392.52 679.03 402.08 679.12
  Q 406.99 679.16 411.91 678.79
  Q 416.74 678.42 421.75 678.03
  Q 424.74 677.79 431.43 678.28
  Q 436.76 678.68 441.08 678.58
  Q 452.45 678.31 464.11 679.18
  Q 467.26 679.42 470.26 679.32
  Q 474.41 679.19 476.26 678.68
  Q 479.37 677.82 482.45 677.06
  C 484.39 676.58 485.49 675.08 487.67 675.04
  Q 488.75 675.02 489.71 674.65
  Q 490.52 674.33 491.47 674.24
  Q 494.05 673.97 496.11 672.65
  Q 496.52 672.38 497.02 672.38
  Q 497.78 672.37 498.59 672.52
  Q 499.60 672.71 500.74 672.27
  Q 503.26 671.29 505.32 670.02"
/>
<path stroke="#ed3477" vector-effect="non-scaling-stroke" d="
  M 505.32 670.02
  Q 507.87 668.36 510.09 666.33
  Q 511.59 664.97 512.20 663.30
  Q 512.96 661.26 513.39 659.33
  Q 513.67 658.08 513.48 656.54
  Q 513.30 655.07 514.01 653.51
  Q 514.25 652.97 513.93 652.48
  C 513.34 651.56 513.71 650.26 513.32 649.03
  Q 512.79 647.34 512.38 645.60
  Q 512.04 644.15 511.21 642.25
  Q 509.83 639.10 509.67 635.65
  Q 509.66 635.51 509.60 635.38
  Q 509.50 635.19 509.29 635.18
  Q 508.83 635.15 508.84 634.68
  C 508.95 631.75 509.00 628.69 509.56 625.80
  Q 510.33 621.76 510.89 617.65
  Q 511.23 615.06 510.81 612.33
  Q 510.34 609.34 509.43 606.70
  Q 508.16 603.00 506.64 599.36
  C 504.58 594.39 507.86 590.02 511.14 586.63
  Q 513.61 584.08 515.10 581.23
  Q 515.17 581.10 515.23 581.23
  Q 515.26 581.29 515.32 581.29
  Q 515.52 581.27 515.61 581.08
  Q 517.17 577.66 517.64 573.51
  Q 517.76 572.46 517.16 571.56
  Q 516.87 571.11 516.87 570.56
  Q 516.88 568.92 515.77 567.66
  Q 515.44 567.29 515.31 566.81
  Q 514.08 562.51 511.62 559.87
  Q 510.13 558.27 507.56 557.92
  Q 506.64 557.80 505.98 557.33
  Q 505.27 556.82 504.69 556.25
  A 0.77 0.76 52.8 0 0 503.78 556.12
  L 503.30 556.38
  Q 502.75 556.68 502.53 556.08
  L 501.71 553.79
  A 0.66 0.64 17.7 0 0 501.63 553.64
  Q 501.42 553.35 501.14 553.37
  Q 500.56 553.42 500.64 552.84
  Q 500.76 551.94 500.09 551.27
  Q 498.99 550.17 497.47 549.19"
/>
<path stroke="#fe9bbf" vector-effect="non-scaling-stroke" d="
  M 497.47 549.19
  L 497.30 540.00
  Q 497.28 539.01 496.30 539.01
  L 439.75 539.02
  A 0.54 0.54 0.0 0 0 439.21 539.56
  L 439.19 545.10"
/>
<path stroke="#ed3477" vector-effect="non-scaling-stroke" d="
  M 439.19 545.10
  Q 437.59 543.56 433.61 544.90
  Q 433.15 545.06 433.08 545.54
  Q 432.92 546.63 432.10 547.31"
/>
<path stroke="#fe9bbf" vector-effect="non-scaling-stroke" d="
  M 432.10 547.31
  L 431.99 540.05
  A 1.04 1.03 89.4 0 0 430.96 539.03
  L 410.52 538.98
  A 1.02 1.02 0.0 0 0 409.50 540.00
  L 409.49 550.04"
/>
<path stroke="#ed3477" vector-effect="non-scaling-stroke" d="
  M 409.49 550.04
  Q 404.55 548.91 402.53 550.73"
/>
<path stroke="#fe9bbf" vector-effect="non-scaling-stroke" d="
  M 402.53 550.73
  L 402.43 540.81
  Q 402.41 538.96 400.55 538.96
  L 337.50 538.96
  Q 336.53 538.96 336.53 539.92
  L 336.51 552.85"
/>
<path stroke="#ed3477" vector-effect="non-scaling-stroke" d="
  M 336.51 552.85
  L 330.73 552.04
  Q 330.21 551.96 329.94 552.41
  Q 329.53 553.07 329.58 553.96"
/>
<path stroke="#fe9bbf" vector-effect="non-scaling-stroke" d="
  M 329.58 553.96
  L 329.44 539.88
  A 0.84 0.83 4.6 0 0 328.75 539.07
  Q 326.89 538.76 325.13 538.77
  Q 317.40 538.82 307.85 539.13
  Q 307.40 539.14 307.19 539.55
  Q 307.01 539.90 307.00 540.39"
/>
<path stroke="#ed3477" vector-effect="non-scaling-stroke" d="
  M 307.00 540.39
  L 306.35 553.87
  A 1.05 1.05 0.0 0 1 305.00 554.83
  L 299.20 553.10
  Q 298.70 552.95 298.45 552.48
  Q 298.30 552.18 297.97 552.15
  Q 297.71 552.13 297.46 552.01
  Q 293.37 550.09 289.03 549.74"
/>
<path stroke="#fe9bbf" vector-effect="non-scaling-stroke" d="
  M 289.03 549.74
  L 284.62 539.83
  A 1.22 1.22 0.0 0 0 283.50 539.10
  L 262.49 539.03
  A 0.86 0.86 0.0 0 0 261.63 539.89
  L 261.70 554.30"
/>
<path stroke="#d42f6a" vector-effect="non-scaling-stroke" d="
  M 261.70 554.30
  Q 260.44 551.95 254.75 552.93"
/>
<path stroke="#fe9bbf" vector-effect="non-scaling-stroke" d="
  M 254.75 552.93
  L 254.80 539.96
  A 1.05 1.04 90.0 0 0 253.76 538.91
  L 197.32 539.02
  Q 196.82 539.02 196.82 539.52
  L 196.72 552.86"
/>
<path stroke="#d693ab" vector-effect="non-scaling-stroke" d="
  M 254.75 552.93
  L 254.74 560.49
  Q 254.74 560.99 254.24 560.99
  L 219.95 561.00
  Q 219.36 561.00 219.36 561.59
  L 219.37 575.21"
/>
<path stroke="#cb90a5" vector-effect="non-scaling-stroke" d="
  M 219.37 575.21
  L 219.30 582.49
  A 0.49 0.49 0.0 0 0 219.79 582.99
  L 236.66 582.98"
/>
<path stroke="#d693ab" vector-effect="non-scaling-stroke" d="
  M 236.66 582.98
  L 247.26 583.03
  A 0.50 0.50 0.0 0 1 247.76 583.53
  L 247.74 604.30
  A 0.76 0.76 0.0 0 1 247.18 605.03
  Q 246.89 605.11 246.59 605.04"
/>
<path stroke="#cb90a5" vector-effect="non-scaling-stroke" d="
  M 246.59 605.04
  L 219.81 604.88
  A 0.58 0.58 0.0 0 0 219.23 605.46
  L 219.30 625.73
  A 0.25 0.24 -90.0 0 0 219.54 625.98
  L 246.68 625.96"
/>
<path stroke="#d693ab" vector-effect="non-scaling-stroke" d="
  M 246.68 625.96
  L 253.96 626.02
  A 1.02 1.02 0.0 0 1 254.97 627.05
  L 254.90 647.42
  A 0.65 0.65 0.0 0 1 254.25 648.07
  L 243.28 648.02"
/>
<path stroke="#cb90a5" vector-effect="non-scaling-stroke" d="
  M 243.28 648.02
  L 197.44 648.00
  Q 196.70 647.99 196.70 647.25
  L 196.70 571.22"
/>
<path stroke="#d693ab" vector-effect="non-scaling-stroke" d="
  M 196.70 571.22
  L 196.72 552.86"
/>
<path stroke="#a22451" vector-effect="non-scaling-stroke" d="
  M 262.28 648.13
  L 243.28 648.02"
/>
<path stroke="#a22451" vector-effect="non-scaling-stroke" d="
  M 246.68 625.96
  C 246.27 623.58 248.28 622.80 249.08 621.27
  C 249.79 619.89 250.42 618.79 250.38 617.16
  Q 250.33 614.75 250.23 612.52
  Q 250.00 607.57 246.59 605.04"
/>
<path stroke="#a22451" vector-effect="non-scaling-stroke" d="
  M 236.66 582.98
  Q 236.16 580.52 237.02 579.27
  Q 237.85 578.06 239.17 576.92
  C 240.78 575.53 241.62 574.20 242.72 572.58
  A 1.29 1.29 0.0 0 0 242.07 570.64
  Q 238.59 569.45 234.69 568.65
  Q 230.48 567.79 225.21 568.68
  A 6.46 6.42 41.6 0 1 223.78 568.76
  Q 220.94 568.57 219.87 570.74
  Q 219.14 572.21 219.37 575.21"
/>
<path stroke="#a22451" vector-effect="non-scaling-stroke" d="
  M 196.70 571.22
  Q 196.01 570.98 196.08 569.82
  Q 196.12 569.18 195.58 569.55
  Q 194.18 570.51 193.23 569.24
  Q 192.96 568.89 192.53 568.86
  Q 190.66 568.72 189.77 569.62"
/>
<path stroke="#a22451" vector-effect="non-scaling-stroke" d="
  M 304.43 641.97
  L 304.71 643.42
  A 1.38 1.38 0.0 0 1 303.04 645.02
  Q 301.67 644.70 300.69 645.75
  C 299.82 646.66 298.81 646.42 297.81 646.97
  Q 294.22 648.95 291.00 651.47
  Q 289.23 652.85 287.25 653.73
  Q 285.21 654.63 282.91 654.44
  Q 281.31 654.30 280.11 654.99
  Q 279.69 655.24 279.21 655.13
  Q 278.74 655.03 278.36 655.30
  Q 278.00 655.56 277.55 655.59
  Q 276.50 655.67 275.46 655.58
  Q 274.57 655.50 273.69 655.74
  Q 270.29 656.68 266.85 657.09
  Q 266.45 657.14 266.07 656.98
  C 265.67 656.82 265.35 656.81 264.95 656.98
  Q 263.92 657.41 262.95 656.80
  Q 262.51 656.52 262.00 656.59
  L 258.01 657.15
  Q 257.64 657.20 257.54 657.56
  Q 257.48 657.77 257.26 657.86
  Q 253.08 659.50 248.59 660.35
  Q 246.97 660.65 245.46 661.30
  C 245.00 661.50 244.26 661.33 243.69 661.45
  Q 236.27 663.04 227.85 662.59
  Q 226.94 662.54 226.03 662.29
  C 224.34 661.82 222.65 661.98 221.03 661.39
  Q 218.91 660.62 216.85 660.16
  Q 213.72 659.47 210.94 658.51
  Q 208.27 657.59 205.22 657.49
  Q 202.21 657.38 199.54 656.74
  Q 197.26 656.20 194.95 656.07
  Q 193.82 656.01 192.65 655.61
  Q 191.52 655.23 190.33 654.92
  Q 188.18 654.36 186.09 652.64
  Q 185.66 652.29 185.65 651.73
  Q 185.63 650.94 186.37 650.69
  Q 186.84 650.53 186.87 650.04
  Q 186.92 649.28 186.38 648.03"
/>
<path stroke="#ef98b8" vector-effect="non-scaling-stroke" d="
  M 329.58 553.96
  L 329.62 560.75"
/>
<path stroke="#d693ab" vector-effect="non-scaling-stroke" d="
  M 329.62 560.75
  L 329.60 571.85"
/>
<path stroke="#cb90a5" vector-effect="non-scaling-stroke" d="
  M 329.60 571.85
  L 329.55 647.64
  Q 329.55 647.97 329.21 647.97
  L 308.33 647.95"
/>
<path stroke="#d693ab" vector-effect="non-scaling-stroke" d="
  M 308.33 647.95
  Q 307.75 647.93 307.28 647.72
  Q 306.86 647.52 306.60 646.96
  Q 305.45 644.51 304.43 641.97"
/>
<path stroke="#cb90a5" vector-effect="non-scaling-stroke" d="
  M 304.43 641.97
  L 284.58 595.97
  Q 284.23 595.17 284.24 596.04
  L 284.34 646.99
  A 0.95 0.95 0.0 0 1 283.40 647.94
  L 262.28 648.13"
/>
<path stroke="#d693ab" vector-effect="non-scaling-stroke" d="
  M 262.28 648.13
  Q 261.56 647.86 261.56 647.25
  Q 261.74 600.98 261.70 554.30"
/>
<path stroke="#ef98b8" vector-effect="non-scaling-stroke" d="
  M 289.03 549.74
  L 292.21 557.30"
/>
<path stroke="#d693ab" vector-effect="non-scaling-stroke" d="
  M 292.21 557.30
  L 306.40 590.14
  Q 307.22 592.05 307.22 589.97
  L 307.17 563.30"
/>
<path stroke="#ef98b8" vector-effect="non-scaling-stroke" d="
  M 307.17 563.30
  L 307.00 540.39"
/>
<path stroke="#d693ab" vector-effect="non-scaling-stroke" d="
  M 146.45 553.94
  L 146.49 573.81"
/>
<path stroke="#cb90a5" vector-effect="non-scaling-stroke" d="
  M 146.49 573.81
  L 146.54 582.40
  Q 146.54 582.94 147.07 582.94
  L 156.37 582.94"
/>
<path stroke="#d693ab" vector-effect="non-scaling-stroke" d="
  M 156.37 582.94
  C 158.65 583.29 161.04 583.25 162.70 581.45
  C 164.78 579.18 167.28 577.81 167.35 574.25
  Q 167.47 567.98 167.44 561.72"
/>
<path stroke="#d693ab" vector-effect="non-scaling-stroke" d="
  M 189.77 552.61
  L 189.77 569.62"
/>
<path stroke="#cb90a5" vector-effect="non-scaling-stroke" d="
  M 189.77 569.62
  L 189.84 585.20
  A 2.21 2.20 -22.2 0 1 189.17 586.78
  L 182.19 593.50
  A 0.60 0.60 0.0 0 0 182.18 594.37
  L 189.31 601.44
  A 1.50 1.47 22.6 0 1 189.76 602.50
  L 189.72 647.30
  Q 189.72 647.81 189.22 647.85
  L 186.38 648.03"
/>
<path stroke="#d693ab" vector-effect="non-scaling-stroke" d="
  M 186.38 648.03
  L 168.14 648.07
  Q 167.18 648.08 167.19 647.12
  L 167.43 625.85"
/>
<path stroke="#cb90a5" vector-effect="non-scaling-stroke" d="
  M 167.43 625.85
  L 167.39 612.10
  A 2.05 2.04 -67.9 0 0 166.78 610.64
  L 161.56 605.52
  Q 161.03 605.00 160.29 605.00
  L 146.73 604.96
  A 0.40 0.40 0.0 0 0 146.32 605.36
  Q 146.43 625.63 146.29 646.50
  Q 146.28 647.09 145.56 648.03"
/>
<path stroke="#d693ab" vector-effect="non-scaling-stroke" d="
  M 145.56 648.03
  L 128.81 648.47"
/>
<path stroke="#c52c63" vector-effect="non-scaling-stroke" d="
  M 503.91 668.52
  Q 501.92 669.60 499.49 669.36
  Q 497.47 669.16 495.97 669.32
  Q 493.23 669.62 492.52 669.59
  Q 488.52 669.43 486.99 669.85
  Q 484.75 670.47 482.46 670.54
  Q 480.42 670.61 478.79 671.30
  Q 474.64 673.07 469.18 672.26
  Q 451.23 669.60 435.76 669.83
  Q 431.40 669.90 426.02 669.20
  Q 423.22 668.83 420.59 668.88
  C 417.74 668.93 414.42 668.52 411.69 669.31
  Q 409.74 669.88 407.75 670.10
  Q 404.96 670.41 402.47 671.03
  Q 399.96 671.65 397.47 671.77
  Q 386.73 672.29 374.94 672.51
  Q 365.53 672.69 354.99 670.88
  Q 354.54 670.81 354.15 670.59
  Q 353.53 670.25 352.83 670.15
  Q 346.22 669.20 340.69 669.97
  Q 336.73 670.53 332.80 670.35
  Q 329.54 670.20 325.50 668.89
  Q 325.32 668.83 325.33 668.65
  Q 325.34 668.44 325.15 668.37
  Q 318.71 665.95 313.06 662.63
  Q 311.65 661.80 310.12 661.37
  C 307.98 660.77 306.24 660.10 304.08 661.33
  Q 298.49 664.51 293.15 667.13
  Q 289.12 669.10 284.50 669.13
  Q 277.09 669.17 269.23 668.94
  Q 266.68 668.86 264.04 669.52
  Q 261.39 670.18 258.89 670.43
  Q 255.30 670.79 251.49 671.19
  Q 251.20 671.22 251.14 671.50
  Q 238.58 673.14 226.48 671.83
  Q 225.80 671.76 225.13 671.83
  Q 224.49 671.90 223.85 671.82
  Q 218.71 671.21 213.60 670.41
  Q 207.97 669.54 203.28 669.29
  Q 196.82 668.96 190.60 667.72
  Q 190.09 667.62 189.66 667.34
  Q 189.00 666.91 188.25 666.91
  Q 187.74 666.90 187.30 666.63
  Q 183.70 664.41 180.83 658.89
  Q 180.15 657.58 178.46 656.49
  Q 177.12 655.63 175.66 655.63
  Q 173.27 655.63 171.22 654.46
  Q 165.99 651.46 160.84 656.05
  Q 160.73 656.15 160.59 656.13
  Q 160.42 656.10 160.26 656.16
  Q 160.15 656.19 160.07 656.28
  Q 158.76 657.80 156.96 658.61
  Q 155.52 659.25 154.32 660.19
  Q 150.37 663.27 146.34 664.93
  Q 145.23 665.38 144.03 665.19
  Q 142.83 664.99 141.96 664.05
  Q 139.87 661.78 138.98 659.80
  Q 138.17 658.00 140.09 657.48
  Q 140.49 657.37 140.83 657.15
  Q 141.47 656.73 142.21 656.47
  C 143.59 656.00 144.02 654.79 143.50 653.43
  C 142.77 651.48 139.73 651.46 138.07 651.64
  Q 137.51 651.70 137.06 651.39
  Q 135.67 650.43 133.99 650.41
  Q 132.99 650.39 133.93 650.74
  L 135.77 651.40"
/>
<path stroke="#c52c63" vector-effect="non-scaling-stroke" d="
  M 307.17 563.30
  Q 306.35 561.58 305.57 562.28
  A 0.22 0.21 32.6 0 1 305.36 562.32
  L 292.21 557.30"
/>
<path stroke="#a22451" vector-effect="non-scaling-stroke" d="
  M 339.69 620.76
  Q 339.98 617.93 339.75 615.72
  Q 339.55 613.77 339.47 611.74
  Q 339.39 609.72 339.13 607.72
  Q 337.86 597.66 340.21 587.55
  C 340.63 585.74 340.80 583.94 341.02 582.10
  Q 341.19 580.76 341.71 579.56
  Q 342.25 578.31 342.47 576.90
  C 342.71 575.32 342.09 573.89 340.55 573.22
  Q 335.48 571.01 329.60 571.85"
/>
<path stroke="#a22451" vector-effect="non-scaling-stroke" d="
  M 482.10 647.96
  L 490.99 649.62
  Q 491.39 649.70 491.72 649.94
  Q 492.16 650.26 492.71 650.15
  Q 493.22 650.05 493.45 650.50
  Q 494.11 651.81 495.60 651.51
  Q 496.81 651.27 496.79 650.05
  Q 496.78 649.61 497.18 649.42
  C 498.64 648.74 501.20 648.59 502.35 650.08
  Q 502.87 650.76 503.50 651.33
  Q 503.94 651.72 503.96 652.31
  L 504.19 658.88
  Q 504.20 659.28 504.41 659.61
  C 505.38 661.18 506.74 662.23 506.67 664.26
  Q 506.62 665.64 505.38 666.23
  Q 504.19 666.79 503.06 666.39
  Q 501.46 665.84 499.77 665.88
  Q 499.26 665.89 498.82 665.64
  C 496.67 664.40 494.69 665.86 492.38 665.88
  Q 491.04 665.88 489.62 666.20
  Q 487.48 666.67 485.44 666.98
  Q 485.32 667.00 485.23 666.92
  Q 485.05 666.76 485.17 666.68
  Q 485.58 666.37 485.06 666.37
  Q 483.25 666.37 481.50 666.37
  Q 481.19 666.37 481.16 666.02
  Q 481.13 665.68 480.78 665.70
  Q 480.00 665.74 479.25 665.68
  Q 478.47 665.61 477.74 665.33
  Q 474.56 664.11 471.21 663.55
  Q 469.76 663.31 468.30 662.86
  Q 466.76 662.37 465.17 662.14
  Q 462.21 661.71 459.46 660.57
  Q 456.22 659.22 452.70 658.44
  Q 452.23 658.33 451.76 658.40
  Q 451.18 658.49 450.74 658.15
  C 449.95 657.55 448.91 657.44 447.97 657.69
  Q 447.59 657.79 447.21 657.74
  Q 444.22 657.34 441.50 657.49
  Q 436.32 657.77 430.37 656.33
  Q 430.21 656.29 430.09 656.41
  L 429.87 656.62
  A 0.64 0.64 0.0 0 1 429.32 656.80
  Q 424.50 655.97 420.33 656.23
  Q 419.62 656.28 419.05 656.68
  Q 418.59 657.00 418.11 657.29
  Q 417.28 657.78 416.34 657.86
  Q 412.98 658.14 409.73 659.08
  A 12.69 2.15 -11.8 0 1 408.12 659.53
  Q 399.48 661.80 390.50 663.63
  Q 382.63 665.23 373.88 664.12
  Q 367.14 663.26 361.51 662.05
  Q 359.24 661.57 357.02 660.26
  Q 354.70 658.91 352.12 658.41
  Q 345.72 657.17 337.34 657.80
  Q 336.77 657.85 336.27 658.11
  Q 335.56 658.47 334.74 658.43
  Q 331.24 658.25 327.81 657.75
  Q 325.86 657.46 323.97 656.72
  Q 321.86 655.90 319.66 655.91
  C 316.21 655.91 312.65 655.96 309.50 654.29
  Q 309.06 654.06 309.16 653.57
  Q 309.45 652.17 309.54 649.76
  Q 309.56 649.24 310.09 649.09
  A 0.10 0.09 43.4 0 0 310.08 648.91
  Q 308.55 648.50 308.33 647.95"
/>
<path stroke="#bb295e" vector-effect="non-scaling-stroke" d="
  M 398.03 648.01
  L 412.21 648.02"
/>
<path stroke="#c52c63" vector-effect="non-scaling-stroke" d="
  M 336.50 560.96
  L 329.62 560.75"
/>
<path stroke="#a22451" vector-effect="non-scaling-stroke" d="
  M 167.43 625.85
  Q 167.70 629.81 161.22 633.25
  Q 161.05 633.34 160.94 633.19
  Q 160.91 633.15 160.92 633.10
  Q 161.13 632.47 160.66 632.94
  Q 158.51 635.09 156.25 637.39
  Q 154.95 638.71 154.40 640.33
  Q 153.82 642.01 152.68 643.62
  Q 152.42 643.98 152.00 644.14
  Q 151.43 644.36 151.62 644.95
  Q 151.74 645.33 151.37 645.48
  Q 150.55 645.81 150.48 646.78
  Q 150.43 647.43 150.83 647.92
  Q 151.73 649.00 152.83 649.90
  A 1.33 1.24 -81.0 0 1 153.25 650.52
  L 153.56 651.54
  Q 153.71 652.05 154.19 652.26
  Q 154.55 652.42 154.39 652.80
  Q 152.84 656.31 150.53 658.52
  Q 149.47 659.53 148.77 660.74
  C 147.66 662.66 144.66 664.34 142.95 662.12
  A 2.92 2.92 0.0 0 1 143.07 658.40
  C 144.52 656.76 145.87 654.89 144.12 652.76
  Q 144.10 652.73 144.13 652.70
  L 144.32 652.52
  A 0.29 0.28 -38.6 0 1 144.74 652.56
  Q 145.02 652.94 145.22 653.35
  Q 145.52 653.93 145.37 653.29
  Q 145.28 652.90 145.46 652.53
  Q 145.84 651.76 145.97 652.61
  Q 146.09 653.35 146.80 653.14
  A 0.12 0.12 0.0 0 0 146.88 652.97
  Q 146.78 652.77 146.94 652.64
  Q 147.23 652.38 147.51 652.65
  Q 149.10 654.20 150.27 652.60
  Q 151.17 651.39 149.89 650.51
  Q 149.54 650.28 149.14 650.41
  Q 148.85 650.51 148.61 650.22
  Q 148.34 649.88 148.77 649.88
  Q 151.45 649.87 151.71 652.59
  Q 151.72 652.65 151.67 652.66
  Q 151.61 652.68 151.59 652.62
  Q 151.57 652.57 151.58 652.52
  Q 152.05 650.90 150.59 650.13
  Q 150.36 650.01 150.57 649.85
  Q 150.69 649.75 150.84 649.79
  Q 151.92 650.09 150.92 649.59
  Q 148.79 648.53 145.56 648.03"
/>
<path stroke="#a22451" vector-effect="non-scaling-stroke" d="
  M 156.37 582.94
  L 155.72 581.28
  Q 155.52 580.77 155.08 580.44
  L 146.49 573.81"
/>
<path stroke="#de3170" vector-effect="non-scaling-stroke" d="
  M 505.32 670.02
  Q 505.13 669.60 504.61 669.79
  Q 503.88 670.06 504.29 669.40
  Q 504.43 669.19 504.61 669.04
  A 0.30 0.30 0.0 0 0 504.48 668.52
  Q 504.27 668.47 503.91 668.52"
/>
<path stroke="#c52c63" vector-effect="non-scaling-stroke" d="
  M 503.91 668.52
  L 508.15 665.96
  Q 508.53 665.73 508.71 665.32
  Q 509.95 662.46 507.11 660.42
  Q 506.77 660.18 506.67 659.78
  Q 505.83 656.37 506.31 653.55
  Q 506.40 653.04 506.11 652.60
  Q 502.82 647.59 497.72 648.00"
/>
<path stroke="#c52c63" vector-effect="non-scaling-stroke" d="
  M 494.99 625.76
  L 498.03 625.55
  Q 498.56 625.52 498.90 625.11
  Q 500.79 622.88 499.78 620.71
  Q 499.23 619.54 499.05 618.27
  Q 498.72 615.99 497.98 613.97
  Q 497.82 613.52 497.92 613.05
  C 498.21 611.66 498.45 609.86 497.53 608.63
  Q 495.69 606.19 493.32 605.09
  Q 492.88 604.89 492.72 604.43
  Q 492.48 603.77 491.80 603.71
  Q 491.36 603.66 491.19 604.08
  Q 491.03 604.48 490.28 604.67"
/>
<path stroke="#c52c63" vector-effect="non-scaling-stroke" d="
  M 490.23 583.27
  Q 490.87 585.23 491.47 585.15
  Q 493.86 584.81 495.03 582.80
  A 2.86 2.79 -88.7 0 1 496.08 581.77
  Q 498.88 580.18 502.09 580.34
  Q 502.65 580.36 503.08 580.01
  Q 504.64 578.78 504.58 577.03
  C 504.50 574.71 505.46 572.63 506.07 570.46
  Q 506.21 569.99 506.58 569.66
  Q 506.75 569.52 506.89 569.35
  Q 507.16 569.02 507.22 568.58
  Q 507.42 567.14 507.77 565.75
  Q 508.45 563.05 505.85 562.57
  Q 504.67 562.35 503.48 561.92
  Q 500.82 560.98 497.51 561.01"
/>
<path stroke="#ef98b8" vector-effect="non-scaling-stroke" d="
  M 497.47 549.19
  L 497.51 561.01"
/>
<path stroke="#d693ab" vector-effect="non-scaling-stroke" d="
  M 497.51 561.01
  L 462.21 561.03
  Q 461.70 561.03 461.69 561.54
  L 461.59 569.96"
/>
<path stroke="#cb90a5" vector-effect="non-scaling-stroke" d="
  M 461.59 569.96
  L 461.54 582.51
  A 0.49 0.49 0.0 0 0 462.04 583.00
  L 479.53 582.97"
/>
<path stroke="#d693ab" vector-effect="non-scaling-stroke" d="
  M 479.53 582.97
  L 490.23 583.27"
/>
<path stroke="#ef98b8" vector-effect="non-scaling-stroke" d="
  M 490.23 583.27
  L 490.28 604.67"
/>
<path stroke="#d693ab" vector-effect="non-scaling-stroke" d="
  M 490.28 604.67
  Q 488.77 605.30 486.45 605.12"
/>
<path stroke="#cb90a5" vector-effect="non-scaling-stroke" d="
  M 486.45 605.12
  L 462.02 605.03
  Q 461.52 605.03 461.52 605.53
  L 461.54 625.33
  Q 461.54 625.93 462.15 625.93
  L 489.70 625.83"
/>
<path stroke="#d693ab" vector-effect="non-scaling-stroke" d="
  M 489.70 625.83
  L 494.99 625.76"
/>
<path stroke="#ef98b8" vector-effect="non-scaling-stroke" d="
  M 494.99 625.76
  Q 497.43 625.66 497.42 627.48
  Q 497.35 635.54 497.72 648.00"
/>
<path stroke="#d693ab" vector-effect="non-scaling-stroke" d="
  M 497.72 648.00
  L 482.10 647.96"
/>
<path stroke="#cb90a5" vector-effect="non-scaling-stroke" d="
  M 482.10 647.96
  L 439.82 648.00
  A 0.68 0.68 0.0 0 1 439.14 647.32
  L 439.20 567.47"
/>
<path stroke="#d693ab" vector-effect="non-scaling-stroke" d="
  M 439.20 567.47
  L 439.22 559.52"
/>
<path stroke="#ef98b8" vector-effect="non-scaling-stroke" d="
  M 439.22 559.52
  L 439.19 545.10"
/>
<path stroke="#ef98b8" vector-effect="non-scaling-stroke" d="
  M 402.53 550.73
  L 402.47 561.07"
/>
<path stroke="#cb90a5" vector-effect="non-scaling-stroke" d="
  M 402.47 561.07
  L 363.31 625.42
  A 0.36 0.36 0.0 0 0 363.62 625.96
  L 388.65 626.01"
/>
<path stroke="#d693ab" vector-effect="non-scaling-stroke" d="
  M 388.65 626.01
  L 397.70 626.02"
/>
<path stroke="#ef98b8" vector-effect="non-scaling-stroke" d="
  M 397.70 626.02
  L 401.68 626.11
  A 0.83 0.82 -89.3 0 1 402.48 626.94
  L 402.49 647.53
  Q 402.49 648.03 401.99 648.03
  L 398.03 648.01"
/>
<path stroke="#cb90a5" vector-effect="non-scaling-stroke" d="
  M 398.03 648.01
  L 337.09 647.99
  Q 336.49 647.99 336.49 647.38
  Q 336.53 638.06 336.48 628.44
  Q 336.46 626.48 337.47 624.50
  Q 338.51 622.44 339.69 620.76"
/>
<path stroke="#d693ab" vector-effect="non-scaling-stroke" d="
  M 339.69 620.76
  L 375.89 561.51
  A 0.34 0.33 -74.2 0 0 375.61 561.00
  L 336.50 560.96"
/>
<path stroke="#ef98b8" vector-effect="non-scaling-stroke" d="
  M 336.50 560.96
  L 336.51 552.85"
/>
<path stroke="#ef98b8" vector-effect="non-scaling-stroke" d="
  M 432.10 547.31
  L 432.22 559.20"
/>
<path stroke="#d693ab" vector-effect="non-scaling-stroke" d="
  M 432.22 559.20
  L 432.22 567.29"
/>
<path stroke="#cb90a5" vector-effect="non-scaling-stroke" d="
  M 432.22 567.29
  L 432.34 647.13
  A 0.85 0.85 0.0 0 1 431.50 647.98
  L 412.21 648.02"
/>
<path stroke="#ef98b8" vector-effect="non-scaling-stroke" d="
  M 412.21 648.02
  L 410.16 648.01
  Q 409.62 648.01 409.62 647.47
  L 409.41 611.54"
/>
<path stroke="#d693ab" vector-effect="non-scaling-stroke" d="
  M 409.41 611.54
  L 409.37 598.38"
/>
<path stroke="#cb90a5" vector-effect="non-scaling-stroke" d="
  M 409.37 598.38
  L 409.45 560.42"
/>
<path stroke="#ef98b8" vector-effect="non-scaling-stroke" d="
  M 409.45 560.42
  L 409.49 550.04"
/>
<path stroke="#a22451" vector-effect="non-scaling-stroke" d="
  M 439.20 567.47
  Q 438.99 567.59 438.92 567.18
  Q 438.86 566.81 438.53 566.63
  Q 438.30 566.51 438.10 566.68
  Q 437.74 567.02 437.25 566.91
  Q 434.93 566.41 432.22 567.29"
/>
<path stroke="#a22451" vector-effect="non-scaling-stroke" d="
  M 479.53 582.97
  L 481.88 582.78
  Q 482.72 582.71 481.97 582.31
  Q 481.58 582.10 481.11 582.11
  Q 479.78 582.14 480.88 581.38
  Q 481.04 581.27 481.11 581.08
  Q 481.28 580.62 481.71 580.41
  Q 486.16 578.29 490.99 579.05
  Q 492.25 579.25 493.23 578.59
  Q 493.48 578.41 493.75 578.36
  Q 493.96 578.32 493.93 578.55
  Q 493.89 578.76 494.11 578.75
  Q 494.45 578.73 494.30 578.41
  A 0.05 0.05 0.0 0 1 494.38 578.36
  L 494.73 578.74
  Q 494.81 578.83 494.93 578.82
  Q 497.87 578.58 498.77 576.09
  Q 499.19 574.94 499.87 573.85
  Q 500.52 572.81 500.73 571.62
  Q 500.85 570.96 501.36 570.55
  A 1.14 1.13 71.3 0 0 501.78 569.69
  Q 501.83 566.75 503.60 565.05
  A 1.45 1.45 0.0 0 0 503.05 562.64
  Q 499.80 561.56 498.18 564.12
  Q 497.97 564.45 497.60 564.40
  Q 495.98 564.20 494.44 564.72
  Q 492.69 565.30 490.79 565.31
  Q 486.81 565.32 482.86 565.76
  C 481.04 565.96 479.17 565.80 477.42 566.36
  Q 475.43 567.00 473.38 566.89
  Q 469.98 566.71 466.75 567.31
  C 465.35 567.56 464.31 568.62 462.96 568.33
  Q 462.46 568.22 462.05 568.54
  Q 461.47 569.00 461.59 569.96"
/>
<path stroke="#a22451" vector-effect="non-scaling-stroke" d="
  M 489.70 625.83
  Q 493.72 621.98 497.76 622.63
  A 0.82 0.82 0.0 0 0 498.62 621.44
  C 497.78 619.82 496.37 619.58 495.40 618.19
  Q 492.88 614.58 493.84 609.57
  Q 494.14 607.98 493.22 606.84
  Q 492.54 605.98 491.19 605.67
  Q 488.91 605.15 486.45 605.12"
/>
<path stroke="#c52c63" vector-effect="non-scaling-stroke" d="
  M 439.22 559.52
  Q 435.52 557.96 432.22 559.20"
/>
<path stroke="#bb295e" vector-effect="non-scaling-stroke" d="
  M 409.45 560.42
  Q 407.88 560.34 406.20 560.86
  Q 405.68 561.02 405.24 560.72
  Q 404.63 560.31 404.11 560.81
  Q 403.77 561.15 403.29 561.12
  L 402.47 561.07"
/>
<path stroke="#a22451" vector-effect="non-scaling-stroke" d="
  M 409.37 598.38
  Q 401.28 603.23 395.71 611.43
  Q 394.47 613.26 392.85 616.51
  Q 391.55 619.12 390.21 621.71
  Q 389.80 622.49 389.63 623.87
  Q 389.44 625.31 388.65 626.01"
/>
<path stroke="#c52c63" vector-effect="non-scaling-stroke" d="
  M 409.41 611.54
  Q 403.92 615.79 400.28 620.77
  Q 398.73 622.91 397.70 626.02"
/>
<path stroke="#a22451" vector-effect="non-scaling-stroke" d="
  M 147.42 651.16
  Q 147.22 651.20 147.17 651.39
  Q 147.13 651.50 147.19 651.60
  Q 147.67 652.62 148.63 652.86
  A 1.14 1.14 0.0 0 0 149.98 651.35
  Q 149.46 649.97 147.96 650.42
  Q 147.74 650.48 147.64 650.69
  Q 147.62 650.74 147.64 650.79
  Q 147.73 651.10 147.42 651.16"
/>
<path stroke="#a22451" vector-effect="non-scaling-stroke" d="
  M 175.5792 653.4396
  A 1.52 0.41 -1.9 0 0 174.0464 653.0802
  A 1.52 0.41 -1.9 0 0 172.5408 653.5404
  A 1.52 0.41 -1.9 0 0 174.0736 653.8998
  A 1.52 0.41 -1.9 0 0 175.5792 653.4396"
/>
</g>
<path fill="#fc377e" d="
  M 0.00 0.00
  L 612.00 0.00
  L 612.00 1080.00
  L 0.00 1080.00
  L 0.00 0.00
  Z
  M 242.43 502.27
  Q 242.02 503.42 242.64 504.47
  Q 242.87 504.88 242.88 505.35
  Q 242.88 506.52 243.18 507.76
  Q 243.24 507.99 243.44 508.09
  Q 243.49 508.12 243.54 508.10
  Q 244.07 507.95 244.19 508.53
  Q 244.57 510.22 244.98 511.87
  Q 245.28 513.03 246.07 514.05
  Q 247.13 515.39 247.56 516.94
  Q 247.64 517.25 247.86 517.49
  C 248.35 518.01 248.86 518.53 249.10 519.22
  Q 250.86 524.36 254.35 529.03
  Q 254.97 529.86 255.59 530.70
  Q 257.22 532.93 259.65 532.53
  Q 266.07 531.49 272.11 530.39
  Q 275.07 529.85 278.75 528.87
  Q 283.63 527.56 287.50 528.37
  Q 289.41 528.78 296.38 531.37
  Q 297.88 531.93 303.30 532.94
  Q 303.36 532.95 303.38 533.01
  Q 303.42 533.12 303.47 533.24
  Q 303.49 533.28 303.53 533.27
  Q 304.87 533.11 306.06 532.97
  C 307.92 532.76 309.45 533.59 311.26 532.62
  Q 311.71 532.38 312.22 532.36
  L 315.31 532.25
  Q 315.88 532.23 316.26 531.81
  Q 316.53 531.52 316.93 531.62
  Q 317.44 531.75 317.91 531.51
  Q 322.54 529.14 327.14 529.43
  Q 327.68 529.46 328.20 529.34
  Q 329.99 528.92 331.94 528.90
  Q 333.64 528.88 335.50 529.45
  C 337.96 530.19 340.43 530.60 342.82 531.61
  Q 346.99 533.38 351.15 534.07
  A 0.51 0.51 0.0 0 0 351.35 534.07
  L 353.61 533.63
  Q 354.02 533.55 354.29 533.87
  Q 354.62 534.26 355.08 534.01
  Q 355.67 533.71 356.29 533.91
  Q 358.65 534.66 360.63 534.14
  Q 362.27 533.72 364.05 533.57
  Q 365.99 533.41 367.84 533.28
  Q 369.59 533.15 371.33 532.72
  Q 375.23 531.76 379.22 530.99
  A 11.97 11.72 -63.7 0 0 382.50 529.84
  Q 384.18 528.95 385.75 528.12
  Q 386.48 527.74 386.66 526.46
  Q 386.73 525.92 387.15 525.57
  Q 390.74 522.55 394.22 519.00
  Q 395.44 517.75 396.43 516.20
  Q 397.46 514.59 398.49 512.98
  Q 399.11 512.01 399.54 510.99
  Q 399.97 509.95 400.57 508.98
  Q 401.48 507.52 402.14 505.91
  Q 403.68 502.15 403.87 500.75
  Q 404.27 497.74 404.68 494.59
  Q 405.08 491.48 405.17 488.48
  Q 405.35 482.79 405.40 476.87
  Q 405.40 476.42 405.71 476.08
  Q 406.02 475.74 405.95 475.27
  Q 405.68 473.19 405.75 470.97
  Q 406.31 452.69 404.74 433.55
  Q 404.59 431.70 404.20 429.90
  Q 403.80 427.97 403.55 425.92
  Q 403.26 423.60 402.44 421.58
  Q 401.59 419.51 400.65 417.44
  Q 399.56 415.05 397.52 413.26
  Q 397.21 412.99 397.09 412.61
  Q 396.84 411.87 396.11 411.43
  Q 395.22 410.90 394.50 410.12
  Q 392.04 407.47 388.72 405.49
  C 387.81 404.94 387.41 403.99 386.52 403.61
  Q 384.39 402.69 382.16 401.32
  Q 381.73 401.05 381.34 401.39
  Q 380.79 401.87 380.82 402.71
  L 380.72 393.68
  A 0.67 0.67 0.0 0 0 380.05 393.02
  L 358.95 393.01
  Q 358.32 393.01 358.32 393.63
  L 358.21 404.20
  Q 358.06 405.02 357.75 405.20
  Q 357.46 405.38 357.38 405.05
  Q 357.36 404.98 357.39 404.92
  Q 357.61 404.34 356.99 404.41
  Q 355.86 404.53 354.12 403.81
  Q 352.09 402.96 346.92 401.38
  Q 345.26 400.87 343.56 400.65
  Q 341.76 400.42 340.16 399.42
  Q 339.40 398.94 338.67 399.24
  Q 338.00 399.52 337.28 400.29
  L 337.28 393.73
  A 0.69 0.68 90.0 0 0 336.60 393.04
  L 315.25 393.00
  A 0.80 0.80 0.0 0 0 314.45 393.80
  L 314.47 400.56
  Q 311.88 400.45 309.49 399.92
  Q 309.13 399.84 308.88 400.05
  Q 308.72 400.18 308.55 400.07
  Q 308.51 400.04 308.50 399.99
  Q 308.49 399.58 308.12 399.79
  Q 307.86 399.94 307.57 400.04
  L 307.54 393.81
  A 0.81 0.81 0.0 0 0 306.73 393.00
  L 285.55 392.99
  A 0.47 0.47 0.0 0 0 285.08 393.47
  L 285.20 413.92
  L 268.56 407.40
  L 262.62 393.59
  A 0.95 0.95 0.0 0 0 261.75 393.02
  L 240.45 393.01
  A 0.79 0.78 -90.0 0 0 239.67 393.80
  L 239.76 501.53
  Q 239.76 502.01 240.21 502.12
  Q 241.34 502.41 242.43 502.27
  Z
  M 196.72 552.86
  Q 192.84 551.24 189.77 552.61
  L 189.71 539.98
  Q 189.70 539.00 188.72 539.00
  L 168.06 539.03
  A 0.65 0.65 0.0 0 0 167.41 539.68
  L 167.44 561.72
  Q 164.11 560.00 160.70 558.56
  Q 160.21 558.36 158.44 557.23
  Q 157.46 556.60 156.00 556.11
  Q 150.50 554.27 146.45 553.94
  L 146.34 539.42
  A 0.41 0.41 0.0 0 0 145.93 539.01
  L 124.54 539.00
  Q 123.71 539.00 123.71 539.83
  L 123.71 647.16
  A 1.11 1.10 1.4 0 0 124.77 648.26
  L 128.81 648.47
  Q 127.85 648.63 128.19 649.61
  A 1.51 1.50 83.7 0 0 129.43 650.61
  L 135.77 651.40
  Q 136.61 652.58 138.40 652.31
  A 2.82 2.82 0.0 0 1 141.31 653.77
  Q 141.44 654.00 141.09 654.77
  Q 140.90 655.19 140.45 655.24
  L 137.79 655.54
  Q 137.25 655.60 137.04 656.11
  Q 136.09 658.41 137.71 660.92
  Q 139.76 664.11 141.99 665.68
  Q 142.89 666.31 143.96 666.34
  C 145.75 666.38 147.27 666.88 149.03 666.26
  Q 150.44 665.76 151.87 665.57
  Q 152.65 665.46 153.22 665.99
  A 1.65 1.55 -11.9 0 0 153.75 666.31
  Q 157.44 667.58 161.97 667.03
  Q 163.77 666.81 165.40 665.83
  Q 167.34 664.66 169.88 665.23
  Q 170.40 665.35 170.66 665.90
  A 1.47 1.47 0.0 0 0 171.31 666.58
  Q 172.14 667.00 173.08 667.10
  Q 173.59 667.15 173.69 667.65
  Q 173.80 668.18 174.36 668.14
  Q 176.22 669.44 178.00 670.90
  C 178.86 671.61 179.88 671.74 180.58 672.47
  Q 181.38 673.30 182.68 673.76
  Q 188.03 675.64 191.99 676.40
  Q 192.72 676.53 193.15 676.84
  Q 193.65 677.19 194.26 677.22
  L 214.99 678.04
  Q 215.32 678.05 215.40 678.37
  Q 215.47 678.63 215.74 678.63
  Q 218.94 678.72 222.44 679.16
  Q 226.41 679.65 229.09 679.51
  Q 235.79 679.17 242.45 679.12
  C 243.92 679.11 245.15 678.59 246.58 678.59
  Q 258.94 678.58 271.26 677.18
  Q 273.11 676.97 276.38 677.38
  Q 281.97 678.09 288.00 677.31
  Q 291.80 676.82 295.78 675.54
  Q 299.71 674.27 303.68 673.05
  C 305.47 672.49 307.36 672.43 309.25 672.34
  Q 309.75 672.32 310.19 672.56
  C 311.39 673.21 312.73 672.99 314.02 673.44
  Q 317.77 674.72 321.41 676.15
  Q 321.77 676.29 322.13 676.15
  Q 322.32 676.07 322.51 676.13
  Q 330.82 678.48 337.80 678.29
  Q 349.89 677.96 356.96 678.86
  Q 360.28 679.29 364.06 679.58
  Q 367.88 679.88 371.34 679.58
  C 375.18 679.24 379.03 678.78 382.87 678.86
  Q 392.52 679.03 402.08 679.12
  Q 406.99 679.16 411.91 678.79
  Q 416.74 678.42 421.75 678.03
  Q 424.74 677.79 431.43 678.28
  Q 436.76 678.68 441.08 678.58
  Q 452.45 678.31 464.11 679.18
  Q 467.26 679.42 470.26 679.32
  Q 474.41 679.19 476.26 678.68
  Q 479.37 677.82 482.45 677.06
  C 484.39 676.58 485.49 675.08 487.67 675.04
  Q 488.75 675.02 489.71 674.65
  Q 490.52 674.33 491.47 674.24
  Q 494.05 673.97 496.11 672.65
  Q 496.52 672.38 497.02 672.38
  Q 497.78 672.37 498.59 672.52
  Q 499.60 672.71 500.74 672.27
  Q 503.26 671.29 505.32 670.02
  Q 507.87 668.36 510.09 666.33
  Q 511.59 664.97 512.20 663.30
  Q 512.96 661.26 513.39 659.33
  Q 513.67 658.08 513.48 656.54
  Q 513.30 655.07 514.01 653.51
  Q 514.25 652.97 513.93 652.48
  C 513.34 651.56 513.71 650.26 513.32 649.03
  Q 512.79 647.34 512.38 645.60
  Q 512.04 644.15 511.21 642.25
  Q 509.83 639.10 509.67 635.65
  Q 509.66 635.51 509.60 635.38
  Q 509.50 635.19 509.29 635.18
  Q 508.83 635.15 508.84 634.68
  C 508.95 631.75 509.00 628.69 509.56 625.80
  Q 510.33 621.76 510.89 617.65
  Q 511.23 615.06 510.81 612.33
  Q 510.34 609.34 509.43 606.70
  Q 508.16 603.00 506.64 599.36
  C 504.58 594.39 507.86 590.02 511.14 586.63
  Q 513.61 584.08 515.10 581.23
  Q 515.17 581.10 515.23 581.23
  Q 515.26 581.29 515.32 581.29
  Q 515.52 581.27 515.61 581.08
  Q 517.17 577.66 517.64 573.51
  Q 517.76 572.46 517.16 571.56
  Q 516.87 571.11 516.87 570.56
  Q 516.88 568.92 515.77 567.66
  Q 515.44 567.29 515.31 566.81
  Q 514.08 562.51 511.62 559.87
  Q 510.13 558.27 507.56 557.92
  Q 506.64 557.80 505.98 557.33
  Q 505.27 556.82 504.69 556.25
  A 0.77 0.76 52.8 0 0 503.78 556.12
  L 503.30 556.38
  Q 502.75 556.68 502.53 556.08
  L 501.71 553.79
  A 0.66 0.64 17.7 0 0 501.63 553.64
  Q 501.42 553.35 501.14 553.37
  Q 500.56 553.42 500.64 552.84
  Q 500.76 551.94 500.09 551.27
  Q 498.99 550.17 497.47 549.19
  L 497.30 540.00
  Q 497.28 539.01 496.30 539.01
  L 439.75 539.02
  A 0.54 0.54 0.0 0 0 439.21 539.56
  L 439.19 545.10
  Q 437.59 543.56 433.61 544.90
  Q 433.15 545.06 433.08 545.54
  Q 432.92 546.63 432.10 547.31
  L 431.99 540.05
  A 1.04 1.03 89.4 0 0 430.96 539.03
  L 410.52 538.98
  A 1.02 1.02 0.0 0 0 409.50 540.00
  L 409.49 550.04
  Q 404.55 548.91 402.53 550.73
  L 402.43 540.81
  Q 402.41 538.96 400.55 538.96
  L 337.50 538.96
  Q 336.53 538.96 336.53 539.92
  L 336.51 552.85
  L 330.73 552.04
  Q 330.21 551.96 329.94 552.41
  Q 329.53 553.07 329.58 553.96
  L 329.44 539.88
  A 0.84 0.83 4.6 0 0 328.75 539.07
  Q 326.89 538.76 325.13 538.77
  Q 317.40 538.82 307.85 539.13
  Q 307.40 539.14 307.19 539.55
  Q 307.01 539.90 307.00 540.39
  L 306.35 553.87
  A 1.05 1.05 0.0 0 1 305.00 554.83
  L 299.20 553.10
  Q 298.70 552.95 298.45 552.48
  Q 298.30 552.18 297.97 552.15
  Q 297.71 552.13 297.46 552.01
  Q 293.37 550.09 289.03 549.74
  L 284.62 539.83
  A 1.22 1.22 0.0 0 0 283.50 539.10
  L 262.49 539.03
  A 0.86 0.86 0.0 0 0 261.63 539.89
  L 261.70 554.30
  Q 260.44 551.95 254.75 552.93
  L 254.80 539.96
  A 1.05 1.04 90.0 0 0 253.76 538.91
  L 197.32 539.02
  Q 196.82 539.02 196.82 539.52
  L 196.72 552.86
  Z"
/>
<path fill="#ffffff" d="
  M 268.56 407.40
  L 273.65 419.19
  L 284.39 444.24
  Q 285.24 446.21 285.23 444.06
  L 285.16 424.46
  L 285.20 413.92
  L 285.08 393.47
  A 0.47 0.47 0.0 0 1 285.55 392.99
  L 306.73 393.00
  A 0.81 0.81 0.0 0 1 307.54 393.81
  L 307.57 400.04
  L 307.61 425.47
  L 307.55 501.48
  A 0.51 0.51 0.0 0 1 307.04 501.99
  L 285.81 501.98
  A 1.15 1.14 78.2 0 1 284.76 501.29
  L 262.53 449.75
  Q 262.28 449.18 262.28 449.80
  L 262.35 501.26
  Q 262.35 501.85 261.76 501.92
  L 260.22 502.09
  L 250.20 502.28
  L 242.43 502.27
  Q 241.34 502.41 240.21 502.12
  Q 239.76 502.01 239.76 501.53
  L 239.67 393.80
  A 0.79 0.78 90.0 0 1 240.45 393.01
  L 261.75 393.02
  A 0.95 0.95 0.0 0 1 262.62 393.59
  L 268.56 407.40
  Z"
/>
<path fill="#ffffff" d="
  M 337.28 400.29
  L 337.24 411.49
  L 337.27 421.57
  L 337.09 472.93
  A 1.79 1.77 -67.7 0 0 337.61 474.19
  L 343.00 479.58
  A 1.34 1.33 66.9 0 0 343.93 479.96
  L 347.61 479.94
  Q 349.22 480.24 350.93 479.94
  Q 352.55 479.66 353.69 478.39
  Q 355.57 476.30 357.45 474.52
  A 2.67 2.66 -21.7 0 0 358.29 472.58
  L 358.25 425.53
  L 358.21 404.20
  L 358.32 393.63
  Q 358.32 393.01 358.95 393.01
  L 380.05 393.02
  A 0.67 0.67 0.0 0 1 380.72 393.68
  L 380.82 402.71
  L 380.83 414.41
  L 380.79 424.60
  Q 380.76 450.82 380.74 477.18
  C 380.74 480.12 381.22 482.55 378.90 484.79
  Q 370.27 493.14 362.65 501.01
  Q 361.78 501.92 360.52 501.93
  Q 348.00 502.02 335.51 501.97
  Q 333.69 501.96 332.38 500.65
  Q 323.33 491.58 315.13 483.32
  A 2.15 2.14 -67.8 0 1 314.49 481.79
  L 314.50 424.97
  L 314.47 400.56
  L 314.45 393.80
  A 0.80 0.80 0.0 0 1 315.25 393.00
  L 336.60 393.04
  A 0.69 0.68 90.0 0 1 337.28 393.73
  L 337.28 400.29
  Z"
/>
<path fill="#de3170" d="
  M 358.21 404.20
  L 358.25 425.53
  L 358.01 427.39
  Q 357.92 428.11 357.54 427.49
  Q 357.23 426.99 357.42 426.40
  Q 357.56 425.96 357.17 425.71
  Q 355.52 424.65 354.56 422.60
  Q 353.84 421.03 352.48 419.76
  Q 349.34 416.84 346.07 414.57
  Q 345.71 414.32 343.98 413.64
  Q 343.04 413.26 341.96 412.41
  Q 340.26 411.07 337.24 411.49
  L 337.28 400.29
  Q 338.00 399.52 338.67 399.24
  Q 339.40 398.94 340.16 399.42
  Q 341.76 400.42 343.56 400.65
  Q 345.26 400.87 346.92 401.38
  Q 352.09 402.96 354.12 403.81
  Q 355.86 404.53 356.99 404.41
  Q 357.61 404.34 357.39 404.92
  Q 357.36 404.98 357.38 405.05
  Q 357.46 405.38 357.75 405.20
  Q 358.06 405.02 358.21 404.20
  Z"
/>
<path fill="#ac2656" d="
  M 314.47 400.56
  L 314.50 424.97
  L 314.03 424.08
  Q 313.71 423.49 313.20 423.92
  C 312.46 424.55 311.49 424.69 310.56 424.50
  Q 307.36 423.84 307.61 425.47
  L 307.57 400.04
  Q 307.86 399.94 308.12 399.79
  Q 308.49 399.58 308.50 399.99
  Q 308.51 400.04 308.55 400.07
  Q 308.72 400.18 308.88 400.05
  Q 309.13 399.84 309.49 399.92
  Q 311.88 400.45 314.47 400.56
  Z"
/>
<path fill="#de3170" d="
  M 242.43 502.27
  L 250.20 502.28
  Q 250.00 504.07 251.02 505.38
  Q 251.32 505.78 251.43 506.27
  Q 252.05 509.14 252.63 511.97
  Q 253.39 515.68 255.97 518.00
  Q 258.02 519.84 261.27 520.58
  Q 268.56 522.24 274.82 517.71
  Q 279.07 514.64 284.11 514.53
  Q 286.92 514.46 289.06 515.65
  Q 294.69 518.78 301.08 521.22
  Q 308.07 523.89 315.10 521.78
  Q 317.59 521.04 319.80 519.84
  Q 323.37 517.91 327.35 517.07
  Q 331.54 516.19 334.44 517.49
  Q 340.04 519.97 345.49 522.01
  Q 353.02 524.83 362.16 524.99
  Q 365.76 525.05 369.21 524.09
  Q 372.76 523.11 376.09 522.21
  Q 377.12 521.93 377.97 521.22
  Q 378.80 520.53 379.82 520.07
  Q 381.28 519.43 382.44 518.33
  Q 384.71 516.18 386.94 513.99
  C 387.65 513.29 387.92 512.47 388.77 511.90
  Q 389.49 511.42 389.99 510.64
  Q 393.44 505.37 394.84 500.22
  Q 396.16 495.41 396.70 489.21
  Q 397.23 483.17 397.17 477.47
  Q 397.01 461.83 397.35 446.92
  Q 397.49 440.23 396.74 432.31
  Q 396.52 429.98 395.49 428.15
  Q 393.17 424.03 391.66 419.25
  Q 391.51 418.78 391.15 418.45
  C 390.05 417.44 389.99 416.01 388.77 415.02
  Q 387.15 413.70 385.47 413.25
  Q 381.27 412.13 380.83 414.41
  L 380.82 402.71
  Q 380.79 401.87 381.34 401.39
  Q 381.73 401.05 382.16 401.32
  Q 384.39 402.69 386.52 403.61
  C 387.41 403.99 387.81 404.94 388.72 405.49
  Q 392.04 407.47 394.50 410.12
  Q 395.22 410.90 396.11 411.43
  Q 396.84 411.87 397.09 412.61
  Q 397.21 412.99 397.52 413.26
  Q 399.56 415.05 400.65 417.44
  Q 401.59 419.51 402.44 421.58
  Q 403.26 423.60 403.55 425.92
  Q 403.80 427.97 404.20 429.90
  Q 404.59 431.70 404.74 433.55
  Q 406.31 452.69 405.75 470.97
  Q 405.68 473.19 405.95 475.27
  Q 406.02 475.74 405.71 476.08
  Q 405.40 476.42 405.40 476.87
  Q 405.35 482.79 405.17 488.48
  Q 405.08 491.48 404.68 494.59
  Q 404.27 497.74 403.87 500.75
  Q 403.68 502.15 402.14 505.91
  Q 401.48 507.52 400.57 508.98
  Q 399.97 509.95 399.54 510.99
  Q 399.11 512.01 398.49 512.98
  Q 397.46 514.59 396.43 516.20
  Q 395.44 517.75 394.22 519.00
  Q 390.74 522.55 387.15 525.57
  Q 386.73 525.92 386.66 526.46
  Q 386.48 527.74 385.75 528.12
  Q 384.18 528.95 382.50 529.84
  A 11.97 11.72 -63.7 0 1 379.22 530.99
  Q 375.23 531.76 371.33 532.72
  Q 369.59 533.15 367.84 533.28
  Q 365.99 533.41 364.05 533.57
  Q 362.27 533.72 360.63 534.14
  Q 358.65 534.66 356.29 533.91
  Q 355.67 533.71 355.08 534.01
  Q 354.62 534.26 354.29 533.87
  Q 354.02 533.55 353.61 533.63
  L 351.35 534.07
  A 0.51 0.51 0.0 0 1 351.15 534.07
  Q 346.99 533.38 342.82 531.61
  C 340.43 530.60 337.96 530.19 335.50 529.45
  Q 333.64 528.88 331.94 528.90
  Q 329.99 528.92 328.20 529.34
  Q 327.68 529.46 327.14 529.43
  Q 322.54 529.14 317.91 531.51
  Q 317.44 531.75 316.93 531.62
  Q 316.53 531.52 316.26 531.81
  Q 315.88 532.23 315.31 532.25
  L 312.22 532.36
  Q 311.71 532.38 311.26 532.62
  C 309.45 533.59 307.92 532.76 306.06 532.97
  Q 304.87 533.11 303.53 533.27
  Q 303.49 533.28 303.47 533.24
  Q 303.42 533.12 303.38 533.01
  Q 303.36 532.95 303.30 532.94
  Q 297.88 531.93 296.38 531.37
  Q 289.41 528.78 287.50 528.37
  Q 283.63 527.56 278.75 528.87
  Q 275.07 529.85 272.11 530.39
  Q 266.07 531.49 259.65 532.53
  Q 257.22 532.93 255.59 530.70
  Q 254.97 529.86 254.35 529.03
  Q 250.86 524.36 249.10 519.22
  C 248.86 518.53 248.35 518.01 247.86 517.49
  Q 247.64 517.25 247.56 516.94
  Q 247.13 515.39 246.07 514.05
  Q 245.28 513.03 244.98 511.87
  Q 244.57 510.22 244.19 508.53
  Q 244.07 507.95 243.54 508.10
  Q 243.49 508.12 243.44 508.09
  Q 243.24 507.99 243.18 507.76
  Q 242.88 506.52 242.88 505.35
  Q 242.87 504.88 242.64 504.47
  Q 242.02 503.42 242.43 502.27
  Z"
/>
<path fill="#de3170" d="
  M 285.20 413.92
  L 285.16 424.46
  Q 285.20 423.78 284.85 423.34
  Q 284.52 422.92 284.02 423.08
  Q 283.76 423.16 283.49 423.16
  Q 282.99 423.15 282.51 422.96
  Q 280.10 422.02 278.01 420.96
  Q 275.98 419.93 273.65 419.19
  L 268.56 407.40
  L 285.20 413.92
  Z"
/>
<path fill="#ac2656" d="
  M 358.25 425.53
  L 358.29 472.58
  A 2.67 2.66 -21.7 0 1 357.45 474.52
  Q 355.57 476.30 353.69 478.39
  Q 352.55 479.66 350.93 479.94
  Q 349.22 480.24 347.61 479.94
  Q 348.39 478.89 347.41 475.50
  Q 346.23 471.39 346.78 466.52
  C 346.96 464.96 346.36 463.46 346.36 461.88
  Q 346.40 452.02 346.46 442.58
  Q 346.51 436.53 344.28 429.12
  Q 344.14 428.64 343.75 428.34
  Q 342.73 427.53 342.10 426.12
  Q 340.47 422.52 337.27 421.57
  L 337.24 411.49
  Q 340.26 411.07 341.96 412.41
  Q 343.04 413.26 343.98 413.64
  Q 345.71 414.32 346.07 414.57
  Q 349.34 416.84 352.48 419.76
  Q 353.84 421.03 354.56 422.60
  Q 355.52 424.65 357.17 425.71
  Q 357.56 425.96 357.42 426.40
  Q 357.23 426.99 357.54 427.49
  Q 357.92 428.11 358.01 427.39
  L 358.25 425.53
  Z"
/>
<path fill="#ac2656" d="
  M 250.20 502.28
  L 260.22 502.09
  L 259.10 502.32
  Q 258.37 502.46 258.95 502.94
  C 259.81 503.65 259.67 504.71 260.45 505.64
  C 261.45 506.84 262.35 508.13 264.01 508.44
  Q 266.41 508.88 268.14 507.26
  Q 268.70 506.74 269.35 506.36
  L 273.45 503.96
  A 0.60 0.58 30.0 0 1 273.73 503.89
  L 274.34 503.89
  A 1.53 1.45 28.2 0 0 275.11 503.68
  Q 279.49 501.06 284.37 502.44
  Q 284.52 502.48 284.60 502.36
  Q 284.70 502.19 284.63 502.02
  A 0.05 0.05 0.0 0 1 284.70 501.96
  Q 286.32 502.90 287.10 504.53
  Q 287.31 504.97 287.80 505.01
  Q 293.08 505.48 296.89 508.95
  Q 298.11 510.06 299.36 510.76
  Q 300.72 511.53 302.06 512.30
  Q 304.00 513.42 306.24 513.67
  Q 310.71 514.17 314.82 511.99
  Q 315.47 511.64 315.83 511.01
  Q 316.40 510.05 317.46 509.86
  A 2.00 1.98 14.5 0 0 318.63 509.18
  Q 319.43 508.25 320.55 508.05
  Q 321.55 507.87 322.50 507.34
  Q 325.72 505.54 329.02 505.82
  Q 332.57 506.13 336.10 508.13
  Q 336.51 508.37 336.99 508.39
  Q 337.31 508.41 337.60 508.55
  Q 341.49 510.42 344.52 512.57
  Q 345.72 513.43 347.16 513.93
  Q 348.71 514.48 350.16 515.23
  Q 352.05 516.22 354.29 516.66
  Q 363.91 518.55 372.22 515.24
  Q 373.30 514.82 374.19 514.15
  Q 375.20 513.39 376.32 513.14
  Q 376.78 513.03 377.10 512.67
  Q 378.31 511.32 379.75 510.24
  Q 381.10 509.23 382.34 507.70
  Q 385.88 503.34 386.94 500.33
  Q 389.45 493.20 389.10 481.38
  C 389.07 480.29 389.50 479.34 389.21 478.30
  Q 388.90 477.22 388.90 476.14
  Q 388.91 461.63 388.64 447.68
  C 388.62 446.30 388.93 444.90 388.66 443.57
  Q 388.39 442.21 388.35 440.75
  Q 388.24 437.18 387.40 434.23
  Q 387.26 433.72 387.48 433.23
  Q 387.72 432.72 387.45 432.24
  L 382.55 423.51
  Q 382.24 422.95 381.81 423.43
  L 380.79 424.60
  L 380.83 414.41
  Q 381.27 412.13 385.47 413.25
  Q 387.15 413.70 388.77 415.02
  C 389.99 416.01 390.05 417.44 391.15 418.45
  Q 391.51 418.78 391.66 419.25
  Q 393.17 424.03 395.49 428.15
  Q 396.52 429.98 396.74 432.31
  Q 397.49 440.23 397.35 446.92
  Q 397.01 461.83 397.17 477.47
  Q 397.23 483.17 396.70 489.21
  Q 396.16 495.41 394.84 500.22
  Q 393.44 505.37 389.99 510.64
  Q 389.49 511.42 388.77 511.90
  C 387.92 512.47 387.65 513.29 386.94 513.99
  Q 384.71 516.18 382.44 518.33
  Q 381.28 519.43 379.82 520.07
  Q 378.80 520.53 377.97 521.22
  Q 377.12 521.93 376.09 522.21
  Q 372.76 523.11 369.21 524.09
  Q 365.76 525.05 362.16 524.99
  Q 353.02 524.83 345.49 522.01
  Q 340.04 519.97 334.44 517.49
  Q 331.54 516.19 327.35 517.07
  Q 323.37 517.91 319.80 519.84
  Q 317.59 521.04 315.10 521.78
  Q 308.07 523.89 301.08 521.22
  Q 294.69 518.78 289.06 515.65
  Q 286.92 514.46 284.11 514.53
  Q 279.07 514.64 274.82 517.71
  Q 268.56 522.24 261.27 520.58
  Q 258.02 519.84 255.97 518.00
  Q 253.39 515.68 252.63 511.97
  Q 252.05 509.14 251.43 506.27
  Q 251.32 505.78 251.02 505.38
  Q 250.00 504.07 250.20 502.28
  Z"
/>
<path fill="#ac2656" d="
  M 285.16 424.46
  L 285.23 444.06
  Q 285.24 446.21 284.39 444.24
  L 273.65 419.19
  Q 275.98 419.93 278.01 420.96
  Q 280.10 422.02 282.51 422.96
  Q 282.99 423.15 283.49 423.16
  Q 283.76 423.16 284.02 423.08
  Q 284.52 422.92 284.85 423.34
  Q 285.20 423.78 285.16 424.46
  Z"
/>
<path fill="#97214b" d="
  M 337.27 421.57
  Q 340.47 422.52 342.10 426.12
  Q 342.73 427.53 343.75 428.34
  Q 344.14 428.64 344.28 429.12
  Q 346.51 436.53 346.46 442.58
  Q 346.40 452.02 346.36 461.88
  C 346.36 463.46 346.96 464.96 346.78 466.52
  Q 346.23 471.39 347.41 475.50
  Q 348.39 478.89 347.61 479.94
  L 343.93 479.96
  A 1.34 1.33 66.9 0 1 343.00 479.58
  L 337.61 474.19
  A 1.79 1.77 -67.7 0 1 337.09 472.93
  L 337.27 421.57
  Z"
/>
<path fill="#97214b" d="
  M 260.22 502.09
  L 261.76 501.92
  Q 262.35 501.85 262.35 501.26
  L 262.28 449.80
  Q 262.28 449.18 262.53 449.75
  L 284.76 501.29
  A 1.15 1.14 78.2 0 0 285.81 501.98
  L 307.04 501.99
  A 0.51 0.51 0.0 0 0 307.55 501.48
  L 307.61 425.47
  Q 307.36 423.84 310.56 424.50
  C 311.49 424.69 312.46 424.55 313.20 423.92
  Q 313.71 423.49 314.03 424.08
  L 314.50 424.97
  L 314.49 481.79
  A 2.15 2.14 -67.8 0 0 315.13 483.32
  Q 323.33 491.58 332.38 500.65
  Q 333.69 501.96 335.51 501.97
  Q 348.00 502.02 360.52 501.93
  Q 361.78 501.92 362.65 501.01
  Q 370.27 493.14 378.90 484.79
  C 381.22 482.55 380.74 480.12 380.74 477.18
  Q 380.76 450.82 380.79 424.60
  L 381.81 423.43
  Q 382.24 422.95 382.55 423.51
  L 387.45 432.24
  Q 387.72 432.72 387.48 433.23
  Q 387.26 433.72 387.40 434.23
  Q 388.24 437.18 388.35 440.75
  Q 388.39 442.21 388.66 443.57
  C 388.93 444.90 388.62 446.30 388.64 447.68
  Q 388.91 461.63 388.90 476.14
  Q 388.90 477.22 389.21 478.30
  C 389.50 479.34 389.07 480.29 389.10 481.38
  Q 389.45 493.20 386.94 500.33
  Q 385.88 503.34 382.34 507.70
  Q 381.10 509.23 379.75 510.24
  Q 378.31 511.32 377.10 512.67
  Q 376.78 513.03 376.32 513.14
  Q 375.20 513.39 374.19 514.15
  Q 373.30 514.82 372.22 515.24
  Q 363.91 518.55 354.29 516.66
  Q 352.05 516.22 350.16 515.23
  Q 348.71 514.48 347.16 513.93
  Q 345.72 513.43 344.52 512.57
  Q 341.49 510.42 337.60 508.55
  Q 337.31 508.41 336.99 508.39
  Q 336.51 508.37 336.10 508.13
  Q 332.57 506.13 329.02 505.82
  Q 325.72 505.54 322.50 507.34
  Q 321.55 507.87 320.55 508.05
  Q 319.43 508.25 318.63 509.18
  A 2.00 1.98 14.5 0 1 317.46 509.86
  Q 316.40 510.05 315.83 511.01
  Q 315.47 511.64 314.82 511.99
  Q 310.71 514.17 306.24 513.67
  Q 304.00 513.42 302.06 512.30
  Q 300.72 511.53 299.36 510.76
  Q 298.11 510.06 296.89 508.95
  Q 293.08 505.48 287.80 505.01
  Q 287.31 504.97 287.10 504.53
  Q 286.32 502.90 284.70 501.96
  A 0.05 0.05 0.0 0 0 284.63 502.02
  Q 284.70 502.19 284.60 502.36
  Q 284.52 502.48 284.37 502.44
  Q 279.49 501.06 275.11 503.68
  A 1.53 1.45 28.2 0 1 274.34 503.89
  L 273.73 503.89
  A 0.60 0.58 30.0 0 0 273.45 503.96
  L 269.35 506.36
  Q 268.70 506.74 268.14 507.26
  Q 266.41 508.88 264.01 508.44
  C 262.35 508.13 261.45 506.84 260.45 505.64
  C 259.67 504.71 259.81 503.65 258.95 502.94
  Q 258.37 502.46 259.10 502.32
  L 260.22 502.09
  Z"
/>
<path fill="#ffffff" d="
  M 254.75 552.93
  L 254.74 560.49
  Q 254.74 560.99 254.24 560.99
  L 219.95 561.00
  Q 219.36 561.00 219.36 561.59
  L 219.37 575.21
  L 219.30 582.49
  A 0.49 0.49 0.0 0 0 219.79 582.99
  L 236.66 582.98
  L 247.26 583.03
  A 0.50 0.50 0.0 0 1 247.76 583.53
  L 247.74 604.30
  A 0.76 0.76 0.0 0 1 247.18 605.03
  Q 246.89 605.11 246.59 605.04
  L 219.81 604.88
  A 0.58 0.58 0.0 0 0 219.23 605.46
  L 219.30 625.73
  A 0.25 0.24 -90.0 0 0 219.54 625.98
  L 246.68 625.96
  L 253.96 626.02
  A 1.02 1.02 0.0 0 1 254.97 627.05
  L 254.90 647.42
  A 0.65 0.65 0.0 0 1 254.25 648.07
  L 243.28 648.02
  L 197.44 648.00
  Q 196.70 647.99 196.70 647.25
  L 196.70 571.22
  L 196.72 552.86
  L 196.82 539.52
  Q 196.82 539.02 197.32 539.02
  L 253.76 538.91
  A 1.05 1.04 90.0 0 1 254.80 539.96
  L 254.75 552.93
  Z"
/>
<path fill="#ffffff" d="
  M 329.58 553.96
  L 329.62 560.75
  L 329.60 571.85
  L 329.55 647.64
  Q 329.55 647.97 329.21 647.97
  L 308.33 647.95
  Q 307.75 647.93 307.28 647.72
  Q 306.86 647.52 306.60 646.96
  Q 305.45 644.51 304.43 641.97
  L 284.58 595.97
  Q 284.23 595.17 284.24 596.04
  L 284.34 646.99
  A 0.95 0.95 0.0 0 1 283.40 647.94
  L 262.28 648.13
  Q 261.56 647.86 261.56 647.25
  Q 261.74 600.98 261.70 554.30
  L 261.63 539.89
  A 0.86 0.86 0.0 0 1 262.49 539.03
  L 283.50 539.10
  A 1.22 1.22 0.0 0 1 284.62 539.83
  L 289.03 549.74
  L 292.21 557.30
  L 306.40 590.14
  Q 307.22 592.05 307.22 589.97
  L 307.17 563.30
  L 307.00 540.39
  Q 307.01 539.90 307.19 539.55
  Q 307.40 539.14 307.85 539.13
  Q 317.40 538.82 325.13 538.77
  Q 326.89 538.76 328.75 539.07
  A 0.84 0.83 4.6 0 1 329.44 539.88
  L 329.58 553.96
  Z"
/>
<path fill="#ffffff" d="
  M 402.53 550.73
  L 402.47 561.07
  L 363.31 625.42
  A 0.36 0.36 0.0 0 0 363.62 625.96
  L 388.65 626.01
  L 397.70 626.02
  L 401.68 626.11
  A 0.83 0.82 -89.3 0 1 402.48 626.94
  L 402.49 647.53
  Q 402.49 648.03 401.99 648.03
  L 398.03 648.01
  L 337.09 647.99
  Q 336.49 647.99 336.49 647.38
  Q 336.53 638.06 336.48 628.44
  Q 336.46 626.48 337.47 624.50
  Q 338.51 622.44 339.69 620.76
  L 375.89 561.51
  A 0.34 0.33 -74.2 0 0 375.61 561.00
  L 336.50 560.96
  L 336.51 552.85
  L 336.53 539.92
  Q 336.53 538.96 337.50 538.96
  L 400.55 538.96
  Q 402.41 538.96 402.43 540.81
  L 402.53 550.73
  Z"
/>
<path fill="#ffffff" d="
  M 146.45 553.94
  L 146.49 573.81
  L 146.54 582.40
  Q 146.54 582.94 147.07 582.94
  L 156.37 582.94
  C 158.65 583.29 161.04 583.25 162.70 581.45
  C 164.78 579.18 167.28 577.81 167.35 574.25
  Q 167.47 567.98 167.44 561.72
  L 167.41 539.68
  A 0.65 0.65 0.0 0 1 168.06 539.03
  L 188.72 539.00
  Q 189.70 539.00 189.71 539.98
  L 189.77 552.61
  L 189.77 569.62
  L 189.84 585.20
  A 2.21 2.20 -22.2 0 1 189.17 586.78
  L 182.19 593.50
  A 0.60 0.60 0.0 0 0 182.18 594.37
  L 189.31 601.44
  A 1.50 1.47 22.6 0 1 189.76 602.50
  L 189.72 647.30
  Q 189.72 647.81 189.22 647.85
  L 186.38 648.03
  L 168.14 648.07
  Q 167.18 648.08 167.19 647.12
  L 167.43 625.85
  L 167.39 612.10
  A 2.05 2.04 -67.9 0 0 166.78 610.64
  L 161.56 605.52
  Q 161.03 605.00 160.29 605.00
  L 146.73 604.96
  A 0.40 0.40 0.0 0 0 146.32 605.36
  Q 146.43 625.63 146.29 646.50
  Q 146.28 647.09 145.56 648.03
  L 128.81 648.47
  L 124.77 648.26
  A 1.11 1.10 1.4 0 1 123.71 647.16
  L 123.71 539.83
  Q 123.71 539.00 124.54 539.00
  L 145.93 539.01
  A 0.41 0.41 0.0 0 1 146.34 539.42
  L 146.45 553.94
  Z"
/>
<path fill="#ffffff" d="
  M 432.10 547.31
  L 432.22 559.20
  L 432.22 567.29
  L 432.34 647.13
  A 0.85 0.85 0.0 0 1 431.50 647.98
  L 412.21 648.02
  L 410.16 648.01
  Q 409.62 648.01 409.62 647.47
  L 409.41 611.54
  L 409.37 598.38
  L 409.45 560.42
  L 409.49 550.04
  L 409.50 540.00
  A 1.02 1.02 0.0 0 1 410.52 538.98
  L 430.96 539.03
  A 1.04 1.03 89.4 0 1 431.99 540.05
  L 432.10 547.31
  Z"
/>
<path fill="#ffffff" d="
  M 497.47 549.19
  L 497.51 561.01
  L 462.21 561.03
  Q 461.70 561.03 461.69 561.54
  L 461.59 569.96
  L 461.54 582.51
  A 0.49 0.49 0.0 0 0 462.04 583.00
  L 479.53 582.97
  L 490.23 583.27
  L 490.28 604.67
  Q 488.77 605.30 486.45 605.12
  L 462.02 605.03
  Q 461.52 605.03 461.52 605.53
  L 461.54 625.33
  Q 461.54 625.93 462.15 625.93
  L 489.70 625.83
  L 494.99 625.76
  Q 497.43 625.66 497.42 627.48
  Q 497.35 635.54 497.72 648.00
  L 482.10 647.96
  L 439.82 648.00
  A 0.68 0.68 0.0 0 1 439.14 647.32
  L 439.20 567.47
  L 439.22 559.52
  L 439.19 545.10
  L 439.21 539.56
  A 0.54 0.54 0.0 0 1 439.75 539.02
  L 496.30 539.01
  Q 497.28 539.01 497.30 540.00
  L 497.47 549.19
  Z"
/>
<path fill="#de3170" d="
  M 307.00 540.39
  L 307.17 563.30
  Q 306.35 561.58 305.57 562.28
  A 0.22 0.21 32.6 0 1 305.36 562.32
  L 292.21 557.30
  L 289.03 549.74
  Q 293.37 550.09 297.46 552.01
  Q 297.71 552.13 297.97 552.15
  Q 298.30 552.18 298.45 552.48
  Q 298.70 552.95 299.20 553.10
  L 305.00 554.83
  A 1.05 1.05 0.0 0 0 306.35 553.87
  L 307.00 540.39
  Z"
/>
<path fill="#de3170" d="
  M 439.19 545.10
  L 439.22 559.52
  Q 435.52 557.96 432.22 559.20
  L 432.10 547.31
  Q 432.92 546.63 433.08 545.54
  Q 433.15 545.06 433.61 544.90
  Q 437.59 543.56 439.19 545.10
  Z"
/>
<path fill="#de3170" d="
  M 497.47 549.19
  Q 498.99 550.17 500.09 551.27
  Q 500.76 551.94 500.64 552.84
  Q 500.56 553.42 501.14 553.37
  Q 501.42 553.35 501.63 553.64
  A 0.66 0.64 17.7 0 1 501.71 553.79
  L 502.53 556.08
  Q 502.75 556.68 503.30 556.38
  L 503.78 556.12
  A 0.77 0.76 52.8 0 1 504.69 556.25
  Q 505.27 556.82 505.98 557.33
  Q 506.64 557.80 507.56 557.92
  Q 510.13 558.27 511.62 559.87
  Q 514.08 562.51 515.31 566.81
  Q 515.44 567.29 515.77 567.66
  Q 516.88 568.92 516.87 570.56
  Q 516.87 571.11 517.16 571.56
  Q 517.76 572.46 517.64 573.51
  Q 517.17 577.66 515.61 581.08
  Q 515.52 581.27 515.32 581.29
  Q 515.26 581.29 515.23 581.23
  Q 515.17 581.10 515.10 581.23
  Q 513.61 584.08 511.14 586.63
  C 507.86 590.02 504.58 594.39 506.64 599.36
  Q 508.16 603.00 509.43 606.70
  Q 510.34 609.34 510.81 612.33
  Q 511.23 615.06 510.89 617.65
  Q 510.33 621.76 509.56 625.80
  C 509.00 628.69 508.95 631.75 508.84 634.68
  Q 508.83 635.15 509.29 635.18
  Q 509.50 635.19 509.60 635.38
  Q 509.66 635.51 509.67 635.65
  Q 509.83 639.10 511.21 642.25
  Q 512.04 644.15 512.38 645.60
  Q 512.79 647.34 513.32 649.03
  C 513.71 650.26 513.34 651.56 513.93 652.48
  Q 514.25 652.97 514.01 653.51
  Q 513.30 655.07 513.48 656.54
  Q 513.67 658.08 513.39 659.33
  Q 512.96 661.26 512.20 663.30
  Q 511.59 664.97 510.09 666.33
  Q 507.87 668.36 505.32 670.02
  Q 505.13 669.60 504.61 669.79
  Q 503.88 670.06 504.29 669.40
  Q 504.43 669.19 504.61 669.04
  A 0.30 0.30 0.0 0 0 504.48 668.52
  Q 504.27 668.47 503.91 668.52
  L 508.15 665.96
  Q 508.53 665.73 508.71 665.32
  Q 509.95 662.46 507.11 660.42
  Q 506.77 660.18 506.67 659.78
  Q 505.83 656.37 506.31 653.55
  Q 506.40 653.04 506.11 652.60
  Q 502.82 647.59 497.72 648.00
  Q 497.35 635.54 497.42 627.48
  Q 497.43 625.66 494.99 625.76
  L 498.03 625.55
  Q 498.56 625.52 498.90 625.11
  Q 500.79 622.88 499.78 620.71
  Q 499.23 619.54 499.05 618.27
  Q 498.72 615.99 497.98 613.97
  Q 497.82 613.52 497.92 613.05
  C 498.21 611.66 498.45 609.86 497.53 608.63
  Q 495.69 606.19 493.32 605.09
  Q 492.88 604.89 492.72 604.43
  Q 492.48 603.77 491.80 603.71
  Q 491.36 603.66 491.19 604.08
  Q 491.03 604.48 490.28 604.67
  L 490.23 583.27
  Q 490.87 585.23 491.47 585.15
  Q 493.86 584.81 495.03 582.80
  A 2.86 2.79 -88.7 0 1 496.08 581.77
  Q 498.88 580.18 502.09 580.34
  Q 502.65 580.36 503.08 580.01
  Q 504.64 578.78 504.58 577.03
  C 504.50 574.71 505.46 572.63 506.07 570.46
  Q 506.21 569.99 506.58 569.66
  Q 506.75 569.52 506.89 569.35
  Q 507.16 569.02 507.22 568.58
  Q 507.42 567.14 507.77 565.75
  Q 508.45 563.05 505.85 562.57
  Q 504.67 562.35 503.48 561.92
  Q 500.82 560.98 497.51 561.01
  L 497.47 549.19
  Z"
/>
<path fill="#de3170" d="
  M 409.49 550.04
  L 409.45 560.42
  Q 407.88 560.34 406.20 560.86
  Q 405.68 561.02 405.24 560.72
  Q 404.63 560.31 404.11 560.81
  Q 403.77 561.15 403.29 561.12
  L 402.47 561.07
  L 402.53 550.73
  Q 404.55 548.91 409.49 550.04
  Z"
/>
<path fill="#ac2656" d="
  M 196.72 552.86
  L 196.70 571.22
  Q 196.01 570.98 196.08 569.82
  Q 196.12 569.18 195.58 569.55
  Q 194.18 570.51 193.23 569.24
  Q 192.96 568.89 192.53 568.86
  Q 190.66 568.72 189.77 569.62
  L 189.77 552.61
  Q 192.84 551.24 196.72 552.86
  Z"
/>
<path fill="#de3170" d="
  M 336.51 552.85
  L 336.50 560.96
  L 329.62 560.75
  L 329.58 553.96
  Q 329.53 553.07 329.94 552.41
  Q 330.21 551.96 330.73 552.04
  L 336.51 552.85
  Z"
/>
<path fill="#ac2656" d="
  M 261.70 554.30
  Q 261.74 600.98 261.56 647.25
  Q 261.56 647.86 262.28 648.13
  L 243.28 648.02
  L 254.25 648.07
  A 0.65 0.65 0.0 0 0 254.90 647.42
  L 254.97 627.05
  A 1.02 1.02 0.0 0 0 253.96 626.02
  L 246.68 625.96
  C 246.27 623.58 248.28 622.80 249.08 621.27
  C 249.79 619.89 250.42 618.79 250.38 617.16
  Q 250.33 614.75 250.23 612.52
  Q 250.00 607.57 246.59 605.04
  Q 246.89 605.11 247.18 605.03
  A 0.76 0.76 0.0 0 0 247.74 604.30
  L 247.76 583.53
  A 0.50 0.50 0.0 0 0 247.26 583.03
  L 236.66 582.98
  Q 236.16 580.52 237.02 579.27
  Q 237.85 578.06 239.17 576.92
  C 240.78 575.53 241.62 574.20 242.72 572.58
  A 1.29 1.29 0.0 0 0 242.07 570.64
  Q 238.59 569.45 234.69 568.65
  Q 230.48 567.79 225.21 568.68
  A 6.46 6.42 41.6 0 1 223.78 568.76
  Q 220.94 568.57 219.87 570.74
  Q 219.14 572.21 219.37 575.21
  L 219.36 561.59
  Q 219.36 561.00 219.95 561.00
  L 254.24 560.99
  Q 254.74 560.99 254.74 560.49
  L 254.75 552.93
  Q 260.44 551.95 261.70 554.30
  Z"
/>
<path fill="#ac2656" d="
  M 167.44 561.72
  Q 167.47 567.98 167.35 574.25
  C 167.28 577.81 164.78 579.18 162.70 581.45
  C 161.04 583.25 158.65 583.29 156.37 582.94
  L 155.72 581.28
  Q 155.52 580.77 155.08 580.44
  L 146.49 573.81
  L 146.45 553.94
  Q 150.50 554.27 156.00 556.11
  Q 157.46 556.60 158.44 557.23
  Q 160.21 558.36 160.70 558.56
  Q 164.11 560.00 167.44 561.72
  Z"
/>
<path fill="#ac2656" d="
  M 292.21 557.30
  L 305.36 562.32
  A 0.22 0.21 32.6 0 0 305.57 562.28
  Q 306.35 561.58 307.17 563.30
  L 307.22 589.97
  Q 307.22 592.05 306.40 590.14
  L 292.21 557.30
  Z"
/>
<path fill="#ac2656" d="
  M 439.22 559.52
  L 439.20 567.47
  Q 438.99 567.59 438.92 567.18
  Q 438.86 566.81 438.53 566.63
  Q 438.30 566.51 438.10 566.68
  Q 437.74 567.02 437.25 566.91
  Q 434.93 566.41 432.22 567.29
  L 432.22 559.20
  Q 435.52 557.96 439.22 559.52
  Z"
/>
<path fill="#97214b" d="
  M 409.45 560.42
  L 409.37 598.38
  Q 401.28 603.23 395.71 611.43
  Q 394.47 613.26 392.85 616.51
  Q 391.55 619.12 390.21 621.71
  Q 389.80 622.49 389.63 623.87
  Q 389.44 625.31 388.65 626.01
  L 363.62 625.96
  A 0.36 0.36 0.0 0 1 363.31 625.42
  L 402.47 561.07
  L 403.29 561.12
  Q 403.77 561.15 404.11 560.81
  Q 404.63 560.31 405.24 560.72
  Q 405.68 561.02 406.20 560.86
  Q 407.88 560.34 409.45 560.42
  Z"
/>
<path fill="#ac2656" d="
  M 336.50 560.96
  L 375.61 561.00
  A 0.34 0.33 -74.2 0 1 375.89 561.51
  L 339.69 620.76
  Q 339.98 617.93 339.75 615.72
  Q 339.55 613.77 339.47 611.74
  Q 339.39 609.72 339.13 607.72
  Q 337.86 597.66 340.21 587.55
  C 340.63 585.74 340.80 583.94 341.02 582.10
  Q 341.19 580.76 341.71 579.56
  Q 342.25 578.31 342.47 576.90
  C 342.71 575.32 342.09 573.89 340.55 573.22
  Q 335.48 571.01 329.60 571.85
  L 329.62 560.75
  L 336.50 560.96
  Z"
/>
<path fill="#ac2656" d="
  M 490.23 583.27
  L 479.53 582.97
  L 481.88 582.78
  Q 482.72 582.71 481.97 582.31
  Q 481.58 582.10 481.11 582.11
  Q 479.78 582.14 480.88 581.38
  Q 481.04 581.27 481.11 581.08
  Q 481.28 580.62 481.71 580.41
  Q 486.16 578.29 490.99 579.05
  Q 492.25 579.25 493.23 578.59
  Q 493.48 578.41 493.75 578.36
  Q 493.96 578.32 493.93 578.55
  Q 493.89 578.76 494.11 578.75
  Q 494.45 578.73 494.30 578.41
  A 0.05 0.05 0.0 0 1 494.38 578.36
  L 494.73 578.74
  Q 494.81 578.83 494.93 578.82
  Q 497.87 578.58 498.77 576.09
  Q 499.19 574.94 499.87 573.85
  Q 500.52 572.81 500.73 571.62
  Q 500.85 570.96 501.36 570.55
  A 1.14 1.13 71.3 0 0 501.78 569.69
  Q 501.83 566.75 503.60 565.05
  A 1.45 1.45 0.0 0 0 503.05 562.64
  Q 499.80 561.56 498.18 564.12
  Q 497.97 564.45 497.60 564.40
  Q 495.98 564.20 494.44 564.72
  Q 492.69 565.30 490.79 565.31
  Q 486.81 565.32 482.86 565.76
  C 481.04 565.96 479.17 565.80 477.42 566.36
  Q 475.43 567.00 473.38 566.89
  Q 469.98 566.71 466.75 567.31
  C 465.35 567.56 464.31 568.62 462.96 568.33
  Q 462.46 568.22 462.05 568.54
  Q 461.47 569.00 461.59 569.96
  L 461.69 561.54
  Q 461.70 561.03 462.21 561.03
  L 497.51 561.01
  Q 500.82 560.98 503.48 561.92
  Q 504.67 562.35 505.85 562.57
  Q 508.45 563.05 507.77 565.75
  Q 507.42 567.14 507.22 568.58
  Q 507.16 569.02 506.89 569.35
  Q 506.75 569.52 506.58 569.66
  Q 506.21 569.99 506.07 570.46
  C 505.46 572.63 504.50 574.71 504.58 577.03
  Q 504.64 578.78 503.08 580.01
  Q 502.65 580.36 502.09 580.34
  Q 498.88 580.18 496.08 581.77
  A 2.86 2.79 -88.7 0 0 495.03 582.80
  Q 493.86 584.81 491.47 585.15
  Q 490.87 585.23 490.23 583.27
  Z"
/>
<path fill="#97214b" d="
  M 479.53 582.97
  L 462.04 583.00
  A 0.49 0.49 0.0 0 1 461.54 582.51
  L 461.59 569.96
  Q 461.47 569.00 462.05 568.54
  Q 462.46 568.22 462.96 568.33
  C 464.31 568.62 465.35 567.56 466.75 567.31
  Q 469.98 566.71 473.38 566.89
  Q 475.43 567.00 477.42 566.36
  C 479.17 565.80 481.04 565.96 482.86 565.76
  Q 486.81 565.32 490.79 565.31
  Q 492.69 565.30 494.44 564.72
  Q 495.98 564.20 497.60 564.40
  Q 497.97 564.45 498.18 564.12
  Q 499.80 561.56 503.05 562.64
  A 1.45 1.45 0.0 0 1 503.60 565.05
  Q 501.83 566.75 501.78 569.69
  A 1.14 1.13 71.3 0 1 501.36 570.55
  Q 500.85 570.96 500.73 571.62
  Q 500.52 572.81 499.87 573.85
  Q 499.19 574.94 498.77 576.09
  Q 497.87 578.58 494.93 578.82
  Q 494.81 578.83 494.73 578.74
  L 494.38 578.36
  A 0.05 0.05 0.0 0 0 494.30 578.41
  Q 494.45 578.73 494.11 578.75
  Q 493.89 578.76 493.93 578.55
  Q 493.96 578.32 493.75 578.36
  Q 493.48 578.41 493.23 578.59
  Q 492.25 579.25 490.99 579.05
  Q 486.16 578.29 481.71 580.41
  Q 481.28 580.62 481.11 581.08
  Q 481.04 581.27 480.88 581.38
  Q 479.78 582.14 481.11 582.11
  Q 481.58 582.10 481.97 582.31
  Q 482.72 582.71 481.88 582.78
  L 479.53 582.97
  Z"
/>
<path fill="#97214b" d="
  M 439.20 567.47
  L 439.14 647.32
  A 0.68 0.68 0.0 0 0 439.82 648.00
  L 482.10 647.96
  L 490.99 649.62
  Q 491.39 649.70 491.72 649.94
  Q 492.16 650.26 492.71 650.15
  Q 493.22 650.05 493.45 650.50
  Q 494.11 651.81 495.60 651.51
  Q 496.81 651.27 496.79 650.05
  Q 496.78 649.61 497.18 649.42
  C 498.64 648.74 501.20 648.59 502.35 650.08
  Q 502.87 650.76 503.50 651.33
  Q 503.94 651.72 503.96 652.31
  L 504.19 658.88
  Q 504.20 659.28 504.41 659.61
  C 505.38 661.18 506.74 662.23 506.67 664.26
  Q 506.62 665.64 505.38 666.23
  Q 504.19 666.79 503.06 666.39
  Q 501.46 665.84 499.77 665.88
  Q 499.26 665.89 498.82 665.64
  C 496.67 664.40 494.69 665.86 492.38 665.88
  Q 491.04 665.88 489.62 666.20
  Q 487.48 666.67 485.44 666.98
  Q 485.32 667.00 485.23 666.92
  Q 485.05 666.76 485.17 666.68
  Q 485.58 666.37 485.06 666.37
  Q 483.25 666.37 481.50 666.37
  Q 481.19 666.37 481.16 666.02
  Q 481.13 665.68 480.78 665.70
  Q 480.00 665.74 479.25 665.68
  Q 478.47 665.61 477.74 665.33
  Q 474.56 664.11 471.21 663.55
  Q 469.76 663.31 468.30 662.86
  Q 466.76 662.37 465.17 662.14
  Q 462.21 661.71 459.46 660.57
  Q 456.22 659.22 452.70 658.44
  Q 452.23 658.33 451.76 658.40
  Q 451.18 658.49 450.74 658.15
  C 449.95 657.55 448.91 657.44 447.97 657.69
  Q 447.59 657.79 447.21 657.74
  Q 444.22 657.34 441.50 657.49
  Q 436.32 657.77 430.37 656.33
  Q 430.21 656.29 430.09 656.41
  L 429.87 656.62
  A 0.64 0.64 0.0 0 1 429.32 656.80
  Q 424.50 655.97 420.33 656.23
  Q 419.62 656.28 419.05 656.68
  Q 418.59 657.00 418.11 657.29
  Q 417.28 657.78 416.34 657.86
  Q 412.98 658.14 409.73 659.08
  A 12.69 2.15 -11.8 0 1 408.12 659.53
  Q 399.48 661.80 390.50 663.63
  Q 382.63 665.23 373.88 664.12
  Q 367.14 663.26 361.51 662.05
  Q 359.24 661.57 357.02 660.26
  Q 354.70 658.91 352.12 658.41
  Q 345.72 657.17 337.34 657.80
  Q 336.77 657.85 336.27 658.11
  Q 335.56 658.47 334.74 658.43
  Q 331.24 658.25 327.81 657.75
  Q 325.86 657.46 323.97 656.72
  Q 321.86 655.90 319.66 655.91
  C 316.21 655.91 312.65 655.96 309.50 654.29
  Q 309.06 654.06 309.16 653.57
  Q 309.45 652.17 309.54 649.76
  Q 309.56 649.24 310.09 649.09
  A 0.10 0.09 43.4 0 0 310.08 648.91
  Q 308.55 648.50 308.33 647.95
  L 329.21 647.97
  Q 329.55 647.97 329.55 647.64
  L 329.60 571.85
  Q 335.48 571.01 340.55 573.22
  C 342.09 573.89 342.71 575.32 342.47 576.90
  Q 342.25 578.31 341.71 579.56
  Q 341.19 580.76 341.02 582.10
  C 340.80 583.94 340.63 585.74 340.21 587.55
  Q 337.86 597.66 339.13 607.72
  Q 339.39 609.72 339.47 611.74
  Q 339.55 613.77 339.75 615.72
  Q 339.98 617.93 339.69 620.76
  Q 338.51 622.44 337.47 624.50
  Q 336.46 626.48 336.48 628.44
  Q 336.53 638.06 336.49 647.38
  Q 336.49 647.99 337.09 647.99
  L 398.03 648.01
  L 412.21 648.02
  L 431.50 647.98
  A 0.85 0.85 0.0 0 0 432.34 647.13
  L 432.22 567.29
  Q 434.93 566.41 437.25 566.91
  Q 437.74 567.02 438.10 566.68
  Q 438.30 566.51 438.53 566.63
  Q 438.86 566.81 438.92 567.18
  Q 438.99 567.59 439.20 567.47
  Z"
/>
<path fill="#97214b" d="
  M 236.66 582.98
  L 219.79 582.99
  A 0.49 0.49 0.0 0 1 219.30 582.49
  L 219.37 575.21
  Q 219.14 572.21 219.87 570.74
  Q 220.94 568.57 223.78 568.76
  A 6.46 6.42 41.6 0 0 225.21 568.68
  Q 230.48 567.79 234.69 568.65
  Q 238.59 569.45 242.07 570.64
  A 1.29 1.29 0.0 0 1 242.72 572.58
  C 241.62 574.20 240.78 575.53 239.17 576.92
  Q 237.85 578.06 237.02 579.27
  Q 236.16 580.52 236.66 582.98
  Z"
/>
<path fill="#97214b" d="
  M 196.70 571.22
  L 196.70 647.25
  Q 196.70 647.99 197.44 648.00
  L 243.28 648.02
  L 262.28 648.13
  L 283.40 647.94
  A 0.95 0.95 0.0 0 0 284.34 646.99
  L 284.24 596.04
  Q 284.23 595.17 284.58 595.97
  L 304.43 641.97
  L 304.71 643.42
  A 1.38 1.38 0.0 0 1 303.04 645.02
  Q 301.67 644.70 300.69 645.75
  C 299.82 646.66 298.81 646.42 297.81 646.97
  Q 294.22 648.95 291.00 651.47
  Q 289.23 652.85 287.25 653.73
  Q 285.21 654.63 282.91 654.44
  Q 281.31 654.30 280.11 654.99
  Q 279.69 655.24 279.21 655.13
  Q 278.74 655.03 278.36 655.30
  Q 278.00 655.56 277.55 655.59
  Q 276.50 655.67 275.46 655.58
  Q 274.57 655.50 273.69 655.74
  Q 270.29 656.68 266.85 657.09
  Q 266.45 657.14 266.07 656.98
  C 265.67 656.82 265.35 656.81 264.95 656.98
  Q 263.92 657.41 262.95 656.80
  Q 262.51 656.52 262.00 656.59
  L 258.01 657.15
  Q 257.64 657.20 257.54 657.56
  Q 257.48 657.77 257.26 657.86
  Q 253.08 659.50 248.59 660.35
  Q 246.97 660.65 245.46 661.30
  C 245.00 661.50 244.26 661.33 243.69 661.45
  Q 236.27 663.04 227.85 662.59
  Q 226.94 662.54 226.03 662.29
  C 224.34 661.82 222.65 661.98 221.03 661.39
  Q 218.91 660.62 216.85 660.16
  Q 213.72 659.47 210.94 658.51
  Q 208.27 657.59 205.22 657.49
  Q 202.21 657.38 199.54 656.74
  Q 197.26 656.20 194.95 656.07
  Q 193.82 656.01 192.65 655.61
  Q 191.52 655.23 190.33 654.92
  Q 188.18 654.36 186.09 652.64
  Q 185.66 652.29 185.65 651.73
  Q 185.63 650.94 186.37 650.69
  Q 186.84 650.53 186.87 650.04
  Q 186.92 649.28 186.38 648.03
  L 189.22 647.85
  Q 189.72 647.81 189.72 647.30
  L 189.76 602.50
  A 1.50 1.47 22.6 0 0 189.31 601.44
  L 182.18 594.37
  A 0.60 0.60 0.0 0 1 182.19 593.50
  L 189.17 586.78
  A 2.21 2.20 -22.2 0 0 189.84 585.20
  L 189.77 569.62
  Q 190.66 568.72 192.53 568.86
  Q 192.96 568.89 193.23 569.24
  Q 194.18 570.51 195.58 569.55
  Q 196.12 569.18 196.08 569.82
  Q 196.01 570.98 196.70 571.22
  Z"
/>
<path fill="#97214b" d="
  M 156.37 582.94
  L 147.07 582.94
  Q 146.54 582.94 146.54 582.40
  L 146.49 573.81
  L 155.08 580.44
  Q 155.52 580.77 155.72 581.28
  L 156.37 582.94
  Z"
/>
<path fill="#ac2656" d="
  M 409.37 598.38
  L 409.41 611.54
  Q 403.92 615.79 400.28 620.77
  Q 398.73 622.91 397.70 626.02
  L 388.65 626.01
  Q 389.44 625.31 389.63 623.87
  Q 389.80 622.49 390.21 621.71
  Q 391.55 619.12 392.85 616.51
  Q 394.47 613.26 395.71 611.43
  Q 401.28 603.23 409.37 598.38
  Z"
/>
<path fill="#ac2656" d="
  M 494.99 625.76
  L 489.70 625.83
  Q 493.72 621.98 497.76 622.63
  A 0.82 0.82 0.0 0 0 498.62 621.44
  C 497.78 619.82 496.37 619.58 495.40 618.19
  Q 492.88 614.58 493.84 609.57
  Q 494.14 607.98 493.22 606.84
  Q 492.54 605.98 491.19 605.67
  Q 488.91 605.15 486.45 605.12
  Q 488.77 605.30 490.28 604.67
  Q 491.03 604.48 491.19 604.08
  Q 491.36 603.66 491.80 603.71
  Q 492.48 603.77 492.72 604.43
  Q 492.88 604.89 493.32 605.09
  Q 495.69 606.19 497.53 608.63
  C 498.45 609.86 498.21 611.66 497.92 613.05
  Q 497.82 613.52 497.98 613.97
  Q 498.72 615.99 499.05 618.27
  Q 499.23 619.54 499.78 620.71
  Q 500.79 622.88 498.90 625.11
  Q 498.56 625.52 498.03 625.55
  L 494.99 625.76
  Z"
/>
<path fill="#97214b" d="
  M 167.43 625.85
  Q 167.70 629.81 161.22 633.25
  Q 161.05 633.34 160.94 633.19
  Q 160.91 633.15 160.92 633.10
  Q 161.13 632.47 160.66 632.94
  Q 158.51 635.09 156.25 637.39
  Q 154.95 638.71 154.40 640.33
  Q 153.82 642.01 152.68 643.62
  Q 152.42 643.98 152.00 644.14
  Q 151.43 644.36 151.62 644.95
  Q 151.74 645.33 151.37 645.48
  Q 150.55 645.81 150.48 646.78
  Q 150.43 647.43 150.83 647.92
  Q 151.73 649.00 152.83 649.90
  A 1.33 1.24 -81.0 0 1 153.25 650.52
  L 153.56 651.54
  Q 153.71 652.05 154.19 652.26
  Q 154.55 652.42 154.39 652.80
  Q 152.84 656.31 150.53 658.52
  Q 149.47 659.53 148.77 660.74
  C 147.66 662.66 144.66 664.34 142.95 662.12
  A 2.92 2.92 0.0 0 1 143.07 658.40
  C 144.52 656.76 145.87 654.89 144.12 652.76
  Q 144.10 652.73 144.13 652.70
  L 144.32 652.52
  A 0.29 0.28 -38.6 0 1 144.74 652.56
  Q 145.02 652.94 145.22 653.35
  Q 145.52 653.93 145.37 653.29
  Q 145.28 652.90 145.46 652.53
  Q 145.84 651.76 145.97 652.61
  Q 146.09 653.35 146.80 653.14
  A 0.12 0.12 0.0 0 0 146.88 652.97
  Q 146.78 652.77 146.94 652.64
  Q 147.23 652.38 147.51 652.65
  Q 149.10 654.20 150.27 652.60
  Q 151.17 651.39 149.89 650.51
  Q 149.54 650.28 149.14 650.41
  Q 148.85 650.51 148.61 650.22
  Q 148.34 649.88 148.77 649.88
  Q 151.45 649.87 151.71 652.59
  Q 151.72 652.65 151.67 652.66
  Q 151.61 652.68 151.59 652.62
  Q 151.57 652.57 151.58 652.52
  Q 152.05 650.90 150.59 650.13
  Q 150.36 650.01 150.57 649.85
  Q 150.69 649.75 150.84 649.79
  Q 151.92 650.09 150.92 649.59
  Q 148.79 648.53 145.56 648.03
  Q 146.28 647.09 146.29 646.50
  Q 146.43 625.63 146.32 605.36
  A 0.40 0.40 0.0 0 1 146.73 604.96
  L 160.29 605.00
  Q 161.03 605.00 161.56 605.52
  L 166.78 610.64
  A 2.05 2.04 -67.9 0 1 167.39 612.10
  L 167.43 625.85
  Z"
/>
<path fill="#97214b" d="
  M 246.59 605.04
  Q 250.00 607.57 250.23 612.52
  Q 250.33 614.75 250.38 617.16
  C 250.42 618.79 249.79 619.89 249.08 621.27
  C 248.28 622.80 246.27 623.58 246.68 625.96
  L 219.54 625.98
  A 0.25 0.24 90.0 0 1 219.30 625.73
  L 219.23 605.46
  A 0.58 0.58 0.0 0 1 219.81 604.88
  L 246.59 605.04
  Z"
/>
<path fill="#97214b" d="
  M 486.45 605.12
  Q 488.91 605.15 491.19 605.67
  Q 492.54 605.98 493.22 606.84
  Q 494.14 607.98 493.84 609.57
  Q 492.88 614.58 495.40 618.19
  C 496.37 619.58 497.78 619.82 498.62 621.44
  A 0.82 0.82 0.0 0 1 497.76 622.63
  Q 493.72 621.98 489.70 625.83
  L 462.15 625.93
  Q 461.54 625.93 461.54 625.33
  L 461.52 605.53
  Q 461.52 605.03 462.02 605.03
  L 486.45 605.12
  Z"
/>
<path fill="#de3170" d="
  M 409.41 611.54
  L 409.62 647.47
  Q 409.62 648.01 410.16 648.01
  L 412.21 648.02
  L 398.03 648.01
  L 401.99 648.03
  Q 402.49 648.03 402.49 647.53
  L 402.48 626.94
  A 0.83 0.82 -89.3 0 0 401.68 626.11
  L 397.70 626.02
  Q 398.73 622.91 400.28 620.77
  Q 403.92 615.79 409.41 611.54
  Z"
/>
<path fill="#ac2656" d="
  M 167.43 625.85
  L 167.19 647.12
  Q 167.18 648.08 168.14 648.07
  L 186.38 648.03
  Q 186.92 649.28 186.87 650.04
  Q 186.84 650.53 186.37 650.69
  Q 185.63 650.94 185.65 651.73
  Q 185.66 652.29 186.09 652.64
  Q 188.18 654.36 190.33 654.92
  Q 191.52 655.23 192.65 655.61
  Q 193.82 656.01 194.95 656.07
  Q 197.26 656.20 199.54 656.74
  Q 202.21 657.38 205.22 657.49
  Q 208.27 657.59 210.94 658.51
  Q 213.72 659.47 216.85 660.16
  Q 218.91 660.62 221.03 661.39
  C 222.65 661.98 224.34 661.82 226.03 662.29
  Q 226.94 662.54 227.85 662.59
  Q 236.27 663.04 243.69 661.45
  C 244.26 661.33 245.00 661.50 245.46 661.30
  Q 246.97 660.65 248.59 660.35
  Q 253.08 659.50 257.26 657.86
  Q 257.48 657.77 257.54 657.56
  Q 257.64 657.20 258.01 657.15
  L 262.00 656.59
  Q 262.51 656.52 262.95 656.80
  Q 263.92 657.41 264.95 656.98
  C 265.35 656.81 265.67 656.82 266.07 656.98
  Q 266.45 657.14 266.85 657.09
  Q 270.29 656.68 273.69 655.74
  Q 274.57 655.50 275.46 655.58
  Q 276.50 655.67 277.55 655.59
  Q 278.00 655.56 278.36 655.30
  Q 278.74 655.03 279.21 655.13
  Q 279.69 655.24 280.11 654.99
  Q 281.31 654.30 282.91 654.44
  Q 285.21 654.63 287.25 653.73
  Q 289.23 652.85 291.00 651.47
  Q 294.22 648.95 297.81 646.97
  C 298.81 646.42 299.82 646.66 300.69 645.75
  Q 301.67 644.70 303.04 645.02
  A 1.38 1.38 0.0 0 0 304.71 643.42
  L 304.43 641.97
  Q 305.45 644.51 306.60 646.96
  Q 306.86 647.52 307.28 647.72
  Q 307.75 647.93 308.33 647.95
  Q 308.55 648.50 310.08 648.91
  A 0.10 0.09 43.4 0 1 310.09 649.09
  Q 309.56 649.24 309.54 649.76
  Q 309.45 652.17 309.16 653.57
  Q 309.06 654.06 309.50 654.29
  C 312.65 655.96 316.21 655.91 319.66 655.91
  Q 321.86 655.90 323.97 656.72
  Q 325.86 657.46 327.81 657.75
  Q 331.24 658.25 334.74 658.43
  Q 335.56 658.47 336.27 658.11
  Q 336.77 657.85 337.34 657.80
  Q 345.72 657.17 352.12 658.41
  Q 354.70 658.91 357.02 660.26
  Q 359.24 661.57 361.51 662.05
  Q 367.14 663.26 373.88 664.12
  Q 382.63 665.23 390.50 663.63
  Q 399.48 661.80 408.12 659.53
  A 12.69 2.15 -11.8 0 0 409.73 659.08
  Q 412.98 658.14 416.34 657.86
  Q 417.28 657.78 418.11 657.29
  Q 418.59 657.00 419.05 656.68
  Q 419.62 656.28 420.33 656.23
  Q 424.50 655.97 429.32 656.80
  A 0.64 0.64 0.0 0 0 429.87 656.62
  L 430.09 656.41
  Q 430.21 656.29 430.37 656.33
  Q 436.32 657.77 441.50 657.49
  Q 444.22 657.34 447.21 657.74
  Q 447.59 657.79 447.97 657.69
  C 448.91 657.44 449.95 657.55 450.74 658.15
  Q 451.18 658.49 451.76 658.40
  Q 452.23 658.33 452.70 658.44
  Q 456.22 659.22 459.46 660.57
  Q 462.21 661.71 465.17 662.14
  Q 466.76 662.37 468.30 662.86
  Q 469.76 663.31 471.21 663.55
  Q 474.56 664.11 477.74 665.33
  Q 478.47 665.61 479.25 665.68
  Q 480.00 665.74 480.78 665.70
  Q 481.13 665.68 481.16 666.02
  Q 481.19 666.37 481.50 666.37
  Q 483.25 666.37 485.06 666.37
  Q 485.58 666.37 485.17 666.68
  Q 485.05 666.76 485.23 666.92
  Q 485.32 667.00 485.44 666.98
  Q 487.48 666.67 489.62 666.20
  Q 491.04 665.88 492.38 665.88
  C 494.69 665.86 496.67 664.40 498.82 665.64
  Q 499.26 665.89 499.77 665.88
  Q 501.46 665.84 503.06 666.39
  Q 504.19 666.79 505.38 666.23
  Q 506.62 665.64 506.67 664.26
  C 506.74 662.23 505.38 661.18 504.41 659.61
  Q 504.20 659.28 504.19 658.88
  L 503.96 652.31
  Q 503.94 651.72 503.50 651.33
  Q 502.87 650.76 502.35 650.08
  C 501.20 648.59 498.64 648.74 497.18 649.42
  Q 496.78 649.61 496.79 650.05
  Q 496.81 651.27 495.60 651.51
  Q 494.11 651.81 493.45 650.50
  Q 493.22 650.05 492.71 650.15
  Q 492.16 650.26 491.72 649.94
  Q 491.39 649.70 490.99 649.62
  L 482.10 647.96
  L 497.72 648.00
  Q 502.82 647.59 506.11 652.60
  Q 506.40 653.04 506.31 653.55
  Q 505.83 656.37 506.67 659.78
  Q 506.77 660.18 507.11 660.42
  Q 509.95 662.46 508.71 665.32
  Q 508.53 665.73 508.15 665.96
  L 503.91 668.52
  Q 501.92 669.60 499.49 669.36
  Q 497.47 669.16 495.97 669.32
  Q 493.23 669.62 492.52 669.59
  Q 488.52 669.43 486.99 669.85
  Q 484.75 670.47 482.46 670.54
  Q 480.42 670.61 478.79 671.30
  Q 474.64 673.07 469.18 672.26
  Q 451.23 669.60 435.76 669.83
  Q 431.40 669.90 426.02 669.20
  Q 423.22 668.83 420.59 668.88
  C 417.74 668.93 414.42 668.52 411.69 669.31
  Q 409.74 669.88 407.75 670.10
  Q 404.96 670.41 402.47 671.03
  Q 399.96 671.65 397.47 671.77
  Q 386.73 672.29 374.94 672.51
  Q 365.53 672.69 354.99 670.88
  Q 354.54 670.81 354.15 670.59
  Q 353.53 670.25 352.83 670.15
  Q 346.22 669.20 340.69 669.97
  Q 336.73 670.53 332.80 670.35
  Q 329.54 670.20 325.50 668.89
  Q 325.32 668.83 325.33 668.65
  Q 325.34 668.44 325.15 668.37
  Q 318.71 665.95 313.06 662.63
  Q 311.65 661.80 310.12 661.37
  C 307.98 660.77 306.24 660.10 304.08 661.33
  Q 298.49 664.51 293.15 667.13
  Q 289.12 669.10 284.50 669.13
  Q 277.09 669.17 269.23 668.94
  Q 266.68 668.86 264.04 669.52
  Q 261.39 670.18 258.89 670.43
  Q 255.30 670.79 251.49 671.19
  Q 251.20 671.22 251.14 671.50
  Q 238.58 673.14 226.48 671.83
  Q 225.80 671.76 225.13 671.83
  Q 224.49 671.90 223.85 671.82
  Q 218.71 671.21 213.60 670.41
  Q 207.97 669.54 203.28 669.29
  Q 196.82 668.96 190.60 667.72
  Q 190.09 667.62 189.66 667.34
  Q 189.00 666.91 188.25 666.91
  Q 187.74 666.90 187.30 666.63
  Q 183.70 664.41 180.83 658.89
  Q 180.15 657.58 178.46 656.49
  Q 177.12 655.63 175.66 655.63
  Q 173.27 655.63 171.22 654.46
  Q 165.99 651.46 160.84 656.05
  Q 160.73 656.15 160.59 656.13
  Q 160.42 656.10 160.26 656.16
  Q 160.15 656.19 160.07 656.28
  Q 158.76 657.80 156.96 658.61
  Q 155.52 659.25 154.32 660.19
  Q 150.37 663.27 146.34 664.93
  Q 145.23 665.38 144.03 665.19
  Q 142.83 664.99 141.96 664.05
  Q 139.87 661.78 138.98 659.80
  Q 138.17 658.00 140.09 657.48
  Q 140.49 657.37 140.83 657.15
  Q 141.47 656.73 142.21 656.47
  C 143.59 656.00 144.02 654.79 143.50 653.43
  C 142.77 651.48 139.73 651.46 138.07 651.64
  Q 137.51 651.70 137.06 651.39
  Q 135.67 650.43 133.99 650.41
  Q 132.99 650.39 133.93 650.74
  L 135.77 651.40
  L 129.43 650.61
  A 1.51 1.50 83.7 0 1 128.19 649.61
  Q 127.85 648.63 128.81 648.47
  L 145.56 648.03
  Q 148.79 648.53 150.92 649.59
  Q 151.92 650.09 150.84 649.79
  Q 150.69 649.75 150.57 649.85
  Q 150.36 650.01 150.59 650.13
  Q 152.05 650.90 151.58 652.52
  Q 151.57 652.57 151.59 652.62
  Q 151.61 652.68 151.67 652.66
  Q 151.72 652.65 151.71 652.59
  Q 151.45 649.87 148.77 649.88
  Q 148.34 649.88 148.61 650.22
  Q 148.85 650.51 149.14 650.41
  Q 149.54 650.28 149.89 650.51
  Q 151.17 651.39 150.27 652.60
  Q 149.10 654.20 147.51 652.65
  Q 147.23 652.38 146.94 652.64
  Q 146.78 652.77 146.88 652.97
  A 0.12 0.12 0.0 0 1 146.80 653.14
  Q 146.09 653.35 145.97 652.61
  Q 145.84 651.76 145.46 652.53
  Q 145.28 652.90 145.37 653.29
  Q 145.52 653.93 145.22 653.35
  Q 145.02 652.94 144.74 652.56
  A 0.29 0.28 -38.6 0 0 144.32 652.52
  L 144.13 652.70
  Q 144.10 652.73 144.12 652.76
  C 145.87 654.89 144.52 656.76 143.07 658.40
  A 2.92 2.92 0.0 0 0 142.95 662.12
  C 144.66 664.34 147.66 662.66 148.77 660.74
  Q 149.47 659.53 150.53 658.52
  Q 152.84 656.31 154.39 652.80
  Q 154.55 652.42 154.19 652.26
  Q 153.71 652.05 153.56 651.54
  L 153.25 650.52
  A 1.33 1.24 -81.0 0 0 152.83 649.90
  Q 151.73 649.00 150.83 647.92
  Q 150.43 647.43 150.48 646.78
  Q 150.55 645.81 151.37 645.48
  Q 151.74 645.33 151.62 644.95
  Q 151.43 644.36 152.00 644.14
  Q 152.42 643.98 152.68 643.62
  Q 153.82 642.01 154.40 640.33
  Q 154.95 638.71 156.25 637.39
  Q 158.51 635.09 160.66 632.94
  Q 161.13 632.47 160.92 633.10
  Q 160.91 633.15 160.94 633.19
  Q 161.05 633.34 161.22 633.25
  Q 167.70 629.81 167.43 625.85
  Z
  M 147.42 651.16
  Q 147.22 651.20 147.17 651.39
  Q 147.13 651.50 147.19 651.60
  Q 147.67 652.62 148.63 652.86
  A 1.14 1.14 0.0 0 0 149.98 651.35
  Q 149.46 649.97 147.96 650.42
  Q 147.74 650.48 147.64 650.69
  Q 147.62 650.74 147.64 650.79
  Q 147.73 651.10 147.42 651.16
  Z
  M 175.5792 653.4396
  A 1.52 0.41 -1.9 0 0 174.0464 653.0802
  A 1.52 0.41 -1.9 0 0 172.5408 653.5404
  A 1.52 0.41 -1.9 0 0 174.0736 653.8998
  A 1.52 0.41 -1.9 0 0 175.5792 653.4396
  Z"
/>
<path fill="#de3170" d="
  M 503.91 668.52
  Q 504.27 668.47 504.48 668.52
  A 0.30 0.30 0.0 0 1 504.61 669.04
  Q 504.43 669.19 504.29 669.40
  Q 503.88 670.06 504.61 669.79
  Q 505.13 669.60 505.32 670.02
  Q 503.26 671.29 500.74 672.27
  Q 499.60 672.71 498.59 672.52
  Q 497.78 672.37 497.02 672.38
  Q 496.52 672.38 496.11 672.65
  Q 494.05 673.97 491.47 674.24
  Q 490.52 674.33 489.71 674.65
  Q 488.75 675.02 487.67 675.04
  C 485.49 675.08 484.39 676.58 482.45 677.06
  Q 479.37 677.82 476.26 678.68
  Q 474.41 679.19 470.26 679.32
  Q 467.26 679.42 464.11 679.18
  Q 452.45 678.31 441.08 678.58
  Q 436.76 678.68 431.43 678.28
  Q 424.74 677.79 421.75 678.03
  Q 416.74 678.42 411.91 678.79
  Q 406.99 679.16 402.08 679.12
  Q 392.52 679.03 382.87 678.86
  C 379.03 678.78 375.18 679.24 371.34 679.58
  Q 367.88 679.88 364.06 679.58
  Q 360.28 679.29 356.96 678.86
  Q 349.89 677.96 337.80 678.29
  Q 330.82 678.48 322.51 676.13
  Q 322.32 676.07 322.13 676.15
  Q 321.77 676.29 321.41 676.15
  Q 317.77 674.72 314.02 673.44
  C 312.73 672.99 311.39 673.21 310.19 672.56
  Q 309.75 672.32 309.25 672.34
  C 307.36 672.43 305.47 672.49 303.68 673.05
  Q 299.71 674.27 295.78 675.54
  Q 291.80 676.82 288.00 677.31
  Q 281.97 678.09 276.38 677.38
  Q 273.11 676.97 271.26 677.18
  Q 258.94 678.58 246.58 678.59
  C 245.15 678.59 243.92 679.11 242.45 679.12
  Q 235.79 679.17 229.09 679.51
  Q 226.41 679.65 222.44 679.16
  Q 218.94 678.72 215.74 678.63
  Q 215.47 678.63 215.40 678.37
  Q 215.32 678.05 214.99 678.04
  L 194.26 677.22
  Q 193.65 677.19 193.15 676.84
  Q 192.72 676.53 191.99 676.40
  Q 188.03 675.64 182.68 673.76
  Q 181.38 673.30 180.58 672.47
  C 179.88 671.74 178.86 671.61 178.00 670.90
  Q 176.22 669.44 174.36 668.14
  Q 173.80 668.18 173.69 667.65
  Q 173.59 667.15 173.08 667.10
  Q 172.14 667.00 171.31 666.58
  A 1.47 1.47 0.0 0 1 170.66 665.90
  Q 170.40 665.35 169.88 665.23
  Q 167.34 664.66 165.40 665.83
  Q 163.77 666.81 161.97 667.03
  Q 157.44 667.58 153.75 666.31
  A 1.65 1.55 -11.9 0 1 153.22 665.99
  Q 152.65 665.46 151.87 665.57
  Q 150.44 665.76 149.03 666.26
  C 147.27 666.88 145.75 666.38 143.96 666.34
  Q 142.89 666.31 141.99 665.68
  Q 139.76 664.11 137.71 660.92
  Q 136.09 658.41 137.04 656.11
  Q 137.25 655.60 137.79 655.54
  L 140.45 655.24
  Q 140.90 655.19 141.09 654.77
  Q 141.44 654.00 141.31 653.77
  A 2.82 2.82 0.0 0 0 138.40 652.31
  Q 136.61 652.58 135.77 651.40
  L 133.93 650.74
  Q 132.99 650.39 133.99 650.41
  Q 135.67 650.43 137.06 651.39
  Q 137.51 651.70 138.07 651.64
  C 139.73 651.46 142.77 651.48 143.50 653.43
  C 144.02 654.79 143.59 656.00 142.21 656.47
  Q 141.47 656.73 140.83 657.15
  Q 140.49 657.37 140.09 657.48
  Q 138.17 658.00 138.98 659.80
  Q 139.87 661.78 141.96 664.05
  Q 142.83 664.99 144.03 665.19
  Q 145.23 665.38 146.34 664.93
  Q 150.37 663.27 154.32 660.19
  Q 155.52 659.25 156.96 658.61
  Q 158.76 657.80 160.07 656.28
  Q 160.15 656.19 160.26 656.16
  Q 160.42 656.10 160.59 656.13
  Q 160.73 656.15 160.84 656.05
  Q 165.99 651.46 171.22 654.46
  Q 173.27 655.63 175.66 655.63
  Q 177.12 655.63 178.46 656.49
  Q 180.15 657.58 180.83 658.89
  Q 183.70 664.41 187.30 666.63
  Q 187.74 666.90 188.25 666.91
  Q 189.00 666.91 189.66 667.34
  Q 190.09 667.62 190.60 667.72
  Q 196.82 668.96 203.28 669.29
  Q 207.97 669.54 213.60 670.41
  Q 218.71 671.21 223.85 671.82
  Q 224.49 671.90 225.13 671.83
  Q 225.80 671.76 226.48 671.83
  Q 238.58 673.14 251.14 671.50
  Q 251.20 671.22 251.49 671.19
  Q 255.30 670.79 258.89 670.43
  Q 261.39 670.18 264.04 669.52
  Q 266.68 668.86 269.23 668.94
  Q 277.09 669.17 284.50 669.13
  Q 289.12 669.10 293.15 667.13
  Q 298.49 664.51 304.08 661.33
  C 306.24 660.10 307.98 660.77 310.12 661.37
  Q 311.65 661.80 313.06 662.63
  Q 318.71 665.95 325.15 668.37
  Q 325.34 668.44 325.33 668.65
  Q 325.32 668.83 325.50 668.89
  Q 329.54 670.20 332.80 670.35
  Q 336.73 670.53 340.69 669.97
  Q 346.22 669.20 352.83 670.15
  Q 353.53 670.25 354.15 670.59
  Q 354.54 670.81 354.99 670.88
  Q 365.53 672.69 374.94 672.51
  Q 386.73 672.29 397.47 671.77
  Q 399.96 671.65 402.47 671.03
  Q 404.96 670.41 407.75 670.10
  Q 409.74 669.88 411.69 669.31
  C 414.42 668.52 417.74 668.93 420.59 668.88
  Q 423.22 668.83 426.02 669.20
  Q 431.40 669.90 435.76 669.83
  Q 451.23 669.60 469.18 672.26
  Q 474.64 673.07 478.79 671.30
  Q 480.42 670.61 482.46 670.54
  Q 484.75 670.47 486.99 669.85
  Q 488.52 669.43 492.52 669.59
  Q 493.23 669.62 495.97 669.32
  Q 497.47 669.16 499.49 669.36
  Q 501.92 669.60 503.91 668.52
  Z"
/>
<path fill="#97214b" d="
  M 147.64 650.79
  Q 147.62 650.74 147.64 650.69
  Q 147.74 650.48 147.96 650.42
  Q 149.46 649.97 149.98 651.35
  A 1.14 1.14 0.0 0 1 148.63 652.86
  Q 147.67 652.62 147.19 651.60
  Q 147.13 651.50 147.17 651.39
  Q 147.22 651.20 147.42 651.16
  Q 147.73 651.10 147.64 650.79
  Z"
/>
<ellipse fill="#97214b" cx="0.00" cy="0.00" transform="translate(174.06,653.49) rotate(-1.9)" rx="1.52" ry="0.41"/>
</svg>
