<?xml version="1.0" encoding="UTF-8" standalone="no"?>
<!DOCTYPE svg PUBLIC "-//W3C//DTD SVG 1.1//EN" "http://www.w3.org/Graphics/SVG/1.1/DTD/svg11.dtd">
<svg xmlns="http://www.w3.org/2000/svg" version="1.1" viewBox="0.00 0.00 612.00 1080.00">
<g stroke-width="2.00" fill="none" stroke-linecap="butt">
<path stroke="#d3693f" vector-effect="non-scaling-stroke" d="
  M 196.29 468.54
  Q 194.70 468.28 195.42 471.85
  Q 195.70 473.23 196.51 474.92
  Q 197.36 476.68 198.22 478.44
  Q 199.04 480.10 199.58 481.97
  Q 200.44 484.95 201.97 487.47
  Q 206.68 495.25 211.71 499.57
  Q 214.20 501.71 218.01 503.90
  Q 220.96 505.58 224.33 506.29
  Q 229.07 507.29 233.45 507.86
  Q 234.30 507.97 233.44 507.98
  Q 231.27 508.00 228.87 508.02
  Q 228.80 508.03 228.78 508.10
  Q 228.77 508.15 228.80 508.19
  Q 228.86 508.26 228.94 508.26
  Q 234.49 508.20 240.11 508.30
  Q 241.99 508.33 243.65 507.51
  Q 247.51 505.58 252.63 505.57
  Q 253.06 505.57 253.43 505.37
  Q 256.93 503.44 261.62 504.41
  Q 268.66 505.87 276.95 506.18
  Q 278.22 506.22 279.44 505.74
  Q 281.02 505.10 281.96 503.92
  Q 284.17 501.15 286.45 498.49
  Q 288.88 495.66 291.20 492.25
  Q 291.93 491.17 292.19 489.95
  Q 292.47 488.63 293.35 487.61
  Q 293.68 487.22 293.79 486.72
  Q 294.81 481.97 297.27 477.78
  C 298.05 476.44 299.26 475.74 300.32 474.56
  Q 302.11 472.55 305.49 472.27
  Q 305.79 472.25 305.89 471.94
  Q 306.04 471.50 306.50 471.50
  L 314.72 471.50
  A 0.78 0.76 -13.0 0 1 315.41 471.92
  L 316.51 474.08"
/>
<path stroke="#e9b49f" vector-effect="non-scaling-stroke" d="
  M 316.51 474.08
  L 316.48 481.17
  A 0.80 0.80 0.0 0 0 317.27 481.98
  L 322.03 482.08"
/>
<path stroke="#a75433" vector-effect="non-scaling-stroke" d="
  M 322.03 482.08
  L 322.66 482.19
  Q 322.81 482.21 322.95 482.28
  Q 323.25 482.43 323.04 482.71
  A 0.55 0.54 -44.5 0 0 323.03 483.33
  Q 325.17 486.52 324.86 490.39
  Q 324.69 492.49 326.69 492.93
  Q 327.00 493.00 327.17 493.27
  Q 328.12 494.84 329.72 496.04
  A 1.33 1.33 0.0 0 1 330.16 496.65
  Q 330.41 497.39 331.19 497.63
  A 1.37 1.35 -9.7 0 1 331.86 498.10
  C 333.23 499.91 335.10 500.62 336.84 501.93
  Q 342.59 506.26 348.94 505.45
  Q 351.78 505.09 354.57 505.29
  Q 357.72 505.51 360.87 505.24
  Q 371.01 504.40 382.22 503.36
  Q 385.02 503.11 387.67 503.42
  Q 390.56 503.77 394.06 503.06
  Q 394.35 503.00 394.59 502.83
  Q 394.97 502.56 395.45 502.60
  Q 395.98 502.65 396.48 502.47
  Q 398.76 501.64 400.90 501.14
  Q 401.00 501.12 401.07 501.04
  Q 401.18 500.92 401.20 500.74
  Q 401.26 500.32 401.67 500.27
  Q 404.10 499.94 406.18 498.86
  Q 408.04 497.90 410.41 497.78
  Q 412.24 497.69 413.79 497.72
  Q 415.46 497.74 417.33 498.48
  Q 420.68 499.78 422.33 499.54
  Q 428.78 498.59 434.70 498.04
  Q 435.72 497.94 437.40 496.36
  Q 437.82 495.96 437.91 495.40
  Q 438.45 491.88 440.80 488.65
  Q 441.07 488.28 441.09 487.82
  Q 441.36 481.79 441.12 475.56
  Q 441.09 474.66 441.77 474.15
  Q 442.27 473.78 442.39 473.16
  Q 443.05 470.00 443.94 466.54
  Q 444.59 464.02 444.60 461.55
  Q 444.60 458.99 444.94 456.38
  Q 445.51 452.01 445.37 448.25
  Q 445.17 443.12 444.77 437.35
  Q 444.75 437.00 444.22 434.72
  Q 443.90 433.32 443.84 432.01
  Q 443.54 425.63 441.17 415.63
  Q 440.94 414.70 440.46 413.87
  Q 439.92 412.96 439.67 412.01
  Q 439.34 410.72 438.45 409.72
  Q 436.70 407.77 434.80 406.29
  Q 434.41 405.98 433.92 405.96
  Q 432.42 405.90 431.48 404.67
  A 0.91 0.91 0.0 0 0 429.88 404.95
  L 428.75 408.56"
/>
<path stroke="#e9b49f" vector-effect="non-scaling-stroke" d="
  M 428.75 408.56
  L 428.76 390.60
  A 0.57 0.57 0.0 0 0 428.19 390.03
  L 410.53 390.03
  Q 409.81 390.03 409.82 390.75
  L 409.87 421.23"
/>
<path stroke="#a75433" vector-effect="non-scaling-stroke" d="
  M 409.87 421.23
  L 409.17 412.27
  A 1.43 1.40 18.4 0 0 408.66 411.28
  Q 408.05 410.77 407.95 409.99
  Q 407.90 409.50 407.47 409.26
  Q 403.06 406.75 397.91 406.53"
/>
<path stroke="#e9b49f" vector-effect="non-scaling-stroke" d="
  M 397.91 406.53
  L 391.31 391.21
  A 2.00 1.99 -11.7 0 0 389.48 390.01
  L 372.25 390.01
  A 0.57 0.56 -0.0 0 0 371.68 390.57
  L 371.71 404.58"
/>
<path stroke="#a75433" vector-effect="non-scaling-stroke" d="
  M 371.71 404.58
  Q 369.72 403.13 365.75 404.04"
/>
<path stroke="#e9b49f" vector-effect="non-scaling-stroke" d="
  M 365.75 404.04
  L 365.74 392.01
  Q 365.74 391.03 364.77 391.03
  L 317.27 391.02
  Q 316.76 391.02 316.76 391.52
  L 316.71 408.75"
/>
<path stroke="#a75433" vector-effect="non-scaling-stroke" d="
  M 316.71 408.75
  Q 312.51 406.80 310.78 408.88"
/>
<path stroke="#e9b49f" vector-effect="non-scaling-stroke" d="
  M 310.78 408.88
  L 310.68 407.11
  Q 310.65 406.57 310.27 406.19
  L 295.93 392.10
  A 3.81 3.79 67.1 0 0 293.27 391.01
  L 255.53 391.02
  A 0.29 0.29 0.0 0 0 255.24 391.31
  L 255.22 409.07"
/>
<path stroke="#a75433" vector-effect="non-scaling-stroke" d="
  M 255.22 409.07
  L 249.34 408.51"
/>
<path stroke="#e9b49f" vector-effect="non-scaling-stroke" d="
  M 249.34 408.51
  C 249.37 407.24 249.34 406.13 248.37 405.18
  Q 241.44 398.41 234.56 391.22
  Q 233.38 390.00 231.69 390.00
  L 210.55 390.02
  A 1.91 1.91 0.0 0 0 209.20 390.58
  L 194.52 405.34
  A 2.98 2.96 -23.1 0 0 193.66 407.45
  Q 193.86 428.68 193.66 450.56
  Q 193.60 456.98 193.74 463.68
  Q 193.77 465.14 194.48 466.32
  Q 195.27 467.63 196.29 468.54"
/>
<path stroke="#bd9f93" vector-effect="non-scaling-stroke" d="
  M 249.34 408.51
  L 249.58 464.75
  A 2.40 2.36 67.6 0 1 248.90 466.42
  L 234.45 481.05
  Q 233.51 482.00 232.17 482.00
  L 211.58 481.98
  A 4.42 4.41 -22.6 0 1 208.47 480.70
  L 200.79 473.05"
/>
<path stroke="#e9b49f" vector-effect="non-scaling-stroke" d="
  M 200.79 473.05
  L 196.29 468.54"
/>
<path stroke="#a75433" vector-effect="non-scaling-stroke" d="
  M 316.74 462.22
  Q 316.10 462.06 315.66 462.82
  Q 315.31 463.43 314.64 463.66
  Q 313.88 463.91 313.82 464.68
  Q 313.80 464.89 313.60 464.83
  Q 311.46 464.13 308.42 465.16
  C 307.63 465.43 307.02 466.21 306.29 466.15
  Q 305.50 466.09 304.72 466.36
  Q 300.34 467.90 298.39 469.40
  Q 297.25 470.28 294.79 472.97
  Q 292.83 475.12 291.81 477.02
  Q 290.41 479.65 290.04 483.04
  Q 289.93 484.11 289.54 485.12
  Q 287.62 490.03 284.70 495.10
  Q 283.72 496.81 282.21 497.79
  Q 280.52 498.89 278.96 499.89
  Q 278.15 500.41 277.11 500.43
  C 275.57 500.46 274.49 500.72 272.88 500.48
  Q 268.64 499.86 264.48 498.72
  Q 261.66 497.95 260.01 498.03
  Q 258.29 498.11 256.49 498.50
  Q 254.84 498.85 253.06 499.45
  Q 248.44 501.01 244.01 502.66
  Q 242.29 503.30 233.37 503.87
  Q 229.55 504.11 226.42 502.96
  Q 222.35 501.47 218.66 499.28
  Q 217.98 498.87 217.26 498.71
  Q 216.83 498.61 216.52 498.31
  L 210.94 492.86
  Q 210.44 492.37 210.31 491.69
  Q 210.20 491.12 209.79 490.71
  Q 208.03 488.95 206.37 487.34
  Q 204.66 485.69 203.61 483.13
  Q 201.68 478.41 200.79 473.05"
/>
<path stroke="#bd9f93" vector-effect="non-scaling-stroke" d="
  M 365.75 404.04
  L 365.69 408.53
  Q 365.68 409.01 365.21 409.01
  L 336.50 409.01
  A 0.75 0.74 0.0 0 0 335.75 409.75
  L 335.74 426.75
  A 0.26 0.26 0.0 0 0 336.00 427.01
  L 359.50 426.98
  A 0.27 0.26 90.0 0 1 359.76 427.25
  L 359.75 444.38
  A 0.64 0.63 90.0 0 1 359.12 445.02
  L 336.25 444.97
  A 0.53 0.53 0.0 0 0 335.71 445.50
  L 335.73 463.50
  Q 335.73 464.02 336.25 464.02
  L 365.09 463.96
  A 0.89 0.88 0.3 0 1 365.98 464.85
  L 365.81 481.42
  A 0.66 0.66 0.0 0 1 365.15 482.07
  L 322.03 482.08"
/>
<path stroke="#e9b49f" vector-effect="non-scaling-stroke" d="
  M 316.51 474.08
  L 316.74 462.22"
/>
<path stroke="#bd9f93" vector-effect="non-scaling-stroke" d="
  M 316.74 462.22
  L 316.71 408.75"
/>
<path stroke="#bd9f93" vector-effect="non-scaling-stroke" d="
  M 310.78 408.88
  L 310.75 428.61
  Q 310.75 429.37 310.21 429.90
  L 295.73 444.19
  A 2.78 2.76 22.4 0 1 293.77 445.00
  L 274.79 444.99
  A 0.47 0.46 90.0 0 0 274.33 445.46
  L 274.34 481.24
  A 0.68 0.67 -1.8 0 1 273.70 481.91
  Q 264.70 482.44 255.98 481.97
  Q 255.21 481.92 255.21 481.16
  L 255.22 409.07"
/>
<path stroke="#bd9f93" vector-effect="non-scaling-stroke" d="
  M 397.91 406.53
  L 409.26 432.33
  A 0.37 0.37 0.0 0 0 409.97 432.18
  L 409.87 421.23"
/>
<path stroke="#bd9f93" vector-effect="non-scaling-stroke" d="
  M 428.75 408.56
  L 428.51 480.75
  A 1.10 1.10 0.0 0 1 427.42 481.85
  L 410.64 482.03
  A 1.26 1.25 -11.9 0 1 409.47 481.27
  L 391.38 439.10
  Q 390.72 437.57 390.72 439.23
  L 390.76 481.23
  A 0.75 0.74 90.0 0 1 390.02 481.98
  L 372.27 482.05
  A 0.63 0.63 0.0 0 1 371.64 481.42
  L 371.71 404.58"
/>
<path stroke="#a75433" vector-effect="non-scaling-stroke" d="
  M 244.64 527.73
  Q 241.92 527.22 238.83 527.64"
/>
<path stroke="#e9b49f" vector-effect="non-scaling-stroke" d="
  M 238.83 527.64
  L 238.90 514.94
  A 0.91 0.91 0.0 0 0 237.99 514.02
  L 220.74 514.00
  A 1.54 1.53 -74.2 0 0 219.43 514.74
  L 206.69 535.96
  A 0.37 0.36 44.7 0 1 206.06 535.96
  L 193.48 515.17
  A 2.43 2.41 74.1 0 0 191.42 514.01
  L 174.23 514.00
  A 0.52 0.51 90.0 0 0 173.72 514.52
  L 173.75 604.77
  Q 173.75 606.00 174.98 606.10
  Q 184.90 606.94 192.80 605.31"
/>
<path stroke="#a75433" vector-effect="non-scaling-stroke" d="
  M 192.80 605.31
  Q 193.14 605.45 193.13 606.82
  Q 193.13 607.32 192.83 607.72
  C 191.98 608.87 191.45 610.27 191.77 611.71
  Q 192.16 613.45 191.48 615.14
  Q 191.01 616.31 191.13 617.70
  Q 191.16 618.10 190.99 617.74
  Q 190.95 617.66 190.96 617.58
  Q 191.05 617.04 190.98 616.58
  Q 190.92 616.15 190.84 616.58
  C 190.53 618.27 191.01 619.64 190.46 621.47
  A 1.07 1.07 0.0 0 0 191.40 622.84
  C 193.62 623.01 197.03 622.63 198.19 620.40
  Q 198.43 619.94 198.83 619.61
  Q 201.49 617.42 202.75 614.47
  Q 202.94 614.04 203.33 613.79
  Q 203.91 613.43 204.33 612.87
  Q 206.30 610.27 210.02 610.58
  Q 212.50 610.79 214.92 610.89
  A 0.85 0.85 0.0 0 0 215.76 610.32
  Q 215.94 609.81 215.94 609.21
  Q 215.95 608.69 215.59 608.31
  L 214.10 606.71
  Q 213.73 606.33 214.26 606.42
  Q 214.83 606.52 215.25 606.93
  Q 215.83 607.50 215.61 606.72
  Q 215.32 605.63 214.17 605.13
  A 2.04 2.03 -73.6 0 1 212.98 602.93
  Q 213.44 600.04 216.44 598.81
  Q 218.61 597.92 218.58 595.46
  A 0.23 0.23 0.0 0 1 218.92 595.26
  Q 219.32 595.48 219.09 595.88
  Q 219.96 580.71 219.81 565.53"
/>
<path stroke="#e9b49f" vector-effect="non-scaling-stroke" d="
  M 219.81 565.53
  L 219.61 605.78
  A 0.78 0.78 0.0 0 0 220.42 606.56
  L 226.45 606.32"
/>
<path stroke="#a75433" vector-effect="non-scaling-stroke" d="
  M 226.45 606.32
  Q 224.74 608.85 226.97 614.77
  Q 227.28 615.60 228.61 616.47
  Q 229.00 616.72 229.11 617.17
  Q 229.48 618.72 230.61 619.75
  A 1.44 1.41 13.8 0 1 231.05 620.46
  Q 231.78 623.07 234.73 623.06
  Q 237.93 623.04 240.65 623.59
  Q 241.76 623.82 242.86 623.91
  Q 244.00 624.01 245.15 624.08
  Q 246.62 624.18 248.38 623.81
  Q 252.48 622.95 256.53 622.47
  A 1.71 1.68 -34.1 0 1 257.51 622.65
  Q 258.17 623.00 258.94 622.92
  Q 259.74 622.84 260.60 622.98
  Q 263.91 623.51 267.44 624.81
  Q 275.18 627.65 281.55 628.23
  Q 286.12 628.65 293.20 627.29
  Q 294.91 626.96 296.67 626.08
  Q 298.29 625.27 299.94 624.57
  Q 301.94 623.71 304.74 621.77
  Q 307.00 620.20 310.17 618.93
  Q 312.94 617.82 316.00 617.87
  Q 321.47 617.95 323.88 619.06
  Q 327.15 620.56 330.38 623.20
  Q 333.64 625.87 337.74 627.30
  Q 343.72 629.38 351.67 628.41
  Q 353.48 628.19 355.36 627.50
  Q 357.12 626.86 359.13 626.23
  Q 361.73 625.43 364.71 624.24
  Q 370.48 621.95 377.10 623.34
  Q 381.02 624.17 384.65 625.00
  Q 387.93 625.75 391.27 625.60
  Q 395.13 625.44 398.39 624.32
  Q 402.03 623.08 404.93 622.86
  Q 407.30 622.68 410.14 623.14
  Q 412.39 623.49 414.71 624.27
  Q 417.67 625.25 420.61 626.28
  Q 421.52 626.61 422.46 626.68
  C 424.15 626.81 425.42 626.95 427.12 626.70
  Q 430.77 626.17 434.33 626.01
  Q 436.43 625.92 438.23 625.17
  Q 440.31 624.31 442.86 624.66
  A 1.90 1.84 33.7 0 0 444.00 624.45
  C 445.16 623.84 446.38 623.41 447.39 622.55
  Q 451.36 619.15 454.83 615.12
  Q 455.78 614.01 456.43 612.57
  Q 457.07 611.15 457.68 609.84
  Q 461.55 601.58 457.37 593.38
  Q 454.78 588.30 449.64 591.21
  Q 449.26 591.42 448.83 591.40
  Q 448.46 591.39 448.09 591.51
  Q 446.99 591.88 447.75 591.00
  L 448.63 590.00
  Q 449.02 589.56 449.60 589.66
  Q 450.38 589.80 450.96 589.31
  A 1.27 1.27 0.0 0 1 452.10 589.04
  Q 452.81 589.22 453.53 589.10
  A 0.71 0.70 -9.3 0 1 454.35 589.68
  Q 454.41 590.10 454.76 589.99
  A 0.44 0.44 0.0 0 0 454.83 589.19
  Q 452.63 588.00 450.02 588.41
  Q 449.52 588.48 449.21 588.87
  Q 448.26 590.04 447.98 589.33"
/>
<path stroke="#e9b49f" vector-effect="non-scaling-stroke" d="
  M 447.98 589.33
  Q 448.82 582.75 448.24 576.30
  Q 448.12 574.99 446.80 574.99
  L 433.92 574.98"
/>
<path stroke="#a75433" vector-effect="non-scaling-stroke" d="
  M 433.92 574.98
  Q 434.03 574.02 432.91 571.92
  Q 432.68 571.48 432.93 571.04
  Q 434.10 568.97 436.40 568.35
  Q 436.89 568.22 436.88 567.71
  Q 436.86 567.10 437.48 567.11
  Q 441.24 567.17 443.98 565.54
  Q 444.63 565.16 445.23 564.59
  C 446.09 563.79 447.33 563.34 448.48 563.88
  Q 449.93 564.55 451.53 564.97
  Q 451.92 565.07 452.20 565.35
  Q 452.68 565.82 453.34 565.59
  Q 454.59 565.15 454.85 563.99
  A 1.52 1.47 79.4 0 1 455.42 563.13
  Q 458.60 560.80 458.86 556.96
  Q 459.17 552.44 460.25 547.94
  A 2.33 2.32 -74.1 0 0 458.73 545.19
  Q 456.52 544.46 454.27 542.89
  Q 453.91 542.64 453.88 542.19
  Q 453.75 539.51 453.42 536.79
  C 453.25 535.42 452.11 534.36 451.38 533.22
  Q 451.07 532.73 450.56 532.99
  Q 450.27 533.13 450.10 532.86
  Q 449.77 532.35 449.33 532.78
  Q 448.69 533.40 448.81 534.50
  Q 449.00 536.32 448.64 540.30"
/>
<path stroke="#e9b49f" vector-effect="non-scaling-stroke" d="
  M 448.64 540.30
  Q 448.68 533.70 447.82 530.99
  Q 447.22 529.14 446.05 527.90
  Q 440.23 521.72 433.72 515.48
  A 5.18 5.16 66.6 0 0 430.13 514.05
  Q 420.65 514.12 410.74 514.12
  Q 408.59 514.12 406.74 515.98
  Q 399.87 522.89 393.31 529.38
  A 2.67 2.64 -22.5 0 0 392.53 531.23
  L 392.47 537.47"
/>
<path stroke="#a75433" vector-effect="non-scaling-stroke" d="
  M 392.47 537.47
  Q 391.92 536.63 392.04 536.01
  Q 392.33 534.52 391.13 535.44
  Q 390.22 536.14 389.19 536.41
  C 387.20 536.93 386.67 538.81 386.74 540.71"
/>
<path stroke="#e9b49f" vector-effect="non-scaling-stroke" d="
  M 386.74 540.71
  L 386.71 515.09
  A 1.00 1.00 0.0 0 0 385.72 514.09
  L 368.53 513.99
  A 0.89 0.89 0.0 0 0 367.64 514.88
  L 367.66 535.56"
/>
<path stroke="#a75433" vector-effect="non-scaling-stroke" d="
  M 367.66 535.56
  Q 367.00 534.72 364.21 535.25
  Q 363.36 535.41 363.37 534.54
  Q 363.37 534.34 363.29 534.15
  Q 363.18 533.89 362.93 533.74
  Q 362.68 533.59 362.44 533.63
  Q 361.93 533.72 361.91 534.24
  L 361.82 537.21"
/>
<path stroke="#e9b49f" vector-effect="non-scaling-stroke" d="
  M 361.82 537.21
  L 361.66 530.83
  A 2.27 2.26 -68.0 0 0 361.01 529.29
  Q 354.07 522.15 347.24 515.43
  Q 345.82 514.04 343.86 514.03
  Q 334.01 514.00 324.12 514.02
  Q 322.29 514.02 321.11 515.11
  Q 313.94 521.78 305.93 531.19"
/>
<path stroke="#a75433" vector-effect="non-scaling-stroke" d="
  M 305.93 531.19
  L 301.60 531.07
  Q 301.05 531.05 301.00 531.60
  L 300.34 538.76"
/>
<path stroke="#e9b49f" vector-effect="non-scaling-stroke" d="
  M 300.34 538.76
  L 300.34 514.42
  A 0.43 0.43 0.0 0 0 299.91 513.99
  L 282.52 513.93
  A 1.04 1.04 0.0 0 0 281.48 514.97
  L 281.36 563.22"
/>
<path stroke="#a75433" vector-effect="non-scaling-stroke" d="
  M 281.36 563.22
  Q 281.16 549.35 281.20 535.50
  Q 281.20 534.76 280.75 533.05
  Q 280.57 532.36 280.17 532.95
  Q 280.09 533.07 279.99 533.15
  Q 279.55 533.50 279.11 533.16
  Q 277.71 532.06 276.25 531.01
  Q 274.94 530.07 273.25 529.49
  Q 270.46 528.52 268.05 527.29
  Q 267.25 526.88 266.28 526.88
  Q 265.59 526.88 265.02 526.49
  Q 264.43 526.10 264.24 526.78
  Q 264.04 527.46 263.76 527.81"
/>
<path stroke="#e9b49f" vector-effect="non-scaling-stroke" d="
  M 263.76 527.81
  L 263.76 515.17
  Q 263.76 513.84 262.43 513.86
  L 245.23 514.07
  A 0.59 0.59 0.0 0 0 244.64 514.66
  L 244.64 527.73"
/>
<path stroke="#bd9f93" vector-effect="non-scaling-stroke" d="
  M 263.76 527.81
  L 263.75 581.37
  Q 263.75 582.10 264.27 582.62
  L 268.19 586.55
  Q 268.87 587.22 269.82 587.22
  L 275.41 587.20
  Q 276.14 587.20 276.66 586.68
  L 280.89 582.46
  A 1.50 1.50 0.0 0 0 281.33 581.40
  L 281.36 563.22"
/>
<path stroke="#bd9f93" vector-effect="non-scaling-stroke" d="
  M 300.34 538.76
  L 300.39 588.72
  A 2.60 2.59 67.5 0 1 299.62 590.59
  L 285.05 605.27
  A 2.49 2.49 0.0 0 1 283.29 606.00
  L 262.33 605.99
  A 3.65 3.64 67.4 0 1 259.75 604.92
  L 245.18 590.30
  A 1.74 1.73 -67.8 0 1 244.66 589.06
  L 244.64 527.73"
/>
<path stroke="#bd9f93" vector-effect="non-scaling-stroke" d="
  M 238.83 527.64
  L 238.94 605.18
  A 0.83 0.83 0.0 0 1 238.13 606.01
  L 226.45 606.32"
/>
<path stroke="#bd9f93" vector-effect="non-scaling-stroke" d="
  M 219.81 565.53
  L 219.81 551.45
  Q 219.81 550.63 219.39 551.34
  Q 215.02 558.69 210.97 565.68
  Q 210.43 566.61 209.71 567.40
  Q 209.39 567.75 208.92 567.75
  L 203.89 567.75
  Q 203.08 567.75 202.66 567.06
  L 193.30 551.45
  Q 192.81 550.63 192.81 551.58
  L 192.80 605.31"
/>
<path stroke="#bd9f93" vector-effect="non-scaling-stroke" d="
  M 386.74 540.71
  L 386.78 605.18
  A 0.81 0.81 0.0 0 1 385.97 605.99
  L 368.24 606.01
  A 0.56 0.56 0.0 0 1 367.68 605.45
  L 367.66 535.56"
/>
<path stroke="#bd9f93" vector-effect="non-scaling-stroke" d="
  M 448.64 540.30
  L 448.20 544.07
  A 0.99 0.99 0.0 0 1 447.23 544.95
  L 429.68 544.99
  A 0.40 0.39 88.6 0 1 429.28 544.60
  L 429.24 538.99
  Q 429.24 538.17 428.68 537.56
  Q 427.28 536.03 425.58 534.26
  C 423.57 532.18 420.82 532.75 418.26 532.83
  C 415.91 532.89 413.60 535.77 412.18 537.37
  C 411.64 537.98 411.60 539.06 411.60 539.83
  Q 411.55 561.18 411.59 581.55
  A 1.76 1.71 23.4 0 0 412.09 582.76
  L 416.31 586.99
  Q 416.71 587.40 417.29 587.40
  L 423.20 587.42
  Q 423.98 587.42 424.53 586.86
  L 428.76 582.56
  A 1.56 1.53 -23.1 0 0 429.19 581.52
  L 429.23 576.00
  A 1.01 1.01 0.0 0 1 430.24 574.99
  L 433.92 574.98"
/>
<path stroke="#bd9f93" vector-effect="non-scaling-stroke" d="
  M 447.98 589.33
  Q 447.48 590.68 447.20 590.97
  Q 439.91 598.27 432.66 605.38
  A 2.09 2.07 -67.1 0 1 431.20 605.98
  L 410.05 605.99
  A 3.92 3.91 67.6 0 1 407.27 604.83
  L 392.93 590.33
  A 1.58 1.57 23.0 0 1 392.48 589.23
  L 392.47 537.47"
/>
<path stroke="#bd9f93" vector-effect="non-scaling-stroke" d="
  M 361.82 537.21
  L 361.82 544.44
  A 0.56 0.56 0.0 0 1 361.26 545.00
  L 343.92 544.98
  Q 342.99 544.98 342.97 544.05
  L 342.85 538.40
  Q 342.84 537.88 342.47 537.51
  L 338.23 533.33
  A 1.56 1.54 69.1 0 0 337.31 532.91
  Q 334.83 532.69 332.02 532.77
  C 329.32 532.86 327.60 535.48 325.89 537.22
  Q 325.38 537.73 325.37 538.46
  L 325.27 544.68
  Q 325.26 545.31 325.69 545.75
  L 330.14 550.31
  A 1.36 1.35 67.7 0 0 331.11 550.72
  L 344.44 550.69
  A 3.01 2.96 67.2 0 1 346.55 551.57
  L 361.34 566.30
  A 1.79 1.78 -67.3 0 1 361.85 567.55
  L 361.71 589.13
  Q 361.71 590.06 361.05 590.73
  L 346.48 605.41
  A 1.98 1.97 22.2 0 1 345.07 606.00
  L 324.35 605.99
  A 5.12 5.11 -22.4 0 1 320.72 604.48
  L 306.83 590.59
  A 1.96 1.94 -67.6 0 1 306.26 589.21
  L 306.25 575.50
  A 0.50 0.50 0.0 0 1 306.75 575.00
  L 324.68 574.99
  Q 325.36 574.99 325.37 575.66
  L 325.45 581.73
  Q 325.45 582.26 325.83 582.64
  L 329.81 586.72
  A 1.60 1.56 67.3 0 0 330.94 587.20
  L 336.96 587.19
  Q 337.72 587.19 338.25 586.66
  L 342.37 582.53
  Q 342.81 582.09 342.82 581.46
  L 342.86 575.27
  A 1.57 1.56 -67.9 0 0 342.39 574.15
  L 338.41 570.20
  A 3.23 3.22 -23.0 0 0 336.13 569.28
  L 323.79 569.35
  A 3.32 3.27 67.0 0 1 321.44 568.38
  L 307.09 553.96
  Q 306.29 553.16 306.27 552.03
  L 305.93 531.19"
/>
<path stroke="#bd9f93" vector-effect="non-scaling-stroke" d="
  M 230.48 417.20
  A 8.44 8.44 0.0 0 0 222.04 408.76
  L 221.06 408.76
  A 8.44 8.44 0.0 0 0 212.62 417.20
  L 212.62 454.80
  A 8.44 8.44 0.0 0 0 221.06 463.24
  L 222.04 463.24
  A 8.44 8.44 0.0 0 0 230.48 454.80
  L 230.48 417.20"
/>
<path stroke="#bd9f93" vector-effect="non-scaling-stroke" d="
  M 274.35 409.37
  L 274.31 426.61
  A 0.41 0.41 0.0 0 0 274.72 427.03
  L 283.18 427.04
  A 8.71 8.69 0.1 0 0 291.91 418.37
  L 291.91 417.69
  A 8.71 8.69 0.1 0 0 283.22 408.98
  L 274.76 408.97
  A 0.41 0.41 0.0 0 0 274.35 409.37"
/>
</g>
<path fill="#d3693f" d="
  M 0.00 0.00
  L 612.00 0.00
  L 612.00 1080.00
  L 0.00 1080.00
  L 0.00 0.00
  Z
  M 196.29 468.54
  Q 194.70 468.28 195.42 471.85
  Q 195.70 473.23 196.51 474.92
  Q 197.36 476.68 198.22 478.44
  Q 199.04 480.10 199.58 481.97
  Q 200.44 484.95 201.97 487.47
  Q 206.68 495.25 211.71 499.57
  Q 214.20 501.71 218.01 503.90
  Q 220.96 505.58 224.33 506.29
  Q 229.07 507.29 233.45 507.86
  Q 234.30 507.97 233.44 507.98
  Q 231.27 508.00 228.87 508.02
  Q 228.80 508.03 228.78 508.10
  Q 228.77 508.15 228.80 508.19
  Q 228.86 508.26 228.94 508.26
  Q 234.49 508.20 240.11 508.30
  Q 241.99 508.33 243.65 507.51
  Q 247.51 505.58 252.63 505.57
  Q 253.06 505.57 253.43 505.37
  Q 256.93 503.44 261.62 504.41
  Q 268.66 505.87 276.95 506.18
  Q 278.22 506.22 279.44 505.74
  Q 281.02 505.10 281.96 503.92
  Q 284.17 501.15 286.45 498.49
  Q 288.88 495.66 291.20 492.25
  Q 291.93 491.17 292.19 489.95
  Q 292.47 488.63 293.35 487.61
  Q 293.68 487.22 293.79 486.72
  Q 294.81 481.97 297.27 477.78
  C 298.05 476.44 299.26 475.74 300.32 474.56
  Q 302.11 472.55 305.49 472.27
  Q 305.79 472.25 305.89 471.94
  Q 306.04 471.50 306.50 471.50
  L 314.72 471.50
  A 0.78 0.76 -13.0 0 1 315.41 471.92
  L 316.51 474.08
  L 316.48 481.17
  A 0.80 0.80 0.0 0 0 317.27 481.98
  L 322.03 482.08
  L 322.66 482.19
  Q 322.81 482.21 322.95 482.28
  Q 323.25 482.43 323.04 482.71
  A 0.55 0.54 -44.5 0 0 323.03 483.33
  Q 325.17 486.52 324.86 490.39
  Q 324.69 492.49 326.69 492.93
  Q 327.00 493.00 327.17 493.27
  Q 328.12 494.84 329.72 496.04
  A 1.33 1.33 0.0 0 1 330.16 496.65
  Q 330.41 497.39 331.19 497.63
  A 1.37 1.35 -9.7 0 1 331.86 498.10
  C 333.23 499.91 335.10 500.62 336.84 501.93
  Q 342.59 506.26 348.94 505.45
  Q 351.78 505.09 354.57 505.29
  Q 357.72 505.51 360.87 505.24
  Q 371.01 504.40 382.22 503.36
  Q 385.02 503.11 387.67 503.42
  Q 390.56 503.77 394.06 503.06
  Q 394.35 503.00 394.59 502.83
  Q 394.97 502.56 395.45 502.60
  Q 395.98 502.65 396.48 502.47
  Q 398.76 501.64 400.90 501.14
  Q 401.00 501.12 401.07 501.04
  Q 401.18 500.92 401.20 500.74
  Q 401.26 500.32 401.67 500.27
  Q 404.10 499.94 406.18 498.86
  Q 408.04 497.90 410.41 497.78
  Q 412.24 497.69 413.79 497.72
  Q 415.46 497.74 417.33 498.48
  Q 420.68 499.78 422.33 499.54
  Q 428.78 498.59 434.70 498.04
  Q 435.72 497.94 437.40 496.36
  Q 437.82 495.96 437.91 495.40
  Q 438.45 491.88 440.80 488.65
  Q 441.07 488.28 441.09 487.82
  Q 441.36 481.79 441.12 475.56
  Q 441.09 474.66 441.77 474.15
  Q 442.27 473.78 442.39 473.16
  Q 443.05 470.00 443.94 466.54
  Q 444.59 464.02 444.60 461.55
  Q 444.60 458.99 444.94 456.38
  Q 445.51 452.01 445.37 448.25
  Q 445.17 443.12 444.77 437.35
  Q 444.75 437.00 444.22 434.72
  Q 443.90 433.32 443.84 432.01
  Q 443.54 425.63 441.17 415.63
  Q 440.94 414.70 440.46 413.87
  Q 439.92 412.96 439.67 412.01
  Q 439.34 410.72 438.45 409.72
  Q 436.70 407.77 434.80 406.29
  Q 434.41 405.98 433.92 405.96
  Q 432.42 405.90 431.48 404.67
  A 0.91 0.91 0.0 0 0 429.88 404.95
  L 428.75 408.56
  L 428.76 390.60
  A 0.57 0.57 0.0 0 0 428.19 390.03
  L 410.53 390.03
  Q 409.81 390.03 409.82 390.75
  L 409.87 421.23
  L 409.17 412.27
  A 1.43 1.40 18.4 0 0 408.66 411.28
  Q 408.05 410.77 407.95 409.99
  Q 407.90 409.50 407.47 409.26
  Q 403.06 406.75 397.91 406.53
  L 391.31 391.21
  A 2.00 1.99 -11.7 0 0 389.48 390.01
  L 372.25 390.01
  A 0.57 0.56 -0.0 0 0 371.68 390.57
  L 371.71 404.58
  Q 369.72 403.13 365.75 404.04
  L 365.74 392.01
  Q 365.74 391.03 364.77 391.03
  L 317.27 391.02
  Q 316.76 391.02 316.76 391.52
  L 316.71 408.75
  Q 312.51 406.80 310.78 408.88
  L 310.68 407.11
  Q 310.65 406.57 310.27 406.19
  L 295.93 392.10
  A 3.81 3.79 67.1 0 0 293.27 391.01
  L 255.53 391.02
  A 0.29 0.29 0.0 0 0 255.24 391.31
  L 255.22 409.07
  L 249.34 408.51
  C 249.37 407.24 249.34 406.13 248.37 405.18
  Q 241.44 398.41 234.56 391.22
  Q 233.38 390.00 231.69 390.00
  L 210.55 390.02
  A 1.91 1.91 0.0 0 0 209.20 390.58
  L 194.52 405.34
  A 2.98 2.96 -23.1 0 0 193.66 407.45
  Q 193.86 428.68 193.66 450.56
  Q 193.60 456.98 193.74 463.68
  Q 193.77 465.14 194.48 466.32
  Q 195.27 467.63 196.29 468.54
  Z
  M 244.64 527.73
  Q 241.92 527.22 238.83 527.64
  L 238.90 514.94
  A 0.91 0.91 0.0 0 0 237.99 514.02
  L 220.74 514.00
  A 1.54 1.53 -74.2 0 0 219.43 514.74
  L 206.69 535.96
  A 0.37 0.36 44.7 0 1 206.06 535.96
  L 193.48 515.17
  A 2.43 2.41 74.1 0 0 191.42 514.01
  L 174.23 514.00
  A 0.52 0.51 90.0 0 0 173.72 514.52
  L 173.75 604.77
  Q 173.75 606.00 174.98 606.10
  Q 184.90 606.94 192.80 605.31
  Q 193.14 605.45 193.13 606.82
  Q 193.13 607.32 192.83 607.72
  C 191.98 608.87 191.45 610.27 191.77 611.71
  Q 192.16 613.45 191.48 615.14
  Q 191.01 616.31 191.13 617.70
  Q 191.16 618.10 190.99 617.74
  Q 190.95 617.66 190.96 617.58
  Q 191.05 617.04 190.98 616.58
  Q 190.92 616.15 190.84 616.58
  C 190.53 618.27 191.01 619.64 190.46 621.47
  A 1.07 1.07 0.0 0 0 191.40 622.84
  C 193.62 623.01 197.03 622.63 198.19 620.40
  Q 198.43 619.94 198.83 619.61
  Q 201.49 617.42 202.75 614.47
  Q 202.94 614.04 203.33 613.79
  Q 203.91 613.43 204.33 612.87
  Q 206.30 610.27 210.02 610.58
  Q 212.50 610.79 214.92 610.89
  A 0.85 0.85 0.0 0 0 215.76 610.32
  Q 215.94 609.81 215.94 609.21
  Q 215.95 608.69 215.59 608.31
  L 214.10 606.71
  Q 213.73 606.33 214.26 606.42
  Q 214.83 606.52 215.25 606.93
  Q 215.83 607.50 215.61 606.72
  Q 215.32 605.63 214.17 605.13
  A 2.04 2.03 -73.6 0 1 212.98 602.93
  Q 213.44 600.04 216.44 598.81
  Q 218.61 597.92 218.58 595.46
  A 0.23 0.23 0.0 0 1 218.92 595.26
  Q 219.32 595.48 219.09 595.88
  Q 219.96 580.71 219.81 565.53
  L 219.61 605.78
  A 0.78 0.78 0.0 0 0 220.42 606.56
  L 226.45 606.32
  Q 224.74 608.85 226.97 614.77
  Q 227.28 615.60 228.61 616.47
  Q 229.00 616.72 229.11 617.17
  Q 229.48 618.72 230.61 619.75
  A 1.44 1.41 13.8 0 1 231.05 620.46
  Q 231.78 623.07 234.73 623.06
  Q 237.93 623.04 240.65 623.59
  Q 241.76 623.82 242.86 623.91
  Q 244.00 624.01 245.15 624.08
  Q 246.62 624.18 248.38 623.81
  Q 252.48 622.95 256.53 622.47
  A 1.71 1.68 -34.1 0 1 257.51 622.65
  Q 258.17 623.00 258.94 622.92
  Q 259.74 622.84 260.60 622.98
  Q 263.91 623.51 267.44 624.81
  Q 275.18 627.65 281.55 628.23
  Q 286.12 628.65 293.20 627.29
  Q 294.91 626.96 296.67 626.08
  Q 298.29 625.27 299.94 624.57
  Q 301.94 623.71 304.74 621.77
  Q 307.00 620.20 310.17 618.93
  Q 312.94 617.82 316.00 617.87
  Q 321.47 617.95 323.88 619.06
  Q 327.15 620.56 330.38 623.20
  Q 333.64 625.87 337.74 627.30
  Q 343.72 629.38 351.67 628.41
  Q 353.48 628.19 355.36 627.50
  Q 357.12 626.86 359.13 626.23
  Q 361.73 625.43 364.71 624.24
  Q 370.48 621.95 377.10 623.34
  Q 381.02 624.17 384.65 625.00
  Q 387.93 625.75 391.27 625.60
  Q 395.13 625.44 398.39 624.32
  Q 402.03 623.08 404.93 622.86
  Q 407.30 622.68 410.14 623.14
  Q 412.39 623.49 414.71 624.27
  Q 417.67 625.25 420.61 626.28
  Q 421.52 626.61 422.46 626.68
  C 424.15 626.81 425.42 626.95 427.12 626.70
  Q 430.77 626.17 434.33 626.01
  Q 436.43 625.92 438.23 625.17
  Q 440.31 624.31 442.86 624.66
  A 1.90 1.84 33.7 0 0 444.00 624.45
  C 445.16 623.84 446.38 623.41 447.39 622.55
  Q 451.36 619.15 454.83 615.12
  Q 455.78 614.01 456.43 612.57
  Q 457.07 611.15 457.68 609.84
  Q 461.55 601.58 457.37 593.38
  Q 454.78 588.30 449.64 591.21
  Q 449.26 591.42 448.83 591.40
  Q 448.46 591.39 448.09 591.51
  Q 446.99 591.88 447.75 591.00
  L 448.63 590.00
  Q 449.02 589.56 449.60 589.66
  Q 450.38 589.80 450.96 589.31
  A 1.27 1.27 0.0 0 1 452.10 589.04
  Q 452.81 589.22 453.53 589.10
  A 0.71 0.70 -9.3 0 1 454.35 589.68
  Q 454.41 590.10 454.76 589.99
  A 0.44 0.44 0.0 0 0 454.83 589.19
  Q 452.63 588.00 450.02 588.41
  Q 449.52 588.48 449.21 588.87
  Q 448.26 590.04 447.98 589.33
  Q 448.82 582.75 448.24 576.30
  Q 448.12 574.99 446.80 574.99
  L 433.92 574.98
  Q 434.03 574.02 432.91 571.92
  Q 432.68 571.48 432.93 571.04
  Q 434.10 568.97 436.40 568.35
  Q 436.89 568.22 436.88 567.71
  Q 436.86 567.10 437.48 567.11
  Q 441.24 567.17 443.98 565.54
  Q 444.63 565.16 445.23 564.59
  C 446.09 563.79 447.33 563.34 448.48 563.88
  Q 449.93 564.55 451.53 564.97
  Q 451.92 565.07 452.20 565.35
  Q 452.68 565.82 453.34 565.59
  Q 454.59 565.15 454.85 563.99
  A 1.52 1.47 79.4 0 1 455.42 563.13
  Q 458.60 560.80 458.86 556.96
  Q 459.17 552.44 460.25 547.94
  A 2.33 2.32 -74.1 0 0 458.73 545.19
  Q 456.52 544.46 454.27 542.89
  Q 453.91 542.64 453.88 542.19
  Q 453.75 539.51 453.42 536.79
  C 453.25 535.42 452.11 534.36 451.38 533.22
  Q 451.07 532.73 450.56 532.99
  Q 450.27 533.13 450.10 532.86
  Q 449.77 532.35 449.33 532.78
  Q 448.69 533.40 448.81 534.50
  Q 449.00 536.32 448.64 540.30
  Q 448.68 533.70 447.82 530.99
  Q 447.22 529.14 446.05 527.90
  Q 440.23 521.72 433.72 515.48
  A 5.18 5.16 66.6 0 0 430.13 514.05
  Q 420.65 514.12 410.74 514.12
  Q 408.59 514.12 406.74 515.98
  Q 399.87 522.89 393.31 529.38
  A 2.67 2.64 -22.5 0 0 392.53 531.23
  L 392.47 537.47
  Q 391.92 536.63 392.04 536.01
  Q 392.33 534.52 391.13 535.44
  Q 390.22 536.14 389.19 536.41
  C 387.20 536.93 386.67 538.81 386.74 540.71
  L 386.71 515.09
  A 1.00 1.00 0.0 0 0 385.72 514.09
  L 368.53 513.99
  A 0.89 0.89 0.0 0 0 367.64 514.88
  L 367.66 535.56
  Q 367.00 534.72 364.21 535.25
  Q 363.36 535.41 363.37 534.54
  Q 363.37 534.34 363.29 534.15
  Q 363.18 533.89 362.93 533.74
  Q 362.68 533.59 362.44 533.63
  Q 361.93 533.72 361.91 534.24
  L 361.82 537.21
  L 361.66 530.83
  A 2.27 2.26 -68.0 0 0 361.01 529.29
  Q 354.07 522.15 347.24 515.43
  Q 345.82 514.04 343.86 514.03
  Q 334.01 514.00 324.12 514.02
  Q 322.29 514.02 321.11 515.11
  Q 313.94 521.78 305.93 531.19
  L 301.60 531.07
  Q 301.05 531.05 301.00 531.60
  L 300.34 538.76
  L 300.34 514.42
  A 0.43 0.43 0.0 0 0 299.91 513.99
  L 282.52 513.93
  A 1.04 1.04 0.0 0 0 281.48 514.97
  L 281.36 563.22
  Q 281.16 549.35 281.20 535.50
  Q 281.20 534.76 280.75 533.05
  Q 280.57 532.36 280.17 532.95
  Q 280.09 533.07 279.99 533.15
  Q 279.55 533.50 279.11 533.16
  Q 277.71 532.06 276.25 531.01
  Q 274.94 530.07 273.25 529.49
  Q 270.46 528.52 268.05 527.29
  Q 267.25 526.88 266.28 526.88
  Q 265.59 526.88 265.02 526.49
  Q 264.43 526.10 264.24 526.78
  Q 264.04 527.46 263.76 527.81
  L 263.76 515.17
  Q 263.76 513.84 262.43 513.86
  L 245.23 514.07
  A 0.59 0.59 0.0 0 0 244.64 514.66
  L 244.64 527.73
  Z"
/>
<path fill="#ffffff" d="
  M 249.34 408.51
  L 249.58 464.75
  A 2.40 2.36 67.6 0 1 248.90 466.42
  L 234.45 481.05
  Q 233.51 482.00 232.17 482.00
  L 211.58 481.98
  A 4.42 4.41 -22.6 0 1 208.47 480.70
  L 200.79 473.05
  L 196.29 468.54
  Q 195.27 467.63 194.48 466.32
  Q 193.77 465.14 193.74 463.68
  Q 193.60 456.98 193.66 450.56
  Q 193.86 428.68 193.66 407.45
  A 2.98 2.96 -23.1 0 1 194.52 405.34
  L 209.20 390.58
  A 1.91 1.91 0.0 0 1 210.55 390.02
  L 231.69 390.00
  Q 233.38 390.00 234.56 391.22
  Q 241.44 398.41 248.37 405.18
  C 249.34 406.13 249.37 407.24 249.34 408.51
  Z
  M 230.48 417.20
  A 8.44 8.44 0.0 0 0 222.04 408.76
  L 221.06 408.76
  A 8.44 8.44 0.0 0 0 212.62 417.20
  L 212.62 454.80
  A 8.44 8.44 0.0 0 0 221.06 463.24
  L 222.04 463.24
  A 8.44 8.44 0.0 0 0 230.48 454.80
  L 230.48 417.20
  Z"
/>
<path fill="#ffffff" d="
  M 397.91 406.53
  L 409.26 432.33
  A 0.37 0.37 0.0 0 0 409.97 432.18
  L 409.87 421.23
  L 409.82 390.75
  Q 409.81 390.03 410.53 390.03
  L 428.19 390.03
  A 0.57 0.57 0.0 0 1 428.76 390.60
  L 428.75 408.56
  L 428.51 480.75
  A 1.10 1.10 0.0 0 1 427.42 481.85
  L 410.64 482.03
  A 1.26 1.25 -11.9 0 1 409.47 481.27
  L 391.38 439.10
  Q 390.72 437.57 390.72 439.23
  L 390.76 481.23
  A 0.75 0.74 90.0 0 1 390.02 481.98
  L 372.27 482.05
  A 0.63 0.63 0.0 0 1 371.64 481.42
  L 371.71 404.58
  L 371.68 390.57
  A 0.57 0.56 0.0 0 1 372.25 390.01
  L 389.48 390.01
  A 2.00 1.99 -11.7 0 1 391.31 391.21
  L 397.91 406.53
  Z"
/>
<path fill="#ffffff" d="
  M 310.78 408.88
  L 310.75 428.61
  Q 310.75 429.37 310.21 429.90
  L 295.73 444.19
  A 2.78 2.76 22.4 0 1 293.77 445.00
  L 274.79 444.99
  A 0.47 0.46 90.0 0 0 274.33 445.46
  L 274.34 481.24
  A 0.68 0.67 -1.8 0 1 273.70 481.91
  Q 264.70 482.44 255.98 481.97
  Q 255.21 481.92 255.21 481.16
  L 255.22 409.07
  L 255.24 391.31
  A 0.29 0.29 0.0 0 1 255.53 391.02
  L 293.27 391.01
  A 3.81 3.79 67.1 0 1 295.93 392.10
  L 310.27 406.19
  Q 310.65 406.57 310.68 407.11
  L 310.78 408.88
  Z
  M 274.35 409.37
  L 274.31 426.61
  A 0.41 0.41 0.0 0 0 274.72 427.03
  L 283.18 427.04
  A 8.71 8.69 0.1 0 0 291.91 418.37
  L 291.91 417.69
  A 8.71 8.69 0.1 0 0 283.22 408.98
  L 274.76 408.97
  A 0.41 0.41 0.0 0 0 274.35 409.37
  Z"
/>
<path fill="#ffffff" d="
  M 365.75 404.04
  L 365.69 408.53
  Q 365.68 409.01 365.21 409.01
  L 336.50 409.01
  A 0.75 0.74 0.0 0 0 335.75 409.75
  L 335.74 426.75
  A 0.26 0.26 0.0 0 0 336.00 427.01
  L 359.50 426.98
  A 0.27 0.26 90.0 0 1 359.76 427.25
  L 359.75 444.38
  A 0.64 0.63 90.0 0 1 359.12 445.02
  L 336.25 444.97
  A 0.53 0.53 0.0 0 0 335.71 445.50
  L 335.73 463.50
  Q 335.73 464.02 336.25 464.02
  L 365.09 463.96
  A 0.89 0.88 0.3 0 1 365.98 464.85
  L 365.81 481.42
  A 0.66 0.66 0.0 0 1 365.15 482.07
  L 322.03 482.08
  L 317.27 481.98
  A 0.80 0.80 0.0 0 1 316.48 481.17
  L 316.51 474.08
  L 316.74 462.22
  L 316.71 408.75
  L 316.76 391.52
  Q 316.76 391.02 317.27 391.02
  L 364.77 391.03
  Q 365.74 391.03 365.74 392.01
  L 365.75 404.04
  Z"
/>
<path fill="#7b3e26" d="
  M 371.71 404.58
  L 371.64 481.42
  A 0.63 0.63 0.0 0 0 372.27 482.05
  L 390.02 481.98
  A 0.75 0.74 90.0 0 0 390.76 481.23
  L 390.72 439.23
  Q 390.72 437.57 391.38 439.10
  L 409.47 481.27
  A 1.26 1.25 -11.9 0 0 410.64 482.03
  L 427.42 481.85
  A 1.10 1.10 0.0 0 0 428.51 480.75
  L 428.75 408.56
  L 429.88 404.95
  A 0.91 0.91 0.0 0 1 431.48 404.67
  Q 432.42 405.90 433.92 405.96
  Q 434.41 405.98 434.80 406.29
  Q 436.70 407.77 438.45 409.72
  Q 439.34 410.72 439.67 412.01
  Q 439.92 412.96 440.46 413.87
  Q 440.94 414.70 441.17 415.63
  Q 443.54 425.63 443.84 432.01
  Q 443.90 433.32 444.22 434.72
  Q 444.75 437.00 444.77 437.35
  Q 445.17 443.12 445.37 448.25
  Q 445.51 452.01 444.94 456.38
  Q 444.60 458.99 444.60 461.55
  Q 444.59 464.02 443.94 466.54
  Q 443.05 470.00 442.39 473.16
  Q 442.27 473.78 441.77 474.15
  Q 441.09 474.66 441.12 475.56
  Q 441.36 481.79 441.09 487.82
  Q 441.07 488.28 440.80 488.65
  Q 438.45 491.88 437.91 495.40
  Q 437.82 495.96 437.40 496.36
  Q 435.72 497.94 434.70 498.04
  Q 428.78 498.59 422.33 499.54
  Q 420.68 499.78 417.33 498.48
  Q 415.46 497.74 413.79 497.72
  Q 412.24 497.69 410.41 497.78
  Q 408.04 497.90 406.18 498.86
  Q 404.10 499.94 401.67 500.27
  Q 401.26 500.32 401.20 500.74
  Q 401.18 500.92 401.07 501.04
  Q 401.00 501.12 400.90 501.14
  Q 398.76 501.64 396.48 502.47
  Q 395.98 502.65 395.45 502.60
  Q 394.97 502.56 394.59 502.83
  Q 394.35 503.00 394.06 503.06
  Q 390.56 503.77 387.67 503.42
  Q 385.02 503.11 382.22 503.36
  Q 371.01 504.40 360.87 505.24
  Q 357.72 505.51 354.57 505.29
  Q 351.78 505.09 348.94 505.45
  Q 342.59 506.26 336.84 501.93
  C 335.10 500.62 333.23 499.91 331.86 498.10
  A 1.37 1.35 -9.7 0 0 331.19 497.63
  Q 330.41 497.39 330.16 496.65
  A 1.33 1.33 0.0 0 0 329.72 496.04
  Q 328.12 494.84 327.17 493.27
  Q 327.00 493.00 326.69 492.93
  Q 324.69 492.49 324.86 490.39
  Q 325.17 486.52 323.03 483.33
  A 0.55 0.54 -44.5 0 1 323.04 482.71
  Q 323.25 482.43 322.95 482.28
  Q 322.81 482.21 322.66 482.19
  L 322.03 482.08
  L 365.15 482.07
  A 0.66 0.66 0.0 0 0 365.81 481.42
  L 365.98 464.85
  A 0.89 0.88 0.3 0 0 365.09 463.96
  L 336.25 464.02
  Q 335.73 464.02 335.73 463.50
  L 335.71 445.50
  A 0.53 0.53 0.0 0 1 336.25 444.97
  L 359.12 445.02
  A 0.64 0.63 90.0 0 0 359.75 444.38
  L 359.76 427.25
  A 0.27 0.26 90.0 0 0 359.50 426.98
  L 336.00 427.01
  A 0.26 0.26 0.0 0 1 335.74 426.75
  L 335.75 409.75
  A 0.75 0.74 0.0 0 1 336.50 409.01
  L 365.21 409.01
  Q 365.68 409.01 365.69 408.53
  L 365.75 404.04
  Q 369.72 403.13 371.71 404.58
  Z"
/>
<path fill="#7b3e26" d="
  M 397.91 406.53
  Q 403.06 406.75 407.47 409.26
  Q 407.90 409.50 407.95 409.99
  Q 408.05 410.77 408.66 411.28
  A 1.43 1.40 18.4 0 1 409.17 412.27
  L 409.87 421.23
  L 409.97 432.18
  A 0.37 0.37 0.0 0 1 409.26 432.33
  L 397.91 406.53
  Z"
/>
<path fill="#7b3e26" d="
  M 316.71 408.75
  L 316.74 462.22
  Q 316.10 462.06 315.66 462.82
  Q 315.31 463.43 314.64 463.66
  Q 313.88 463.91 313.82 464.68
  Q 313.80 464.89 313.60 464.83
  Q 311.46 464.13 308.42 465.16
  C 307.63 465.43 307.02 466.21 306.29 466.15
  Q 305.50 466.09 304.72 466.36
  Q 300.34 467.90 298.39 469.40
  Q 297.25 470.28 294.79 472.97
  Q 292.83 475.12 291.81 477.02
  Q 290.41 479.65 290.04 483.04
  Q 289.93 484.11 289.54 485.12
  Q 287.62 490.03 284.70 495.10
  Q 283.72 496.81 282.21 497.79
  Q 280.52 498.89 278.96 499.89
  Q 278.15 500.41 277.11 500.43
  C 275.57 500.46 274.49 500.72 272.88 500.48
  Q 268.64 499.86 264.48 498.72
  Q 261.66 497.95 260.01 498.03
  Q 258.29 498.11 256.49 498.50
  Q 254.84 498.85 253.06 499.45
  Q 248.44 501.01 244.01 502.66
  Q 242.29 503.30 233.37 503.87
  Q 229.55 504.11 226.42 502.96
  Q 222.35 501.47 218.66 499.28
  Q 217.98 498.87 217.26 498.71
  Q 216.83 498.61 216.52 498.31
  L 210.94 492.86
  Q 210.44 492.37 210.31 491.69
  Q 210.20 491.12 209.79 490.71
  Q 208.03 488.95 206.37 487.34
  Q 204.66 485.69 203.61 483.13
  Q 201.68 478.41 200.79 473.05
  L 208.47 480.70
  A 4.42 4.41 -22.6 0 0 211.58 481.98
  L 232.17 482.00
  Q 233.51 482.00 234.45 481.05
  L 248.90 466.42
  A 2.40 2.36 67.6 0 0 249.58 464.75
  L 249.34 408.51
  L 255.22 409.07
  L 255.21 481.16
  Q 255.21 481.92 255.98 481.97
  Q 264.70 482.44 273.70 481.91
  A 0.68 0.67 -1.8 0 0 274.34 481.24
  L 274.33 445.46
  A 0.47 0.46 -90.0 0 1 274.79 444.99
  L 293.77 445.00
  A 2.78 2.76 22.4 0 0 295.73 444.19
  L 310.21 429.90
  Q 310.75 429.37 310.75 428.61
  L 310.78 408.88
  Q 312.51 406.80 316.71 408.75
  Z"
/>
<rect fill="#7b3e26" x="212.62" y="408.76" width="17.86" height="54.48" rx="8.44"/>
<path fill="#7b3e26" d="
  M 274.35 409.37
  A 0.41 0.41 0.0 0 1 274.76 408.97
  L 283.22 408.98
  A 8.71 8.69 0.1 0 1 291.91 417.69
  L 291.91 418.37
  A 8.71 8.69 0.1 0 1 283.18 427.04
  L 274.72 427.03
  A 0.41 0.41 0.0 0 1 274.31 426.61
  L 274.35 409.37
  Z"
/>
<path fill="#d3693f" d="
  M 316.74 462.22
  L 316.51 474.08
  L 315.41 471.92
  A 0.78 0.76 -13.0 0 0 314.72 471.50
  L 306.50 471.50
  Q 306.04 471.50 305.89 471.94
  Q 305.79 472.25 305.49 472.27
  Q 302.11 472.55 300.32 474.56
  C 299.26 475.74 298.05 476.44 297.27 477.78
  Q 294.81 481.97 293.79 486.72
  Q 293.68 487.22 293.35 487.61
  Q 292.47 488.63 292.19 489.95
  Q 291.93 491.17 291.20 492.25
  Q 288.88 495.66 286.45 498.49
  Q 284.17 501.15 281.96 503.92
  Q 281.02 505.10 279.44 505.74
  Q 278.22 506.22 276.95 506.18
  Q 268.66 505.87 261.62 504.41
  Q 256.93 503.44 253.43 505.37
  Q 253.06 505.57 252.63 505.57
  Q 247.51 505.58 243.65 507.51
  Q 241.99 508.33 240.11 508.30
  Q 234.49 508.20 228.94 508.26
  Q 228.86 508.26 228.80 508.19
  Q 228.77 508.15 228.78 508.10
  Q 228.80 508.03 228.87 508.02
  Q 231.27 508.00 233.44 507.98
  Q 234.30 507.97 233.45 507.86
  Q 229.07 507.29 224.33 506.29
  Q 220.96 505.58 218.01 503.90
  Q 214.20 501.71 211.71 499.57
  Q 206.68 495.25 201.97 487.47
  Q 200.44 484.95 199.58 481.97
  Q 199.04 480.10 198.22 478.44
  Q 197.36 476.68 196.51 474.92
  Q 195.70 473.23 195.42 471.85
  Q 194.70 468.28 196.29 468.54
  L 200.79 473.05
  Q 201.68 478.41 203.61 483.13
  Q 204.66 485.69 206.37 487.34
  Q 208.03 488.95 209.79 490.71
  Q 210.20 491.12 210.31 491.69
  Q 210.44 492.37 210.94 492.86
  L 216.52 498.31
  Q 216.83 498.61 217.26 498.71
  Q 217.98 498.87 218.66 499.28
  Q 222.35 501.47 226.42 502.96
  Q 229.55 504.11 233.37 503.87
  Q 242.29 503.30 244.01 502.66
  Q 248.44 501.01 253.06 499.45
  Q 254.84 498.85 256.49 498.50
  Q 258.29 498.11 260.01 498.03
  Q 261.66 497.95 264.48 498.72
  Q 268.64 499.86 272.88 500.48
  C 274.49 500.72 275.57 500.46 277.11 500.43
  Q 278.15 500.41 278.96 499.89
  Q 280.52 498.89 282.21 497.79
  Q 283.72 496.81 284.70 495.10
  Q 287.62 490.03 289.54 485.12
  Q 289.93 484.11 290.04 483.04
  Q 290.41 479.65 291.81 477.02
  Q 292.83 475.12 294.79 472.97
  Q 297.25 470.28 298.39 469.40
  Q 300.34 467.90 304.72 466.36
  Q 305.50 466.09 306.29 466.15
  C 307.02 466.21 307.63 465.43 308.42 465.16
  Q 311.46 464.13 313.60 464.83
  Q 313.80 464.89 313.82 464.68
  Q 313.88 463.91 314.64 463.66
  Q 315.31 463.43 315.66 462.82
  Q 316.10 462.06 316.74 462.22
  Z"
/>
<path fill="#ffffff" d="
  M 263.76 527.81
  L 263.75 581.37
  Q 263.75 582.10 264.27 582.62
  L 268.19 586.55
  Q 268.87 587.22 269.82 587.22
  L 275.41 587.20
  Q 276.14 587.20 276.66 586.68
  L 280.89 582.46
  A 1.50 1.50 0.0 0 0 281.33 581.40
  L 281.36 563.22
  L 281.48 514.97
  A 1.04 1.04 0.0 0 1 282.52 513.93
  L 299.91 513.99
  A 0.43 0.43 0.0 0 1 300.34 514.42
  L 300.34 538.76
  L 300.39 588.72
  A 2.60 2.59 67.5 0 1 299.62 590.59
  L 285.05 605.27
  A 2.49 2.49 0.0 0 1 283.29 606.00
  L 262.33 605.99
  A 3.65 3.64 67.4 0 1 259.75 604.92
  L 245.18 590.30
  A 1.74 1.73 -67.8 0 1 244.66 589.06
  L 244.64 527.73
  L 244.64 514.66
  A 0.59 0.59 0.0 0 1 245.23 514.07
  L 262.43 513.86
  Q 263.76 513.84 263.76 515.17
  L 263.76 527.81
  Z"
/>
<path fill="#ffffff" d="
  M 238.83 527.64
  L 238.94 605.18
  A 0.83 0.83 0.0 0 1 238.13 606.01
  L 226.45 606.32
  L 220.42 606.56
  A 0.78 0.78 0.0 0 1 219.61 605.78
  L 219.81 565.53
  L 219.81 551.45
  Q 219.81 550.63 219.39 551.34
  Q 215.02 558.69 210.97 565.68
  Q 210.43 566.61 209.71 567.40
  Q 209.39 567.75 208.92 567.75
  L 203.89 567.75
  Q 203.08 567.75 202.66 567.06
  L 193.30 551.45
  Q 192.81 550.63 192.81 551.58
  L 192.80 605.31
  Q 184.90 606.94 174.98 606.10
  Q 173.75 606.00 173.75 604.77
  L 173.72 514.52
  A 0.52 0.51 90.0 0 1 174.23 514.00
  L 191.42 514.01
  A 2.43 2.41 74.1 0 1 193.48 515.17
  L 206.06 535.96
  A 0.37 0.36 44.7 0 0 206.69 535.96
  L 219.43 514.74
  A 1.54 1.53 -74.2 0 1 220.74 514.00
  L 237.99 514.02
  A 0.91 0.91 0.0 0 1 238.90 514.94
  L 238.83 527.64
  Z"
/>
<path fill="#ffffff" d="
  M 361.82 537.21
  L 361.82 544.44
  A 0.56 0.56 0.0 0 1 361.26 545.00
  L 343.92 544.98
  Q 342.99 544.98 342.97 544.05
  L 342.85 538.40
  Q 342.84 537.88 342.47 537.51
  L 338.23 533.33
  A 1.56 1.54 69.1 0 0 337.31 532.91
  Q 334.83 532.69 332.02 532.77
  C 329.32 532.86 327.60 535.48 325.89 537.22
  Q 325.38 537.73 325.37 538.46
  L 325.27 544.68
  Q 325.26 545.31 325.69 545.75
  L 330.14 550.31
  A 1.36 1.35 67.7 0 0 331.11 550.72
  L 344.44 550.69
  A 3.01 2.96 67.2 0 1 346.55 551.57
  L 361.34 566.30
  A 1.79 1.78 -67.3 0 1 361.85 567.55
  L 361.71 589.13
  Q 361.71 590.06 361.05 590.73
  L 346.48 605.41
  A 1.98 1.97 22.2 0 1 345.07 606.00
  L 324.35 605.99
  A 5.12 5.11 -22.4 0 1 320.72 604.48
  L 306.83 590.59
  A 1.96 1.94 -67.6 0 1 306.26 589.21
  L 306.25 575.50
  A 0.50 0.50 0.0 0 1 306.75 575.00
  L 324.68 574.99
  Q 325.36 574.99 325.37 575.66
  L 325.45 581.73
  Q 325.45 582.26 325.83 582.64
  L 329.81 586.72
  A 1.60 1.56 67.3 0 0 330.94 587.20
  L 336.96 587.19
  Q 337.72 587.19 338.25 586.66
  L 342.37 582.53
  Q 342.81 582.09 342.82 581.46
  L 342.86 575.27
  A 1.57 1.56 -67.9 0 0 342.39 574.15
  L 338.41 570.20
  A 3.23 3.22 -23.0 0 0 336.13 569.28
  L 323.79 569.35
  A 3.32 3.27 67.0 0 1 321.44 568.38
  L 307.09 553.96
  Q 306.29 553.16 306.27 552.03
  L 305.93 531.19
  Q 313.94 521.78 321.11 515.11
  Q 322.29 514.02 324.12 514.02
  Q 334.01 514.00 343.86 514.03
  Q 345.82 514.04 347.24 515.43
  Q 354.07 522.15 361.01 529.29
  A 2.27 2.26 -68.0 0 1 361.66 530.83
  L 361.82 537.21
  Z"
/>
<path fill="#ffffff" d="
  M 386.74 540.71
  L 386.78 605.18
  A 0.81 0.81 0.0 0 1 385.97 605.99
  L 368.24 606.01
  A 0.56 0.56 0.0 0 1 367.68 605.45
  L 367.66 535.56
  L 367.64 514.88
  A 0.89 0.89 0.0 0 1 368.53 513.99
  L 385.72 514.09
  A 1.00 1.00 0.0 0 1 386.71 515.09
  L 386.74 540.71
  Z"
/>
<path fill="#ffffff" d="
  M 448.64 540.30
  L 448.20 544.07
  A 0.99 0.99 0.0 0 1 447.23 544.95
  L 429.68 544.99
  A 0.40 0.39 88.6 0 1 429.28 544.60
  L 429.24 538.99
  Q 429.24 538.17 428.68 537.56
  Q 427.28 536.03 425.58 534.26
  C 423.57 532.18 420.82 532.75 418.26 532.83
  C 415.91 532.89 413.60 535.77 412.18 537.37
  C 411.64 537.98 411.60 539.06 411.60 539.83
  Q 411.55 561.18 411.59 581.55
  A 1.76 1.71 23.4 0 0 412.09 582.76
  L 416.31 586.99
  Q 416.71 587.40 417.29 587.40
  L 423.20 587.42
  Q 423.98 587.42 424.53 586.86
  L 428.76 582.56
  A 1.56 1.53 -23.1 0 0 429.19 581.52
  L 429.23 576.00
  A 1.01 1.01 0.0 0 1 430.24 574.99
  L 433.92 574.98
  L 446.80 574.99
  Q 448.12 574.99 448.24 576.30
  Q 448.82 582.75 447.98 589.33
  Q 447.48 590.68 447.20 590.97
  Q 439.91 598.27 432.66 605.38
  A 2.09 2.07 -67.1 0 1 431.20 605.98
  L 410.05 605.99
  A 3.92 3.91 67.6 0 1 407.27 604.83
  L 392.93 590.33
  A 1.58 1.57 23.0 0 1 392.48 589.23
  L 392.47 537.47
  L 392.53 531.23
  A 2.67 2.64 -22.5 0 1 393.31 529.38
  Q 399.87 522.89 406.74 515.98
  Q 408.59 514.12 410.74 514.12
  Q 420.65 514.12 430.13 514.05
  A 5.18 5.16 66.6 0 1 433.72 515.48
  Q 440.23 521.72 446.05 527.90
  Q 447.22 529.14 447.82 530.99
  Q 448.68 533.70 448.64 540.30
  Z"
/>
<path fill="#7b3e26" d="
  M 281.36 563.22
  L 281.33 581.40
  A 1.50 1.50 0.0 0 1 280.89 582.46
  L 276.66 586.68
  Q 276.14 587.20 275.41 587.20
  L 269.82 587.22
  Q 268.87 587.22 268.19 586.55
  L 264.27 582.62
  Q 263.75 582.10 263.75 581.37
  L 263.76 527.81
  Q 264.04 527.46 264.24 526.78
  Q 264.43 526.10 265.02 526.49
  Q 265.59 526.88 266.28 526.88
  Q 267.25 526.88 268.05 527.29
  Q 270.46 528.52 273.25 529.49
  Q 274.94 530.07 276.25 531.01
  Q 277.71 532.06 279.11 533.16
  Q 279.55 533.50 279.99 533.15
  Q 280.09 533.07 280.17 532.95
  Q 280.57 532.36 280.75 533.05
  Q 281.20 534.76 281.20 535.50
  Q 281.16 549.35 281.36 563.22
  Z"
/>
<path fill="#7b3e26" d="
  M 244.64 527.73
  L 244.66 589.06
  A 1.74 1.73 -67.8 0 0 245.18 590.30
  L 259.75 604.92
  A 3.65 3.64 67.4 0 0 262.33 605.99
  L 283.29 606.00
  A 2.49 2.49 0.0 0 0 285.05 605.27
  L 299.62 590.59
  A 2.60 2.59 67.5 0 0 300.39 588.72
  L 300.34 538.76
  L 301.00 531.60
  Q 301.05 531.05 301.60 531.07
  L 305.93 531.19
  L 306.27 552.03
  Q 306.29 553.16 307.09 553.96
  L 321.44 568.38
  A 3.32 3.27 67.0 0 0 323.79 569.35
  L 336.13 569.28
  A 3.23 3.22 -23.0 0 1 338.41 570.20
  L 342.39 574.15
  A 1.57 1.56 -67.9 0 1 342.86 575.27
  L 342.82 581.46
  Q 342.81 582.09 342.37 582.53
  L 338.25 586.66
  Q 337.72 587.19 336.96 587.19
  L 330.94 587.20
  A 1.60 1.56 67.3 0 1 329.81 586.72
  L 325.83 582.64
  Q 325.45 582.26 325.45 581.73
  L 325.37 575.66
  Q 325.36 574.99 324.68 574.99
  L 306.75 575.00
  A 0.50 0.50 0.0 0 0 306.25 575.50
  L 306.26 589.21
  A 1.96 1.94 -67.6 0 0 306.83 590.59
  L 320.72 604.48
  A 5.12 5.11 -22.4 0 0 324.35 605.99
  L 345.07 606.00
  A 1.98 1.97 22.2 0 0 346.48 605.41
  L 361.05 590.73
  Q 361.71 590.06 361.71 589.13
  L 361.85 567.55
  A 1.79 1.78 -67.3 0 0 361.34 566.30
  L 346.55 551.57
  A 3.01 2.96 67.2 0 0 344.44 550.69
  L 331.11 550.72
  A 1.36 1.35 67.7 0 1 330.14 550.31
  L 325.69 545.75
  Q 325.26 545.31 325.27 544.68
  L 325.37 538.46
  Q 325.38 537.73 325.89 537.22
  C 327.60 535.48 329.32 532.86 332.02 532.77
  Q 334.83 532.69 337.31 532.91
  A 1.56 1.54 69.1 0 1 338.23 533.33
  L 342.47 537.51
  Q 342.84 537.88 342.85 538.40
  L 342.97 544.05
  Q 342.99 544.98 343.92 544.98
  L 361.26 545.00
  A 0.56 0.56 0.0 0 0 361.82 544.44
  L 361.82 537.21
  L 361.91 534.24
  Q 361.93 533.72 362.44 533.63
  Q 362.68 533.59 362.93 533.74
  Q 363.18 533.89 363.29 534.15
  Q 363.37 534.34 363.37 534.54
  Q 363.36 535.41 364.21 535.25
  Q 367.00 534.72 367.66 535.56
  L 367.68 605.45
  A 0.56 0.56 0.0 0 0 368.24 606.01
  L 385.97 605.99
  A 0.81 0.81 0.0 0 0 386.78 605.18
  L 386.74 540.71
  C 386.67 538.81 387.20 536.93 389.19 536.41
  Q 390.22 536.14 391.13 535.44
  Q 392.33 534.52 392.04 536.01
  Q 391.92 536.63 392.47 537.47
  L 392.48 589.23
  A 1.58 1.57 23.0 0 0 392.93 590.33
  L 407.27 604.83
  A 3.92 3.91 67.6 0 0 410.05 605.99
  L 431.20 605.98
  A 2.09 2.07 -67.1 0 0 432.66 605.38
  Q 439.91 598.27 447.20 590.97
  Q 447.48 590.68 447.98 589.33
  Q 448.26 590.04 449.21 588.87
  Q 449.52 588.48 450.02 588.41
  Q 452.63 588.00 454.83 589.19
  A 0.44 0.44 0.0 0 1 454.76 589.99
  Q 454.41 590.10 454.35 589.68
  A 0.71 0.70 -9.3 0 0 453.53 589.10
  Q 452.81 589.22 452.10 589.04
  A 1.27 1.27 0.0 0 0 450.96 589.31
  Q 450.38 589.80 449.60 589.66
  Q 449.02 589.56 448.63 590.00
  L 447.75 591.00
  Q 446.99 591.88 448.09 591.51
  Q 448.46 591.39 448.83 591.40
  Q 449.26 591.42 449.64 591.21
  Q 454.78 588.30 457.37 593.38
  Q 461.55 601.58 457.68 609.84
  Q 457.07 611.15 456.43 612.57
  Q 455.78 614.01 454.83 615.12
  Q 451.36 619.15 447.39 622.55
  C 446.38 623.41 445.16 623.84 444.00 624.45
  A 1.90 1.84 33.7 0 1 442.86 624.66
  Q 440.31 624.31 438.23 625.17
  Q 436.43 625.92 434.33 626.01
  Q 430.77 626.17 427.12 626.70
  C 425.42 626.95 424.15 626.81 422.46 626.68
  Q 421.52 626.61 420.61 626.28
  Q 417.67 625.25 414.71 624.27
  Q 412.39 623.49 410.14 623.14
  Q 407.30 622.68 404.93 622.86
  Q 402.03 623.08 398.39 624.32
  Q 395.13 625.44 391.27 625.60
  Q 387.93 625.75 384.65 625.00
  Q 381.02 624.17 377.10 623.34
  Q 370.48 621.95 364.71 624.24
  Q 361.73 625.43 359.13 626.23
  Q 357.12 626.86 355.36 627.50
  Q 353.48 628.19 351.67 628.41
  Q 343.72 629.38 337.74 627.30
  Q 333.64 625.87 330.38 623.20
  Q 327.15 620.56 323.88 619.06
  Q 321.47 617.95 316.00 617.87
  Q 312.94 617.82 310.17 618.93
  Q 307.00 620.20 304.74 621.77
  Q 301.94 623.71 299.94 624.57
  Q 298.29 625.27 296.67 626.08
  Q 294.91 626.96 293.20 627.29
  Q 286.12 628.65 281.55 628.23
  Q 275.18 627.65 267.44 624.81
  Q 263.91 623.51 260.60 622.98
  Q 259.74 622.84 258.94 622.92
  Q 258.17 623.00 257.51 622.65
  A 1.71 1.68 -34.1 0 0 256.53 622.47
  Q 252.48 622.95 248.38 623.81
  Q 246.62 624.18 245.15 624.08
  Q 244.00 624.01 242.86 623.91
  Q 241.76 623.82 240.65 623.59
  Q 237.93 623.04 234.73 623.06
  Q 231.78 623.07 231.05 620.46
  A 1.44 1.41 13.8 0 0 230.61 619.75
  Q 229.48 618.72 229.11 617.17
  Q 229.00 616.72 228.61 616.47
  Q 227.28 615.60 226.97 614.77
  Q 224.74 608.85 226.45 606.32
  L 238.13 606.01
  A 0.83 0.83 0.0 0 0 238.94 605.18
  L 238.83 527.64
  Q 241.92 527.22 244.64 527.73
  Z"
/>
<path fill="#7b3e26" d="
  M 433.92 574.98
  L 430.24 574.99
  A 1.01 1.01 0.0 0 0 429.23 576.00
  L 429.19 581.52
  A 1.56 1.53 -23.1 0 1 428.76 582.56
  L 424.53 586.86
  Q 423.98 587.42 423.20 587.42
  L 417.29 587.40
  Q 416.71 587.40 416.31 586.99
  L 412.09 582.76
  A 1.76 1.71 23.4 0 1 411.59 581.55
  Q 411.55 561.18 411.60 539.83
  C 411.60 539.06 411.64 537.98 412.18 537.37
  C 413.60 535.77 415.91 532.89 418.26 532.83
  C 420.82 532.75 423.57 532.18 425.58 534.26
  Q 427.28 536.03 428.68 537.56
  Q 429.24 538.17 429.24 538.99
  L 429.28 544.60
  A 0.40 0.39 88.6 0 0 429.68 544.99
  L 447.23 544.95
  A 0.99 0.99 0.0 0 0 448.20 544.07
  L 448.64 540.30
  Q 449.00 536.32 448.81 534.50
  Q 448.69 533.40 449.33 532.78
  Q 449.77 532.35 450.10 532.86
  Q 450.27 533.13 450.56 532.99
  Q 451.07 532.73 451.38 533.22
  C 452.11 534.36 453.25 535.42 453.42 536.79
  Q 453.75 539.51 453.88 542.19
  Q 453.91 542.64 454.27 542.89
  Q 456.52 544.46 458.73 545.19
  A 2.33 2.32 -74.1 0 1 460.25 547.94
  Q 459.17 552.44 458.86 556.96
  Q 458.60 560.80 455.42 563.13
  A 1.52 1.47 79.4 0 0 454.85 563.99
  Q 454.59 565.15 453.34 565.59
  Q 452.68 565.82 452.20 565.35
  Q 451.92 565.07 451.53 564.97
  Q 449.93 564.55 448.48 563.88
  C 447.33 563.34 446.09 563.79 445.23 564.59
  Q 444.63 565.16 443.98 565.54
  Q 441.24 567.17 437.48 567.11
  Q 436.86 567.10 436.88 567.71
  Q 436.89 568.22 436.40 568.35
  Q 434.10 568.97 432.93 571.04
  Q 432.68 571.48 432.91 571.92
  Q 434.03 574.02 433.92 574.98
  Z"
/>
<path fill="#7b3e26" d="
  M 219.81 565.53
  Q 219.96 580.71 219.09 595.88
  Q 219.32 595.48 218.92 595.26
  A 0.23 0.23 0.0 0 0 218.58 595.46
  Q 218.61 597.92 216.44 598.81
  Q 213.44 600.04 212.98 602.93
  A 2.04 2.03 -73.6 0 0 214.17 605.13
  Q 215.32 605.63 215.61 606.72
  Q 215.83 607.50 215.25 606.93
  Q 214.83 606.52 214.26 606.42
  Q 213.73 606.33 214.10 606.71
  L 215.59 608.31
  Q 215.95 608.69 215.94 609.21
  Q 215.94 609.81 215.76 610.32
  A 0.85 0.85 0.0 0 1 214.92 610.89
  Q 212.50 610.79 210.02 610.58
  Q 206.30 610.27 204.33 612.87
  Q 203.91 613.43 203.33 613.79
  Q 202.94 614.04 202.75 614.47
  Q 201.49 617.42 198.83 619.61
  Q 198.43 619.94 198.19 620.40
  C 197.03 622.63 193.62 623.01 191.40 622.84
  A 1.07 1.07 0.0 0 1 190.46 621.47
  C 191.01 619.64 190.53 618.27 190.84 616.58
  Q 190.92 616.15 190.98 616.58
  Q 191.05 617.04 190.96 617.58
  Q 190.95 617.66 190.99 617.74
  Q 191.16 618.10 191.13 617.70
  Q 191.01 616.31 191.48 615.14
  Q 192.16 613.45 191.77 611.71
  C 191.45 610.27 191.98 608.87 192.83 607.72
  Q 193.13 607.32 193.13 606.82
  Q 193.14 605.45 192.80 605.31
  L 192.81 551.58
  Q 192.81 550.63 193.30 551.45
  L 202.66 567.06
  Q 203.08 567.75 203.89 567.75
  L 208.92 567.75
  Q 209.39 567.75 209.71 567.40
  Q 210.43 566.61 210.97 565.68
  Q 215.02 558.69 219.39 551.34
  Q 219.81 550.63 219.81 551.45
  L 219.81 565.53
  Z"
/>
</svg>
