<?xml version="1.0" encoding="UTF-8" standalone="no"?>
<!DOCTYPE svg PUBLIC "-//W3C//DTD SVG 1.1//EN" "http://www.w3.org/Graphics/SVG/1.1/DTD/svg11.dtd">
<svg xmlns="http://www.w3.org/2000/svg" version="1.1" viewBox="0.00 0.00 612.00 1080.00">
<g stroke-width="2.00" fill="none" stroke-linecap="butt">
<path stroke="#2c3f9c" vector-effect="non-scaling-stroke" d="
  M 237.71 482.08
  L 232.43 482.31
  Q 232.18 482.32 232.21 482.57
  L 232.28 483.09
  Q 232.31 483.33 232.55 483.35
  L 236.17 483.59
  A 2.71 2.68 -19.5 0 1 237.91 484.41
  Q 241.18 487.81 239.03 491.19
  Q 238.82 491.51 238.83 491.89
  Q 238.84 493.53 239.86 494.96
  Q 240.04 495.22 240.35 495.25
  Q 242.02 495.44 243.38 495.07
  Q 243.69 494.98 243.99 495.14
  Q 246.64 496.55 249.70 495.40
  Q 251.89 494.58 252.23 492.50
  Q 252.32 492.00 252.78 491.77
  Q 253.36 491.48 253.40 490.89
  Q 253.43 490.50 253.60 490.16
  L 254.90 487.62
  Q 255.10 487.22 254.90 486.82
  Q 253.45 483.85 255.58 481.37
  Q 255.90 481.00 255.88 480.51
  Q 255.86 479.97 256.17 479.49
  Q 256.49 478.98 257.08 478.83
  Q 257.86 478.62 258.35 477.97
  Q 258.65 477.58 259.13 477.66
  Q 261.59 478.04 262.78 476.79
  Q 264.36 475.12 265.93 473.50
  Q 267.15 472.25 268.88 471.49
  Q 270.50 470.78 272.13 469.90
  Q 272.34 469.78 272.38 469.54
  Q 272.45 469.12 272.84 468.96
  L 279.38 466.31
  Q 279.82 466.13 280.14 465.78
  Q 280.88 464.96 281.92 465.11
  Q 282.58 465.20 282.87 464.60
  Q 283.11 464.11 283.63 463.92
  Q 284.37 463.65 284.40 464.43
  L 284.94 480.22
  Q 284.96 480.78 285.38 481.13
  Q 285.96 481.61 286.15 482.47
  Q 286.27 483.00 286.15 483.53
  Q 285.98 484.25 286.22 484.91
  Q 286.38 485.34 286.84 485.36
  C 288.79 485.46 292.23 484.85 293.75 486.18
  Q 295.19 487.43 294.83 490.03
  Q 294.63 491.50 296.03 492.22"
/>
<path stroke="#2c3f9c" vector-effect="non-scaling-stroke" d="
  M 296.03 492.22
  Q 296.37 492.93 296.38 493.70
  Q 296.39 494.15 296.64 494.52
  L 297.94 496.53
  A 3.04 3.03 -21.3 0 0 301.02 497.88
  Q 303.68 497.42 305.58 499.33
  Q 306.10 499.85 306.80 500.08
  Q 308.22 500.56 309.62 501.38
  Q 310.41 501.84 310.92 502.47
  Q 311.46 503.12 312.33 503.27
  A 1.33 1.31 -7.5 0 1 313.29 504.00
  C 314.37 506.26 318.04 506.24 320.21 506.16
  Q 324.70 506.01 329.02 506.68
  Q 332.51 507.21 336.85 506.55
  Q 340.18 506.04 342.57 504.00
  Q 344.87 502.03 346.35 499.65
  Q 348.29 496.54 349.38 493.20
  Q 350.20 490.68 349.34 488.44
  C 348.76 486.92 348.90 485.15 347.41 484.09
  Q 345.49 482.74 343.68 481.04
  Q 341.96 479.42 341.28 477.15
  A 1.55 1.51 44.3 0 1 341.26 476.31
  Q 341.49 475.43 341.08 474.58
  Q 340.83 474.05 340.83 473.46
  Q 340.86 467.74 342.19 462.00
  C 342.43 460.93 342.25 459.95 342.56 458.93
  Q 342.92 457.75 342.90 456.57
  Q 342.75 449.18 341.42 441.75
  Q 341.36 441.42 341.51 441.13
  Q 341.61 440.92 341.53 440.72
  Q 340.72 438.77 341.40 436.68
  Q 342.06 434.64 344.19 433.81
  Q 346.66 432.85 349.49 433.44
  Q 351.76 433.91 353.85 434.54
  Q 354.46 434.72 354.33 435.35
  Q 354.24 435.78 354.67 435.87
  Q 356.12 436.15 357.00 437.58
  Q 357.47 438.33 357.88 438.64
  Q 359.58 439.94 359.35 438.76"
/>
<path stroke="#9ba7e3" vector-effect="non-scaling-stroke" d="
  M 359.35 438.76
  L 359.28 481.10
  Q 359.27 481.90 360.07 481.96
  L 361.81 482.11"
/>
<path stroke="#2c3f9c" vector-effect="non-scaling-stroke" d="
  M 361.81 482.11
  Q 361.94 482.92 362.03 483.80
  Q 362.11 484.69 362.38 485.44
  Q 363.76 489.40 365.19 491.64
  Q 366.57 493.83 370.51 496.06
  Q 373.06 497.50 375.45 497.67
  Q 379.34 497.93 382.83 499.23
  Q 384.32 499.79 385.29 498.60
  Q 385.56 498.27 385.98 498.20
  L 388.31 497.84
  Q 388.79 497.76 389.09 497.38
  L 391.21 494.72
  Q 391.42 494.46 391.75 494.39
  Q 391.92 494.36 392.07 494.26
  Q 392.38 494.02 392.56 493.63
  Q 394.11 490.23 394.94 486.81
  C 395.30 485.34 396.28 484.56 396.58 483.07
  Q 396.74 482.32 397.34 481.82
  Q 397.72 481.51 397.78 481.02
  Q 398.96 470.00 399.14 456.86
  Q 399.23 450.95 399.87 445.24
  Q 399.92 444.78 400.19 444.40
  Q 400.59 443.82 400.81 443.15
  Q 401.39 441.32 402.26 440.02
  Q 407.73 431.83 411.21 422.81
  Q 411.82 421.22 412.00 419.72
  Q 412.21 417.93 412.58 416.20
  Q 413.01 414.24 412.31 412.78
  Q 411.42 410.95 409.46 409.68
  Q 409.06 409.42 408.94 408.96
  Q 408.84 408.58 408.46 408.50
  Q 405.39 407.85 401.68 407.79
  Q 400.22 407.76 399.20 406.87
  Q 398.99 406.69 398.71 406.70
  Q 397.44 406.73 397.62 407.81
  Q 397.73 408.44 397.09 408.38
  Q 396.73 408.35 396.54 408.54"
/>
<path stroke="#9ba7e3" vector-effect="non-scaling-stroke" d="
  M 396.54 408.54
  L 396.62 391.59
  A 0.59 0.59 0.0 0 0 396.03 391.00
  L 341.52 391.00
  A 0.37 0.37 0.0 0 0 341.15 391.37
  L 341.21 409.05"
/>
<path stroke="#2c3f9c" vector-effect="non-scaling-stroke" d="
  M 341.21 409.05
  Q 338.30 407.90 335.55 408.32"
/>
<path stroke="#9ba7e3" vector-effect="non-scaling-stroke" d="
  M 335.55 408.32
  Q 335.49 408.31 335.44 408.30
  Q 335.33 408.29 335.33 408.17
  Q 335.25 399.70 335.34 391.36
  A 0.36 0.36 0.0 0 0 334.98 391.00
  L 286.53 391.00
  A 0.30 0.30 0.0 0 0 286.23 391.30
  L 286.19 410.60"
/>
<path stroke="#2c3f9c" vector-effect="non-scaling-stroke" d="
  M 286.19 410.60
  Q 287.19 407.34 280.39 407.81"
/>
<path stroke="#9ba7e3" vector-effect="non-scaling-stroke" d="
  M 280.39 407.81
  Q 280.45 406.68 279.99 406.24
  Q 272.36 398.89 264.99 391.71
  A 2.51 2.48 66.9 0 0 263.25 391.00
  L 225.06 391.00
  A 0.35 0.34 -90.0 0 0 224.72 391.35
  L 224.70 481.06
  A 0.90 0.90 0.0 0 0 225.59 481.96
  L 237.71 482.08"
/>
<path stroke="#9097b9" vector-effect="non-scaling-stroke" d="
  M 280.39 407.81
  L 280.31 428.17
  A 2.81 2.78 68.2 0 1 279.46 430.18
  L 265.02 444.29
  A 2.56 2.54 22.7 0 1 263.24 445.01
  L 244.25 444.97
  Q 243.72 444.97 243.72 445.50
  L 243.75 481.24
  A 0.72 0.71 89.2 0 1 243.06 481.96
  L 237.71 482.08"
/>
<path stroke="#212e72" vector-effect="non-scaling-stroke" d="
  M 288.50 482.11
  Q 288.72 483.23 286.87 482.50
  Q 286.58 482.39 286.56 482.70
  L 286.49 484.47
  Q 286.47 484.73 286.73 484.77
  Q 288.77 485.07 291.05 485.05
  Q 293.78 485.04 294.97 487.02
  Q 295.39 487.72 295.51 489.58
  Q 295.59 490.92 296.03 492.22"
/>
<path stroke="#9097b9" vector-effect="non-scaling-stroke" d="
  M 335.55 408.32
  Q 335.51 408.47 335.45 408.61
  Q 335.27 409.01 334.84 409.01
  L 305.78 409.00
  A 0.47 0.47 0.0 0 0 305.31 409.47
  L 305.31 426.53
  A 0.47 0.47 0.0 0 0 305.78 427.00
  L 329.04 427.00
  A 0.33 0.33 0.0 0 1 329.37 427.33
  L 329.36 444.45
  A 0.56 0.56 0.0 0 1 328.80 445.01
  L 305.75 444.97
  A 0.53 0.53 0.0 0 0 305.22 445.50
  L 305.29 463.54
  A 0.51 0.51 0.0 0 0 305.80 464.05
  L 334.60 463.88
  Q 335.33 463.88 335.33 464.60
  L 335.50 481.00
  A 1.11 1.11 0.0 0 1 334.39 482.12
  L 288.50 482.11"
/>
<path stroke="#9097b9" vector-effect="non-scaling-stroke" d="
  M 288.50 482.11
  Q 286.01 482.62 286.05 480.00
  Q 286.45 453.42 286.19 410.60"
/>
<path stroke="#9097b9" vector-effect="non-scaling-stroke" d="
  M 396.54 408.54
  Q 396.50 408.74 396.21 408.89
  Q 396.01 409.00 395.79 409.00
  Q 387.22 409.01 378.79 408.99
  A 0.29 0.29 0.0 0 0 378.50 409.28
  L 378.50 481.45
  Q 378.50 481.92 378.03 481.93
  L 361.81 482.11"
/>
<path stroke="#9097b9" vector-effect="non-scaling-stroke" d="
  M 359.35 438.76
  L 359.22 409.57
  Q 359.22 409.06 358.71 409.06
  L 341.21 409.05"
/>
<path stroke="#2c3f9c" vector-effect="non-scaling-stroke" d="
  M 296.62 508.38
  Q 296.70 508.56 296.62 508.76
  Q 296.44 509.20 296.91 509.14
  Q 297.06 509.12 297.21 509.13
  A 0.45 0.44 -84.3 0 0 297.67 508.75
  L 298.22 504.53
  Q 298.29 504.04 298.61 503.67
  Q 299.48 502.68 299.12 501.28
  A 0.98 0.98 0.0 0 0 297.44 500.88
  C 295.60 502.93 296.05 504.30 295.84 506.92
  Q 295.80 507.47 296.20 507.81
  Q 296.48 508.05 296.62 508.38"
/>
<path stroke="#2c3f9c" vector-effect="non-scaling-stroke" d="
  M 212.53 606.28
  Q 212.39 606.29 212.26 606.35
  Q 212.11 606.41 212.23 606.52
  Q 214.45 608.36 217.39 607.46
  Q 217.84 607.33 218.28 607.50
  L 223.17 609.49
  Q 223.60 609.67 224.05 609.53
  Q 225.77 608.98 227.05 609.84
  C 228.66 610.92 228.12 613.81 228.07 615.48
  Q 228.06 615.99 227.79 616.43
  Q 225.94 619.50 226.82 622.32
  Q 227.38 624.13 229.33 624.15
  A 1.32 1.26 -22.7 0 1 230.16 624.47
  Q 231.30 625.49 232.85 625.98
  Q 233.32 626.13 233.68 626.45
  Q 234.75 627.42 236.24 627.35
  Q 237.44 627.30 238.50 627.36
  C 239.93 627.45 240.84 626.81 242.36 627.00
  Q 244.49 627.27 246.47 627.70
  Q 247.75 627.98 249.14 627.83
  C 251.43 627.58 253.34 628.03 255.70 627.55
  Q 259.99 626.68 264.45 626.05
  Q 265.74 625.86 264.54 626.38
  Q 264.30 626.49 264.09 626.64
  Q 263.59 626.98 264.17 626.82
  Q 266.55 626.17 268.93 625.47
  Q 268.99 625.46 269.55 625.20
  Q 270.10 624.94 271.24 624.91
  C 276.16 624.76 280.32 624.34 283.58 626.33
  Q 284.04 626.62 284.58 626.64
  Q 285.66 626.68 286.67 627.10
  Q 292.17 629.36 294.36 629.32
  Q 298.61 629.24 302.76 629.16
  C 305.11 629.12 307.40 628.72 309.71 628.43
  Q 312.22 628.11 314.71 627.45
  Q 317.00 626.83 319.27 626.34
  Q 321.28 625.90 323.20 625.27
  Q 325.15 624.62 327.02 623.80
  Q 329.83 622.55 332.78 619.79
  Q 333.17 619.42 333.32 618.91
  Q 335.59 611.22 338.58 603.73
  Q 338.63 603.61 338.50 603.61
  Q 338.45 603.62 338.40 603.60
  Q 338.21 603.51 338.26 603.30
  Q 338.78 600.94 341.03 598.04
  Q 344.34 593.76 348.94 592.85
  Q 349.77 592.69 350.52 592.96
  Q 351.31 593.24 352.14 593.38
  A 1.24 1.22 -11.9 0 1 352.94 593.89
  L 354.99 596.92
  A 1.13 1.10 -5.8 0 0 355.54 597.36
  Q 356.02 597.54 356.37 597.96
  C 357.40 599.17 357.09 600.46 358.75 601.19
  A 1.97 1.94 83.8 0 1 359.58 601.87
  Q 360.35 602.97 361.11 604.22
  Q 361.88 605.47 362.87 606.51
  Q 365.61 609.36 368.41 612.32
  C 368.53 612.45 368.60 612.70 368.58 612.88
  Q 368.51 613.43 369.01 613.68
  Q 369.67 614.00 369.93 614.72
  Q 370.18 615.40 370.58 616.06
  Q 371.50 617.57 372.97 618.34
  Q 374.39 619.09 375.55 620.18
  Q 379.23 623.65 383.53 625.81
  C 384.37 626.24 385.21 626.21 386.04 626.70
  Q 386.41 626.92 386.85 626.95
  L 395.86 627.41
  Q 396.35 627.44 396.79 627.66
  Q 397.33 627.94 397.88 627.71
  C 399.03 627.23 400.51 627.37 401.77 627.24
  Q 402.99 627.12 404.18 626.63
  Q 406.75 625.59 409.08 624.76
  Q 409.39 624.65 409.61 624.41
  C 410.00 624.00 410.23 623.68 410.78 623.46
  Q 412.28 622.85 413.99 622.36
  Q 415.07 622.05 415.92 621.33
  Q 417.66 619.86 419.44 618.49
  C 420.41 617.74 420.85 616.62 421.31 615.51
  Q 421.50 615.06 421.83 614.72
  Q 422.82 613.70 423.44 612.06
  Q 425.59 606.43 426.25 603.16
  Q 427.43 597.36 427.81 588.31
  Q 427.83 587.87 427.66 587.47
  Q 427.56 587.24 427.57 587.00
  Q 427.85 574.59 427.35 561.71
  Q 427.27 559.60 426.70 557.36
  Q 426.18 555.30 425.84 553.14
  Q 425.37 550.16 423.94 547.57
  C 423.39 546.56 423.35 545.60 422.97 544.55
  Q 422.62 543.58 421.96 542.71
  Q 421.03 541.47 420.18 540.20
  Q 417.72 536.50 413.57 532.65
  Q 413.26 532.36 412.39 531.23
  Q 411.31 529.85 410.24 531.11"
/>
<path stroke="#9ba7e3" vector-effect="non-scaling-stroke" d="
  M 410.24 531.11
  Q 409.68 529.63 409.30 529.23
  Q 402.62 522.29 395.18 514.96
  A 3.41 3.39 -22.7 0 0 392.80 513.99
  L 372.25 514.01
  A 4.01 3.98 -67.7 0 0 369.39 515.22
  L 354.50 530.46"
/>
<path stroke="#2c3f9c" vector-effect="non-scaling-stroke" d="
  M 354.50 530.46
  Q 353.22 530.83 352.66 529.94
  Q 352.40 529.52 351.98 529.27
  Q 350.18 528.20 348.55 528.94"
/>
<path stroke="#9ba7e3" vector-effect="non-scaling-stroke" d="
  M 348.55 528.94
  L 348.49 515.51
  Q 348.49 515.01 347.99 515.01
  L 300.23 514.99
  A 0.86 0.85 -0.0 0 0 299.37 515.84
  L 299.44 533.88"
/>
<path stroke="#2c3f9c" vector-effect="non-scaling-stroke" d="
  M 299.44 533.88
  Q 299.53 530.06 293.64 529.89"
/>
<path stroke="#9ba7e3" vector-effect="non-scaling-stroke" d="
  M 293.64 529.89
  L 293.73 514.76
  A 0.76 0.76 0.0 0 0 292.97 514.00
  L 275.74 514.01
  A 1.12 1.12 0.0 0 0 274.62 515.13
  L 274.71 536.30"
/>
<path stroke="#2c3f9c" vector-effect="non-scaling-stroke" d="
  M 274.71 536.30
  Q 272.18 535.40 271.08 533.69
  Q 270.80 533.25 270.29 533.23
  L 263.79 532.97"
/>
<path stroke="#9ba7e3" vector-effect="non-scaling-stroke" d="
  M 263.79 532.97
  L 256.24 515.30
  Q 255.66 513.94 254.19 513.96
  L 237.18 514.13
  A 0.64 0.64 0.0 0 0 236.55 514.77
  L 236.49 535.89"
/>
<path stroke="#2c3f9c" vector-effect="non-scaling-stroke" d="
  M 236.49 535.89
  L 231.54 535.69
  Q 230.99 535.67 230.94 536.21
  L 230.79 537.71"
/>
<path stroke="#9ba7e3" vector-effect="non-scaling-stroke" d="
  M 230.79 537.71
  L 230.75 514.98
  A 0.96 0.96 0.0 0 0 229.79 514.02
  L 212.25 514.00
  Q 211.66 513.99 211.66 514.59
  Q 211.79 560.12 211.69 605.27
  Q 211.69 605.58 211.89 605.81
  Q 212.12 606.07 212.53 606.28"
/>
<path stroke="#9097b9" vector-effect="non-scaling-stroke" d="
  M 230.79 537.71
  L 230.76 605.42
  A 0.53 0.52 89.4 0 1 230.25 605.95
  L 212.53 606.28"
/>
<path stroke="#9097b9" vector-effect="non-scaling-stroke" d="
  M 348.55 528.94
  L 348.52 532.50
  Q 348.51 533.01 348.01 533.01
  L 319.19 533.01
  Q 318.63 533.01 318.63 533.56
  L 318.60 550.42
  Q 318.59 551.00 319.17 551.00
  L 342.07 550.99
  Q 342.65 550.99 342.65 551.57
  L 342.63 568.37
  Q 342.62 569.00 341.99 569.00
  L 319.19 569.00
  Q 318.62 568.99 318.62 569.56
  L 318.58 604.98
  A 1.00 0.99 -1.8 0 1 317.64 605.97
  Q 308.74 606.57 299.88 605.86
  A 0.43 0.43 0.0 0 1 299.48 605.43
  L 299.44 533.88"
/>
<path stroke="#9097b9" vector-effect="non-scaling-stroke" d="
  M 263.79 532.97
  L 274.37 557.39
  Q 274.83 558.46 274.82 557.30
  L 274.71 536.30"
/>
<path stroke="#9097b9" vector-effect="non-scaling-stroke" d="
  M 293.64 529.89
  L 293.57 605.61
  A 0.39 0.38 90.0 0 1 293.19 606.00
  L 275.37 606.00
  Q 274.64 605.99 274.36 605.33
  L 255.86 562.19
  Q 255.47 561.28 255.48 562.27
  L 255.62 605.56
  A 0.44 0.43 90.0 0 1 255.19 606.00
  L 237.06 605.99
  Q 236.52 605.99 236.52 605.45
  L 236.49 535.89"
/>
<path stroke="#9097b9" vector-effect="non-scaling-stroke" d="
  M 410.24 531.11
  L 410.40 588.76
  A 2.29 2.29 0.0 0 1 409.73 590.38
  L 395.07 605.16
  Q 394.26 605.98 393.11 605.98
  Q 382.99 605.98 372.86 605.98
  C 371.16 605.98 370.04 605.24 368.89 604.09
  Q 362.30 597.45 355.59 590.82
  Q 354.66 589.91 354.66 588.61
  L 354.50 530.46"
/>
<path stroke="#9097b9" vector-effect="non-scaling-stroke" d="
  M 243.73 409.40
  L 243.77 426.62
  A 0.42 0.42 0.0 0 0 244.19 427.03
  L 252.72 427.02
  A 8.85 8.83 89.9 0 0 261.53 418.15
  L 261.53 417.79
  A 8.85 8.83 89.9 0 0 252.68 408.96
  L 244.15 408.97
  A 0.42 0.42 0.0 0 0 243.73 409.40"
/>
<path stroke="#9097b9" vector-effect="non-scaling-stroke" d="
  M 391.2469 541.0146
  A 8.28 8.28 0.0 0 0 382.9525 532.7490
  L 381.8125 532.7510
  A 8.28 8.28 0.0 0 0 373.5469 541.0455
  L 373.6131 578.9654
  A 8.28 8.28 0.0 0 0 381.9075 587.2310
  L 383.0475 587.2290
  A 8.28 8.28 0.0 0 0 391.3131 578.9345
  L 391.2469 541.0146"
/>
</g>
<path fill="#364fc6" d="
  M 0.00 0.00
  L 612.00 0.00
  L 612.00 1080.00
  L 0.00 1080.00
  L 0.00 0.00
  Z
  M 237.71 482.08
  L 232.43 482.31
  Q 232.18 482.32 232.21 482.57
  L 232.28 483.09
  Q 232.31 483.33 232.55 483.35
  L 236.17 483.59
  A 2.71 2.68 -19.5 0 1 237.91 484.41
  Q 241.18 487.81 239.03 491.19
  Q 238.82 491.51 238.83 491.89
  Q 238.84 493.53 239.86 494.96
  Q 240.04 495.22 240.35 495.25
  Q 242.02 495.44 243.38 495.07
  Q 243.69 494.98 243.99 495.14
  Q 246.64 496.55 249.70 495.40
  Q 251.89 494.58 252.23 492.50
  Q 252.32 492.00 252.78 491.77
  Q 253.36 491.48 253.40 490.89
  Q 253.43 490.50 253.60 490.16
  L 254.90 487.62
  Q 255.10 487.22 254.90 486.82
  Q 253.45 483.85 255.58 481.37
  Q 255.90 481.00 255.88 480.51
  Q 255.86 479.97 256.17 479.49
  Q 256.49 478.98 257.08 478.83
  Q 257.86 478.62 258.35 477.97
  Q 258.65 477.58 259.13 477.66
  Q 261.59 478.04 262.78 476.79
  Q 264.36 475.12 265.93 473.50
  Q 267.15 472.25 268.88 471.49
  Q 270.50 470.78 272.13 469.90
  Q 272.34 469.78 272.38 469.54
  Q 272.45 469.12 272.84 468.96
  L 279.38 466.31
  Q 279.82 466.13 280.14 465.78
  Q 280.88 464.96 281.92 465.11
  Q 282.58 465.20 282.87 464.60
  Q 283.11 464.11 283.63 463.92
  Q 284.37 463.65 284.40 464.43
  L 284.94 480.22
  Q 284.96 480.78 285.38 481.13
  Q 285.96 481.61 286.15 482.47
  Q 286.27 483.00 286.15 483.53
  Q 285.98 484.25 286.22 484.91
  Q 286.38 485.34 286.84 485.36
  C 288.79 485.46 292.23 484.85 293.75 486.18
  Q 295.19 487.43 294.83 490.03
  Q 294.63 491.50 296.03 492.22
  Q 296.37 492.93 296.38 493.70
  Q 296.39 494.15 296.64 494.52
  L 297.94 496.53
  A 3.04 3.03 -21.3 0 0 301.02 497.88
  Q 303.68 497.42 305.58 499.33
  Q 306.10 499.85 306.80 500.08
  Q 308.22 500.56 309.62 501.38
  Q 310.41 501.84 310.92 502.47
  Q 311.46 503.12 312.33 503.27
  A 1.33 1.31 -7.5 0 1 313.29 504.00
  C 314.37 506.26 318.04 506.24 320.21 506.16
  Q 324.70 506.01 329.02 506.68
  Q 332.51 507.21 336.85 506.55
  Q 340.18 506.04 342.57 504.00
  Q 344.87 502.03 346.35 499.65
  Q 348.29 496.54 349.38 493.20
  Q 350.20 490.68 349.34 488.44
  C 348.76 486.92 348.90 485.15 347.41 484.09
  Q 345.49 482.74 343.68 481.04
  Q 341.96 479.42 341.28 477.15
  A 1.55 1.51 44.3 0 1 341.26 476.31
  Q 341.49 475.43 341.08 474.58
  Q 340.83 474.05 340.83 473.46
  Q 340.86 467.74 342.19 462.00
  C 342.43 460.93 342.25 459.95 342.56 458.93
  Q 342.92 457.75 342.90 456.57
  Q 342.75 449.18 341.42 441.75
  Q 341.36 441.42 341.51 441.13
  Q 341.61 440.92 341.53 440.72
  Q 340.72 438.77 341.40 436.68
  Q 342.06 434.64 344.19 433.81
  Q 346.66 432.85 349.49 433.44
  Q 351.76 433.91 353.85 434.54
  Q 354.46 434.72 354.33 435.35
  Q 354.24 435.78 354.67 435.87
  Q 356.12 436.15 357.00 437.58
  Q 357.47 438.33 357.88 438.64
  Q 359.58 439.94 359.35 438.76
  L 359.28 481.10
  Q 359.27 481.90 360.07 481.96
  L 361.81 482.11
  Q 361.94 482.92 362.03 483.80
  Q 362.11 484.69 362.38 485.44
  Q 363.76 489.40 365.19 491.64
  Q 366.57 493.83 370.51 496.06
  Q 373.06 497.50 375.45 497.67
  Q 379.34 497.93 382.83 499.23
  Q 384.32 499.79 385.29 498.60
  Q 385.56 498.27 385.98 498.20
  L 388.31 497.84
  Q 388.79 497.76 389.09 497.38
  L 391.21 494.72
  Q 391.42 494.46 391.75 494.39
  Q 391.92 494.36 392.07 494.26
  Q 392.38 494.02 392.56 493.63
  Q 394.11 490.23 394.94 486.81
  C 395.30 485.34 396.28 484.56 396.58 483.07
  Q 396.74 482.32 397.34 481.82
  Q 397.72 481.51 397.78 481.02
  Q 398.96 470.00 399.14 456.86
  Q 399.23 450.95 399.87 445.24
  Q 399.92 444.78 400.19 444.40
  Q 400.59 443.82 400.81 443.15
  Q 401.39 441.32 402.26 440.02
  Q 407.73 431.83 411.21 422.81
  Q 411.82 421.22 412.00 419.72
  Q 412.21 417.93 412.58 416.20
  Q 413.01 414.24 412.31 412.78
  Q 411.42 410.95 409.46 409.68
  Q 409.06 409.42 408.94 408.96
  Q 408.84 408.58 408.46 408.50
  Q 405.39 407.85 401.68 407.79
  Q 400.22 407.76 399.20 406.87
  Q 398.99 406.69 398.71 406.70
  Q 397.44 406.73 397.62 407.81
  Q 397.73 408.44 397.09 408.38
  Q 396.73 408.35 396.54 408.54
  L 396.62 391.59
  A 0.59 0.59 0.0 0 0 396.03 391.00
  L 341.52 391.00
  A 0.37 0.37 0.0 0 0 341.15 391.37
  L 341.21 409.05
  Q 338.30 407.90 335.55 408.32
  Q 335.49 408.31 335.44 408.30
  Q 335.33 408.29 335.33 408.17
  Q 335.25 399.70 335.34 391.36
  A 0.36 0.36 0.0 0 0 334.98 391.00
  L 286.53 391.00
  A 0.30 0.30 0.0 0 0 286.23 391.30
  L 286.19 410.60
  Q 287.19 407.34 280.39 407.81
  Q 280.45 406.68 279.99 406.24
  Q 272.36 398.89 264.99 391.71
  A 2.51 2.48 66.9 0 0 263.25 391.00
  L 225.06 391.00
  A 0.35 0.34 -90.0 0 0 224.72 391.35
  L 224.70 481.06
  A 0.90 0.90 0.0 0 0 225.59 481.96
  L 237.71 482.08
  Z
  M 296.62 508.38
  Q 296.70 508.56 296.62 508.76
  Q 296.44 509.20 296.91 509.14
  Q 297.06 509.12 297.21 509.13
  A 0.45 0.44 -84.3 0 0 297.67 508.75
  L 298.22 504.53
  Q 298.29 504.04 298.61 503.67
  Q 299.48 502.68 299.12 501.28
  A 0.98 0.98 0.0 0 0 297.44 500.88
  C 295.60 502.93 296.05 504.30 295.84 506.92
  Q 295.80 507.47 296.20 507.81
  Q 296.48 508.05 296.62 508.38
  Z
  M 212.53 606.28
  Q 212.39 606.29 212.26 606.35
  Q 212.11 606.41 212.23 606.52
  Q 214.45 608.36 217.39 607.46
  Q 217.84 607.33 218.28 607.50
  L 223.17 609.49
  Q 223.60 609.67 224.05 609.53
  Q 225.77 608.98 227.05 609.84
  C 228.66 610.92 228.12 613.81 228.07 615.48
  Q 228.06 615.99 227.79 616.43
  Q 225.94 619.50 226.82 622.32
  Q 227.38 624.13 229.33 624.15
  A 1.32 1.26 -22.7 0 1 230.16 624.47
  Q 231.30 625.49 232.85 625.98
  Q 233.32 626.13 233.68 626.45
  Q 234.75 627.42 236.24 627.35
  Q 237.44 627.30 238.50 627.36
  C 239.93 627.45 240.84 626.81 242.36 627.00
  Q 244.49 627.27 246.47 627.70
  Q 247.75 627.98 249.14 627.83
  C 251.43 627.58 253.34 628.03 255.70 627.55
  Q 259.99 626.68 264.45 626.05
  Q 265.74 625.86 264.54 626.38
  Q 264.30 626.49 264.09 626.64
  Q 263.59 626.98 264.17 626.82
  Q 266.55 626.17 268.93 625.47
  Q 268.99 625.46 269.55 625.20
  Q 270.10 624.94 271.24 624.91
  C 276.16 624.76 280.32 624.34 283.58 626.33
  Q 284.04 626.62 284.58 626.64
  Q 285.66 626.68 286.67 627.10
  Q 292.17 629.36 294.36 629.32
  Q 298.61 629.24 302.76 629.16
  C 305.11 629.12 307.40 628.72 309.71 628.43
  Q 312.22 628.11 314.71 627.45
  Q 317.00 626.83 319.27 626.34
  Q 321.28 625.90 323.20 625.27
  Q 325.15 624.62 327.02 623.80
  Q 329.83 622.55 332.78 619.79
  Q 333.17 619.42 333.32 618.91
  Q 335.59 611.22 338.58 603.73
  Q 338.63 603.61 338.50 603.61
  Q 338.45 603.62 338.40 603.60
  Q 338.21 603.51 338.26 603.30
  Q 338.78 600.94 341.03 598.04
  Q 344.34 593.76 348.94 592.85
  Q 349.77 592.69 350.52 592.96
  Q 351.31 593.24 352.14 593.38
  A 1.24 1.22 -11.9 0 1 352.94 593.89
  L 354.99 596.92
  A 1.13 1.10 -5.8 0 0 355.54 597.36
  Q 356.02 597.54 356.37 597.96
  C 357.40 599.17 357.09 600.46 358.75 601.19
  A 1.97 1.94 83.8 0 1 359.58 601.87
  Q 360.35 602.97 361.11 604.22
  Q 361.88 605.47 362.87 606.51
  Q 365.61 609.36 368.41 612.32
  C 368.53 612.45 368.60 612.70 368.58 612.88
  Q 368.51 613.43 369.01 613.68
  Q 369.67 614.00 369.93 614.72
  Q 370.18 615.40 370.58 616.06
  Q 371.50 617.57 372.97 618.34
  Q 374.39 619.09 375.55 620.18
  Q 379.23 623.65 383.53 625.81
  C 384.37 626.24 385.21 626.21 386.04 626.70
  Q 386.41 626.92 386.85 626.95
  L 395.86 627.41
  Q 396.35 627.44 396.79 627.66
  Q 397.33 627.94 397.88 627.71
  C 399.03 627.23 400.51 627.37 401.77 627.24
  Q 402.99 627.12 404.18 626.63
  Q 406.75 625.59 409.08 624.76
  Q 409.39 624.65 409.61 624.41
  C 410.00 624.00 410.23 623.68 410.78 623.46
  Q 412.28 622.85 413.99 622.36
  Q 415.07 622.05 415.92 621.33
  Q 417.66 619.86 419.44 618.49
  C 420.41 617.74 420.85 616.62 421.31 615.51
  Q 421.50 615.06 421.83 614.72
  Q 422.82 613.70 423.44 612.06
  Q 425.59 606.43 426.25 603.16
  Q 427.43 597.36 427.81 588.31
  Q 427.83 587.87 427.66 587.47
  Q 427.56 587.24 427.57 587.00
  Q 427.85 574.59 427.35 561.71
  Q 427.27 559.60 426.70 557.36
  Q 426.18 555.30 425.84 553.14
  Q 425.37 550.16 423.94 547.57
  C 423.39 546.56 423.35 545.60 422.97 544.55
  Q 422.62 543.58 421.96 542.71
  Q 421.03 541.47 420.18 540.20
  Q 417.72 536.50 413.57 532.65
  Q 413.26 532.36 412.39 531.23
  Q 411.31 529.85 410.24 531.11
  Q 409.68 529.63 409.30 529.23
  Q 402.62 522.29 395.18 514.96
  A 3.41 3.39 -22.7 0 0 392.80 513.99
  L 372.25 514.01
  A 4.01 3.98 -67.7 0 0 369.39 515.22
  L 354.50 530.46
  Q 353.22 530.83 352.66 529.94
  Q 352.40 529.52 351.98 529.27
  Q 350.18 528.20 348.55 528.94
  L 348.49 515.51
  Q 348.49 515.01 347.99 515.01
  L 300.23 514.99
  A 0.86 0.85 -0.0 0 0 299.37 515.84
  L 299.44 533.88
  Q 299.53 530.06 293.64 529.89
  L 293.73 514.76
  A 0.76 0.76 0.0 0 0 292.97 514.00
  L 275.74 514.01
  A 1.12 1.12 0.0 0 0 274.62 515.13
  L 274.71 536.30
  Q 272.18 535.40 271.08 533.69
  Q 270.80 533.25 270.29 533.23
  L 263.79 532.97
  L 256.24 515.30
  Q 255.66 513.94 254.19 513.96
  L 237.18 514.13
  A 0.64 0.64 0.0 0 0 236.55 514.77
  L 236.49 535.89
  L 231.54 535.69
  Q 230.99 535.67 230.94 536.21
  L 230.79 537.71
  L 230.75 514.98
  A 0.96 0.96 0.0 0 0 229.79 514.02
  L 212.25 514.00
  Q 211.66 513.99 211.66 514.59
  Q 211.79 560.12 211.69 605.27
  Q 211.69 605.58 211.89 605.81
  Q 212.12 606.07 212.53 606.28
  Z"
/>
<path fill="#ffffff" d="
  M 280.39 407.81
  L 280.31 428.17
  A 2.81 2.78 68.2 0 1 279.46 430.18
  L 265.02 444.29
  A 2.56 2.54 22.7 0 1 263.24 445.01
  L 244.25 444.97
  Q 243.72 444.97 243.72 445.50
  L 243.75 481.24
  A 0.72 0.71 89.2 0 1 243.06 481.96
  L 237.71 482.08
  L 225.59 481.96
  A 0.90 0.90 0.0 0 1 224.70 481.06
  L 224.72 391.35
  A 0.35 0.34 -90.0 0 1 225.06 391.00
  L 263.25 391.00
  A 2.51 2.48 66.9 0 1 264.99 391.71
  Q 272.36 398.89 279.99 406.24
  Q 280.45 406.68 280.39 407.81
  Z
  M 243.73 409.40
  L 243.77 426.62
  A 0.42 0.42 0.0 0 0 244.19 427.03
  L 252.72 427.02
  A 8.85 8.83 89.9 0 0 261.53 418.15
  L 261.53 417.79
  A 8.85 8.83 89.9 0 0 252.68 408.96
  L 244.15 408.97
  A 0.42 0.42 0.0 0 0 243.73 409.40
  Z"
/>
<path fill="#ffffff" d="
  M 335.55 408.32
  Q 335.51 408.47 335.45 408.61
  Q 335.27 409.01 334.84 409.01
  L 305.78 409.00
  A 0.47 0.47 0.0 0 0 305.31 409.47
  L 305.31 426.53
  A 0.47 0.47 0.0 0 0 305.78 427.00
  L 329.04 427.00
  A 0.33 0.33 0.0 0 1 329.37 427.33
  L 329.36 444.45
  A 0.56 0.56 0.0 0 1 328.80 445.01
  L 305.75 444.97
  A 0.53 0.53 0.0 0 0 305.22 445.50
  L 305.29 463.54
  A 0.51 0.51 0.0 0 0 305.80 464.05
  L 334.60 463.88
  Q 335.33 463.88 335.33 464.60
  L 335.50 481.00
  A 1.11 1.11 0.0 0 1 334.39 482.12
  L 288.50 482.11
  Q 286.01 482.62 286.05 480.00
  Q 286.45 453.42 286.19 410.60
  L 286.23 391.30
  A 0.30 0.30 0.0 0 1 286.53 391.00
  L 334.98 391.00
  A 0.36 0.36 0.0 0 1 335.34 391.36
  Q 335.25 399.70 335.33 408.17
  Q 335.33 408.29 335.44 408.30
  Q 335.49 408.31 335.55 408.32
  Z"
/>
<path fill="#ffffff" d="
  M 396.54 408.54
  Q 396.50 408.74 396.21 408.89
  Q 396.01 409.00 395.79 409.00
  Q 387.22 409.01 378.79 408.99
  A 0.29 0.29 0.0 0 0 378.50 409.28
  L 378.50 481.45
  Q 378.50 481.92 378.03 481.93
  L 361.81 482.11
  L 360.07 481.96
  Q 359.27 481.90 359.28 481.10
  L 359.35 438.76
  L 359.22 409.57
  Q 359.22 409.06 358.71 409.06
  L 341.21 409.05
  L 341.15 391.37
  A 0.37 0.37 0.0 0 1 341.52 391.00
  L 396.03 391.00
  A 0.59 0.59 0.0 0 1 396.62 391.59
  L 396.54 408.54
  Z"
/>
<path fill="#212e72" d="
  M 361.81 482.11
  L 378.03 481.93
  Q 378.50 481.92 378.50 481.45
  L 378.50 409.28
  A 0.29 0.29 0.0 0 1 378.79 408.99
  Q 387.22 409.01 395.79 409.00
  Q 396.01 409.00 396.21 408.89
  Q 396.50 408.74 396.54 408.54
  Q 396.73 408.35 397.09 408.38
  Q 397.73 408.44 397.62 407.81
  Q 397.44 406.73 398.71 406.70
  Q 398.99 406.69 399.20 406.87
  Q 400.22 407.76 401.68 407.79
  Q 405.39 407.85 408.46 408.50
  Q 408.84 408.58 408.94 408.96
  Q 409.06 409.42 409.46 409.68
  Q 411.42 410.95 412.31 412.78
  Q 413.01 414.24 412.58 416.20
  Q 412.21 417.93 412.00 419.72
  Q 411.82 421.22 411.21 422.81
  Q 407.73 431.83 402.26 440.02
  Q 401.39 441.32 400.81 443.15
  Q 400.59 443.82 400.19 444.40
  Q 399.92 444.78 399.87 445.24
  Q 399.23 450.95 399.14 456.86
  Q 398.96 470.00 397.78 481.02
  Q 397.72 481.51 397.34 481.82
  Q 396.74 482.32 396.58 483.07
  C 396.28 484.56 395.30 485.34 394.94 486.81
  Q 394.11 490.23 392.56 493.63
  Q 392.38 494.02 392.07 494.26
  Q 391.92 494.36 391.75 494.39
  Q 391.42 494.46 391.21 494.72
  L 389.09 497.38
  Q 388.79 497.76 388.31 497.84
  L 385.98 498.20
  Q 385.56 498.27 385.29 498.60
  Q 384.32 499.79 382.83 499.23
  Q 379.34 497.93 375.45 497.67
  Q 373.06 497.50 370.51 496.06
  Q 366.57 493.83 365.19 491.64
  Q 363.76 489.40 362.38 485.44
  Q 362.11 484.69 362.03 483.80
  Q 361.94 482.92 361.81 482.11
  Z"
/>
<path fill="#212e72" d="
  M 286.19 410.60
  Q 286.45 453.42 286.05 480.00
  Q 286.01 482.62 288.50 482.11
  Q 288.72 483.23 286.87 482.50
  Q 286.58 482.39 286.56 482.70
  L 286.49 484.47
  Q 286.47 484.73 286.73 484.77
  Q 288.77 485.07 291.05 485.05
  Q 293.78 485.04 294.97 487.02
  Q 295.39 487.72 295.51 489.58
  Q 295.59 490.92 296.03 492.22
  Q 294.63 491.50 294.83 490.03
  Q 295.19 487.43 293.75 486.18
  C 292.23 484.85 288.79 485.46 286.84 485.36
  Q 286.38 485.34 286.22 484.91
  Q 285.98 484.25 286.15 483.53
  Q 286.27 483.00 286.15 482.47
  Q 285.96 481.61 285.38 481.13
  Q 284.96 480.78 284.94 480.22
  L 284.40 464.43
  Q 284.37 463.65 283.63 463.92
  Q 283.11 464.11 282.87 464.60
  Q 282.58 465.20 281.92 465.11
  Q 280.88 464.96 280.14 465.78
  Q 279.82 466.13 279.38 466.31
  L 272.84 468.96
  Q 272.45 469.12 272.38 469.54
  Q 272.34 469.78 272.13 469.90
  Q 270.50 470.78 268.88 471.49
  Q 267.15 472.25 265.93 473.50
  Q 264.36 475.12 262.78 476.79
  Q 261.59 478.04 259.13 477.66
  Q 258.65 477.58 258.35 477.97
  Q 257.86 478.62 257.08 478.83
  Q 256.49 478.98 256.17 479.49
  Q 255.86 479.97 255.88 480.51
  Q 255.90 481.00 255.58 481.37
  Q 253.45 483.85 254.90 486.82
  Q 255.10 487.22 254.90 487.62
  L 253.60 490.16
  Q 253.43 490.50 253.40 490.89
  Q 253.36 491.48 252.78 491.77
  Q 252.32 492.00 252.23 492.50
  Q 251.89 494.58 249.70 495.40
  Q 246.64 496.55 243.99 495.14
  Q 243.69 494.98 243.38 495.07
  Q 242.02 495.44 240.35 495.25
  Q 240.04 495.22 239.86 494.96
  Q 238.84 493.53 238.83 491.89
  Q 238.82 491.51 239.03 491.19
  Q 241.18 487.81 237.91 484.41
  A 2.71 2.68 -19.5 0 0 236.17 483.59
  L 232.55 483.35
  Q 232.31 483.33 232.28 483.09
  L 232.21 482.57
  Q 232.18 482.32 232.43 482.31
  L 237.71 482.08
  L 243.06 481.96
  A 0.72 0.71 89.2 0 0 243.75 481.24
  L 243.72 445.50
  Q 243.72 444.97 244.25 444.97
  L 263.24 445.01
  A 2.56 2.54 22.7 0 0 265.02 444.29
  L 279.46 430.18
  A 2.81 2.78 68.2 0 0 280.31 428.17
  L 280.39 407.81
  Q 287.19 407.34 286.19 410.60
  Z"
/>
<path fill="#212e72" d="
  M 341.21 409.05
  L 358.71 409.06
  Q 359.22 409.06 359.22 409.57
  L 359.35 438.76
  Q 359.58 439.94 357.88 438.64
  Q 357.47 438.33 357.00 437.58
  Q 356.12 436.15 354.67 435.87
  Q 354.24 435.78 354.33 435.35
  Q 354.46 434.72 353.85 434.54
  Q 351.76 433.91 349.49 433.44
  Q 346.66 432.85 344.19 433.81
  Q 342.06 434.64 341.40 436.68
  Q 340.72 438.77 341.53 440.72
  Q 341.61 440.92 341.51 441.13
  Q 341.36 441.42 341.42 441.75
  Q 342.75 449.18 342.90 456.57
  Q 342.92 457.75 342.56 458.93
  C 342.25 459.95 342.43 460.93 342.19 462.00
  Q 340.86 467.74 340.83 473.46
  Q 340.83 474.05 341.08 474.58
  Q 341.49 475.43 341.26 476.31
  A 1.55 1.51 44.3 0 0 341.28 477.15
  Q 341.96 479.42 343.68 481.04
  Q 345.49 482.74 347.41 484.09
  C 348.90 485.15 348.76 486.92 349.34 488.44
  Q 350.20 490.68 349.38 493.20
  Q 348.29 496.54 346.35 499.65
  Q 344.87 502.03 342.57 504.00
  Q 340.18 506.04 336.85 506.55
  Q 332.51 507.21 329.02 506.68
  Q 324.70 506.01 320.21 506.16
  C 318.04 506.24 314.37 506.26 313.29 504.00
  A 1.33 1.31 -7.5 0 0 312.33 503.27
  Q 311.46 503.12 310.92 502.47
  Q 310.41 501.84 309.62 501.38
  Q 308.22 500.56 306.80 500.08
  Q 306.10 499.85 305.58 499.33
  Q 303.68 497.42 301.02 497.88
  A 3.04 3.03 -21.3 0 1 297.94 496.53
  L 296.64 494.52
  Q 296.39 494.15 296.38 493.70
  Q 296.37 492.93 296.03 492.22
  Q 295.59 490.92 295.51 489.58
  Q 295.39 487.72 294.97 487.02
  Q 293.78 485.04 291.05 485.05
  Q 288.77 485.07 286.73 484.77
  Q 286.47 484.73 286.49 484.47
  L 286.56 482.70
  Q 286.58 482.39 286.87 482.50
  Q 288.72 483.23 288.50 482.11
  L 334.39 482.12
  A 1.11 1.11 0.0 0 0 335.50 481.00
  L 335.33 464.60
  Q 335.33 463.88 334.60 463.88
  L 305.80 464.05
  A 0.51 0.51 0.0 0 1 305.29 463.54
  L 305.22 445.50
  A 0.53 0.53 0.0 0 1 305.75 444.97
  L 328.80 445.01
  A 0.56 0.56 0.0 0 0 329.36 444.45
  L 329.37 427.33
  A 0.33 0.33 0.0 0 0 329.04 427.00
  L 305.78 427.00
  A 0.47 0.47 0.0 0 1 305.31 426.53
  L 305.31 409.47
  A 0.47 0.47 0.0 0 1 305.78 409.00
  L 334.84 409.01
  Q 335.27 409.01 335.45 408.61
  Q 335.51 408.47 335.55 408.32
  Q 338.30 407.90 341.21 409.05
  Z"
/>
<path fill="#212e72" d="
  M 243.73 409.40
  A 0.42 0.42 0.0 0 1 244.15 408.97
  L 252.68 408.96
  A 8.85 8.83 89.9 0 1 261.53 417.79
  L 261.53 418.15
  A 8.85 8.83 89.9 0 1 252.72 427.02
  L 244.19 427.03
  A 0.42 0.42 0.0 0 1 243.77 426.62
  L 243.73 409.40
  Z"
/>
<path fill="#212e72" d="
  M 296.20 507.81
  Q 295.80 507.47 295.84 506.92
  C 296.05 504.30 295.60 502.93 297.44 500.88
  A 0.98 0.98 0.0 0 1 299.12 501.28
  Q 299.48 502.68 298.61 503.67
  Q 298.29 504.04 298.22 504.53
  L 297.67 508.75
  A 0.45 0.44 -84.3 0 1 297.21 509.13
  Q 297.06 509.12 296.91 509.14
  Q 296.44 509.20 296.62 508.76
  Q 296.70 508.56 296.62 508.38
  Q 296.48 508.05 296.20 507.81
  Z"
/>
<path fill="#ffffff" d="
  M 230.79 537.71
  L 230.76 605.42
  A 0.53 0.52 89.4 0 1 230.25 605.95
  L 212.53 606.28
  Q 212.12 606.07 211.89 605.81
  Q 211.69 605.58 211.69 605.27
  Q 211.79 560.12 211.66 514.59
  Q 211.66 513.99 212.25 514.00
  L 229.79 514.02
  A 0.96 0.96 0.0 0 1 230.75 514.98
  L 230.79 537.71
  Z"
/>
<path fill="#ffffff" d="
  M 263.79 532.97
  L 274.37 557.39
  Q 274.83 558.46 274.82 557.30
  L 274.71 536.30
  L 274.62 515.13
  A 1.12 1.12 0.0 0 1 275.74 514.01
  L 292.97 514.00
  A 0.76 0.76 0.0 0 1 293.73 514.76
  L 293.64 529.89
  L 293.57 605.61
  A 0.39 0.38 90.0 0 1 293.19 606.00
  L 275.37 606.00
  Q 274.64 605.99 274.36 605.33
  L 255.86 562.19
  Q 255.47 561.28 255.48 562.27
  L 255.62 605.56
  A 0.44 0.43 90.0 0 1 255.19 606.00
  L 237.06 605.99
  Q 236.52 605.99 236.52 605.45
  L 236.49 535.89
  L 236.55 514.77
  A 0.64 0.64 0.0 0 1 237.18 514.13
  L 254.19 513.96
  Q 255.66 513.94 256.24 515.30
  L 263.79 532.97
  Z"
/>
<path fill="#ffffff" d="
  M 410.24 531.11
  L 410.40 588.76
  A 2.29 2.29 0.0 0 1 409.73 590.38
  L 395.07 605.16
  Q 394.26 605.98 393.11 605.98
  Q 382.99 605.98 372.86 605.98
  C 371.16 605.98 370.04 605.24 368.89 604.09
  Q 362.30 597.45 355.59 590.82
  Q 354.66 589.91 354.66 588.61
  L 354.50 530.46
  L 369.39 515.22
  A 4.01 3.98 -67.7 0 1 372.25 514.01
  L 392.80 513.99
  A 3.41 3.39 -22.7 0 1 395.18 514.96
  Q 402.62 522.29 409.30 529.23
  Q 409.68 529.63 410.24 531.11
  Z
  M 391.2469 541.0146
  A 8.28 8.28 0.0 0 0 382.9525 532.7490
  L 381.8125 532.7510
  A 8.28 8.28 0.0 0 0 373.5469 541.0455
  L 373.6131 578.9654
  A 8.28 8.28 0.0 0 0 381.9075 587.2310
  L 383.0475 587.2290
  A 8.28 8.28 0.0 0 0 391.3131 578.9345
  L 391.2469 541.0146
  Z"
/>
<path fill="#ffffff" d="
  M 348.55 528.94
  L 348.52 532.50
  Q 348.51 533.01 348.01 533.01
  L 319.19 533.01
  Q 318.63 533.01 318.63 533.56
  L 318.60 550.42
  Q 318.59 551.00 319.17 551.00
  L 342.07 550.99
  Q 342.65 550.99 342.65 551.57
  L 342.63 568.37
  Q 342.62 569.00 341.99 569.00
  L 319.19 569.00
  Q 318.62 568.99 318.62 569.56
  L 318.58 604.98
  A 1.00 0.99 -1.8 0 1 317.64 605.97
  Q 308.74 606.57 299.88 605.86
  A 0.43 0.43 0.0 0 1 299.48 605.43
  L 299.44 533.88
  L 299.37 515.84
  A 0.86 0.85 0.0 0 1 300.23 514.99
  L 347.99 515.01
  Q 348.49 515.01 348.49 515.51
  L 348.55 528.94
  Z"
/>
<path fill="#212e72" d="
  M 354.50 530.46
  L 354.66 588.61
  Q 354.66 589.91 355.59 590.82
  Q 362.30 597.45 368.89 604.09
  C 370.04 605.24 371.16 605.98 372.86 605.98
  Q 382.99 605.98 393.11 605.98
  Q 394.26 605.98 395.07 605.16
  L 409.73 590.38
  A 2.29 2.29 0.0 0 0 410.40 588.76
  L 410.24 531.11
  Q 411.31 529.85 412.39 531.23
  Q 413.26 532.36 413.57 532.65
  Q 417.72 536.50 420.18 540.20
  Q 421.03 541.47 421.96 542.71
  Q 422.62 543.58 422.97 544.55
  C 423.35 545.60 423.39 546.56 423.94 547.57
  Q 425.37 550.16 425.84 553.14
  Q 426.18 555.30 426.70 557.36
  Q 427.27 559.60 427.35 561.71
  Q 427.85 574.59 427.57 587.00
  Q 427.56 587.24 427.66 587.47
  Q 427.83 587.87 427.81 588.31
  Q 427.43 597.36 426.25 603.16
  Q 425.59 606.43 423.44 612.06
  Q 422.82 613.70 421.83 614.72
  Q 421.50 615.06 421.31 615.51
  C 420.85 616.62 420.41 617.74 419.44 618.49
  Q 417.66 619.86 415.92 621.33
  Q 415.07 622.05 413.99 622.36
  Q 412.28 622.85 410.78 623.46
  C 410.23 623.68 410.00 624.00 409.61 624.41
  Q 409.39 624.65 409.08 624.76
  Q 406.75 625.59 404.18 626.63
  Q 402.99 627.12 401.77 627.24
  C 400.51 627.37 399.03 627.23 397.88 627.71
  Q 397.33 627.94 396.79 627.66
  Q 396.35 627.44 395.86 627.41
  L 386.85 626.95
  Q 386.41 626.92 386.04 626.70
  C 385.21 626.21 384.37 626.24 383.53 625.81
  Q 379.23 623.65 375.55 620.18
  Q 374.39 619.09 372.97 618.34
  Q 371.50 617.57 370.58 616.06
  Q 370.18 615.40 369.93 614.72
  Q 369.67 614.00 369.01 613.68
  Q 368.51 613.43 368.58 612.88
  C 368.60 612.70 368.53 612.45 368.41 612.32
  Q 365.61 609.36 362.87 606.51
  Q 361.88 605.47 361.11 604.22
  Q 360.35 602.97 359.58 601.87
  A 1.97 1.94 83.8 0 0 358.75 601.19
  C 357.09 600.46 357.40 599.17 356.37 597.96
  Q 356.02 597.54 355.54 597.36
  A 1.13 1.10 -5.8 0 1 354.99 596.92
  L 352.94 593.89
  A 1.24 1.22 -11.9 0 0 352.14 593.38
  Q 351.31 593.24 350.52 592.96
  Q 349.77 592.69 348.94 592.85
  Q 344.34 593.76 341.03 598.04
  Q 338.78 600.94 338.26 603.30
  Q 338.21 603.51 338.40 603.60
  Q 338.45 603.62 338.50 603.61
  Q 338.63 603.61 338.58 603.73
  Q 335.59 611.22 333.32 618.91
  Q 333.17 619.42 332.78 619.79
  Q 329.83 622.55 327.02 623.80
  Q 325.15 624.62 323.20 625.27
  Q 321.28 625.90 319.27 626.34
  Q 317.00 626.83 314.71 627.45
  Q 312.22 628.11 309.71 628.43
  C 307.40 628.72 305.11 629.12 302.76 629.16
  Q 298.61 629.24 294.36 629.32
  Q 292.17 629.36 286.67 627.10
  Q 285.66 626.68 284.58 626.64
  Q 284.04 626.62 283.58 626.33
  C 280.32 624.34 276.16 624.76 271.24 624.91
  Q 270.10 624.94 269.55 625.20
  Q 268.99 625.46 268.93 625.47
  Q 266.55 626.17 264.17 626.82
  Q 263.59 626.98 264.09 626.64
  Q 264.30 626.49 264.54 626.38
  Q 265.74 625.86 264.45 626.05
  Q 259.99 626.68 255.70 627.55
  C 253.34 628.03 251.43 627.58 249.14 627.83
  Q 247.75 627.98 246.47 627.70
  Q 244.49 627.27 242.36 627.00
  C 240.84 626.81 239.93 627.45 238.50 627.36
  Q 237.44 627.30 236.24 627.35
  Q 234.75 627.42 233.68 626.45
  Q 233.32 626.13 232.85 625.98
  Q 231.30 625.49 230.16 624.47
  A 1.32 1.26 -22.7 0 0 229.33 624.15
  Q 227.38 624.13 226.82 622.32
  Q 225.94 619.50 227.79 616.43
  Q 228.06 615.99 228.07 615.48
  C 228.12 613.81 228.66 610.92 227.05 609.84
  Q 225.77 608.98 224.05 609.53
  Q 223.60 609.67 223.17 609.49
  L 218.28 607.50
  Q 217.84 607.33 217.39 607.46
  Q 214.45 608.36 212.23 606.52
  Q 212.11 606.41 212.26 606.35
  Q 212.39 606.29 212.53 606.28
  L 230.25 605.95
  A 0.53 0.52 89.4 0 0 230.76 605.42
  L 230.79 537.71
  L 230.94 536.21
  Q 230.99 535.67 231.54 535.69
  L 236.49 535.89
  L 236.52 605.45
  Q 236.52 605.99 237.06 605.99
  L 255.19 606.00
  A 0.44 0.43 90.0 0 0 255.62 605.56
  L 255.48 562.27
  Q 255.47 561.28 255.86 562.19
  L 274.36 605.33
  Q 274.64 605.99 275.37 606.00
  L 293.19 606.00
  A 0.39 0.38 -90.0 0 0 293.57 605.61
  L 293.64 529.89
  Q 299.53 530.06 299.44 533.88
  L 299.48 605.43
  A 0.43 0.43 0.0 0 0 299.88 605.86
  Q 308.74 606.57 317.64 605.97
  A 1.00 0.99 -1.8 0 0 318.58 604.98
  L 318.62 569.56
  Q 318.62 568.99 319.19 569.00
  L 341.99 569.00
  Q 342.62 569.00 342.63 568.37
  L 342.65 551.57
  Q 342.65 550.99 342.07 550.99
  L 319.17 551.00
  Q 318.59 551.00 318.60 550.42
  L 318.63 533.56
  Q 318.63 533.01 319.19 533.01
  L 348.01 533.01
  Q 348.51 533.01 348.52 532.50
  L 348.55 528.94
  Q 350.18 528.20 351.98 529.27
  Q 352.40 529.52 352.66 529.94
  Q 353.22 530.83 354.50 530.46
  Z"
/>
<path fill="#212e72" d="
  M 263.79 532.97
  L 270.29 533.23
  Q 270.80 533.25 271.08 533.69
  Q 272.18 535.40 274.71 536.30
  L 274.82 557.30
  Q 274.83 558.46 274.37 557.39
  L 263.79 532.97
  Z"
/>
<rect fill="#212e72" x="-8.85" y="-27.24" transform="translate(382.43,559.99) rotate(-0.1)" width="17.70" height="54.48" rx="8.28"/>
</svg>
