<?xml version="1.0" encoding="UTF-8" standalone="no"?>
<!DOCTYPE svg PUBLIC "-//W3C//DTD SVG 1.1//EN" "http://www.w3.org/Graphics/SVG/1.1/DTD/svg11.dtd">
<svg xmlns="http://www.w3.org/2000/svg" version="1.1" viewBox="0.00 0.00 612.00 1080.00">
<g stroke-width="2.00" fill="none" stroke-linecap="butt">
<path stroke="#212121" vector-effect="non-scaling-stroke" d="
  M 310.21 413.49
  Q 309.72 411.32 309.92 409.56
  Q 310.03 408.55 309.08 408.91
  Q 307.04 409.68 306.02 408.99
  Q 305.66 408.75 305.23 408.86
  Q 304.81 408.97 304.27 408.67"
/>
<path stroke="#949494" vector-effect="non-scaling-stroke" d="
  M 304.27 408.67
  L 304.34 391.37
  A 0.36 0.36 0.0 0 0 303.98 391.00
  L 255.70 391.00
  A 0.45 0.45 0.0 0 0 255.25 391.45
  L 255.20 410.22"
/>
<path stroke="#212121" vector-effect="non-scaling-stroke" d="
  M 255.20 410.22
  Q 255.41 408.28 254.29 408.00
  Q 253.81 407.87 253.45 408.22
  Q 252.32 409.33 249.25 408.86"
/>
<path stroke="#949494" vector-effect="non-scaling-stroke" d="
  M 249.25 408.86
  L 249.24 391.51
  Q 249.24 391.00 248.73 391.00
  L 194.33 391.00
  Q 193.66 391.00 193.66 391.67
  L 193.71 408.73
  A 0.27 0.27 0.0 0 0 193.98 409.00
  L 211.74 409.00
  A 0.49 0.48 -90.0 0 1 212.22 409.49
  L 212.19 481.53
  A 0.48 0.47 -0.0 0 0 212.67 482.00
  L 220.75 482.01"
/>
<path stroke="#212121" vector-effect="non-scaling-stroke" d="
  M 220.75 482.01
  Q 220.23 482.41 220.25 482.72
  Q 220.26 482.85 220.35 482.95
  Q 221.45 484.15 222.56 484.43
  Q 222.77 484.48 222.88 484.66
  Q 223.20 485.21 223.32 485.80
  A 2.94 2.91 -66.5 0 0 223.67 486.70
  Q 226.12 490.84 227.99 494.20
  Q 228.85 495.76 230.61 496.57
  Q 230.84 496.68 231.09 496.73
  Q 231.78 496.88 231.92 496.58
  Q 232.20 495.95 232.76 496.36
  Q 234.19 497.39 235.79 496.55
  Q 237.61 495.60 239.37 494.53
  Q 239.77 494.28 239.87 493.82
  Q 239.92 493.55 240.13 493.39
  Q 244.33 490.14 244.13 484.89
  A 1.63 1.57 61.1 0 1 244.38 483.96
  Q 245.11 482.82 245.11 481.57
  Q 245.13 463.30 245.11 447.66
  Q 245.11 447.15 245.61 447.06
  Q 245.78 447.03 245.87 446.90
  Q 246.17 446.49 246.14 445.97
  Q 246.06 444.24 246.17 442.67
  Q 246.21 442.18 246.68 442.00
  Q 247.12 441.83 247.10 441.36
  Q 247.08 440.47 247.73 439.80
  Q 248.22 439.31 248.16 438.61
  Q 248.06 437.24 249.32 436.99
  Q 249.82 436.89 250.00 436.42
  L 251.45 432.77
  Q 251.65 432.27 252.16 432.40
  Q 252.93 432.59 253.37 431.81
  A 0.39 0.38 -59.2 0 1 253.92 431.67
  L 254.29 431.90
  Q 254.60 432.11 254.57 432.48
  Q 254.47 433.51 255.25 433.81"
/>
<path stroke="#949494" vector-effect="non-scaling-stroke" d="
  M 255.25 433.81
  L 255.30 482.01"
/>
<path stroke="#212121" vector-effect="non-scaling-stroke" d="
  M 255.30 482.01
  Q 255.51 483.03 256.80 482.94
  Q 257.35 482.89 257.69 483.33
  Q 258.16 483.93 258.97 484.08
  A 1.27 1.27 0.0 0 1 259.97 485.02
  Q 260.33 486.40 261.41 487.32
  Q 261.82 487.66 261.92 488.18
  Q 262.33 490.26 263.64 492.10
  Q 263.94 492.51 263.88 493.03
  Q 263.80 493.72 264.24 494.33
  Q 265.84 496.57 267.50 498.53
  Q 268.47 499.69 270.96 501.19
  Q 275.44 503.89 279.51 504.28
  Q 280.02 504.33 280.46 504.58
  Q 281.34 505.07 282.43 505.09
  Q 290.78 505.23 297.22 505.01
  Q 303.51 504.78 311.58 501.14
  Q 311.80 501.05 311.90 500.83
  Q 311.96 500.71 312.02 500.59
  Q 312.14 500.35 312.40 500.25
  Q 314.65 499.43 316.79 498.55
  Q 319.60 497.41 322.67 497.31
  Q 324.23 497.26 325.80 498.08
  Q 327.43 498.92 329.01 499.10
  Q 330.28 499.25 331.50 499.65
  Q 335.24 500.89 338.83 502.70
  Q 340.75 503.67 343.15 503.86
  Q 349.76 504.38 355.23 503.91
  Q 355.97 503.84 356.73 503.55
  Q 357.44 503.27 358.16 503.01
  Q 359.21 502.63 360.29 502.75
  Q 361.68 502.90 362.88 501.74
  Q 363.33 501.30 363.96 501.36
  Q 364.83 501.44 365.31 500.66
  Q 365.59 500.21 366.10 500.35
  Q 367.26 500.66 368.20 500.06
  Q 368.59 499.80 369.06 499.74
  L 376.38 498.76
  Q 376.87 498.70 377.29 498.96
  Q 377.64 499.17 378.05 499.13
  Q 383.26 498.69 387.51 500.46
  Q 388.01 500.67 388.55 500.60
  Q 389.52 500.48 390.45 500.73
  Q 391.52 501.03 392.68 500.98
  Q 399.65 500.65 404.93 496.13
  C 405.83 495.36 406.73 495.19 407.63 494.48
  Q 408.49 493.80 409.69 493.55
  Q 414.18 492.60 418.34 494.93
  C 419.18 495.39 419.67 496.29 420.62 496.74
  Q 421.06 496.95 421.38 497.32
  Q 424.08 500.43 427.18 500.06
  Q 428.78 499.86 430.42 499.71
  Q 432.10 499.55 433.46 498.60
  C 436.58 496.41 438.83 493.26 440.40 489.74
  Q 441.75 486.71 442.34 482.54
  Q 443.32 475.57 443.09 468.51
  Q 443.09 468.36 443.19 468.26
  Q 443.23 468.22 443.27 468.17
  Q 443.43 467.98 443.43 467.74
  Q 443.13 450.81 443.13 435.40
  Q 443.13 430.61 442.55 426.20
  Q 441.76 420.11 439.37 415.33
  Q 438.09 412.77 437.99 409.84
  Q 437.97 409.26 437.57 408.83
  L 435.41 406.45
  A 1.12 1.08 70.9 0 0 434.70 406.09
  Q 431.02 405.69 429.28 408.21
  Q 429.03 408.57 429.00 408.13
  Q 428.99 408.00 428.77 408.05
  Q 428.55 408.12 428.54 408.35
  L 427.35 461.31"
/>
<path stroke="#949494" vector-effect="non-scaling-stroke" d="
  M 427.35 461.31
  L 427.14 390.44
  A 0.43 0.43 0.0 0 0 426.71 390.01
  L 408.55 390.00
  A 0.33 0.33 0.0 0 0 408.22 390.33
  L 408.21 406.59"
/>
<path stroke="#212121" vector-effect="non-scaling-stroke" d="
  M 408.21 406.59
  Q 407.51 405.59 406.85 405.40
  Q 406.12 405.19 406.12 405.94
  L 406.12 406.51
  A 0.25 0.25 0.0 0 1 405.74 406.72
  Q 405.59 406.63 405.42 406.62
  Q 405.03 406.58 404.85 406.24
  Q 403.51 403.70 401.43 402.36
  Q 400.15 401.54 398.66 400.36
  Q 397.19 399.20 395.26 398.93
  Q 390.92 398.33 390.64 399.82"
/>
<path stroke="#949494" vector-effect="non-scaling-stroke" d="
  M 390.64 399.82
  L 390.61 390.35
  A 0.35 0.35 0.0 0 0 390.26 390.00
  L 371.78 390.01
  A 0.31 0.30 -0.0 0 0 371.47 390.31
  L 371.49 419.20"
/>
<path stroke="#212121" vector-effect="non-scaling-stroke" d="
  M 371.49 419.20
  Q 369.71 419.11 368.24 419.58
  Q 367.55 419.80 367.22 419.66
  Q 366.71 419.46 366.38 418.83
  Q 366.12 418.35 365.87 418.84
  Q 365.52 419.52 365.60 420.93"
/>
<path stroke="#949494" vector-effect="non-scaling-stroke" d="
  M 365.60 420.93
  L 365.53 406.52
  A 1.33 1.33 0.0 0 0 365.14 405.58
  L 350.00 390.33
  A 1.13 1.11 67.1 0 0 349.21 390.00
  L 326.59 390.00
  Q 326.09 390.00 325.73 390.35
  L 310.69 405.48
  A 1.34 1.33 68.2 0 0 310.30 406.40
  L 310.21 413.49"
/>
<path stroke="#8d8d8d" vector-effect="non-scaling-stroke" d="
  M 365.60 420.93
  L 347.72 420.86
  Q 346.70 420.86 346.71 419.83
  L 346.76 414.54
  Q 346.77 413.92 346.32 413.48
  L 341.96 409.21
  Q 341.53 408.80 340.93 408.79
  L 335.01 408.77
  A 2.14 2.12 -67.7 0 0 333.45 409.43
  L 329.67 413.33
  Q 329.12 413.90 329.12 414.68
  L 329.12 457.66
  Q 329.12 458.24 329.53 458.66
  L 333.73 462.91
  A 1.16 1.15 66.6 0 0 334.57 463.25
  L 341.73 463.14"
/>
<path stroke="#949494" vector-effect="non-scaling-stroke" d="
  M 341.73 463.14
  L 346.43 458.28
  Q 346.76 457.94 346.75 457.45
  L 346.64 451.83
  A 0.78 0.78 0.0 0 1 347.42 451.04
  L 365.22 451.01
  A 0.47 0.47 0.0 0 1 365.69 451.48
  L 365.74 457.93"
/>
<path stroke="#8d8d8d" vector-effect="non-scaling-stroke" d="
  M 365.74 457.93
  L 365.71 465.13
  A 1.92 1.91 68.0 0 1 365.15 466.46
  L 350.30 481.34
  A 2.22 2.19 -67.5 0 1 348.73 482.00
  L 326.78 482.00
  Q 325.95 482.00 325.37 481.42
  L 310.58 466.57
  A 1.38 1.37 -67.2 0 1 310.19 465.61
  L 310.21 413.49"
/>
<path stroke="#212121" vector-effect="non-scaling-stroke" d="
  M 365.74 457.93
  L 369.11 456.03
  A 1.16 1.15 -15.6 0 1 370.83 456.99
  L 371.38 472.76"
/>
<path stroke="#212121" vector-effect="non-scaling-stroke" d="
  M 371.43 449.46
  L 371.14 453.79
  Q 371.09 454.55 370.42 454.19
  L 370.08 454.01
  Q 369.80 453.86 369.83 453.54
  L 370.07 450.58
  Q 370.11 450.06 369.90 449.59
  Q 369.23 448.12 369.96 446.83
  Q 370.20 446.42 370.09 445.95
  Q 369.59 443.74 369.63 441.31
  C 369.67 438.84 367.88 437.52 365.66 436.96
  Q 358.21 435.08 352.26 435.11
  Q 351.75 435.11 351.34 435.42
  Q 350.61 435.95 349.64 436.05
  A 5.50 4.07 -77.1 0 0 345.88 439.27
  Q 345.61 439.88 344.95 439.95
  A 0.80 0.79 -88.5 0 0 344.26 440.61
  Q 344.06 441.76 343.52 442.73
  Q 341.80 445.86 341.61 450.20
  A 0.95 0.93 68.9 0 1 341.35 450.80
  Q 340.93 451.25 341.19 451.79
  A 0.97 0.86 -57.5 0 1 341.27 452.29
  L 340.75 457.23
  Q 340.70 457.76 340.16 457.73
  Q 339.99 457.71 339.79 457.63
  A 0.04 0.04 0.0 0 0 339.75 457.69
  Q 340.32 458.19 340.26 458.71
  A 2.80 2.24 -80.6 0 0 341.92 461.67
  Q 342.17 461.72 341.73 463.14"
/>
<path stroke="#8d8d8d" vector-effect="non-scaling-stroke" d="
  M 304.27 408.67
  L 274.73 409.00
  A 0.45 0.44 90.0 0 0 274.29 409.45
  L 274.26 426.76
  A 0.25 0.25 0.0 0 0 274.51 427.01
  L 297.90 427.00
  A 0.40 0.39 -90.0 0 1 298.29 427.40
  L 298.27 444.49
  A 0.51 0.51 0.0 0 1 297.76 445.00
  L 274.50 445.00
  A 0.25 0.24 -90.0 0 0 274.26 445.25
  L 274.30 463.53
  A 0.48 0.47 0.0 0 0 274.78 464.00
  L 303.74 464.00
  Q 304.23 464.00 304.23 464.49
  L 304.32 481.29
  A 0.74 0.73 -90.0 0 1 303.59 482.03
  L 255.30 482.01"
/>
<path stroke="#8d8d8d" vector-effect="non-scaling-stroke" d="
  M 255.25 433.81
  L 255.20 410.22"
/>
<path stroke="#8d8d8d" vector-effect="non-scaling-stroke" d="
  M 390.64 399.82
  L 390.70 428.45
  A 0.55 0.55 0.0 0 0 391.25 429.00
  L 407.56 429.00
  Q 408.18 429.00 408.18 428.38
  L 408.21 406.59"
/>
<path stroke="#8d8d8d" vector-effect="non-scaling-stroke" d="
  M 427.35 461.31
  L 427.19 481.50
  A 0.50 0.50 0.0 0 1 426.70 482.00
  L 408.50 482.01
  A 0.26 0.25 -90.0 0 1 408.25 481.75
  L 408.26 447.50
  Q 408.26 447.00 407.75 447.00
  L 391.18 447.00
  Q 390.61 447.00 390.61 447.57
  L 390.59 481.37
  Q 390.59 482.00 389.97 482.00
  L 372.20 482.00
  Q 371.59 482.00 371.58 481.40
  L 371.38 472.76"
/>
<path stroke="#949494" vector-effect="non-scaling-stroke" d="
  M 371.38 472.76
  L 371.43 449.46"
/>
<path stroke="#8d8d8d" vector-effect="non-scaling-stroke" d="
  M 371.43 449.46
  L 371.49 419.20"
/>
<path stroke="#8d8d8d" vector-effect="non-scaling-stroke" d="
  M 249.25 408.86
  L 231.74 408.94
  A 0.54 0.53 -0.6 0 0 231.21 409.47
  L 231.17 481.45
  Q 231.17 481.90 230.72 481.91
  L 220.75 482.01"
/>
<path stroke="#949494" vector-effect="non-scaling-stroke" d="
  M 337.37 514.97
  L 286.77 515.00
  Q 286.24 515.00 286.24 515.53
  L 286.26 532.26
  Q 286.26 533.07 287.07 533.07
  L 304.49 533.07"
/>
<path stroke="#212121" vector-effect="non-scaling-stroke" d="
  M 304.49 533.07
  Q 303.81 533.84 303.65 534.43
  Q 303.53 534.88 303.07 534.79
  Q 302.25 534.62 301.75 534.08
  Q 301.38 533.68 301.26 534.21
  Q 301.06 535.06 301.60 535.60
  Q 301.97 535.97 301.54 536.26
  L 299.91 537.34
  A 1.25 1.14 -86.3 0 0 299.63 537.61
  Q 298.51 539.17 296.84 539.37
  Q 295.61 539.51 294.40 540.05
  Q 291.59 541.29 288.47 540.78
  Q 284.80 540.19 281.49 541.56
  Q 281.03 541.75 280.93 542.24
  L 280.40 544.86"
/>
<path stroke="#949494" vector-effect="non-scaling-stroke" d="
  M 280.40 544.86
  L 280.38 531.02
  A 1.94 1.91 -67.8 0 0 279.82 529.66
  L 264.70 514.51
  A 1.74 1.74 0.0 0 0 263.47 514.00
  L 241.53 514.00
  A 1.75 1.71 -67.0 0 0 240.31 514.51
  L 225.34 529.56
  A 2.19 2.17 -22.7 0 0 224.70 531.10
  L 224.70 543.76"
/>
<path stroke="#212121" vector-effect="non-scaling-stroke" d="
  M 224.70 543.76
  Q 224.33 543.62 224.27 542.71
  Q 224.22 541.81 223.74 542.58
  Q 223.50 542.96 223.61 543.41
  Q 223.71 543.82 223.47 543.47
  Q 223.35 543.29 223.11 543.21
  Q 222.79 543.11 222.45 543.15
  Q 220.24 543.46 218.74 544.59"
/>
<path stroke="#949494" vector-effect="non-scaling-stroke" d="
  M 218.74 544.59
  L 218.74 530.82
  A 1.91 1.88 -67.6 0 0 218.20 529.49
  L 203.46 514.59
  A 2.02 2.00 67.3 0 0 202.04 514.00
  L 180.00 514.00
  A 1.74 1.74 0.0 0 0 178.77 514.51
  L 163.91 529.46
  A 2.22 2.19 -22.8 0 0 163.26 531.02
  L 163.19 543.27"
/>
<path stroke="#212121" vector-effect="non-scaling-stroke" d="
  M 163.19 543.27
  Q 163.25 540.40 159.50 544.77
  Q 159.00 545.36 158.66 544.67
  Q 158.58 544.50 158.58 544.30
  Q 158.59 543.67 158.23 544.18
  Q 158.02 544.48 158.10 544.84
  A 0.01 0.00 31.7 0 1 158.09 544.84
  Q 157.85 544.75 157.87 544.88
  Q 157.95 544.02 157.79 543.33
  Q 157.77 543.27 157.73 543.25
  Q 157.69 543.23 157.64 543.23
  Q 157.47 543.23 157.47 543.39
  Q 157.45 544.48 157.33 545.54"
/>
<path stroke="#949494" vector-effect="non-scaling-stroke" d="
  M 157.33 545.54
  L 157.30 531.41
  A 1.80 1.76 -68.6 0 0 156.77 530.16
  L 141.98 515.72
  A 2.51 2.50 -22.6 0 0 140.22 515.00
  L 102.04 515.00
  A 0.35 0.34 -90.0 0 0 101.70 515.35
  L 101.71 605.41
  A 0.61 0.61 0.0 0 0 102.32 606.02
  L 117.71 606.04"
/>
<path stroke="#212121" vector-effect="non-scaling-stroke" d="
  M 117.71 606.04
  L 117.13 606.16
  Q 116.49 606.30 116.97 606.75
  Q 117.32 607.09 117.73 606.93
  A 0.05 0.05 0.0 0 0 117.71 606.84
  Q 117.22 606.88 116.84 607.26
  Q 116.35 607.74 116.95 608.07
  L 117.81 608.54
  Q 118.20 608.75 118.43 609.13
  Q 118.99 610.05 119.89 610.87
  Q 120.23 611.18 120.33 611.62
  L 121.01 614.70
  A 2.07 2.07 0.0 0 0 124.07 616.05
  Q 125.74 615.10 126.58 613.60
  Q 127.71 611.56 128.56 609.02
  Q 129.92 604.97 131.01 601.54
  Q 132.06 598.24 134.48 594.69
  Q 136.75 591.36 139.57 589.05
  Q 143.68 585.69 149.00 583.06
  Q 149.49 582.82 150.04 582.88
  Q 151.09 583.00 151.90 582.31
  Q 152.24 582.02 152.68 581.93
  Q 155.09 581.46 157.70 579.88
  Q 158.23 579.55 158.85 579.62
  Q 159.65 579.71 159.88 578.93
  Q 159.95 578.72 160.15 578.64
  Q 160.29 578.58 160.44 578.58
  Q 160.92 578.58 161.03 579.04
  Q 161.08 579.26 161.23 579.44
  Q 161.84 580.21 161.89 579.23
  Q 161.90 578.94 161.99 578.67
  Q 162.19 578.10 162.17 578.70
  Q 162.16 579.03 162.44 579.24
  Q 162.85 579.57 163.07 579.10
  L 163.22 578.78"
/>
<path stroke="#949494" vector-effect="non-scaling-stroke" d="
  M 163.22 578.78
  L 163.43 589.36
  A 1.71 1.71 0.0 0 0 163.93 590.52
  L 176.79 603.43"
/>
<path stroke="#212121" vector-effect="non-scaling-stroke" d="
  M 176.79 603.43
  L 174.69 603.41
  A 0.69 0.69 0.0 0 0 174.22 604.61
  Q 175.75 606.03 176.15 607.81
  C 176.97 611.41 180.39 613.32 182.71 615.86
  Q 186.24 619.73 189.63 621.71
  Q 196.30 625.60 206.46 625.01
  C 207.84 624.93 208.64 623.91 210.19 624.08
  A 2.09 2.07 36.2 0 0 211.19 623.93
  Q 213.06 623.15 218.37 620.63
  Q 221.46 619.16 223.37 617.91
  Q 225.21 616.71 227.08 615.93
  Q 229.05 615.11 230.77 614.74
  Q 236.01 613.63 241.56 616.71
  C 246.29 619.34 250.74 622.55 256.22 623.96
  C 257.34 624.25 258.36 623.83 259.33 624.53
  Q 259.70 624.80 260.15 624.84
  Q 268.41 625.43 276.16 622.07
  Q 282.06 619.51 286.85 613.95
  Q 287.69 612.97 288.25 611.89
  Q 288.44 611.51 288.75 611.23
  Q 291.30 608.85 292.22 605.71
  Q 292.49 604.78 292.82 603.86
  Q 293.36 602.37 293.43 600.60
  Q 293.65 595.47 292.92 592.21
  Q 291.64 586.50 288.56 579.06
  Q 288.48 578.85 288.27 578.79
  Q 287.81 578.63 287.70 578.16
  Q 286.27 572.03 285.95 565.86
  Q 285.89 564.72 286.23 563.52
  C 286.92 561.07 289.35 560.13 290.66 558.03
  Q 291.83 556.17 294.09 555.25
  Q 296.01 554.47 297.95 553.96
  Q 298.49 553.82 299.03 553.99
  Q 300.27 554.38 301.50 553.69
  Q 301.73 553.57 301.96 553.68
  Q 302.01 553.71 302.05 553.75
  Q 302.65 554.33 302.92 553.53
  Q 303.08 553.07 303.11 552.66
  Q 303.13 552.50 303.13 552.66
  Q 303.23 555.36 304.48 554.66"
/>
<path stroke="#949494" vector-effect="non-scaling-stroke" d="
  M 304.48 554.66
  Q 304.52 579.55 304.36 604.75
  Q 304.35 606.04 304.93 606.01"
/>
<path stroke="#212121" vector-effect="non-scaling-stroke" d="
  M 304.93 606.01
  Q 305.03 606.47 305.26 606.84
  Q 305.52 607.25 306.00 607.32
  L 310.72 608.01
  A 1.04 1.04 0.0 0 1 311.61 609.03
  Q 311.62 609.78 312.12 610.32
  Q 314.64 613.03 318.26 614.10
  Q 321.56 615.08 321.92 617.47
  Q 322.00 617.99 322.42 618.32
  C 323.24 618.95 323.59 619.85 324.57 620.39
  Q 327.84 622.18 330.77 619.52
  C 332.50 617.94 334.50 615.00 336.55 612.58
  Q 339.65 608.93 339.08 604.26
  Q 339.02 603.72 339.34 603.28
  Q 340.24 602.06 339.77 600.66
  Q 339.46 599.72 339.43 598.64
  Q 339.12 587.04 339.10 575.29
  Q 339.09 573.50 339.67 571.89
  Q 340.33 570.02 340.08 568.18
  A 1.25 1.24 65.8 0 1 340.50 567.07
  C 341.42 566.27 341.03 564.99 341.37 563.88
  Q 343.12 558.17 347.68 556.47"
/>
<path stroke="#949494" vector-effect="non-scaling-stroke" d="
  M 347.68 556.47
  L 347.63 605.30
  Q 347.63 605.78 348.04 606.01
  Q 348.25 606.12 348.43 606.05"
/>
<path stroke="#212121" vector-effect="non-scaling-stroke" d="
  M 348.43 606.05
  Q 349.55 607.80 352.51 608.74
  Q 353.34 609.00 353.92 610.44
  Q 354.10 610.90 354.47 611.23
  Q 355.57 612.22 356.60 613.33
  Q 357.68 614.50 358.83 615.51
  Q 361.08 617.48 362.82 619.99
  Q 364.68 622.68 366.95 623.95
  Q 368.83 625.00 371.29 625.65
  Q 375.14 626.68 378.75 626.82
  C 384.65 627.05 390.48 627.16 396.21 626.28
  Q 401.50 625.47 406.62 624.59
  Q 409.22 624.14 412.12 623.99
  Q 414.76 623.85 417.44 623.74
  Q 420.30 623.62 423.04 623.06
  Q 425.95 622.46 428.40 621.61
  Q 432.03 620.36 435.13 618.03
  Q 436.27 617.17 437.52 616.81
  Q 439.02 616.37 440.33 615.41
  Q 440.70 615.13 441.16 615.21
  Q 442.59 615.46 444.10 615.42
  Q 446.02 615.37 447.74 615.98
  Q 449.76 616.69 451.29 617.89
  Q 453.79 619.84 457.06 621.09
  Q 460.61 622.46 463.36 622.11
  Q 466.94 621.65 472.37 619.88
  Q 472.57 619.81 472.73 619.95
  Q 472.86 620.05 473.00 620.02
  Q 477.33 618.95 481.31 620.65
  C 482.58 621.20 483.85 621.11 485.15 621.74
  C 488.00 623.11 491.40 623.91 494.41 624.85
  Q 502.82 627.49 511.78 624.84
  Q 517.03 623.29 520.01 621.13
  Q 523.69 618.47 527.16 614.22
  Q 530.21 610.48 531.81 605.51
  Q 532.97 601.92 533.49 598.63
  Q 534.10 594.84 532.77 590.48
  Q 532.24 588.76 532.02 587.02
  Q 531.79 585.19 530.64 583.74
  Q 530.34 583.36 530.33 582.88
  Q 530.28 581.13 529.39 579.70
  Q 529.16 579.34 529.12 578.91
  Q 528.97 577.55 528.40 576.31
  Q 524.74 568.35 528.35 558.85
  Q 528.86 557.50 528.95 556.10
  C 529.11 553.69 529.54 551.37 529.12 549.17
  Q 528.41 545.41 526.36 542.23
  Q 526.13 541.87 526.12 541.45
  Q 526.12 541.22 526.12 540.99
  Q 526.12 540.53 525.88 540.12
  Q 524.03 536.86 522.66 535.11
  Q 521.68 533.86 519.70 533.09"
/>
<path stroke="#949494" vector-effect="non-scaling-stroke" d="
  M 519.70 533.09
  L 519.52 530.40
  Q 519.48 529.88 519.11 529.51
  L 504.30 514.66
  A 2.22 2.19 67.5 0 0 502.73 514.00
  L 480.95 514.00
  Q 480.11 514.00 479.52 514.59
  L 464.70 529.47
  A 1.74 1.74 0.0 0 0 464.19 530.70
  L 464.19 541.48"
/>
<path stroke="#212121" vector-effect="non-scaling-stroke" d="
  M 464.19 541.48
  L 463.95 540.68
  Q 463.82 540.23 463.39 540.41
  L 461.72 541.10
  Q 461.41 541.22 461.42 540.89
  Q 461.43 540.62 461.22 540.59
  Q 460.63 540.49 460.39 541.04
  Q 460.05 541.86 459.28 541.37
  Q 458.65 540.97 458.61 541.72
  L 458.18 549.23"
/>
<path stroke="#949494" vector-effect="non-scaling-stroke" d="
  M 458.18 549.23
  L 458.11 531.35
  Q 458.10 530.66 457.61 530.18
  L 442.67 515.60
  A 2.15 2.13 -22.7 0 0 441.18 515.00
  L 403.17 515.00
  Q 402.56 515.00 402.55 515.61
  L 402.45 520.97"
/>
<path stroke="#212121" vector-effect="non-scaling-stroke" d="
  M 402.45 520.97
  L 402.16 515.64
  Q 402.13 515.17 401.69 515.31
  Q 399.78 515.93 397.85 515.96
  Q 397.46 515.96 397.20 516.25
  Q 397.05 516.42 396.79 516.54"
/>
<path stroke="#949494" vector-effect="non-scaling-stroke" d="
  M 396.79 516.54
  Q 396.87 515.99 396.75 515.57
  Q 396.61 515.06 396.08 515.06
  L 351.28 515.02"
/>
<path stroke="#212121" vector-effect="non-scaling-stroke" d="
  M 351.28 515.02
  Q 351.11 513.98 350.46 513.87
  Q 349.63 513.73 349.53 513.69
  Q 348.58 513.30 347.51 513.41
  Q 346.93 513.47 347.30 513.90
  Q 347.42 514.03 347.28 514.28
  Q 347.07 514.64 346.65 514.71
  L 343.78 515.14
  Q 343.44 515.19 343.18 514.95
  L 342.05 513.88
  Q 341.76 513.60 341.35 513.60
  Q 338.38 513.58 337.37 514.97"
/>
<path stroke="#8d8d8d" vector-effect="non-scaling-stroke" d="
  M 351.28 515.02
  L 348.24 515.13
  Q 347.69 515.15 347.69 515.69
  L 347.68 556.47"
/>
<path stroke="#8d8d8d" vector-effect="non-scaling-stroke" d="
  M 304.93 606.01
  L 323.09 605.91
  Q 323.60 605.90 323.60 605.40
  L 323.60 533.58
  Q 323.60 533.00 324.17 533.00
  L 341.25 533.00
  Q 341.75 533.00 341.75 532.50
  L 341.76 515.67
  Q 341.76 515.05 341.14 515.04
  L 337.37 514.97"
/>
<path stroke="#8d8d8d" vector-effect="non-scaling-stroke" d="
  M 396.79 516.54
  L 396.77 532.46
  A 0.54 0.54 0.0 0 1 396.23 533.00
  L 367.25 533.00
  Q 366.75 533.00 366.75 533.50
  L 366.74 550.49
  Q 366.74 551.00 367.24 551.00
  L 390.25 551.00
  Q 390.75 551.00 390.75 551.50
  L 390.75 568.50
  Q 390.75 569.00 390.25 569.00
  L 367.25 569.00
  Q 366.74 569.00 366.74 569.50
  L 366.75 587.50
  Q 366.75 588.00 367.25 588.00
  L 396.51 588.00
  A 0.26 0.25 -90.0 0 1 396.76 588.26
  L 396.75 605.46
  Q 396.75 605.99 396.22 605.99
  L 348.43 606.05"
/>
<path stroke="#8d8d8d" vector-effect="non-scaling-stroke" d="
  M 304.48 554.66
  L 304.49 533.07"
/>
<path stroke="#8d8d8d" vector-effect="non-scaling-stroke" d="
  M 402.45 520.97
  L 402.44 605.45
  A 0.56 0.55 -0.0 0 0 403.00 606.00
  L 421.01 606.00
  Q 421.62 606.00 421.62 605.39
  L 421.62 569.19
  A 0.18 0.18 0.0 0 1 421.80 569.01
  L 432.76 569.00
  Q 433.60 568.99 434.24 569.54
  C 435.91 570.97 439.27 573.65 439.27 576.13
  Q 439.24 592.03 439.26 605.72
  A 0.28 0.28 0.0 0 0 439.54 606.00
  L 457.73 606.00
  A 0.48 0.48 0.0 0 0 458.20 605.52
  L 458.15 567.36
  Q 458.15 566.65 457.64 566.16
  L 451.62 560.42
  A 0.53 0.53 0.0 0 1 451.62 559.66
  L 457.80 553.67
  Q 458.18 553.29 458.18 552.75
  L 458.18 549.23"
/>
<path stroke="#8d8d8d" vector-effect="non-scaling-stroke" d="
  M 519.70 533.09
  L 519.67 544.50
  Q 519.67 545.00 519.18 545.00
  L 501.33 544.91
  A 0.58 0.58 0.0 0 1 500.75 544.33
  L 500.75 538.72
  A 1.98 1.97 -67.8 0 0 500.16 537.31
  L 495.96 533.21
  Q 495.53 532.80 494.93 532.80
  L 488.70 532.79
  A 1.45 1.43 22.2 0 0 487.68 533.21
  L 483.60 537.35
  Q 483.16 537.79 483.16 538.41
  L 483.07 544.64
  Q 483.07 545.27 483.51 545.74
  L 487.89 550.32
  Q 488.26 550.70 488.78 550.70
  L 502.87 550.71
  A 1.74 1.74 0.0 0 1 504.10 551.22
  L 519.22 566.34
  Q 519.62 566.74 519.62 567.30
  L 519.59 589.37
  Q 519.59 589.98 519.16 590.41
  L 504.36 605.34
  A 2.26 2.24 -67.4 0 1 502.77 606.00
  L 480.72 606.00
  Q 480.09 606.00 479.65 605.56
  L 464.66 590.53
  Q 464.21 590.08 464.21 589.45
  L 464.18 575.60
  A 0.60 0.59 90.0 0 1 464.77 575.00
  L 482.73 575.00
  Q 483.22 575.00 483.22 575.48
  L 483.21 581.53
  Q 483.21 582.17 483.65 582.64
  L 487.67 586.80
  Q 488.07 587.23 488.66 587.22
  L 494.97 587.18
  A 1.68 1.65 -67.5 0 0 496.12 586.69
  L 500.19 582.60
  Q 500.68 582.12 500.68 581.44
  L 500.72 575.32
  Q 500.73 574.66 500.26 574.20
  Q 498.48 572.44 496.56 570.44
  C 495.54 569.39 494.19 569.22 492.80 569.25
  Q 486.73 569.41 480.73 569.31
  A 1.37 1.33 67.4 0 1 479.80 568.91
  L 464.60 553.66
  Q 464.25 553.31 464.25 552.81
  L 464.19 541.48"
/>
<path stroke="#8d8d8d" vector-effect="non-scaling-stroke" d="
  M 218.74 544.59
  L 218.83 589.50
  A 1.34 1.30 -23.1 0 1 218.44 590.43
  L 203.31 605.62
  A 1.33 1.29 21.8 0 1 202.38 606.00
  Q 191.79 605.98 180.99 606.02
  C 179.13 606.02 177.90 604.76 176.79 603.43"
/>
<path stroke="#8d8d8d" vector-effect="non-scaling-stroke" d="
  M 163.22 578.78
  L 163.19 543.27"
/>
<path stroke="#8d8d8d" vector-effect="non-scaling-stroke" d="
  M 280.40 544.86
  L 262.36 544.88
  Q 261.49 544.88 261.48 544.01
  L 261.43 538.64
  A 1.51 1.50 -68.1 0 0 260.99 537.60
  L 256.65 533.29
  Q 256.15 532.79 255.45 532.79
  L 249.62 532.79
  Q 248.83 532.79 248.27 533.35
  L 244.24 537.43
  A 1.77 1.75 67.5 0 0 243.74 538.66
  L 243.75 544.73
  A 1.31 1.27 -67.3 0 0 244.10 545.62
  L 248.31 550.11
  A 1.86 1.86 0.0 0 0 249.66 550.69
  L 263.53 550.72
  A 1.79 1.77 -22.3 0 1 264.79 551.24
  L 279.84 566.33
  A 1.83 1.81 -67.4 0 1 280.37 567.64
  L 280.29 589.23
  A 1.54 1.52 -22.8 0 1 279.84 590.31
  L 264.87 605.42
  A 1.96 1.94 22.0 0 1 263.48 606.00
  L 241.51 606.00
  A 1.78 1.76 67.3 0 1 240.26 605.48
  L 225.08 590.18
  Q 224.69 589.80 224.69 589.25
  L 224.68 575.60
  Q 224.68 575.00 225.28 575.00
  L 243.00 575.00
  Q 243.75 575.00 243.75 575.75
  L 243.74 581.54
  A 1.26 1.25 22.7 0 0 244.11 582.43
  L 248.33 586.72
  Q 248.84 587.23 249.57 587.23
  L 255.28 587.21
  Q 256.15 587.21 256.76 586.60
  L 260.89 582.51
  Q 261.43 581.98 261.43 581.22
  L 261.41 575.47
  Q 261.41 574.67 260.85 574.10
  L 256.83 570.07
  A 2.61 2.59 -22.4 0 0 254.99 569.31
  L 241.47 569.33
  A 1.36 1.33 -22.1 0 1 240.52 568.94
  L 225.10 553.45
  Q 224.75 553.09 224.74 552.58
  L 224.70 543.76"
/>
<path stroke="#8d8d8d" vector-effect="non-scaling-stroke" d="
  M 157.33 545.54
  L 157.23 552.93
  Q 157.23 553.46 156.85 553.83
  L 142.01 568.29
  Q 141.27 569.01 140.24 569.01
  L 121.25 569.00
  Q 120.75 569.00 120.75 569.50
  L 120.75 605.29
  A 0.56 0.56 0.0 0 1 120.23 605.85
  L 117.71 606.04"
/>
<path stroke="#212121" vector-effect="non-scaling-stroke" d="
  M 329.5966 441.6996
  A 0.22 0.22 0.0 0 0 329.3762 441.4800
  L 329.3762 441.4800
  A 0.22 0.22 0.0 0 0 329.1566 441.7004
  L 329.1834 457.0404
  A 0.22 0.22 0.0 0 0 329.4038 457.2600
  L 329.4038 457.2600
  A 0.22 0.22 0.0 0 0 329.6234 457.0396
  L 329.5966 441.6996"
/>
<path stroke="#8d8d8d" vector-effect="non-scaling-stroke" d="
  M 195.46 586.60
  L 199.32 582.67
  Q 199.73 582.25 199.73 581.66
  Q 199.83 561.66 199.83 539.11
  Q 199.83 537.89 198.98 537.04
  Q 197.04 535.11 195.05 533.19
  Q 194.66 532.80 194.10 532.80
  L 187.80 532.81
  A 1.26 1.25 -67.3 0 0 186.91 533.18
  L 182.94 537.18
  A 2.23 2.22 -22.8 0 0 182.30 538.74
  L 182.29 581.14
  A 2.18 2.15 -67.8 0 0 182.92 582.67
  L 186.98 586.72
  Q 187.50 587.24 188.23 587.23
  L 194.10 587.18
  A 1.94 1.94 0.0 0 0 195.46 586.60"
/>
<path stroke="#8d8d8d" vector-effect="non-scaling-stroke" d="
  M 120.75 533.42
  L 120.75 550.60
  A 0.45 0.45 0.0 0 0 121.20 551.05
  L 129.61 551.05
  A 8.88 8.68 -0.0 0 0 138.49 542.37
  L 138.49 541.65
  A 8.88 8.68 0.0 0 0 129.61 532.97
  L 121.20 532.97
  A 0.45 0.45 0.0 0 0 120.75 533.42"
/>
<path stroke="#8d8d8d" vector-effect="non-scaling-stroke" d="
  M 421.61 533.43
  L 421.59 550.53
  A 0.48 0.48 0.0 0 0 422.06 551.02
  L 430.50 551.03
  A 8.78 8.52 0.1 0 0 439.30 542.53
  L 439.30 541.51
  A 8.78 8.52 0.1 0 0 430.54 532.97
  L 422.10 532.96
  A 0.48 0.48 0.0 0 0 421.61 533.43"
/>
</g>
<path fill="#282828" d="
  M 0.00 0.00
  L 612.00 0.00
  L 612.00 1080.00
  L 0.00 1080.00
  L 0.00 0.00
  Z
  M 310.21 413.49
  Q 309.72 411.32 309.92 409.56
  Q 310.03 408.55 309.08 408.91
  Q 307.04 409.68 306.02 408.99
  Q 305.66 408.75 305.23 408.86
  Q 304.81 408.97 304.27 408.67
  L 304.34 391.37
  A 0.36 0.36 0.0 0 0 303.98 391.00
  L 255.70 391.00
  A 0.45 0.45 0.0 0 0 255.25 391.45
  L 255.20 410.22
  Q 255.41 408.28 254.29 408.00
  Q 253.81 407.87 253.45 408.22
  Q 252.32 409.33 249.25 408.86
  L 249.24 391.51
  Q 249.24 391.00 248.73 391.00
  L 194.33 391.00
  Q 193.66 391.00 193.66 391.67
  L 193.71 408.73
  A 0.27 0.27 0.0 0 0 193.98 409.00
  L 211.74 409.00
  A 0.49 0.48 -90.0 0 1 212.22 409.49
  L 212.19 481.53
  A 0.48 0.47 -0.0 0 0 212.67 482.00
  L 220.75 482.01
  Q 220.23 482.41 220.25 482.72
  Q 220.26 482.85 220.35 482.95
  Q 221.45 484.15 222.56 484.43
  Q 222.77 484.48 222.88 484.66
  Q 223.20 485.21 223.32 485.80
  A 2.94 2.91 -66.5 0 0 223.67 486.70
  Q 226.12 490.84 227.99 494.20
  Q 228.85 495.76 230.61 496.57
  Q 230.84 496.68 231.09 496.73
  Q 231.78 496.88 231.92 496.58
  Q 232.20 495.95 232.76 496.36
  Q 234.19 497.39 235.79 496.55
  Q 237.61 495.60 239.37 494.53
  Q 239.77 494.28 239.87 493.82
  Q 239.92 493.55 240.13 493.39
  Q 244.33 490.14 244.13 484.89
  A 1.63 1.57 61.1 0 1 244.38 483.96
  Q 245.11 482.82 245.11 481.57
  Q 245.13 463.30 245.11 447.66
  Q 245.11 447.15 245.61 447.06
  Q 245.78 447.03 245.87 446.90
  Q 246.17 446.49 246.14 445.97
  Q 246.06 444.24 246.17 442.67
  Q 246.21 442.18 246.68 442.00
  Q 247.12 441.83 247.10 441.36
  Q 247.08 440.47 247.73 439.80
  Q 248.22 439.31 248.16 438.61
  Q 248.06 437.24 249.32 436.99
  Q 249.82 436.89 250.00 436.42
  L 251.45 432.77
  Q 251.65 432.27 252.16 432.40
  Q 252.93 432.59 253.37 431.81
  A 0.39 0.38 -59.2 0 1 253.92 431.67
  L 254.29 431.90
  Q 254.60 432.11 254.57 432.48
  Q 254.47 433.51 255.25 433.81
  L 255.30 482.01
  Q 255.51 483.03 256.80 482.94
  Q 257.35 482.89 257.69 483.33
  Q 258.16 483.93 258.97 484.08
  A 1.27 1.27 0.0 0 1 259.97 485.02
  Q 260.33 486.40 261.41 487.32
  Q 261.82 487.66 261.92 488.18
  Q 262.33 490.26 263.64 492.10
  Q 263.94 492.51 263.88 493.03
  Q 263.80 493.72 264.24 494.33
  Q 265.84 496.57 267.50 498.53
  Q 268.47 499.69 270.96 501.19
  Q 275.44 503.89 279.51 504.28
  Q 280.02 504.33 280.46 504.58
  Q 281.34 505.07 282.43 505.09
  Q 290.78 505.23 297.22 505.01
  Q 303.51 504.78 311.58 501.14
  Q 311.80 501.05 311.90 500.83
  Q 311.96 500.71 312.02 500.59
  Q 312.14 500.35 312.40 500.25
  Q 314.65 499.43 316.79 498.55
  Q 319.60 497.41 322.67 497.31
  Q 324.23 497.26 325.80 498.08
  Q 327.43 498.92 329.01 499.10
  Q 330.28 499.25 331.50 499.65
  Q 335.24 500.89 338.83 502.70
  Q 340.75 503.67 343.15 503.86
  Q 349.76 504.38 355.23 503.91
  Q 355.97 503.84 356.73 503.55
  Q 357.44 503.27 358.16 503.01
  Q 359.21 502.63 360.29 502.75
  Q 361.68 502.90 362.88 501.74
  Q 363.33 501.30 363.96 501.36
  Q 364.83 501.44 365.31 500.66
  Q 365.59 500.21 366.10 500.35
  Q 367.26 500.66 368.20 500.06
  Q 368.59 499.80 369.06 499.74
  L 376.38 498.76
  Q 376.87 498.70 377.29 498.96
  Q 377.64 499.17 378.05 499.13
  Q 383.26 498.69 387.51 500.46
  Q 388.01 500.67 388.55 500.60
  Q 389.52 500.48 390.45 500.73
  Q 391.52 501.03 392.68 500.98
  Q 399.65 500.65 404.93 496.13
  C 405.83 495.36 406.73 495.19 407.63 494.48
  Q 408.49 493.80 409.69 493.55
  Q 414.18 492.60 418.34 494.93
  C 419.18 495.39 419.67 496.29 420.62 496.74
  Q 421.06 496.95 421.38 497.32
  Q 424.08 500.43 427.18 500.06
  Q 428.78 499.86 430.42 499.71
  Q 432.10 499.55 433.46 498.60
  C 436.58 496.41 438.83 493.26 440.40 489.74
  Q 441.75 486.71 442.34 482.54
  Q 443.32 475.57 443.09 468.51
  Q 443.09 468.36 443.19 468.26
  Q 443.23 468.22 443.27 468.17
  Q 443.43 467.98 443.43 467.74
  Q 443.13 450.81 443.13 435.40
  Q 443.13 430.61 442.55 426.20
  Q 441.76 420.11 439.37 415.33
  Q 438.09 412.77 437.99 409.84
  Q 437.97 409.26 437.57 408.83
  L 435.41 406.45
  A 1.12 1.08 70.9 0 0 434.70 406.09
  Q 431.02 405.69 429.28 408.21
  Q 429.03 408.57 429.00 408.13
  Q 428.99 408.00 428.77 408.05
  Q 428.55 408.12 428.54 408.35
  L 427.35 461.31
  L 427.14 390.44
  A 0.43 0.43 0.0 0 0 426.71 390.01
  L 408.55 390.00
  A 0.33 0.33 0.0 0 0 408.22 390.33
  L 408.21 406.59
  Q 407.51 405.59 406.85 405.40
  Q 406.12 405.19 406.12 405.94
  L 406.12 406.51
  A 0.25 0.25 0.0 0 1 405.74 406.72
  Q 405.59 406.63 405.42 406.62
  Q 405.03 406.58 404.85 406.24
  Q 403.51 403.70 401.43 402.36
  Q 400.15 401.54 398.66 400.36
  Q 397.19 399.20 395.26 398.93
  Q 390.92 398.33 390.64 399.82
  L 390.61 390.35
  A 0.35 0.35 0.0 0 0 390.26 390.00
  L 371.78 390.01
  A 0.31 0.30 -0.0 0 0 371.47 390.31
  L 371.49 419.20
  Q 369.71 419.11 368.24 419.58
  Q 367.55 419.80 367.22 419.66
  Q 366.71 419.46 366.38 418.83
  Q 366.12 418.35 365.87 418.84
  Q 365.52 419.52 365.60 420.93
  L 365.53 406.52
  A 1.33 1.33 0.0 0 0 365.14 405.58
  L 350.00 390.33
  A 1.13 1.11 67.1 0 0 349.21 390.00
  L 326.59 390.00
  Q 326.09 390.00 325.73 390.35
  L 310.69 405.48
  A 1.34 1.33 68.2 0 0 310.30 406.40
  L 310.21 413.49
  Z
  M 337.37 514.97
  L 286.77 515.00
  Q 286.24 515.00 286.24 515.53
  L 286.26 532.26
  Q 286.26 533.07 287.07 533.07
  L 304.49 533.07
  Q 303.81 533.84 303.65 534.43
  Q 303.53 534.88 303.07 534.79
  Q 302.25 534.62 301.75 534.08
  Q 301.38 533.68 301.26 534.21
  Q 301.06 535.06 301.60 535.60
  Q 301.97 535.97 301.54 536.26
  L 299.91 537.34
  A 1.25 1.14 -86.3 0 0 299.63 537.61
  Q 298.51 539.17 296.84 539.37
  Q 295.61 539.51 294.40 540.05
  Q 291.59 541.29 288.47 540.78
  Q 284.80 540.19 281.49 541.56
  Q 281.03 541.75 280.93 542.24
  L 280.40 544.86
  L 280.38 531.02
  A 1.94 1.91 -67.8 0 0 279.82 529.66
  L 264.70 514.51
  A 1.74 1.74 0.0 0 0 263.47 514.00
  L 241.53 514.00
  A 1.75 1.71 -67.0 0 0 240.31 514.51
  L 225.34 529.56
  A 2.19 2.17 -22.7 0 0 224.70 531.10
  L 224.70 543.76
  Q 224.33 543.62 224.27 542.71
  Q 224.22 541.81 223.74 542.58
  Q 223.50 542.96 223.61 543.41
  Q 223.71 543.82 223.47 543.47
  Q 223.35 543.29 223.11 543.21
  Q 222.79 543.11 222.45 543.15
  Q 220.24 543.46 218.74 544.59
  L 218.74 530.82
  A 1.91 1.88 -67.6 0 0 218.20 529.49
  L 203.46 514.59
  A 2.02 2.00 67.3 0 0 202.04 514.00
  L 180.00 514.00
  A 1.74 1.74 0.0 0 0 178.77 514.51
  L 163.91 529.46
  A 2.22 2.19 -22.8 0 0 163.26 531.02
  L 163.19 543.27
  Q 163.25 540.40 159.50 544.77
  Q 159.00 545.36 158.66 544.67
  Q 158.58 544.50 158.58 544.30
  Q 158.59 543.67 158.23 544.18
  Q 158.02 544.48 158.10 544.84
  A 0.01 0.00 31.7 0 1 158.09 544.84
  Q 157.85 544.75 157.87 544.88
  Q 157.95 544.02 157.79 543.33
  Q 157.77 543.27 157.73 543.25
  Q 157.69 543.23 157.64 543.23
  Q 157.47 543.23 157.47 543.39
  Q 157.45 544.48 157.33 545.54
  L 157.30 531.41
  A 1.80 1.76 -68.6 0 0 156.77 530.16
  L 141.98 515.72
  A 2.51 2.50 -22.6 0 0 140.22 515.00
  L 102.04 515.00
  A 0.35 0.34 -90.0 0 0 101.70 515.35
  L 101.71 605.41
  A 0.61 0.61 0.0 0 0 102.32 606.02
  L 117.71 606.04
  L 117.13 606.16
  Q 116.49 606.30 116.97 606.75
  Q 117.32 607.09 117.73 606.93
  A 0.05 0.05 0.0 0 0 117.71 606.84
  Q 117.22 606.88 116.84 607.26
  Q 116.35 607.74 116.95 608.07
  L 117.81 608.54
  Q 118.20 608.75 118.43 609.13
  Q 118.99 610.05 119.89 610.87
  Q 120.23 611.18 120.33 611.62
  L 121.01 614.70
  A 2.07 2.07 0.0 0 0 124.07 616.05
  Q 125.74 615.10 126.58 613.60
  Q 127.71 611.56 128.56 609.02
  Q 129.92 604.97 131.01 601.54
  Q 132.06 598.24 134.48 594.69
  Q 136.75 591.36 139.57 589.05
  Q 143.68 585.69 149.00 583.06
  Q 149.49 582.82 150.04 582.88
  Q 151.09 583.00 151.90 582.31
  Q 152.24 582.02 152.68 581.93
  Q 155.09 581.46 157.70 579.88
  Q 158.23 579.55 158.85 579.62
  Q 159.65 579.71 159.88 578.93
  Q 159.95 578.72 160.15 578.64
  Q 160.29 578.58 160.44 578.58
  Q 160.92 578.58 161.03 579.04
  Q 161.08 579.26 161.23 579.44
  Q 161.84 580.21 161.89 579.23
  Q 161.90 578.94 161.99 578.67
  Q 162.19 578.10 162.17 578.70
  Q 162.16 579.03 162.44 579.24
  Q 162.85 579.57 163.07 579.10
  L 163.22 578.78
  L 163.43 589.36
  A 1.71 1.71 0.0 0 0 163.93 590.52
  L 176.79 603.43
  L 174.69 603.41
  A 0.69 0.69 0.0 0 0 174.22 604.61
  Q 175.75 606.03 176.15 607.81
  C 176.97 611.41 180.39 613.32 182.71 615.86
  Q 186.24 619.73 189.63 621.71
  Q 196.30 625.60 206.46 625.01
  C 207.84 624.93 208.64 623.91 210.19 624.08
  A 2.09 2.07 36.2 0 0 211.19 623.93
  Q 213.06 623.15 218.37 620.63
  Q 221.46 619.16 223.37 617.91
  Q 225.21 616.71 227.08 615.93
  Q 229.05 615.11 230.77 614.74
  Q 236.01 613.63 241.56 616.71
  C 246.29 619.34 250.74 622.55 256.22 623.96
  C 257.34 624.25 258.36 623.83 259.33 624.53
  Q 259.70 624.80 260.15 624.84
  Q 268.41 625.43 276.16 622.07
  Q 282.06 619.51 286.85 613.95
  Q 287.69 612.97 288.25 611.89
  Q 288.44 611.51 288.75 611.23
  Q 291.30 608.85 292.22 605.71
  Q 292.49 604.78 292.82 603.86
  Q 293.36 602.37 293.43 600.60
  Q 293.65 595.47 292.92 592.21
  Q 291.64 586.50 288.56 579.06
  Q 288.48 578.85 288.27 578.79
  Q 287.81 578.63 287.70 578.16
  Q 286.27 572.03 285.95 565.86
  Q 285.89 564.72 286.23 563.52
  C 286.92 561.07 289.35 560.13 290.66 558.03
  Q 291.83 556.17 294.09 555.25
  Q 296.01 554.47 297.95 553.96
  Q 298.49 553.82 299.03 553.99
  Q 300.27 554.38 301.50 553.69
  Q 301.73 553.57 301.96 553.68
  Q 302.01 553.71 302.05 553.75
  Q 302.65 554.33 302.92 553.53
  Q 303.08 553.07 303.11 552.66
  Q 303.13 552.50 303.13 552.66
  Q 303.23 555.36 304.48 554.66
  Q 304.52 579.55 304.36 604.75
  Q 304.35 606.04 304.93 606.01
  Q 305.03 606.47 305.26 606.84
  Q 305.52 607.25 306.00 607.32
  L 310.72 608.01
  A 1.04 1.04 0.0 0 1 311.61 609.03
  Q 311.62 609.78 312.12 610.32
  Q 314.64 613.03 318.26 614.10
  Q 321.56 615.08 321.92 617.47
  Q 322.00 617.99 322.42 618.32
  C 323.24 618.95 323.59 619.85 324.57 620.39
  Q 327.84 622.18 330.77 619.52
  C 332.50 617.94 334.50 615.00 336.55 612.58
  Q 339.65 608.93 339.08 604.26
  Q 339.02 603.72 339.34 603.28
  Q 340.24 602.06 339.77 600.66
  Q 339.46 599.72 339.43 598.64
  Q 339.12 587.04 339.10 575.29
  Q 339.09 573.50 339.67 571.89
  Q 340.33 570.02 340.08 568.18
  A 1.25 1.24 65.8 0 1 340.50 567.07
  C 341.42 566.27 341.03 564.99 341.37 563.88
  Q 343.12 558.17 347.68 556.47
  L 347.63 605.30
  Q 347.63 605.78 348.04 606.01
  Q 348.25 606.12 348.43 606.05
  Q 349.55 607.80 352.51 608.74
  Q 353.34 609.00 353.92 610.44
  Q 354.10 610.90 354.47 611.23
  Q 355.57 612.22 356.60 613.33
  Q 357.68 614.50 358.83 615.51
  Q 361.08 617.48 362.82 619.99
  Q 364.68 622.68 366.95 623.95
  Q 368.83 625.00 371.29 625.65
  Q 375.14 626.68 378.75 626.82
  C 384.65 627.05 390.48 627.16 396.21 626.28
  Q 401.50 625.47 406.62 624.59
  Q 409.22 624.14 412.12 623.99
  Q 414.76 623.85 417.44 623.74
  Q 420.30 623.62 423.04 623.06
  Q 425.95 622.46 428.40 621.61
  Q 432.03 620.36 435.13 618.03
  Q 436.27 617.17 437.52 616.81
  Q 439.02 616.37 440.33 615.41
  Q 440.70 615.13 441.16 615.21
  Q 442.59 615.46 444.10 615.42
  Q 446.02 615.37 447.74 615.98
  Q 449.76 616.69 451.29 617.89
  Q 453.79 619.84 457.06 621.09
  Q 460.61 622.46 463.36 622.11
  Q 466.94 621.65 472.37 619.88
  Q 472.57 619.81 472.73 619.95
  Q 472.86 620.05 473.00 620.02
  Q 477.33 618.95 481.31 620.65
  C 482.58 621.20 483.85 621.11 485.15 621.74
  C 488.00 623.11 491.40 623.91 494.41 624.85
  Q 502.82 627.49 511.78 624.84
  Q 517.03 623.29 520.01 621.13
  Q 523.69 618.47 527.16 614.22
  Q 530.21 610.48 531.81 605.51
  Q 532.97 601.92 533.49 598.63
  Q 534.10 594.84 532.77 590.48
  Q 532.24 588.76 532.02 587.02
  Q 531.79 585.19 530.64 583.74
  Q 530.34 583.36 530.33 582.88
  Q 530.28 581.13 529.39 579.70
  Q 529.16 579.34 529.12 578.91
  Q 528.97 577.55 528.40 576.31
  Q 524.74 568.35 528.35 558.85
  Q 528.86 557.50 528.95 556.10
  C 529.11 553.69 529.54 551.37 529.12 549.17
  Q 528.41 545.41 526.36 542.23
  Q 526.13 541.87 526.12 541.45
  Q 526.12 541.22 526.12 540.99
  Q 526.12 540.53 525.88 540.12
  Q 524.03 536.86 522.66 535.11
  Q 521.68 533.86 519.70 533.09
  L 519.52 530.40
  Q 519.48 529.88 519.11 529.51
  L 504.30 514.66
  A 2.22 2.19 67.5 0 0 502.73 514.00
  L 480.95 514.00
  Q 480.11 514.00 479.52 514.59
  L 464.70 529.47
  A 1.74 1.74 0.0 0 0 464.19 530.70
  L 464.19 541.48
  L 463.95 540.68
  Q 463.82 540.23 463.39 540.41
  L 461.72 541.10
  Q 461.41 541.22 461.42 540.89
  Q 461.43 540.62 461.22 540.59
  Q 460.63 540.49 460.39 541.04
  Q 460.05 541.86 459.28 541.37
  Q 458.65 540.97 458.61 541.72
  L 458.18 549.23
  L 458.11 531.35
  Q 458.10 530.66 457.61 530.18
  L 442.67 515.60
  A 2.15 2.13 -22.7 0 0 441.18 515.00
  L 403.17 515.00
  Q 402.56 515.00 402.55 515.61
  L 402.45 520.97
  L 402.16 515.64
  Q 402.13 515.17 401.69 515.31
  Q 399.78 515.93 397.85 515.96
  Q 397.46 515.96 397.20 516.25
  Q 397.05 516.42 396.79 516.54
  Q 396.87 515.99 396.75 515.57
  Q 396.61 515.06 396.08 515.06
  L 351.28 515.02
  Q 351.11 513.98 350.46 513.87
  Q 349.63 513.73 349.53 513.69
  Q 348.58 513.30 347.51 513.41
  Q 346.93 513.47 347.30 513.90
  Q 347.42 514.03 347.28 514.28
  Q 347.07 514.64 346.65 514.71
  L 343.78 515.14
  Q 343.44 515.19 343.18 514.95
  L 342.05 513.88
  Q 341.76 513.60 341.35 513.60
  Q 338.38 513.58 337.37 514.97
  Z"
/>
<path fill="#ffffff" d="
  M 365.60 420.93
  L 347.72 420.86
  Q 346.70 420.86 346.71 419.83
  L 346.76 414.54
  Q 346.77 413.92 346.32 413.48
  L 341.96 409.21
  Q 341.53 408.80 340.93 408.79
  L 335.01 408.77
  A 2.14 2.12 -67.7 0 0 333.45 409.43
  L 329.67 413.33
  Q 329.12 413.90 329.12 414.68
  L 329.12 457.66
  Q 329.12 458.24 329.53 458.66
  L 333.73 462.91
  A 1.16 1.15 66.6 0 0 334.57 463.25
  L 341.73 463.14
  L 346.43 458.28
  Q 346.76 457.94 346.75 457.45
  L 346.64 451.83
  A 0.78 0.78 0.0 0 1 347.42 451.04
  L 365.22 451.01
  A 0.47 0.47 0.0 0 1 365.69 451.48
  L 365.74 457.93
  L 365.71 465.13
  A 1.92 1.91 68.0 0 1 365.15 466.46
  L 350.30 481.34
  A 2.22 2.19 -67.5 0 1 348.73 482.00
  L 326.78 482.00
  Q 325.95 482.00 325.37 481.42
  L 310.58 466.57
  A 1.38 1.37 -67.2 0 1 310.19 465.61
  L 310.21 413.49
  L 310.30 406.40
  A 1.34 1.33 68.2 0 1 310.69 405.48
  L 325.73 390.35
  Q 326.09 390.00 326.59 390.00
  L 349.21 390.00
  A 1.13 1.11 67.1 0 1 350.00 390.33
  L 365.14 405.58
  A 1.33 1.33 0.0 0 1 365.53 406.52
  L 365.60 420.93
  Z"
/>
<path fill="#ffffff" d="
  M 390.64 399.82
  L 390.70 428.45
  A 0.55 0.55 0.0 0 0 391.25 429.00
  L 407.56 429.00
  Q 408.18 429.00 408.18 428.38
  L 408.21 406.59
  L 408.22 390.33
  A 0.33 0.33 0.0 0 1 408.55 390.00
  L 426.71 390.01
  A 0.43 0.43 0.0 0 1 427.14 390.44
  L 427.35 461.31
  L 427.19 481.50
  A 0.50 0.50 0.0 0 1 426.70 482.00
  L 408.50 482.01
  A 0.26 0.25 -90.0 0 1 408.25 481.75
  L 408.26 447.50
  Q 408.26 447.00 407.75 447.00
  L 391.18 447.00
  Q 390.61 447.00 390.61 447.57
  L 390.59 481.37
  Q 390.59 482.00 389.97 482.00
  L 372.20 482.00
  Q 371.59 482.00 371.58 481.40
  L 371.38 472.76
  L 371.43 449.46
  L 371.49 419.20
  L 371.47 390.31
  A 0.31 0.30 0.0 0 1 371.78 390.01
  L 390.26 390.00
  A 0.35 0.35 0.0 0 1 390.61 390.35
  L 390.64 399.82
  Z"
/>
<path fill="#ffffff" d="
  M 249.25 408.86
  L 231.74 408.94
  A 0.54 0.53 -0.6 0 0 231.21 409.47
  L 231.17 481.45
  Q 231.17 481.90 230.72 481.91
  L 220.75 482.01
  L 212.67 482.00
  A 0.48 0.47 0.0 0 1 212.19 481.53
  L 212.22 409.49
  A 0.49 0.48 90.0 0 0 211.74 409.00
  L 193.98 409.00
  A 0.27 0.27 0.0 0 1 193.71 408.73
  L 193.66 391.67
  Q 193.66 391.00 194.33 391.00
  L 248.73 391.00
  Q 249.24 391.00 249.24 391.51
  L 249.25 408.86
  Z"
/>
<path fill="#ffffff" d="
  M 304.27 408.67
  L 274.73 409.00
  A 0.45 0.44 90.0 0 0 274.29 409.45
  L 274.26 426.76
  A 0.25 0.25 0.0 0 0 274.51 427.01
  L 297.90 427.00
  A 0.40 0.39 -90.0 0 1 298.29 427.40
  L 298.27 444.49
  A 0.51 0.51 0.0 0 1 297.76 445.00
  L 274.50 445.00
  A 0.25 0.24 -90.0 0 0 274.26 445.25
  L 274.30 463.53
  A 0.48 0.47 0.0 0 0 274.78 464.00
  L 303.74 464.00
  Q 304.23 464.00 304.23 464.49
  L 304.32 481.29
  A 0.74 0.73 -90.0 0 1 303.59 482.03
  L 255.30 482.01
  L 255.25 433.81
  L 255.20 410.22
  L 255.25 391.45
  A 0.45 0.45 0.0 0 1 255.70 391.00
  L 303.98 391.00
  A 0.36 0.36 0.0 0 1 304.34 391.37
  L 304.27 408.67
  Z"
/>
<path fill="#1a1a1a" d="
  M 408.21 406.59
  L 408.18 428.38
  Q 408.18 429.00 407.56 429.00
  L 391.25 429.00
  A 0.55 0.55 0.0 0 1 390.70 428.45
  L 390.64 399.82
  Q 390.92 398.33 395.26 398.93
  Q 397.19 399.20 398.66 400.36
  Q 400.15 401.54 401.43 402.36
  Q 403.51 403.70 404.85 406.24
  Q 405.03 406.58 405.42 406.62
  Q 405.59 406.63 405.74 406.72
  A 0.25 0.25 0.0 0 0 406.12 406.51
  L 406.12 405.94
  Q 406.12 405.19 406.85 405.40
  Q 407.51 405.59 408.21 406.59
  Z"
/>
<path fill="#1a1a1a" d="
  M 255.30 482.01
  L 303.59 482.03
  A 0.74 0.73 90.0 0 0 304.32 481.29
  L 304.23 464.49
  Q 304.23 464.00 303.74 464.00
  L 274.78 464.00
  A 0.48 0.47 -0.0 0 1 274.30 463.53
  L 274.26 445.25
  A 0.25 0.24 -90.0 0 1 274.50 445.00
  L 297.76 445.00
  A 0.51 0.51 0.0 0 0 298.27 444.49
  L 298.29 427.40
  A 0.40 0.39 90.0 0 0 297.90 427.00
  L 274.51 427.01
  A 0.25 0.25 0.0 0 1 274.26 426.76
  L 274.29 409.45
  A 0.45 0.44 -90.0 0 1 274.73 409.00
  L 304.27 408.67
  Q 304.81 408.97 305.23 408.86
  Q 305.66 408.75 306.02 408.99
  Q 307.04 409.68 309.08 408.91
  Q 310.03 408.55 309.92 409.56
  Q 309.72 411.32 310.21 413.49
  L 310.19 465.61
  A 1.38 1.37 -67.2 0 0 310.58 466.57
  L 325.37 481.42
  Q 325.95 482.00 326.78 482.00
  L 348.73 482.00
  A 2.22 2.19 -67.5 0 0 350.30 481.34
  L 365.15 466.46
  A 1.92 1.91 68.0 0 0 365.71 465.13
  L 365.74 457.93
  L 369.11 456.03
  A 1.16 1.15 -15.6 0 1 370.83 456.99
  L 371.38 472.76
  L 371.58 481.40
  Q 371.59 482.00 372.20 482.00
  L 389.97 482.00
  Q 390.59 482.00 390.59 481.37
  L 390.61 447.57
  Q 390.61 447.00 391.18 447.00
  L 407.75 447.00
  Q 408.26 447.00 408.26 447.50
  L 408.25 481.75
  A 0.26 0.25 90.0 0 0 408.50 482.01
  L 426.70 482.00
  A 0.50 0.50 0.0 0 0 427.19 481.50
  L 427.35 461.31
  L 428.54 408.35
  Q 428.55 408.12 428.77 408.05
  Q 428.99 408.00 429.00 408.13
  Q 429.03 408.57 429.28 408.21
  Q 431.02 405.69 434.70 406.09
  A 1.12 1.08 70.9 0 1 435.41 406.45
  L 437.57 408.83
  Q 437.97 409.26 437.99 409.84
  Q 438.09 412.77 439.37 415.33
  Q 441.76 420.11 442.55 426.20
  Q 443.13 430.61 443.13 435.40
  Q 443.13 450.81 443.43 467.74
  Q 443.43 467.98 443.27 468.17
  Q 443.23 468.22 443.19 468.26
  Q 443.09 468.36 443.09 468.51
  Q 443.32 475.57 442.34 482.54
  Q 441.75 486.71 440.40 489.74
  C 438.83 493.26 436.58 496.41 433.46 498.60
  Q 432.10 499.55 430.42 499.71
  Q 428.78 499.86 427.18 500.06
  Q 424.08 500.43 421.38 497.32
  Q 421.06 496.95 420.62 496.74
  C 419.67 496.29 419.18 495.39 418.34 494.93
  Q 414.18 492.60 409.69 493.55
  Q 408.49 493.80 407.63 494.48
  C 406.73 495.19 405.83 495.36 404.93 496.13
  Q 399.65 500.65 392.68 500.98
  Q 391.52 501.03 390.45 500.73
  Q 389.52 500.48 388.55 500.60
  Q 388.01 500.67 387.51 500.46
  Q 383.26 498.69 378.05 499.13
  Q 377.64 499.17 377.29 498.96
  Q 376.87 498.70 376.38 498.76
  L 369.06 499.74
  Q 368.59 499.80 368.20 500.06
  Q 367.26 500.66 366.10 500.35
  Q 365.59 500.21 365.31 500.66
  Q 364.83 501.44 363.96 501.36
  Q 363.33 501.30 362.88 501.74
  Q 361.68 502.90 360.29 502.75
  Q 359.21 502.63 358.16 503.01
  Q 357.44 503.27 356.73 503.55
  Q 355.97 503.84 355.23 503.91
  Q 349.76 504.38 343.15 503.86
  Q 340.75 503.67 338.83 502.70
  Q 335.24 500.89 331.50 499.65
  Q 330.28 499.25 329.01 499.10
  Q 327.43 498.92 325.80 498.08
  Q 324.23 497.26 322.67 497.31
  Q 319.60 497.41 316.79 498.55
  Q 314.65 499.43 312.40 500.25
  Q 312.14 500.35 312.02 500.59
  Q 311.96 500.71 311.90 500.83
  Q 311.80 501.05 311.58 501.14
  Q 303.51 504.78 297.22 505.01
  Q 290.78 505.23 282.43 505.09
  Q 281.34 505.07 280.46 504.58
  Q 280.02 504.33 279.51 504.28
  Q 275.44 503.89 270.96 501.19
  Q 268.47 499.69 267.50 498.53
  Q 265.84 496.57 264.24 494.33
  Q 263.80 493.72 263.88 493.03
  Q 263.94 492.51 263.64 492.10
  Q 262.33 490.26 261.92 488.18
  Q 261.82 487.66 261.41 487.32
  Q 260.33 486.40 259.97 485.02
  A 1.27 1.27 0.0 0 0 258.97 484.08
  Q 258.16 483.93 257.69 483.33
  Q 257.35 482.89 256.80 482.94
  Q 255.51 483.03 255.30 482.01
  Z"
/>
<path fill="#1a1a1a" d="
  M 255.20 410.22
  L 255.25 433.81
  Q 254.47 433.51 254.57 432.48
  Q 254.60 432.11 254.29 431.90
  L 253.92 431.67
  A 0.39 0.38 -59.2 0 0 253.37 431.81
  Q 252.93 432.59 252.16 432.40
  Q 251.65 432.27 251.45 432.77
  L 250.00 436.42
  Q 249.82 436.89 249.32 436.99
  Q 248.06 437.24 248.16 438.61
  Q 248.22 439.31 247.73 439.80
  Q 247.08 440.47 247.10 441.36
  Q 247.12 441.83 246.68 442.00
  Q 246.21 442.18 246.17 442.67
  Q 246.06 444.24 246.14 445.97
  Q 246.17 446.49 245.87 446.90
  Q 245.78 447.03 245.61 447.06
  Q 245.11 447.15 245.11 447.66
  Q 245.13 463.30 245.11 481.57
  Q 245.11 482.82 244.38 483.96
  A 1.63 1.57 61.1 0 0 244.13 484.89
  Q 244.33 490.14 240.13 493.39
  Q 239.92 493.55 239.87 493.82
  Q 239.77 494.28 239.37 494.53
  Q 237.61 495.60 235.79 496.55
  Q 234.19 497.39 232.76 496.36
  Q 232.20 495.95 231.92 496.58
  Q 231.78 496.88 231.09 496.73
  Q 230.84 496.68 230.61 496.57
  Q 228.85 495.76 227.99 494.20
  Q 226.12 490.84 223.67 486.70
  A 2.94 2.91 -66.5 0 1 223.32 485.80
  Q 223.20 485.21 222.88 484.66
  Q 222.77 484.48 222.56 484.43
  Q 221.45 484.15 220.35 482.95
  Q 220.26 482.85 220.25 482.72
  Q 220.23 482.41 220.75 482.01
  L 230.72 481.91
  Q 231.17 481.90 231.17 481.45
  L 231.21 409.47
  A 0.54 0.53 -0.6 0 1 231.74 408.94
  L 249.25 408.86
  Q 252.32 409.33 253.45 408.22
  Q 253.81 407.87 254.29 408.00
  Q 255.41 408.28 255.20 410.22
  Z"
/>
<path fill="#1a1a1a" d="
  M 365.60 420.93
  Q 365.52 419.52 365.87 418.84
  Q 366.12 418.35 366.38 418.83
  Q 366.71 419.46 367.22 419.66
  Q 367.55 419.80 368.24 419.58
  Q 369.71 419.11 371.49 419.20
  L 371.43 449.46
  L 371.14 453.79
  Q 371.09 454.55 370.42 454.19
  L 370.08 454.01
  Q 369.80 453.86 369.83 453.54
  L 370.07 450.58
  Q 370.11 450.06 369.90 449.59
  Q 369.23 448.12 369.96 446.83
  Q 370.20 446.42 370.09 445.95
  Q 369.59 443.74 369.63 441.31
  C 369.67 438.84 367.88 437.52 365.66 436.96
  Q 358.21 435.08 352.26 435.11
  Q 351.75 435.11 351.34 435.42
  Q 350.61 435.95 349.64 436.05
  A 5.50 4.07 -77.1 0 0 345.88 439.27
  Q 345.61 439.88 344.95 439.95
  A 0.80 0.79 -88.5 0 0 344.26 440.61
  Q 344.06 441.76 343.52 442.73
  Q 341.80 445.86 341.61 450.20
  A 0.95 0.93 68.9 0 1 341.35 450.80
  Q 340.93 451.25 341.19 451.79
  A 0.97 0.86 -57.5 0 1 341.27 452.29
  L 340.75 457.23
  Q 340.70 457.76 340.16 457.73
  Q 339.99 457.71 339.79 457.63
  A 0.04 0.04 0.0 0 0 339.75 457.69
  Q 340.32 458.19 340.26 458.71
  A 2.80 2.24 -80.6 0 0 341.92 461.67
  Q 342.17 461.72 341.73 463.14
  L 334.57 463.25
  A 1.16 1.15 66.6 0 1 333.73 462.91
  L 329.53 458.66
  Q 329.12 458.24 329.12 457.66
  L 329.12 414.68
  Q 329.12 413.90 329.67 413.33
  L 333.45 409.43
  A 2.14 2.12 -67.7 0 1 335.01 408.77
  L 340.93 408.79
  Q 341.53 408.80 341.96 409.21
  L 346.32 413.48
  Q 346.77 413.92 346.76 414.54
  L 346.71 419.83
  Q 346.70 420.86 347.72 420.86
  L 365.60 420.93
  Z
  M 329.6234 457.0396
  A 0.22 0.22 0.0 0 1 329.4038 457.2600
  L 329.4038 457.2600
  A 0.22 0.22 0.0 0 1 329.1834 457.0404
  L 329.1566 441.7004
  A 0.22 0.22 0.0 0 1 329.3762 441.4800
  L 329.3762 441.4800
  A 0.22 0.22 0.0 0 1 329.5966 441.6996
  L 329.6234 457.0396
  Z"
/>
<path fill="#282828" d="
  M 371.43 449.46
  L 371.38 472.76
  L 370.83 456.99
  A 1.16 1.15 -15.6 0 0 369.11 456.03
  L 365.74 457.93
  L 365.69 451.48
  A 0.47 0.47 0.0 0 0 365.22 451.01
  L 347.42 451.04
  A 0.78 0.78 0.0 0 0 346.64 451.83
  L 346.75 457.45
  Q 346.76 457.94 346.43 458.28
  L 341.73 463.14
  Q 342.17 461.72 341.92 461.67
  A 2.80 2.24 -80.6 0 1 340.26 458.71
  Q 340.32 458.19 339.75 457.69
  A 0.04 0.04 0.0 0 1 339.79 457.63
  Q 339.99 457.71 340.16 457.73
  Q 340.70 457.76 340.75 457.23
  L 341.27 452.29
  A 0.97 0.86 -57.5 0 0 341.19 451.79
  Q 340.93 451.25 341.35 450.80
  A 0.95 0.93 68.9 0 0 341.61 450.20
  Q 341.80 445.86 343.52 442.73
  Q 344.06 441.76 344.26 440.61
  A 0.80 0.79 -88.5 0 1 344.95 439.95
  Q 345.61 439.88 345.88 439.27
  A 5.50 4.07 -77.1 0 1 349.64 436.05
  Q 350.61 435.95 351.34 435.42
  Q 351.75 435.11 352.26 435.11
  Q 358.21 435.08 365.66 436.96
  C 367.88 437.52 369.67 438.84 369.63 441.31
  Q 369.59 443.74 370.09 445.95
  Q 370.20 446.42 369.96 446.83
  Q 369.23 448.12 369.90 449.59
  Q 370.11 450.06 370.07 450.58
  L 369.83 453.54
  Q 369.80 453.86 370.08 454.01
  L 370.42 454.19
  Q 371.09 454.55 371.14 453.79
  L 371.43 449.46
  Z"
/>
<rect fill="#282828" x="-0.22" y="-7.89" transform="translate(329.39,449.37) rotate(-0.1)" width="0.44" height="15.78" rx="0.22"/>
<path fill="#1a1a1a" d="
  M 351.28 515.02
  L 348.24 515.13
  Q 347.69 515.15 347.69 515.69
  L 347.68 556.47
  Q 343.12 558.17 341.37 563.88
  C 341.03 564.99 341.42 566.27 340.50 567.07
  A 1.25 1.24 65.8 0 0 340.08 568.18
  Q 340.33 570.02 339.67 571.89
  Q 339.09 573.50 339.10 575.29
  Q 339.12 587.04 339.43 598.64
  Q 339.46 599.72 339.77 600.66
  Q 340.24 602.06 339.34 603.28
  Q 339.02 603.72 339.08 604.26
  Q 339.65 608.93 336.55 612.58
  C 334.50 615.00 332.50 617.94 330.77 619.52
  Q 327.84 622.18 324.57 620.39
  C 323.59 619.85 323.24 618.95 322.42 618.32
  Q 322.00 617.99 321.92 617.47
  Q 321.56 615.08 318.26 614.10
  Q 314.64 613.03 312.12 610.32
  Q 311.62 609.78 311.61 609.03
  A 1.04 1.04 0.0 0 0 310.72 608.01
  L 306.00 607.32
  Q 305.52 607.25 305.26 606.84
  Q 305.03 606.47 304.93 606.01
  L 323.09 605.91
  Q 323.60 605.90 323.60 605.40
  L 323.60 533.58
  Q 323.60 533.00 324.17 533.00
  L 341.25 533.00
  Q 341.75 533.00 341.75 532.50
  L 341.76 515.67
  Q 341.76 515.05 341.14 515.04
  L 337.37 514.97
  Q 338.38 513.58 341.35 513.60
  Q 341.76 513.60 342.05 513.88
  L 343.18 514.95
  Q 343.44 515.19 343.78 515.14
  L 346.65 514.71
  Q 347.07 514.64 347.28 514.28
  Q 347.42 514.03 347.30 513.90
  Q 346.93 513.47 347.51 513.41
  Q 348.58 513.30 349.53 513.69
  Q 349.63 513.73 350.46 513.87
  Q 351.11 513.98 351.28 515.02
  Z"
/>
<path fill="#ffffff" d="
  M 218.74 544.59
  L 218.83 589.50
  A 1.34 1.30 -23.1 0 1 218.44 590.43
  L 203.31 605.62
  A 1.33 1.29 21.8 0 1 202.38 606.00
  Q 191.79 605.98 180.99 606.02
  C 179.13 606.02 177.90 604.76 176.79 603.43
  L 163.93 590.52
  A 1.71 1.71 0.0 0 1 163.43 589.36
  L 163.22 578.78
  L 163.19 543.27
  L 163.26 531.02
  A 2.22 2.19 -22.8 0 1 163.91 529.46
  L 178.77 514.51
  A 1.74 1.74 0.0 0 1 180.00 514.00
  L 202.04 514.00
  A 2.02 2.00 67.3 0 1 203.46 514.59
  L 218.20 529.49
  A 1.91 1.88 -67.6 0 1 218.74 530.82
  L 218.74 544.59
  Z
  M 195.46 586.60
  L 199.32 582.67
  Q 199.73 582.25 199.73 581.66
  Q 199.83 561.66 199.83 539.11
  Q 199.83 537.89 198.98 537.04
  Q 197.04 535.11 195.05 533.19
  Q 194.66 532.80 194.10 532.80
  L 187.80 532.81
  A 1.26 1.25 -67.3 0 0 186.91 533.18
  L 182.94 537.18
  A 2.23 2.22 -22.8 0 0 182.30 538.74
  L 182.29 581.14
  A 2.18 2.15 -67.8 0 0 182.92 582.67
  L 186.98 586.72
  Q 187.50 587.24 188.23 587.23
  L 194.10 587.18
  A 1.94 1.94 0.0 0 0 195.46 586.60
  Z"
/>
<path fill="#ffffff" d="
  M 280.40 544.86
  L 262.36 544.88
  Q 261.49 544.88 261.48 544.01
  L 261.43 538.64
  A 1.51 1.50 -68.1 0 0 260.99 537.60
  L 256.65 533.29
  Q 256.15 532.79 255.45 532.79
  L 249.62 532.79
  Q 248.83 532.79 248.27 533.35
  L 244.24 537.43
  A 1.77 1.75 67.5 0 0 243.74 538.66
  L 243.75 544.73
  A 1.31 1.27 -67.3 0 0 244.10 545.62
  L 248.31 550.11
  A 1.86 1.86 0.0 0 0 249.66 550.69
  L 263.53 550.72
  A 1.79 1.77 -22.3 0 1 264.79 551.24
  L 279.84 566.33
  A 1.83 1.81 -67.4 0 1 280.37 567.64
  L 280.29 589.23
  A 1.54 1.52 -22.8 0 1 279.84 590.31
  L 264.87 605.42
  A 1.96 1.94 22.0 0 1 263.48 606.00
  L 241.51 606.00
  A 1.78 1.76 67.3 0 1 240.26 605.48
  L 225.08 590.18
  Q 224.69 589.80 224.69 589.25
  L 224.68 575.60
  Q 224.68 575.00 225.28 575.00
  L 243.00 575.00
  Q 243.75 575.00 243.75 575.75
  L 243.74 581.54
  A 1.26 1.25 22.7 0 0 244.11 582.43
  L 248.33 586.72
  Q 248.84 587.23 249.57 587.23
  L 255.28 587.21
  Q 256.15 587.21 256.76 586.60
  L 260.89 582.51
  Q 261.43 581.98 261.43 581.22
  L 261.41 575.47
  Q 261.41 574.67 260.85 574.10
  L 256.83 570.07
  A 2.61 2.59 -22.4 0 0 254.99 569.31
  L 241.47 569.33
  A 1.36 1.33 -22.1 0 1 240.52 568.94
  L 225.10 553.45
  Q 224.75 553.09 224.74 552.58
  L 224.70 543.76
  L 224.70 531.10
  A 2.19 2.17 -22.7 0 1 225.34 529.56
  L 240.31 514.51
  A 1.75 1.71 -67.0 0 1 241.53 514.00
  L 263.47 514.00
  A 1.74 1.74 0.0 0 1 264.70 514.51
  L 279.82 529.66
  A 1.94 1.91 -67.8 0 1 280.38 531.02
  L 280.40 544.86
  Z"
/>
<path fill="#ffffff" d="
  M 519.70 533.09
  L 519.67 544.50
  Q 519.67 545.00 519.18 545.00
  L 501.33 544.91
  A 0.58 0.58 0.0 0 1 500.75 544.33
  L 500.75 538.72
  A 1.98 1.97 -67.8 0 0 500.16 537.31
  L 495.96 533.21
  Q 495.53 532.80 494.93 532.80
  L 488.70 532.79
  A 1.45 1.43 22.2 0 0 487.68 533.21
  L 483.60 537.35
  Q 483.16 537.79 483.16 538.41
  L 483.07 544.64
  Q 483.07 545.27 483.51 545.74
  L 487.89 550.32
  Q 488.26 550.70 488.78 550.70
  L 502.87 550.71
  A 1.74 1.74 0.0 0 1 504.10 551.22
  L 519.22 566.34
  Q 519.62 566.74 519.62 567.30
  L 519.59 589.37
  Q 519.59 589.98 519.16 590.41
  L 504.36 605.34
  A 2.26 2.24 -67.4 0 1 502.77 606.00
  L 480.72 606.00
  Q 480.09 606.00 479.65 605.56
  L 464.66 590.53
  Q 464.21 590.08 464.21 589.45
  L 464.18 575.60
  A 0.60 0.59 90.0 0 1 464.77 575.00
  L 482.73 575.00
  Q 483.22 575.00 483.22 575.48
  L 483.21 581.53
  Q 483.21 582.17 483.65 582.64
  L 487.67 586.80
  Q 488.07 587.23 488.66 587.22
  L 494.97 587.18
  A 1.68 1.65 -67.5 0 0 496.12 586.69
  L 500.19 582.60
  Q 500.68 582.12 500.68 581.44
  L 500.72 575.32
  Q 500.73 574.66 500.26 574.20
  Q 498.48 572.44 496.56 570.44
  C 495.54 569.39 494.19 569.22 492.80 569.25
  Q 486.73 569.41 480.73 569.31
  A 1.37 1.33 67.4 0 1 479.80 568.91
  L 464.60 553.66
  Q 464.25 553.31 464.25 552.81
  L 464.19 541.48
  L 464.19 530.70
  A 1.74 1.74 0.0 0 1 464.70 529.47
  L 479.52 514.59
  Q 480.11 514.00 480.95 514.00
  L 502.73 514.00
  A 2.22 2.19 67.5 0 1 504.30 514.66
  L 519.11 529.51
  Q 519.48 529.88 519.52 530.40
  L 519.70 533.09
  Z"
/>
<path fill="#ffffff" d="
  M 157.33 545.54
  L 157.23 552.93
  Q 157.23 553.46 156.85 553.83
  L 142.01 568.29
  Q 141.27 569.01 140.24 569.01
  L 121.25 569.00
  Q 120.75 569.00 120.75 569.50
  L 120.75 605.29
  A 0.56 0.56 0.0 0 1 120.23 605.85
  L 117.71 606.04
  L 102.32 606.02
  A 0.61 0.61 0.0 0 1 101.71 605.41
  L 101.70 515.35
  A 0.35 0.34 90.0 0 1 102.04 515.00
  L 140.22 515.00
  A 2.51 2.50 -22.6 0 1 141.98 515.72
  L 156.77 530.16
  A 1.80 1.76 -68.6 0 1 157.30 531.41
  L 157.33 545.54
  Z
  M 120.75 533.42
  L 120.75 550.60
  A 0.45 0.45 0.0 0 0 121.20 551.05
  L 129.61 551.05
  A 8.88 8.68 -0.0 0 0 138.49 542.37
  L 138.49 541.65
  A 8.88 8.68 0.0 0 0 129.61 532.97
  L 121.20 532.97
  A 0.45 0.45 0.0 0 0 120.75 533.42
  Z"
/>
<path fill="#ffffff" d="
  M 337.37 514.97
  L 341.14 515.04
  Q 341.76 515.05 341.76 515.67
  L 341.75 532.50
  Q 341.75 533.00 341.25 533.00
  L 324.17 533.00
  Q 323.60 533.00 323.60 533.58
  L 323.60 605.40
  Q 323.60 605.90 323.09 605.91
  L 304.93 606.01
  Q 304.35 606.04 304.36 604.75
  Q 304.52 579.55 304.48 554.66
  L 304.49 533.07
  L 287.07 533.07
  Q 286.26 533.07 286.26 532.26
  L 286.24 515.53
  Q 286.24 515.00 286.77 515.00
  L 337.37 514.97
  Z"
/>
<path fill="#ffffff" d="
  M 351.28 515.02
  L 396.08 515.06
  Q 396.61 515.06 396.75 515.57
  Q 396.87 515.99 396.79 516.54
  L 396.77 532.46
  A 0.54 0.54 0.0 0 1 396.23 533.00
  L 367.25 533.00
  Q 366.75 533.00 366.75 533.50
  L 366.74 550.49
  Q 366.74 551.00 367.24 551.00
  L 390.25 551.00
  Q 390.75 551.00 390.75 551.50
  L 390.75 568.50
  Q 390.75 569.00 390.25 569.00
  L 367.25 569.00
  Q 366.74 569.00 366.74 569.50
  L 366.75 587.50
  Q 366.75 588.00 367.25 588.00
  L 396.51 588.00
  A 0.26 0.25 -90.0 0 1 396.76 588.26
  L 396.75 605.46
  Q 396.75 605.99 396.22 605.99
  L 348.43 606.05
  Q 348.25 606.12 348.04 606.01
  Q 347.63 605.78 347.63 605.30
  L 347.68 556.47
  L 347.69 515.69
  Q 347.69 515.15 348.24 515.13
  L 351.28 515.02
  Z"
/>
<path fill="#1a1a1a" d="
  M 402.45 520.97
  L 402.44 605.45
  A 0.56 0.55 -0.0 0 0 403.00 606.00
  L 421.01 606.00
  Q 421.62 606.00 421.62 605.39
  L 421.62 569.19
  A 0.18 0.18 0.0 0 1 421.80 569.01
  L 432.76 569.00
  Q 433.60 568.99 434.24 569.54
  C 435.91 570.97 439.27 573.65 439.27 576.13
  Q 439.24 592.03 439.26 605.72
  A 0.28 0.28 0.0 0 0 439.54 606.00
  L 457.73 606.00
  A 0.48 0.48 0.0 0 0 458.20 605.52
  L 458.15 567.36
  Q 458.15 566.65 457.64 566.16
  L 451.62 560.42
  A 0.53 0.53 0.0 0 1 451.62 559.66
  L 457.80 553.67
  Q 458.18 553.29 458.18 552.75
  L 458.18 549.23
  L 458.61 541.72
  Q 458.65 540.97 459.28 541.37
  Q 460.05 541.86 460.39 541.04
  Q 460.63 540.49 461.22 540.59
  Q 461.43 540.62 461.42 540.89
  Q 461.41 541.22 461.72 541.10
  L 463.39 540.41
  Q 463.82 540.23 463.95 540.68
  L 464.19 541.48
  L 464.25 552.81
  Q 464.25 553.31 464.60 553.66
  L 479.80 568.91
  A 1.37 1.33 67.4 0 0 480.73 569.31
  Q 486.73 569.41 492.80 569.25
  C 494.19 569.22 495.54 569.39 496.56 570.44
  Q 498.48 572.44 500.26 574.20
  Q 500.73 574.66 500.72 575.32
  L 500.68 581.44
  Q 500.68 582.12 500.19 582.60
  L 496.12 586.69
  A 1.68 1.65 -67.5 0 1 494.97 587.18
  L 488.66 587.22
  Q 488.07 587.23 487.67 586.80
  L 483.65 582.64
  Q 483.21 582.17 483.21 581.53
  L 483.22 575.48
  Q 483.22 575.00 482.73 575.00
  L 464.77 575.00
  A 0.60 0.59 -90.0 0 0 464.18 575.60
  L 464.21 589.45
  Q 464.21 590.08 464.66 590.53
  L 479.65 605.56
  Q 480.09 606.00 480.72 606.00
  L 502.77 606.00
  A 2.26 2.24 -67.4 0 0 504.36 605.34
  L 519.16 590.41
  Q 519.59 589.98 519.59 589.37
  L 519.62 567.30
  Q 519.62 566.74 519.22 566.34
  L 504.10 551.22
  A 1.74 1.74 0.0 0 0 502.87 550.71
  L 488.78 550.70
  Q 488.26 550.70 487.89 550.32
  L 483.51 545.74
  Q 483.07 545.27 483.07 544.64
  L 483.16 538.41
  Q 483.16 537.79 483.60 537.35
  L 487.68 533.21
  A 1.45 1.43 22.2 0 1 488.70 532.79
  L 494.93 532.80
  Q 495.53 532.80 495.96 533.21
  L 500.16 537.31
  A 1.98 1.97 -67.8 0 1 500.75 538.72
  L 500.75 544.33
  A 0.58 0.58 0.0 0 0 501.33 544.91
  L 519.18 545.00
  Q 519.67 545.00 519.67 544.50
  L 519.70 533.09
  Q 521.68 533.86 522.66 535.11
  Q 524.03 536.86 525.88 540.12
  Q 526.12 540.53 526.12 540.99
  Q 526.12 541.22 526.12 541.45
  Q 526.13 541.87 526.36 542.23
  Q 528.41 545.41 529.12 549.17
  C 529.54 551.37 529.11 553.69 528.95 556.10
  Q 528.86 557.50 528.35 558.85
  Q 524.74 568.35 528.40 576.31
  Q 528.97 577.55 529.12 578.91
  Q 529.16 579.34 529.39 579.70
  Q 530.28 581.13 530.33 582.88
  Q 530.34 583.36 530.64 583.74
  Q 531.79 585.19 532.02 587.02
  Q 532.24 588.76 532.77 590.48
  Q 534.10 594.84 533.49 598.63
  Q 532.97 601.92 531.81 605.51
  Q 530.21 610.48 527.16 614.22
  Q 523.69 618.47 520.01 621.13
  Q 517.03 623.29 511.78 624.84
  Q 502.82 627.49 494.41 624.85
  C 491.40 623.91 488.00 623.11 485.15 621.74
  C 483.85 621.11 482.58 621.20 481.31 620.65
  Q 477.33 618.95 473.00 620.02
  Q 472.86 620.05 472.73 619.95
  Q 472.57 619.81 472.37 619.88
  Q 466.94 621.65 463.36 622.11
  Q 460.61 622.46 457.06 621.09
  Q 453.79 619.84 451.29 617.89
  Q 449.76 616.69 447.74 615.98
  Q 446.02 615.37 444.10 615.42
  Q 442.59 615.46 441.16 615.21
  Q 440.70 615.13 440.33 615.41
  Q 439.02 616.37 437.52 616.81
  Q 436.27 617.17 435.13 618.03
  Q 432.03 620.36 428.40 621.61
  Q 425.95 622.46 423.04 623.06
  Q 420.30 623.62 417.44 623.74
  Q 414.76 623.85 412.12 623.99
  Q 409.22 624.14 406.62 624.59
  Q 401.50 625.47 396.21 626.28
  C 390.48 627.16 384.65 627.05 378.75 626.82
  Q 375.14 626.68 371.29 625.65
  Q 368.83 625.00 366.95 623.95
  Q 364.68 622.68 362.82 619.99
  Q 361.08 617.48 358.83 615.51
  Q 357.68 614.50 356.60 613.33
  Q 355.57 612.22 354.47 611.23
  Q 354.10 610.90 353.92 610.44
  Q 353.34 609.00 352.51 608.74
  Q 349.55 607.80 348.43 606.05
  L 396.22 605.99
  Q 396.75 605.99 396.75 605.46
  L 396.76 588.26
  A 0.26 0.25 90.0 0 0 396.51 588.00
  L 367.25 588.00
  Q 366.75 588.00 366.75 587.50
  L 366.74 569.50
  Q 366.74 569.00 367.25 569.00
  L 390.25 569.00
  Q 390.75 569.00 390.75 568.50
  L 390.75 551.50
  Q 390.75 551.00 390.25 551.00
  L 367.24 551.00
  Q 366.74 551.00 366.74 550.49
  L 366.75 533.50
  Q 366.75 533.00 367.25 533.00
  L 396.23 533.00
  A 0.54 0.54 0.0 0 0 396.77 532.46
  L 396.79 516.54
  Q 397.05 516.42 397.20 516.25
  Q 397.46 515.96 397.85 515.96
  Q 399.78 515.93 401.69 515.31
  Q 402.13 515.17 402.16 515.64
  L 402.45 520.97
  Z"
/>
<path fill="#ffffff" d="
  M 458.18 549.23
  L 458.18 552.75
  Q 458.18 553.29 457.80 553.67
  L 451.62 559.66
  A 0.53 0.53 0.0 0 0 451.62 560.42
  L 457.64 566.16
  Q 458.15 566.65 458.15 567.36
  L 458.20 605.52
  A 0.48 0.48 0.0 0 1 457.73 606.00
  L 439.54 606.00
  A 0.28 0.28 0.0 0 1 439.26 605.72
  Q 439.24 592.03 439.27 576.13
  C 439.27 573.65 435.91 570.97 434.24 569.54
  Q 433.60 568.99 432.76 569.00
  L 421.80 569.01
  A 0.18 0.18 0.0 0 0 421.62 569.19
  L 421.62 605.39
  Q 421.62 606.00 421.01 606.00
  L 403.00 606.00
  A 0.56 0.55 0.0 0 1 402.44 605.45
  L 402.45 520.97
  L 402.55 515.61
  Q 402.56 515.00 403.17 515.00
  L 441.18 515.00
  A 2.15 2.13 -22.7 0 1 442.67 515.60
  L 457.61 530.18
  Q 458.10 530.66 458.11 531.35
  L 458.18 549.23
  Z
  M 421.61 533.43
  L 421.59 550.53
  A 0.48 0.48 0.0 0 0 422.06 551.02
  L 430.50 551.03
  A 8.78 8.52 0.1 0 0 439.30 542.53
  L 439.30 541.51
  A 8.78 8.52 0.1 0 0 430.54 532.97
  L 422.10 532.96
  A 0.48 0.48 0.0 0 0 421.61 533.43
  Z"
/>
<path fill="#1a1a1a" d="
  M 195.46 586.60
  A 1.94 1.94 0.0 0 1 194.10 587.18
  L 188.23 587.23
  Q 187.50 587.24 186.98 586.72
  L 182.92 582.67
  A 2.18 2.15 -67.8 0 1 182.29 581.14
  L 182.30 538.74
  A 2.23 2.22 -22.8 0 1 182.94 537.18
  L 186.91 533.18
  A 1.26 1.25 -67.3 0 1 187.80 532.81
  L 194.10 532.80
  Q 194.66 532.80 195.05 533.19
  Q 197.04 535.11 198.98 537.04
  Q 199.83 537.89 199.83 539.11
  Q 199.83 561.66 199.73 581.66
  Q 199.73 582.25 199.32 582.67
  L 195.46 586.60
  Z"
/>
<path fill="#1a1a1a" d="
  M 280.40 544.86
  L 280.93 542.24
  Q 281.03 541.75 281.49 541.56
  Q 284.80 540.19 288.47 540.78
  Q 291.59 541.29 294.40 540.05
  Q 295.61 539.51 296.84 539.37
  Q 298.51 539.17 299.63 537.61
  A 1.25 1.14 -86.3 0 1 299.91 537.34
  L 301.54 536.26
  Q 301.97 535.97 301.60 535.60
  Q 301.06 535.06 301.26 534.21
  Q 301.38 533.68 301.75 534.08
  Q 302.25 534.62 303.07 534.79
  Q 303.53 534.88 303.65 534.43
  Q 303.81 533.84 304.49 533.07
  L 304.48 554.66
  Q 303.23 555.36 303.13 552.66
  Q 303.13 552.50 303.11 552.66
  Q 303.08 553.07 302.92 553.53
  Q 302.65 554.33 302.05 553.75
  Q 302.01 553.71 301.96 553.68
  Q 301.73 553.57 301.50 553.69
  Q 300.27 554.38 299.03 553.99
  Q 298.49 553.82 297.95 553.96
  Q 296.01 554.47 294.09 555.25
  Q 291.83 556.17 290.66 558.03
  C 289.35 560.13 286.92 561.07 286.23 563.52
  Q 285.89 564.72 285.95 565.86
  Q 286.27 572.03 287.70 578.16
  Q 287.81 578.63 288.27 578.79
  Q 288.48 578.85 288.56 579.06
  Q 291.64 586.50 292.92 592.21
  Q 293.65 595.47 293.43 600.60
  Q 293.36 602.37 292.82 603.86
  Q 292.49 604.78 292.22 605.71
  Q 291.30 608.85 288.75 611.23
  Q 288.44 611.51 288.25 611.89
  Q 287.69 612.97 286.85 613.95
  Q 282.06 619.51 276.16 622.07
  Q 268.41 625.43 260.15 624.84
  Q 259.70 624.80 259.33 624.53
  C 258.36 623.83 257.34 624.25 256.22 623.96
  C 250.74 622.55 246.29 619.34 241.56 616.71
  Q 236.01 613.63 230.77 614.74
  Q 229.05 615.11 227.08 615.93
  Q 225.21 616.71 223.37 617.91
  Q 221.46 619.16 218.37 620.63
  Q 213.06 623.15 211.19 623.93
  A 2.09 2.07 36.2 0 1 210.19 624.08
  C 208.64 623.91 207.84 624.93 206.46 625.01
  Q 196.30 625.60 189.63 621.71
  Q 186.24 619.73 182.71 615.86
  C 180.39 613.32 176.97 611.41 176.15 607.81
  Q 175.75 606.03 174.22 604.61
  A 0.69 0.69 0.0 0 1 174.69 603.41
  L 176.79 603.43
  C 177.90 604.76 179.13 606.02 180.99 606.02
  Q 191.79 605.98 202.38 606.00
  A 1.33 1.29 21.8 0 0 203.31 605.62
  L 218.44 590.43
  A 1.34 1.30 -23.1 0 0 218.83 589.50
  L 218.74 544.59
  Q 220.24 543.46 222.45 543.15
  Q 222.79 543.11 223.11 543.21
  Q 223.35 543.29 223.47 543.47
  Q 223.71 543.82 223.61 543.41
  Q 223.50 542.96 223.74 542.58
  Q 224.22 541.81 224.27 542.71
  Q 224.33 543.62 224.70 543.76
  L 224.74 552.58
  Q 224.75 553.09 225.10 553.45
  L 240.52 568.94
  A 1.36 1.33 -22.1 0 0 241.47 569.33
  L 254.99 569.31
  A 2.61 2.59 -22.4 0 1 256.83 570.07
  L 260.85 574.10
  Q 261.41 574.67 261.41 575.47
  L 261.43 581.22
  Q 261.43 581.98 260.89 582.51
  L 256.76 586.60
  Q 256.15 587.21 255.28 587.21
  L 249.57 587.23
  Q 248.84 587.23 248.33 586.72
  L 244.11 582.43
  A 1.26 1.25 22.7 0 1 243.74 581.54
  L 243.75 575.75
  Q 243.75 575.00 243.00 575.00
  L 225.28 575.00
  Q 224.68 575.00 224.68 575.60
  L 224.69 589.25
  Q 224.69 589.80 225.08 590.18
  L 240.26 605.48
  A 1.78 1.76 67.3 0 0 241.51 606.00
  L 263.48 606.00
  A 1.96 1.94 22.0 0 0 264.87 605.42
  L 279.84 590.31
  A 1.54 1.52 -22.8 0 0 280.29 589.23
  L 280.37 567.64
  A 1.83 1.81 -67.4 0 0 279.84 566.33
  L 264.79 551.24
  A 1.79 1.77 -22.3 0 0 263.53 550.72
  L 249.66 550.69
  A 1.86 1.86 0.0 0 1 248.31 550.11
  L 244.10 545.62
  A 1.31 1.27 -67.3 0 1 243.75 544.73
  L 243.74 538.66
  A 1.77 1.75 67.5 0 1 244.24 537.43
  L 248.27 533.35
  Q 248.83 532.79 249.62 532.79
  L 255.45 532.79
  Q 256.15 532.79 256.65 533.29
  L 260.99 537.60
  A 1.51 1.50 -68.1 0 1 261.43 538.64
  L 261.48 544.01
  Q 261.49 544.88 262.36 544.88
  L 280.40 544.86
  Z"
/>
<path fill="#1a1a1a" d="
  M 120.75 533.42
  A 0.45 0.45 0.0 0 1 121.20 532.97
  L 129.61 532.97
  A 8.88 8.68 0.0 0 1 138.49 541.65
  L 138.49 542.37
  A 8.88 8.68 0.0 0 1 129.61 551.05
  L 121.20 551.05
  A 0.45 0.45 0.0 0 1 120.75 550.60
  L 120.75 533.42
  Z"
/>
<path fill="#1a1a1a" d="
  M 421.61 533.43
  A 0.48 0.48 0.0 0 1 422.10 532.96
  L 430.54 532.97
  A 8.78 8.52 0.1 0 1 439.30 541.51
  L 439.30 542.53
  A 8.78 8.52 0.1 0 1 430.50 551.03
  L 422.06 551.02
  A 0.48 0.48 0.0 0 1 421.59 550.53
  L 421.61 533.43
  Z"
/>
<path fill="#1a1a1a" d="
  M 163.19 543.27
  L 163.22 578.78
  L 163.07 579.10
  Q 162.85 579.57 162.44 579.24
  Q 162.16 579.03 162.17 578.70
  Q 162.19 578.10 161.99 578.67
  Q 161.90 578.94 161.89 579.23
  Q 161.84 580.21 161.23 579.44
  Q 161.08 579.26 161.03 579.04
  Q 160.92 578.58 160.44 578.58
  Q 160.29 578.58 160.15 578.64
  Q 159.95 578.72 159.88 578.93
  Q 159.65 579.71 158.85 579.62
  Q 158.23 579.55 157.70 579.88
  Q 155.09 581.46 152.68 581.93
  Q 152.24 582.02 151.90 582.31
  Q 151.09 583.00 150.04 582.88
  Q 149.49 582.82 149.00 583.06
  Q 143.68 585.69 139.57 589.05
  Q 136.75 591.36 134.48 594.69
  Q 132.06 598.24 131.01 601.54
  Q 129.92 604.97 128.56 609.02
  Q 127.71 611.56 126.58 613.60
  Q 125.74 615.10 124.07 616.05
  A 2.07 2.07 0.0 0 1 121.01 614.70
  L 120.33 611.62
  Q 120.23 611.18 119.89 610.87
  Q 118.99 610.05 118.43 609.13
  Q 118.20 608.75 117.81 608.54
  L 116.95 608.07
  Q 116.35 607.74 116.84 607.26
  Q 117.22 606.88 117.71 606.84
  A 0.05 0.05 0.0 0 1 117.73 606.93
  Q 117.32 607.09 116.97 606.75
  Q 116.49 606.30 117.13 606.16
  L 117.71 606.04
  L 120.23 605.85
  A 0.56 0.56 0.0 0 0 120.75 605.29
  L 120.75 569.50
  Q 120.75 569.00 121.25 569.00
  L 140.24 569.01
  Q 141.27 569.01 142.01 568.29
  L 156.85 553.83
  Q 157.23 553.46 157.23 552.93
  L 157.33 545.54
  Q 157.45 544.48 157.47 543.39
  Q 157.47 543.23 157.64 543.23
  Q 157.69 543.23 157.73 543.25
  Q 157.77 543.27 157.79 543.33
  Q 157.95 544.02 157.87 544.88
  Q 157.85 544.75 158.09 544.84
  A 0.01 0.00 31.7 0 0 158.10 544.84
  Q 158.02 544.48 158.23 544.18
  Q 158.59 543.67 158.58 544.30
  Q 158.58 544.50 158.66 544.67
  Q 159.00 545.36 159.50 544.77
  Q 163.25 540.40 163.19 543.27
  Z"
/>
</svg>
