<?xml version="1.0" encoding="UTF-8" standalone="no"?>
<!DOCTYPE svg PUBLIC "-//W3C//DTD SVG 1.1//EN" "http://www.w3.org/Graphics/SVG/1.1/DTD/svg11.dtd">
<svg xmlns="http://www.w3.org/2000/svg" version="1.1" viewBox="0.00 0.00 800.00 800.00">
<g stroke-width="2.00" fill="none" stroke-linecap="butt">
<path stroke="#80badf" vector-effect="non-scaling-stroke" d="
  M 402.35 182.78
  L 203.22 182.76
  Q 202.71 182.76 202.78 183.27
  L 213.23 258.54
  A 0.56 0.56 0.0 0 0 213.78 259.02
  Q 304.56 259.03 395.50 258.80
  Q 396.52 258.79 397.04 259.07
  Q 397.59 259.35 397.02 259.59
  L 217.03 336.84
  Q 216.25 337.17 216.37 338.01
  L 226.75 410.26
  Q 226.82 410.78 227.34 410.78
  L 401.62 410.79"
/>
<path stroke="#007fc4" vector-effect="non-scaling-stroke" d="
  M 401.62 410.79
  Q 402.39 413.05 402.36 417.50
  Q 402.14 450.07 402.42 529.73"
/>
<path stroke="#80badf" vector-effect="non-scaling-stroke" d="
  M 402.42 529.73
  C 398.98 530.41 395.92 531.56 392.43 530.66
  Q 352.48 520.42 312.66 510.22
  A 0.56 0.56 0.0 0 1 312.25 509.74
  L 306.01 452.23
  A 0.53 0.53 0.0 0 0 305.48 451.76
  L 230.48 451.76
  A 0.25 0.24 -2.1 0 0 230.23 452.02
  L 240.34 572.97
  Q 240.36 573.18 240.56 573.24
  L 401.46 618.07"
/>
<path stroke="#007fc4" vector-effect="non-scaling-stroke" d="
  M 401.46 618.07
  L 402.04 618.80
  Q 402.37 619.22 402.37 619.76
  L 402.31 690.25
  A 0.32 0.32 0.0 0 0 402.73 690.56
  L 609.91 630.47
  A 1.31 1.29 -5.7 0 0 610.85 629.34
  L 655.95 109.97
  A 0.51 0.51 0.0 0 0 655.44 109.41
  L 403.49 108.48
  A 1.12 1.11 -89.7 0 0 402.37 109.60
  L 402.35 182.78"
/>
<path stroke="#80c4e5" vector-effect="non-scaling-stroke" d="
  M 401.46 618.07
  Q 402.55 618.48 403.01 618.34
  Q 480.47 593.71 558.10 569.03
  A 0.41 0.41 0.0 0 0 558.39 568.67
  L 578.21 332.08
  A 0.39 0.39 0.0 0 0 577.82 331.65
  L 415.91 331.65
  Q 414.01 331.65 415.76 330.92
  L 592.58 257.53
  Q 592.99 257.36 592.99 256.91
  L 592.98 183.23
  A 0.46 0.46 0.0 0 0 592.52 182.77
  L 402.35 182.78"
/>
<path stroke="#80c4e5" vector-effect="non-scaling-stroke" d="
  M 402.42 529.73
  L 485.11 513.57
  Q 485.60 513.47 485.64 512.98
  L 495.27 411.29
  Q 495.32 410.80 494.83 410.80
  L 401.62 410.79"
/>
</g>
<path fill="#0074be" d="
  M 708.02 50.02
  L 653.53 678.65
  A 0.32 0.32 0.0 0 1 653.30 678.93
  L 402.41 751.58
  A 0.32 0.32 0.0 0 1 402.23 751.59
  L 143.73 678.94
  A 0.32 0.32 0.0 0 1 143.50 678.66
  L 91.97 48.76
  A 0.32 0.32 0.0 0 1 92.29 48.41
  L 707.70 49.67
  A 0.32 0.32 0.0 0 1 708.02 50.02
  Z
  M 402.35 182.78
  L 203.22 182.76
  Q 202.71 182.76 202.78 183.27
  L 213.23 258.54
  A 0.56 0.56 0.0 0 0 213.78 259.02
  Q 304.56 259.03 395.50 258.80
  Q 396.52 258.79 397.04 259.07
  Q 397.59 259.35 397.02 259.59
  L 217.03 336.84
  Q 216.25 337.17 216.37 338.01
  L 226.75 410.26
  Q 226.82 410.78 227.34 410.78
  L 401.62 410.79
  Q 402.39 413.05 402.36 417.50
  Q 402.14 450.07 402.42 529.73
  C 398.98 530.41 395.92 531.56 392.43 530.66
  Q 352.48 520.42 312.66 510.22
  A 0.56 0.56 0.0 0 1 312.25 509.74
  L 306.01 452.23
  A 0.53 0.53 0.0 0 0 305.48 451.76
  L 230.48 451.76
  A 0.25 0.24 -2.1 0 0 230.23 452.02
  L 240.34 572.97
  Q 240.36 573.18 240.56 573.24
  L 401.46 618.07
  L 402.04 618.80
  Q 402.37 619.22 402.37 619.76
  L 402.31 690.25
  A 0.32 0.32 0.0 0 0 402.73 690.56
  L 609.91 630.47
  A 1.31 1.29 -5.7 0 0 610.85 629.34
  L 655.95 109.97
  A 0.51 0.51 0.0 0 0 655.44 109.41
  L 403.49 108.48
  A 1.12 1.11 -89.7 0 0 402.37 109.60
  L 402.35 182.78
  Z"
/>
<path fill="#0089ca" d="
  M 401.46 618.07
  Q 402.55 618.48 403.01 618.34
  Q 480.47 593.71 558.10 569.03
  A 0.41 0.41 0.0 0 0 558.39 568.67
  L 578.21 332.08
  A 0.39 0.39 0.0 0 0 577.82 331.65
  L 415.91 331.65
  Q 414.01 331.65 415.76 330.92
  L 592.58 257.53
  Q 592.99 257.36 592.99 256.91
  L 592.98 183.23
  A 0.46 0.46 0.0 0 0 592.52 182.77
  L 402.35 182.78
  L 402.37 109.60
  A 1.12 1.11 -89.7 0 1 403.49 108.48
  L 655.44 109.41
  A 0.51 0.51 0.0 0 1 655.95 109.97
  L 610.85 629.34
  A 1.31 1.29 -5.7 0 1 609.91 630.47
  L 402.73 690.56
  A 0.32 0.32 0.0 0 1 402.31 690.25
  L 402.37 619.76
  Q 402.37 619.22 402.04 618.80
  L 401.46 618.07
  Z"
/>
<path fill="#ffffff" d="
  M 402.35 182.78
  L 592.52 182.77
  A 0.46 0.46 0.0 0 1 592.98 183.23
  L 592.99 256.91
  Q 592.99 257.36 592.58 257.53
  L 415.76 330.92
  Q 414.01 331.65 415.91 331.65
  L 577.82 331.65
  A 0.39 0.39 0.0 0 1 578.21 332.08
  L 558.39 568.67
  A 0.41 0.41 0.0 0 1 558.10 569.03
  Q 480.47 593.71 403.01 618.34
  Q 402.55 618.48 401.46 618.07
  L 240.56 573.24
  Q 240.36 573.18 240.34 572.97
  L 230.23 452.02
  A 0.25 0.24 -2.1 0 1 230.48 451.76
  L 305.48 451.76
  A 0.53 0.53 0.0 0 1 306.01 452.23
  L 312.25 509.74
  A 0.56 0.56 0.0 0 0 312.66 510.22
  Q 352.48 520.42 392.43 530.66
  C 395.92 531.56 398.98 530.41 402.42 529.73
  L 485.11 513.57
  Q 485.60 513.47 485.64 512.98
  L 495.27 411.29
  Q 495.32 410.80 494.83 410.80
  L 401.62 410.79
  L 227.34 410.78
  Q 226.82 410.78 226.75 410.26
  L 216.37 338.01
  Q 216.25 337.17 217.03 336.84
  L 397.02 259.59
  Q 397.59 259.35 397.04 259.07
  Q 396.52 258.79 395.50 258.80
  Q 304.56 259.03 213.78 259.02
  A 0.56 0.56 0.0 0 1 213.23 258.54
  L 202.78 183.27
  Q 202.71 182.76 203.22 182.76
  L 402.35 182.78
  Z"
/>
<path fill="#0089ca" d="
  M 401.62 410.79
  L 494.83 410.80
  Q 495.32 410.80 495.27 411.29
  L 485.64 512.98
  Q 485.60 513.47 485.11 513.57
  L 402.42 529.73
  Q 402.14 450.07 402.36 417.50
  Q 402.39 413.05 401.62 410.79
  Z"
/>
</svg>
