<?xml version="1.0" encoding="UTF-8" standalone="no"?>
<!DOCTYPE svg PUBLIC "-//W3C//DTD SVG 1.1//EN" "http://www.w3.org/Graphics/SVG/1.1/DTD/svg11.dtd">
<svg xmlns="http://www.w3.org/2000/svg" version="1.1" viewBox="0.00 0.00 600.00 600.00">
<path fill="#de4c36" d="
  M 298.63 0.00
  L 299.50 0.00
  Q 315.93 0.75 327.47 12.28
  Q 458.10 142.78 588.64 273.36
  Q 595.80 280.52 598.66 291.18
  C 599.44 294.09 599.56 297.44 600.00 300.62
  L 600.00 301.25
  C 599.53 303.81 599.46 306.63 598.94 308.91
  Q 596.38 320.16 589.14 327.39
  Q 458.47 458.10 327.76 588.78
  Q 317.72 598.82 302.37 600.00
  L 298.50 600.00
  Q 283.14 598.67 272.74 588.27
  Q 142.09 457.66 11.48 327.01
  Q 1.25 316.78 0.00 301.38
  L 0.00 297.50
  Q 1.26 282.09 10.91 272.45
  Q 100.88 182.61 190.78 92.65
  A 0.20 0.19 -43.9 0 1 191.05 92.65
  L 258.53 160.27
  A 0.87 0.86 33.2 0 1 258.73 161.19
  C 249.40 184.96 260.40 210.30 283.38 220.73
  Q 283.87 220.96 283.87 221.49
  L 283.87 384.96
  Q 283.87 385.42 283.45 385.61
  Q 266.44 393.51 259.41 409.53
  C 244.39 443.82 273.92 479.96 310.25 473.18
  Q 323.39 470.73 332.97 461.36
  C 355.91 438.95 350.20 402.16 322.17 387.12
  Q 321.68 386.86 321.68 386.30
  L 321.68 224.36
  Q 321.68 223.78 322.09 224.19
  L 383.32 285.42
  A 0.86 0.85 33.6 0 1 383.51 286.34
  C 371.85 316.06 393.16 347.88 424.53 348.99
  C 440.16 349.55 455.70 341.99 464.30 328.82
  C 478.42 307.20 472.83 278.79 451.02 264.62
  Q 433.52 253.26 411.65 259.60
  Q 411.18 259.73 410.84 259.39
  L 345.08 193.63
  Q 344.70 193.25 344.86 192.73
  C 356.46 156.22 323.37 123.89 287.09 134.63
  Q 286.62 134.77 286.28 134.43
  L 218.05 66.20
  Q 217.67 65.82 218.05 65.44
  Q 256.63 26.71 271.86 11.62
  Q 279.54 4.02 290.18 1.27
  C 292.74 0.61 295.79 0.48 298.63 0.00
  Z"
/>
</svg>
