<?xml version="1.0" encoding="UTF-8" standalone="no"?>
<!DOCTYPE svg PUBLIC "-//W3C//DTD SVG 1.1//EN" "http://www.w3.org/Graphics/SVG/1.1/DTD/svg11.dtd">
<svg xmlns="http://www.w3.org/2000/svg" version="1.1" viewBox="0.00 0.00 800.00 800.00">
<g stroke-width="2.00" fill="none" stroke-linecap="butt">
<path stroke="#f1a793" vector-effect="non-scaling-stroke" d="
  M 399.99 146.82
  Q 398.80 146.68 398.39 146.86"
/>
<path stroke="#e79d89" vector-effect="non-scaling-stroke" d="
  M 398.39 146.86
  L 178.78 146.86
  Q 178.23 146.86 178.26 147.40
  Q 178.84 160.76 179.76 171.01
  Q 190.61 292.18 201.52 413.49
  Q 201.56 414.01 202.09 414.01
  L 398.42 414.02"
/>
<path stroke="#f1a793" vector-effect="non-scaling-stroke" d="
  M 398.42 414.02
  L 400.01 414.05"
/>
<path stroke="#e95a28" vector-effect="non-scaling-stroke" d="
  M 400.01 414.05
  L 400.04 554.24"
/>
<path stroke="#f1a793" vector-effect="non-scaling-stroke" d="
  M 400.04 554.24
  Q 399.59 554.15 398.39 554.65"
/>
<path stroke="#e79d89" vector-effect="non-scaling-stroke" d="
  M 398.39 554.65
  L 300.55 528.24
  Q 300.00 528.09 299.95 527.52
  L 293.79 458.26
  Q 293.75 457.77 293.26 457.77
  L 206.74 457.77
  A 0.46 0.46 0.0 0 0 206.28 458.26
  L 217.16 596.50
  A 0.49 0.49 0.0 0 0 217.53 596.95
  L 398.35 646.83"
/>
<path stroke="#f1a793" vector-effect="non-scaling-stroke" d="
  M 398.35 646.83
  Q 398.75 647.17 400.02 646.73"
/>
<path stroke="#e95a28" vector-effect="non-scaling-stroke" d="
  M 400.02 646.73
  L 400.01 736.77
  A 0.57 0.56 82.6 0 0 400.72 737.32
  L 632.29 673.60
  Q 632.81 673.45 632.86 672.91
  L 687.45 58.40
  A 0.56 0.56 0.0 0 0 686.89 57.79
  L 401.27 57.79
  A 1.32 1.31 0.0 0 0 399.95 59.10
  L 399.99 146.82"
/>
<path stroke="#f7b295" vector-effect="non-scaling-stroke" d="
  M 400.02 646.73
  L 579.34 596.97
  Q 579.66 596.88 579.70 596.54
  Q 580.91 585.23 581.90 573.95
  Q 591.26 466.59 600.61 359.22
  C 601.63 347.52 603.04 336.69 604.66 325.48
  A 0.43 0.43 0.0 0 0 604.23 324.99
  L 400.03 324.99"
/>
<path stroke="#e95a28" vector-effect="non-scaling-stroke" d="
  M 400.03 324.99
  L 400.22 234.43"
/>
<path stroke="#f7b295" vector-effect="non-scaling-stroke" d="
  M 400.22 234.43
  L 611.92 234.43
  Q 612.42 234.43 612.46 233.94
  C 615.03 205.08 618.77 176.27 620.18 147.33
  Q 620.21 146.82 619.70 146.82
  L 399.99 146.82"
/>
<path stroke="#f1a793" vector-effect="non-scaling-stroke" d="
  M 400.22 234.43
  Q 399.08 234.75 398.43 234.42"
/>
<path stroke="#f5f5f5" vector-effect="non-scaling-stroke" d="
  M 398.35 646.83
  L 398.39 554.65"
/>
<path stroke="#f7b295" vector-effect="non-scaling-stroke" d="
  M 400.04 554.24
  L 496.52 528.22
  A 0.54 0.53 -5.5 0 0 496.91 527.75
  L 507.74 414.77
  Q 507.81 414.05 507.09 414.05
  L 400.01 414.05"
/>
<path stroke="#f1a793" vector-effect="non-scaling-stroke" d="
  M 400.03 324.99
  L 398.46 324.99"
/>
<path stroke="#f5f5f5" vector-effect="non-scaling-stroke" d="
  M 398.39 146.86
  L 398.43 234.42"
/>
<path stroke="#e79d89" vector-effect="non-scaling-stroke" d="
  M 398.43 234.42
  L 275.35 234.42
  A 0.32 0.31 -2.5 0 0 275.03 234.76
  L 282.77 324.49
  Q 282.81 324.99 283.31 324.99
  L 398.46 324.99"
/>
<path stroke="#f5f5f5" vector-effect="non-scaling-stroke" d="
  M 398.46 324.99
  L 398.42 414.02"
/>
</g>
<path fill="#e34f26" d="
  M 46.89 0.00
  L 751.54 0.00
  L 687.52 718.21
  Q 687.48 718.72 686.99 718.86
  L 398.74 800.00
  L 398.13 800.00
  L 111.49 718.89
  Q 110.99 718.75 110.95 718.23
  L 46.89 0.00
  Z
  M 399.99 146.82
  Q 398.80 146.68 398.39 146.86
  L 178.78 146.86
  Q 178.23 146.86 178.26 147.40
  Q 178.84 160.76 179.76 171.01
  Q 190.61 292.18 201.52 413.49
  Q 201.56 414.01 202.09 414.01
  L 398.42 414.02
  L 400.01 414.05
  L 400.04 554.24
  Q 399.59 554.15 398.39 554.65
  L 300.55 528.24
  Q 300.00 528.09 299.95 527.52
  L 293.79 458.26
  Q 293.75 457.77 293.26 457.77
  L 206.74 457.77
  A 0.46 0.46 0.0 0 0 206.28 458.26
  L 217.16 596.50
  A 0.49 0.49 0.0 0 0 217.53 596.95
  L 398.35 646.83
  Q 398.75 647.17 400.02 646.73
  L 400.01 736.77
  A 0.57 0.56 82.6 0 0 400.72 737.32
  L 632.29 673.60
  Q 632.81 673.45 632.86 672.91
  L 687.45 58.40
  A 0.56 0.56 0.0 0 0 686.89 57.79
  L 401.27 57.79
  A 1.32 1.31 0.0 0 0 399.95 59.10
  L 399.99 146.82
  Z"
/>
<path fill="#ef652a" d="
  M 400.02 646.73
  L 579.34 596.97
  Q 579.66 596.88 579.70 596.54
  Q 580.91 585.23 581.90 573.95
  Q 591.26 466.59 600.61 359.22
  C 601.63 347.52 603.04 336.69 604.66 325.48
  A 0.43 0.43 0.0 0 0 604.23 324.99
  L 400.03 324.99
  L 400.22 234.43
  L 611.92 234.43
  Q 612.42 234.43 612.46 233.94
  C 615.03 205.08 618.77 176.27 620.18 147.33
  Q 620.21 146.82 619.70 146.82
  L 399.99 146.82
  L 399.95 59.10
  A 1.32 1.31 0.0 0 1 401.27 57.79
  L 686.89 57.79
  A 0.56 0.56 0.0 0 1 687.45 58.40
  L 632.86 672.91
  Q 632.81 673.45 632.29 673.60
  L 400.72 737.32
  A 0.57 0.56 82.6 0 1 400.01 736.77
  L 400.02 646.73
  Z"
/>
<path fill="#ebebeb" d="
  M 398.39 146.86
  L 398.43 234.42
  L 275.35 234.42
  A 0.32 0.31 -2.5 0 0 275.03 234.76
  L 282.77 324.49
  Q 282.81 324.99 283.31 324.99
  L 398.46 324.99
  L 398.42 414.02
  L 202.09 414.01
  Q 201.56 414.01 201.52 413.49
  Q 190.61 292.18 179.76 171.01
  Q 178.84 160.76 178.26 147.40
  Q 178.23 146.86 178.78 146.86
  L 398.39 146.86
  Z"
/>
<path fill="#ffffff" d="
  M 398.39 146.86
  Q 398.80 146.68 399.99 146.82
  L 619.70 146.82
  Q 620.21 146.82 620.18 147.33
  C 618.77 176.27 615.03 205.08 612.46 233.94
  Q 612.42 234.43 611.92 234.43
  L 400.22 234.43
  Q 399.08 234.75 398.43 234.42
  L 398.39 146.86
  Z"
/>
<path fill="#e34f26" d="
  M 398.43 234.42
  Q 399.08 234.75 400.22 234.43
  L 400.03 324.99
  L 398.46 324.99
  L 283.31 324.99
  Q 282.81 324.99 282.77 324.49
  L 275.03 234.76
  A 0.32 0.31 -2.5 0 1 275.35 234.42
  L 398.43 234.42
  Z"
/>
<path fill="#ffffff" d="
  M 398.46 324.99
  L 400.03 324.99
  L 604.23 324.99
  A 0.43 0.43 0.0 0 1 604.66 325.48
  C 603.04 336.69 601.63 347.52 600.61 359.22
  Q 591.26 466.59 581.90 573.95
  Q 580.91 585.23 579.70 596.54
  Q 579.66 596.88 579.34 596.97
  L 400.02 646.73
  Q 398.75 647.17 398.35 646.83
  L 398.39 554.65
  Q 399.59 554.15 400.04 554.24
  L 496.52 528.22
  A 0.54 0.53 -5.5 0 0 496.91 527.75
  L 507.74 414.77
  Q 507.81 414.05 507.09 414.05
  L 400.01 414.05
  L 398.42 414.02
  L 398.46 324.99
  Z"
/>
<path fill="#ef652a" d="
  M 400.01 414.05
  L 507.09 414.05
  Q 507.81 414.05 507.74 414.77
  L 496.91 527.75
  A 0.54 0.53 -5.5 0 1 496.52 528.22
  L 400.04 554.24
  L 400.01 414.05
  Z"
/>
<path fill="#ebebeb" d="
  M 398.39 554.65
  L 398.35 646.83
  L 217.53 596.95
  A 0.49 0.49 0.0 0 1 217.16 596.50
  L 206.28 458.26
  A 0.46 0.46 0.0 0 1 206.74 457.77
  L 293.26 457.77
  Q 293.75 457.77 293.79 458.26
  L 299.95 527.52
  Q 300.00 528.09 300.55 528.24
  L 398.39 554.65
  Z"
/>
</svg>
