<?xml version="1.0" encoding="UTF-8" standalone="no"?>
<!DOCTYPE svg PUBLIC "-//W3C//DTD SVG 1.1//EN" "http://www.w3.org/Graphics/SVG/1.1/DTD/svg11.dtd">
<svg xmlns="http://www.w3.org/2000/svg" version="1.1" viewBox="0.00 0.00 512.00 512.00">
<path fill="#ea2d2e" d="
  M 236.56 115.30
  C 224.85 130.93 226.12 146.68 236.16 162.63
  C 242.37 172.48 249.17 181.61 255.06 191.83
  Q 256.38 194.12 254.40 192.38
  C 242.91 182.30 231.05 170.86 221.60 158.39
  C 210.88 144.27 205.12 126.89 217.57 111.57
  C 231.23 94.76 250.89 81.76 266.04 68.81
  C 285.05 52.56 296.55 32.01 290.09 6.34
  Q 289.75 4.98 290.61 6.09
  C 311.08 32.46 290.60 64.64 270.57 83.33
  C 259.13 94.02 245.95 102.78 236.56 115.30
  Z"
/>
<path fill="#ea2d2e" d="
  M 277.33 120.81
  C 272.06 133.16 280.39 143.79 287.15 153.31
  Q 292.36 160.64 293.51 163.67
  C 300.21 181.37 282.10 197.62 268.61 205.12
  Q 266.64 206.21 268.38 204.77
  C 273.17 200.81 277.33 192.80 277.74 187.50
  C 278.51 177.75 273.87 172.65 268.07 165.49
  C 258.51 153.69 252.83 138.09 258.59 123.84
  C 268.96 98.16 306.82 82.80 331.24 76.06
  Q 333.19 75.52 331.43 76.51
  Q 315.07 85.77 299.10 97.36
  C 291.23 103.07 281.18 111.81 277.33 120.81
  Z"
/>
<path fill="#0074bd" d="
  M 355.39 197.41
  C 348.52 194.33 343.53 195.48 336.18 197.49
  Q 335.51 197.67 335.93 197.12
  Q 337.55 194.96 339.99 193.99
  C 352.25 189.15 367.38 190.67 376.34 200.64
  C 382.95 208.00 383.71 218.03 379.29 226.88
  C 370.53 244.44 346.21 254.18 328.44 258.60
  Q 327.89 258.73 328.10 258.21
  Q 328.38 257.49 328.96 257.20
  C 340.73 251.16 352.45 243.41 360.94 233.20
  C 370.84 221.30 371.23 204.51 355.39 197.41
  Z"
/>
<path fill="#0074bd" d="
  M 181.16 210.44
  C 185.74 216.90 221.45 216.41 229.50 216.32
  Q 279.21 215.76 327.68 207.32
  A 0.22 0.21 -61.4 0 1 327.80 207.73
  Q 321.73 210.35 315.83 213.96
  Q 313.09 215.64 310.33 216.28
  C 275.68 224.29 238.24 225.95 202.75 224.18
  C 199.71 224.03 147.84 221.28 157.45 210.71
  C 159.33 208.64 163.41 207.02 166.26 205.72
  Q 189.69 195.01 213.84 194.63
  Q 217.11 194.58 213.93 195.33
  C 208.56 196.60 181.88 203.43 180.94 209.50
  Q 180.86 210.01 181.16 210.44
  Z"
/>
<path fill="#0074bd" d="
  M 201.50 233.97
  C 193.48 241.51 198.69 245.30 206.77 246.34
  C 238.51 250.44 268.15 249.18 301.17 242.41
  Q 301.64 242.31 301.99 242.64
  Q 307.81 248.00 315.21 250.78
  Q 315.94 251.05 315.19 251.26
  Q 270.36 263.96 223.51 260.63
  C 212.51 259.85 200.73 258.21 190.59 253.66
  C 186.83 251.96 181.10 247.82 184.84 243.08
  C 188.46 238.49 195.84 235.73 201.44 233.87
  Q 201.69 233.79 201.50 233.97
  Z"
/>
<path fill="#0074bd" d="
  M 206.91 274.45
  A 2.53 2.52 38.1 0 0 207.31 277.73
  C 211.59 281.60 221.87 281.68 227.40 282.29
  C 248.95 284.67 268.86 282.81 290.28 278.55
  A 1.42 1.40 54.5 0 1 291.26 278.72
  Q 299.79 283.72 309.01 287.32
  Q 309.93 287.68 309.01 288.05
  C 278.70 300.34 242.74 303.66 211.03 294.60
  C 206.02 293.16 189.29 287.38 195.06 279.08
  C 197.65 275.35 205.18 272.72 209.41 271.59
  Q 210.10 271.41 209.51 271.82
  Q 207.97 272.89 206.91 274.45
  Z"
/>
<path fill="#0074bd" d="
  M 150.78 311.56
  C 153.16 315.06 165.85 317.68 170.01 318.43
  C 180.39 320.30 190.48 321.59 201.39 322.28
  Q 254.11 325.63 306.76 320.57
  C 312.84 319.99 372.23 315.32 361.37 299.97
  Q 361.11 299.61 361.53 299.78
  Q 364.90 301.12 366.39 303.40
  C 371.58 311.38 349.23 318.85 344.72 320.18
  Q 323.68 326.38 300.87 329.10
  C 247.76 335.43 194.17 333.39 141.76 324.40
  C 138.17 323.79 130.33 321.60 128.97 317.70
  C 127.51 313.55 132.96 309.53 136.04 307.76
  C 147.94 300.93 167.51 293.81 181.30 297.01
  Q 186.37 298.18 181.16 298.34
  C 173.46 298.57 157.06 302.07 151.00 308.64
  A 2.36 2.35 49.4 0 0 150.78 311.56
  Z"
/>
<path fill="#0074bd" d="
  M 381.67 319.83
  C 376.46 332.09 359.96 337.26 348.21 340.12
  Q 324.43 345.91 300.00 347.71
  C 266.28 350.19 230.78 350.25 197.24 345.51
  Q 185.74 343.89 176.67 340.19
  Q 173.42 338.86 176.90 339.38
  Q 195.65 342.20 215.75 343.21
  C 259.27 345.41 304.21 343.22 346.72 333.09
  C 357.33 330.56 372.28 326.61 380.44 318.96
  Q 383.10 316.46 381.67 319.83
  Z"
/>
<path fill="#ea2d2e" d="
  M 121.66 497.06
  C 130.02 492.78 136.19 485.77 137.46 476.25
  Q 138.22 470.60 138.21 459.50
  Q 138.19 415.79 138.21 372.07
  Q 138.21 371.53 138.75 371.53
  L 154.73 371.53
  Q 155.23 371.53 155.23 372.02
  Q 155.30 416.90 155.39 461.75
  Q 155.41 471.66 153.98 480.00
  C 151.80 492.71 141.36 502.13 129.66 506.50
  Q 129.13 506.70 128.76 506.26
  L 121.52 497.75
  Q 121.16 497.32 121.66 497.06
  Z"
/>
<path fill="#ea2d2e" d="
  M 212.69 430.74
  Q 213.30 423.90 212.43 419.78
  C 209.10 404.14 183.21 410.89 173.73 414.57
  Q 173.50 414.66 173.44 414.42
  L 171.18 404.98
  A 0.33 0.32 71.3 0 1 171.36 404.61
  C 186.50 397.72 220.01 391.75 227.34 412.12
  Q 228.95 416.60 228.97 429.54
  Q 228.99 453.68 228.97 477.79
  Q 228.97 478.29 228.47 478.29
  L 216.81 478.28
  Q 216.33 478.28 216.26 477.81
  L 215.15 470.31
  A 0.41 0.41 0.0 0 0 214.46 470.07
  Q 205.24 478.78 193.34 479.75
  C 178.88 480.93 167.37 474.60 166.94 458.76
  C 166.27 433.58 194.12 431.02 212.16 431.22
  Q 212.65 431.23 212.69 430.74
  Z
  M 212.36 441.51
  C 202.90 441.23 185.30 440.41 183.28 452.98
  C 181.84 461.96 187.28 469.20 197.04 467.97
  Q 205.64 466.88 212.55 460.20
  Q 212.86 459.91 212.86 459.48
  L 212.85 442.01
  A 0.50 0.50 0.0 0 0 212.36 441.51
  Z"
/>
<path fill="#ea2d2e" d="
  M 361.69 470.24
  Q 359.76 471.53 357.92 472.92
  Q 346.03 481.84 331.02 479.28
  Q 318.00 477.05 314.76 464.53
  Q 312.03 453.96 317.57 445.20
  C 325.82 432.15 345.56 430.63 359.30 431.32
  A 0.56 0.56 0.0 0 0 359.89 430.80
  Q 360.26 425.55 359.58 420.55
  C 357.32 404.02 330.77 410.84 321.16 414.39
  Q 320.56 414.61 320.41 413.99
  L 318.34 405.27
  Q 318.20 404.71 318.73 404.48
  C 333.72 397.82 367.49 391.33 374.76 413.05
  Q 375.95 416.60 375.98 425.59
  Q 376.08 451.67 376.00 477.77
  Q 376.00 478.29 375.48 478.29
  L 363.98 478.28
  Q 363.41 478.28 363.33 477.72
  L 362.27 470.50
  Q 362.18 469.92 361.69 470.24
  Z
  M 330.26 455.47
  C 330.25 466.07 338.47 470.15 347.73 467.17
  Q 354.44 465.01 359.53 460.45
  Q 359.98 460.06 359.97 459.46
  L 359.96 441.78
  A 0.27 0.27 0.0 0 0 359.70 441.51
  C 349.38 441.25 330.27 440.16 330.26 455.47
  Z"
/>
<path fill="#ea2d2e" d="
  M 274.17 461.52
  Q 274.39 462.43 274.71 461.55
  Q 285.56 431.61 290.01 400.08
  Q 290.08 399.61 290.55 399.61
  L 306.48 399.63
  Q 307.02 399.63 306.93 400.16
  Q 299.92 440.48 283.08 477.75
  Q 282.84 478.29 282.26 478.29
  L 263.12 478.29
  Q 262.67 478.29 262.54 477.86
  L 238.67 400.18
  Q 238.50 399.62 239.08 399.62
  L 255.74 399.62
  A 0.38 0.37 81.7 0 1 256.10 399.89
  Q 263.06 422.26 269.96 444.55
  C 271.63 449.95 272.77 455.87 274.17 461.52
  Z"
/>
<path fill="#ea2d2e" d="
  M 389.38 402.01
  L 388.26 404.44
  Q 387.07 407.03 386.24 404.31
  L 385.65 402.39
  A 0.31 0.31 0.0 0 0 385.04 402.47
  L 384.97 405.53
  Q 384.95 406.01 384.47 405.99
  L 383.97 405.96
  Q 383.74 405.95 383.74 405.72
  L 383.75 400.22
  Q 383.75 399.70 384.28 399.71
  L 385.20 399.72
  A 0.58 0.57 83.3 0 1 385.74 400.15
  Q 386.14 401.66 386.92 402.92
  Q 387.52 403.90 387.88 402.81
  L 388.68 400.45
  Q 388.84 399.95 389.33 399.75
  Q 389.80 399.56 390.28 399.66
  A 0.60 0.60 0.0 0 1 390.77 400.25
  L 390.79 405.50
  Q 390.80 406.04 390.25 405.97
  L 389.86 405.91
  Q 389.51 405.86 389.53 405.51
  L 389.75 402.10
  A 0.20 0.19 -30.9 0 0 389.38 402.01
  Z"
/>
<path fill="#ea2d2e" d="
  M 380.75 401.26
  L 380.77 405.50
  A 0.44 0.44 0.0 0 1 380.32 405.94
  L 379.90 405.93
  Q 379.47 405.92 379.47 405.49
  L 379.50 401.24
  Q 379.51 400.71 378.97 400.74
  Q 378.35 400.78 377.80 400.49
  A 0.41 0.41 0.0 0 1 377.99 399.71
  L 382.49 399.73
  Q 384.01 399.74 382.62 400.36
  Q 381.94 400.66 381.19 400.76
  Q 380.74 400.81 380.75 401.26
  Z"
/>
</svg>
