<?xml version="1.0" encoding="UTF-8" standalone="no"?>
<!DOCTYPE svg PUBLIC "-//W3C//DTD SVG 1.1//EN" "http://www.w3.org/Graphics/SVG/1.1/DTD/svg11.dtd">
<svg xmlns="http://www.w3.org/2000/svg" version="1.1" viewBox="0.00 0.00 800.00 800.00">
<g stroke-width="2.00" fill="none" stroke-linecap="butt">
<path stroke="#918740" vector-effect="non-scaling-stroke" d="
  M 694.97 435.12
  Q 695.09 435.12 695.22 435.13
  Q 695.22 435.13 695.25 435.12
  L 713.85 423.52
  Q 714.37 423.19 714.07 422.66
  Q 708.51 412.63 700.28 402.52
  C 679.54 377.05 652.48 365.73 620.00 363.49
  C 598.64 362.02 579.36 364.26 560.01 371.65
  Q 541.75 378.63 527.71 391.33
  Q 527.43 391.59 526.92 392.29
  C 526.32 393.12 525.15 393.70 524.60 394.27
  Q 509.30 410.13 502.75 430.25
  C 497.05 447.75 496.63 466.55 499.62 484.67
  C 505.53 520.54 529.37 545.49 560.64 562.10
  Q 575.77 570.13 589.03 575.82
  Q 597.78 579.58 603.02 581.90
  C 607.00 583.66 613.15 585.50 616.13 587.37
  Q 617.36 588.14 618.34 588.51
  C 620.92 589.49 623.23 590.83 625.83 591.81
  C 627.45 592.42 628.30 593.73 630.29 593.91
  A 1.15 1.13 -15.1 0 1 631.10 594.37
  Q 631.57 595.01 631.87 595.15
  Q 640.72 599.28 647.77 604.99
  C 659.13 614.18 664.31 628.76 659.72 642.96
  Q 658.37 647.14 656.54 650.02
  Q 650.46 659.64 638.89 664.44
  Q 636.73 665.34 634.57 666.26
  Q 632.24 667.25 630.16 667.74
  C 606.91 673.18 581.46 669.64 562.26 654.74
  C 551.75 646.58 543.71 636.42 536.74 625.12
  A 0.74 0.73 -31.4 0 0 535.74 624.88
  L 525.50 630.98
  Q 525.30 631.10 525.07 631.16
  C 523.67 631.58 521.45 633.46 519.96 634.22
  C 516.15 636.16 514.07 637.34 511.13 639.00
  C 509.62 639.86 507.58 641.71 505.18 642.35
  Q 504.70 642.48 504.46 642.91
  Q 504.09 643.57 503.37 643.86
  Q 500.82 644.91 498.51 646.37
  C 493.82 649.34 489.12 652.01 484.29 654.73
  Q 480.03 657.12 475.86 659.74
  Q 475.45 660.01 475.63 660.46
  Q 477.25 664.49 479.76 667.99
  C 480.57 669.12 481.04 670.37 481.66 671.35
  Q 498.46 697.63 524.92 714.04
  C 526.24 714.87 527.95 716.04 529.30 716.62
  Q 530.66 717.20 531.91 718.00
  C 533.31 718.90 534.95 719.43 536.61 720.41
  Q 540.56 722.72 554.40 727.81
  Q 556.03 728.41 558.16 728.96
  C 561.35 729.78 564.89 730.96 567.64 731.59
  Q 601.50 739.38 636.11 735.03
  Q 636.43 734.99 636.68 734.77
  Q 636.92 734.55 637.25 734.57
  Q 639.90 734.69 642.50 734.24
  Q 660.82 731.08 677.80 723.56
  C 678.77 723.13 679.92 722.15 681.45 722.00
  Q 681.94 721.95 682.34 721.68
  Q 685.81 719.39 689.48 717.45
  Q 692.57 715.81 694.75 714.17
  Q 697.22 712.30 699.69 710.39
  C 729.97 687.01 739.56 652.27 735.22 615.26
  Q 731.14 580.43 707.38 556.88
  C 680.36 530.10 642.31 517.06 608.37 501.82
  C 598.63 497.45 588.43 492.34 580.83 484.67
  C 573.70 477.47 571.06 467.80 571.93 457.67
  Q 572.52 450.71 575.59 445.34
  C 580.04 437.57 587.63 431.42 597.01 429.57
  Q 614.02 426.21 629.78 432.80
  C 634.25 434.67 640.06 439.41 643.27 442.87
  Q 650.47 450.65 655.60 460.04
  Q 655.85 460.49 656.30 460.24
  Q 658.63 458.97 660.77 457.45
  Q 664.02 455.12 665.52 454.22
  Q 671.90 450.38 678.03 446.16
  Q 678.69 445.71 679.98 445.02
  C 681.87 444.02 683.50 442.54 685.39 441.47
  C 688.21 439.87 690.57 438.03 693.33 436.53
  Q 694.25 436.03 694.82 435.21
  Q 694.88 435.12 694.97 435.12"
/>
<path stroke="#918740" vector-effect="non-scaling-stroke" d="
  M 385.79 721.69
  Q 390.63 719.35 394.98 716.16
  C 423.54 695.25 434.20 661.19 434.27 627.00
  Q 434.51 497.35 434.55 367.84
  Q 434.55 367.28 433.98 367.28
  L 359.98 367.28
  A 0.48 0.48 0.0 0 0 359.50 367.76
  Q 359.51 496.28 359.50 624.75
  Q 359.50 632.45 357.82 641.19
  Q 357.11 644.88 355.85 648.15
  C 348.93 665.97 335.10 669.97 317.25 669.49
  C 296.09 668.92 284.68 654.50 275.10 637.92
  Q 274.59 637.04 274.44 636.48
  Q 274.31 636.00 273.96 635.64
  Q 272.44 634.08 271.78 631.98
  A 1.04 1.04 0.0 0 0 270.08 631.53
  Q 268.47 633.03 266.37 633.99
  C 264.35 634.91 262.83 636.34 260.71 637.34
  C 257.35 638.93 254.38 641.18 251.24 643.02
  Q 248.99 644.33 246.90 645.91
  Q 246.63 646.11 245.96 646.11
  A 1.17 1.14 22.9 0 0 245.17 646.42
  C 243.11 648.31 240.17 649.64 238.45 650.74
  Q 233.15 654.15 227.67 657.27
  C 221.89 660.55 216.14 664.13 210.51 667.73
  A 0.66 0.65 61.9 0 0 210.27 668.55
  Q 211.86 672.13 214.92 677.49
  C 226.25 697.32 243.15 714.44 263.75 724.10
  C 289.12 736.00 316.91 738.81 345.08 735.07
  A 0.84 0.02 -27.3 0 0 345.80 734.72
  C 346.42 734.40 349.98 734.39 351.47 734.05
  Q 358.51 732.47 365.47 730.58
  Q 368.19 729.84 370.78 728.69
  C 372.13 728.09 373.40 728.01 374.67 727.38
  Q 378.20 725.62 381.88 724.25
  C 383.34 723.70 384.44 722.35 385.79 721.69"
/>
</g>
<path fill="#f0db4f" d="
  M 0.00 0.00
  L 800.00 0.00
  L 800.00 800.00
  L 0.00 800.00
  L 0.00 0.00
  Z
  M 694.97 435.12
  Q 695.09 435.12 695.22 435.13
  Q 695.22 435.13 695.25 435.12
  L 713.85 423.52
  Q 714.37 423.19 714.07 422.66
  Q 708.51 412.63 700.28 402.52
  C 679.54 377.05 652.48 365.73 620.00 363.49
  C 598.64 362.02 579.36 364.26 560.01 371.65
  Q 541.75 378.63 527.71 391.33
  Q 527.43 391.59 526.92 392.29
  C 526.32 393.12 525.15 393.70 524.60 394.27
  Q 509.30 410.13 502.75 430.25
  C 497.05 447.75 496.63 466.55 499.62 484.67
  C 505.53 520.54 529.37 545.49 560.64 562.10
  Q 575.77 570.13 589.03 575.82
  Q 597.78 579.58 603.02 581.90
  C 607.00 583.66 613.15 585.50 616.13 587.37
  Q 617.36 588.14 618.34 588.51
  C 620.92 589.49 623.23 590.83 625.83 591.81
  C 627.45 592.42 628.30 593.73 630.29 593.91
  A 1.15 1.13 -15.1 0 1 631.10 594.37
  Q 631.57 595.01 631.87 595.15
  Q 640.72 599.28 647.77 604.99
  C 659.13 614.18 664.31 628.76 659.72 642.96
  Q 658.37 647.14 656.54 650.02
  Q 650.46 659.64 638.89 664.44
  Q 636.73 665.34 634.57 666.26
  Q 632.24 667.25 630.16 667.74
  C 606.91 673.18 581.46 669.64 562.26 654.74
  C 551.75 646.58 543.71 636.42 536.74 625.12
  A 0.74 0.73 -31.4 0 0 535.74 624.88
  L 525.50 630.98
  Q 525.30 631.10 525.07 631.16
  C 523.67 631.58 521.45 633.46 519.96 634.22
  C 516.15 636.16 514.07 637.34 511.13 639.00
  C 509.62 639.86 507.58 641.71 505.18 642.35
  Q 504.70 642.48 504.46 642.91
  Q 504.09 643.57 503.37 643.86
  Q 500.82 644.91 498.51 646.37
  C 493.82 649.34 489.12 652.01 484.29 654.73
  Q 480.03 657.12 475.86 659.74
  Q 475.45 660.01 475.63 660.46
  Q 477.25 664.49 479.76 667.99
  C 480.57 669.12 481.04 670.37 481.66 671.35
  Q 498.46 697.63 524.92 714.04
  C 526.24 714.87 527.95 716.04 529.30 716.62
  Q 530.66 717.20 531.91 718.00
  C 533.31 718.90 534.95 719.43 536.61 720.41
  Q 540.56 722.72 554.40 727.81
  Q 556.03 728.41 558.16 728.96
  C 561.35 729.78 564.89 730.96 567.64 731.59
  Q 601.50 739.38 636.11 735.03
  Q 636.43 734.99 636.68 734.77
  Q 636.92 734.55 637.25 734.57
  Q 639.90 734.69 642.50 734.24
  Q 660.82 731.08 677.80 723.56
  C 678.77 723.13 679.92 722.15 681.45 722.00
  Q 681.94 721.95 682.34 721.68
  Q 685.81 719.39 689.48 717.45
  Q 692.57 715.81 694.75 714.17
  Q 697.22 712.30 699.69 710.39
  C 729.97 687.01 739.56 652.27 735.22 615.26
  Q 731.14 580.43 707.38 556.88
  C 680.36 530.10 642.31 517.06 608.37 501.82
  C 598.63 497.45 588.43 492.34 580.83 484.67
  C 573.70 477.47 571.06 467.80 571.93 457.67
  Q 572.52 450.71 575.59 445.34
  C 580.04 437.57 587.63 431.42 597.01 429.57
  Q 614.02 426.21 629.78 432.80
  C 634.25 434.67 640.06 439.41 643.27 442.87
  Q 650.47 450.65 655.60 460.04
  Q 655.85 460.49 656.30 460.24
  Q 658.63 458.97 660.77 457.45
  Q 664.02 455.12 665.52 454.22
  Q 671.90 450.38 678.03 446.16
  Q 678.69 445.71 679.98 445.02
  C 681.87 444.02 683.50 442.54 685.39 441.47
  C 688.21 439.87 690.57 438.03 693.33 436.53
  Q 694.25 436.03 694.82 435.21
  Q 694.88 435.12 694.97 435.12
  Z
  M 385.79 721.69
  Q 390.63 719.35 394.98 716.16
  C 423.54 695.25 434.20 661.19 434.27 627.00
  Q 434.51 497.35 434.55 367.84
  Q 434.55 367.28 433.98 367.28
  L 359.98 367.28
  A 0.48 0.48 0.0 0 0 359.50 367.76
  Q 359.51 496.28 359.50 624.75
  Q 359.50 632.45 357.82 641.19
  Q 357.11 644.88 355.85 648.15
  C 348.93 665.97 335.10 669.97 317.25 669.49
  C 296.09 668.92 284.68 654.50 275.10 637.92
  Q 274.59 637.04 274.44 636.48
  Q 274.31 636.00 273.96 635.64
  Q 272.44 634.08 271.78 631.98
  A 1.04 1.04 0.0 0 0 270.08 631.53
  Q 268.47 633.03 266.37 633.99
  C 264.35 634.91 262.83 636.34 260.71 637.34
  C 257.35 638.93 254.38 641.18 251.24 643.02
  Q 248.99 644.33 246.90 645.91
  Q 246.63 646.11 245.96 646.11
  A 1.17 1.14 22.9 0 0 245.17 646.42
  C 243.11 648.31 240.17 649.64 238.45 650.74
  Q 233.15 654.15 227.67 657.27
  C 221.89 660.55 216.14 664.13 210.51 667.73
  A 0.66 0.65 61.9 0 0 210.27 668.55
  Q 211.86 672.13 214.92 677.49
  C 226.25 697.32 243.15 714.44 263.75 724.10
  C 289.12 736.00 316.91 738.81 345.08 735.07
  A 0.84 0.02 -27.3 0 0 345.80 734.72
  C 346.42 734.40 349.98 734.39 351.47 734.05
  Q 358.51 732.47 365.47 730.58
  Q 368.19 729.84 370.78 728.69
  C 372.13 728.09 373.40 728.01 374.67 727.38
  Q 378.20 725.62 381.88 724.25
  C 383.34 723.70 384.44 722.35 385.79 721.69
  Z"
/>
<path fill="#323330" d="
  M 694.82 435.21
  Q 694.25 436.03 693.33 436.53
  C 690.57 438.03 688.21 439.87 685.39 441.47
  C 683.50 442.54 681.87 444.02 679.98 445.02
  Q 678.69 445.71 678.03 446.16
  Q 671.90 450.38 665.52 454.22
  Q 664.02 455.12 660.77 457.45
  Q 658.63 458.97 656.30 460.24
  Q 655.85 460.49 655.60 460.04
  Q 650.47 450.65 643.27 442.87
  C 640.06 439.41 634.25 434.67 629.78 432.80
  Q 614.02 426.21 597.01 429.57
  C 587.63 431.42 580.04 437.57 575.59 445.34
  Q 572.52 450.71 571.93 457.67
  C 571.06 467.80 573.70 477.47 580.83 484.67
  C 588.43 492.34 598.63 497.45 608.37 501.82
  C 642.31 517.06 680.36 530.10 707.38 556.88
  Q 731.14 580.43 735.22 615.26
  C 739.56 652.27 729.97 687.01 699.69 710.39
  Q 697.22 712.30 694.75 714.17
  Q 692.57 715.81 689.48 717.45
  Q 685.81 719.39 682.34 721.68
  Q 681.94 721.95 681.45 722.00
  C 679.92 722.15 678.77 723.13 677.80 723.56
  Q 660.82 731.08 642.50 734.24
  Q 639.90 734.69 637.25 734.57
  Q 636.92 734.55 636.68 734.77
  Q 636.43 734.99 636.11 735.03
  Q 601.50 739.38 567.64 731.59
  C 564.89 730.96 561.35 729.78 558.16 728.96
  Q 556.03 728.41 554.40 727.81
  Q 540.56 722.72 536.61 720.41
  C 534.95 719.43 533.31 718.90 531.91 718.00
  Q 530.66 717.20 529.30 716.62
  C 527.95 716.04 526.24 714.87 524.92 714.04
  Q 498.46 697.63 481.66 671.35
  C 481.04 670.37 480.57 669.12 479.76 667.99
  Q 477.25 664.49 475.63 660.46
  Q 475.45 660.01 475.86 659.74
  Q 480.03 657.12 484.29 654.73
  C 489.12 652.01 493.82 649.34 498.51 646.37
  Q 500.82 644.91 503.37 643.86
  Q 504.09 643.57 504.46 642.91
  Q 504.70 642.48 505.18 642.35
  C 507.58 641.71 509.62 639.86 511.13 639.00
  C 514.07 637.34 516.15 636.16 519.96 634.22
  C 521.45 633.46 523.67 631.58 525.07 631.16
  Q 525.30 631.10 525.50 630.98
  L 535.74 624.88
  A 0.74 0.73 -31.4 0 1 536.74 625.12
  C 543.71 636.42 551.75 646.58 562.26 654.74
  C 581.46 669.64 606.91 673.18 630.16 667.74
  Q 632.24 667.25 634.57 666.26
  Q 636.73 665.34 638.89 664.44
  Q 650.46 659.64 656.54 650.02
  Q 658.37 647.14 659.72 642.96
  C 664.31 628.76 659.13 614.18 647.77 604.99
  Q 640.72 599.28 631.87 595.15
  Q 631.57 595.01 631.10 594.37
  A 1.15 1.13 -15.1 0 0 630.29 593.91
  C 628.30 593.73 627.45 592.42 625.83 591.81
  C 623.23 590.83 620.92 589.49 618.34 588.51
  Q 617.36 588.14 616.13 587.37
  C 613.15 585.50 607.00 583.66 603.02 581.90
  Q 597.78 579.58 589.03 575.82
  Q 575.77 570.13 560.64 562.10
  C 529.37 545.49 505.53 520.54 499.62 484.67
  C 496.63 466.55 497.05 447.75 502.75 430.25
  Q 509.30 410.13 524.60 394.27
  C 525.15 393.70 526.32 393.12 526.92 392.29
  Q 527.43 391.59 527.71 391.33
  Q 541.75 378.63 560.01 371.65
  C 579.36 364.26 598.64 362.02 620.00 363.49
  C 652.48 365.73 679.54 377.05 700.28 402.52
  Q 708.51 412.63 714.07 422.66
  Q 714.37 423.19 713.85 423.52
  L 695.25 435.12
  Q 695.22 435.13 695.22 435.13
  Q 695.09 435.12 694.97 435.12
  Q 694.88 435.12 694.82 435.21
  Z"
/>
<path fill="#323330" d="
  M 385.79 721.69
  C 384.44 722.35 383.34 723.70 381.88 724.25
  Q 378.20 725.62 374.67 727.38
  C 373.40 728.01 372.13 728.09 370.78 728.69
  Q 368.19 729.84 365.47 730.58
  Q 358.51 732.47 351.47 734.05
  C 349.98 734.39 346.42 734.40 345.80 734.72
  A 0.84 0.02 -27.3 0 1 345.08 735.07
  C 316.91 738.81 289.12 736.00 263.75 724.10
  C 243.15 714.44 226.25 697.32 214.92 677.49
  Q 211.86 672.13 210.27 668.55
  A 0.66 0.65 61.9 0 1 210.51 667.73
  C 216.14 664.13 221.89 660.55 227.67 657.27
  Q 233.15 654.15 238.45 650.74
  C 240.17 649.64 243.11 648.31 245.17 646.42
  A 1.17 1.14 22.9 0 1 245.96 646.11
  Q 246.63 646.11 246.90 645.91
  Q 248.99 644.33 251.24 643.02
  C 254.38 641.18 257.35 638.93 260.71 637.34
  C 262.83 636.34 264.35 634.91 266.37 633.99
  Q 268.47 633.03 270.08 631.53
  A 1.04 1.04 0.0 0 1 271.78 631.98
  Q 272.44 634.08 273.96 635.64
  Q 274.31 636.00 274.44 636.48
  Q 274.59 637.04 275.10 637.92
  C 284.68 654.50 296.09 668.92 317.25 669.49
  C 335.10 669.97 348.93 665.97 355.85 648.15
  Q 357.11 644.88 357.82 641.19
  Q 359.50 632.45 359.50 624.75
  Q 359.51 496.28 359.50 367.76
  A 0.48 0.48 0.0 0 1 359.98 367.28
  L 433.98 367.28
  Q 434.55 367.28 434.55 367.84
  Q 434.51 497.35 434.27 627.00
  C 434.20 661.19 423.54 695.25 394.98 716.16
  Q 390.63 719.35 385.79 721.69
  Z"
/>
</svg>
