<?xml version="1.0" encoding="UTF-8" standalone="no"?>
<!DOCTYPE svg PUBLIC "-//W3C//DTD SVG 1.1//EN" "http://www.w3.org/Graphics/SVG/1.1/DTD/svg11.dtd">
<svg xmlns="http://www.w3.org/2000/svg" version="1.1" viewBox="0.00 0.00 300.00 295.00">
<path fill="#00546b" d="
  M 14.55 0.00
  L 20.99 0.00
  C 34.26 2.22 48.71 9.34 58.65 18.33
  C 61.01 20.46 67.00 20.15 71.16 20.36
  Q 76.46 20.62 80.73 21.61
  C 87.85 23.26 95.24 25.05 101.65 28.66
  C 130.35 44.81 155.18 65.81 173.92 93.76
  C 178.52 100.62 182.89 106.89 185.42 113.30
  Q 195.45 138.66 203.19 153.75
  Q 208.57 164.25 213.77 174.84
  C 217.09 181.60 218.56 180.84 224.60 183.62
  Q 230.53 186.34 236.49 188.98
  C 251.20 195.51 265.22 206.68 277.43 217.07
  C 282.16 221.10 285.64 226.02 289.55 230.87
  A 1.44 1.43 60.4 0 1 288.93 233.12
  Q 278.56 236.90 267.06 237.69
  C 260.24 238.15 253.19 241.05 246.56 242.27
  Q 245.35 242.49 246.06 243.49
  C 252.88 253.16 264.59 256.72 273.57 263.90
  C 281.95 270.60 287.92 278.65 295.47 286.10
  C 297.74 288.34 298.37 291.09 300.00 293.80
  Q 299.99 293.95 300.00 294.10
  L 299.80 294.32
  Q 299.54 294.60 299.22 294.39
  C 296.51 292.57 294.34 290.00 291.91 288.25
  Q 288.89 286.08 285.92 283.83
  C 277.20 277.21 267.24 273.31 257.54 268.46
  Q 252.56 265.98 241.17 256.84
  Q 233.53 250.71 229.39 240.46
  Q 229.36 240.39 228.52 239.07
  C 227.33 237.19 230.46 235.20 232.02 234.78
  Q 236.72 233.51 241.22 231.64
  Q 245.48 229.87 255.26 228.65
  Q 265.59 227.37 275.85 227.61
  A 0.36 0.36 0.0 0 0 276.15 227.04
  C 272.22 221.60 265.43 218.63 260.10 214.74
  Q 245.71 204.22 240.78 201.70
  Q 234.15 198.29 216.28 192.92
  C 208.00 190.43 205.76 187.26 201.33 179.41
  Q 198.21 173.88 194.05 164.40
  C 188.66 152.12 182.80 140.37 178.10 129.64
  C 176.42 125.81 174.99 120.89 172.94 116.93
  C 154.19 80.67 123.06 49.69 84.77 34.43
  C 78.35 31.87 73.66 31.61 66.21 31.29
  C 63.29 31.17 59.73 30.41 56.35 30.48
  C 52.53 30.56 47.64 24.49 44.21 22.43
  Q 34.51 16.60 21.26 11.73
  C 17.14 10.22 11.11 9.93 9.82 15.18
  C 8.79 19.41 12.32 25.75 14.64 28.59
  Q 21.37 36.83 27.46 45.54
  C 34.13 55.07 37.15 65.72 40.75 77.49
  Q 44.96 91.30 51.90 101.79
  C 55.28 106.89 61.99 109.64 60.43 116.89
  C 58.80 124.47 54.86 132.56 53.41 139.36
  Q 49.80 156.24 52.63 173.51
  C 53.97 181.70 58.46 199.01 67.45 202.11
  A 0.97 0.97 0.0 0 0 68.73 201.28
  C 69.72 190.67 70.52 179.22 75.04 169.63
  C 77.02 165.42 80.78 161.43 83.82 157.57
  A 0.76 0.75 -38.6 0 1 85.10 157.71
  C 86.22 160.11 86.90 162.96 87.74 165.06
  Q 100.52 196.68 121.12 223.89
  Q 124.00 227.69 128.97 232.64
  C 130.54 234.20 133.09 235.59 134.57 237.54
  Q 135.39 238.63 134.14 238.08
  C 128.13 235.41 123.94 229.28 118.79 225.25
  C 110.91 219.08 103.51 212.20 97.35 204.31
  C 92.42 198.01 89.06 189.92 85.40 182.54
  Q 84.69 181.09 84.37 182.68
  Q 82.55 191.89 81.34 201.24
  C 80.34 208.97 74.70 215.09 66.72 213.24
  C 55.13 210.54 47.34 192.70 44.91 182.26
  C 40.92 165.07 41.75 149.02 46.30 132.12
  C 47.66 127.05 48.24 121.44 50.84 116.82
  Q 51.08 116.40 50.93 115.93
  C 49.92 112.67 46.23 110.44 44.32 107.41
  C 36.86 95.56 32.89 84.81 27.69 69.22
  C 26.04 64.27 25.01 58.33 21.45 53.31
  Q 18.35 48.95 5.53 32.23
  Q 1.37 26.81 0.00 18.39
  L 0.00 15.37
  Q 2.19 2.11 14.55 0.00
  Z"
/>
<path fill="#00546b" d="
  M 60.26 52.27
  Q 60.05 52.12 60.00 52.06
  A 0.59 0.55 67.6 0 1 60.34 51.14
  L 67.30 50.30
  Q 67.82 50.23 68.26 50.51
  Q 70.37 51.82 72.26 53.42
  C 73.87 54.77 76.29 58.55 76.28 60.73
  Q 76.24 66.18 72.09 69.77
  A 0.58 0.58 0.0 0 1 71.19 69.58
  Q 69.74 66.58 68.35 63.56
  C 66.37 59.23 63.28 56.29 60.49 52.49
  Q 60.39 52.36 60.26 52.27
  Z"
/>
</svg>
