<?xml version="1.0" encoding="UTF-8" standalone="no"?>
<!DOCTYPE svg PUBLIC "-//W3C//DTD SVG 1.1//EN" "http://www.w3.org/Graphics/SVG/1.1/DTD/svg11.dtd">
<svg xmlns="http://www.w3.org/2000/svg" version="1.1" viewBox="0.00 0.00 800.00 800.00">
<g stroke-width="2.00" fill="none" stroke-linecap="butt">
<path stroke="#799731" vector-effect="non-scaling-stroke" d="
  M 503.04 358.18
  Q 502.54 358.45 501.35 357.83
  Q 494.09 354.02 486.80 350.29
  Q 482.96 348.32 479.88 350.10
  Q 453.06 365.62 426.22 381.09
  C 422.41 383.29 420.86 384.61 420.84 389.00
  Q 420.68 420.08 420.87 451.16
  C 420.89 455.21 421.85 457.12 425.21 459.06
  Q 452.36 474.75 479.60 490.28
  Q 483.66 492.60 487.24 490.53
  Q 514.05 474.99 540.92 459.52
  C 544.60 457.40 546.16 456.00 546.16 451.75
  Q 546.19 372.25 546.25 292.75
  Q 546.25 288.03 543.18 286.32
  Q 526.31 276.93 509.42 267.57
  C 507.53 266.52 504.51 267.46 504.50 270.00
  Q 504.42 312.87 504.50 355.77
  A 2.74 2.72 -14.0 0 1 503.04 358.18"
/>
<path stroke="#799731" vector-effect="non-scaling-stroke" d="
  M 132.55 403.37
  C 136.37 401.04 140.27 398.80 144.16 396.57
  C 146.81 395.04 149.10 394.36 151.72 395.81
  Q 154.90 397.57 164.92 403.50
  C 168.30 405.50 169.58 406.86 169.58 410.75
  Q 169.55 429.98 169.58 449.22
  C 169.59 452.21 170.40 454.93 172.90 456.37
  Q 189.78 466.12 206.48 475.61
  A 3.19 3.19 0.0 0 0 211.25 472.84
  Q 211.29 430.19 211.25 387.38
  C 211.25 384.55 210.75 381.97 208.39 380.61
  Q 181.55 365.08 154.69 349.59
  C 151.56 347.79 148.96 346.20 146.10 347.83
  Q 118.32 363.71 90.53 379.58
  C 87.96 381.06 85.93 382.86 85.93 385.75
  Q 85.93 428.50 85.92 471.25
  C 85.92 473.06 85.86 474.92 87.80 475.69
  Q 89.47 476.35 91.00 475.48
  Q 106.74 466.47 122.48 457.45
  C 126.02 455.42 127.53 453.98 127.53 449.55
  Q 127.52 430.90 127.55 412.25
  C 127.56 407.61 128.52 405.83 132.55 403.37"
/>
<path stroke="#c5e280" vector-effect="non-scaling-stroke" d="
  M 317.96 348.08
  Q 317.72 347.80 317.30 347.84
  C 315.30 348.01 313.62 347.90 312.01 348.83
  Q 284.78 364.58 257.50 380.24
  Q 253.32 382.64 253.31 387.75
  Q 253.24 418.71 253.34 449.67
  C 253.35 452.11 253.83 455.34 255.78 456.46
  Q 283.06 472.18 310.32 487.94
  C 314.63 490.44 317.29 490.65 321.48 488.22
  Q 347.57 473.08 373.69 457.98
  C 376.02 456.63 378.72 454.23 378.72 451.75
  Q 378.75 419.90 378.72 388.06
  C 378.72 384.98 378.09 382.24 375.48 380.78
  Q 364.22 374.48 353.05 368.04
  Q 336.41 358.43 319.86 348.65
  Q 319.33 348.35 318.54 348.35
  Q 318.19 348.36 317.96 348.08"
/>
<path stroke="#799731" vector-effect="non-scaling-stroke" d="
  M 652.59 396.62
  L 669.69 406.59
  A 3.44 3.42 15.1 0 1 671.39 409.53
  Q 671.42 417.66 671.66 425.99
  C 671.75 428.93 674.91 429.00 676.82 427.84
  Q 692.51 418.30 708.18 408.74
  C 710.44 407.37 712.51 405.52 712.51 403.00
  Q 712.48 395.93 712.51 388.85
  C 712.52 384.92 712.04 382.47 708.69 380.56
  Q 681.67 365.10 654.64 349.65
  C 651.44 347.82 648.77 348.03 645.45 349.94
  Q 618.42 365.54 591.37 381.11
  Q 587.76 383.18 587.76 386.75
  Q 587.69 419.37 587.96 452.00
  Q 587.99 455.70 590.57 457.19
  Q 617.35 472.60 644.17 487.97
  C 647.43 489.83 650.40 490.89 653.61 489.12
  Q 670.48 479.86 687.29 470.50
  C 689.72 469.15 689.68 465.93 687.35 464.61
  Q 659.16 448.57 631.58 432.79
  A 3.56 3.54 -75.2 0 1 629.79 429.70
  L 629.88 409.35
  A 3.18 3.18 0.0 0 1 631.45 406.61
  L 648.56 396.62
  A 4.02 4.00 -44.9 0 1 652.59 396.62"
/>
<path stroke="#799731" vector-effect="non-scaling-stroke" d="
  M 648.85 431.80
  A 2.47 2.47 0.0 0 0 651.37 431.79
  L 660.90 426.09
  A 2.47 2.47 0.0 0 0 662.10 423.99
  L 662.20 413.25
  A 2.47 2.47 0.0 0 0 660.98 411.10
  L 651.38 405.46
  A 2.47 2.47 0.0 0 0 648.88 405.46
  L 639.26 411.11
  A 2.47 2.47 0.0 0 0 638.04 413.25
  L 638.08 424.06
  A 2.47 2.47 0.0 0 0 639.30 426.17
  L 648.85 431.80"
/>
<path stroke="#799731" vector-effect="non-scaling-stroke" d="
  M 484.15 396.57
  A 1.95 1.95 0.0 0 0 482.17 396.57
  L 463.40 407.65
  A 1.95 1.95 0.0 0 0 462.44 409.33
  L 462.45 430.93
  A 1.95 1.95 0.0 0 0 463.41 432.61
  L 482.16 443.66
  A 1.95 1.95 0.0 0 0 484.14 443.66
  L 502.98 432.59
  A 1.95 1.95 0.0 0 0 503.94 430.90
  L 503.94 409.32
  A 1.95 1.95 0.0 0 0 502.98 407.63
  L 484.15 396.57"
/>
<path stroke="#c5e280" vector-effect="non-scaling-stroke" d="
  M 315.53 444.00
  Q 316.01 444.29 316.48 444.00
  L 335.87 432.62
  A 1.90 1.90 0.0 0 0 336.81 430.98
  L 336.83 409.24
  A 1.91 1.90 -75.0 0 0 335.88 407.59
  L 316.56 396.29
  Q 316.08 396.01 315.60 396.30
  L 295.98 407.85
  A 1.76 1.74 -15.5 0 0 295.12 409.35
  Q 295.12 419.98 295.12 431.25
  Q 295.12 432.41 296.34 432.60
  A 0.53 0.38 54.2 0 1 296.52 432.66
  L 315.53 444.00"
/>
</g>
<path fill="#8bc500" d="
  M 395.88 0.00
  L 403.49 0.00
  Q 413.24 0.89 418.71 4.05
  Q 573.02 93.31 727.35 182.55
  Q 735.88 187.48 737.77 188.98
  C 744.21 194.09 748.69 201.95 750.56 209.90
  Q 751.52 214.00 751.52 222.18
  Q 751.52 400.45 751.52 578.73
  Q 751.52 585.91 750.57 589.70
  C 748.52 597.89 743.28 605.18 737.04 610.74
  Q 733.45 613.94 725.43 618.58
  Q 572.43 707.13 419.44 795.69
  Q 413.40 799.19 403.37 800.00
  L 395.76 800.00
  Q 385.95 799.11 380.23 795.81
  Q 225.45 706.25 70.62 616.76
  Q 61.87 611.70 58.30 608.00
  Q 51.71 601.18 49.07 591.95
  Q 47.72 587.21 47.72 578.40
  Q 47.68 399.86 47.71 221.31
  Q 47.71 213.51 48.92 209.31
  C 52.02 198.52 60.22 189.42 69.81 183.86
  Q 223.43 94.82 377.09 5.85
  Q 385.95 0.73 395.88 0.00
  Z
  M 503.04 358.18
  Q 502.54 358.45 501.35 357.83
  Q 494.09 354.02 486.80 350.29
  Q 482.96 348.32 479.88 350.10
  Q 453.06 365.62 426.22 381.09
  C 422.41 383.29 420.86 384.61 420.84 389.00
  Q 420.68 420.08 420.87 451.16
  C 420.89 455.21 421.85 457.12 425.21 459.06
  Q 452.36 474.75 479.60 490.28
  Q 483.66 492.60 487.24 490.53
  Q 514.05 474.99 540.92 459.52
  C 544.60 457.40 546.16 456.00 546.16 451.75
  Q 546.19 372.25 546.25 292.75
  Q 546.25 288.03 543.18 286.32
  Q 526.31 276.93 509.42 267.57
  C 507.53 266.52 504.51 267.46 504.50 270.00
  Q 504.42 312.87 504.50 355.77
  A 2.74 2.72 -14.0 0 1 503.04 358.18
  Z
  M 132.55 403.37
  C 136.37 401.04 140.27 398.80 144.16 396.57
  C 146.81 395.04 149.10 394.36 151.72 395.81
  Q 154.90 397.57 164.92 403.50
  C 168.30 405.50 169.58 406.86 169.58 410.75
  Q 169.55 429.98 169.58 449.22
  C 169.59 452.21 170.40 454.93 172.90 456.37
  Q 189.78 466.12 206.48 475.61
  A 3.19 3.19 0.0 0 0 211.25 472.84
  Q 211.29 430.19 211.25 387.38
  C 211.25 384.55 210.75 381.97 208.39 380.61
  Q 181.55 365.08 154.69 349.59
  C 151.56 347.79 148.96 346.20 146.10 347.83
  Q 118.32 363.71 90.53 379.58
  C 87.96 381.06 85.93 382.86 85.93 385.75
  Q 85.93 428.50 85.92 471.25
  C 85.92 473.06 85.86 474.92 87.80 475.69
  Q 89.47 476.35 91.00 475.48
  Q 106.74 466.47 122.48 457.45
  C 126.02 455.42 127.53 453.98 127.53 449.55
  Q 127.52 430.90 127.55 412.25
  C 127.56 407.61 128.52 405.83 132.55 403.37
  Z
  M 317.96 348.08
  Q 317.72 347.80 317.30 347.84
  C 315.30 348.01 313.62 347.90 312.01 348.83
  Q 284.78 364.58 257.50 380.24
  Q 253.32 382.64 253.31 387.75
  Q 253.24 418.71 253.34 449.67
  C 253.35 452.11 253.83 455.34 255.78 456.46
  Q 283.06 472.18 310.32 487.94
  C 314.63 490.44 317.29 490.65 321.48 488.22
  Q 347.57 473.08 373.69 457.98
  C 376.02 456.63 378.72 454.23 378.72 451.75
  Q 378.75 419.90 378.72 388.06
  C 378.72 384.98 378.09 382.24 375.48 380.78
  Q 364.22 374.48 353.05 368.04
  Q 336.41 358.43 319.86 348.65
  Q 319.33 348.35 318.54 348.35
  Q 318.19 348.36 317.96 348.08
  Z
  M 652.59 396.62
  L 669.69 406.59
  A 3.44 3.42 15.1 0 1 671.39 409.53
  Q 671.42 417.66 671.66 425.99
  C 671.75 428.93 674.91 429.00 676.82 427.84
  Q 692.51 418.30 708.18 408.74
  C 710.44 407.37 712.51 405.52 712.51 403.00
  Q 712.48 395.93 712.51 388.85
  C 712.52 384.92 712.04 382.47 708.69 380.56
  Q 681.67 365.10 654.64 349.65
  C 651.44 347.82 648.77 348.03 645.45 349.94
  Q 618.42 365.54 591.37 381.11
  Q 587.76 383.18 587.76 386.75
  Q 587.69 419.37 587.96 452.00
  Q 587.99 455.70 590.57 457.19
  Q 617.35 472.60 644.17 487.97
  C 647.43 489.83 650.40 490.89 653.61 489.12
  Q 670.48 479.86 687.29 470.50
  C 689.72 469.15 689.68 465.93 687.35 464.61
  Q 659.16 448.57 631.58 432.79
  A 3.56 3.54 -75.2 0 1 629.79 429.70
  L 629.88 409.35
  A 3.18 3.18 0.0 0 1 631.45 406.61
  L 648.56 396.62
  A 4.02 4.00 -44.9 0 1 652.59 396.62
  Z
  M 648.85 431.80
  A 2.47 2.47 0.0 0 0 651.37 431.79
  L 660.90 426.09
  A 2.47 2.47 0.0 0 0 662.10 423.99
  L 662.20 413.25
  A 2.47 2.47 0.0 0 0 660.98 411.10
  L 651.38 405.46
  A 2.47 2.47 0.0 0 0 648.88 405.46
  L 639.26 411.11
  A 2.47 2.47 0.0 0 0 638.04 413.25
  L 638.08 424.06
  A 2.47 2.47 0.0 0 0 639.30 426.17
  L 648.85 431.80
  Z"
/>
<path fill="#666861" d="
  M 503.04 358.18
  A 2.74 2.72 -14.0 0 0 504.50 355.77
  Q 504.42 312.87 504.50 270.00
  C 504.51 267.46 507.53 266.52 509.42 267.57
  Q 526.31 276.93 543.18 286.32
  Q 546.25 288.03 546.25 292.75
  Q 546.19 372.25 546.16 451.75
  C 546.16 456.00 544.60 457.40 540.92 459.52
  Q 514.05 474.99 487.24 490.53
  Q 483.66 492.60 479.60 490.28
  Q 452.36 474.75 425.21 459.06
  C 421.85 457.12 420.89 455.21 420.87 451.16
  Q 420.68 420.08 420.84 389.00
  C 420.86 384.61 422.41 383.29 426.22 381.09
  Q 453.06 365.62 479.88 350.10
  Q 482.96 348.32 486.80 350.29
  Q 494.09 354.02 501.35 357.83
  Q 502.54 358.45 503.04 358.18
  Z
  M 484.15 396.57
  A 1.95 1.95 0.0 0 0 482.17 396.57
  L 463.40 407.65
  A 1.95 1.95 0.0 0 0 462.44 409.33
  L 462.45 430.93
  A 1.95 1.95 0.0 0 0 463.41 432.61
  L 482.16 443.66
  A 1.95 1.95 0.0 0 0 484.14 443.66
  L 502.98 432.59
  A 1.95 1.95 0.0 0 0 503.94 430.90
  L 503.94 409.32
  A 1.95 1.95 0.0 0 0 502.98 407.63
  L 484.15 396.57
  Z"
/>
<path fill="#666861" d="
  M 144.16 396.57
  C 140.27 398.80 136.37 401.04 132.55 403.37
  C 128.52 405.83 127.56 407.61 127.55 412.25
  Q 127.52 430.90 127.53 449.55
  C 127.53 453.98 126.02 455.42 122.48 457.45
  Q 106.74 466.47 91.00 475.48
  Q 89.47 476.35 87.80 475.69
  C 85.86 474.92 85.92 473.06 85.92 471.25
  Q 85.93 428.50 85.93 385.75
  C 85.93 382.86 87.96 381.06 90.53 379.58
  Q 118.32 363.71 146.10 347.83
  C 148.96 346.20 151.56 347.79 154.69 349.59
  Q 181.55 365.08 208.39 380.61
  C 210.75 381.97 211.25 384.55 211.25 387.38
  Q 211.29 430.19 211.25 472.84
  A 3.19 3.19 0.0 0 1 206.48 475.61
  Q 189.78 466.12 172.90 456.37
  C 170.40 454.93 169.59 452.21 169.58 449.22
  Q 169.55 429.98 169.58 410.75
  C 169.58 406.86 168.30 405.50 164.92 403.50
  Q 154.90 397.57 151.72 395.81
  C 149.10 394.36 146.81 395.04 144.16 396.57
  Z"
/>
<path fill="#ffffff" d="
  M 318.54 348.35
  Q 319.33 348.35 319.86 348.65
  Q 336.41 358.43 353.05 368.04
  Q 364.22 374.48 375.48 380.78
  C 378.09 382.24 378.72 384.98 378.72 388.06
  Q 378.75 419.90 378.72 451.75
  C 378.72 454.23 376.02 456.63 373.69 457.98
  Q 347.57 473.08 321.48 488.22
  C 317.29 490.65 314.63 490.44 310.32 487.94
  Q 283.06 472.18 255.78 456.46
  C 253.83 455.34 253.35 452.11 253.34 449.67
  Q 253.24 418.71 253.31 387.75
  Q 253.32 382.64 257.50 380.24
  Q 284.78 364.58 312.01 348.83
  C 313.62 347.90 315.30 348.01 317.30 347.84
  Q 317.72 347.80 317.96 348.08
  Q 318.19 348.36 318.54 348.35
  Z
  M 315.53 444.00
  Q 316.01 444.29 316.48 444.00
  L 335.87 432.62
  A 1.90 1.90 0.0 0 0 336.81 430.98
  L 336.83 409.24
  A 1.91 1.90 -75.0 0 0 335.88 407.59
  L 316.56 396.29
  Q 316.08 396.01 315.60 396.30
  L 295.98 407.85
  A 1.76 1.74 -15.5 0 0 295.12 409.35
  Q 295.12 419.98 295.12 431.25
  Q 295.12 432.41 296.34 432.60
  A 0.53 0.38 54.2 0 1 296.52 432.66
  L 315.53 444.00
  Z"
/>
<path fill="#666861" d="
  M 652.59 396.62
  A 4.02 4.00 -44.9 0 0 648.56 396.62
  L 631.45 406.61
  A 3.18 3.18 0.0 0 0 629.88 409.35
  L 629.79 429.70
  A 3.56 3.54 -75.2 0 0 631.58 432.79
  Q 659.16 448.57 687.35 464.61
  C 689.68 465.93 689.72 469.15 687.29 470.50
  Q 670.48 479.86 653.61 489.12
  C 650.40 490.89 647.43 489.83 644.17 487.97
  Q 617.35 472.60 590.57 457.19
  Q 587.99 455.70 587.96 452.00
  Q 587.69 419.37 587.76 386.75
  Q 587.76 383.18 591.37 381.11
  Q 618.42 365.54 645.45 349.94
  C 648.77 348.03 651.44 347.82 654.64 349.65
  Q 681.67 365.10 708.69 380.56
  C 712.04 382.47 712.52 384.92 712.51 388.85
  Q 712.48 395.93 712.51 403.00
  C 712.51 405.52 710.44 407.37 708.18 408.74
  Q 692.51 418.30 676.82 427.84
  C 674.91 429.00 671.75 428.93 671.66 425.99
  Q 671.42 417.66 671.39 409.53
  A 3.44 3.42 15.1 0 0 669.69 406.59
  L 652.59 396.62
  Z"
/>
<path fill="#8bc500" d="
  M 315.53 444.00
  L 296.52 432.66
  A 0.53 0.38 54.2 0 0 296.34 432.60
  Q 295.12 432.41 295.12 431.25
  Q 295.12 419.98 295.12 409.35
  A 1.76 1.74 -15.5 0 1 295.98 407.85
  L 315.60 396.30
  Q 316.08 396.01 316.56 396.29
  L 335.88 407.59
  A 1.91 1.90 -75.0 0 1 336.83 409.24
  L 336.81 430.98
  A 1.90 1.90 0.0 0 1 335.87 432.62
  L 316.48 444.00
  Q 316.01 444.29 315.53 444.00
  Z"
/>
<path fill="#8bc500" d="
  M 484.15 396.57
  L 502.98 407.63
  A 1.95 1.95 0.0 0 1 503.94 409.32
  L 503.94 430.90
  A 1.95 1.95 0.0 0 1 502.98 432.59
  L 484.14 443.66
  A 1.95 1.95 0.0 0 1 482.16 443.66
  L 463.41 432.61
  A 1.95 1.95 0.0 0 1 462.45 430.93
  L 462.44 409.33
  A 1.95 1.95 0.0 0 1 463.40 407.65
  L 482.17 396.57
  A 1.95 1.95 0.0 0 1 484.15 396.57
  Z"
/>
<path fill="#666861" d="
  M 648.85 431.80
  L 639.30 426.17
  A 2.47 2.47 0.0 0 1 638.08 424.06
  L 638.04 413.25
  A 2.47 2.47 0.0 0 1 639.26 411.11
  L 648.88 405.46
  A 2.47 2.47 0.0 0 1 651.38 405.46
  L 660.98 411.10
  A 2.47 2.47 0.0 0 1 662.20 413.25
  L 662.10 423.99
  A 2.47 2.47 0.0 0 1 660.90 426.09
  L 651.37 431.79
  A 2.47 2.47 0.0 0 1 648.85 431.80
  Z"
/>
</svg>
