<?xml version="1.0" encoding="UTF-8" standalone="no"?>
<!DOCTYPE svg PUBLIC "-//W3C//DTD SVG 1.1//EN" "http://www.w3.org/Graphics/SVG/1.1/DTD/svg11.dtd">
<svg xmlns="http://www.w3.org/2000/svg" version="1.1" viewBox="0.00 0.00 1350.00 1525.00">
<g stroke-width="2.00" fill="none" stroke-linecap="butt">
<path stroke="#808080" vector-effect="non-scaling-stroke" d="
  M 651.17 1000.34
  Q 650.41 1069.89 653.20 1138.98
  Q 654.89 1180.73 658.82 1217.75
  Q 660.47 1233.30 663.48 1249.12
  Q 665.42 1259.34 668.20 1267.16
  C 684.42 1312.66 712.72 1352.19 761.32 1365.58
  C 784.22 1371.88 808.58 1371.79 832.07 1367.76
  C 857.13 1363.46 882.14 1356.49 905.23 1345.59
  Q 956.78 1321.26 977.92 1269.13
  C 986.69 1247.49 991.89 1223.76 995.45 1200.00
  C 1005.95 1129.96 1014.93 1057.12 1022.97 985.33
  Q 1023.04 984.72 1023.63 984.89
  Q 1042.74 990.21 1062.74 990.87
  Q 1115.47 992.61 1165.82 978.97
  C 1196.05 970.77 1226.51 954.19 1250.72 934.44
  C 1264.56 923.15 1282.83 905.25 1281.02 886.17
  C 1279.89 874.32 1271.38 865.61 1259.99 862.63
  C 1248.19 859.54 1235.32 861.46 1223.10 863.99
  C 1193.42 870.14 1161.83 874.56 1131.91 872.89
  C 1117.80 872.11 1103.36 869.66 1091.07 862.34
  Q 1090.30 861.88 1090.79 861.13
  Q 1178.44 726.16 1229.85 572.62
  Q 1245.56 525.70 1256.72 477.82
  C 1265.40 440.61 1271.51 404.13 1274.03 366.97
  Q 1275.92 338.92 1273.78 313.08
  C 1271.68 287.61 1265.67 260.62 1250.33 241.10
  Q 1185.01 157.99 1084.96 125.75
  C 1044.90 112.84 1001.98 106.85 959.49 106.85
  Q 888.74 106.84 821.24 124.91
  Q 808.11 128.43 796.38 132.82
  A 1.68 1.67 41.3 0 1 795.40 132.88
  C 752.09 122.43 705.78 118.32 661.49 122.81
  C 618.92 127.12 577.40 140.87 541.96 164.97
  Q 541.42 165.34 540.80 165.12
  Q 486.23 145.27 428.69 134.25
  Q 386.13 126.10 345.74 124.36
  C 292.15 122.04 236.37 128.79 188.19 153.24
  Q 128.34 183.61 96.50 244.19
  C 80.61 274.43 71.18 308.37 66.52 342.51
  Q 60.14 389.22 63.16 440.39
  Q 63.86 452.18 65.57 464.70
  Q 70.15 498.05 76.70 531.75
  Q 101.17 657.67 137.84 771.13
  C 154.41 822.39 173.77 873.06 198.61 920.17
  C 213.04 947.54 230.27 974.55 251.90 995.67
  C 265.91 1009.35 283.05 1020.93 302.57 1024.75
  C 339.25 1031.92 369.31 1010.10 391.46 983.45
  Q 439.34 925.85 493.45 867.96
  A 0.30 0.30 0.0 0 1 493.82 867.90
  Q 528.25 886.26 566.45 887.56
  A 1.32 1.32 0.0 0 1 567.44 889.70
  Q 555.94 904.35 545.56 916.89
  Q 537.61 926.50 525.58 931.40
  C 509.75 937.85 493.24 941.28 476.05 944.92
  C 454.87 949.39 419.96 957.60 415.71 983.83
  C 411.27 1011.24 445.32 1028.44 467.24 1034.83
  Q 489.45 1041.29 514.71 1043.34
  C 565.03 1047.40 612.94 1034.06 650.64 1000.10
  Q 651.17 999.62 651.17 1000.34"
/>
<path stroke="#99b3c8" vector-effect="non-scaling-stroke" d="
  M 1068.63 826.52
  C 1129.52 730.01 1177.71 623.23 1208.85 513.99
  C 1222.76 465.23 1233.22 415.25 1236.72 365.13
  Q 1238.63 337.66 1236.26 312.72
  C 1235.02 299.75 1232.33 286.03 1226.94 274.09
  Q 1224.15 267.91 1218.32 260.72
  Q 1154.40 181.87 1056.03 156.25
  Q 1015.25 145.62 971.07 144.39
  Q 914.73 142.81 858.87 154.38
  Q 858.58 154.44 858.86 154.56
  C 946.80 192.86 1016.58 265.02 1061.90 349.22
  Q 1077.60 378.39 1087.67 407.75
  Q 1091.79 419.78 1093.71 430.48
  Q 1094.74 436.25 1094.22 441.24
  Q 1093.71 446.15 1093.78 451.23
  C 1094.29 487.51 1085.25 523.46 1082.36 559.83
  C 1080.82 579.14 1081.66 596.97 1083.78 615.84
  C 1088.64 658.89 1095.42 702.10 1088.77 745.21
  C 1084.71 771.53 1075.78 795.80 1062.31 818.37
  A 0.47 0.47 0.0 0 0 1062.35 818.90
  L 1068.43 826.53
  A 0.12 0.12 0.0 0 0 1068.63 826.52"
/>
<path stroke="#99b3c8" vector-effect="non-scaling-stroke" d="
  M 523.61 427.07
  C 569.06 418.24 618.29 425.14 643.97 468.05
  Q 652.58 482.44 656.14 497.27
  Q 667.76 545.65 671.51 596.11
  Q 673.70 625.55 671.68 654.75
  Q 667.94 708.75 645.72 759.22
  Q 639.79 772.68 633.65 786.62
  C 627.63 800.30 622.53 814.58 617.55 828.20
  Q 611.78 844.00 607.88 858.66
  Q 607.72 859.29 608.35 859.14
  Q 620.23 856.34 631.94 859.26
  C 642.45 861.88 653.22 866.55 661.39 873.62
  C 677.43 887.50 686.23 905.72 689.48 926.60
  Q 689.89 929.21 689.81 931.96
  Q 687.72 999.71 688.66 1070.55
  Q 689.39 1126.03 692.57 1175.57
  C 693.95 1196.89 696.01 1219.10 699.89 1240.85
  Q 701.53 1250.07 704.15 1256.94
  C 710.51 1273.59 719.14 1290.87 730.74 1304.03
  C 753.44 1329.81 785.06 1336.41 818.28 1332.04
  Q 842.53 1328.85 868.47 1320.22
  C 893.31 1311.95 915.49 1299.44 930.48 1278.52
  C 949.82 1251.55 955.53 1215.93 960.21 1183.50
  Q 976.23 1072.41 987.49 965.25
  Q 988.05 960.00 988.57 954.58
  C 989.34 946.62 988.91 938.90 989.23 930.96
  C 990.18 907.42 997.97 884.51 1017.01 870.16
  C 1024.98 864.14 1034.48 860.11 1044.25 857.46
  A 0.39 0.39 0.0 0 0 1044.47 856.87
  Q 1041.77 852.91 1038.59 849.01
  C 1024.64 831.84 1012.05 815.06 1001.85 795.45
  C 997.70 787.48 992.97 775.75 987.92 766.56
  Q 978.76 749.93 968.63 731.63
  C 945.72 690.26 924.47 647.36 909.46 603.47
  Q 898.58 571.65 895.10 542.46
  C 892.28 518.78 893.82 493.96 904.10 472.58
  C 930.54 417.57 998.76 413.71 1051.45 419.20
  Q 1052.04 419.26 1051.87 418.69
  Q 1051.17 416.32 1050.33 414.03
  Q 1042.05 391.47 1029.91 368.60
  C 992.93 298.90 938.23 238.88 869.59 201.41
  C 810.81 169.33 743.14 155.26 676.56 159.01
  C 631.39 161.56 587.10 176.12 551.42 204.23
  C 502.16 243.04 472.90 301.60 456.73 361.23
  Q 443.93 408.46 440.02 457.44
  Q 439.96 458.16 440.59 457.81
  C 466.74 443.23 495.38 432.55 523.61 427.07"
/>
<path stroke="#99b3c8" vector-effect="non-scaling-stroke" d="
  M 406.11 423.58
  C 417.48 339.95 446.45 253.34 507.16 193.53
  A 0.36 0.36 0.0 0 0 507.02 192.94
  Q 458.30 176.95 407.28 168.36
  C 359.64 160.34 308.97 158.09 262.48 167.19
  C 246.31 170.35 230.30 175.20 215.40 181.68
  Q 160.17 205.66 131.36 258.20
  C 115.22 287.63 106.41 321.42 102.53 355.23
  Q 97.97 395.01 100.32 436.53
  C 101.08 449.91 102.94 463.49 105.07 477.05
  Q 113.51 530.99 128.17 594.82
  C 143.53 661.71 161.46 726.69 183.92 790.72
  Q 198.72 832.89 215.75 870.42
  Q 233.75 910.09 253.27 938.95
  Q 267.13 959.44 282.94 973.50
  C 293.84 983.18 308.01 990.92 322.61 988.26
  C 337.46 985.55 351.09 973.43 360.79 961.81
  Q 410.53 902.21 462.18 846.71
  Q 462.43 846.45 462.16 846.21
  C 412.92 803.41 389.28 738.89 397.65 673.88
  Q 398.99 663.51 400.14 653.23
  C 404.43 615.03 404.89 575.82 402.80 535.75
  C 402.04 521.00 400.84 506.33 400.99 491.86
  Q 401.32 458.88 406.11 423.58"
/>
<path stroke="#99b3c8" vector-effect="non-scaling-stroke" d="
  M 1038.50 783.89
  C 1044.07 771.94 1048.16 759.32 1050.69 746.33
  C 1056.05 718.75 1054.63 689.58 1051.34 660.87
  Q 1048.86 639.28 1046.52 618.73
  Q 1043.00 587.86 1044.86 560.70
  Q 1046.33 539.12 1049.86 517.11
  C 1052.99 497.58 1056.12 477.62 1056.50 457.95
  Q 1056.51 457.37 1055.94 457.29
  Q 1034.01 454.42 1012.85 454.78
  C 997.32 455.04 981.26 457.17 966.92 462.79
  C 946.43 470.81 935.33 486.14 932.29 507.10
  C 930.42 520.07 931.19 533.86 933.33 546.62
  Q 937.37 570.63 946.19 595.52
  C 959.90 634.22 978.61 672.43 998.55 708.49
  Q 1011.33 731.60 1022.43 751.95
  C 1027.68 761.57 1031.98 773.54 1038.12 783.91
  A 0.22 0.21 41.9 0 0 1038.50 783.89"
/>
<path stroke="#99b3c8" vector-effect="non-scaling-stroke" d="
  M 609.32 749.30
  Q 634.20 695.33 635.20 635.76
  C 635.91 593.70 630.08 551.05 620.86 509.96
  Q 617.80 496.31 610.97 485.62
  C 586.90 447.94 528.25 461.35 494.52 473.98
  Q 468.39 483.77 448.02 496.88
  Q 443.29 499.93 439.08 503.38
  Q 438.39 503.94 438.45 504.82
  Q 440.56 536.68 441.14 564.06
  Q 442.06 606.91 438.04 649.89
  C 436.89 662.15 434.65 676.05 433.84 686.80
  Q 430.48 731.50 449.94 770.69
  C 472.71 816.55 518.73 850.32 571.13 850.31
  A 0.48 0.48 0.0 0 0 571.60 849.94
  C 575.10 835.96 580.10 821.96 585.05 808.27
  Q 595.60 779.08 609.32 749.30"
/>
<path stroke="#99b3c8" vector-effect="non-scaling-stroke" d="
  M 1106.49 907.27
  C 1091.96 904.54 1078.14 899.38 1066.25 890.29
  Q 1065.82 889.96 1065.29 890.11
  Q 1053.56 893.49 1047.51 895.68
  Q 1033.03 900.90 1028.96 916.59
  Q 1025.53 929.81 1026.58 944.76
  A 1.44 1.43 20.2 0 0 1027.01 945.68
  Q 1027.82 946.48 1028.82 946.91
  Q 1038.49 951.13 1051.50 952.53
  Q 1074.86 955.05 1101.55 952.57
  Q 1134.88 949.48 1162.03 941.20
  Q 1172.63 937.97 1182.26 933.38
  C 1200.69 924.60 1217.97 913.96 1232.60 900.78
  Q 1233.40 900.06 1232.34 900.27
  Q 1223.56 901.98 1214.80 903.58
  Q 1183.56 909.29 1153.14 910.47
  Q 1128.66 911.42 1106.49 907.27"
/>
<path stroke="#99b3c8" vector-effect="non-scaling-stroke" d="
  M 457.24 989.83
  C 465.86 995.11 474.93 998.63 484.63 1000.89
  C 510.06 1006.83 535.93 1008.83 561.16 1004.12
  C 597.70 997.31 628.02 976.33 648.91 945.84
  Q 651.14 942.59 651.72 938.48
  C 653.38 926.79 649.04 915.30 641.52 906.34
  C 636.79 900.71 631.43 897.94 624.41 895.83
  C 619.55 894.36 615.41 895.22 611.38 898.20
  Q 606.15 902.06 601.74 907.26
  Q 590.00 921.09 577.65 936.70
  Q 566.26 951.11 553.41 958.99
  Q 540.81 966.72 522.49 972.02
  C 505.18 977.03 488.68 980.20 472.51 984.04
  Q 464.72 985.89 457.29 989.15
  A 0.39 0.38 -41.1 0 0 457.24 989.83"
/>
<path stroke="#99b3c8" vector-effect="non-scaling-stroke" d="
  M 1018.26 493.63
  C 1027.95 479.87 1016.33 473.76 1004.38 472.77
  Q 987.40 471.36 971.79 477.60
  C 964.00 480.71 954.48 487.40 961.06 496.92
  C 967.86 506.75 981.20 513.03 993.13 510.82
  Q 1008.10 508.05 1018.26 493.63"
/>
<path stroke="#99b3c8" vector-effect="non-scaling-stroke" d="
  M 536.84 489.53
  Q 536.50 489.49 536.17 489.59
  Q 535.79 489.72 535.75 490.12
  Q 535.47 492.75 535.19 495.34
  C 534.14 504.97 544.66 515.83 551.98 520.53
  Q 571.73 533.20 591.89 520.46
  Q 597.28 517.05 601.30 511.37
  C 611.29 497.28 594.32 488.23 583.31 485.01
  Q 567.61 480.43 552.70 482.46
  Q 542.78 483.81 537.55 489.28
  Q 537.26 489.59 536.84 489.53"
/>
</g>
<path fill="#000000" d="
  M 1152.05 837.72
  C 1177.15 836.74 1201.41 832.32 1226.16 827.58
  Q 1234.07 826.06 1244.47 825.68
  C 1264.82 824.92 1284.13 830.31 1299.14 843.83
  Q 1306.34 850.32 1311.48 859.42
  Q 1320.21 874.85 1319.55 893.78
  C 1319.41 897.93 1318.36 902.04 1317.64 906.17
  Q 1317.20 908.69 1316.39 911.16
  C 1308.96 933.76 1292.11 952.11 1273.42 966.81
  Q 1236.86 995.56 1195.88 1010.75
  Q 1171.71 1019.70 1138.32 1025.14
  Q 1105.34 1030.52 1073.68 1030.34
  Q 1062.22 1030.28 1051.02 1029.16
  A 0.52 0.52 0.0 0 0 1050.45 1029.63
  C 1049.79 1036.80 1048.47 1044.18 1048.30 1051.25
  Q 1047.04 1104.65 1040.61 1154.97
  Q 1037.01 1183.16 1030.99 1209.76
  C 1023.50 1242.86 1012.33 1275.34 995.17 1303.53
  Q 968.26 1347.75 924.54 1371.78
  Q 904.48 1382.80 880.07 1390.19
  Q 854.88 1397.82 828.16 1402.45
  C 799.36 1407.43 768.85 1406.64 741.20 1396.80
  Q 704.64 1383.78 680.22 1352.65
  C 667.19 1336.04 657.55 1316.01 650.97 1296.27
  Q 647.61 1286.21 644.12 1276.16
  C 636.66 1254.63 632.40 1232.45 629.72 1208.97
  C 624.29 1161.44 623.06 1113.70 621.76 1066.14
  Q 621.74 1065.40 621.06 1065.69
  Q 570.83 1087.21 512.34 1082.38
  Q 488.16 1080.39 465.05 1074.55
  C 439.21 1068.02 413.49 1055.61 396.05 1035.39
  Q 395.72 1035.02 395.33 1035.33
  C 375.14 1051.78 352.17 1062.99 326.26 1064.99
  C 263.62 1069.81 217.27 1021.95 186.53 973.60
  Q 168.77 945.68 153.64 913.55
  C 124.55 851.75 102.69 786.83 83.79 719.99
  Q 52.69 610.07 34.69 504.99
  C 30.98 483.35 27.73 461.20 26.68 439.54
  C 23.07 364.87 31.69 286.45 68.35 221.76
  Q 109.82 148.57 187.37 115.19
  C 226.96 98.15 271.32 90.43 315.22 89.44
  Q 346.41 88.74 376.54 91.79
  Q 456.07 99.83 535.44 126.69
  Q 536.19 126.95 536.87 126.55
  Q 587.70 96.83 648.69 88.75
  Q 675.74 85.16 704.27 85.63
  Q 752.40 86.43 797.46 93.95
  Q 799.75 94.33 801.85 93.72
  Q 885.10 69.72 971.16 71.54
  C 1016.79 72.51 1062.15 79.87 1104.65 94.46
  Q 1205.90 129.19 1274.76 212.41
  Q 1282.12 221.30 1286.83 228.49
  C 1301.44 250.81 1308.75 278.77 1311.42 305.76
  Q 1314.53 337.28 1312.65 366.49
  Q 1309.47 415.95 1298.89 466.47
  Q 1289.06 513.41 1274.88 559.51
  Q 1230.65 703.22 1151.81 837.32
  A 0.27 0.27 0.0 0 0 1152.05 837.72
  Z
  M 651.17 1000.34
  Q 650.41 1069.89 653.20 1138.98
  Q 654.89 1180.73 658.82 1217.75
  Q 660.47 1233.30 663.48 1249.12
  Q 665.42 1259.34 668.20 1267.16
  C 684.42 1312.66 712.72 1352.19 761.32 1365.58
  C 784.22 1371.88 808.58 1371.79 832.07 1367.76
  C 857.13 1363.46 882.14 1356.49 905.23 1345.59
  Q 956.78 1321.26 977.92 1269.13
  C 986.69 1247.49 991.89 1223.76 995.45 1200.00
  C 1005.95 1129.96 1014.93 1057.12 1022.97 985.33
  Q 1023.04 984.72 1023.63 984.89
  Q 1042.74 990.21 1062.74 990.87
  Q 1115.47 992.61 1165.82 978.97
  C 1196.05 970.77 1226.51 954.19 1250.72 934.44
  C 1264.56 923.15 1282.83 905.25 1281.02 886.17
  C 1279.89 874.32 1271.38 865.61 1259.99 862.63
  C 1248.19 859.54 1235.32 861.46 1223.10 863.99
  C 1193.42 870.14 1161.83 874.56 1131.91 872.89
  C 1117.80 872.11 1103.36 869.66 1091.07 862.34
  Q 1090.30 861.88 1090.79 861.13
  Q 1178.44 726.16 1229.85 572.62
  Q 1245.56 525.70 1256.72 477.82
  C 1265.40 440.61 1271.51 404.13 1274.03 366.97
  Q 1275.92 338.92 1273.78 313.08
  C 1271.68 287.61 1265.67 260.62 1250.33 241.10
  Q 1185.01 157.99 1084.96 125.75
  C 1044.90 112.84 1001.98 106.85 959.49 106.85
  Q 888.74 106.84 821.24 124.91
  Q 808.11 128.43 796.38 132.82
  A 1.68 1.67 41.3 0 1 795.40 132.88
  C 752.09 122.43 705.78 118.32 661.49 122.81
  C 618.92 127.12 577.40 140.87 541.96 164.97
  Q 541.42 165.34 540.80 165.12
  Q 486.23 145.27 428.69 134.25
  Q 386.13 126.10 345.74 124.36
  C 292.15 122.04 236.37 128.79 188.19 153.24
  Q 128.34 183.61 96.50 244.19
  C 80.61 274.43 71.18 308.37 66.52 342.51
  Q 60.14 389.22 63.16 440.39
  Q 63.86 452.18 65.57 464.70
  Q 70.15 498.05 76.70 531.75
  Q 101.17 657.67 137.84 771.13
  C 154.41 822.39 173.77 873.06 198.61 920.17
  C 213.04 947.54 230.27 974.55 251.90 995.67
  C 265.91 1009.35 283.05 1020.93 302.57 1024.75
  C 339.25 1031.92 369.31 1010.10 391.46 983.45
  Q 439.34 925.85 493.45 867.96
  A 0.30 0.30 0.0 0 1 493.82 867.90
  Q 528.25 886.26 566.45 887.56
  A 1.32 1.32 0.0 0 1 567.44 889.70
  Q 555.94 904.35 545.56 916.89
  Q 537.61 926.50 525.58 931.40
  C 509.75 937.85 493.24 941.28 476.05 944.92
  C 454.87 949.39 419.96 957.60 415.71 983.83
  C 411.27 1011.24 445.32 1028.44 467.24 1034.83
  Q 489.45 1041.29 514.71 1043.34
  C 565.03 1047.40 612.94 1034.06 650.64 1000.10
  Q 651.17 999.62 651.17 1000.34
  Z"
/>
<path fill="#ffffff" d="
  M 650.64 1000.10
  C 612.94 1034.06 565.03 1047.40 514.71 1043.34
  Q 489.45 1041.29 467.24 1034.83
  C 445.32 1028.44 411.27 1011.24 415.71 983.83
  C 419.96 957.60 454.87 949.39 476.05 944.92
  C 493.24 941.28 509.75 937.85 525.58 931.40
  Q 537.61 926.50 545.56 916.89
  Q 555.94 904.35 567.44 889.70
  A 1.32 1.32 0.0 0 0 566.45 887.56
  Q 528.25 886.26 493.82 867.90
  A 0.30 0.30 0.0 0 0 493.45 867.96
  Q 439.34 925.85 391.46 983.45
  C 369.31 1010.10 339.25 1031.92 302.57 1024.75
  C 283.05 1020.93 265.91 1009.35 251.90 995.67
  C 230.27 974.55 213.04 947.54 198.61 920.17
  C 173.77 873.06 154.41 822.39 137.84 771.13
  Q 101.17 657.67 76.70 531.75
  Q 70.15 498.05 65.57 464.70
  Q 63.86 452.18 63.16 440.39
  Q 60.14 389.22 66.52 342.51
  C 71.18 308.37 80.61 274.43 96.50 244.19
  Q 128.34 183.61 188.19 153.24
  C 236.37 128.79 292.15 122.04 345.74 124.36
  Q 386.13 126.10 428.69 134.25
  Q 486.23 145.27 540.80 165.12
  Q 541.42 165.34 541.96 164.97
  C 577.40 140.87 618.92 127.12 661.49 122.81
  C 705.78 118.32 752.09 122.43 795.40 132.88
  A 1.68 1.67 41.3 0 0 796.38 132.82
  Q 808.11 128.43 821.24 124.91
  Q 888.74 106.84 959.49 106.85
  C 1001.98 106.85 1044.90 112.84 1084.96 125.75
  Q 1185.01 157.99 1250.33 241.10
  C 1265.67 260.62 1271.68 287.61 1273.78 313.08
  Q 1275.92 338.92 1274.03 366.97
  C 1271.51 404.13 1265.40 440.61 1256.72 477.82
  Q 1245.56 525.70 1229.85 572.62
  Q 1178.44 726.16 1090.79 861.13
  Q 1090.30 861.88 1091.07 862.34
  C 1103.36 869.66 1117.80 872.11 1131.91 872.89
  C 1161.83 874.56 1193.42 870.14 1223.10 863.99
  C 1235.32 861.46 1248.19 859.54 1259.99 862.63
  C 1271.38 865.61 1279.89 874.32 1281.02 886.17
  C 1282.83 905.25 1264.56 923.15 1250.72 934.44
  C 1226.51 954.19 1196.05 970.77 1165.82 978.97
  Q 1115.47 992.61 1062.74 990.87
  Q 1042.74 990.21 1023.63 984.89
  Q 1023.04 984.72 1022.97 985.33
  C 1014.93 1057.12 1005.95 1129.96 995.45 1200.00
  C 991.89 1223.76 986.69 1247.49 977.92 1269.13
  Q 956.78 1321.26 905.23 1345.59
  C 882.14 1356.49 857.13 1363.46 832.07 1367.76
  C 808.58 1371.79 784.22 1371.88 761.32 1365.58
  C 712.72 1352.19 684.42 1312.66 668.20 1267.16
  Q 665.42 1259.34 663.48 1249.12
  Q 660.47 1233.30 658.82 1217.75
  Q 654.89 1180.73 653.20 1138.98
  Q 650.41 1069.89 651.17 1000.34
  Q 651.17 999.62 650.64 1000.10
  Z
  M 1068.63 826.52
  C 1129.52 730.01 1177.71 623.23 1208.85 513.99
  C 1222.76 465.23 1233.22 415.25 1236.72 365.13
  Q 1238.63 337.66 1236.26 312.72
  C 1235.02 299.75 1232.33 286.03 1226.94 274.09
  Q 1224.15 267.91 1218.32 260.72
  Q 1154.40 181.87 1056.03 156.25
  Q 1015.25 145.62 971.07 144.39
  Q 914.73 142.81 858.87 154.38
  Q 858.58 154.44 858.86 154.56
  C 946.80 192.86 1016.58 265.02 1061.90 349.22
  Q 1077.60 378.39 1087.67 407.75
  Q 1091.79 419.78 1093.71 430.48
  Q 1094.74 436.25 1094.22 441.24
  Q 1093.71 446.15 1093.78 451.23
  C 1094.29 487.51 1085.25 523.46 1082.36 559.83
  C 1080.82 579.14 1081.66 596.97 1083.78 615.84
  C 1088.64 658.89 1095.42 702.10 1088.77 745.21
  C 1084.71 771.53 1075.78 795.80 1062.31 818.37
  A 0.47 0.47 0.0 0 0 1062.35 818.90
  L 1068.43 826.53
  A 0.12 0.12 0.0 0 0 1068.63 826.52
  Z
  M 523.61 427.07
  C 569.06 418.24 618.29 425.14 643.97 468.05
  Q 652.58 482.44 656.14 497.27
  Q 667.76 545.65 671.51 596.11
  Q 673.70 625.55 671.68 654.75
  Q 667.94 708.75 645.72 759.22
  Q 639.79 772.68 633.65 786.62
  C 627.63 800.30 622.53 814.58 617.55 828.20
  Q 611.78 844.00 607.88 858.66
  Q 607.72 859.29 608.35 859.14
  Q 620.23 856.34 631.94 859.26
  C 642.45 861.88 653.22 866.55 661.39 873.62
  C 677.43 887.50 686.23 905.72 689.48 926.60
  Q 689.89 929.21 689.81 931.96
  Q 687.72 999.71 688.66 1070.55
  Q 689.39 1126.03 692.57 1175.57
  C 693.95 1196.89 696.01 1219.10 699.89 1240.85
  Q 701.53 1250.07 704.15 1256.94
  C 710.51 1273.59 719.14 1290.87 730.74 1304.03
  C 753.44 1329.81 785.06 1336.41 818.28 1332.04
  Q 842.53 1328.85 868.47 1320.22
  C 893.31 1311.95 915.49 1299.44 930.48 1278.52
  C 949.82 1251.55 955.53 1215.93 960.21 1183.50
  Q 976.23 1072.41 987.49 965.25
  Q 988.05 960.00 988.57 954.58
  C 989.34 946.62 988.91 938.90 989.23 930.96
  C 990.18 907.42 997.97 884.51 1017.01 870.16
  C 1024.98 864.14 1034.48 860.11 1044.25 857.46
  A 0.39 0.39 0.0 0 0 1044.47 856.87
  Q 1041.77 852.91 1038.59 849.01
  C 1024.64 831.84 1012.05 815.06 1001.85 795.45
  C 997.70 787.48 992.97 775.75 987.92 766.56
  Q 978.76 749.93 968.63 731.63
  C 945.72 690.26 924.47 647.36 909.46 603.47
  Q 898.58 571.65 895.10 542.46
  C 892.28 518.78 893.82 493.96 904.10 472.58
  C 930.54 417.57 998.76 413.71 1051.45 419.20
  Q 1052.04 419.26 1051.87 418.69
  Q 1051.17 416.32 1050.33 414.03
  Q 1042.05 391.47 1029.91 368.60
  C 992.93 298.90 938.23 238.88 869.59 201.41
  C 810.81 169.33 743.14 155.26 676.56 159.01
  C 631.39 161.56 587.10 176.12 551.42 204.23
  C 502.16 243.04 472.90 301.60 456.73 361.23
  Q 443.93 408.46 440.02 457.44
  Q 439.96 458.16 440.59 457.81
  C 466.74 443.23 495.38 432.55 523.61 427.07
  Z
  M 406.11 423.58
  C 417.48 339.95 446.45 253.34 507.16 193.53
  A 0.36 0.36 0.0 0 0 507.02 192.94
  Q 458.30 176.95 407.28 168.36
  C 359.64 160.34 308.97 158.09 262.48 167.19
  C 246.31 170.35 230.30 175.20 215.40 181.68
  Q 160.17 205.66 131.36 258.20
  C 115.22 287.63 106.41 321.42 102.53 355.23
  Q 97.97 395.01 100.32 436.53
  C 101.08 449.91 102.94 463.49 105.07 477.05
  Q 113.51 530.99 128.17 594.82
  C 143.53 661.71 161.46 726.69 183.92 790.72
  Q 198.72 832.89 215.75 870.42
  Q 233.75 910.09 253.27 938.95
  Q 267.13 959.44 282.94 973.50
  C 293.84 983.18 308.01 990.92 322.61 988.26
  C 337.46 985.55 351.09 973.43 360.79 961.81
  Q 410.53 902.21 462.18 846.71
  Q 462.43 846.45 462.16 846.21
  C 412.92 803.41 389.28 738.89 397.65 673.88
  Q 398.99 663.51 400.14 653.23
  C 404.43 615.03 404.89 575.82 402.80 535.75
  C 402.04 521.00 400.84 506.33 400.99 491.86
  Q 401.32 458.88 406.11 423.58
  Z
  M 1038.50 783.89
  C 1044.07 771.94 1048.16 759.32 1050.69 746.33
  C 1056.05 718.75 1054.63 689.58 1051.34 660.87
  Q 1048.86 639.28 1046.52 618.73
  Q 1043.00 587.86 1044.86 560.70
  Q 1046.33 539.12 1049.86 517.11
  C 1052.99 497.58 1056.12 477.62 1056.50 457.95
  Q 1056.51 457.37 1055.94 457.29
  Q 1034.01 454.42 1012.85 454.78
  C 997.32 455.04 981.26 457.17 966.92 462.79
  C 946.43 470.81 935.33 486.14 932.29 507.10
  C 930.42 520.07 931.19 533.86 933.33 546.62
  Q 937.37 570.63 946.19 595.52
  C 959.90 634.22 978.61 672.43 998.55 708.49
  Q 1011.33 731.60 1022.43 751.95
  C 1027.68 761.57 1031.98 773.54 1038.12 783.91
  A 0.22 0.21 41.9 0 0 1038.50 783.89
  Z
  M 609.32 749.30
  Q 634.20 695.33 635.20 635.76
  C 635.91 593.70 630.08 551.05 620.86 509.96
  Q 617.80 496.31 610.97 485.62
  C 586.90 447.94 528.25 461.35 494.52 473.98
  Q 468.39 483.77 448.02 496.88
  Q 443.29 499.93 439.08 503.38
  Q 438.39 503.94 438.45 504.82
  Q 440.56 536.68 441.14 564.06
  Q 442.06 606.91 438.04 649.89
  C 436.89 662.15 434.65 676.05 433.84 686.80
  Q 430.48 731.50 449.94 770.69
  C 472.71 816.55 518.73 850.32 571.13 850.31
  A 0.48 0.48 0.0 0 0 571.60 849.94
  C 575.10 835.96 580.10 821.96 585.05 808.27
  Q 595.60 779.08 609.32 749.30
  Z
  M 1106.49 907.27
  C 1091.96 904.54 1078.14 899.38 1066.25 890.29
  Q 1065.82 889.96 1065.29 890.11
  Q 1053.56 893.49 1047.51 895.68
  Q 1033.03 900.90 1028.96 916.59
  Q 1025.53 929.81 1026.58 944.76
  A 1.44 1.43 20.2 0 0 1027.01 945.68
  Q 1027.82 946.48 1028.82 946.91
  Q 1038.49 951.13 1051.50 952.53
  Q 1074.86 955.05 1101.55 952.57
  Q 1134.88 949.48 1162.03 941.20
  Q 1172.63 937.97 1182.26 933.38
  C 1200.69 924.60 1217.97 913.96 1232.60 900.78
  Q 1233.40 900.06 1232.34 900.27
  Q 1223.56 901.98 1214.80 903.58
  Q 1183.56 909.29 1153.14 910.47
  Q 1128.66 911.42 1106.49 907.27
  Z
  M 457.24 989.83
  C 465.86 995.11 474.93 998.63 484.63 1000.89
  C 510.06 1006.83 535.93 1008.83 561.16 1004.12
  C 597.70 997.31 628.02 976.33 648.91 945.84
  Q 651.14 942.59 651.72 938.48
  C 653.38 926.79 649.04 915.30 641.52 906.34
  C 636.79 900.71 631.43 897.94 624.41 895.83
  C 619.55 894.36 615.41 895.22 611.38 898.20
  Q 606.15 902.06 601.74 907.26
  Q 590.00 921.09 577.65 936.70
  Q 566.26 951.11 553.41 958.99
  Q 540.81 966.72 522.49 972.02
  C 505.18 977.03 488.68 980.20 472.51 984.04
  Q 464.72 985.89 457.29 989.15
  A 0.39 0.38 -41.1 0 0 457.24 989.83
  Z"
/>
<path fill="#336791" d="
  M 1208.85 513.99
  C 1177.71 623.23 1129.52 730.01 1068.63 826.52
  A 0.12 0.12 0.0 0 1 1068.43 826.53
  L 1062.35 818.90
  A 0.47 0.47 0.0 0 1 1062.31 818.37
  C 1075.78 795.80 1084.71 771.53 1088.77 745.21
  C 1095.42 702.10 1088.64 658.89 1083.78 615.84
  C 1081.66 596.97 1080.82 579.14 1082.36 559.83
  C 1085.25 523.46 1094.29 487.51 1093.78 451.23
  Q 1093.71 446.15 1094.22 441.24
  Q 1094.74 436.25 1093.71 430.48
  Q 1091.79 419.78 1087.67 407.75
  Q 1077.60 378.39 1061.90 349.22
  C 1016.58 265.02 946.80 192.86 858.86 154.56
  Q 858.58 154.44 858.87 154.38
  Q 914.73 142.81 971.07 144.39
  Q 1015.25 145.62 1056.03 156.25
  Q 1154.40 181.87 1218.32 260.72
  Q 1224.15 267.91 1226.94 274.09
  C 1232.33 286.03 1235.02 299.75 1236.26 312.72
  Q 1238.63 337.66 1236.72 365.13
  C 1233.22 415.25 1222.76 465.23 1208.85 513.99
  Z"
/>
<path fill="#336791" d="
  M 643.97 468.05
  C 618.29 425.14 569.06 418.24 523.61 427.07
  C 495.38 432.55 466.74 443.23 440.59 457.81
  Q 439.96 458.16 440.02 457.44
  Q 443.93 408.46 456.73 361.23
  C 472.90 301.60 502.16 243.04 551.42 204.23
  C 587.10 176.12 631.39 161.56 676.56 159.01
  C 743.14 155.26 810.81 169.33 869.59 201.41
  C 938.23 238.88 992.93 298.90 1029.91 368.60
  Q 1042.05 391.47 1050.33 414.03
  Q 1051.17 416.32 1051.87 418.69
  Q 1052.04 419.26 1051.45 419.20
  C 998.76 413.71 930.54 417.57 904.10 472.58
  C 893.82 493.96 892.28 518.78 895.10 542.46
  Q 898.58 571.65 909.46 603.47
  C 924.47 647.36 945.72 690.26 968.63 731.63
  Q 978.76 749.93 987.92 766.56
  C 992.97 775.75 997.70 787.48 1001.85 795.45
  C 1012.05 815.06 1024.64 831.84 1038.59 849.01
  Q 1041.77 852.91 1044.47 856.87
  A 0.39 0.39 0.0 0 1 1044.25 857.46
  C 1034.48 860.11 1024.98 864.14 1017.01 870.16
  C 997.97 884.51 990.18 907.42 989.23 930.96
  C 988.91 938.90 989.34 946.62 988.57 954.58
  Q 988.05 960.00 987.49 965.25
  Q 976.23 1072.41 960.21 1183.50
  C 955.53 1215.93 949.82 1251.55 930.48 1278.52
  C 915.49 1299.44 893.31 1311.95 868.47 1320.22
  Q 842.53 1328.85 818.28 1332.04
  C 785.06 1336.41 753.44 1329.81 730.74 1304.03
  C 719.14 1290.87 710.51 1273.59 704.15 1256.94
  Q 701.53 1250.07 699.89 1240.85
  C 696.01 1219.10 693.95 1196.89 692.57 1175.57
  Q 689.39 1126.03 688.66 1070.55
  Q 687.72 999.71 689.81 931.96
  Q 689.89 929.21 689.48 926.60
  C 686.23 905.72 677.43 887.50 661.39 873.62
  C 653.22 866.55 642.45 861.88 631.94 859.26
  Q 620.23 856.34 608.35 859.14
  Q 607.72 859.29 607.88 858.66
  Q 611.78 844.00 617.55 828.20
  C 622.53 814.58 627.63 800.30 633.65 786.62
  Q 639.79 772.68 645.72 759.22
  Q 667.94 708.75 671.68 654.75
  Q 673.70 625.55 671.51 596.11
  Q 667.76 545.65 656.14 497.27
  Q 652.58 482.44 643.97 468.05
  Z"
/>
<path fill="#336791" d="
  M 507.16 193.53
  C 446.45 253.34 417.48 339.95 406.11 423.58
  Q 401.32 458.88 400.99 491.86
  C 400.84 506.33 402.04 521.00 402.80 535.75
  C 404.89 575.82 404.43 615.03 400.14 653.23
  Q 398.99 663.51 397.65 673.88
  C 389.28 738.89 412.92 803.41 462.16 846.21
  Q 462.43 846.45 462.18 846.71
  Q 410.53 902.21 360.79 961.81
  C 351.09 973.43 337.46 985.55 322.61 988.26
  C 308.01 990.92 293.84 983.18 282.94 973.50
  Q 267.13 959.44 253.27 938.95
  Q 233.75 910.09 215.75 870.42
  Q 198.72 832.89 183.92 790.72
  C 161.46 726.69 143.53 661.71 128.17 594.82
  Q 113.51 530.99 105.07 477.05
  C 102.94 463.49 101.08 449.91 100.32 436.53
  Q 97.97 395.01 102.53 355.23
  C 106.41 321.42 115.22 287.63 131.36 258.20
  Q 160.17 205.66 215.40 181.68
  C 230.30 175.20 246.31 170.35 262.48 167.19
  C 308.97 158.09 359.64 160.34 407.28 168.36
  Q 458.30 176.95 507.02 192.94
  A 0.36 0.36 0.0 0 1 507.16 193.53
  Z"
/>
<path fill="#336791" d="
  M 1050.69 746.33
  C 1048.16 759.32 1044.07 771.94 1038.50 783.89
  A 0.22 0.21 41.9 0 1 1038.12 783.91
  C 1031.98 773.54 1027.68 761.57 1022.43 751.95
  Q 1011.33 731.60 998.55 708.49
  C 978.61 672.43 959.90 634.22 946.19 595.52
  Q 937.37 570.63 933.33 546.62
  C 931.19 533.86 930.42 520.07 932.29 507.10
  C 935.33 486.14 946.43 470.81 966.92 462.79
  C 981.26 457.17 997.32 455.04 1012.85 454.78
  Q 1034.01 454.42 1055.94 457.29
  Q 1056.51 457.37 1056.50 457.95
  C 1056.12 477.62 1052.99 497.58 1049.86 517.11
  Q 1046.33 539.12 1044.86 560.70
  Q 1043.00 587.86 1046.52 618.73
  Q 1048.86 639.28 1051.34 660.87
  C 1054.63 689.58 1056.05 718.75 1050.69 746.33
  Z
  M 1018.26 493.63
  C 1027.95 479.87 1016.33 473.76 1004.38 472.77
  Q 987.40 471.36 971.79 477.60
  C 964.00 480.71 954.48 487.40 961.06 496.92
  C 967.86 506.75 981.20 513.03 993.13 510.82
  Q 1008.10 508.05 1018.26 493.63
  Z"
/>
<path fill="#336791" d="
  M 609.32 749.30
  Q 595.60 779.08 585.05 808.27
  C 580.10 821.96 575.10 835.96 571.60 849.94
  A 0.48 0.48 0.0 0 1 571.13 850.31
  C 518.73 850.32 472.71 816.55 449.94 770.69
  Q 430.48 731.50 433.84 686.80
  C 434.65 676.05 436.89 662.15 438.04 649.89
  Q 442.06 606.91 441.14 564.06
  Q 440.56 536.68 438.45 504.82
  Q 438.39 503.94 439.08 503.38
  Q 443.29 499.93 448.02 496.88
  Q 468.39 483.77 494.52 473.98
  C 528.25 461.35 586.90 447.94 610.97 485.62
  Q 617.80 496.31 620.86 509.96
  C 630.08 551.05 635.91 593.70 635.20 635.76
  Q 634.20 695.33 609.32 749.30
  Z
  M 536.84 489.53
  Q 536.50 489.49 536.17 489.59
  Q 535.79 489.72 535.75 490.12
  Q 535.47 492.75 535.19 495.34
  C 534.14 504.97 544.66 515.83 551.98 520.53
  Q 571.73 533.20 591.89 520.46
  Q 597.28 517.05 601.30 511.37
  C 611.29 497.28 594.32 488.23 583.31 485.01
  Q 567.61 480.43 552.70 482.46
  Q 542.78 483.81 537.55 489.28
  Q 537.26 489.59 536.84 489.53
  Z"
/>
<path fill="#ffffff" d="
  M 1018.26 493.63
  Q 1008.10 508.05 993.13 510.82
  C 981.20 513.03 967.86 506.75 961.06 496.92
  C 954.48 487.40 964.00 480.71 971.79 477.60
  Q 987.40 471.36 1004.38 472.77
  C 1016.33 473.76 1027.95 479.87 1018.26 493.63
  Z"
/>
<path fill="#ffffff" d="
  M 537.55 489.28
  Q 542.78 483.81 552.70 482.46
  Q 567.61 480.43 583.31 485.01
  C 594.32 488.23 611.29 497.28 601.30 511.37
  Q 597.28 517.05 591.89 520.46
  Q 571.73 533.20 551.98 520.53
  C 544.66 515.83 534.14 504.97 535.19 495.34
  Q 535.47 492.75 535.75 490.12
  Q 535.79 489.72 536.17 489.59
  Q 536.50 489.49 536.84 489.53
  Q 537.26 489.59 537.55 489.28
  Z"
/>
<path fill="#336791" d="
  M 1066.25 890.29
  C 1078.14 899.38 1091.96 904.54 1106.49 907.27
  Q 1128.66 911.42 1153.14 910.47
  Q 1183.56 909.29 1214.80 903.58
  Q 1223.56 901.98 1232.34 900.27
  Q 1233.40 900.06 1232.60 900.78
  C 1217.97 913.96 1200.69 924.60 1182.26 933.38
  Q 1172.63 937.97 1162.03 941.20
  Q 1134.88 949.48 1101.55 952.57
  Q 1074.86 955.05 1051.50 952.53
  Q 1038.49 951.13 1028.82 946.91
  Q 1027.82 946.48 1027.01 945.68
  A 1.44 1.43 20.2 0 1 1026.58 944.76
  Q 1025.53 929.81 1028.96 916.59
  Q 1033.03 900.90 1047.51 895.68
  Q 1053.56 893.49 1065.29 890.11
  Q 1065.82 889.96 1066.25 890.29
  Z"
/>
<path fill="#336791" d="
  M 484.63 1000.89
  C 474.93 998.63 465.86 995.11 457.24 989.83
  A 0.39 0.38 -41.1 0 1 457.29 989.15
  Q 464.72 985.89 472.51 984.04
  C 488.68 980.20 505.18 977.03 522.49 972.02
  Q 540.81 966.72 553.41 958.99
  Q 566.26 951.11 577.65 936.70
  Q 590.00 921.09 601.74 907.26
  Q 606.15 902.06 611.38 898.20
  C 615.41 895.22 619.55 894.36 624.41 895.83
  C 631.43 897.94 636.79 900.71 641.52 906.34
  C 649.04 915.30 653.38 926.79 651.72 938.48
  Q 651.14 942.59 648.91 945.84
  C 628.02 976.33 597.70 997.31 561.16 1004.12
  C 535.93 1008.83 510.06 1006.83 484.63 1000.89
  Z"
/>
</svg>
