<?xml version="1.0" encoding="UTF-8" standalone="no"?>
<!DOCTYPE svg PUBLIC "-//W3C//DTD SVG 1.1//EN" "http://www.w3.org/Graphics/SVG/1.1/DTD/svg11.dtd">
<svg xmlns="http://www.w3.org/2000/svg" version="1.1" viewBox="0.00 0.00 800.00 696.00">
<path fill="#61dafb" d="
  M 230.90 0.00
  L 258.26 0.00
  Q 283.46 4.29 306.36 15.87
  C 340.98 33.39 371.94 58.21 399.58 85.28
  Q 399.96 85.65 400.35 85.28
  C 439.35 48.04 487.13 9.05 541.88 0.00
  L 569.26 0.00
  C 624.31 9.87 640.79 63.95 641.10 112.50
  C 641.33 147.47 635.92 182.26 627.20 216.06
  A 0.86 0.86 0.0 0 0 627.80 217.10
  C 662.61 226.72 697.23 240.12 728.12 259.13
  C 767.98 283.64 805.15 324.85 785.54 375.55
  C 775.42 401.71 751.85 422.25 728.44 436.68
  C 697.45 455.78 662.66 469.25 627.76 478.92
  A 0.80 0.79 75.0 0 0 627.21 479.88
  Q 635.34 511.47 639.08 543.75
  C 645.53 599.51 640.49 683.37 569.14 696.00
  L 541.73 696.00
  Q 514.34 691.24 489.67 678.11
  C 456.59 660.51 427.17 636.85 400.44 610.73
  Q 400.05 610.34 399.65 610.72
  C 368.78 640.34 334.37 668.50 294.71 685.44
  Q 277.37 692.84 258.12 696.00
  L 230.79 696.00
  C 186.64 688.40 166.17 650.79 160.79 609.75
  C 155.19 566.93 162.08 521.35 172.77 479.86
  Q 172.98 479.07 172.19 478.86
  C 116.44 463.73 18.04 425.23 9.72 357.19
  C 2.22 295.78 69.56 255.75 116.73 236.21
  Q 144.10 224.88 172.26 217.09
  A 0.78 0.78 0.0 0 0 172.81 216.14
  Q 162.24 175.82 159.46 134.37
  C 155.94 81.80 166.54 11.00 230.90 0.00
  Z
  M 193.03 106.51
  C 191.93 140.88 197.41 175.47 205.64 207.92
  Q 205.78 208.47 206.33 208.34
  Q 257.51 197.01 309.72 192.33
  A 0.94 0.94 0.0 0 0 310.39 191.95
  Q 340.54 149.08 375.90 110.40
  Q 376.25 110.03 375.89 109.67
  C 348.40 82.55 317.04 57.45 281.40 41.99
  C 269.80 36.95 257.48 33.35 244.75 33.13
  C 204.53 32.43 194.05 74.79 193.03 106.51
  Z
  M 490.31 192.25
  C 525.12 195.63 559.55 200.75 593.67 208.32
  Q 594.17 208.43 594.29 207.94
  C 601.86 178.09 606.93 147.59 607.18 116.75
  C 607.35 96.12 604.66 73.45 594.47 55.27
  C 573.61 18.04 526.52 35.65 498.79 51.60
  C 471.27 67.43 446.19 88.00 424.10 109.55
  Q 423.69 109.95 424.08 110.38
  Q 459.38 148.98 489.49 191.77
  A 1.14 1.13 75.2 0 0 490.31 192.25
  Z
  M 360.88 189.01
  Q 403.05 187.38 445.08 189.13
  A 0.22 0.22 0.0 0 0 445.26 188.78
  Q 423.97 160.65 400.21 134.57
  A 0.28 0.28 0.0 0 0 399.80 134.57
  Q 376.08 160.54 354.87 188.61
  Q 354.40 189.22 355.18 189.20
  Q 357.84 189.13 360.88 189.01
  Z
  M 328.59 225.18
  C 302.20 263.65 278.00 305.96 257.98 347.49
  Q 257.75 347.98 257.98 348.46
  Q 288.74 412.07 328.40 470.54
  Q 328.87 471.24 329.71 471.30
  Q 400.22 476.42 470.72 471.29
  A 0.85 0.83 -74.6 0 0 471.35 470.92
  Q 511.13 412.29 542.00 348.52
  Q 542.25 348.01 542.00 347.51
  Q 511.17 283.75 471.41 225.16
  Q 471.12 224.74 470.61 224.70
  Q 400.02 219.60 329.42 224.70
  Q 328.89 224.74 328.59 225.18
  Z
  M 584.34 241.07
  C 561.54 235.98 538.36 232.08 515.20 229.16
  A 0.27 0.27 0.0 0 0 514.94 229.57
  Q 539.22 267.56 559.97 307.60
  A 0.25 0.25 0.0 0 0 560.42 307.58
  Q 574.11 275.22 584.72 241.73
  A 0.52 0.51 -75.1 0 0 584.34 241.07
  Z
  M 215.82 241.01
  A 0.70 0.69 75.1 0 0 215.31 241.90
  Q 225.87 275.16 239.43 307.32
  Q 239.75 308.08 240.14 307.35
  Q 260.87 267.46 285.05 229.57
  A 0.26 0.25 12.7 0 0 284.80 229.18
  Q 250.04 233.53 215.82 241.01
  Z
  M 44.90 335.90
  C 34.78 367.71 67.61 394.69 91.00 408.78
  C 119.08 425.70 150.17 437.50 181.71 446.32
  A 0.45 0.44 16.5 0 0 182.25 446.03
  Q 197.99 396.04 220.06 348.51
  Q 220.29 348.00 220.06 347.49
  Q 198.06 300.02 182.30 250.12
  Q 182.14 249.61 181.63 249.75
  Q 146.71 259.26 113.99 274.67
  C 88.98 286.46 53.80 307.93 44.90 335.90
  Z
  M 753.18 365.20
  C 771.94 323.39 716.63 289.27 686.75 275.03
  Q 654.23 259.54 618.30 249.72
  Q 617.85 249.60 617.72 250.04
  Q 601.94 299.97 579.94 347.47
  Q 579.70 347.99 579.94 348.50
  Q 602.02 396.13 617.79 446.21
  A 0.27 0.27 0.0 0 0 618.12 446.39
  Q 650.31 437.47 680.42 423.85
  C 706.39 412.11 740.95 392.45 753.18 365.20
  Z
  M 215.90 455.00
  C 238.67 459.93 261.64 463.94 284.66 466.77
  Q 285.34 466.85 284.97 466.27
  Q 260.85 428.52 240.21 388.75
  Q 239.76 387.88 239.38 388.78
  Q 225.86 420.84 215.32 454.01
  A 0.78 0.78 0.0 0 0 215.90 455.00
  Z
  M 559.95 388.47
  C 546.04 415.15 530.82 440.73 515.00 466.41
  A 0.27 0.26 12.4 0 0 515.26 466.81
  Q 550.04 462.48 584.28 454.97
  A 0.60 0.60 0.0 0 0 584.72 454.20
  Q 574.12 420.79 560.48 388.49
  A 0.29 0.29 0.0 0 0 559.95 388.47
  Z
  M 195.99 536.11
  C 190.41 574.09 184.69 668.11 249.00 662.69
  C 268.12 661.08 287.42 652.64 303.77 642.98
  C 330.21 627.36 354.58 607.24 375.92 586.43
  Q 376.32 586.04 375.94 585.63
  Q 340.57 547.00 310.47 504.15
  Q 310.16 503.70 309.62 503.65
  Q 257.49 498.98 206.39 487.67
  Q 205.86 487.56 205.73 488.08
  Q 199.55 511.84 195.99 536.11
  Z
  M 426.02 583.28
  Q 424.99 584.41 424.07 585.65
  Q 423.78 586.02 424.12 586.36
  C 449.65 611.50 478.54 634.75 510.80 650.65
  C 536.45 663.29 573.55 672.96 592.61 643.40
  C 604.82 624.45 607.75 598.92 607.26 576.49
  C 606.60 546.61 601.67 516.93 594.26 487.97
  A 0.43 0.43 0.0 0 0 593.75 487.65
  Q 542.77 498.93 490.76 503.63
  Q 489.86 503.71 489.35 504.44
  Q 460.24 545.75 426.02 583.28
  Z
  M 439.73 514.36
  C 441.14 512.53 443.49 509.81 445.10 507.36
  Q 445.48 506.79 444.80 506.82
  Q 399.77 508.81 354.75 506.79
  A 0.16 0.16 0.0 0 0 354.62 507.04
  Q 375.94 535.27 399.78 561.40
  Q 399.98 561.62 400.19 561.40
  Q 420.97 538.76 439.73 514.36
  Z"
/>
<circle fill="#61dafb" cx="400.00" cy="348.00" r="69.67"/>
</svg>
