<?xml version="1.0" encoding="UTF-8" standalone="no"?>
<!DOCTYPE svg PUBLIC "-//W3C//DTD SVG 1.1//EN" "http://www.w3.org/Graphics/SVG/1.1/DTD/svg11.dtd">
<svg xmlns="http://www.w3.org/2000/svg" version="1.1" viewBox="0.00 0.00 100.00 100.00">
<g stroke-width="2.00" fill="none" stroke-linecap="butt">
<path stroke="#e90069" vector-effect="non-scaling-stroke" d="
  M 59.52 0.00
  Q 57.51 0.27 59.44 2.10
  Q 60.25 2.86 60.31 2.92
  Q 79.70 22.46 100.00 42.37"
/>
<path stroke="#e3005d" vector-effect="non-scaling-stroke" d="
  M 100.00 76.17
  Q 99.24 78.64 99.29 74.44
  Q 99.29 74.36 99.21 74.39
  Q 99.07 74.45 98.95 74.46
  Q 98.83 74.47 98.69 74.33
  Q 94.67 70.29 90.65 66.24
  Q 90.31 65.91 89.84 65.94
  Q 89.32 65.96 88.89 65.61
  Q 88.43 65.24 88.81 65.01"
/>
<path stroke="#f380b2" vector-effect="non-scaling-stroke" d="
  M 88.81 65.01
  C 95.62 63.60 93.16 55.58 88.44 53.04
  Q 82.92 50.08 76.09 53.14
  Q 75.60 53.36 75.31 52.90
  Q 72.70 48.61 74.68 43.96
  A 0.78 0.78 0.0 0 0 74.10 42.88
  Q 69.98 42.14 69.61 44.75"
/>
<path stroke="#e3005d" vector-effect="non-scaling-stroke" d="
  M 69.61 44.75
  Q 69.07 43.84 69.12 42.76
  Q 69.13 42.34 68.72 42.37
  Q 67.29 42.49 66.73 41.19
  Q 66.63 40.96 66.62 41.21
  Q 66.61 41.35 66.65 41.51
  Q 66.89 42.54 66.15 41.68
  Q 63.80 38.94 61.22 37.62"
/>
<path stroke="#f380b2" vector-effect="non-scaling-stroke" d="
  M 61.22 37.62
  Q 64.43 33.76 64.89 29.25
  C 65.84 19.99 54.32 18.12 47.25 19.35
  Q 39.91 20.64 33.35 24.29"
/>
<path stroke="#e3005d" vector-effect="non-scaling-stroke" d="
  M 33.35 24.29
  L 33.35 21.21
  A 1.21 1.19 -67.8 0 0 33.00 20.36
  L 13.77 1.04"
/>
<path stroke="#ef80ab" vector-effect="non-scaling-stroke" d="
  M 33.35 24.29
  Q 26.60 27.36 20.83 33.76"
/>
<path stroke="#da0050" vector-effect="non-scaling-stroke" d="
  M 20.83 33.76
  L 0.97 14.11"
/>
<path stroke="#ea80a4" vector-effect="non-scaling-stroke" d="
  M 20.83 33.76
  Q 12.50 43.17 22.51 51.19
  Q 26.84 54.65 31.33 57.60
  A 0.47 0.47 0.0 0 1 31.33 58.39
  L 23.04 63.72"
/>
<path stroke="#d00045" vector-effect="non-scaling-stroke" d="
  M 23.04 63.72
  Q 22.93 63.31 22.29 63.27
  A 0.14 0.14 0.0 0 1 22.23 63.01
  Q 22.37 62.95 22.51 62.90
  Q 22.54 62.88 22.49 62.50
  Q 22.41 61.85 21.83 61.87
  Q 21.28 61.88 20.91 61.49
  Q 11.32 51.26 8.15 48.48
  Q 4.35 45.17 0.86 41.51
  Q 0.75 41.39 0.53 41.33
  Q 0.21 41.23 0.18 40.89
  L 0.00 38.24"
/>
<path stroke="#ef80ab" vector-effect="non-scaling-stroke" d="
  M 61.22 37.62
  Q 54.22 45.10 43.99 45.38
  C 40.99 45.46 36.00 44.44 34.85 41.40
  Q 33.79 38.60 35.94 40.69
  C 42.14 46.72 62.17 37.42 60.75 28.26
  C 59.79 22.02 48.75 23.63 44.77 24.84
  C 37.99 26.89 25.78 32.73 23.24 40.00
  C 20.72 47.24 29.58 52.07 34.20 55.96
  Q 34.56 56.26 34.99 56.10
  Q 40.70 54.02 45.03 49.78
  C 47.65 47.21 52.40 46.79 51.39 51.73
  Q 51.26 52.40 51.93 52.29
  Q 52.84 52.13 53.55 52.65
  Q 53.97 52.97 53.85 53.48
  L 51.75 62.49
  A 0.44 0.44 0.0 0 0 52.59 62.77
  L 59.98 45.91
  A 1.50 1.50 0.0 0 1 61.39 45.00
  L 63.70 45.04
  A 0.82 0.82 0.0 0 1 64.44 46.18
  Q 62.82 49.94 64.24 53.76
  A 0.48 0.48 0.0 0 0 65.09 53.86
  Q 68.10 49.45 69.61 44.75"
/>
<path stroke="#ef80ab" vector-effect="non-scaling-stroke" d="
  M 88.81 65.01
  Q 88.42 64.58 88.97 64.19
  C 93.40 61.08 90.75 56.57 86.75 55.19
  Q 81.90 53.52 77.00 55.07
  Q 76.49 55.23 76.63 55.74
  C 77.92 60.46 74.57 63.74 70.15 64.48
  A 1.89 1.89 0.0 0 1 67.99 62.22
  Q 68.83 58.21 72.06 55.66
  Q 72.53 55.29 72.23 54.77
  Q 71.01 52.64 70.68 50.21
  A 0.31 0.30 56.6 0 0 70.12 50.09
  L 66.23 56.59
  Q 65.96 57.04 66.14 57.53
  C 68.40 63.72 63.62 67.03 58.02 66.98
  A 1.16 1.16 0.0 0 1 56.88 65.69
  C 57.08 63.94 60.94 60.12 62.14 58.47
  Q 62.47 58.01 62.19 57.52
  Q 60.86 55.17 60.36 52.50
  Q 60.17 51.48 59.80 52.45
  Q 56.48 61.09 51.41 68.15"
/>
<path stroke="#ea80a4" vector-effect="non-scaling-stroke" d="
  M 51.41 68.15
  C 48.27 68.07 48.16 65.74 48.39 63.43
  Q 48.47 62.67 48.07 63.32
  C 46.88 65.22 46.19 68.95 43.39 69.13
  C 38.79 69.42 39.14 59.87 40.12 57.04
  A 0.38 0.37 84.7 0 0 39.58 56.59
  L 36.71 58.20
  Q 36.27 58.44 36.40 58.93
  Q 39.04 68.95 30.79 74.45"
/>
<path stroke="#e680a0" vector-effect="non-scaling-stroke" d="
  M 30.79 74.45
  C 27.61 76.18 20.63 77.57 19.61 72.50
  Q 18.59 67.37 23.04 63.72"
/>
<path stroke="#ef80ab" vector-effect="non-scaling-stroke" d="
  M 44.91 64.46
  L 49.72 51.29
  A 0.12 0.12 0.0 0 0 49.65 51.14
  L 49.61 51.12
  A 6.78 3.25 -69.9 0 0 44.22 56.37
  L 43.98 57.03
  A 6.78 3.25 -69.9 0 0 44.71 64.51
  L 44.75 64.53
  A 0.12 0.12 0.0 0 0 44.91 64.46"
/>
<path stroke="#ef80ab" vector-effect="non-scaling-stroke" d="
  M 73.02 56.98
  L 70.45 61.34
  A 0.14 0.14 0.0 0 0 70.50 61.53
  L 70.59 61.58
  A 2.49 1.46 -59.5 0 0 73.11 60.18
  L 73.29 59.87
  A 2.49 1.46 -59.5 0 0 73.30 56.98
  L 73.21 56.93
  A 0.14 0.14 0.0 0 0 73.02 56.98"
/>
<path stroke="#ea80a4" vector-effect="non-scaling-stroke" d="
  M 32.84 60.20
  C 28.91 62.51 25.06 65.01 24.13 69.61
  A 1.62 1.61 -75.4 0 0 25.21 71.46
  Q 26.83 71.99 28.72 70.91
  Q 34.89 67.41 33.87 60.70
  Q 33.72 59.69 32.84 60.20"
/>
<path stroke="#ef80ab" vector-effect="non-scaling-stroke" d="
  M 60.3819 64.3947
  A 2.42 0.41 130.7 0 0 62.2708 62.8274
  A 2.42 0.41 130.7 0 0 63.5381 60.7253
  A 2.42 0.41 130.7 0 0 61.6492 62.2926
  A 2.42 0.41 130.7 0 0 60.3819 64.3947"
/>
<path stroke="#d00045" vector-effect="non-scaling-stroke" d="
  M 30.79 74.45
  Q 30.83 74.91 30.95 75.16
  Q 31.04 75.36 31.24 75.26
  Q 31.53 75.12 31.23 74.98
  A 0.12 0.12 0.0 0 1 31.21 74.76
  Q 31.82 74.39 32.40 74.72
  Q 32.50 74.77 32.50 74.87
  Q 32.50 74.93 32.49 74.97
  Q 32.45 75.12 32.48 75.15
  L 53.26 96.20
  Q 53.65 96.60 53.78 97.14
  Q 54.03 98.18 54.96 98.63
  Q 55.66 98.97 54.94 99.25
  Q 54.29 99.50 54.26 100.00"
/>
<path stroke="#da0050" vector-effect="non-scaling-stroke" d="
  M 82.63 99.79
  L 51.41 68.15"
/>
</g>
<path fill="#e60064" d="
  M 18.14 0.00
  L 59.52 0.00
  Q 57.51 0.27 59.44 2.10
  Q 60.25 2.86 60.31 2.92
  Q 79.70 22.46 100.00 42.37
  L 100.00 76.17
  Q 99.24 78.64 99.29 74.44
  Q 99.29 74.36 99.21 74.39
  Q 99.07 74.45 98.95 74.46
  Q 98.83 74.47 98.69 74.33
  Q 94.67 70.29 90.65 66.24
  Q 90.31 65.91 89.84 65.94
  Q 89.32 65.96 88.89 65.61
  Q 88.43 65.24 88.81 65.01
  C 95.62 63.60 93.16 55.58 88.44 53.04
  Q 82.92 50.08 76.09 53.14
  Q 75.60 53.36 75.31 52.90
  Q 72.70 48.61 74.68 43.96
  A 0.78 0.78 0.0 0 0 74.10 42.88
  Q 69.98 42.14 69.61 44.75
  Q 69.07 43.84 69.12 42.76
  Q 69.13 42.34 68.72 42.37
  Q 67.29 42.49 66.73 41.19
  Q 66.63 40.96 66.62 41.21
  Q 66.61 41.35 66.65 41.51
  Q 66.89 42.54 66.15 41.68
  Q 63.80 38.94 61.22 37.62
  Q 64.43 33.76 64.89 29.25
  C 65.84 19.99 54.32 18.12 47.25 19.35
  Q 39.91 20.64 33.35 24.29
  L 33.35 21.21
  A 1.21 1.19 -67.8 0 0 33.00 20.36
  L 13.77 1.04
  L 18.14 0.00
  Z"
/>
<path fill="#ec006e" d="
  M 59.52 0.00
  L 81.99 0.00
  Q 97.39 2.76 100.00 18.11
  L 100.00 42.37
  Q 79.70 22.46 60.31 2.92
  Q 60.25 2.86 59.44 2.10
  Q 57.51 0.27 59.52 0.00
  Z"
/>
<path fill="#df0056" d="
  M 13.77 1.04
  L 33.00 20.36
  A 1.21 1.19 -67.8 0 1 33.35 21.21
  L 33.35 24.29
  Q 26.60 27.36 20.83 33.76
  L 0.97 14.11
  Q 4.00 4.53 13.77 1.04
  Z"
/>
<path fill="#d40049" d="
  M 0.97 14.11
  L 20.83 33.76
  Q 12.50 43.17 22.51 51.19
  Q 26.84 54.65 31.33 57.60
  A 0.47 0.47 0.0 0 1 31.33 58.39
  L 23.04 63.72
  Q 22.93 63.31 22.29 63.27
  A 0.14 0.14 0.0 0 1 22.23 63.01
  Q 22.37 62.95 22.51 62.90
  Q 22.54 62.88 22.49 62.50
  Q 22.41 61.85 21.83 61.87
  Q 21.28 61.88 20.91 61.49
  Q 11.32 51.26 8.15 48.48
  Q 4.35 45.17 0.86 41.51
  Q 0.75 41.39 0.53 41.33
  Q 0.21 41.23 0.18 40.89
  L 0.00 38.24
  L 0.00 18.02
  L 0.97 14.11
  Z"
/>
<path fill="#ffffff" d="
  M 61.22 37.62
  Q 54.22 45.10 43.99 45.38
  C 40.99 45.46 36.00 44.44 34.85 41.40
  Q 33.79 38.60 35.94 40.69
  C 42.14 46.72 62.17 37.42 60.75 28.26
  C 59.79 22.02 48.75 23.63 44.77 24.84
  C 37.99 26.89 25.78 32.73 23.24 40.00
  C 20.72 47.24 29.58 52.07 34.20 55.96
  Q 34.56 56.26 34.99 56.10
  Q 40.70 54.02 45.03 49.78
  C 47.65 47.21 52.40 46.79 51.39 51.73
  Q 51.26 52.40 51.93 52.29
  Q 52.84 52.13 53.55 52.65
  Q 53.97 52.97 53.85 53.48
  L 51.75 62.49
  A 0.44 0.44 0.0 0 0 52.59 62.77
  L 59.98 45.91
  A 1.50 1.50 0.0 0 1 61.39 45.00
  L 63.70 45.04
  A 0.82 0.82 0.0 0 1 64.44 46.18
  Q 62.82 49.94 64.24 53.76
  A 0.48 0.48 0.0 0 0 65.09 53.86
  Q 68.10 49.45 69.61 44.75
  Q 69.98 42.14 74.10 42.88
  A 0.78 0.78 0.0 0 1 74.68 43.96
  Q 72.70 48.61 75.31 52.90
  Q 75.60 53.36 76.09 53.14
  Q 82.92 50.08 88.44 53.04
  C 93.16 55.58 95.62 63.60 88.81 65.01
  Q 88.42 64.58 88.97 64.19
  C 93.40 61.08 90.75 56.57 86.75 55.19
  Q 81.90 53.52 77.00 55.07
  Q 76.49 55.23 76.63 55.74
  C 77.92 60.46 74.57 63.74 70.15 64.48
  A 1.89 1.89 0.0 0 1 67.99 62.22
  Q 68.83 58.21 72.06 55.66
  Q 72.53 55.29 72.23 54.77
  Q 71.01 52.64 70.68 50.21
  A 0.31 0.30 56.6 0 0 70.12 50.09
  L 66.23 56.59
  Q 65.96 57.04 66.14 57.53
  C 68.40 63.72 63.62 67.03 58.02 66.98
  A 1.16 1.16 0.0 0 1 56.88 65.69
  C 57.08 63.94 60.94 60.12 62.14 58.47
  Q 62.47 58.01 62.19 57.52
  Q 60.86 55.17 60.36 52.50
  Q 60.17 51.48 59.80 52.45
  Q 56.48 61.09 51.41 68.15
  C 48.27 68.07 48.16 65.74 48.39 63.43
  Q 48.47 62.67 48.07 63.32
  C 46.88 65.22 46.19 68.95 43.39 69.13
  C 38.79 69.42 39.14 59.87 40.12 57.04
  A 0.38 0.37 84.7 0 0 39.58 56.59
  L 36.71 58.20
  Q 36.27 58.44 36.40 58.93
  Q 39.04 68.95 30.79 74.45
  C 27.61 76.18 20.63 77.57 19.61 72.50
  Q 18.59 67.37 23.04 63.72
  L 31.33 58.39
  A 0.47 0.47 0.0 0 0 31.33 57.60
  Q 26.84 54.65 22.51 51.19
  Q 12.50 43.17 20.83 33.76
  Q 26.60 27.36 33.35 24.29
  Q 39.91 20.64 47.25 19.35
  C 54.32 18.12 65.84 19.99 64.89 29.25
  Q 64.43 33.76 61.22 37.62
  Z
  M 44.91 64.46
  L 49.72 51.29
  A 0.12 0.12 0.0 0 0 49.65 51.14
  L 49.61 51.12
  A 6.78 3.25 -69.9 0 0 44.22 56.37
  L 43.98 57.03
  A 6.78 3.25 -69.9 0 0 44.71 64.51
  L 44.75 64.53
  A 0.12 0.12 0.0 0 0 44.91 64.46
  Z
  M 73.02 56.98
  L 70.45 61.34
  A 0.14 0.14 0.0 0 0 70.50 61.53
  L 70.59 61.58
  A 2.49 1.46 -59.5 0 0 73.11 60.18
  L 73.29 59.87
  A 2.49 1.46 -59.5 0 0 73.30 56.98
  L 73.21 56.93
  A 0.14 0.14 0.0 0 0 73.02 56.98
  Z
  M 32.84 60.20
  C 28.91 62.51 25.06 65.01 24.13 69.61
  A 1.62 1.61 -75.4 0 0 25.21 71.46
  Q 26.83 71.99 28.72 70.91
  Q 34.89 67.41 33.87 60.70
  Q 33.72 59.69 32.84 60.20
  Z
  M 60.3819 64.3947
  A 2.42 0.41 130.7 0 0 62.2708 62.8274
  A 2.42 0.41 130.7 0 0 63.5381 60.7253
  A 2.42 0.41 130.7 0 0 61.6492 62.2926
  A 2.42 0.41 130.7 0 0 60.3819 64.3947
  Z"
/>
<path fill="#df0056" d="
  M 61.22 37.62
  Q 63.80 38.94 66.15 41.68
  Q 66.89 42.54 66.65 41.51
  Q 66.61 41.35 66.62 41.21
  Q 66.63 40.96 66.73 41.19
  Q 67.29 42.49 68.72 42.37
  Q 69.13 42.34 69.12 42.76
  Q 69.07 43.84 69.61 44.75
  Q 68.10 49.45 65.09 53.86
  A 0.48 0.48 0.0 0 1 64.24 53.76
  Q 62.82 49.94 64.44 46.18
  A 0.82 0.82 0.0 0 0 63.70 45.04
  L 61.39 45.00
  A 1.50 1.50 0.0 0 0 59.98 45.91
  L 52.59 62.77
  A 0.44 0.44 0.0 0 1 51.75 62.49
  L 53.85 53.48
  Q 53.97 52.97 53.55 52.65
  Q 52.84 52.13 51.93 52.29
  Q 51.26 52.40 51.39 51.73
  C 52.40 46.79 47.65 47.21 45.03 49.78
  Q 40.70 54.02 34.99 56.10
  Q 34.56 56.26 34.20 55.96
  C 29.58 52.07 20.72 47.24 23.24 40.00
  C 25.78 32.73 37.99 26.89 44.77 24.84
  C 48.75 23.63 59.79 22.02 60.75 28.26
  C 62.17 37.42 42.14 46.72 35.94 40.69
  Q 33.79 38.60 34.85 41.40
  C 36.00 44.44 40.99 45.46 43.99 45.38
  Q 54.22 45.10 61.22 37.62
  Z"
/>
<path fill="#cc0040" d="
  M 0.00 38.24
  L 0.18 40.89
  Q 0.21 41.23 0.53 41.33
  Q 0.75 41.39 0.86 41.51
  Q 4.35 45.17 8.15 48.48
  Q 11.32 51.26 20.91 61.49
  Q 21.28 61.88 21.83 61.87
  Q 22.41 61.85 22.49 62.50
  Q 22.54 62.88 22.51 62.90
  Q 22.37 62.95 22.23 63.01
  A 0.14 0.14 0.0 0 0 22.29 63.27
  Q 22.93 63.31 23.04 63.72
  Q 18.59 67.37 19.61 72.50
  C 20.63 77.57 27.61 76.18 30.79 74.45
  Q 30.83 74.91 30.95 75.16
  Q 31.04 75.36 31.24 75.26
  Q 31.53 75.12 31.23 74.98
  A 0.12 0.12 0.0 0 1 31.21 74.76
  Q 31.82 74.39 32.40 74.72
  Q 32.50 74.77 32.50 74.87
  Q 32.50 74.93 32.49 74.97
  Q 32.45 75.12 32.48 75.15
  L 53.26 96.20
  Q 53.65 96.60 53.78 97.14
  Q 54.03 98.18 54.96 98.63
  Q 55.66 98.97 54.94 99.25
  Q 54.29 99.50 54.26 100.00
  L 18.00 100.00
  Q 2.62 97.27 0.00 81.88
  L 0.00 38.24
  Z"
/>
<path fill="#df0056" d="
  M 88.81 65.01
  Q 88.43 65.24 88.89 65.61
  Q 89.32 65.96 89.84 65.94
  Q 90.31 65.91 90.65 66.24
  Q 94.67 70.29 98.69 74.33
  Q 98.83 74.47 98.95 74.46
  Q 99.07 74.45 99.21 74.39
  Q 99.29 74.36 99.29 74.44
  Q 99.24 78.64 100.00 76.17
  L 100.00 81.99
  Q 97.22 97.18 82.63 99.79
  L 51.41 68.15
  Q 56.48 61.09 59.80 52.45
  Q 60.17 51.48 60.36 52.50
  Q 60.86 55.17 62.19 57.52
  Q 62.47 58.01 62.14 58.47
  C 60.94 60.12 57.08 63.94 56.88 65.69
  A 1.16 1.16 0.0 0 0 58.02 66.98
  C 63.62 67.03 68.40 63.72 66.14 57.53
  Q 65.96 57.04 66.23 56.59
  L 70.12 50.09
  A 0.31 0.30 56.6 0 1 70.68 50.21
  Q 71.01 52.64 72.23 54.77
  Q 72.53 55.29 72.06 55.66
  Q 68.83 58.21 67.99 62.22
  A 1.89 1.89 0.0 0 0 70.15 64.48
  C 74.57 63.74 77.92 60.46 76.63 55.74
  Q 76.49 55.23 77.00 55.07
  Q 81.90 53.52 86.75 55.19
  C 90.75 56.57 93.40 61.08 88.97 64.19
  Q 88.42 64.58 88.81 65.01
  Z"
/>
<path fill="#df0056" d="
  M 44.91 64.46
  A 0.12 0.12 0.0 0 1 44.75 64.53
  L 44.71 64.51
  A 6.78 3.25 -69.9 0 1 43.98 57.03
  L 44.22 56.37
  A 6.78 3.25 -69.9 0 1 49.61 51.12
  L 49.65 51.14
  A 0.12 0.12 0.0 0 1 49.72 51.29
  L 44.91 64.46
  Z"
/>
<path fill="#d40049" d="
  M 51.41 68.15
  L 82.63 99.79
  Q 82.25 99.90 81.88 100.00
  L 54.26 100.00
  Q 54.29 99.50 54.94 99.25
  Q 55.66 98.97 54.96 98.63
  Q 54.03 98.18 53.78 97.14
  Q 53.65 96.60 53.26 96.20
  L 32.48 75.15
  Q 32.45 75.12 32.49 74.97
  Q 32.50 74.93 32.50 74.87
  Q 32.50 74.77 32.40 74.72
  Q 31.82 74.39 31.21 74.76
  A 0.12 0.12 0.0 0 0 31.23 74.98
  Q 31.53 75.12 31.24 75.26
  Q 31.04 75.36 30.95 75.16
  Q 30.83 74.91 30.79 74.45
  Q 39.04 68.95 36.40 58.93
  Q 36.27 58.44 36.71 58.20
  L 39.58 56.59
  A 0.38 0.37 84.7 0 1 40.12 57.04
  C 39.14 59.87 38.79 69.42 43.39 69.13
  C 46.19 68.95 46.88 65.22 48.07 63.32
  Q 48.47 62.67 48.39 63.43
  C 48.16 65.74 48.27 68.07 51.41 68.15
  Z"
/>
<path fill="#df0056" d="
  M 73.02 56.98
  A 0.14 0.14 0.0 0 1 73.21 56.93
  L 73.30 56.98
  A 2.49 1.46 -59.5 0 1 73.29 59.87
  L 73.11 60.18
  A 2.49 1.46 -59.5 0 1 70.59 61.58
  L 70.50 61.53
  A 0.14 0.14 0.0 0 1 70.45 61.34
  L 73.02 56.98
  Z"
/>
<path fill="#d40049" d="
  M 32.84 60.20
  Q 33.72 59.69 33.87 60.70
  Q 34.89 67.41 28.72 70.91
  Q 26.83 71.99 25.21 71.46
  A 1.62 1.61 -75.4 0 1 24.13 69.61
  C 25.06 65.01 28.91 62.51 32.84 60.20
  Z"
/>
<ellipse fill="#df0056" cx="0.00" cy="0.00" transform="translate(61.96,62.56) rotate(130.7)" rx="2.42" ry="0.41"/>
</svg>
