<?xml version="1.0" encoding="UTF-8" standalone="no"?>
<!DOCTYPE svg PUBLIC "-//W3C//DTD SVG 1.1//EN" "http://www.w3.org/Graphics/SVG/1.1/DTD/svg11.dtd">
<svg xmlns="http://www.w3.org/2000/svg" version="1.1" viewBox="0.00 0.00 800.00 718.00">
<path fill="#68bd45" d="
  M 239.13 0.00
  L 560.50 0.00
  C 564.72 0.54 569.14 0.98 573.12 1.99
  C 596.32 7.87 619.77 22.44 632.04 43.67
  Q 708.89 176.65 785.68 309.66
  Q 792.22 320.98 794.50 327.57
  C 800.09 343.72 800.87 361.87 797.78 378.50
  Q 795.34 391.72 790.36 400.33
  Q 712.89 534.52 635.41 668.70
  Q 629.08 679.68 624.79 684.70
  C 608.49 703.79 584.76 715.41 560.14 718.00
  L 239.00 718.00
  C 211.91 715.53 181.51 698.97 167.61 674.89
  Q 90.57 541.45 13.52 408.00
  Q 7.60 397.74 5.47 391.99
  C 2.33 383.53 1.06 375.06 0.00 366.12
  L 0.00 351.50
  C 1.07 342.15 2.55 333.13 6.07 324.37
  Q 8.00 319.56 13.75 309.61
  Q 88.77 179.68 163.78 49.75
  C 167.93 42.57 171.46 36.52 176.94 30.75
  C 193.09 13.69 215.57 2.04 239.13 0.00
  Z
  M 430.7723 149.3266
  A 31.53 31.53 0.0 0 0 399.2973 117.7416
  L 397.6373 117.7387
  A 31.53 31.53 0.0 0 0 366.0524 149.2137
  L 365.7077 346.6734
  A 31.53 31.53 0.0 0 0 397.1827 378.2584
  L 398.8427 378.2613
  A 31.53 31.53 0.0 0 0 430.4276 346.7863
  L 430.7723 149.3266
  Z
  M 615.30 378.61
  C 627.29 301.76 598.18 226.33 539.20 176.04
  C 534.08 171.67 527.06 165.84 520.61 163.75
  C 493.77 155.04 471.43 185.99 488.97 208.56
  Q 491.52 211.84 497.68 216.58
  Q 530.89 242.17 547.87 282.16
  C 581.62 361.64 546.46 453.00 469.43 491.16
  C 416.93 517.16 351.55 511.82 303.93 477.60
  C 216.46 414.75 212.28 286.67 296.28 218.54
  C 299.52 215.91 303.39 213.10 305.88 210.14
  C 314.65 199.69 315.30 185.32 307.19 174.30
  C 300.21 164.82 286.92 160.35 275.99 163.86
  Q 269.78 165.86 259.21 174.49
  C 145.95 267.05 153.16 442.57 273.40 525.83
  C 406.84 618.23 590.44 538.04 615.30 378.61
  Z"
/>
</svg>
