<?xml version="1.0" encoding="UTF-8" standalone="no"?>
<!DOCTYPE svg PUBLIC "-//W3C//DTD SVG 1.1//EN" "http://www.w3.org/Graphics/SVG/1.1/DTD/svg11.dtd">
<svg xmlns="http://www.w3.org/2000/svg" version="1.1" viewBox="0.00 0.00 512.00 512.00">
<g stroke-width="2.00" fill="none" stroke-linecap="butt">
<path stroke="#98bce3" vector-effect="non-scaling-stroke" d="
  M 407.55 332.92
  C 396.50 328.41 384.16 322.90 375.47 314.53
  C 368.39 307.72 366.85 297.11 373.33 289.07
  Q 378.20 283.01 387.77 280.34
  C 411.11 273.81 439.09 280.04 459.74 292.96
  Q 460.14 293.21 460.14 292.74
  L 460.14 247.23
  A 0.82 0.81 -79.5 0 0 459.62 246.47
  C 439.04 238.61 414.77 236.96 392.75 238.39
  C 359.12 240.58 321.95 255.90 316.71 293.78
  C 314.79 307.67 316.50 322.03 323.27 334.37
  C 339.11 363.22 373.34 369.27 399.50 384.19
  C 406.99 388.45 414.51 395.10 416.34 403.61
  C 419.97 420.50 402.44 428.24 389.17 429.62
  C 362.67 432.37 337.98 424.61 317.42 407.81
  Q 316.96 407.43 316.96 408.03
  L 316.96 457.20
  Q 316.96 457.46 317.18 457.57
  Q 330.72 464.14 345.47 466.89
  Q 377.76 472.89 409.84 467.50
  C 422.38 465.40 433.66 461.68 443.78 455.08
  C 466.09 440.52 473.64 414.32 468.73 389.00
  C 462.75 358.14 433.63 343.56 407.55 332.92"
/>
<path stroke="#98bce3" vector-effect="non-scaling-stroke" d="
  M 232.77 284.54
  A 0.50 0.50 0.0 0 1 233.27 284.04
  L 296.50 284.05
  A 0.50 0.50 0.0 0 0 297.00 283.55
  L 297.00 243.50
  A 0.50 0.50 0.0 0 0 296.50 243.00
  L 118.50 243.00
  A 0.50 0.50 0.0 0 0 118.00 243.50
  L 118.00 283.54
  A 0.50 0.50 0.0 0 0 118.50 284.04
  L 181.42 284.05
  A 0.50 0.50 0.0 0 1 181.92 284.55
  L 181.91 466.50
  A 0.50 0.50 0.0 0 0 182.41 467.00
  L 232.27 467.00
  A 0.50 0.50 0.0 0 0 232.77 466.50
  L 232.77 284.54"
/>
</g>
<path fill="#3178c6" d="
  M 44.39 0.00
  L 467.75 0.00
  Q 470.35 0.70 472.95 1.29
  Q 490.92 5.35 502.01 19.97
  Q 508.58 28.64 510.81 39.28
  Q 511.35 41.83 512.00 44.37
  L 512.00 467.75
  Q 511.30 470.21 510.77 472.71
  Q 507.66 487.23 497.13 497.62
  Q 487.15 507.47 473.45 510.60
  Q 470.54 511.27 467.63 512.00
  L 44.25 512.00
  Q 41.78 511.33 39.27 510.79
  C 17.97 506.17 2.95 489.12 0.00 467.36
  L 0.00 44.25
  Q 0.68 41.66 1.27 39.03
  C 6.05 17.71 22.90 3.10 44.39 0.00
  Z
  M 407.55 332.92
  C 396.50 328.41 384.16 322.90 375.47 314.53
  C 368.39 307.72 366.85 297.11 373.33 289.07
  Q 378.20 283.01 387.77 280.34
  C 411.11 273.81 439.09 280.04 459.74 292.96
  Q 460.14 293.21 460.14 292.74
  L 460.14 247.23
  A 0.82 0.81 -79.5 0 0 459.62 246.47
  C 439.04 238.61 414.77 236.96 392.75 238.39
  C 359.12 240.58 321.95 255.90 316.71 293.78
  C 314.79 307.67 316.50 322.03 323.27 334.37
  C 339.11 363.22 373.34 369.27 399.50 384.19
  C 406.99 388.45 414.51 395.10 416.34 403.61
  C 419.97 420.50 402.44 428.24 389.17 429.62
  C 362.67 432.37 337.98 424.61 317.42 407.81
  Q 316.96 407.43 316.96 408.03
  L 316.96 457.20
  Q 316.96 457.46 317.18 457.57
  Q 330.72 464.14 345.47 466.89
  Q 377.76 472.89 409.84 467.50
  C 422.38 465.40 433.66 461.68 443.78 455.08
  C 466.09 440.52 473.64 414.32 468.73 389.00
  C 462.75 358.14 433.63 343.56 407.55 332.92
  Z
  M 232.77 284.54
  A 0.50 0.50 0.0 0 1 233.27 284.04
  L 296.50 284.05
  A 0.50 0.50 0.0 0 0 297.00 283.55
  L 297.00 243.50
  A 0.50 0.50 0.0 0 0 296.50 243.00
  L 118.50 243.00
  A 0.50 0.50 0.0 0 0 118.00 243.50
  L 118.00 283.54
  A 0.50 0.50 0.0 0 0 118.50 284.04
  L 181.42 284.05
  A 0.50 0.50 0.0 0 1 181.92 284.55
  L 181.91 466.50
  A 0.50 0.50 0.0 0 0 182.41 467.00
  L 232.27 467.00
  A 0.50 0.50 0.0 0 0 232.77 466.50
  L 232.77 284.54
  Z"
/>
<path fill="#ffffff" d="
  M 407.55 332.92
  C 433.63 343.56 462.75 358.14 468.73 389.00
  C 473.64 414.32 466.09 440.52 443.78 455.08
  C 433.66 461.68 422.38 465.40 409.84 467.50
  Q 377.76 472.89 345.47 466.89
  Q 330.72 464.14 317.18 457.57
  Q 316.96 457.46 316.96 457.20
  L 316.96 408.03
  Q 316.96 407.43 317.42 407.81
  C 337.98 424.61 362.67 432.37 389.17 429.62
  C 402.44 428.24 419.97 420.50 416.34 403.61
  C 414.51 395.10 406.99 388.45 399.50 384.19
  C 373.34 369.27 339.11 363.22 323.27 334.37
  C 316.50 322.03 314.79 307.67 316.71 293.78
  C 321.95 255.90 359.12 240.58 392.75 238.39
  C 414.77 236.96 439.04 238.61 459.62 246.47
  A 0.82 0.81 -79.5 0 1 460.14 247.23
  L 460.14 292.74
  Q 460.14 293.21 459.74 292.96
  C 439.09 280.04 411.11 273.81 387.77 280.34
  Q 378.20 283.01 373.33 289.07
  C 366.85 297.11 368.39 307.72 375.47 314.53
  C 384.16 322.90 396.50 328.41 407.55 332.92
  Z"
/>
<path fill="#ffffff" d="
  M 232.77 284.54
  L 232.77 466.50
  A 0.50 0.50 0.0 0 1 232.27 467.00
  L 182.41 467.00
  A 0.50 0.50 0.0 0 1 181.91 466.50
  L 181.92 284.55
  A 0.50 0.50 0.0 0 0 181.42 284.05
  L 118.50 284.04
  A 0.50 0.50 0.0 0 1 118.00 283.54
  L 118.00 243.50
  A 0.50 0.50 0.0 0 1 118.50 243.00
  L 296.50 243.00
  A 0.50 0.50 0.0 0 1 297.00 243.50
  L 297.00 283.55
  A 0.50 0.50 0.0 0 1 296.50 284.05
  L 233.27 284.04
  A 0.50 0.50 0.0 0 0 232.77 284.54
  Z"
/>
</svg>
