<?xml version="1.0" encoding="UTF-8" standalone="no"?>
<!DOCTYPE svg PUBLIC "-//W3C//DTD SVG 1.1//EN" "http://www.w3.org/Graphics/SVG/1.1/DTD/svg11.dtd">
<svg xmlns="http://www.w3.org/2000/svg" version="1.1" viewBox="0.00 0.00 644.00 900.00">
<path fill="#BE00E8" d="
  M 394.01 628.83
  C 379.01 622.49 362.06 623.66 348.30 632.85
  Q 348.29 632.86 342.29 637.77
  C 332.07 646.13 317.23 647.57 305.60 641.09
  Q 304.33 640.38 297.89 635.25
  C 285.27 625.20 267.06 621.79 251.68 627.59
  Q 243.73 630.59 243.00 630.76
  C 230.69 633.52 216.51 628.71 209.32 618.43
  C 207.41 615.71 205.29 611.48 202.74 608.62
  C 193.18 597.87 178.57 590.69 163.84 591.80
  C 161.08 592.01 158.02 592.44 155.37 592.11
  Q 136.45 589.68 128.43 573.03
  C 126.44 568.91 125.95 563.10 124.25 559.24
  Q 114.38 536.88 91.69 530.43
  Q 83.67 528.15 82.06 527.36
  C 70.38 521.62 63.47 509.19 64.08 496.41
  Q 64.47 488.14 64.47 488.06
  C 63.79 473.76 56.31 459.61 44.37 451.48
  Q 42.07 449.91 39.74 448.37
  C 28.44 440.90 22.61 428.08 25.13 414.63
  Q 25.45 412.92 28.20 405.76
  C 33.63 391.63 31.94 374.67 23.37 361.91
  Q 23.34 361.87 18.34 355.80
  C 8.38 343.69 8.63 325.81 18.68 313.96
  Q 22.89 308.98 23.78 307.56
  Q 34.17 290.77 30.27 271.04
  C 29.32 266.26 26.64 261.99 25.50 257.20
  C 22.75 245.64 26.32 233.50 34.97 225.36
  Q 36.40 224.01 42.14 220.40
  C 58.06 210.40 66.59 191.61 64.00 173.01
  C 63.59 170.11 64.58 164.99 65.64 161.90
  Q 70.41 148.06 83.45 142.16
  Q 84.92 141.50 92.22 139.53
  C 106.53 135.66 118.47 124.77 124.11 111.05
  Q 124.59 109.89 126.39 102.83
  C 129.76 89.60 141.14 79.39 154.91 78.10
  Q 155.24 78.07 164.59 78.39
  C 181.71 78.98 198.38 69.95 207.08 55.15
  C 215.68 40.50 233.15 34.62 248.70 41.33
  C 264.05 47.95 280.79 46.12 294.38 37.46
  Q 295.07 37.02 300.86 32.30
  C 311.94 23.28 328.51 22.44 340.25 30.77
  Q 341.75 31.84 346.48 36.03
  Q 351.44 40.41 360.77 43.19
  Q 376.99 48.02 392.23 42.19
  Q 399.32 39.48 401.10 39.14
  C 412.36 37.00 424.13 40.88 431.84 49.50
  Q 432.29 50.00 437.14 57.29
  C 446.12 70.78 463.28 79.67 479.59 78.27
  Q 483.88 77.90 485.25 77.93
  C 497.91 78.23 509.30 85.56 514.56 97.04
  Q 515.09 98.18 517.30 106.15
  C 521.30 120.52 532.26 132.60 546.23 138.10
  C 549.60 139.43 554.32 140.08 557.51 141.27
  Q 565.85 144.40 571.17 150.82
  Q 580.18 161.71 578.55 177.50
  C 576.91 193.45 586.74 211.04 600.05 219.83
  Q 606.86 224.34 607.65 225.05
  C 616.31 232.89 620.19 244.98 617.67 256.45
  Q 617.19 258.67 615.20 263.37
  C 609.04 277.97 611.17 294.49 619.17 307.52
  C 621.45 311.23 625.25 314.29 627.42 318.25
  Q 636.57 334.91 627.67 351.42
  C 625.55 355.35 621.93 358.32 619.46 362.16
  C 610.59 375.97 608.95 394.12 616.26 408.99
  Q 617.07 410.62 617.76 413.95
  C 620.25 425.89 615.99 437.49 607.13 445.64
  C 604.28 448.25 599.21 450.54 596.16 453.06
  C 584.34 462.83 577.60 478.09 578.60 493.40
  Q 579.03 500.01 578.76 502.10
  C 577.29 513.42 569.97 523.51 559.41 528.08
  Q 558.98 528.27 550.28 530.73
  C 534.51 535.19 521.68 548.18 517.32 563.94
  Q 515.15 571.78 514.64 572.91
  C 508.52 586.44 495.48 593.09 480.84 591.88
  C 465.05 590.57 450.30 597.23 440.13 608.77
  C 437.19 612.11 435.46 616.56 432.46 619.94
  C 422.82 630.83 408.03 634.75 394.01 628.83
  Z
  M 561.71 335.07
  A 240.21 240.06 0.0 0 0 321.50 95.01
  A 240.21 240.06 0.0 0 0 81.29 335.07
  A 240.21 240.06 0.0 0 0 321.50 575.13
  A 240.21 240.06 0.0 0 0 561.71 335.07
  Z"
/>
<path fill="#BE00E8" d="
  M 540.7747 333.5391
  A 219.28 219.14 -0.4 0 1 323.0299 554.2047
  A 219.28 219.14 -0.4 0 1 102.2253 336.6009
  A 219.28 219.14 -0.4 0 1 319.9701 115.9353
  A 219.28 219.14 -0.4 0 1 540.7747 333.5391
  Z
  M 279.35 369.81
  Q 252.03 342.72 225.03 315.22
  Q 218.14 308.20 209.25 309.53
  Q 203.21 310.44 199.83 313.82
  Q 186.09 327.57 172.31 341.28
  C 165.53 348.03 161.45 354.58 165.08 363.75
  Q 166.57 367.53 172.52 373.94
  Q 217.25 422.07 261.91 470.25
  Q 267.54 476.33 270.77 477.91
  C 279.39 482.13 285.50 477.15 290.98 470.23
  Q 373.04 366.68 455.14 263.14
  Q 459.85 257.19 460.99 253.48
  C 464.13 243.20 458.25 237.66 449.96 231.48
  Q 437.52 222.21 425.12 212.87
  C 417.68 207.26 410.57 204.12 402.31 209.09
  Q 398.88 211.15 393.53 218.27
  Q 336.65 294.05 279.77 369.78
  A 0.28 0.28 0.0 0 1 279.35 369.81
  Z"
/>
<path fill="#BE00E8" d="
  M 171.20 747.26
  A 0.51 0.51 0.0 0 0 170.52 747.01
  L 38.99 808.25
  A 0.22 0.22 0.0 0 1 38.69 807.97
  L 118.12 590.05
  Q 118.32 589.49 118.74 589.91
  Q 120.25 591.38 121.62 592.87
  Q 135.69 608.07 155.98 609.17
  Q 156.01 609.17 164.48 608.87
  Q 178.63 608.38 188.57 618.42
  C 191.85 621.73 193.73 626.34 196.80 630.09
  C 210.22 646.43 234.36 653.89 254.12 645.14
  C 266.77 639.55 278.49 641.16 288.80 650.05
  Q 298.73 658.61 311.70 661.26
  Q 312.11 661.35 311.97 661.74
  L 232.97 878.49
  A 0.26 0.26 0.0 0 1 232.49 878.51
  L 171.20 747.26
  Z"
/>
<path fill="#BE00E8" d="
  M 471.80 747.25
  L 410.51 878.50
  A 0.26 0.26 0.0 0 1 410.03 878.48
  L 331.10 661.93
  Q 330.90 661.39 331.47 661.26
  C 341.40 659.11 347.56 655.20 355.26 648.99
  Q 366.52 639.91 381.23 642.44
  C 384.42 642.99 387.80 644.63 391.05 645.80
  C 412.90 653.67 437.39 644.79 449.40 625.48
  C 450.83 623.18 452.12 620.79 453.95 618.89
  Q 461.51 611.02 472.08 609.18
  Q 474.68 608.73 480.91 609.10
  Q 504.41 610.50 520.94 593.61
  C 521.78 592.76 523.09 591.09 524.20 589.84
  Q 524.63 589.36 524.86 589.97
  L 604.31 807.97
  A 0.22 0.22 0.0 0 1 604.01 808.25
  L 472.49 747.00
  A 0.53 0.52 24.8 0 0 471.80 747.25
  Z"
/>
</svg>
