<?xml version="1.0" encoding="UTF-8" standalone="no"?>
<!DOCTYPE svg PUBLIC "-//W3C//DTD SVG 1.1//EN" "http://www.w3.org/Graphics/SVG/1.1/DTD/svg11.dtd">
<svg xmlns="http://www.w3.org/2000/svg" version="1.1" viewBox="0.00 0.00 128.00 128.00">
<path fill="#BE00E8" d="
  M 46.12 98.03
  L 71.74 29.60
  A 0.43 0.43 0.0 0 1 72.15 29.32
  L 79.38 29.38
  A 0.43 0.43 0.0 0 1 79.77 29.97
  L 54.07 98.48
  A 0.43 0.43 0.0 0 1 53.66 98.75
  L 46.52 98.61
  A 0.43 0.43 0.0 0 1 46.12 98.03
  Z"
/>
<path fill="#BE00E8" d="
  M 0.00 69.85
  L 0.00 58.04
  L 38.63 37.07
  A 0.34 0.34 0.0 0 1 39.14 37.37
  L 39.13 50.27
  Q 39.13 50.73 38.72 50.92
  L 12.46 63.51
  A 0.33 0.33 0.0 0 0 12.45 64.10
  L 38.52 77.03
  Q 39.14 77.34 39.14 78.02
  L 39.13 90.73
  A 0.27 0.27 0.0 0 1 38.73 90.97
  L 0.00 69.85
  Z"
/>
<path fill="#BE00E8" d="
  M 128.00 58.04
  L 128.00 69.85
  L 89.32 91.00
  A 0.30 0.30 0.0 0 1 88.87 90.74
  L 88.86 77.93
  Q 88.86 77.40 89.33 77.16
  L 115.45 64.31
  Q 116.23 63.93 115.45 63.55
  L 89.26 50.67
  A 0.72 0.60 15.6 0 1 88.86 50.09
  L 88.86 37.26
  A 0.31 0.30 14.3 0 1 89.31 37.00
  L 128.00 58.04
  Z"
/>
</svg>
