<?xml version="1.0" encoding="UTF-8" standalone="no"?>
<!DOCTYPE svg PUBLIC "-//W3C//DTD SVG 1.1//EN" "http://www.w3.org/Graphics/SVG/1.1/DTD/svg11.dtd">
<svg xmlns="http://www.w3.org/2000/svg" version="1.1" viewBox="0.00 0.00 128.00 128.00">
<path fill="#f7414e" d="
  M 11.38 0.00
  L 116.75 0.00
  Q 126.31 1.76 128.00 11.38
  L 128.00 90.23
  Q 125.67 101.41 114.25 101.46
  Q 95.49 101.54 76.80 101.43
  Q 76.47 101.43 76.47 101.76
  L 76.49 112.54
  Q 76.49 113.05 76.99 113.03
  Q 90.05 112.74 91.48 125.23
  Q 91.72 127.30 89.36 128.00
  L 38.51 128.00
  Q 36.12 127.16 36.55 124.61
  Q 38.53 112.70 51.02 113.02
  Q 51.53 113.03 51.53 112.52
  L 51.52 102.00
  A 0.52 0.52 0.0 0 0 51.00 101.48
  Q 32.31 101.49 13.50 101.52
  Q 2.22 101.53 0.00 90.11
  L 0.00 11.26
  Q 1.77 1.69 11.38 0.00
  Z
  M 28.87 16.63
  A 2.42 2.41 -16.0 0 1 31.23 17.93
  Q 35.89 26.96 40.48 36.50
  Q 41.49 38.59 41.50 40.92
  Q 41.55 58.49 41.45 75.99
  A 0.52 0.52 0.0 0 0 41.97 76.51
  L 53.71 76.50
  A 0.41 0.41 0.0 0 0 54.12 76.09
  Q 54.13 62.42 56.25 48.94
  A 1.15 1.13 -62.8 0 0 55.95 47.99
  C 50.03 41.93 51.47 36.35 55.52 29.25
  Q 58.90 23.33 62.33 17.53
  A 2.41 2.41 0.0 0 1 66.47 17.51
  C 69.61 22.76 74.53 30.32 76.05 34.49
  Q 78.84 42.16 72.18 48.71
  Q 71.81 49.08 71.89 49.59
  Q 73.89 62.62 73.85 75.82
  Q 73.85 76.49 74.52 76.49
  L 86.25 76.51
  A 0.26 0.26 0.0 0 0 86.51 76.25
  L 86.49 19.48
  Q 86.49 16.55 89.43 16.53
  Q 99.29 16.45 108.74 16.48
  Q 111.33 16.49 111.38 18.49
  Q 112.10 47.34 111.38 76.09
  A 0.40 0.40 0.0 0 0 111.78 76.50
  L 122.47 76.48
  Q 122.99 76.48 122.99 75.97
  Q 123.02 44.23 123.00 12.50
  C 122.99 6.71 118.47 5.02 113.20 5.02
  Q 63.59 5.00 13.98 5.02
  C 7.38 5.02 5.02 8.00 5.02 14.62
  Q 4.98 45.28 5.01 76.01
  Q 5.01 76.48 5.47 76.48
  L 16.01 76.50
  A 0.52 0.51 -0.0 0 0 16.53 75.99
  L 16.48 40.04
  A 6.71 6.64 58.7 0 1 17.20 37.02
  Q 21.87 27.72 26.83 18.02
  Q 27.48 16.75 28.87 16.63
  Z
  M 103.28 39.30
  Q 104.66 39.27 105.92 38.70
  A 0.68 0.67 79.2 0 0 106.31 38.12
  L 106.50 32.38
  A 0.78 0.78 0.0 0 0 105.85 31.59
  L 103.24 31.16
  A 2.04 2.04 0.0 0 1 101.55 28.91
  C 101.83 26.62 104.03 26.52 105.78 26.49
  Q 106.50 26.48 106.50 25.76
  L 106.50 22.26
  Q 106.51 21.52 105.76 21.52
  L 91.82 21.43
  A 0.32 0.31 -89.1 0 0 91.50 21.75
  L 91.47 76.20
  A 0.31 0.30 -90.0 0 0 91.77 76.51
  L 105.95 76.49
  A 0.67 0.67 0.0 0 0 106.62 75.79
  L 106.47 72.22
  Q 106.44 71.49 105.72 71.44
  C 103.85 71.30 101.18 71.42 101.63 68.44
  A 2.03 2.01 -0.2 0 1 103.32 66.75
  L 105.86 66.37
  A 0.73 0.73 0.0 0 0 106.47 65.64
  L 106.36 57.29
  Q 106.35 56.68 105.75 56.57
  L 103.11 56.08
  A 0.83 0.82 -13.0 0 1 102.61 55.77
  Q 101.34 54.12 102.41 52.25
  A 1.03 1.02 10.0 0 1 103.13 51.75
  L 105.47 51.39
  Q 106.07 51.30 106.19 50.71
  Q 106.76 47.78 106.23 44.84
  A 1.11 1.09 1.7 0 0 105.41 43.98
  L 103.03 43.42
  Q 102.40 43.27 102.16 42.67
  Q 101.59 41.21 102.40 39.82
  A 1.03 1.03 0.0 0 1 103.28 39.30
  Z
  M 64.08 24.40
  C 62.07 27.89 57.36 34.43 56.92 37.99
  C 56.11 44.59 64.02 48.91 69.38 44.39
  C 72.89 41.43 72.26 37.69 70.17 33.82
  Q 67.60 29.05 64.68 24.39
  A 0.35 0.35 0.0 0 0 64.08 24.40
  Z
  M 23.26 36.12
  A 0.30 0.30 0.0 0 0 23.53 36.56
  L 34.50 36.54
  A 0.30 0.30 0.0 0 0 34.77 36.10
  L 29.27 25.07
  A 0.30 0.30 0.0 0 0 28.73 25.07
  L 23.26 36.12
  Z
  M 26.52 42.06
  A 0.57 0.57 0.0 0 0 25.95 41.49
  L 22.07 41.49
  A 0.57 0.57 0.0 0 0 21.50 42.06
  L 21.50 75.92
  A 0.57 0.57 0.0 0 0 22.07 76.49
  L 25.95 76.49
  A 0.57 0.57 0.0 0 0 26.52 75.92
  L 26.52 42.06
  Z
  M 36.52 42.05
  A 0.55 0.55 0.0 0 0 35.97 41.50
  L 32.05 41.50
  A 0.55 0.55 0.0 0 0 31.50 42.05
  L 31.50 75.97
  A 0.55 0.55 0.0 0 0 32.05 76.52
  L 35.97 76.52
  A 0.55 0.55 0.0 0 0 36.52 75.97
  L 36.52 42.05
  Z
  M 67.36 51.66
  A 0.42 0.42 0.0 0 0 66.96 51.28
  L 61.17 51.10
  A 0.42 0.42 0.0 0 0 60.74 51.48
  L 59.30 66.08
  A 0.42 0.42 0.0 0 0 59.72 66.54
  L 68.29 66.49
  A 0.42 0.42 0.0 0 0 68.71 66.03
  L 67.36 51.66
  Z
  M 68.98 72.03
  A 0.54 0.54 0.0 0 0 68.44 71.49
  L 59.50 71.49
  A 0.54 0.54 0.0 0 0 58.96 72.03
  L 58.96 75.95
  A 0.54 0.54 0.0 0 0 59.50 76.49
  L 68.44 76.49
  A 0.54 0.54 0.0 0 0 68.98 75.95
  L 68.98 72.03
  Z
  M 113.27 96.39
  C 123.76 96.34 123.26 90.56 122.94 81.93
  Q 122.92 81.49 122.49 81.49
  L 5.75 81.50
  Q 5.30 81.50 5.25 81.94
  Q 4.35 88.97 5.28 91.22
  C 7.70 97.02 11.46 96.44 17.72 96.46
  Q 65.49 96.62 113.27 96.39
  Z
  M 71.5095 101.8031
  A 0.34 0.34 0.0 0 0 71.1701 101.4625
  L 56.8501 101.4375
  A 0.34 0.34 0.0 0 0 56.5095 101.7769
  L 56.4905 112.6369
  A 0.34 0.34 0.0 0 0 56.8299 112.9775
  L 71.1499 113.0025
  A 0.34 0.34 0.0 0 0 71.4905 112.6631
  L 71.5095 101.8031
  Z
  M 47.15 117.99
  A 1.13 1.13 0.0 0 0 46.50 118.20
  L 42.64 120.94
  A 1.13 1.13 0.0 0 0 43.29 122.99
  L 84.80 122.99
  A 1.13 1.13 0.0 0 0 85.46 120.94
  L 81.68 118.21
  A 1.13 1.13 0.0 0 0 81.01 118.00
  L 47.15 117.99
  Z"
/>
<rect fill="#f7414e" x="-9.89" y="-2.47" transform="translate(61.48,89.00) rotate(0.1)" width="19.78" height="4.94" rx="2.39"/>
<circle fill="#f7414e" cx="79.00" cy="88.97" r="2.41"/>
</svg>
