<?xml version="1.0" encoding="UTF-8" standalone="no"?>
<!DOCTYPE svg PUBLIC "-//W3C//DTD SVG 1.1//EN" "http://www.w3.org/Graphics/SVG/1.1/DTD/svg11.dtd">
<svg xmlns="http://www.w3.org/2000/svg" version="1.1" viewBox="0.00 0.00 128.00 128.00">
<path fill="#BE00E8" d="
  M 85.74 102.07
  L 95.44 101.97
  A 0.98 0.95 21.1 0 0 96.10 101.69
  Q 97.29 100.52 98.35 99.36
  Q 104.52 92.64 113.24 94.34
  C 128.36 97.28 130.36 117.96 116.75 124.45
  C 107.97 128.63 97.71 123.92 94.81 114.71
  A 1.09 1.09 0.0 0 0 93.77 113.95
  L 42.45 113.98
  A 0.52 0.52 0.0 0 1 41.93 113.45
  L 42.13 90.80
  A 0.79 0.78 -89.6 0 1 42.91 90.02
  C 52.29 89.97 64.03 90.83 71.90 89.11
  C 101.55 82.60 109.93 43.90 86.02 25.50
  C 73.31 15.71 55.94 15.61 43.02 24.81
  Q 30.29 33.88 27.91 51.32
  A 0.60 0.59 4.2 0 0 28.50 52.00
  L 33.54 51.97
  A 0.36 0.36 0.0 0 1 33.82 52.56
  L 20.48 68.48
  Q 20.00 69.06 19.51 68.48
  L 6.08 52.41
  A 0.25 0.24 -20.0 0 1 6.27 52.01
  L 11.46 51.97
  A 0.66 0.65 0.9 0 0 12.11 51.35
  C 13.68 21.85 39.69 -0.66 69.02 2.26
  C 106.54 6.00 127.77 47.15 108.97 79.97
  Q 100.88 94.09 85.55 101.24
  A 0.44 0.44 0.0 0 0 85.74 102.07
  Z
  M 71.38 6.58
  C 42.06 2.00 16.15 24.73 16.00 54.15
  C 16.00 54.99 15.59 55.74 15.13 56.31
  Q 14.80 56.73 15.15 57.14
  L 19.65 62.50
  A 0.50 0.49 -45.4 0 0 20.41 62.49
  L 24.90 57.04
  Q 25.23 56.64 24.89 56.25
  L 24.39 55.65
  A 1.37 1.34 -65.9 0 1 24.06 54.76
  C 23.87 37.63 34.37 22.13 50.28 16.50
  C 76.52 7.22 104.96 26.73 104.00 54.76
  C 103.24 76.90 85.78 93.83 63.75 93.97
  Q 54.82 94.03 46.53 94.00
  Q 46.02 94.00 46.02 94.50
  L 46.01 101.50
  Q 46.01 102.01 46.52 102.01
  C 55.23 102.00 65.37 102.59 73.11 101.09
  C 105.37 94.83 122.36 58.23 105.19 29.47
  C 98.06 17.52 85.79 8.82 71.38 6.58
  Z
  M 121.97 109.99
  A 11.97 11.97 0.0 0 0 110.00 98.02
  A 11.97 11.97 0.0 0 0 98.03 109.99
  A 11.97 11.97 0.0 0 0 110.00 121.96
  A 11.97 11.97 0.0 0 0 121.97 109.99
  Z
  M 94.21 106.54
  A 0.52 0.52 0.0 0 0 93.69 106.02
  L 46.47 106.02
  A 0.52 0.52 0.0 0 0 45.95 106.54
  L 45.95 109.48
  A 0.52 0.52 0.0 0 0 46.47 110.00
  L 93.69 110.00
  A 0.52 0.52 0.0 0 0 94.21 109.48
  L 94.21 106.54
  Z"
/>
<path fill="#BE00E8" d="
  M 75.47 75.57
  Q 74.71 75.09 74.50 75.97
  L 73.73 79.27
  Q 73.58 79.91 72.92 79.92
  L 59.36 79.99
  A 1.28 1.28 0.0 0 1 58.10 79.00
  L 57.40 75.88
  A 0.55 0.55 0.0 0 0 56.56 75.53
  L 54.21 77.06
  A 1.70 1.70 0.0 0 1 52.08 76.85
  L 42.70 67.56
  Q 42.30 67.18 42.56 66.69
  L 44.40 63.26
  A 0.52 0.52 0.0 0 0 44.04 62.50
  L 41.23 61.97
  A 1.52 1.51 -84.7 0 1 40.00 60.48
  L 39.99 47.13
  Q 39.99 46.39 40.71 46.23
  L 43.96 45.52
  A 0.78 0.78 0.0 0 0 44.44 44.33
  L 42.59 41.46
  A 0.75 0.73 -39.3 0 1 42.69 40.53
  L 52.69 30.61
  A 0.70 0.69 39.5 0 1 53.56 30.53
  L 56.44 32.47
  A 0.70 0.69 23.1 0 0 57.50 32.05
  L 58.29 28.70
  Q 58.45 28.02 59.15 28.02
  L 72.84 28.00
  Q 73.57 28.00 73.72 28.70
  L 74.41 31.92
  A 0.76 0.76 0.0 0 0 75.55 32.40
  L 78.49 30.58
  Q 79.02 30.25 79.47 30.69
  L 89.13 40.25
  A 1.17 1.15 -52.2 0 1 89.30 41.68
  L 87.44 44.73
  A 0.48 0.48 0.0 0 0 87.77 45.45
  L 90.73 45.97
  A 1.53 1.53 0.0 0 1 92.00 47.48
  L 91.99 60.77
  A 0.94 0.92 77.5 0 1 91.47 61.61
  Q 89.98 62.35 88.30 62.35
  A 0.80 0.79 74.2 0 0 87.63 63.56
  L 89.43 66.44
  Q 89.80 67.05 89.29 67.56
  L 79.46 77.24
  Q 78.96 77.74 78.36 77.37
  L 75.47 75.57
  Z
  M 72.04 71.21
  A 1.93 1.93 0.0 0 1 74.68 70.56
  L 77.46 72.23
  A 1.44 1.43 37.3 0 0 79.21 72.00
  L 84.17 66.94
  A 1.02 1.02 0.0 0 0 84.31 65.69
  C 83.31 64.09 81.09 61.70 83.21 59.93
  C 84.18 59.13 86.26 59.01 87.55 58.42
  Q 87.99 58.22 87.99 57.73
  L 88.01 50.17
  A 0.89 0.88 6.1 0 0 87.31 49.31
  L 84.06 48.60
  A 2.32 2.31 -68.1 0 1 82.59 45.13
  L 84.42 42.14
  A 0.77 0.77 0.0 0 0 84.31 41.19
  L 78.85 35.73
  A 0.83 0.83 0.0 0 0 77.85 35.60
  L 74.58 37.55
  Q 74.14 37.80 73.65 37.72
  C 70.80 37.21 71.38 34.44 70.51 32.48
  A 0.82 0.81 -11.3 0 0 69.78 32.00
  L 62.01 31.98
  Q 61.48 31.98 61.39 32.50
  C 60.56 37.45 59.17 39.36 54.50 35.71
  A 1.07 1.06 41.5 0 0 53.10 35.79
  L 47.84 40.98
  A 1.01 1.01 0.0 0 0 47.69 42.24
  L 49.53 45.26
  A 2.16 2.16 0.0 0 1 48.20 48.49
  L 44.69 49.34
  A 0.92 0.90 84.0 0 0 43.99 50.22
  L 43.97 57.52
  A 1.11 1.09 -82.0 0 0 44.75 58.58
  L 48.05 59.58
  A 2.31 2.30 23.6 0 1 49.37 62.95
  L 47.68 65.83
  A 0.82 0.82 0.0 0 0 47.80 66.82
  L 53.09 72.22
  A 0.97 0.97 0.0 0 0 54.27 72.38
  C 55.50 71.65 56.92 70.35 58.35 70.41
  C 60.48 70.51 61.04 73.67 61.35 75.26
  A 0.92 0.91 -5.6 0 0 62.26 76.00
  L 69.43 75.95
  A 1.43 1.43 0.0 0 0 70.84 74.69
  Q 71.07 72.80 72.04 71.21
  Z"
/>
<path fill="#BE00E8" d="
  M 79.92 53.99
  A 13.92 13.92 0.0 0 1 66.00 67.91
  A 13.92 13.92 0.0 0 1 52.08 53.99
  A 13.92 13.92 0.0 0 1 66.00 40.07
  A 13.92 13.92 0.0 0 1 79.92 53.99
  Z
  M 75.95 54.00
  A 9.97 9.97 0.0 0 0 65.98 44.03
  A 9.97 9.97 0.0 0 0 56.01 54.00
  A 9.97 9.97 0.0 0 0 65.98 63.97
  A 9.97 9.97 0.0 0 0 75.95 54.00
  Z"
/>
<path fill="#BE00E8" d="
  M 71.93 53.98
  A 5.94 5.94 0.0 0 1 65.99 59.92
  A 5.94 5.94 0.0 0 1 60.05 53.98
  A 5.94 5.94 0.0 0 1 65.99 48.04
  A 5.94 5.94 0.0 0 1 71.93 53.98
  Z
  M 67.95 53.99
  A 1.94 1.94 0.0 0 0 66.01 52.05
  A 1.94 1.94 0.0 0 0 64.07 53.99
  A 1.94 1.94 0.0 0 0 66.01 55.93
  A 1.94 1.94 0.0 0 0 67.95 53.99
  Z"
/>
<path fill="#BE00E8" d="
  M 37.96 120.02
  A 5.99 5.99 0.0 0 1 31.97 126.01
  L 7.99 126.01
  A 5.99 5.99 0.0 0 1 2.00 120.02
  L 2.00 80.00
  A 5.99 5.99 0.0 0 1 7.99 74.01
  L 31.97 74.01
  A 5.99 5.99 0.0 0 1 37.96 80.00
  L 37.96 120.02
  Z
  M 34.1447 80.1646
  A 2.07 2.07 0.0 0 0 32.0783 78.0910
  L 8.0784 78.0491
  A 2.07 2.07 0.0 0 0 6.0048 80.1155
  L 5.9353 119.9154
  A 2.07 2.07 0.0 0 0 8.0017 121.9890
  L 32.0016 122.0309
  A 2.07 2.07 0.0 0 0 34.0752 119.9645
  L 34.1447 80.1646
  Z"
/>
<rect fill="#BE00E8" x="-10.04" y="-2.09" transform="translate(20.02,84.07) rotate(-0.1)" width="20.08" height="4.18" rx="1.40"/>
<rect fill="#BE00E8" x="-10.12" y="-2.12" transform="translate(20.00,92.02) rotate(-0.2)" width="20.24" height="4.24" rx="1.52"/>
<rect fill="#BE00E8" x="-9.98" y="-2.08" transform="translate(20.00,100.03) rotate(-0.4)" width="19.96" height="4.16" rx="1.04"/>
<path fill="#BE00E8" d="
  M 108.70 112.52
  L 116.02 105.17
  A 0.90 0.90 0.0 0 1 117.30 105.17
  L 118.85 106.75
  A 0.90 0.90 0.0 0 1 118.84 108.02
  L 108.62 118.22
  A 0.90 0.90 0.0 0 1 107.34 118.21
  L 103.19 113.97
  A 0.90 0.90 0.0 0 1 103.20 112.70
  L 104.72 111.22
  A 0.90 0.90 0.0 0 1 105.95 111.19
  L 107.46 112.56
  A 0.90 0.90 0.0 0 0 108.70 112.52
  Z"
/>
<rect fill="#BE00E8" x="-10.05" y="-1.95" transform="translate(20.04,108.04) rotate(0.1)" width="20.10" height="3.90" rx="1.30"/>
<rect fill="#BE00E8" x="-2.03" y="-1.93" transform="translate(12.08,115.89) rotate(0.5)" width="4.06" height="3.86" rx="0.95"/>
<rect fill="#BE00E8" x="-2.00" y="-2.00" transform="translate(20.04,115.96) rotate(-0.4)" width="4.00" height="4.00" rx="1.08"/>
<rect fill="#BE00E8" x="-2.01" y="-1.94" transform="translate(27.97,115.96) rotate(2.5)" width="4.02" height="3.88" rx="0.96"/>
</svg>
